<svg width="32" height="32" viewBox="0 0 32 32" fill="none" xmlns="http://www.w3.org/2000/svg">
<path d="M3.69922 24.4034L3.70594 14.3931H9.96344C10.9369 14.3931 11.8268 14.9431 12.2621 15.8137L12.8966 17.0827H16.0596C17.0168 17.0827 17.9031 17.5872 18.3918 18.4103L20.6464 22.2074M20.6464 22.2074L25.4134 21.6729C26.3774 21.5648 27.287 22.1414 27.6006 23.0594V23.0594C27.9813 24.174 27.3556 25.381 26.2253 25.7123L21.5877 27.0713C18.5471 27.9623 15.3106 27.933 12.2866 26.9872L7.97748 25.6393M20.6464 22.2074L14.9297 21.8958" stroke="#FAFAFA" stroke-width="2" stroke-linecap="round" stroke-linejoin="round"/>
<path d="M3.69922 11.7351V14.7124V24.5748V27.7786" stroke="#FAFAFA" stroke-width="2" stroke-linecap="round"/>
<path d="M26.1593 11.7349L26.1593 7.93202C26.1593 7.26765 25.8506 6.641 25.3239 6.23609L22.65 4.18057C21.8813 3.58964 20.8112 3.58964 20.0425 4.18056L17.3686 6.23609C16.8419 6.64099 16.5332 7.26765 16.5332 7.93202L16.5332 11.7349C16.5332 12.3256 17.0121 12.8044 17.6028 12.8044L21.3462 12.8044" stroke="#3388FF" stroke-width="2" stroke-linecap="round"/>
</svg>
