<svg width="20" height="20" viewBox="0 0 20 20" fill="none" xmlns="http://www.w3.org/2000/svg">
<path d="M3.56904 3.90005C2.9063 3.90005 2.36904 4.43731 2.36904 5.10005V7.255C2.37068 7.25742 2.37286 7.26045 2.37571 7.26407C2.39813 7.29256 2.44195 7.32969 2.50075 7.35643C2.84074 7.51104 3.25358 7.77292 3.58247 8.21121C3.91903 8.65971 4.13233 9.24664 4.13233 9.98198C4.13233 11.5024 3.05014 12.2994 2.4323 12.6277C2.41701 12.6358 2.40302 12.6456 2.39129 12.6559C2.38057 12.6653 2.37339 12.6737 2.36904 12.6797V14.9039C2.36904 15.5666 2.9063 16.1039 3.56904 16.1039H10.4999C10.9417 16.1039 11.2999 16.4621 11.2999 16.9039C11.2999 17.3457 10.9417 17.7039 10.4999 17.7039H3.56904C2.02265 17.7039 0.769043 16.4503 0.769043 14.9039V12.6592C0.769043 11.9762 1.21414 11.4632 1.68147 11.2148C2.10737 10.9885 2.53233 10.6122 2.53233 9.98198C2.53233 9.57307 2.41977 9.32752 2.30271 9.17153C2.17799 9.00532 2.00945 8.89068 1.83843 8.8129C1.34397 8.58805 0.769043 8.05849 0.769043 7.27541V5.10005C0.769043 3.55365 2.02265 2.30005 3.56904 2.30005H16.569C18.1154 2.30005 19.369 3.55365 19.369 5.10005V7.33186C19.369 8.05824 18.8676 8.56551 18.4498 8.81277C18.313 8.89375 18.1699 9.01161 18.0608 9.18215C17.9557 9.34644 17.8585 9.5954 17.8585 9.98198C17.8585 10.7238 18.2228 11.0565 18.4914 11.222C18.9013 11.4746 19.369 11.9758 19.369 12.6763V14.9039C19.369 16.4503 18.1154 17.7039 16.569 17.7039H15.204C14.7622 17.7039 14.404 17.3457 14.404 16.9039C14.404 16.4621 14.7622 16.1039 15.204 16.1039H16.569C17.2318 16.1039 17.769 15.5666 17.769 14.9039V12.6937C17.7675 12.691 17.7654 12.6876 17.7625 12.6833C17.7439 12.656 17.7066 12.6178 17.6521 12.5842C17.0403 12.2073 16.2585 11.416 16.2585 9.98198C16.2585 8.57543 17.0121 7.80438 17.6349 7.43582C17.696 7.39969 17.7388 7.3578 17.7606 7.32694C17.7645 7.32146 17.7672 7.31712 17.769 7.31393V5.10005C17.769 4.43731 17.2318 3.90005 16.569 3.90005H3.56904Z" fill="#262933"/>
<path d="M6.9245 12.0064C6.9245 11.5646 7.28267 11.2064 7.7245 11.2064H12.374C12.8158 11.2064 13.174 11.5646 13.174 12.0064C13.174 12.4482 12.8158 12.8064 12.374 12.8064H7.7245C7.28267 12.8064 6.9245 12.4482 6.9245 12.0064Z" fill="#262933"/>
<path d="M7.7245 7.20007C7.28267 7.20007 6.9245 7.55825 6.9245 8.00007C6.9245 8.4419 7.28267 8.80007 7.7245 8.80007H12.374C12.8158 8.80007 13.174 8.4419 13.174 8.00007C13.174 7.55825 12.8158 7.20007 12.374 7.20007H7.7245Z" fill="#262933"/>
</svg>
