<svg width="24" height="24" viewBox="0 0 24 24" fill="none" xmlns="http://www.w3.org/2000/svg">
<path d="M21.6826 16.9727L24 17.8027V18.2002L21.6826 19.0303L20.8643 21.335H20.4688L19.6514 19.0303L17.333 18.2002V17.8027L19.6514 16.9727L20.4688 14.668H20.8643L21.6826 16.9727ZM13.1045 9.53125L18.667 11.5234V12.4785L13.1045 14.4717L11.1416 20.002H10.1934L8.22949 14.4717L2.66699 12.4785V11.5234L8.22949 9.53125L10.1934 4.00195H11.1416L13.1045 9.53125ZM19.4795 4.51172L21.333 5.17578V5.49316L19.4795 6.1582L18.8242 8.00098H18.5088L17.8545 6.1582L16 5.49316V5.17578L17.8545 4.51172L18.5088 2.66797H18.8242L19.4795 4.51172Z" fill="url(#paint0_radial_18869_286303)"/>
<defs>
<radialGradient id="paint0_radial_18869_286303" cx="0" cy="0" r="1" gradientTransform="matrix(23.7033 21.6485 -65.2786 54.7264 0.296658 1.76055)" gradientUnits="userSpaceOnUse">
<stop stop-color="#00CF00"/>
<stop offset="1" stop-color="#ADF73E"/>
</radialGradient>
</defs>
</svg>
