<svg width="32" height="32" viewBox="0 0 32 32" fill="none" xmlns="http://www.w3.org/2000/svg">
<path d="M9.36523 17.3327C9.69971 24.0705 12.5424 29.3327 15.9993 29.3327C19.4563 29.3327 22.299 24.0705 22.6335 17.3327H29.2663C28.5973 24.0704 22.9131 29.3327 15.9993 29.3327C9.08557 29.3327 3.40141 24.0704 2.73242 17.3327H9.36523Z" fill="#303236"/>
<path d="M19.9616 17.3327C19.8076 20.1246 19.1808 22.531 18.3288 24.235C17.2641 26.3644 16.2861 26.666 15.9993 26.666C15.7126 26.666 14.7346 26.3644 13.6699 24.235C12.8179 22.531 12.1911 20.1246 12.0371 17.3327H19.9616Z" fill="#303236"/>
<path d="M15.9993 2.66602C22.9131 2.66602 28.5973 7.92828 29.2663 14.666H22.6335C22.299 7.92824 19.4563 2.66602 15.9993 2.66602Z" fill="#303236"/>
<path d="M15.9993 2.66602C12.5424 2.66602 9.69971 7.92824 9.36523 14.666H2.73242C3.40141 7.92828 9.08557 2.66602 15.9993 2.66602Z" fill="#303236"/>
<path d="M15.9993 5.33268C16.2861 5.33268 17.2641 5.63429 18.3288 7.76367C19.1808 9.46775 19.8076 11.8741 19.9616 14.666H12.0371C12.1911 11.8741 12.8179 9.46775 13.6699 7.76367C14.7346 5.63429 15.7126 5.33268 15.9993 5.33268Z" fill="#303236"/>
</svg>
