<svg width="20" height="18" viewBox="0 0 20 18" fill="none" xmlns="http://www.w3.org/2000/svg">
<path d="M9.12811 0.858593C9.51063 0.179949 10.4879 0.179948 10.8704 0.858592L13.1073 4.82718C13.25 5.08036 13.4958 5.25893 13.7806 5.31641L18.2462 6.21743C19.0099 6.37151 19.3119 7.30096 18.7846 7.87446L15.7015 11.2282C15.5048 11.4422 15.4109 11.7311 15.4443 12.0198L15.9673 16.5452C16.0568 17.3191 15.2661 17.8935 14.5578 17.5693L10.4154 15.6735C10.1512 15.5525 9.84736 15.5525 9.5831 15.6735L5.44076 17.5693C4.7324 17.8935 3.94177 17.3191 4.03121 16.5453L4.55423 12.0198C4.5876 11.7311 4.49371 11.4422 4.29703 11.2282L1.2139 7.87446C0.686673 7.30096 0.988668 6.37151 1.7523 6.21744L6.21788 5.31641C6.50277 5.25893 6.74855 5.08036 6.89125 4.82718L9.12811 0.858593Z" fill="#FEB702"/>
</svg>
