<svg width="89" height="16" viewBox="0 0 89 16" fill="none" xmlns="http://www.w3.org/2000/svg">
<path d="M69.3556 2.42603V7.47178H75.57V2.42603H77.2971V14.0548H75.57V9.0038H69.3556V14.0548H67.6494V2.42603H69.3556Z" fill="#14141E"/>
<path d="M79.3164 14.0548V2.42603H81.0435V8.80511L86.7152 2.42603H88.8337L84.0281 7.77504L89.0006 14.0496H86.877L82.901 9.0404L81.0435 11.1319V14.0705L79.3164 14.0548Z" fill="#14141E"/>
<path d="M7.98324 12.3974C7.40698 12.3974 6.83636 12.2836 6.30397 12.0627C5.77157 11.8417 5.28782 11.5178 4.88034 11.1094C4.47286 10.7011 4.14963 10.2163 3.92911 9.6828C3.70858 9.14929 3.59508 8.57747 3.59508 8C3.59508 7.42252 3.70858 6.85071 3.92911 6.31719C4.14963 5.78368 4.47286 5.29891 4.88034 4.89058C5.28782 4.48224 5.77157 4.15833 6.30397 3.93734C6.83636 3.71636 7.40698 3.60261 7.98324 3.60261V0C6.40408 3.38005e-07 4.8604 0.469325 3.54745 1.34861C2.2345 2.22789 1.21128 3.47763 0.6072 4.93974C0.00312075 6.40185 -0.154679 8.01065 0.153779 9.56264C0.462237 11.1146 1.22309 12.5401 2.34009 13.6587C3.45709 14.7773 4.88006 15.5388 6.429 15.8469C7.97794 16.155 9.58326 15.9958 11.0419 15.3895C12.5006 14.7832 13.747 13.757 14.6236 12.4408C15.5002 11.1245 15.9675 9.57724 15.9665 7.99477H12.3766C12.3773 8.57312 12.2642 9.14593 12.0436 9.68039C11.8231 10.2149 11.4995 10.7005 11.0914 11.1094C10.6833 11.5184 10.1987 11.8426 9.66533 12.0637C9.13199 12.2847 8.56038 12.3981 7.98324 12.3974Z" fill="#0068FF"/>
<path d="M12.3716 3.60229H7.9834V7.99968H12.3716V3.60229Z" fill="#17E5A0"/>
<path d="M24.55 6.77651V9.22357H28.4059C28.2363 9.91269 27.887 10.5443 27.3937 11.0536C27.011 11.4323 26.5569 11.7308 26.058 11.9319C25.559 12.133 25.0251 12.2326 24.4874 12.2249C23.7827 12.2204 23.0904 12.039 22.4738 11.6972C21.8571 11.3555 21.3358 10.8643 20.9574 10.2686C20.579 9.67288 20.3557 8.99163 20.3079 8.28711C20.26 7.5826 20.3891 6.87729 20.6834 6.23568C20.9777 5.59406 21.4278 5.0366 21.9925 4.61425C22.5572 4.19191 23.2186 3.91814 23.9162 3.81799C24.6137 3.71784 25.3252 3.7945 25.9855 4.04096C26.6459 4.28741 27.2341 4.6958 27.6963 5.2288L29.606 3.66017C28.9712 2.92254 28.1857 2.33024 27.3025 1.92338C26.4194 1.51652 25.4593 1.30461 24.4874 1.302C22.7202 1.302 21.0254 2.00548 19.7758 3.25769C18.5262 4.50989 17.8242 6.20824 17.8242 7.97912C17.8242 9.75001 18.5262 11.4484 19.7758 12.7006C21.0254 13.9528 22.7202 14.6562 24.4874 14.6562C26.0979 14.6977 27.6641 14.1247 28.8692 13.0531C30.0742 11.9814 30.8281 10.4912 30.9783 8.8837C31.0375 8.18812 31.048 7.48924 31.0096 6.7922L24.55 6.77651Z" fill="#14141E"/>
<path d="M47.8581 11.0744V6.1437H50.373V3.98422H47.8581V2.02344H45.63V3.98422H44.2891V6.1437H45.63V11.3725C45.6266 11.7512 45.698 12.1268 45.8401 12.4778C45.9822 12.8288 46.1921 13.1481 46.4579 13.4173C46.7237 13.6866 47.0401 13.9005 47.3887 14.0467C47.7374 14.1929 48.1115 14.2685 48.4894 14.2692H50.3678V12.094H48.9016C48.6293 12.0941 48.3677 11.9875 48.1728 11.797C47.9778 11.6065 47.8649 11.3472 47.8581 11.0744Z" fill="#14141E"/>
<path d="M40.6151 4.03122V4.85736C39.8429 4.23914 38.9121 3.85199 37.9299 3.74048C36.9478 3.62896 35.9542 3.7976 35.0634 4.227C34.1727 4.6564 33.4211 5.3291 32.895 6.16768C32.3689 7.00626 32.0898 7.97665 32.0898 8.96716C32.0898 9.95768 32.3689 10.9281 32.895 11.7666C33.4211 12.6052 34.1727 13.2779 35.0634 13.7073C35.9542 14.1367 36.9478 14.3054 37.9299 14.1939C38.9121 14.0823 39.8429 13.6952 40.6151 13.077V13.9554H42.7701V4.02076H40.6151V4.03122ZM40.396 9.51095C40.2961 10.0703 40.0449 10.5915 39.6698 11.0177C39.2948 11.4439 38.8102 11.7588 38.2689 11.9282C37.7276 12.0976 37.1503 12.1149 36.5999 11.9783C36.0495 11.8416 35.547 11.5563 35.1472 11.1533C34.7474 10.7503 34.4656 10.2451 34.3324 9.69276C34.1993 9.14039 34.2199 8.562 34.3921 8.02056C34.5642 7.47913 34.8813 6.9954 35.3088 6.62205C35.7363 6.24869 36.2578 6.00002 36.8166 5.90311C37.3074 5.81798 37.8115 5.85266 38.2861 6.00421C38.7607 6.15575 39.1919 6.4197 39.5431 6.7737C39.8943 7.12769 40.1552 7.5613 40.3036 8.03778C40.4521 8.51427 40.4838 9.0196 40.396 9.51095Z" fill="#14141E"/>
<path d="M61.3457 7.89516C61.1066 6.72113 60.4724 5.66502 59.5492 4.90356C58.6259 4.1421 57.4697 3.72151 56.274 3.71216C54.8893 3.72026 53.5631 4.2726 52.5805 5.2504C51.5979 6.2282 51.0375 7.55336 51.0197 8.94092C51.0051 9.63214 51.1285 10.3193 51.3828 10.962C51.637 11.6048 52.0169 12.1901 52.5001 12.6836C52.9833 13.177 53.5601 13.5687 54.1965 13.8356C54.833 14.1025 55.5163 14.2392 56.2062 14.2376C57.1404 14.2359 58.0576 13.9875 58.8655 13.5175C59.6734 13.0476 60.3435 12.3726 60.8083 11.5605L58.9821 10.5148C58.7012 11.0034 58.2966 11.4091 57.8093 11.6909C57.3219 11.9728 56.7689 12.1208 56.2062 12.12C55.8033 12.1218 55.4041 12.0427 55.0321 11.8874C54.6602 11.732 54.3231 11.5035 54.0408 11.2154C53.6758 10.8299 53.4169 10.3561 53.2894 9.84026V9.7932H61.424C61.4807 9.15981 61.4543 8.52171 61.3457 7.89516ZM53.4356 7.67033V7.61281C53.6926 7.08462 54.0925 6.6394 54.5898 6.32786C55.087 6.01633 55.6615 5.851 56.248 5.85072C56.8279 5.85306 57.3953 6.01976 57.8846 6.33157C58.374 6.64338 58.7653 7.08756 59.0134 7.61281L59.0395 7.67033H53.4356Z" fill="#14141E"/>
<path d="M64.4921 11.6182C64.2494 11.6171 64.0118 11.6883 63.8095 11.8227C63.6072 11.9571 63.4492 12.1486 63.3556 12.3731C63.262 12.5975 63.237 12.8447 63.2837 13.0834C63.3304 13.3221 63.4468 13.5416 63.618 13.7139C63.7893 13.8863 64.0078 14.0038 64.2458 14.0517C64.4838 14.0995 64.7306 14.0755 64.9549 13.9826C65.1793 13.8898 65.3711 13.7323 65.5061 13.5301C65.641 13.328 65.7131 13.0902 65.7131 12.8469C65.7131 12.5219 65.5846 12.2102 65.3558 11.9799C65.127 11.7496 64.8164 11.6196 64.4921 11.6182Z" fill="#14141E"/>
</svg>
