<svg width="16" height="16" viewBox="0 0 16 16" fill="none" xmlns="http://www.w3.org/2000/svg">
<path d="M8.01025 12.3898C7.41525 12.4185 6.8206 12.3261 6.26236 12.1182C5.70411 11.9104 5.1939 11.5913 4.76263 11.1803C4.33136 10.7694 3.98803 10.2752 3.75344 9.72763C3.51885 9.18007 3.39789 8.59057 3.39789 7.99487C3.39789 7.39918 3.51885 6.80969 3.75344 6.26213C3.98803 5.71456 4.33136 5.22034 4.76263 4.80941C5.1939 4.39848 5.70411 4.0794 6.26236 3.87151C6.8206 3.66362 7.41525 3.57126 8.01025 3.60001V6.57758e-06C6.42756 -0.00202251 4.87984 0.465448 3.5629 1.34326C2.24596 2.22108 1.21899 3.4698 0.611912 4.93143C0.00483806 6.39306 -0.155049 8.00191 0.152474 9.55443C0.459996 11.107 1.22111 12.5334 2.33952 13.6532C3.45793 14.7731 4.88337 15.536 6.4355 15.8455C7.98762 16.155 9.59669 15.9972 11.0591 15.392C12.5215 14.7868 13.7715 13.7614 14.651 12.4456C15.5306 11.1298 16 9.5827 16 8.00001H12.4C12.4 8.57648 12.2865 9.1473 12.0658 9.67989C11.8452 10.2125 11.5219 10.6964 11.1143 11.104C10.7067 11.5116 10.2227 11.835 9.69014 12.0556C9.15755 12.2762 8.58672 12.3898 8.01025 12.3898Z" fill="white"/>
<path d="M12.5 3.55469H8V7.87215H12.5V3.55469Z" fill="white"/>
</svg>
