<svg width="103" height="18" viewBox="0 0 103 18" fill="none" xmlns="http://www.w3.org/2000/svg">
<path d="M8.74636 13.4964C6.08278 13.4964 3.95142 11.3651 3.95142 8.70152C3.95142 6.03795 6.08278 3.90659 8.74636 3.90659V-0.000488281C3.90707 -0.000488281 0 3.90659 0 8.74587C0 13.5852 3.90707 17.4922 8.74636 17.4922C13.5856 17.4922 17.4927 13.5852 17.4927 8.74587H13.5856C13.5413 11.3651 11.4099 13.4964 8.74636 13.4964Z" fill="#0068FF"/>
<path d="M13.5415 3.90771H8.74658V8.70265H13.5415V3.90771Z" fill="#17E6A1"/>
<path d="M47.7609 3.65617C46.5877 2.73568 45.1115 2.18506 43.5082 2.18506C39.7015 2.18506 36.6045 5.2821 36.6045 9.08876C36.6045 12.8954 39.7015 15.9925 43.5082 15.9925C45.1115 15.9925 46.5877 15.4418 47.7609 14.5213V15.887H50.5692V2.78087H47.7609V3.65617ZM43.5082 13.1414C41.2731 13.1414 39.4547 11.323 39.4547 9.08792C39.4547 6.85279 41.2731 5.0344 43.5082 5.0344C45.7433 5.0344 47.5617 6.85279 47.5617 9.08792C47.5617 11.323 45.7433 13.1414 43.5082 13.1414Z" fill="white"/>
<path d="M57.024 0.322754H53.9596V2.77963H52.522V5.58965H53.9596V11.9218C53.9596 14.1686 55.788 15.9971 58.0349 15.9971H60.5989V12.9887H58.091C57.5027 12.9887 57.0249 12.5101 57.0249 11.9226V5.59048H60.6006V2.78047H57.0249V0.322754H57.024Z" fill="white"/>
<path d="M75.4062 10.1838C75.448 9.87582 75.4497 9.56369 75.4497 9.24403C75.4497 5.43151 72.387 2.34033 68.5736 2.34033C64.7603 2.34033 61.6699 5.43151 61.6699 9.24403C61.6699 13.0565 64.7611 16.1477 68.5736 16.1477C71.556 16.1477 74.0916 14.2549 75.0572 11.6063H71.9401C71.1953 12.6666 69.9669 13.3611 68.5736 13.3611C66.6238 13.3611 64.9937 12.0038 64.5686 10.1838H72.5794H75.407H75.4062ZM64.7996 7.6022C65.4339 6.14615 66.8841 5.12692 68.5745 5.12692C70.2648 5.12692 71.715 6.14615 72.3493 7.6022H64.8004H64.7996Z" fill="white"/>
<path d="M27.3896 7.67938V10.5639H31.8288L31.7962 10.6425C31.0414 12.4526 29.2883 13.6216 27.3285 13.6216C24.6599 13.6216 22.4892 11.4509 22.4892 8.78146C22.4892 6.11203 24.6599 3.94134 27.3285 3.94134C28.8699 3.94134 30.295 4.66518 31.2079 5.89446H34.7435C33.5577 2.84344 30.6222 0.818359 27.3285 0.818359C22.9377 0.818359 19.3662 4.39071 19.3662 8.78062C19.3662 13.1705 22.9386 16.7429 27.3285 16.7429C29.4548 16.7429 31.4514 15.9144 32.9518 14.4107C34.4514 12.9078 35.2765 10.9078 35.2765 8.77979C35.2765 8.38481 35.2531 8.02331 35.2054 7.67687H27.3904L27.3896 7.67938Z" fill="white"/>
<path d="M97.2792 10.6083H93.6735V15.8475H91.9204V1.90283H97.9764C98.7467 1.90283 99.4572 2.06884 100.108 2.40086C100.706 2.71959 101.19 3.15121 101.562 3.69572C102.133 4.45272 102.419 5.3226 102.419 6.30537C102.419 7.19517 102.18 7.95881 101.702 8.59628C101.409 9.04782 101.051 9.43296 100.626 9.75169C100.188 10.0571 99.7029 10.2829 99.1716 10.429L102.578 15.8475H100.586L97.2792 10.6083ZM97.7772 9.07438C98.6139 9.07438 99.3177 8.82205 99.8888 8.31739C100.447 7.79944 100.725 7.11549 100.725 6.26553C100.725 5.48197 100.48 4.81793 99.9884 4.27343C99.497 3.7422 98.8263 3.47659 97.9764 3.47659H93.6735V9.07438H97.7772Z" fill="white"/>
<path d="M78.9707 1.90283H90.0866V3.53635H85.4649V15.8475H83.7318V3.53635H78.9707V1.90283Z" fill="white"/>
</svg>
