<svg width="52" height="13" viewBox="0 0 52 13" fill="none" xmlns="http://www.w3.org/2000/svg">
<path d="M6.02801 9.75856C4.19204 9.75856 2.72348 8.29683 2.72348 6.46938C2.72348 4.64194 4.19204 3.18021 6.02801 3.18021V0.5C2.69272 0.5 0 3.18021 0 6.5C0 9.81979 2.69272 12.5 6.02801 12.5C9.36329 12.5 12.056 9.81979 12.056 6.5H9.36329C9.33253 8.29683 7.86398 9.75912 6.02801 9.75912V9.75856Z" fill="#0068FF"/>
<path d="M9.33249 3.17969H6.02797V6.46886H9.33249V3.17969Z" fill="#17E29D"/>
<path d="M18.8764 5.76767V7.74652H21.9354L21.9125 7.80051C21.3924 9.04237 20.1839 9.84449 18.8334 9.84449C16.994 9.84449 15.4981 8.35492 15.4981 6.5247C15.4981 4.69447 16.9946 3.20491 18.8334 3.20491C19.8953 3.20491 20.8779 3.70143 21.5071 4.54474H23.9442C23.1272 2.45178 21.1039 1.06241 18.8339 1.06241C15.8079 1.06241 13.3461 3.51273 13.3461 6.5247C13.3461 9.53667 15.8079 11.987 18.8339 11.987C20.2991 11.987 21.6754 11.4187 22.7094 10.3872C23.7429 9.35631 24.3116 7.9842 24.3116 6.5247C24.3116 6.25362 24.2954 6.00591 24.2624 5.76823H18.8764V5.76767ZM51.9698 7.48545C51.9988 7.27393 52 7.06018 52 6.84087C52 4.22523 49.8888 2.10499 47.261 2.10499C44.6331 2.10499 42.503 4.22523 42.503 6.84087C42.503 9.45651 44.6331 11.5767 47.261 11.5767C49.3162 11.5767 51.0644 10.2781 51.7293 8.46124H49.5813C49.0679 9.18821 48.2218 9.66469 47.261 9.66469C45.9172 9.66469 44.7942 8.73344 44.5006 7.4849H50.0214H51.9698V7.48545ZM44.6594 5.71423C45.0968 4.71507 46.0961 4.01593 47.261 4.01593C48.4259 4.01593 49.4252 4.71507 49.8626 5.71423H44.66H44.6594ZM32.9166 3.0073C32.1079 2.37608 31.0907 1.99812 29.9856 1.99812C27.3623 1.99812 25.2277 4.1228 25.2277 6.73399C25.2277 9.34518 27.3623 11.4699 29.9856 11.4699C31.0907 11.4699 32.1079 11.0919 32.9166 10.4607V11.3975H34.8521V2.40725H32.9166V3.00786V3.0073ZM29.9856 9.51384C28.4455 9.51384 27.1923 8.26642 27.1923 6.73344C27.1923 5.20046 28.4455 3.95303 29.9856 3.95303C31.5258 3.95303 32.779 5.20046 32.779 6.73344C32.779 8.26642 31.5258 9.51384 29.9856 9.51384ZM39.3003 0.721191H37.188V2.40669H36.1971V4.33433H37.188V8.67833C37.188 10.2197 38.448 11.4738 39.9965 11.4738H41.7637V9.40975H40.0351C39.6297 9.40975 39.3003 9.08133 39.3003 8.67833V4.33433H41.7648V2.40669H39.3003V0.721191Z" fill="black"/>
</svg>
