<svg width="105" height="18" viewBox="0 0 105 18" fill="none" xmlns="http://www.w3.org/2000/svg">
<path d="M8.74636 13.4964C6.08278 13.4964 3.95142 11.3651 3.95142 8.70152C3.95142 6.03795 6.08278 3.90659 8.74636 3.90659V-0.000488281C3.90707 -0.000488281 0 3.90659 0 8.74587C0 13.5852 3.90707 17.4922 8.74636 17.4922C13.5856 17.4922 17.4927 13.5852 17.4927 8.74587H13.5856C13.5413 11.3651 11.4099 13.4964 8.74636 13.4964Z" fill="#0068FF"/>
<path d="M13.5415 3.90674H8.74658V8.70167H13.5415V3.90674Z" fill="#17E6A1"/>
<path d="M47.7609 3.65422C46.5877 2.73373 45.1115 2.18311 43.5082 2.18311C39.7015 2.18311 36.6045 5.28015 36.6045 9.0868C36.6045 12.8935 39.7015 15.9905 43.5082 15.9905C45.1115 15.9905 46.5877 15.4399 47.7609 14.5194V15.8851H50.5692V2.77892H47.7609V3.65422ZM43.5082 13.1395C41.2731 13.1395 39.4547 11.3211 39.4547 9.08597C39.4547 6.85084 41.2731 5.03245 43.5082 5.03245C45.7433 5.03245 47.5617 6.85084 47.5617 9.08597C47.5617 11.3211 45.7433 13.1395 43.5082 13.1395Z" fill="white"/>
<path d="M57.0235 0.321777H53.9591V2.77866H52.5215V5.58867H53.9591V11.9208C53.9591 14.1677 55.7876 15.9961 58.0344 15.9961H60.5984V12.9878H58.0905C57.5022 12.9878 57.0244 12.5091 57.0244 11.9217V5.58951H60.6001V2.77949H57.0244V0.321777H57.0235Z" fill="white"/>
<path d="M75.4062 10.1823C75.448 9.87436 75.4497 9.56223 75.4497 9.24256C75.4497 5.43005 72.387 2.33887 68.5736 2.33887C64.7603 2.33887 61.6699 5.43005 61.6699 9.24256C61.6699 13.0551 64.7611 16.1463 68.5736 16.1463C71.556 16.1463 74.0916 14.2534 75.0572 11.6049H71.9401C71.1953 12.6651 69.9669 13.3597 68.5736 13.3597C66.6238 13.3597 64.9937 12.0024 64.5686 10.1823H72.5794H75.407H75.4062ZM64.7996 7.60074C65.4339 6.14469 66.8841 5.12545 68.5745 5.12545C70.2648 5.12545 71.715 6.14469 72.3493 7.60074H64.8004H64.7996Z" fill="white"/>
<path d="M27.3886 7.6784V10.5629H31.8279L31.7952 10.6416C31.0404 12.4516 29.2873 13.6206 27.3275 13.6206C24.6589 13.6206 22.4882 11.4499 22.4882 8.78048C22.4882 6.11105 24.6589 3.94036 27.3275 3.94036C28.8689 3.94036 30.294 4.66421 31.207 5.89348H34.7425C33.5567 2.84247 30.6212 0.817383 27.3275 0.817383C22.9367 0.817383 19.3652 4.38973 19.3652 8.77965C19.3652 13.1696 22.9376 16.7419 27.3275 16.7419C29.4538 16.7419 31.4505 15.9135 32.9509 14.4097C34.4504 12.9068 35.2755 10.9068 35.2755 8.77881C35.2755 8.38383 35.2521 8.02233 35.2044 7.67589H27.3894L27.3886 7.6784Z" fill="white"/>
<path d="M93.2822 15.847V1.90234H95.0353V9.9305L102.267 1.90234H104.438L98.641 8.29698L104.637 15.847H102.466L97.4856 9.59184L95.0353 12.2812V15.847H93.2822Z" fill="white"/>
<path d="M81.2618 1.90234V8.07785H89.1505V1.90234H90.8837V15.847H89.1505V9.6516H81.2618V15.847H79.5088V1.90234H81.2618Z" fill="white"/>
</svg>
