<svg width="92" height="16" viewBox="0 0 92 16" fill="none" xmlns="http://www.w3.org/2000/svg">
<path d="M81.0186 14.0497H79.3485V3.87972L75.6723 10.9595H73.4035L69.7273 3.91632V14.0497H68.0625V2.4209H70.7304L74.5169 9.77776L78.3034 2.4209H80.9923L81.0186 14.0497Z" fill="#14141E"/>
<path d="M82.6357 2.4209H91.9996V4.03136H88.2446V14.0497H86.522V4.03136H82.6357V2.4209Z" fill="#14141E"/>
<path d="M8.03515 12.3974C6.88943 12.3581 5.80386 11.8773 5.00732 11.0564C4.21078 10.2355 3.76554 9.13876 3.76554 7.99738C3.76554 6.856 4.21078 5.75923 5.00732 4.93837C5.80386 4.11751 6.88943 3.63671 8.03515 3.59738V0C6.4455 1.35221e-06 4.89162 0.469458 3.57001 1.34897C2.24841 2.22849 1.2185 3.47853 0.610651 4.94095C0.00279835 6.40337 -0.155728 8.01244 0.155163 9.56457C0.466054 11.1167 1.23236 12.5421 2.35715 13.6605C3.48194 14.779 4.91469 15.5401 6.47405 15.8476C8.03341 16.1551 9.64936 15.9951 11.1174 15.388C12.5855 14.7809 13.8396 13.7539 14.7212 12.4369C15.6029 11.12 16.0724 9.57223 16.0703 7.98954H12.4571C12.4578 8.56814 12.344 9.1412 12.122 9.67595C11.9001 10.2107 11.5745 10.6967 11.1638 11.106C10.7531 11.5154 10.2655 11.8402 9.72863 12.0618C9.19179 12.2833 8.61629 12.3974 8.03515 12.3974Z" fill="#0068FF"/>
<path d="M12.4519 3.59741H8.03516V7.9948H12.4519V3.59741Z" fill="#17E5A0"/>
<path d="M24.7101 6.77145V9.22374H28.5911C28.3784 10.0977 27.8704 10.8722 27.1524 11.4177C26.4344 11.9631 25.5498 12.2463 24.6471 12.2198C23.9378 12.2153 23.2411 12.0339 22.6204 11.6922C21.9997 11.3505 21.475 10.8593 21.0942 10.2635C20.7134 9.66783 20.4886 8.98657 20.4404 8.28206C20.3922 7.57754 20.5222 6.87224 20.8184 6.23062C21.1146 5.58901 21.5676 5.03155 22.136 4.6092C22.7044 4.18685 23.3701 3.91309 24.0722 3.81294C24.7743 3.71279 25.4904 3.78945 26.155 4.0359C26.8197 4.28236 27.4117 4.69075 27.8769 5.22374L29.7991 3.65512C29.1597 2.91844 28.3688 2.32712 27.4799 1.92118C26.5911 1.51523 25.625 1.30414 24.6471 1.30218C23.7509 1.2772 22.8588 1.43137 22.0236 1.75556C21.1883 2.07975 20.4268 2.56739 19.7841 3.18964C19.1413 3.8119 18.6304 4.55614 18.2816 5.37837C17.9327 6.20059 17.7529 7.08411 17.7529 7.97668C17.7529 8.86926 17.9327 9.75278 18.2816 10.575C18.6304 11.3972 19.1413 12.1415 19.7841 12.7637C20.4268 13.386 21.1883 13.8736 22.0236 14.1978C22.8588 14.522 23.7509 14.6762 24.6471 14.6512C26.2714 14.6923 27.8507 14.1164 29.0641 13.0404C30.2774 11.9644 31.034 10.4689 31.1803 8.85773C31.2399 8.16215 31.2504 7.46327 31.2117 6.76623L24.7101 6.77145Z" fill="#14141E"/>
<path d="M48.1644 11.0695V6.13881H50.6958V3.98457H48.1644V2.01855H45.9219V3.98457H44.5723V6.13881H45.9219V11.3676C45.9219 12.1289 46.2257 12.859 46.7664 13.3974C47.3071 13.9357 48.0405 14.2382 48.8051 14.2382H50.6958V12.0891H49.1886C48.9191 12.0825 48.6624 11.973 48.4718 11.7832C48.2811 11.5934 48.1711 11.3379 48.1644 11.0695Z" fill="#14141E"/>
<path d="M40.8796 4.02619V4.85234C40.1018 4.23219 39.1639 3.84342 38.1739 3.73081C37.184 3.6182 36.1822 3.78634 35.284 4.21585C34.3858 4.64536 33.6278 5.31876 33.0972 6.15849C32.5667 6.99821 32.2852 7.97008 32.2852 8.96214C32.2852 9.95419 32.5667 10.9261 33.0972 11.7658C33.6278 12.6055 34.3858 13.2789 35.284 13.7084C36.1822 14.1379 37.184 14.3061 38.1739 14.1935C39.1639 14.0809 40.1018 13.6921 40.8796 13.0719V13.9556H43.0433V4.02096H40.8796V4.02619ZM40.659 9.51116C40.5579 10.0713 40.3042 10.5929 39.9256 11.0193C39.547 11.4456 39.0581 11.7602 38.5121 11.9286C37.9662 12.0971 37.3843 12.113 36.8298 11.9746C36.2754 11.8361 35.7699 11.5487 35.3684 11.1437C34.9669 10.7387 34.6849 10.2316 34.5531 9.67788C34.4214 9.12414 34.4449 8.545 34.6213 8.00369C34.7976 7.46239 35.1199 6.97972 35.5531 6.6084C35.9862 6.23707 36.5135 5.99136 37.0773 5.89809C37.5705 5.81529 38.0765 5.85198 38.5524 6.00506C39.0284 6.15813 39.4603 6.42308 39.8116 6.77751C40.163 7.13193 40.4234 7.56539 40.5709 8.04122C40.7184 8.51705 40.7486 9.02124 40.659 9.51116Z" fill="#14141E"/>
<path d="M61.7601 7.89565C61.5194 6.72162 60.881 5.66551 59.9518 4.90405C59.0226 4.14259 57.8589 3.722 56.6554 3.71265C55.2612 3.72073 53.9257 4.2729 52.9359 5.25056C51.9461 6.22822 51.3809 7.55338 51.3616 8.9414C51.3542 9.63269 51.4845 10.3186 51.745 10.9594C52.0055 11.6002 52.3911 12.1832 52.8794 12.6747C53.3594 13.1601 53.9317 13.5456 54.5629 13.8086C55.194 14.0716 55.8714 14.207 56.5556 14.2068C57.4965 14.205 58.4202 13.9561 59.2335 13.4851C60.0468 13.0141 60.7209 12.3378 61.1877 11.5244L59.3496 10.4787C59.0682 10.9692 58.6616 11.377 58.1709 11.6607C57.6803 11.9445 57.123 12.0941 56.5556 12.0943C55.8799 12.1024 55.2214 11.8817 54.6881 11.4685C54.1547 11.0553 53.7781 10.474 53.6199 9.81983V9.76755H61.8231C61.8834 9.14349 61.8622 8.51429 61.7601 7.89565ZM53.7984 7.67082V7.6133C54.0572 7.08511 54.4597 6.63989 54.9602 6.32835C55.4606 6.01682 56.0389 5.85149 56.6291 5.85121C57.2131 5.8523 57.7847 6.01849 58.2775 6.33045C58.7703 6.6424 59.1639 7.08728 59.4126 7.6133V7.67082H53.7984Z" fill="#14141E"/>
<path d="M64.9113 11.613C64.667 11.612 64.4278 11.6832 64.2242 11.8176C64.0205 11.952 63.8615 12.1435 63.7673 12.3679C63.6731 12.5924 63.6479 12.8396 63.695 13.0783C63.742 13.317 63.8591 13.5364 64.0315 13.7088C64.2038 13.8812 64.4238 13.9987 64.6633 14.0466C64.9029 14.0944 65.1513 14.0704 65.3771 13.9775C65.6029 13.8847 65.796 13.7272 65.9318 13.525C66.0677 13.3228 66.1402 13.0851 66.1402 12.8418C66.1402 12.5168 66.0109 12.2051 65.7806 11.9748C65.5503 11.7445 65.2377 11.6144 64.9113 11.613Z" fill="#14141E"/>
</svg>
