<svg width="76" height="18" viewBox="0 0 76 18" fill="none" xmlns="http://www.w3.org/2000/svg">
<path d="M8.74493 13.4951C6.08146 13.4951 3.951 11.3646 3.951 8.70112C3.951 6.03765 6.08146 3.90719 8.74493 3.90719V0C3.90638 0 0 3.90638 0 8.74493C0 13.5835 3.90638 17.4899 8.74493 17.4899C13.5835 17.4899 17.4899 13.5835 17.4899 8.74493H13.5835C13.5389 11.3638 11.4084 13.4951 8.74493 13.4951Z" fill="#0068FF"/>
<path d="M13.5386 3.90674H8.74463V8.70067H13.5386V3.90674Z" fill="#17E6A1"/>
<path d="M27.3847 7.67794V10.5621H31.8225L31.7892 10.6408C31.0347 12.4508 29.2815 13.6199 27.3222 13.6199C24.6539 13.6199 22.4837 11.4488 22.4837 8.7813C22.4837 6.11377 24.6547 3.94275 27.3222 3.94275C28.8629 3.94275 30.2883 4.66642 31.201 5.89553H34.7366C33.5513 2.84507 30.6161 0.820077 27.323 0.820077C22.9331 0.820077 19.3618 4.39139 19.3618 8.7813C19.3618 13.1712 22.9331 16.7425 27.323 16.7425C29.4486 16.7425 31.4452 15.9142 32.9453 14.4109C34.4446 12.9084 35.2697 10.9085 35.2697 8.7813C35.2697 8.3862 35.2461 8.02517 35.1983 7.67875H27.3847V7.67794ZM75.3938 10.1816C75.436 9.8733 75.4376 9.56176 75.4376 9.24211C75.4376 5.42985 72.375 2.33963 68.5627 2.33963C64.7504 2.33963 61.6602 5.42985 61.6602 9.24211C61.6602 13.0544 64.7504 16.1446 68.5627 16.1446C71.5442 16.1446 74.0803 14.2519 75.0449 11.6038H71.9288C71.184 12.6633 69.9565 13.3578 68.5627 13.3578C66.6132 13.3578 64.9841 12.0005 64.5582 10.1808H72.5673H75.3938V10.1816ZM64.7886 7.60006C65.423 6.14378 66.8728 5.1248 68.5627 5.1248C70.2526 5.1248 71.7024 6.14378 72.3368 7.60006H64.7894H64.7886ZM47.753 3.65393C46.5799 2.73392 45.1042 2.18305 43.501 2.18305C39.6953 2.18305 36.5986 5.27976 36.5986 9.08553C36.5986 12.8913 39.6953 15.988 43.501 15.988C45.1042 15.988 46.5799 15.4372 47.753 14.5171V15.8826H50.5609V2.77935H47.753V3.65474V3.65393ZM43.501 13.1379C41.2667 13.1379 39.4486 11.3198 39.4486 9.08553C39.4486 6.85123 41.2667 5.03312 43.501 5.03312C45.7353 5.03312 47.5535 6.85123 47.5535 9.08553C47.5535 11.3198 45.7353 13.1379 43.501 13.1379ZM57.0148 0.322754H53.9505V2.77935H52.5129V5.58886H53.9505V11.9202C53.9505 14.1667 55.7783 15.9945 58.0248 15.9945H60.5885V12.9862H58.0808C57.4926 12.9862 57.0148 12.5076 57.0148 11.9202V5.58886H60.5901V2.77935H57.0148V0.322754Z" fill="white"/>
</svg>
