<svg width="108" height="18" viewBox="0 0 108 18" fill="none" xmlns="http://www.w3.org/2000/svg">
<path d="M8.74636 13.4969C6.08278 13.4969 3.95142 11.3656 3.95142 8.70201C3.95142 6.03843 6.08278 3.90707 8.74636 3.90707V0C3.90707 0 0 3.90707 0 8.74636C0 13.5856 3.90707 17.4927 8.74636 17.4927C13.5856 17.4927 17.4927 13.5856 17.4927 8.74636H13.5856C13.5413 11.3656 11.4099 13.4969 8.74636 13.4969Z" fill="#0068FF"/>
<path d="M13.5415 3.90576H8.74658V8.70069H13.5415V3.90576Z" fill="#17E6A1"/>
<path d="M47.7614 3.65666C46.5881 2.73617 45.112 2.18555 43.5087 2.18555C39.702 2.18555 36.605 5.28259 36.605 9.08924C36.605 12.8959 39.702 15.9929 43.5087 15.9929C45.112 15.9929 46.5881 15.4423 47.7614 14.5218V15.8875H50.5697V2.78136H47.7614V3.65666ZM43.5087 13.1419C41.2736 13.1419 39.4552 11.3235 39.4552 9.08841C39.4552 6.85328 41.2736 5.03489 43.5087 5.03489C45.7438 5.03489 47.5622 6.85328 47.5622 9.08841C47.5622 11.3235 45.7438 13.1419 43.5087 13.1419Z" fill="white"/>
<path d="M57.024 0.323242H53.9596V2.78012H52.522V5.59013H53.9596V11.9223C53.9596 14.1691 55.788 15.9976 58.0349 15.9976H60.5989V12.9892H58.091C57.5027 12.9892 57.0249 12.5106 57.0249 11.9231V5.59097H60.6006V2.78096H57.0249V0.323242H57.024Z" fill="white"/>
<path d="M75.4062 10.1838C75.448 9.87582 75.4497 9.56369 75.4497 9.24403C75.4497 5.43151 72.387 2.34033 68.5736 2.34033C64.7603 2.34033 61.6699 5.43151 61.6699 9.24403C61.6699 13.0565 64.7611 16.1477 68.5736 16.1477C71.556 16.1477 74.0916 14.2549 75.0572 11.6063H71.9401C71.1953 12.6666 69.9669 13.3611 68.5736 13.3611C66.6238 13.3611 64.9937 12.0038 64.5686 10.1838H72.5794H75.407H75.4062ZM64.7996 7.6022C65.4339 6.14615 66.8841 5.12691 68.5745 5.12691C70.2648 5.12691 71.715 6.14615 72.3493 7.6022H64.8004H64.7996Z" fill="white"/>
<path d="M27.3886 7.67938V10.5639H31.8279L31.7952 10.6425C31.0404 12.4526 29.2873 13.6216 27.3275 13.6216C24.6589 13.6216 22.4882 11.4509 22.4882 8.78146C22.4882 6.11203 24.6589 3.94134 27.3275 3.94134C28.8689 3.94134 30.294 4.66518 31.207 5.89446H34.7425C33.5567 2.84344 30.6212 0.818359 27.3275 0.818359C22.9367 0.818359 19.3652 4.39071 19.3652 8.78062C19.3652 13.1705 22.9376 16.7429 27.3275 16.7429C29.4538 16.7429 31.4505 15.9144 32.9509 14.4107C34.4504 12.9078 35.2755 10.9078 35.2755 8.77979C35.2755 8.38481 35.2521 8.02331 35.2044 7.67687H27.3894L27.3886 7.67938Z" fill="white"/>
<path d="M96.5571 1.90234H107.673V3.53586H103.051V15.847H101.318V3.53586H96.5571V1.90234Z" fill="white"/>
<path d="M94.708 15.847H93.0147V3.39642L88.2536 12.1417H85.9627L81.2016 3.43626V15.847H79.5083V1.90234H82.2176L87.0982 10.9066L91.9788 1.90234H94.708V15.847Z" fill="white"/>
</svg>
