<svg width="87" height="16" viewBox="0 0 87 16" fill="none" xmlns="http://www.w3.org/2000/svg">
<path d="M64.4013 11.5032C64.1588 11.5022 63.9213 11.5735 63.7192 11.7081C63.5171 11.8427 63.3594 12.0346 63.2661 12.2593C63.1727 12.484 63.1481 12.7315 63.1951 12.9704C63.2422 13.2092 63.3589 13.4286 63.5304 13.6008C63.702 13.773 63.9206 13.8901 64.1586 13.9373C64.3965 13.9846 64.6431 13.9598 64.867 13.8662C65.0909 13.7725 65.2821 13.6142 65.4162 13.4113C65.5503 13.2085 65.6214 12.9702 65.6204 12.7267C65.619 12.4026 65.4901 12.0922 65.2618 11.8631C65.0335 11.6339 64.7242 11.5046 64.4013 11.5032Z" fill="#14141E"/>
<path d="M67.1104 2.42603H76.399V4.03648H72.6742V14.0548H70.9707V4.03648H67.1104V2.42603Z" fill="#14141E"/>
<path d="M82.4366 9.83491H79.7068V14.0545H77.998V2.42576H83.0774C83.7186 2.41563 84.3517 2.57044 84.9164 2.87543C85.5053 3.2049 85.9955 3.68656 86.3363 4.27041C86.6771 4.85427 86.856 5.51903 86.8543 6.19569C86.866 6.82782 86.6841 7.44832 86.3334 7.97347C86.1089 8.37359 85.8121 8.72822 85.4582 9.01922C85.0958 9.30021 84.6865 9.51443 84.2495 9.6519L87.0002 14.0702H85.0622L82.4366 9.83491ZM84.5725 7.74341C84.7835 7.54178 84.9499 7.29801 85.0612 7.02782C85.1725 6.75763 85.2261 6.46704 85.2185 6.17478C85.2383 5.596 85.0306 5.0326 84.6403 4.60615C84.4402 4.39433 84.1971 4.22819 83.9274 4.11903C83.6578 4.00986 83.3679 3.96022 83.0774 3.97347H79.7016V8.32903H82.9628C83.5581 8.34809 84.1368 8.13005 84.5725 7.72249V7.74341Z" fill="#14141E"/>
<path d="M7.97066 12.3974C7.3953 12.3974 6.82559 12.2836 6.29403 12.0627C5.76247 11.8417 5.27949 11.5178 4.87265 11.1094C4.46582 10.7011 4.14309 10.2163 3.92291 9.6828C3.70274 9.14929 3.58941 8.57747 3.58941 8C3.58941 7.42252 3.70274 6.85071 3.92291 6.31719C4.14309 5.78368 4.46582 5.29891 4.87265 4.89058C5.27949 4.48224 5.76247 4.15833 6.29403 3.93734C6.82559 3.71636 7.3953 3.60261 7.97066 3.60261V0C6.39399 3.38005e-07 4.85274 0.469325 3.54186 1.34861C2.23098 2.22789 1.20937 3.47763 0.606243 4.93974C0.00311583 6.40185 -0.154436 8.01065 0.153536 9.56264C0.461509 11.1146 1.22116 12.5401 2.3364 13.6587C3.45164 14.7773 4.87237 15.5388 6.41887 15.8469C7.96536 16.155 9.56816 15.9958 11.0245 15.3895C12.4809 14.7832 13.7254 13.757 14.6006 12.4408C15.4758 11.1245 15.9424 9.57724 15.9413 7.99477H12.3571C12.3578 8.57312 12.2448 9.14593 12.0246 9.68039C11.8044 10.2149 11.4814 10.7005 11.0739 11.1094C10.6664 11.5184 10.1826 11.8426 9.6501 12.0637C9.1176 12.2847 8.54689 12.3981 7.97066 12.3974Z" fill="#0068FF"/>
<path d="M12.352 3.60229H7.9707V7.99968H12.352V3.60229Z" fill="#17E5A0"/>
<path d="M24.5111 6.77651V9.22357H28.3609C28.1915 9.91269 27.8428 10.5443 27.3503 11.0536C26.9682 11.4323 26.5148 11.7308 26.0167 11.9319C25.5185 12.133 24.9854 12.2326 24.4485 12.2249C23.745 12.2204 23.0538 12.039 22.4381 11.6972C21.8224 11.3555 21.3019 10.8643 20.9241 10.2686C20.5464 9.67288 20.3234 8.99163 20.2756 8.28711C20.2278 7.5826 20.3567 6.87729 20.6506 6.23568C20.9444 5.59406 21.3938 5.0366 21.9576 4.61425C22.5215 4.19191 23.1818 3.91814 23.8782 3.81799C24.5747 3.71784 25.285 3.7945 25.9444 4.04096C26.6037 4.28741 27.1909 4.6958 27.6524 5.2288L29.5591 3.66017C28.9254 2.92254 28.141 2.33024 27.2593 1.92338C26.3775 1.51652 25.419 1.30461 24.4485 1.302C22.6842 1.302 20.992 2.00548 19.7444 3.25769C18.4968 4.50989 17.7959 6.20824 17.7959 7.97912C17.7959 9.75001 18.4968 11.4484 19.7444 12.7006C20.992 13.9528 22.6842 14.6562 24.4485 14.6562C26.0566 14.6977 27.6203 14.1247 28.8234 13.0531C30.0265 11.9814 30.7792 10.4912 30.9293 8.8837C30.9884 8.18812 30.9988 7.48924 30.9605 6.7922L24.5111 6.77651Z" fill="#14141E"/>
<path d="M47.7821 11.0744V6.1437H50.2931V3.98422H47.7821V2.02344H45.5576V3.98422H44.2188V6.1437H45.5576V11.3725C45.5542 11.7512 45.6254 12.1268 45.7673 12.4778C45.9092 12.8288 46.1188 13.1481 46.3842 13.4173C46.6496 13.6866 46.9654 13.9005 47.3135 14.0467C47.6616 14.1929 48.0351 14.2685 48.4125 14.2692H50.2879V12.094H48.824C48.5522 12.0941 48.291 11.9875 48.0963 11.797C47.9017 11.6065 47.7889 11.3472 47.7821 11.0744Z" fill="#14141E"/>
<path d="M40.5509 4.03122V4.85736C39.7799 4.23914 38.8506 3.85199 37.87 3.74048C36.8893 3.62896 35.8973 3.7976 35.008 4.227C34.1186 4.6564 33.3682 5.3291 32.8429 6.16768C32.3177 7.00626 32.0391 7.97665 32.0391 8.96716C32.0391 9.95768 32.3177 10.9281 32.8429 11.7666C33.3682 12.6052 34.1186 13.2779 35.008 13.7073C35.8973 14.1367 36.8893 14.3054 37.87 14.1939C38.8506 14.0823 39.7799 13.6952 40.5509 13.077V13.9554H42.7025V4.02076H40.5509V4.03122ZM40.3321 9.51095C40.2323 10.0703 39.9816 10.5915 39.6071 11.0177C39.2326 11.4439 38.7488 11.7588 38.2084 11.9282C37.668 12.0976 37.0916 12.1149 36.542 11.9783C35.9925 11.8416 35.4908 11.5563 35.0916 11.1533C34.6924 10.7503 34.411 10.2451 34.2781 9.69276C34.1452 9.14039 34.1658 8.562 34.3377 8.02056C34.5095 7.47913 34.8261 6.9954 35.253 6.62205C35.6798 6.24869 36.2005 6.00002 36.7584 5.90311C37.2484 5.81798 37.7517 5.85266 38.2256 6.00421C38.6994 6.15575 39.1299 6.4197 39.4806 6.7737C39.8312 7.12769 40.0917 7.5613 40.2399 8.03778C40.3882 8.51427 40.4198 9.0196 40.3321 9.51095Z" fill="#14141E"/>
<path d="M61.2484 7.89516C61.0097 6.72113 60.3764 5.66502 59.4547 4.90356C58.5329 4.1421 57.3785 3.72151 56.1847 3.71216C54.8022 3.72026 53.478 4.2726 52.497 5.2504C51.5159 6.2282 50.9564 7.55336 50.9387 8.94092C50.9241 9.63214 51.0473 10.3193 51.3011 10.962C51.555 11.6048 51.9343 12.1901 52.4167 12.6836C52.8992 13.177 53.475 13.5687 54.1105 13.8356C54.7459 14.1025 55.4281 14.2392 56.117 14.2376C57.0497 14.2359 57.9655 13.9875 58.7721 13.5175C59.5787 13.0476 60.2478 12.3726 60.7118 11.5605L58.8885 10.5148C58.608 11.0034 58.2041 11.4091 57.7175 11.6909C57.2309 11.9728 56.6788 12.1208 56.117 12.12C55.7147 12.1218 55.3161 12.0427 54.9448 11.8874C54.5734 11.732 54.2369 11.5035 53.955 11.2154C53.5905 10.8299 53.332 10.3561 53.2048 9.84026V9.7932H61.3266C61.3831 9.15981 61.3568 8.52171 61.2484 7.89516ZM53.3507 7.67033V7.61281C53.6073 7.08462 54.0066 6.6394 54.5031 6.32786C54.9995 6.01633 55.5732 5.851 56.1587 5.85072C56.7376 5.85306 57.3042 6.01976 57.7927 6.33157C58.2813 6.64338 58.672 7.08756 58.9197 7.61281L58.9458 7.67033H53.3507Z" fill="#14141E"/>
</svg>
