<svg width="32" height="32" viewBox="0 0 32 32" fill="none" xmlns="http://www.w3.org/2000/svg">
<path d="M19.0586 10.6523H12.9453V21.3423H19.0586V10.6523Z" fill="#FF5F00"/>
<path d="M13.3331 15.9981C13.3331 13.9205 14.3228 11.9374 15.9919 10.6531C12.9643 8.33004 8.55885 8.83999 6.17174 11.8052C3.80405 14.7516 4.32804 19.02 7.375 21.3431C9.91736 23.2884 13.4689 23.2884 16.0113 21.3431C14.3228 20.0588 13.3331 18.0757 13.3331 15.9981Z" fill="#EB001B"/>
<path d="M27.3068 15.9981C27.3068 19.7566 24.1822 22.7974 20.3202 22.7974C18.7482 22.7974 17.2344 22.2874 16.0117 21.3431C19.0393 19.02 19.5633 14.7516 17.1762 11.7863C16.8268 11.3708 16.4387 10.9742 16.0117 10.6531C19.0393 8.33004 23.4447 8.83999 25.8124 11.8052C26.7828 12.9951 27.3068 14.4683 27.3068 15.9981Z" fill="#F79E1B"/>
</svg>
