<svg width="32" height="32" viewBox="0 0 32 32" fill="none" xmlns="http://www.w3.org/2000/svg">
<path d="M12.4876 11.5449L8.69061 20.4531H6.21275L4.32316 13.3546C4.2162 12.9153 4.10925 12.7572 3.77055 12.5639C3.2001 12.2652 2.27314 11.9841 1.45312 11.8084L1.5066 11.5449H5.4997C6.01666 11.5449 6.46232 11.8787 6.5871 12.4585L7.58538 17.6066L10.0276 11.5449H12.4876ZM22.2208 17.5539C22.2386 15.1995 18.9229 15.0589 18.9407 14.0223C18.9407 13.706 19.2616 13.3546 19.939 13.2843C20.2777 13.2492 21.2047 13.214 22.2564 13.6884L22.6664 11.7733C22.096 11.58 21.3651 11.3867 20.4738 11.3867C18.1564 11.3867 16.5164 12.5991 16.4985 14.3385C16.4807 15.6212 17.6751 16.3416 18.5486 16.7633C19.4577 17.2025 19.7786 17.4837 19.7608 17.8702C19.7608 18.4676 19.0299 18.7312 18.3525 18.7487C17.1759 18.7663 16.4807 18.4325 15.9459 18.1865L15.5181 20.1368C16.0707 20.3828 17.0868 20.5936 18.1386 20.6112C20.5986 20.5936 22.2208 19.3988 22.2208 17.5539ZM28.3709 20.4531H30.5457L28.6383 11.5449H26.6417C26.1961 11.5449 25.8039 11.8084 25.6434 12.195L22.1138 20.4531H24.5739L25.0552 19.1177H28.0678L28.3709 20.4531ZM25.7326 17.3079L26.9626 13.9696L27.6756 17.3079H25.7326ZM15.8568 11.5449L13.9137 20.4531H11.5606L13.5037 11.5449H15.8568Z" fill="#1434CB"/>
</svg>
