<svg width="24" height="24" viewBox="0 0 24 24" fill="none" xmlns="http://www.w3.org/2000/svg">
<path d="M12.492 3.6993C12.2786 3.56122 12.0378 3.49264 11.7945 3.50063C11.5511 3.50861 11.3139 3.59287 11.1074 3.74472L6.04598 7.49381H4.36351C3.6134 7.49381 3 8.21225 3 9.09997V14.9011C3 15.7847 3.6099 16.5073 4.36351 16.5073H6.04598L11.1109 20.2564C11.3318 20.4215 11.5841 20.5 11.8365 20.5C12.0643 20.5 12.2922 20.4339 12.4955 20.2977C12.7087 20.1593 12.8866 19.956 13.0105 19.7091C13.1344 19.4622 13.1999 19.1807 13.2 18.8938V5.10315C13.1985 4.81616 13.1321 4.53483 13.0076 4.2881C12.8832 4.04137 12.7052 3.83814 12.492 3.6993Z" stroke="white" stroke-width="2.22222"/>
<path fill-rule="evenodd" clip-rule="evenodd" d="M16.2991 13.5205C16.728 13.1537 16.9999 12.6085 16.9999 11.9999C16.9999 11.3912 16.728 10.8461 16.2991 10.4793C16.5587 9.84803 16.9752 9.29785 17.4999 8.8772C18.4144 9.61026 18.9999 10.7367 18.9999 11.9999C18.9999 13.2631 18.4144 14.3895 17.4999 15.1226C16.9752 14.7019 16.5587 14.1517 16.2991 13.5205Z" fill="white"/>
<path fill-rule="evenodd" clip-rule="evenodd" d="M19.7988 15.2512C20.5476 14.377 20.9999 13.2414 20.9999 12.0001C20.9999 10.7589 20.5476 9.62329 19.7988 8.74915C20.118 8.14166 20.5238 7.58683 20.9998 7.10107C22.2371 8.36362 22.9999 10.0928 22.9999 12.0001C22.9999 13.9075 22.237 15.6367 20.9998 16.8992C20.5238 16.4135 20.118 15.8586 19.7988 15.2512Z" fill="white"/>
</svg>
