<svg width="28" height="28" viewBox="0 0 28 28" fill="none" xmlns="http://www.w3.org/2000/svg">
<circle cx="14.0002" cy="14" r="10.5" stroke="#303236" stroke-width="2.33333"/>
<path d="M3.5 13.5H24.5" stroke="#303236" stroke-width="2.33333"/>
<path d="M14.0005 3.50031C14.2207 3.50041 14.5486 3.60725 14.9692 4.05206C15.3924 4.49958 15.8267 5.20982 16.2163 6.1839C16.9931 8.12598 17.5005 10.8891 17.5005 14.0003C17.5005 17.1114 16.9931 19.8747 16.2163 21.8167C15.8267 22.7907 15.3924 23.5011 14.9692 23.9485C14.5486 24.3933 14.2206 24.5002 14.0005 24.5003C13.7804 24.5003 13.4524 24.3933 13.0317 23.9485C12.6086 23.5011 12.1734 22.7908 11.7837 21.8167C11.0069 19.8747 10.5005 17.1114 10.5005 14.0003C10.5005 10.8891 11.0069 8.12598 11.7837 6.1839C12.1734 5.20962 12.6085 4.49956 13.0317 4.05206C13.4526 3.60707 13.7803 3.50031 14.0005 3.50031Z" stroke="#303236" stroke-width="2.33333"/>
</svg>
