<svg width="28" height="28" viewBox="0 0 28 28" fill="none" xmlns="http://www.w3.org/2000/svg">
<circle cx="14.0002" cy="13.9999" r="10.5" stroke="white" stroke-width="2.33333"/>
<path d="M3.5 13.5H24.5" stroke="white" stroke-width="2.33333"/>
<path d="M14.0005 3.50024C14.2207 3.50035 14.5486 3.60719 14.9692 4.052C15.3924 4.49952 15.8267 5.20976 16.2163 6.18384C16.9931 8.12592 17.5005 10.889 17.5005 14.0002C17.5005 17.1113 16.9931 19.8746 16.2163 21.8167C15.8267 22.7907 15.3924 23.5011 14.9692 23.9485C14.5486 24.3932 14.2206 24.5001 14.0005 24.5002C13.7804 24.5002 13.4524 24.3932 13.0317 23.9485C12.6086 23.5011 12.1734 22.7907 11.7837 21.8167C11.0069 19.8746 10.5005 17.1113 10.5005 14.0002C10.5005 10.8891 11.0069 8.12592 11.7837 6.18384C12.1734 5.20956 12.6085 4.4995 13.0317 4.052C13.4526 3.607 13.7803 3.50024 14.0005 3.50024Z" stroke="white" stroke-width="2.33333"/>
</svg>
