<svg width="100" height="100" viewBox="0 0 100 100" fill="none" xmlns="http://www.w3.org/2000/svg">
<rect width="58.7388" height="42.5531" rx="2.85714" transform="matrix(0.988802 0.149232 -0.234844 0.972033 26.8691 39.5625)" fill="white" stroke="#262933" stroke-width="0.80491" stroke-linejoin="round"/>
<rect x="0.301786" y="0.448808" width="59.0731" height="41.7809" rx="2.45687" transform="matrix(0.988802 0.149232 -0.234844 0.972033 24.7636 37.7077)" fill="#262933" stroke="#262933" stroke-width="0.800539"/>
<rect x="0.18675" y="0.545829" width="46.4995" height="41.6992" rx="2.07305" transform="matrix(0.916278 0.400543 -0.478878 0.877881 47.1286 18.1891)" fill="white" stroke="#262933" stroke-width="0.853908"/>
<rect width="53.2958" height="43.8233" rx="2.5" transform="matrix(0.961771 0.273854 -0.356636 0.934244 34.1118 12.665)" fill="#FFD21F"/>
<rect width="11.3242" height="2.14286" rx="0.785714" transform="matrix(0.961771 0.273854 -0.356636 0.934244 36.5771 19.8906)" fill="white"/>
<rect width="11.3242" height="2.14286" rx="0.785714" transform="matrix(0.961771 0.273854 -0.356636 0.934244 52.0024 24.2832)" fill="white"/>
<rect width="11.3242" height="2.14286" rx="0.785714" transform="matrix(0.961771 0.273854 -0.356636 0.934244 67.4277 28.6748)" fill="white"/>
<rect width="11.3242" height="2.14286" rx="0.785714" transform="matrix(0.961771 0.273854 -0.356636 0.934244 33.7749 27.2314)" fill="white"/>
<rect width="11.3242" height="2.14286" rx="0.785714" transform="matrix(0.961771 0.273854 -0.356636 0.934244 49.2002 31.624)" fill="white"/>
<rect width="11.3242" height="2.14286" rx="0.785714" transform="matrix(0.961771 0.273854 -0.356636 0.934244 64.626 36.0156)" fill="white"/>
<rect width="11.3242" height="2.72008" rx="1.36004" transform="matrix(0.961771 0.273854 -0.356636 0.934244 30.9727 34.5713)" fill="white"/>
<rect width="11.3242" height="2.72008" rx="1.36004" transform="matrix(0.961771 0.273854 -0.356636 0.934244 46.3979 38.9639)" fill="white"/>
<rect width="11.3242" height="2.72008" rx="1.36004" transform="matrix(0.961771 0.273854 -0.356636 0.934244 61.8232 43.3555)" fill="white"/>
<path fill-rule="evenodd" clip-rule="evenodd" d="M26.1754 32.8991C24.6151 32.6637 23.0498 33.7162 22.6793 35.25L14.0939 70.7852L14.0872 70.7865C14.0703 70.8636 14.0538 70.941 14.0376 71.0185L14.0279 71.0586C14.0086 71.1385 13.9929 71.2182 13.9807 71.2975C13.1391 75.5457 13.349 80.1976 19.8775 81.3699C22.495 81.84 26.5767 82.4269 30.0793 82.9305L30.0793 82.9305C32.1467 83.2278 34.0122 83.496 35.256 83.6941L35.7431 82.0323C31.1052 81.2879 22.3697 79.9039 19.7335 79.5409C18.6672 79.394 17.8161 78.9415 17.1514 78.2552C16.5911 77.1713 16.7722 76.184 17.9454 76.0166L69.0596 83.7308C70.8178 83.9962 72.5817 82.8101 72.9993 81.0817L81.4804 45.9779C81.645 45.2965 81.5758 44.6325 81.3239 44.0619L81.3265 44.0612L80.6261 42.3094L80.6206 42.3134C80.2766 41.5363 79.5505 40.9546 78.6062 40.8121L26.1754 32.8991Z" fill="white"/>
<path d="M22.6793 35.25L23.0705 35.3445L23.0705 35.3445L22.6793 35.25ZM26.1754 32.8991L26.2354 32.5012L26.2354 32.5012L26.1754 32.8991ZM14.0939 70.7852L14.1694 71.1805C14.3245 71.1509 14.448 71.0332 14.4851 70.8797L14.0939 70.7852ZM14.0872 70.7865L14.0117 70.3911C13.8534 70.4213 13.7283 70.5432 13.6939 70.7007L14.0872 70.7865ZM14.0376 71.0185L14.4289 71.1131L14.4315 71.101L14.0376 71.0185ZM14.0279 71.0586L14.4191 71.1531L14.4191 71.1531L14.0279 71.0586ZM13.9807 71.2975L14.3755 71.3757C14.3766 71.37 14.3776 71.3643 14.3785 71.3585L13.9807 71.2975ZM19.8775 81.3699L19.9486 80.9738L19.9486 80.9738L19.8775 81.3699ZM30.0793 82.9305L30.1899 82.5435C30.1724 82.5385 30.1546 82.5347 30.1366 82.5321L30.0793 82.9305ZM30.0793 82.9305L29.9688 83.3175C29.9863 83.3225 30.0041 83.3263 30.0221 83.3289L30.0793 82.9305ZM35.256 83.6941L35.1927 84.0915C35.3927 84.1234 35.5852 84.0017 35.6422 83.8073L35.256 83.6941ZM35.7431 82.0323L36.1293 82.1455C36.1618 82.0346 36.145 81.9151 36.0833 81.8174C36.0216 81.7197 35.9209 81.6533 35.8068 81.6349L35.7431 82.0323ZM19.7335 79.5409L19.7884 79.1422L19.7884 79.1422L19.7335 79.5409ZM17.1514 78.2552L16.7939 78.44C16.8119 78.4749 16.835 78.5069 16.8623 78.5352L17.1514 78.2552ZM17.9454 76.0166L18.0055 75.6186C17.9667 75.6128 17.9273 75.6126 17.8886 75.6182L17.9454 76.0166ZM69.0596 83.7308L69.1196 83.3329L69.1196 83.3329L69.0596 83.7308ZM72.9993 81.0817L72.6081 80.9872L72.6081 80.9872L72.9993 81.0817ZM81.4804 45.9779L81.0892 45.8833L81.0892 45.8833L81.4804 45.9779ZM81.3239 44.0619L81.2281 43.671C81.1125 43.6993 81.0153 43.7773 80.9628 43.8841C80.9102 43.9909 80.9076 44.1155 80.9557 44.2244L81.3239 44.0619ZM81.3265 44.0612L81.4222 44.4521C81.5354 44.4244 81.6311 44.3489 81.6844 44.2453C81.7377 44.1417 81.7435 44.02 81.7002 43.9118L81.3265 44.0612ZM80.6261 42.3094L80.9998 42.16C80.9537 42.0447 80.8569 41.9571 80.7376 41.9227C80.6183 41.8883 80.4898 41.9109 80.3893 41.9839L80.6261 42.3094ZM80.6206 42.3134L80.2525 42.4763C80.3017 42.5875 80.3986 42.6705 80.5161 42.7021C80.6335 42.7336 80.7589 42.7104 80.8573 42.6389L80.6206 42.3134ZM78.6062 40.8121L78.5461 41.21L78.5461 41.21L78.6062 40.8121ZM23.0705 35.3445C23.392 34.0135 24.7614 33.0928 26.1153 33.2971L26.2354 32.5012C24.4688 32.2346 22.7076 33.4188 22.2881 35.1555L23.0705 35.3445ZM14.4851 70.8797L23.0705 35.3445L22.2881 35.1555L13.7027 70.6906L14.4851 70.8797ZM14.1626 71.1818L14.1694 71.1805L14.0185 70.3898L14.0117 70.3911L14.1626 71.1818ZM14.4315 71.101C14.4475 71.0246 14.4638 70.9483 14.4804 70.8722L13.6939 70.7007C13.6769 70.7789 13.6601 70.8574 13.6436 70.9361L14.4315 71.101ZM14.4191 71.1531L14.4288 71.113L13.6464 70.924L13.6367 70.9641L14.4191 71.1531ZM14.3785 71.3585C14.3889 71.2906 14.4024 71.2221 14.4191 71.1531L13.6367 70.9641C13.6147 71.055 13.5968 71.1458 13.5829 71.2364L14.3785 71.3585ZM19.9486 80.9738C16.7862 80.4059 15.2362 79.0188 14.5371 77.333C13.8215 75.6075 13.9581 73.4825 14.3755 71.3757L13.5859 71.2192C13.1617 73.3606 12.9825 75.6856 13.7936 77.6413C14.6211 79.6366 16.4403 81.1616 19.8063 81.7661L19.9486 80.9738ZM30.1366 82.5321C26.6309 82.0281 22.5576 81.4423 19.9486 80.9738L19.8063 81.7661C22.4325 82.2377 26.5225 82.8257 30.022 83.3289L30.1366 82.5321ZM30.1899 82.5435L30.1899 82.5435L29.9687 83.3175L29.9688 83.3175L30.1899 82.5435ZM35.3193 83.2967C34.0718 83.098 32.2025 82.8292 30.1366 82.5322L30.0221 83.3289C32.0908 83.6263 33.9527 83.894 35.1927 84.0915L35.3193 83.2967ZM35.3568 81.9191L34.8698 83.5809L35.6422 83.8073L36.1293 82.1455L35.3568 81.9191ZM19.6786 79.9395C22.3092 80.3018 31.0392 81.6849 35.6793 82.4297L35.8068 81.6349C31.1712 80.8909 22.4302 79.506 19.7884 79.1422L19.6786 79.9395ZM16.8623 78.5352C17.5898 79.2863 18.5234 79.7804 19.6786 79.9395L19.7884 79.1422C18.811 79.0075 18.0424 78.5966 17.4405 77.9752L16.8623 78.5352ZM17.5089 78.0703C17.2528 77.575 17.2043 77.1709 17.2835 76.9087C17.3505 76.687 17.5348 76.4817 18.0022 76.415L17.8886 75.6182C17.1827 75.7189 16.6899 76.0909 16.5131 76.6758C16.3485 77.22 16.4896 77.8515 16.7939 78.44L17.5089 78.0703ZM69.1196 83.3329L18.0055 75.6186L17.8853 76.4145L68.9995 84.1288L69.1196 83.3329ZM72.6081 80.9872C72.2395 82.5128 70.6715 83.5671 69.1196 83.3329L68.9995 84.1288C70.9641 84.4253 72.9239 83.1075 73.3905 81.1762L72.6081 80.9872ZM81.0892 45.8833L72.6081 80.9872L73.3905 81.1762L81.8716 46.0724L81.0892 45.8833ZM80.9557 44.2244C81.1715 44.7131 81.2333 45.2867 81.0892 45.8833L81.8716 46.0724C82.0567 45.3062 81.9802 44.5519 81.692 43.8993L80.9557 44.2244ZM81.2307 43.6703L81.2281 43.671L81.4196 44.4528L81.4222 44.4521L81.2307 43.6703ZM80.2524 42.4588L80.9528 44.2106L81.7002 43.9118L80.9998 42.16L80.2524 42.4588ZM80.8573 42.6389L80.8628 42.6349L80.3893 41.9839L80.3838 41.9879L80.8573 42.6389ZM78.5461 41.21C79.3556 41.3322 79.9648 41.8262 80.2525 42.4763L80.9886 42.1505C80.5884 41.2464 79.7455 40.577 78.6662 40.4141L78.5461 41.21ZM26.1153 33.2971L78.5461 41.21L78.6662 40.4141L26.2354 32.5012L26.1153 33.2971Z" fill="#262933"/>
<path d="M37.5717 83.6576L30.7024 82.6098L23.9937 80.8115L36.1745 82.3187L37.5717 83.6576Z" fill="white"/>
<path fill-rule="evenodd" clip-rule="evenodd" d="M61.641 72.4576C59.8147 72.182 58.6853 70.5055 59.1183 68.7132C59.5514 66.9208 61.3828 65.6913 63.2092 65.9669L63.8507 63.3117C60.5301 62.8105 57.2001 65.046 56.4128 68.3049C55.6255 71.5637 57.679 74.6117 60.9995 75.1128C64.3201 75.614 67.6501 73.3785 68.4374 70.1197L65.7319 69.7113C65.2988 71.5036 63.4673 72.7332 61.641 72.4576" fill="#262933"/>
<path fill-rule="evenodd" clip-rule="evenodd" d="M62.4249 69.2121L65.7317 69.7112L66.5158 66.4659L63.209 65.9668L62.4249 69.2121Z" fill="#262933"/>
<path d="M29.1847 33.4326C28.9516 33.3975 28.7177 33.5547 28.6623 33.7839L24.4627 51.1663C23.6811 54.4012 25.7152 57.4263 29.006 57.9229C32.2967 58.4196 35.598 56.1998 36.3796 52.9648L40.5792 35.5825C40.6345 35.3532 40.4904 35.1389 40.2572 35.1037L29.1847 33.4326Z" fill="white" stroke="#262933" stroke-width="0.853908" stroke-linejoin="round"/>
<circle cx="2.69921" cy="2.69921" r="2.69921" transform="matrix(0.988802 0.149232 -0.234844 0.972033 28.3926 49.0098)" fill="#198CFF"/>
<path d="M25.8486 11.7373L29.7761 14.0411" stroke="#262933" stroke-width="0.853908" stroke-linecap="round" stroke-linejoin="round"/>
<path d="M36.77 6.08691L36.3509 10.6209" stroke="#262933" stroke-width="0.853908" stroke-linecap="round" stroke-linejoin="round"/>
<path d="M30.0029 6.3916L32.5579 11.3832" stroke="#262933" stroke-width="0.853908" stroke-linecap="round" stroke-linejoin="round"/>
</svg>
