<svg width="141" height="140" viewBox="0 0 141 140" fill="none" xmlns="http://www.w3.org/2000/svg">
<rect width="82.2343" height="59.5744" rx="4" transform="matrix(0.988802 0.149232 -0.234844 0.972033 38.1167 55.3882)" fill="#141414" stroke="#FAFAFA" stroke-width="1.12687" stroke-linejoin="round"/>
<rect x="0.422501" y="0.628331" width="82.7023" height="58.4933" rx="3.43962" transform="matrix(0.988802 0.149232 -0.234844 0.972033 35.1689 52.7914)" fill="#141414" stroke="#FAFAFA" stroke-width="1.12075"/>
<rect x="0.261449" y="0.76416" width="65.0992" height="58.3789" rx="2.90226" transform="matrix(0.916278 0.400543 -0.478878 0.877881 66.4801 25.4651)" fill="#141414" stroke="#FAFAFA" stroke-width="1.19547"/>
<rect width="74.6142" height="61.3526" rx="3.5" transform="matrix(0.961771 0.273854 -0.356636 0.934244 48.2563 17.7319)" fill="#FFD21F"/>
<rect width="15.8539" height="3" rx="1.1" transform="matrix(0.961771 0.273854 -0.356636 0.934244 51.708 27.8466)" fill="#FAFAFA"/>
<rect width="15.8539" height="3" rx="1.1" transform="matrix(0.961771 0.273854 -0.356636 0.934244 73.3037 33.9957)" fill="#FAFAFA"/>
<rect width="15.8539" height="3" rx="1.1" transform="matrix(0.961771 0.273854 -0.356636 0.934244 94.8989 40.1447)" fill="#FAFAFA"/>
<rect width="15.8539" height="3" rx="1.1" transform="matrix(0.961771 0.273854 -0.356636 0.934244 47.7852 38.1233)" fill="#FAFAFA"/>
<rect width="15.8539" height="3" rx="1.1" transform="matrix(0.961771 0.273854 -0.356636 0.934244 69.3809 44.2723)" fill="#FAFAFA"/>
<rect width="15.8539" height="3" rx="1.1" transform="matrix(0.961771 0.273854 -0.356636 0.934244 90.9761 50.4214)" fill="#FAFAFA"/>
<rect width="15.8539" height="3.80811" rx="1.90405" transform="matrix(0.961771 0.273854 -0.356636 0.934244 43.8618 48.3999)" fill="#FAFAFA"/>
<rect width="15.8539" height="3.80811" rx="1.90405" transform="matrix(0.961771 0.273854 -0.356636 0.934244 65.4575 54.549)" fill="#FAFAFA"/>
<rect width="15.8539" height="3.80811" rx="1.90405" transform="matrix(0.961771 0.273854 -0.356636 0.934244 87.0527 60.6981)" fill="#FAFAFA"/>
<path fill-rule="evenodd" clip-rule="evenodd" d="M37.1457 46.0595C34.9613 45.7298 32.7699 47.2034 32.2511 49.3507L20.2316 99.1004L20.2221 99.1022C20.1987 99.2096 20.1757 99.3173 20.1531 99.4252L20.1392 99.4827C20.1121 99.595 20.0901 99.7068 20.073 99.8181C18.8948 105.765 19.189 112.278 28.3286 113.919C31.9932 114.577 37.7076 115.399 42.6112 116.104C45.5055 116.52 48.1173 116.896 49.8585 117.173L50.5404 114.846C44.0474 113.804 31.8177 111.867 28.127 111.358C26.6348 111.153 25.4436 110.52 24.5132 109.56C23.7277 108.042 23.9805 106.659 25.623 106.424L97.1833 117.224C99.6449 117.595 102.114 115.935 102.699 113.515L114.572 64.3696C114.803 63.4159 114.706 62.4866 114.354 61.6879L114.357 61.6871L113.376 59.2346L113.369 59.2397C112.888 58.1517 111.871 57.3372 110.549 57.1376L37.1457 46.0595Z" fill="#141414"/>
<path d="M32.2511 49.3507L31.7034 49.2184L32.2511 49.3507ZM37.1457 46.0595L37.2298 45.5024L37.1457 46.0595ZM20.2316 99.1004L20.3371 99.6539C20.5543 99.6124 20.7273 99.4477 20.7792 99.2327L20.2316 99.1004ZM20.2221 99.1022L20.1166 98.5487C19.8949 98.591 19.7197 98.7616 19.6716 98.9822L20.2221 99.1022ZM20.1531 99.4252L20.7008 99.5575C20.7021 99.5519 20.7034 99.5463 20.7046 99.5407L20.1531 99.4252ZM20.1392 99.4827L19.5915 99.3504H19.5915L20.1392 99.4827ZM20.073 99.8181L20.6257 99.9276C20.6273 99.9196 20.6287 99.9115 20.6299 99.9035L20.073 99.8181ZM28.3286 113.919L28.229 114.474H28.229L28.3286 113.919ZM42.6112 116.104L42.5311 116.662L42.6112 116.104ZM49.8585 117.173L49.7699 117.729C50.0499 117.774 50.3194 117.603 50.3992 117.331L49.8585 117.173ZM50.5404 114.846L51.0811 115.005C51.1266 114.85 51.1031 114.682 51.0168 114.546C50.9304 114.409 50.7894 114.316 50.6297 114.29L50.5404 114.846ZM28.127 111.358L28.0502 111.917L28.127 111.358ZM24.5132 109.56L24.0129 109.819C24.0381 109.867 24.0704 109.912 24.1086 109.952L24.5132 109.56ZM25.623 106.424L25.7071 105.867C25.6528 105.858 25.5976 105.858 25.5433 105.866L25.623 106.424ZM97.1833 117.224L97.0992 117.781L97.1833 117.224ZM102.699 113.515L103.247 113.647L102.699 113.515ZM114.572 64.3696L115.12 64.5019L114.572 64.3696ZM114.354 61.6879L114.219 61.1406C114.058 61.1803 113.922 61.2895 113.848 61.439C113.775 61.5885 113.771 61.7629 113.838 61.9153L114.354 61.6879ZM114.357 61.6871L114.491 62.2343C114.649 62.1955 114.783 62.0899 114.858 61.9448C114.932 61.7997 114.94 61.6294 114.88 61.4779L114.357 61.6871ZM113.376 59.2346L113.899 59.0254C113.835 58.864 113.699 58.7414 113.532 58.6932C113.365 58.645 113.185 58.6766 113.045 58.7788L113.376 59.2346ZM113.369 59.2397L112.854 59.4677C112.923 59.6234 113.058 59.7396 113.223 59.7838C113.387 59.8281 113.563 59.7956 113.7 59.6955L113.369 59.2397ZM110.549 57.1376L110.633 56.5805L110.549 57.1376ZM32.7988 49.483C33.249 47.6197 35.1661 46.3306 37.0616 46.6166L37.2298 45.5024C34.7565 45.1291 32.2908 46.7871 31.7034 49.2184L32.7988 49.483ZM20.7792 99.2327L32.7988 49.483L31.7034 49.2184L19.6839 98.9681L20.7792 99.2327ZM20.3276 99.6557L20.3371 99.6539L20.1261 98.5469L20.1166 98.5487L20.3276 99.6557ZM20.7046 99.5407C20.7268 99.4343 20.7495 99.3282 20.7726 99.2222L19.6716 98.9822C19.6479 99.091 19.6245 99.2002 19.6016 99.3097L20.7046 99.5407ZM20.6869 99.615L20.7008 99.5575L19.6054 99.2929L19.5915 99.3504L20.6869 99.615ZM20.6299 99.9035C20.6446 99.8081 20.6635 99.7119 20.6869 99.615L19.5915 99.3504C19.5607 99.4781 19.5356 99.6056 19.5161 99.7328L20.6299 99.9035ZM28.4282 113.365C24.0009 112.569 21.8309 110.628 20.8521 108.268C19.8502 105.852 20.0414 102.877 20.6257 99.9276L19.5203 99.7086C18.9264 102.706 18.6756 105.961 19.8112 108.699C20.9698 111.493 23.5167 113.627 28.229 114.474L28.4282 113.365ZM42.6914 115.546C37.7835 114.84 32.0807 114.02 28.4281 113.365L28.229 114.474C31.9056 115.134 37.6317 115.957 42.5311 116.662L42.6914 115.546ZM49.9471 116.616C48.2006 116.338 45.5837 115.962 42.6914 115.546L42.5311 116.662C45.4273 117.078 48.0339 117.453 49.7699 117.729L49.9471 116.616ZM49.9997 114.688L49.3178 117.014L50.3992 117.331L51.0811 115.005L49.9997 114.688ZM28.0502 111.917C31.733 112.424 43.955 114.36 50.4511 115.403L50.6297 114.29C44.1398 113.248 31.9024 111.31 28.2039 110.8L28.0502 111.917ZM24.1086 109.952C25.1269 111.003 26.4336 111.694 28.0502 111.917L28.2039 110.8C26.836 110.612 25.7604 110.037 24.9179 109.168L24.1086 109.952ZM25.0136 109.301C24.6546 108.607 24.5863 108.041 24.6971 107.673C24.7907 107.363 25.0485 107.075 25.7027 106.982L25.5433 105.866C24.555 106.007 23.8652 106.529 23.6182 107.348C23.3883 108.11 23.5864 108.995 24.0129 109.819L25.0136 109.301ZM97.2674 116.667L25.7071 105.867L25.5389 106.981L97.0992 117.781L97.2674 116.667ZM102.151 113.383C101.635 115.519 99.4401 116.995 97.2674 116.667L97.0992 117.781C99.8496 118.196 102.593 116.351 103.247 113.647L102.151 113.383ZM114.025 64.2373L102.151 113.383L103.247 113.647L115.12 64.5019L114.025 64.2373ZM113.838 61.9153C114.14 62.5994 114.227 63.4022 114.025 64.2373L115.12 64.5019C115.379 63.4297 115.272 62.3738 114.869 61.4604L113.838 61.9153ZM114.223 61.1398L114.219 61.1406L114.488 62.2351L114.491 62.2343L114.223 61.1398ZM112.853 59.4437L113.834 61.8963L114.88 61.4779L113.899 59.0254L112.853 59.4437ZM113.7 59.6955L113.707 59.6903L113.045 58.7788L113.038 58.784L113.7 59.6955ZM110.465 57.6948C111.598 57.8658 112.451 58.5575 112.854 59.4677L113.884 59.0118C113.324 57.7459 112.144 56.8086 110.633 56.5805L110.465 57.6948ZM37.0616 46.6166L110.465 57.6948L110.633 56.5805L37.2298 45.5024L37.0616 46.6166Z" fill="#FAFAFA"/>
<path d="M53.1005 117.12L43.4835 115.653L34.0913 113.136L51.1445 115.246L53.1005 117.12Z" fill="#141414"/>
<path fill-rule="evenodd" clip-rule="evenodd" d="M86.7973 101.441C84.2405 101.055 82.6593 98.7076 83.2656 96.1984C83.8718 93.689 86.4359 91.9677 88.9927 92.3536L89.8909 88.6362C85.2421 87.9346 80.5801 91.0643 79.4778 95.6267C78.3755 100.189 81.2505 104.456 85.8992 105.158C90.548 105.859 95.21 102.73 96.3123 98.1674L92.5245 97.5957C91.9183 100.105 89.3541 101.826 86.7973 101.441Z" fill="#FAFAFA"/>
<path fill-rule="evenodd" clip-rule="evenodd" d="M87.895 96.8966L92.5245 97.5953L93.6222 93.0518L88.9927 92.3531L87.895 96.8966Z" fill="#FAFAFA"/>
<path d="M41.3586 46.8045C41.0322 46.7553 40.7047 46.9754 40.6272 47.2963L34.7478 71.6316C33.6536 76.1606 36.5013 80.3956 41.1084 81.0909C45.7154 81.7862 50.3372 78.6785 51.4314 74.1496L57.3108 49.8143C57.3883 49.4934 57.1866 49.1933 56.8601 49.144L41.3586 46.8045Z" fill="#141414" stroke="#FAFAFA" stroke-width="1.19547" stroke-linejoin="round"/>
<circle cx="3.7789" cy="3.7789" r="3.7789" transform="matrix(0.988802 0.149232 -0.234844 0.972033 40.2495 68.613)" fill="#0A75F7"/>
<path d="M36.688 16.4316L42.1864 19.6569" stroke="#FAFAFA" stroke-width="1.19547" stroke-linecap="round" stroke-linejoin="round"/>
<path d="M51.978 8.52197L51.3913 14.8695" stroke="#FAFAFA" stroke-width="1.19547" stroke-linecap="round" stroke-linejoin="round"/>
<path d="M42.5039 8.94824L46.0809 15.9365" stroke="#FAFAFA" stroke-width="1.19547" stroke-linecap="round" stroke-linejoin="round"/>
</svg>
