<svg width="70" height="17" viewBox="0 0 70 17" fill="none" xmlns="http://www.w3.org/2000/svg">
<path d="M8.11462 12.9069C5.64312 12.9069 3.66622 10.93 3.66622 8.45847C3.66622 5.98697 5.64312 4.01007 8.11462 4.01007V0.385254C3.62482 0.385254 0 4.01007 0 8.49987C0 12.9897 3.62482 16.6145 8.11462 16.6145C12.6044 16.6145 16.2292 12.9897 16.2292 8.49987H12.6044C12.563 10.93 10.5861 12.9076 8.11462 12.9076V12.9069Z" fill="#0068FF"/>
<path d="M12.5636 4.00928H8.11523V8.45767H12.5636V4.00928Z" fill="#17E29D"/>
<path d="M25.4104 7.50912V10.1854H29.5283L29.4975 10.2584C28.7974 11.938 27.1705 13.0228 25.3525 13.0228C22.8764 13.0228 20.8627 11.0082 20.8627 8.53296C20.8627 6.05769 22.8772 4.04315 25.3525 4.04315C26.7821 4.04315 28.1048 4.71467 28.9517 5.85518H32.2325C31.1326 3.02459 28.4089 1.14556 25.3532 1.14556C21.2797 1.14556 17.9658 4.45946 17.9658 8.53296C17.9658 12.6065 21.2797 15.9204 25.3532 15.9204C27.3256 15.9204 29.1783 15.1517 30.5702 13.7568C31.9614 12.3625 32.7271 10.5068 32.7271 8.53296C32.7271 8.16633 32.7052 7.83133 32.6608 7.50988H25.4104V7.50912ZM69.9592 9.83232C69.9983 9.54625 69.9998 9.25717 69.9998 8.96056C69.9998 5.42307 67.1579 2.55558 63.6204 2.55558C60.0829 2.55558 57.2155 5.42307 57.2155 8.96056C57.2155 12.498 60.0829 15.3655 63.6204 15.3655C66.387 15.3655 68.7403 13.6092 69.6354 11.152H66.7439C66.0528 12.1352 64.9138 12.7796 63.6204 12.7796C61.8114 12.7796 60.2998 11.5201 59.9045 9.83156H67.3363H69.9592V9.83232ZM60.1183 7.43685C60.707 6.08555 62.0523 5.14001 63.6204 5.14001C65.1886 5.14001 66.5338 6.08555 67.1225 7.43685H60.1191H60.1183ZM44.3107 3.7759C43.2221 2.92221 41.8527 2.41105 40.3651 2.41105C36.8337 2.41105 33.9602 5.28455 33.9602 8.81601C33.9602 12.3475 36.8337 15.221 40.3651 15.221C41.8527 15.221 43.2221 14.7098 44.3107 13.8561V15.1231H46.9162V2.96437H44.3107V3.77665V3.7759ZM40.3651 12.5756C38.2919 12.5756 36.6048 10.8885 36.6048 8.81526C36.6048 6.742 38.2919 5.05494 40.3651 5.05494C42.4384 5.05494 44.1255 6.742 44.1255 8.81526C44.1255 10.8885 42.4384 12.5756 40.3651 12.5756ZM52.9041 0.684082H50.0607V2.96361H48.7267V5.57062H50.0607V11.4456C50.0607 13.5302 51.7568 15.2263 53.8413 15.2263H56.2202V12.4348H53.8933C53.3475 12.4348 52.9041 11.9906 52.9041 11.4456V5.57062H56.2217V2.96361H52.9041V0.684082Z" fill="black"/>
</svg>
