<svg width="64" height="64" viewBox="0 0 64 64" fill="none" xmlns="http://www.w3.org/2000/svg">
<g id="CEX_Avatar NoPadding" clip-path="url(#clip0_7097_85903)">
<path id="Subtract" fill-rule="evenodd" clip-rule="evenodd" d="M32 64C49.6731 64 64 49.6731 64 32C64 14.3269 49.6731 0 32 0C14.3269 0 0 14.3269 0 32C0 49.6731 14.3269 64 32 64ZM40.8 22.4C40.8 27.2601 36.8601 31.2 32 31.2C27.1399 31.2 23.2 27.2601 23.2 22.4C23.2 17.5399 27.1399 13.6 32 13.6C36.8601 13.6 40.8 17.5399 40.8 22.4ZM15.5233 45.0627C14.8383 43.9207 15.1201 42.48 16.0617 41.5383L17.3255 40.2745C18.5257 39.0743 20.1536 38.4 21.851 38.4H42.1491C43.8464 38.4 45.4743 39.0743 46.6745 40.2745L47.9383 41.5383C48.88 42.4799 49.1617 43.9207 48.4767 45.0626C45.1212 50.6564 38.9978 54.4001 32 54.4001C25.0022 54.4001 18.8788 50.6564 15.5233 45.0627Z" fill="#DFE0E2"/>
</g>
<defs>
<clipPath id="clip0_7097_85903">
<rect width="64" height="64" fill="white"/>
</clipPath>
</defs>
</svg>
