<svg fill="none" height="14" viewBox="0 0 14 14" width="14" xmlns="http://www.w3.org/2000/svg" xmlns:xlink="http://www.w3.org/1999/xlink"><clipPath id="a"><path d="m0 0h14v14h-14z"/></clipPath><g clip-path="url(#a)"><path clip-rule="evenodd" d="m7 13.125c3.3827 0 6.125-2.7423 6.125-6.125 0-3.38274-2.7423-6.125-6.125-6.125-3.38274 0-6.125 2.74226-6.125 6.125 0 3.3827 2.74226 6.125 6.125 6.125zm-1.87814-8.62186c-.17086-.17085-.44786-.17085-.61872 0-.17085.17086-.17085.44786 0 .61872l1.87814 1.87814-1.87814 1.87814c-.17085.17086-.17085.44786 0 .61872.17086.17085.44786.17085.61872 0l1.87814-1.87814 1.87814 1.87814c.17086.17085.44786.17085.61872 0 .17085-.17086.17085-.44786 0-.61872l-1.87814-1.87814 1.87814-1.87814c.17085-.17086.17085-.44786 0-.61872-.17086-.17085-.44786-.17085-.61872 0l-1.87814 1.87814z" fill="#fafafa" fill-rule="evenodd"/></g></svg>