<svg width="20" height="20" viewBox="0 0 20 20" fill="none" xmlns="http://www.w3.org/2000/svg">
<rect x="1.79999" y="3" width="16.4" height="14" rx="3" stroke="#262933" stroke-width="1.6"/>
<path fill-rule="evenodd" clip-rule="evenodd" d="M4.73929 7.84552C5.22164 7.30552 5.91185 7.00935 6.73595 7.01001C8.07102 7.01004 9.08682 7.77903 9.27687 8.99757L9.31055 9.2135H7.98306L7.94163 9.08303C7.85433 8.80808 7.70574 8.60378 7.50942 8.46697C7.31233 8.32963 7.05461 8.25165 6.73587 8.25165C6.31411 8.25165 5.98201 8.41681 5.75078 8.71165C5.51561 9.01151 5.37304 9.46145 5.37304 10.0444C5.37304 10.6347 5.51835 11.0891 5.75829 11.3916C5.99435 11.6893 6.33415 11.8562 6.76648 11.8562C7.14527 11.8562 7.44835 11.7415 7.65609 11.5566C7.84582 11.3878 7.96686 11.1512 7.99026 10.8604H6.97441C6.81495 10.8604 6.68526 10.7307 6.68526 10.5712V10.0138C6.68526 9.85431 6.81495 9.72462 6.97441 9.72462H9.0346C9.19406 9.72462 9.32375 9.85431 9.32375 10.0138V10.5942C9.32375 11.3437 9.07644 11.9742 8.62006 12.4172C8.16426 12.8597 7.51779 13.0979 6.75117 13.0979C5.91543 13.0979 5.22094 12.807 4.73718 12.268C4.25554 11.7312 4 10.9679 4 10.052C4 9.14539 4.25894 8.38328 4.73929 7.84552ZM12.0375 7.43821C12.0375 7.27875 12.1672 7.14906 12.3267 7.14906H15.5413C15.7008 7.14906 15.8305 7.27875 15.8305 7.43821V8.06583C15.8305 8.22529 15.7008 8.35498 15.5413 8.35498H13.371V9.5473H15.3296C15.489 9.5473 15.6187 9.67699 15.6187 9.83645V10.4347C15.6187 10.5942 15.489 10.7239 15.3296 10.7239H13.371V12.6174C13.371 12.7768 13.2413 12.9065 13.0819 12.9065H12.3267C12.1672 12.9065 12.0375 12.7768 12.0375 12.6174V7.43821ZM9.99648 7.45096C9.99648 7.2915 10.1262 7.16181 10.2856 7.16181H11C11.1595 7.16181 11.2891 7.2915 11.2891 7.45096V12.6301C11.2891 12.7896 11.1595 12.9193 11 12.9193H10.2856C10.1262 12.9193 9.99648 12.7896 9.99648 12.6301V7.45096Z" fill="#262933"/>
</svg>
