<svg fill="none" height="12" viewBox="0 0 12 12" width="12" xmlns="http://www.w3.org/2000/svg" xmlns:xlink="http://www.w3.org/1999/xlink"><radialGradient id="a" cx="0" cy="0" gradientTransform="matrix(.06480279 3.50865162 -3.57802978 .06608417 5.99846 6.02551)" gradientUnits="userSpaceOnUse" r="1"><stop offset=".359" stop-color="#e9ff00"/><stop offset=".76" stop-color="#263800"/><stop offset="1"/></radialGradient><path d="m12 6c0-3.31371-2.68629-6-6-6s-6 2.68629-6 6 2.68629 6 6 6 6-2.68629 6-6z" fill="#dded4d"/><path d="m2.09937 2.39941h4.36019c1.9701 0 3.56764 1.5969 3.56764 3.567 0 1.9704-1.59724 3.5676-3.56764 3.5676h-4.36019z" fill="url(#a)"/><path d="m5.93104 7.42067c.80274 0 1.4535-.65075 1.4535-1.4535 0-.80274-.65076-1.4535-1.4535-1.4535-.80275 0-1.4535.65076-1.4535 1.4535 0 .80275.65075 1.4535 1.4535 1.4535z" fill="#000"/><circle cx="6" cy="6" fill="#fa9c19" r="6"/><path clip-rule="evenodd" d="m8.43542 4.5984c-.0759-.79114-.75923-1.05633-1.62139-1.132l-.00004-1.0976-.66776.00031-.00022 1.06867c-.17189-.00029-.34727.00326-.52238.0068h-.00001l-.01113.00023.0004-1.07568-.66785-.00006-.00006 1.09724-.02904.00056h-.00004c-.1346.00264-.26707.00524-.3962.00499l-.00009-.00346-.92143-.00022.0001.71342s.4935-.00942.48531-.00042c.27058.00017.35843.15721.38417.29301l.00021 1.25022c.01856.00001.04275.00093.07067.00441l-.07067.00022-.00001 1.75154c-.01206.08494-.06208.22069-.25135.22112.00882.00746-.48541.00006-.48541.00006l-.13274.79755.86958.00001c.0934.00016.18597.00118.27759.00218h.00012.00003c.06687.00073.13323.00146.19902.00185l.00039 1.10987.6674-.00021-.00004-1.0976c.18327.00339.36062.00478.53379.00489l-.00033 1.09304.66777-.0003.00015-1.10769c1.12328-.06441 1.90919-.34732 2.00681-1.40201.07894-.84907-.32055-1.22832-.95811-1.38124.38757-.19712.62945-.54458.57279-1.1237zm-.93474 2.37308c.00077.761-1.1947.74439-1.74191.73678-.04931-.00068-.09335-.0013-.13078-.00126l.00048-1.47067c.04567.00002.10116-.00127.16404-.00274.56078-.01311 1.7085-.03993 1.70817.73789zm-1.76187-1.40651c.45628.00755 1.45119.02403 1.45121-.66771.00004-.70752-.95679-.68203-1.42416-.66958-.05268.00141-.09915.00265-.13732.00265l.00007 1.33334c.03148 0 .0686.00061.1102.0013z" fill="#fff" fill-rule="evenodd"/><circle cx="6" cy="6" fill="#13bf86" r="6"/><path d="m8.5301 4.10926v-1.23328h-5.04947v1.23328h1.86158v.80574c-1.51326.06805-2.65276.36635-2.65276.72425 0 .35791 1.1395.65619 2.65276.72425v2.58584h1.32632v-2.58644c1.50742-.06908 2.64114-.36684 2.64114-.72366 0-.35686-1.13372-.65471-2.64114-.72371v-.80628h1.86157zm.20946 1.45713c0 .23539-.88112.43283-2.07103.48765l-.0769.00326h-.00849l-.07211.00266h-.0078c-.05364.00183-.10792.00341-.16288.00465h-.00341l-.07373.00153h-.02084l-.05819.00078h-.36846l-.05759-.00078h-.02l-.06879-.00145h-.00756c-.08154-.00182-.16184-.00433-.24096-.00739h-.00104l-.07877-.00341c-1.19584-.05398-2.08263-.25211-2.08263-.48863 0-.23656.88694-.43411 2.08263-.48869v.74802c.20757.01082.42838.01675.65739.01675.23266 0 .45792-.00603.66899-.01735v-.74519c1.19095.05467 2.07217.25222 2.07217.48759z" fill="#fff"/></svg>