<svg width="17" height="16" viewBox="0 0 17 16" fill="none" xmlns="http://www.w3.org/2000/svg">
<path d="M6.41113 2C6.62395 2.00033 6.82798 2.07932 6.97852 2.21973C7.12916 2.36033 7.21363 2.55116 7.21387 2.75V13.25C7.21363 13.4488 7.12916 13.6397 6.97852 13.7803C6.82798 13.9207 6.62395 13.9997 6.41113 14H4.80371C4.59066 13.9998 4.386 13.9209 4.23535 13.7803C4.08474 13.6397 4.00024 13.4488 4 13.25V2.75C4.00024 2.55118 4.08474 2.36033 4.23535 2.21973C4.386 2.07912 4.59066 2.00022 4.80371 2H6.41113ZM12.1963 2C12.4093 2.00022 12.614 2.07912 12.7646 2.21973C12.9153 2.36033 12.9998 2.55118 13 2.75V13.25C12.9998 13.4488 12.9153 13.6397 12.7646 13.7803C12.614 13.9209 12.4093 13.9998 12.1963 14H10.5889C10.3761 13.9997 10.172 13.9207 10.0215 13.7803C9.87084 13.6397 9.78637 13.4488 9.78613 13.25V2.75C9.78637 2.55116 9.87084 2.36033 10.0215 2.21973C10.172 2.07932 10.3761 2.00033 10.5889 2H12.1963Z" fill="#303236"/>
</svg>
