<svg width="85" height="30" viewBox="0 0 85 30" fill="none" xmlns="http://www.w3.org/2000/svg">
<g clip-path="url(#clip0_517_135196)">
<path d="M85 0H0V30H85V0Z" fill="#001A30"/>
<path d="M0 0V30H85V0H0ZM0.386918 0.384837H84.6131V24.2909H46.0122L41.5569 28.0065L0.386918 27.9815V0.384837Z" fill="#EA1D2D"/>
<g opacity="0.1">
<path d="M84.5489 17.8718H84.1641V19.898H84.5489V17.8718Z" fill="#001A30"/>
<path d="M84.5489 21.9241H84.1641V23.9502H84.5489V21.9241Z" fill="#001A30"/>
<path d="M57.4469 24.291H51.6204L49.5962 25.9785H55.4207L57.4469 24.291Z" fill="#001A30"/>
<path d="M50.5965 30L52.9883 28.0046H47.1637L44.772 30H50.5965Z" fill="#001A30"/>
<path d="M43.7715 25.9783L41.3394 28.0044H47.1639L49.596 25.9783H43.7715Z" fill="#001A30"/>
<path d="M84.5488 25.9783V24.21L82.4264 25.9783H55.4205L52.9883 28.0045H79.9942L82.4264 25.9783H84.5488Z" fill="#001A30"/>
<path d="M26.5115 28.0045L26.5211 27.9968L20.7005 27.9929L20.687 28.0045H26.5115Z" fill="#001A30"/>
<path d="M79.9943 28.0046L77.6025 30H84.5489V28.0046H79.9943Z" fill="#001A30"/>
<path d="M20.687 28.0046H14.8625L14.8798 27.9911L0.390697 27.9815V0.384837H84.164V15.8438H84.5489V0H0.00585938V26.9482V30H18.2953L20.687 28.0046Z" fill="#001A30"/>
</g>
<path d="M19.7327 7.25821H21.9666L20.7871 5.35326L18.6205 8.79371H17.6314L20.2695 4.66441C20.383 4.497 20.5754 4.39502 20.7871 4.39502C20.9988 4.39502 21.1835 4.49315 21.297 4.65671L23.9428 8.79371H22.9557L22.49 8.02404H20.2272L19.7346 7.25821M29.9847 8.02404V4.43735H29.1458V8.37616C29.1458 8.48392 29.192 8.58975 29.2689 8.66479C29.3497 8.74753 29.4594 8.79371 29.5749 8.79371H33.3905L33.887 8.02404H29.9847ZM16.1306 7.38328C16.9464 7.38328 17.6026 6.72329 17.6026 5.91128C17.6026 5.09927 16.9464 4.43928 16.1306 4.43928H12.4669V8.79563H13.3039V5.21087H16.0748C16.4635 5.21087 16.779 5.52452 16.779 5.9132C16.779 6.30189 16.4635 6.6213 16.0748 6.6213H13.7138L16.2152 8.79756H17.4313L15.7515 7.38713H16.1325M7.31587 8.79756H9.8481C11.0526 8.79756 12.0224 7.82392 12.0224 6.6213C12.0224 5.41869 11.0526 4.4412 9.8481 4.4412H7.31587C6.11326 4.4412 5.1377 5.41676 5.1377 6.6213C5.1377 7.82584 6.11326 8.79756 7.31587 8.79756ZM9.79038 8.03173H7.37168C6.5943 8.03173 5.96317 7.39868 5.96317 6.6213C5.96317 5.84393 6.5943 5.21087 7.37168 5.21087H9.79038C10.5716 5.21087 11.2008 5.84008 11.2008 6.6213C11.2008 7.40252 10.5716 8.03173 9.79038 8.03173ZM25.6938 8.79756H28.278L28.7667 8.03173H25.7496C24.9684 8.03173 24.3372 7.39868 24.3372 6.6213C24.3372 5.84393 24.9664 5.21087 25.7496 5.21087H28.2048L28.6994 4.4412H25.6919C24.4873 4.4412 23.5098 5.41676 23.5098 6.6213C23.5098 7.82584 24.4873 8.79756 25.6919 8.79756M35.9343 8.03173C35.2897 8.03173 34.7452 7.59879 34.5778 7.00614H38.1567L38.6493 6.23839H34.5778C34.7452 5.64382 35.2897 5.2128 35.9343 5.2128H38.3915L38.8822 4.44312H35.8785C34.6759 4.44312 33.7022 5.41869 33.7022 6.62323C33.7022 7.82777 34.6778 8.79948 35.8785 8.79948H38.4627L38.9534 8.03366H35.9343" fill="url(#paint0_linear_517_135196)"/>
<path d="M7.93348 18.7245C7.93348 18.2857 7.62561 18.0202 7.10993 18.0144H5.13379V20.3331H5.4686V19.4884H7.07145C7.36007 19.4884 7.53325 19.6327 7.53325 19.8751V20.3331H7.87383V19.879C7.87383 19.6307 7.74876 19.4403 7.52363 19.3421C7.78147 19.2401 7.93348 19.0189 7.93348 18.7264V18.7245ZM7.11185 19.1824H5.4686V18.3185H7.11185C7.56019 18.3185 7.59675 18.6494 7.59675 18.7514C7.59675 18.8534 7.56211 19.1824 7.11185 19.1824ZM13.8234 18.4705C13.6522 18.1241 13.4559 17.9836 13.148 17.9836C12.8402 17.9836 12.6362 18.1299 12.4707 18.4705L11.5894 20.2734L11.5606 20.3312H11.9204L11.9319 20.3081L12.2456 19.6654H14.0466L14.3603 20.3081L14.3718 20.3312H14.7355L14.7066 20.2734L13.8234 18.4685V18.4705ZM12.4014 19.3614L12.794 18.5609C12.8863 18.3704 12.9902 18.2915 13.15 18.2915C13.3097 18.2915 13.4116 18.3685 13.504 18.5609L13.8946 19.3614H12.4014ZM18.251 19.1728C18.251 19.9579 18.5916 20.3254 19.3247 20.3312H21.1392V20.004H19.3439C18.7936 20.004 18.5877 19.7789 18.5877 19.1728C18.5877 18.5667 18.7936 18.3415 19.3439 18.3415H21.1392V18.0125H19.3247C18.5819 18.0202 18.251 18.3781 18.251 19.1728ZM24.9394 20.3312H25.2743V18.0125H24.9394V20.3312ZM31.8607 19.9963C31.5413 19.9963 31.4644 19.8924 30.8833 19.1131L30.8582 19.0785C30.2329 18.2415 30.0636 18.0164 29.5171 18.0125H29.2419V20.3312H29.5729V18.3473C29.875 18.3473 29.95 18.4454 30.5177 19.1901L30.5869 19.2805C31.2181 20.1041 31.3874 20.3254 31.9146 20.3312H32.1917V18.0125H31.8607V19.9963ZM38.6166 19.1343V20.0021H37.1446C36.5942 20.0021 36.3884 19.7751 36.3884 19.167C36.3884 18.559 36.5942 18.3396 37.1446 18.3396H38.9302V18.0106H37.1234C36.3922 18.0164 36.0497 18.3839 36.0497 19.167C36.0497 19.9502 36.3903 20.3235 37.1234 20.3292H38.9514V19.1324H38.6166V19.1343Z" fill="url(#paint1_linear_517_135196)"/>
<path d="M13.8042 16.583H13.4617C9.67295 16.583 5.13379 16.6619 5.13379 16.7234C5.13379 16.785 8.88211 16.9274 13.4636 16.9274H14.2256H30.281H30.6254C34.4141 16.9274 38.9533 16.8485 38.9533 16.7869C38.9533 16.7254 35.205 16.5811 30.6235 16.5811H29.8615H13.8061L13.8042 16.583Z" fill="url(#paint2_radial_517_135196)"/>
<path d="M19.6998 12.388V13.8177C19.6998 14.0563 19.4977 14.2487 19.2457 14.2487C18.9936 14.2487 18.7916 14.0563 18.7916 13.8177V12.388H18.0046V13.9697C18.0046 14.5046 18.5587 14.9395 19.2418 14.9395C19.9249 14.9395 20.4791 14.5046 20.4791 13.9697V12.388H19.6979H19.6998ZM22.257 10.689V14.851H23.0498V10.689H22.257ZM20.9159 14.851H21.7086V10.689H20.9159V14.851ZM17.0348 12.6901C17.2522 12.4881 17.385 12.2168 17.385 11.9185C17.385 11.6491 17.2811 11.4009 17.1002 11.2066C16.9116 10.9988 16.5768 10.8814 16.1246 10.8814H14.77V14.8529H16.521C17.1926 14.8414 17.7313 14.3353 17.7313 13.7138C17.7313 13.2616 17.5716 12.9383 17.0367 12.692L17.0348 12.6901ZM16.3709 14.1621H15.6128V11.5625H16.142C16.3748 11.5625 16.5634 11.7761 16.5634 12.007C16.5634 12.2379 16.3748 12.4284 16.142 12.4284H15.8668V13.1423H16.3709C16.6519 13.1423 16.8655 13.3694 16.8655 13.6503C16.8558 13.9408 16.6769 14.1429 16.3709 14.1621Z" fill="#EA1D2D"/>
<path d="M7.77955 12.0515C7.77955 11.4031 7.24462 10.8777 6.58463 10.8777C6.56538 10.8777 5.13379 10.8777 5.13379 10.8777V14.8493H5.97851V11.5608H6.40953C6.72124 11.5608 6.95792 11.7937 6.95792 12.0804C6.95792 12.3671 6.70585 12.5999 6.39413 12.5999H6.19786V13.5504L7.04066 14.8512H8.03546L6.86941 13.1925C7.39278 13.0675 7.77955 12.6037 7.77955 12.0534V12.0515ZM9.2554 12.2843C8.5319 12.2843 7.94503 12.8789 7.94503 13.612C7.94503 14.3451 8.5319 14.9397 9.2554 14.9397C9.80764 14.9397 10.2387 14.6896 10.4619 14.297L9.81726 14.0007C9.73452 14.1777 9.54403 14.3028 9.32082 14.3028C9.01295 14.3028 8.78397 14.0757 8.78205 13.8083C8.78205 13.789 8.78205 13.7813 8.78205 13.7813H10.5292C10.535 13.7275 10.5369 13.6717 10.5369 13.6139C10.5485 12.7558 9.98082 12.2843 9.25732 12.2843H9.2554ZM8.7782 13.3234C8.7782 13.0559 8.99563 12.8385 9.26309 12.8385C9.53056 12.8385 9.74799 13.0559 9.74799 13.3234H8.7782ZM13.6849 14.8493V10.6873H12.894V12.6576C12.6843 12.4498 12.4034 12.3228 12.0974 12.3228C11.4432 12.3228 10.9121 12.9039 10.9121 13.6197C10.9121 14.3355 11.4432 14.9166 12.0974 14.9166C12.4072 14.9166 12.6862 14.7858 12.8979 14.5722V14.8493H13.6849ZM12.3206 14.2412C11.9993 14.2412 11.7395 13.9564 11.7395 13.6043C11.7395 13.2522 11.9993 12.9674 12.3206 12.9674C12.642 12.9674 12.9017 13.2522 12.9017 13.6043C12.9017 13.9564 12.642 14.2412 12.3206 14.2412Z" fill="#EA1D2D"/>
<path d="M31.8069 15.3997C33.3032 15.3997 34.5162 14.1867 34.5162 12.6905C34.5162 11.1942 33.3032 9.9812 31.8069 9.9812C30.3106 9.9812 29.0977 11.1942 29.0977 12.6905C29.0977 14.1867 30.3106 15.3997 31.8069 15.3997Z" fill="#FCD700"/>
<path d="M38.913 14.505C38.913 14.505 38.9053 14.4877 38.9034 14.4819C38.9015 14.4684 38.8976 14.4511 38.8957 14.4338C38.8899 14.3876 38.8842 14.3453 38.8668 14.301C38.838 14.2337 38.7745 14.1856 38.7014 14.1702C38.6956 14.1413 38.684 14.1182 38.6763 14.1086C38.6321 14.0432 38.5628 13.9989 38.5128 13.9643C38.4993 13.9547 38.4839 13.9451 38.4782 13.9393L38.4647 13.9277C38.432 13.9008 38.3916 13.8873 38.3492 13.8873C38.278 13.8873 38.203 13.9316 38.1587 13.9893C38.151 13.9682 38.1376 13.9201 38.1299 13.8931C38.1203 13.8566 38.1106 13.82 38.101 13.7931V13.7892C38.101 13.7892 38.0972 13.7834 38.0952 13.7777C38.076 13.7276 38.0337 13.6103 37.9028 13.5891C37.8682 13.5833 37.8316 13.5814 37.8008 13.5814C37.7373 13.5795 37.7123 13.5698 37.7046 13.5641C37.7046 13.5583 37.7104 13.5487 37.7162 13.5352C37.7277 13.5064 37.7354 13.4813 37.7431 13.4563C37.77 13.3659 37.7893 13.235 37.7662 13.1196C37.797 13.1234 37.8316 13.1273 37.8643 13.1273C37.9721 13.1273 38.0837 13.1042 38.1818 13.0619H38.1876C38.38 12.9657 38.5686 12.7521 38.559 12.4846V12.4769C38.5359 12.246 38.407 12.0267 38.1664 11.8111C38.228 11.7938 38.2973 11.7727 38.3569 11.7303C38.532 11.613 38.6071 11.4032 38.5647 11.1531L38.5609 11.1358C38.534 11.0088 38.4397 10.9972 38.4108 10.9972C38.3742 10.9972 38.3377 11.0126 38.3088 11.0376C38.303 11.0434 38.2973 11.0492 38.2915 11.0549C38.2761 11.0684 38.2607 11.0838 38.2472 11.0915C38.2107 11.1127 38.1549 11.1242 38.0972 11.1377C38.0529 11.1473 38.0048 11.1569 37.9567 11.1742C37.7393 11.2493 37.6026 11.3667 37.5507 11.5225C37.518 11.6168 37.5334 11.7323 37.5892 11.8362L37.593 11.8439C37.6584 11.9497 37.7527 12.0382 37.8355 12.1171C37.9528 12.2287 38.0625 12.3345 38.0856 12.4615C38.0895 12.4846 38.0972 12.5269 38.0202 12.5847C37.9894 12.602 37.9471 12.6116 37.9009 12.6116C37.8316 12.6116 37.7547 12.5924 37.695 12.5597H37.6912C37.5969 12.5096 37.5007 12.4461 37.4064 12.3846C37.2563 12.2845 37.1004 12.1806 36.9196 12.1209C36.8368 12.0844 36.7483 12.0671 36.6694 12.0497C36.5694 12.0305 36.477 12.0113 36.4096 11.9593L36.4 11.9535C36.3712 11.9343 36.3423 11.9131 36.3134 11.892C36.2269 11.8285 36.1268 11.7573 36.0094 11.7265C35.9632 11.7111 35.919 11.7053 35.8843 11.6995C35.8382 11.6938 35.8132 11.688 35.7939 11.6745C35.7747 11.6611 35.7554 11.6457 35.7362 11.6322H35.7323C35.6515 11.5706 35.5669 11.509 35.4764 11.4648C35.3263 11.3897 35.1705 11.3532 35.0011 11.3147C34.9915 11.3128 34.9684 11.2839 34.953 11.2666C34.928 11.2358 34.8972 11.1973 34.853 11.1665C34.726 11.0665 34.5817 10.9741 34.3873 10.9741C34.37 10.9741 34.3527 10.9741 34.3373 10.976C34.2199 10.9837 34.1218 11.0588 34.0564 11.1146C33.914 11.2397 33.76 11.3513 33.61 11.459C33.3791 11.6264 33.1385 11.7996 32.9288 12.0286C32.7094 12.2556 32.6305 12.5385 32.5594 12.7867C32.5497 12.8233 32.5382 12.8579 32.5286 12.8964C32.5093 12.9657 32.492 13.0349 32.4747 13.1042C32.3881 13.4505 32.3073 13.7757 31.984 13.9874C31.9321 14.022 31.9032 14.0798 31.9109 14.1394C31.9167 14.201 31.959 14.2529 32.0167 14.276C32.0417 14.2856 32.086 14.2953 32.1399 14.2953C32.1399 14.3299 32.1553 14.3645 32.1784 14.3915C32.2015 14.4184 32.2438 14.4492 32.3188 14.4531H32.3246C32.5478 14.4531 32.7056 14.3261 32.8422 14.1933C32.8903 14.2356 32.9519 14.2799 33.0327 14.2972L33.0539 14.301H33.0789C33.1597 14.2876 33.2309 14.278 33.3021 14.2818C33.3675 14.303 33.4349 14.328 33.5003 14.353C33.5503 14.3722 33.6042 14.3915 33.6581 14.4107L33.685 14.4184H33.7081C33.8543 14.4126 33.9351 14.2837 33.9659 14.2356L33.9717 14.226L33.9756 14.2164C33.9813 14.2048 33.9852 14.1933 33.9871 14.1817L33.9967 14.2125C34.016 14.2799 34.0352 14.3511 34.0795 14.4011C34.1199 14.4492 34.1757 14.4742 34.2411 14.4742C34.2642 14.4742 34.2873 14.4704 34.3027 14.4684C34.3046 14.4684 34.3084 14.4684 34.3104 14.4684C34.3123 14.4704 34.3142 14.4742 34.3181 14.4761C34.3431 14.5031 34.3816 14.5454 34.4451 14.5647C34.5047 14.5839 34.5644 14.5993 34.6221 14.6147C34.6933 14.6339 34.7664 14.6532 34.8337 14.6782H34.8414C34.8934 14.6974 34.9511 14.7147 35.0127 14.7128C35.107 14.7128 35.1647 14.6763 35.2147 14.6358C35.2955 14.5704 35.3263 14.5012 35.3456 14.4319C35.3571 14.4319 35.3706 14.4261 35.3898 14.4203C35.488 14.3876 35.5861 14.2048 35.5861 14.2029C35.5938 14.1894 35.6015 14.1779 35.6073 14.1663C35.6323 14.1298 35.6438 14.0913 35.6438 14.0509C35.6438 13.9547 35.5688 13.8816 35.4726 13.8777H35.4572C35.4572 13.8777 35.2628 13.8777 35.209 13.8777H35.2051C35.182 13.8777 35.1609 13.8835 35.1416 13.8893C35.1416 13.8893 35.1397 13.8854 35.1378 13.8854C35.1243 13.8681 35.1089 13.8277 35.0877 13.8181C35.0877 13.8181 35.0935 13.8161 35.0954 13.8142L35.1474 13.82C35.1801 13.8238 35.2147 13.8258 35.2494 13.8258C35.3687 13.8258 35.4764 13.8065 35.5803 13.7873C35.6727 13.77 35.765 13.7796 35.8574 13.7796C35.867 13.7796 35.8766 13.7796 35.8863 13.7796H35.892C35.9325 13.7796 35.9709 13.7834 36.0152 13.7873C36.0594 13.7911 36.1076 13.795 36.1576 13.795C36.1749 13.795 36.1922 13.795 36.2095 13.795C36.2576 13.7931 36.3038 13.7834 36.3462 13.77C36.35 13.7931 36.3558 13.8219 36.3615 13.8566L36.3692 13.8854C36.3943 13.9893 36.4289 14.1471 36.6175 14.2683L36.6463 14.2876C36.7329 14.3453 36.7849 14.378 36.9157 14.3992C36.9484 14.4049 37.0119 14.403 37.0504 14.3934C37.214 14.3588 37.3968 14.4011 37.543 14.5069L37.5565 14.5146C37.568 14.5204 37.5853 14.5358 37.6007 14.5493C37.6334 14.5781 37.6758 14.6128 37.7316 14.6339C37.7681 14.6493 37.8085 14.657 37.8489 14.657H37.8509C37.9317 14.657 37.974 14.632 38.0067 14.6147C38.0125 14.6224 38.0183 14.6301 38.0221 14.6358C38.0452 14.6686 38.0741 14.709 38.1145 14.7455C38.1934 14.8206 38.2915 14.8302 38.3589 14.8302C38.3896 14.8302 38.4204 14.8283 38.4474 14.8263C38.457 14.8263 38.4666 14.8263 38.4782 14.8263C38.4974 14.8263 38.5147 14.8263 38.5263 14.8225C38.5455 14.8206 38.559 14.8167 38.5647 14.8148C38.5994 14.8398 38.6359 14.8437 38.6513 14.8437C38.6648 14.8437 38.6802 14.8417 38.6937 14.8379L38.8495 14.7879C38.8938 14.7744 38.9284 14.7417 38.9477 14.7013C38.9804 14.6262 38.9477 14.555 38.9246 14.5031L38.913 14.505ZM34.0256 13.7353C34.0256 13.7353 34.0179 13.7238 34.014 13.718C34.0083 13.7103 34.0044 13.7026 33.9986 13.6949C33.9756 13.6603 33.9563 13.6314 33.9467 13.6045C33.9929 13.6083 34.0429 13.6141 34.0929 13.616L34.0256 13.7373V13.7353Z" fill="#FCD700"/>
<path d="M31.7205 13.9391L31.6397 13.8987C31.5704 13.8564 31.5223 13.7775 31.4723 13.6947C31.4492 13.6563 31.4242 13.6139 31.3973 13.5774C31.3722 13.5408 31.3357 13.5081 31.3068 13.4831C31.301 13.4792 31.2953 13.4735 31.2895 13.4677C31.2029 13.2272 31.1086 12.9482 31.0875 12.6422C31.0817 12.5672 31.0374 12.4363 30.9893 12.3517C30.8508 12.1227 30.5275 11.7475 30.5083 11.7263C30.4967 11.7128 30.4833 11.7013 30.4717 11.6897L30.464 11.682L29.8887 11.2048L29.881 11.1991C29.7598 11.1144 29.7155 11.0952 29.6212 11.0605C29.4731 11.0067 29.2672 11.0144 29.119 11.0778L29.1094 11.0817C29.0594 11.1086 29.0132 11.1375 28.9689 11.1664C28.8997 11.2106 28.8362 11.251 28.7688 11.2741L28.7573 11.278C28.7015 11.303 28.6361 11.3222 28.5745 11.3415C28.4379 11.3838 28.2839 11.4319 28.1569 11.5474C28.1261 11.5762 28.1011 11.5993 28.078 11.6205C28.0473 11.6493 28.0184 11.6763 28.0068 11.6859C28.003 11.6859 27.9972 11.6859 27.9818 11.6859C27.7663 11.6859 27.6066 11.7417 27.4469 11.8725L27.4411 11.8764C27.343 11.9649 27.2487 12.0476 27.1467 12.0823C27.1044 12.0957 27.0524 12.1034 26.9947 12.1092H26.9889C26.8927 12.1188 26.8716 12.1208 26.7792 12.1419C26.6157 12.1804 26.4579 12.3036 26.3309 12.4017C26.2751 12.4459 26.2385 12.4729 26.2231 12.4825C26.2116 12.4902 26.1981 12.4979 26.1866 12.5056C26.0461 12.5883 25.9268 12.6576 25.7806 12.6576H25.7729C25.694 12.6499 25.6189 12.5941 25.5939 12.5248C25.5708 12.4325 25.5978 12.3401 25.6728 12.2651C25.7209 12.217 25.7786 12.1669 25.8344 12.1208C25.9326 12.0361 26.0269 11.9572 26.0961 11.8648C26.2058 11.7186 26.1943 11.4896 26.0711 11.3549C25.9768 11.251 25.8133 11.201 25.6824 11.1683H25.6709C25.6709 11.1683 25.6555 11.1625 25.6478 11.1606H25.6401C25.6247 11.1567 25.6112 11.1529 25.5958 11.151C25.5708 11.1471 25.5458 11.1413 25.5246 11.1375C25.4804 11.124 25.4342 11.0932 25.3842 11.0586C25.3495 11.0336 25.313 11.0105 25.2726 10.9874L25.1667 10.9297L25.1013 11.0317C25.0513 11.1086 25.0301 11.1952 25.0378 11.2953V11.303C25.0609 11.4839 25.2052 11.6724 25.3803 11.7532H25.3842C25.3842 11.7532 25.3957 11.7609 25.4034 11.7629C25.4438 11.7802 25.4842 11.7879 25.5208 11.7898C25.4265 11.8687 25.3322 11.9534 25.2495 12.0534C25.0879 12.2304 25.0782 12.5191 25.1533 12.7115C25.2476 12.9636 25.5016 13.104 25.7132 13.1329C25.7498 13.1387 25.7863 13.1406 25.8248 13.1406C25.8902 13.1406 25.9537 13.131 26.0134 13.1194C26.0172 13.2175 26.0211 13.2772 26.0269 13.3138C26.0422 13.3926 26.0769 13.4812 26.1019 13.5389C26.1019 13.5408 26.1019 13.5427 26.1038 13.5447C26.0576 13.5735 25.9884 13.6024 25.9614 13.6101C25.9249 13.6139 25.8845 13.6159 25.8537 13.6178C25.8325 13.6178 25.8171 13.6197 25.8075 13.6216C25.7632 13.6274 25.7228 13.6466 25.6901 13.6774C25.6497 13.7178 25.6247 13.7794 25.5901 13.866C25.5766 13.9006 25.5631 13.9372 25.5497 13.9661C25.5381 13.9834 25.5227 13.9988 25.5054 14.0122C25.4823 13.9699 25.4438 13.941 25.4207 13.9218L25.4169 13.918C25.3572 13.8698 25.2668 13.8679 25.1995 13.9141C25.1898 13.9199 25.1802 13.9276 25.1706 13.9333L25.1629 13.9391C25.1206 13.9661 25.0744 13.9988 25.0244 14.0392C24.9916 14.0661 24.9666 14.1084 24.957 14.1546C24.9455 14.1546 24.9339 14.1585 24.9224 14.1642C24.8435 14.197 24.755 14.2874 24.7492 14.3798C24.7473 14.4125 24.7415 14.474 24.7376 14.4914C24.7376 14.4914 24.7338 14.4952 24.73 14.501C24.6761 14.5606 24.6607 14.6665 24.73 14.7338C24.7761 14.78 24.9532 14.8281 24.9878 14.8281H25.0186L25.0282 14.8223C25.0397 14.8185 25.0494 14.8146 25.059 14.8108L25.0994 14.8146C25.1206 14.8165 25.1456 14.8223 25.1764 14.8281C25.2225 14.8377 25.2764 14.8493 25.3322 14.8493C25.3938 14.8493 25.4496 14.8358 25.4977 14.8088C25.5881 14.7665 25.6324 14.6895 25.6651 14.6337C25.6747 14.6184 25.6843 14.601 25.694 14.5876C25.6997 14.5876 25.7036 14.5895 25.7094 14.5914C25.7344 14.5972 25.7632 14.6068 25.7979 14.6087C25.9422 14.6164 26.0673 14.5356 26.1308 14.4856C26.1558 14.4663 26.1789 14.4452 26.2 14.424C26.2231 14.4028 26.2481 14.3798 26.2693 14.3644C26.2905 14.3547 26.3213 14.3509 26.3578 14.3509C26.4194 14.3509 26.4925 14.3644 26.5502 14.3759C26.6772 14.4086 26.8119 14.3932 26.9139 14.3355C26.9697 14.3047 27.0236 14.2758 27.0678 14.2528L27.0755 14.2489C27.1006 14.2354 27.1217 14.2239 27.139 14.2162C27.2429 14.1585 27.3218 14.0353 27.368 13.941C27.3911 13.8949 27.4257 13.8083 27.4354 13.7852C27.445 13.7852 27.4546 13.7852 27.4642 13.7852C27.5316 13.7852 27.6028 13.7736 27.6663 13.764C27.7086 13.7563 27.7509 13.7505 27.7817 13.7486H27.7875C27.799 13.7486 27.8125 13.7467 27.824 13.7467C27.8856 13.7467 27.978 13.7544 28.0453 13.7621C28.1031 13.7679 28.1415 13.7736 28.2166 13.7775C28.2262 13.7775 28.2377 13.7775 28.2493 13.7794C28.2724 13.7813 28.2993 13.7833 28.3301 13.7833C28.4071 13.7833 28.4686 13.7659 28.5206 13.739C28.536 13.7525 28.5591 13.7871 28.5745 13.8006C28.5726 13.8006 28.5706 13.8006 28.5668 13.8006C28.5187 13.8006 28.4725 13.8198 28.4417 13.8525C28.3994 13.8314 28.3301 13.8314 28.2647 13.8371C28.1896 13.8429 28.1204 13.8545 28.0434 13.8718C27.9876 13.8833 27.9453 13.9122 27.9222 13.9641C27.8991 14.018 27.901 14.0777 27.9318 14.1315C27.9703 14.2008 28.0088 14.2643 28.0492 14.3317L28.0665 14.3605C28.0857 14.3913 28.13 14.4433 28.2262 14.4433C28.2377 14.4433 28.2512 14.4433 28.2647 14.4433C28.2647 14.4433 28.2666 14.4433 28.2685 14.4433C28.2705 14.4471 28.2743 14.4529 28.2762 14.4567C28.3051 14.5087 28.3397 14.5722 28.4051 14.6241C28.4686 14.6799 28.5591 14.7107 28.6495 14.7107C28.6899 14.7107 28.7303 14.7049 28.7669 14.6934C28.9401 14.6395 29.1094 14.5837 29.2749 14.4991H29.296H29.3095C29.3211 14.4991 29.3307 14.4991 29.3422 14.4971C29.4077 14.4914 29.5077 14.4856 29.5847 14.4048L29.5924 14.3971L29.5981 14.3894C29.6289 14.3451 29.6559 14.3009 29.6809 14.2566C29.6809 14.2624 29.6828 14.2662 29.6847 14.272V14.2758C29.7251 14.3894 29.8425 14.4413 29.9407 14.4413H29.9464C30.058 14.4356 30.1562 14.4009 30.2427 14.3701H30.2485C30.2601 14.3644 30.2735 14.3586 30.2851 14.3547L30.2928 14.3509C30.3582 14.322 30.4525 14.3182 30.5679 14.3374H30.5833H30.5987C30.7199 14.3297 30.8142 14.2701 30.8912 14.2085C31.0374 14.3624 31.2222 14.4413 31.4434 14.4413C31.4511 14.4413 31.4588 14.4413 31.4685 14.4413H31.505L31.5146 14.4356C31.5858 14.4182 31.6359 14.3644 31.6416 14.2932C31.6416 14.2797 31.6416 14.2662 31.6416 14.2528C31.6551 14.2528 31.6686 14.2489 31.6801 14.247C31.7475 14.2316 31.7994 14.1796 31.809 14.1123C31.8206 14.0411 31.7879 13.9757 31.7244 13.9449L31.7205 13.9391ZM29.8214 13.5735C29.8214 13.5735 29.8079 13.5851 29.8021 13.5908C29.7656 13.6235 29.7194 13.6659 29.6847 13.7198C29.6597 13.6755 29.6424 13.6447 29.627 13.6159C29.6867 13.6082 29.7444 13.5889 29.7925 13.5677C29.8021 13.5677 29.8137 13.5677 29.8233 13.5677C29.8233 13.5697 29.8233 13.5716 29.8233 13.5754L29.8214 13.5735Z" fill="#FCD700"/>
<path d="M24.978 14.2852C24.978 14.2852 24.9722 14.2852 24.9703 14.2852C24.928 14.3025 24.8799 14.3564 24.878 14.3891C24.8683 14.5295 24.8626 14.5449 24.8241 14.5892C24.8125 14.6007 24.8068 14.6296 24.8183 14.6411C24.8298 14.6527 24.9684 14.6969 24.9838 14.6969H24.9876C25.0011 14.6931 25.0107 14.6604 25.0377 14.5642C25.0531 14.5122 25.0704 14.4526 25.0896 14.3987C25.0896 14.3949 25.0896 14.391 25.0781 14.3718C25.0627 14.3487 25.0088 14.2852 24.978 14.2852ZM25.1319 14.2832C25.1435 14.2929 25.1589 14.3044 25.1839 14.3044C25.1974 14.3044 25.2128 14.3006 25.2282 14.2929C25.307 14.2525 25.3879 14.1081 25.3917 14.0985C25.3994 14.0754 25.3725 14.0543 25.3398 14.0254L25.3359 14.0216C25.3205 14.01 25.2936 14.0119 25.2763 14.0235C25.2628 14.0312 25.2512 14.0408 25.2378 14.0485C25.1974 14.0754 25.155 14.1024 25.1108 14.1409C25.0954 14.1543 25.0858 14.1793 25.0838 14.2005C25.0838 14.2159 25.0838 14.2294 25.0915 14.2371C25.0954 14.2409 25.1281 14.2775 25.1339 14.2832H25.1319ZM31.6626 14.0581C31.6242 14.0389 31.5761 14.0158 31.5761 14.0158C31.4741 13.9561 31.4163 13.858 31.3586 13.7637C31.3355 13.7272 31.3144 13.6887 31.2893 13.6521C31.272 13.629 31.2451 13.604 31.2201 13.5809C31.1989 13.5617 31.1777 13.5444 31.1739 13.5328C31.0815 13.2788 30.9796 12.9825 30.9565 12.6515C30.9526 12.6015 30.918 12.4899 30.8756 12.4187C30.7448 12.2051 30.4292 11.8376 30.4119 11.8184C30.4004 11.8068 30.3888 11.7953 30.3792 11.7857L30.3715 11.778L29.8039 11.3065C29.6903 11.2276 29.6576 11.2142 29.5749 11.1834C29.5229 11.1641 29.4614 11.1545 29.3959 11.1545C29.3151 11.1545 29.2362 11.1699 29.1689 11.1988C29.1246 11.2219 29.0804 11.2507 29.038 11.2777C28.9649 11.3238 28.8899 11.372 28.8091 11.3989C28.7456 11.4278 28.6782 11.4489 28.6109 11.4682C28.482 11.5086 28.3492 11.549 28.2434 11.6452C28.2126 11.6741 28.1876 11.6971 28.1664 11.7164C28.0683 11.8087 28.0586 11.8184 27.9797 11.8184C27.795 11.8184 27.6642 11.8645 27.5276 11.9742C27.4198 12.0724 27.3121 12.1647 27.1889 12.2071C27.1331 12.2263 27.0715 12.234 27.0061 12.2398C26.9118 12.2475 26.8984 12.2494 26.8079 12.2705C26.6732 12.3013 26.5308 12.4129 26.4096 12.5053C26.3692 12.5361 26.3172 12.5765 26.2922 12.5938C26.2788 12.6015 26.2634 12.6111 26.2518 12.6188C26.1017 12.7073 25.9613 12.7901 25.7785 12.7901C25.7746 12.7901 25.7689 12.7901 25.765 12.7901C25.6303 12.7805 25.5072 12.6862 25.4648 12.563C25.4263 12.4245 25.4668 12.2802 25.5764 12.1724C25.6284 12.1205 25.688 12.0704 25.7458 12.0204C25.8381 11.9415 25.9266 11.8665 25.9863 11.7857C26.0575 11.6914 26.0498 11.5317 25.969 11.4431C25.8901 11.3566 25.7131 11.3123 25.6457 11.2969H25.6342C25.6342 11.2969 25.6149 11.2911 25.6091 11.2892C25.5668 11.2815 25.5264 11.2757 25.486 11.2642C25.3802 11.2353 25.2994 11.1545 25.2051 11.1045C25.1685 11.1603 25.157 11.2199 25.1627 11.2873C25.1801 11.4278 25.2974 11.574 25.4283 11.6336C25.434 11.6356 25.4398 11.6375 25.4456 11.6394C25.486 11.6567 25.5303 11.6587 25.5707 11.6587C25.5803 11.6587 25.588 11.6587 25.5976 11.6587C25.6072 11.6587 25.6149 11.6587 25.6245 11.6587C25.6496 11.6587 25.6803 11.6587 25.7073 11.6664C25.7323 11.6721 25.7592 11.6971 25.7631 11.7299C25.765 11.7491 25.7573 11.7626 25.7323 11.7818C25.7111 11.801 25.688 11.8184 25.6669 11.8376C25.5553 11.93 25.4398 12.0262 25.3455 12.1416C25.2205 12.2782 25.2147 12.513 25.2724 12.6669C25.3475 12.869 25.5553 12.9806 25.7265 13.0037C25.7573 13.0094 25.7881 13.0114 25.8208 13.0114C25.9228 13.0114 26.019 12.9863 26.1114 12.9633C26.1152 12.9633 26.1171 12.9633 26.121 12.9633C26.1248 12.9633 26.1325 12.9633 26.1345 12.9844C26.1364 13.0268 26.1402 13.0729 26.1421 13.1191C26.146 13.1942 26.1479 13.2634 26.1537 13.2942C26.1672 13.3596 26.1999 13.4405 26.221 13.4943C26.2307 13.5174 26.2384 13.5347 26.2403 13.5444C26.248 13.5751 26.2403 13.6079 26.221 13.6252C26.1498 13.6906 26.0055 13.7426 25.9786 13.7445C25.9363 13.7502 25.8901 13.7522 25.8574 13.7541C25.84 13.7541 25.8266 13.7541 25.8208 13.756C25.8054 13.756 25.7919 13.7637 25.7804 13.7753C25.7592 13.7945 25.7381 13.8522 25.7131 13.9177C25.6977 13.9581 25.6823 13.9985 25.6649 14.0331C25.6207 14.1081 25.5437 14.1524 25.4706 14.1947C25.4514 14.2063 25.434 14.2159 25.4167 14.2274H25.4148C25.384 14.2775 25.3552 14.3237 25.3147 14.3564C25.284 14.3852 25.2455 14.391 25.2089 14.3949H25.207V14.3968C25.1493 14.4622 25.1319 14.5488 25.1127 14.6335C25.1108 14.6469 25.1069 14.6585 25.105 14.6719V14.6835H25.1108C25.1416 14.6854 25.1704 14.6931 25.2031 14.6989C25.2455 14.7085 25.2897 14.7181 25.3321 14.7181C25.3725 14.7181 25.4071 14.7104 25.4379 14.6931C25.4918 14.6681 25.5226 14.6181 25.5495 14.57C25.5687 14.5372 25.588 14.5045 25.613 14.4795C25.6284 14.4622 25.6476 14.4545 25.6707 14.4545C25.6919 14.4545 25.715 14.4603 25.7381 14.466C25.7592 14.4718 25.7804 14.4776 25.7996 14.4776C25.8997 14.4834 25.9959 14.4199 26.044 14.3833C26.0652 14.3679 26.0844 14.3487 26.1037 14.3294C26.1345 14.3006 26.1652 14.2717 26.1999 14.2505C26.2403 14.2313 26.2903 14.2217 26.3519 14.2217C26.4269 14.2217 26.5077 14.2371 26.5732 14.2486C26.6078 14.2582 26.6424 14.2621 26.679 14.2621C26.7406 14.2621 26.7983 14.2486 26.8445 14.2217C26.9003 14.189 26.958 14.1601 27.0023 14.137C27.0292 14.1235 27.0523 14.1101 27.0715 14.1005C27.1523 14.0562 27.2216 13.933 27.2466 13.883C27.2697 13.8349 27.3121 13.7329 27.3121 13.7329V13.7291L27.2197 13.6579L27.2158 13.6637C27.2158 13.6637 27.1543 13.7656 27.1139 13.8137C26.9484 14.0408 26.6771 14.0697 26.4596 14.0697C26.4442 14.0697 26.4289 14.0697 26.4154 14.0697C26.146 14.0697 25.9305 14.1601 25.7708 14.3391C25.7631 14.3467 25.7496 14.3487 25.7458 14.341C25.7419 14.3371 25.7419 14.3294 25.7438 14.3217C25.7477 14.3025 25.7496 14.2967 25.7612 14.2775C25.9305 14.0389 26.2172 14.0023 26.4481 13.9985C26.6193 13.9869 26.7444 13.9581 26.8522 13.9023C26.9907 13.8311 27.0946 13.6752 27.135 13.5521C27.162 13.4712 27.1754 13.3847 27.187 13.3C27.1966 13.2326 27.2081 13.1653 27.2235 13.1018C27.2274 13.0922 27.2351 13.0883 27.2428 13.0883C27.2447 13.0883 27.2466 13.0883 27.2505 13.0883C27.2601 13.0883 27.2755 13.096 27.2755 13.1095C27.2524 13.2403 27.2197 13.4212 27.2813 13.5713C27.3082 13.6309 27.3679 13.6598 27.4641 13.6598C27.5218 13.6598 27.5834 13.6502 27.6449 13.6406C27.6911 13.6329 27.7354 13.6271 27.7739 13.6252C27.7892 13.6252 27.8066 13.6233 27.822 13.6233C27.897 13.6233 27.9701 13.6386 28.0413 13.6521C28.1029 13.6637 28.1664 13.6771 28.2318 13.681C28.2434 13.681 28.2549 13.681 28.2684 13.6829C28.2915 13.6829 28.3146 13.6868 28.3376 13.6868C28.3934 13.6868 28.4319 13.6752 28.4608 13.6521C28.48 13.6367 28.4743 13.6117 28.4646 13.5809V13.5751C28.4646 13.5751 28.4589 13.5636 28.4569 13.5578C28.4435 13.5174 28.4242 13.4558 28.4569 13.427C28.4608 13.4231 28.4685 13.4212 28.4743 13.4212C28.48 13.4212 28.4858 13.4212 28.4897 13.4308C28.4935 13.4424 28.4974 13.4539 28.4993 13.4655C28.5127 13.5155 28.5281 13.5655 28.5589 13.6098C28.6243 13.6944 28.7263 13.7733 28.8553 13.8407C28.9361 13.8965 29.0361 13.9927 29.0438 14.1235C29.0438 14.1832 28.9861 14.2255 28.9418 14.2505C28.8745 14.2852 28.7667 14.3256 28.7013 14.3217C28.6571 14.3198 28.6224 14.2929 28.6186 14.289C28.5532 14.2274 28.5589 14.2063 28.5166 14.1351C28.4935 14.0966 28.4704 14.0562 28.4396 14.0216C28.3992 13.9754 28.3453 13.9581 28.2761 13.9638C28.2087 13.9696 28.1452 13.9812 28.0721 13.9985C28.0567 14.0023 28.0452 14.01 28.0394 14.0235C28.0336 14.0389 28.0336 14.0562 28.0432 14.0716C28.0817 14.1409 28.1183 14.2024 28.1587 14.2698L28.176 14.2986C28.1856 14.314 28.2049 14.316 28.2222 14.316C28.2318 14.316 28.2414 14.316 28.2511 14.316C28.2626 14.316 28.2741 14.316 28.2838 14.316C28.3184 14.316 28.3396 14.3237 28.355 14.341C28.3665 14.3583 28.3781 14.3795 28.3877 14.3968C28.4127 14.443 28.4396 14.4911 28.4858 14.5257C28.5262 14.5623 28.5859 14.5815 28.6474 14.5815C28.6744 14.5815 28.7013 14.5777 28.7263 14.57C28.9034 14.5142 29.0765 14.4564 29.242 14.3698H29.2959C29.3074 14.3698 29.3209 14.3679 29.3324 14.366C29.3902 14.3621 29.4479 14.3583 29.4902 14.314C29.5422 14.2371 29.5884 14.1601 29.6268 14.0793C29.6634 14.0062 29.6634 13.935 29.6268 13.8792C29.5229 13.7118 29.5037 13.6675 29.4614 13.554V13.5501H29.4575C29.446 13.5463 29.4325 13.5424 29.421 13.5367C29.3959 13.527 29.369 13.5155 29.3382 13.5155H29.3344C29.2978 13.5155 29.2747 13.527 29.2632 13.5482V13.5521L29.4517 13.9273C29.4633 13.9561 29.4787 13.9869 29.471 14.0293C29.4633 14.0735 29.3709 14.2198 29.3421 14.239C29.3344 14.2428 29.3305 14.2467 29.3248 14.2467C29.3228 14.2467 29.3132 14.2467 29.319 14.2236C29.3363 14.162 29.3594 14.0196 29.3536 13.9735C29.3459 13.9196 29.1881 13.656 29.1804 13.6444V13.6406C29.1535 13.6002 29.1266 13.5598 29.1304 13.5097C29.1304 13.4866 29.1516 13.4712 29.167 13.4655C29.1939 13.4558 29.2208 13.452 29.2497 13.4443C29.3171 13.4289 29.3883 13.4135 29.4113 13.377C29.4883 13.2615 29.5326 13.1403 29.5634 12.9729C29.5634 12.9652 29.5691 12.9517 29.5807 12.9517C29.5864 12.9517 29.5922 12.9536 29.5961 12.969C29.623 13.1268 29.5864 13.2942 29.4922 13.4251C29.4864 13.4328 29.4825 13.4482 29.4864 13.4616C29.4883 13.4751 29.5037 13.4866 29.5037 13.4866C29.5403 13.5116 29.673 13.4982 29.7712 13.4462C29.8443 13.4462 29.9155 13.4347 29.9828 13.4212C30.004 13.4174 30.0252 13.4135 30.0463 13.4097C30.0521 13.4135 30.0579 13.4193 30.0598 13.4251C30.004 13.4886 29.9694 13.5617 29.9501 13.6502C29.9347 13.6656 29.9174 13.6829 29.9001 13.6983C29.8385 13.7541 29.7712 13.8176 29.7673 13.9003C29.7673 13.9003 29.7654 13.9292 29.7962 13.9311C29.8058 13.9311 29.8173 13.9273 29.8289 13.9215C29.8404 13.9177 29.852 13.9119 29.8616 13.9138C29.8712 13.9138 29.8789 13.9234 29.8789 13.933L29.8077 14.037C29.7808 14.0793 29.7923 14.1255 29.8039 14.1716C29.8116 14.1967 29.8077 14.2159 29.8154 14.2371C29.8327 14.289 29.8962 14.314 29.9463 14.314C30.0386 14.3102 30.1233 14.2794 30.2041 14.2505C30.2195 14.2448 30.233 14.2409 30.2484 14.2351C30.3369 14.1967 30.4562 14.189 30.5966 14.2121C30.7102 14.2044 30.7948 14.1293 30.8776 14.0562C30.9122 14.0562 30.9488 14.0774 30.9872 14.1178C31.1104 14.2505 31.2605 14.314 31.4471 14.314C31.4548 14.314 31.4606 14.314 31.4683 14.314H31.4875C31.5068 14.3083 31.5126 14.2986 31.5126 14.2871C31.5126 14.2717 31.5029 14.2582 31.4818 14.2486L31.3779 14.1928C31.2932 14.1389 31.2028 14.0754 31.1777 13.9908C31.1508 13.9003 31.1008 13.8099 31.0623 13.7483C31.0546 13.7368 31.0469 13.7252 31.0373 13.7118C31.0219 13.6906 31.0065 13.6675 30.9969 13.6463C31.1104 13.6868 31.1758 13.7714 31.2528 13.9119C31.3105 14.0158 31.4587 14.1293 31.6011 14.1293C31.6203 14.1293 31.6376 14.1274 31.6549 14.1235C31.6703 14.1197 31.68 14.1101 31.6819 14.0985C31.6819 14.087 31.6819 14.0754 31.6684 14.0697L31.6626 14.0581ZM29.6249 12.3687C29.6211 12.3802 29.6153 12.3879 29.6076 12.3879C29.6038 12.3879 29.5961 12.3879 29.5941 12.3725C29.5653 12.2205 29.546 12.1474 29.5114 12.0762C29.4999 12.0531 29.4864 12.0358 29.4748 12.0185C29.4498 11.9838 29.4267 11.9531 29.4517 11.9127C29.4594 11.9011 29.4768 11.8934 29.496 11.8934C29.5056 11.8934 29.5152 11.8953 29.5229 11.8992C29.5518 11.9127 29.5807 11.9492 29.6095 12.0069C29.6827 12.157 29.6249 12.3668 29.6249 12.3687ZM30.5774 13.8792C30.5774 13.8792 30.5735 13.9215 30.5524 13.9407C30.5331 13.9581 30.46 13.9696 30.4215 13.9677C30.3831 13.9677 30.3715 13.96 30.3619 13.9484C30.3523 13.935 30.3677 13.91 30.3677 13.91C30.3715 13.9003 30.4177 13.808 30.5062 13.7849C30.5062 13.7849 30.5351 13.7753 30.562 13.7887C30.5889 13.8022 30.5774 13.8715 30.5755 13.8811L30.5774 13.8792ZM30.8372 13.2827C30.8314 13.3173 30.8237 13.3346 30.8179 13.3423C30.8141 13.35 30.8045 13.3693 30.7794 13.3693C30.7506 13.3693 30.7525 13.3365 30.7525 13.3308C30.7525 13.3308 30.7487 13.2384 30.7313 13.198C30.7121 13.1557 30.6178 13.0345 30.5639 13.0402C30.5505 13.0402 30.5158 13.0633 30.4889 13.096C30.4562 13.1364 30.4581 13.1422 30.4466 13.148C30.4369 13.1538 30.4235 13.1518 30.4196 13.1268C30.4158 13.1018 30.4119 13.0826 30.4215 13.0364C30.4331 12.9902 30.4446 12.9806 30.4581 12.9459C30.4581 12.9459 30.487 12.8805 30.4966 12.8651C30.5254 12.8209 30.5639 12.8247 30.5639 12.8247C30.5735 12.8247 30.6082 12.8209 30.6428 12.867C30.6852 12.919 30.6755 12.9152 30.6871 12.9325C30.6986 12.9517 30.7102 12.971 30.7448 13.0075C30.7794 13.0441 30.8179 13.1172 30.8275 13.1634C30.8372 13.2096 30.8372 13.2461 30.8314 13.2827H30.8372ZM28.5936 14.0427C28.609 14.0639 28.6224 14.0947 28.6359 14.1255C28.6571 14.1736 28.6763 14.214 28.6975 14.2198C28.7071 14.2217 28.7167 14.2236 28.7283 14.2236C28.7783 14.2236 28.8456 14.1967 28.8957 14.1582C28.9226 14.1351 28.9149 14.1197 28.9014 14.0985C28.8976 14.0908 28.8937 14.0851 28.888 14.0754C28.8745 14.0504 28.8668 14.0235 28.861 13.9985C28.8476 13.9504 28.836 13.91 28.7841 13.9177C28.7109 13.9273 28.6397 13.933 28.5608 13.933C28.5608 13.933 28.5358 13.933 28.5281 13.9504C28.5185 13.9696 28.5397 13.9888 28.5608 14.0081C28.5724 14.0196 28.5859 14.0312 28.5936 14.0427Z" fill="#EA1D2D"/>
<path d="M38.7935 14.5603C38.7858 14.543 38.7781 14.5256 38.7743 14.5141C38.7704 14.4929 38.7666 14.4698 38.7647 14.4467C38.7608 14.4102 38.755 14.3775 38.7454 14.3505C38.7319 14.3198 38.6954 14.2947 38.6607 14.2947C38.6492 14.2947 38.6357 14.2967 38.6261 14.3024C38.5722 14.3294 38.5414 14.3582 38.5491 14.4179C38.578 14.5045 38.5934 14.568 38.6126 14.6546C38.6146 14.668 38.6242 14.7104 38.6454 14.7104H38.6492L38.8012 14.6603C38.8012 14.6603 38.8147 14.6526 38.8166 14.6469C38.8262 14.6276 38.8089 14.593 38.7935 14.5584V14.5603ZM38.5665 14.1831C38.5357 14.1389 38.4818 14.1023 38.4395 14.0754C38.4202 14.0619 38.4029 14.0504 38.3894 14.0407L38.3817 14.035C38.3721 14.0273 38.3606 14.0215 38.3471 14.0215C38.299 14.0215 38.2451 14.0792 38.2451 14.1004C38.2451 14.1293 38.2855 14.1812 38.3394 14.2466L38.351 14.2601C38.3779 14.2928 38.4087 14.3101 38.4395 14.3121C38.4703 14.3121 38.4953 14.3024 38.5222 14.2774C38.5414 14.2582 38.5857 14.2139 38.5665 14.1851V14.1831ZM34.9817 13.9599C34.9528 13.9638 34.9259 13.9657 34.899 13.9657C34.8836 13.9657 34.8701 13.9657 34.8566 13.9657C34.8451 13.9657 34.8355 13.9657 34.8239 13.9657C34.8066 13.9657 34.7931 13.9657 34.7797 13.9695H34.7758V13.9734C34.7739 13.9772 34.72 14.0715 34.7277 14.1312C34.7354 14.1947 34.8008 14.2081 34.8509 14.2178C34.8682 14.2216 34.8893 14.2255 34.9105 14.2255C34.9451 14.2255 34.9702 14.2139 34.9817 14.1908C35.0106 14.1139 35.0279 14.0523 35.0375 13.9946C35.0375 13.9849 35.0375 13.9792 35.0337 13.9753C35.026 13.9657 35.0086 13.9638 34.999 13.9638C34.9952 13.9638 34.9913 13.9638 34.9875 13.9638L34.9817 13.9599ZM38.4472 14.4102V14.4063H38.4414C38.3529 14.4121 38.299 14.3409 38.2451 14.2716C38.2278 14.2486 38.2105 14.2274 38.1932 14.2081C38.1662 14.1754 38.1354 14.1504 38.1085 14.1254C38.0777 14.0985 38.0508 14.0754 38.0412 14.0523C38.0277 14.0273 38.0142 13.9772 38.0027 13.9272C37.9931 13.8926 37.9834 13.8599 37.9757 13.8368C37.9757 13.8329 37.9719 13.8272 37.97 13.8233C37.9546 13.781 37.9353 13.7271 37.8795 13.7175C37.8526 13.7136 37.8218 13.7117 37.7929 13.7098C37.7121 13.7059 37.6332 13.6925 37.5909 13.6347C37.5524 13.5828 37.5678 13.5328 37.5909 13.4808C37.6005 13.4577 37.6063 13.4385 37.6121 13.4173C37.6409 13.3211 37.6506 13.2018 37.6294 13.1171C37.6255 13.1037 37.6217 13.0902 37.6178 13.0767C37.6063 13.0421 37.5928 12.9882 37.6005 12.9728C37.6101 12.9574 37.6178 12.9536 37.6352 12.9536C37.6486 12.9536 37.6659 12.9574 37.6813 12.9632C37.6929 12.967 37.7006 12.967 37.7102 12.9709C37.7506 12.9805 37.8083 12.9921 37.8641 12.9921C37.9546 12.9921 38.0489 12.9728 38.1297 12.9382C38.2836 12.8631 38.4356 12.6957 38.4279 12.4879C38.4087 12.2763 38.2778 12.0723 38.0296 11.8645C38.0238 11.8587 38.0181 11.8549 38.0104 11.8491C37.9777 11.8222 37.9392 11.7894 37.9373 11.7587C37.9373 11.7279 38.0142 11.7106 38.0623 11.699C38.0739 11.6971 38.0835 11.6932 38.0931 11.6913L38.1066 11.6875C38.1682 11.6721 38.2317 11.6548 38.2855 11.6182C38.4626 11.4989 38.4568 11.2892 38.4356 11.1737C38.4356 11.1718 38.4356 11.166 38.4337 11.1622C38.4298 11.1468 38.426 11.1275 38.4125 11.1275C38.4087 11.1275 38.4029 11.1294 38.3991 11.1333C38.3933 11.1391 38.3875 11.1429 38.3837 11.1487C38.3644 11.1679 38.3413 11.1891 38.3144 11.2045C38.2586 11.2372 38.1912 11.2526 38.1258 11.2661C38.0835 11.2757 38.0412 11.2834 38.0008 11.2969C37.8237 11.3584 37.716 11.4469 37.6756 11.5624C37.6544 11.622 37.6659 11.6971 37.7064 11.7702C37.7641 11.8606 37.8468 11.9415 37.9276 12.0184C38.0546 12.1396 38.1855 12.2666 38.2163 12.436C38.2336 12.536 38.1932 12.6188 38.0931 12.6919C38.0412 12.7227 37.9738 12.74 37.9007 12.74C37.8103 12.74 37.7121 12.715 37.6313 12.6726C37.5274 12.6207 37.4293 12.5553 37.3331 12.4898C37.1887 12.3936 37.0387 12.2936 36.8713 12.2397C36.8001 12.207 36.7192 12.1916 36.6423 12.1762C36.5326 12.1531 36.4191 12.13 36.3286 12.0588C36.2978 12.0377 36.2671 12.0165 36.2363 11.9934C36.1535 11.9338 36.0689 11.8722 35.9707 11.8472C35.9342 11.8356 35.8995 11.8299 35.8649 11.8241C35.813 11.8164 35.7629 11.8087 35.7167 11.776C35.6956 11.7606 35.6744 11.7452 35.6532 11.7298C35.5763 11.674 35.4974 11.6143 35.4166 11.5759C35.28 11.5066 35.1337 11.472 34.9702 11.4373C34.9182 11.4258 34.8855 11.3854 34.8509 11.343C34.8278 11.3142 34.8047 11.2853 34.7739 11.2661C34.6488 11.166 34.5353 11.1006 34.3871 11.1006C34.3737 11.1006 34.3602 11.1006 34.3467 11.1006C34.2698 11.1064 34.1947 11.1641 34.1447 11.2083C33.9984 11.3373 33.8407 11.4508 33.6887 11.5605C33.4616 11.724 33.2268 11.8953 33.0267 12.1146C32.8285 12.3186 32.7573 12.5726 32.6881 12.8189C32.6785 12.8554 32.6669 12.892 32.6573 12.9286C32.638 12.9959 32.6207 13.0652 32.6053 13.1325C32.5149 13.4962 32.4206 13.8579 32.0589 14.0927C32.0358 14.1081 32.0435 14.1389 32.0666 14.1466C32.0762 14.1504 32.2494 14.2024 32.3802 14.0484C32.4745 13.9368 32.5226 13.831 32.6323 13.7136C32.6361 13.7098 32.6496 13.6982 32.6592 13.7002C32.6669 13.7021 32.6708 13.7059 32.6669 13.7194C32.6534 13.7675 32.6246 13.8079 32.5957 13.8483C32.5668 13.8887 32.538 13.9311 32.5226 13.9811C32.488 14.085 32.3898 14.1697 32.3052 14.2428C32.3052 14.2428 32.2917 14.2524 32.284 14.262C32.2763 14.2716 32.2763 14.2755 32.2763 14.2755C32.2744 14.2986 32.2917 14.3121 32.3282 14.314C32.5322 14.314 32.6765 14.1697 32.8151 14.0292C32.8208 14.0234 32.8285 14.0196 32.8382 14.0196C32.8459 14.0196 32.8516 14.0196 32.8612 14.0234C32.8709 14.0273 32.892 14.0484 32.9094 14.0638C32.9555 14.1042 33.0017 14.1466 33.0633 14.16C33.1364 14.1504 33.2038 14.1408 33.273 14.1408C33.2923 14.1408 33.3115 14.1408 33.3288 14.1408C33.4039 14.1639 33.477 14.1908 33.5482 14.2178C33.5982 14.237 33.6502 14.2563 33.704 14.2736C33.7714 14.2716 33.8195 14.2081 33.8561 14.1523C33.8734 14.1139 33.8657 14.0735 33.8561 14.0369C33.8522 14.0138 33.8464 13.9926 33.8484 13.9695C33.8618 13.9638 33.8772 13.9638 33.8965 13.9676C33.9119 13.9695 33.9369 13.9676 33.9446 13.9676C33.9619 13.9657 33.9811 13.9445 33.9754 13.9176C33.9619 13.8502 33.9272 13.8079 33.8945 13.756C33.8657 13.7117 33.8368 13.6694 33.8233 13.6232C33.8003 13.5616 33.7541 13.5097 33.7079 13.4596C33.654 13.4019 33.604 13.348 33.5905 13.2768C33.5905 13.2768 33.5867 13.2614 33.5905 13.2576C33.5944 13.2538 33.6098 13.2576 33.6098 13.2576C33.6348 13.2749 33.6579 13.2961 33.6829 13.3153C33.7598 13.3788 33.8387 13.4423 33.9369 13.4577C34.0273 13.4673 34.1254 13.477 34.2217 13.4693C34.2467 13.4654 34.2601 13.4423 34.2544 13.4212C34.2159 13.3403 34.1755 13.2518 34.1524 13.1575C34.1312 13.0863 34.087 12.8959 34.1331 12.7535C34.137 12.74 34.1466 12.7342 34.1562 12.7342C34.1562 12.7342 34.1582 12.7342 34.1601 12.7342C34.1755 12.7381 34.187 12.7573 34.1889 12.7708V12.79C34.2043 12.9844 34.2159 13.1672 34.3352 13.3249C34.366 13.375 34.4121 13.4019 34.4564 13.4289C34.4872 13.4462 34.5218 13.4616 34.543 13.4904C34.568 13.5212 34.5719 13.577 34.5545 13.6097L34.4083 13.8252C34.3737 13.8733 34.3409 13.9272 34.3275 13.9811C34.3159 14.035 34.3217 14.0888 34.3275 14.1389V14.1504C34.3275 14.1504 34.3217 14.1447 34.3179 14.1389C34.2582 14.033 34.2467 13.9426 34.2775 13.8733C34.2967 13.8291 34.416 13.6598 34.4506 13.6059C34.4622 13.5886 34.4699 13.5712 34.4622 13.5578C34.4506 13.5424 34.3621 13.5039 34.339 13.5039H34.3352C34.314 13.5097 34.3005 13.5289 34.289 13.5462C34.2871 13.5501 34.2832 13.5539 34.2813 13.5578L34.1023 13.8849L34.0985 13.8964C34.0889 13.9291 34.0793 13.958 34.087 13.9946C34.0966 14.0427 34.112 14.0965 34.1235 14.135C34.1274 14.1466 34.1293 14.1562 34.1331 14.1677C34.1485 14.2235 34.1639 14.2774 34.1889 14.3063C34.2043 14.3255 34.2236 14.3332 34.2505 14.3332C34.264 14.3332 34.2775 14.3313 34.2909 14.3294C34.314 14.3255 34.3371 14.3236 34.3563 14.3294C34.3833 14.3371 34.4025 14.3563 34.4218 14.3775C34.441 14.3986 34.4622 14.4217 34.491 14.4294C34.5468 14.4487 34.6046 14.4641 34.6604 14.4775C34.7354 14.4968 34.8124 14.5179 34.8874 14.5468C34.9298 14.5603 34.974 14.5737 35.0163 14.5718C35.0644 14.5718 35.0933 14.5584 35.1356 14.5237C35.1934 14.4756 35.2126 14.4294 35.228 14.3621C35.2395 14.3005 35.2607 14.2967 35.305 14.2928C35.3261 14.2928 35.33 14.2928 35.3511 14.2851C35.3742 14.2774 35.4377 14.1985 35.4724 14.1331C35.482 14.1158 35.4916 14.0985 35.5012 14.085C35.5109 14.0696 35.5147 14.0561 35.5147 14.0446C35.5147 14.0119 35.4878 14.0023 35.4704 14.0023H35.4589C35.4589 14.0023 35.2665 14.0023 35.2145 14.0023C35.1356 14.0061 35.101 14.0831 35.0741 14.1485C35.0625 14.1735 35.0529 14.1985 35.0394 14.2197C35.0183 14.2582 34.9779 14.2813 34.9278 14.2793C34.9124 14.2793 34.8816 14.2697 34.8643 14.2659C34.7604 14.2409 34.6546 14.2139 34.6103 14.1119C34.6065 14.0946 34.5988 14.0581 34.6257 14.0273C34.6815 13.9638 34.7546 13.881 34.8297 13.8233C34.9336 13.8021 35.0375 13.7252 35.0952 13.627C35.1068 13.6097 35.1125 13.5905 35.1202 13.5712C35.1299 13.5424 35.1395 13.5154 35.1645 13.4981C35.1818 13.4904 35.1953 13.4924 35.1991 13.5077C35.2088 13.5616 35.1876 13.6136 35.1684 13.6636C35.1645 13.6751 35.1587 13.6867 35.1549 13.6982V13.7059H35.1607C35.1895 13.7079 35.2184 13.7098 35.2492 13.7098C35.355 13.7098 35.457 13.6905 35.557 13.6732C35.6552 13.6559 35.7552 13.6367 35.8591 13.6367C35.8707 13.6367 35.8822 13.6367 35.8938 13.6367C35.9399 13.6367 35.9842 13.6405 36.0285 13.6444C36.0708 13.6482 36.115 13.6521 36.1593 13.6521C36.1747 13.6521 36.1901 13.6521 36.2036 13.6521C36.3363 13.6463 36.4345 13.5847 36.4633 13.4904C36.4903 13.4096 36.4883 13.2672 36.4537 13.071C36.4537 13.0613 36.4518 13.0556 36.4518 13.0536C36.4518 13.0536 36.4518 13.0517 36.4518 13.0498C36.4518 13.0421 36.4518 13.0344 36.4614 13.0305C36.4729 13.0248 36.4864 13.0305 36.4941 13.0459C36.5441 13.1883 36.573 13.35 36.5903 13.4635C36.6076 13.5732 36.6538 13.6828 36.7308 13.8002C36.827 13.9426 36.9829 14.0234 37.1618 14.0234C37.2041 14.0234 37.2445 14.0157 37.2869 14.01C37.3157 14.0061 37.3273 14.008 37.3465 14.008C37.5736 14.008 37.7718 14.1062 37.918 14.2928C37.918 14.2928 37.9199 14.2967 37.9199 14.3024C37.9199 14.3101 37.9084 14.3178 37.8988 14.314L37.8795 14.2986C37.7506 14.1985 37.6198 14.0965 37.4524 14.0754C37.4235 14.0696 37.3927 14.0677 37.3581 14.0677C37.31 14.0677 37.2638 14.0735 37.2176 14.0792C37.1714 14.085 37.1291 14.0888 37.0848 14.0888C37.0271 14.0888 36.9809 14.0812 36.9348 14.0619C36.7443 13.9984 36.5884 13.7791 36.5384 13.6424C36.5364 13.6386 36.5287 13.629 36.5191 13.629C36.5134 13.629 36.5095 13.629 36.5037 13.6347C36.4806 13.6482 36.4768 13.6559 36.4749 13.6694C36.4729 13.6809 36.4903 13.7791 36.498 13.8214C36.523 13.9253 36.5403 14.0484 36.6942 14.1485C36.7962 14.2139 36.827 14.2409 36.9386 14.2582C36.9578 14.2601 37.004 14.2582 37.0233 14.2543C37.0714 14.2428 37.1214 14.2389 37.1714 14.2389C37.3292 14.2389 37.4889 14.2928 37.6236 14.3909C37.6467 14.4044 37.6679 14.4217 37.6871 14.4391C37.716 14.4641 37.7468 14.4891 37.7814 14.5006C37.8045 14.5102 37.8276 14.5141 37.8526 14.5141C37.9142 14.5141 37.9296 14.4949 37.9719 14.4737C37.9911 14.4641 38.0104 14.4602 38.0219 14.4602C38.07 14.4602 38.0989 14.4987 38.1316 14.5468C38.1528 14.5757 38.1759 14.6084 38.2066 14.6372C38.2509 14.6796 38.3125 14.6853 38.3606 14.6853C38.3875 14.6853 38.4145 14.6853 38.4395 14.6815C38.4645 14.6815 38.4953 14.6796 38.5107 14.6776C38.5261 14.6776 38.5357 14.6738 38.5357 14.6738V14.668C38.5241 14.5757 38.4991 14.4891 38.4587 14.3967L38.4472 14.4102ZM33.3481 13.9542C33.3384 13.9695 33.3173 13.9792 33.2903 13.9792C33.2653 13.9792 33.2403 13.9715 33.2249 13.9599C33.1884 13.9349 33.1672 13.8907 33.1633 13.8349C33.1633 13.8214 33.1633 13.8079 33.1787 13.7944C33.1884 13.7887 33.1922 13.7887 33.2038 13.7887C33.2384 13.7887 33.2942 13.8118 33.325 13.8464C33.3269 13.8483 33.3731 13.9099 33.35 13.9522L33.3481 13.9542ZM33.3981 13.1518C33.3846 13.1691 33.3654 13.1806 33.3461 13.171C33.3288 13.1652 33.3115 13.1421 33.3019 13.1229C33.2884 13.0998 33.2788 13.0806 33.2499 13.0844C33.248 13.0844 33.2499 13.0844 33.2461 13.0844C33.2191 13.0863 33.1999 13.0998 33.1787 13.1152C33.1672 13.1229 33.1268 13.1556 33.1152 13.1633C33.0575 13.2114 33.0017 13.2614 32.9882 13.3288C32.9844 13.3455 32.9818 13.3577 32.9805 13.3654C32.9767 13.3884 32.9729 13.4135 32.9517 13.425C32.9517 13.425 32.9459 13.4269 32.9421 13.4269C32.9344 13.4269 32.9247 13.4231 32.9171 13.4173C32.9094 13.4115 32.9055 13.4058 32.9055 13.3942C32.8959 13.2788 32.9344 13.1749 33.0152 13.0998C33.0671 13.0575 33.1095 13.0017 33.1518 12.9497C33.171 12.9247 33.1922 12.8978 33.2134 12.8728C33.2288 12.8574 33.2557 12.8708 33.3 12.9189C33.3192 12.9382 33.375 13.0363 33.4019 13.0998C33.4116 13.1287 33.3981 13.1498 33.3981 13.1498V13.1518ZM34.3544 11.8068C34.3333 11.8279 34.3102 11.8491 34.2871 11.8703C34.2063 11.9434 34.1216 12.0203 34.0677 12.1069C34.0408 12.1416 34.0215 12.1839 34.0042 12.2224C34.0023 12.2262 33.9984 12.2359 33.9888 12.2359C33.985 12.2359 33.9811 12.2339 33.9773 12.2301C33.9619 12.2147 33.9754 12.105 33.9946 12.0511C34.0389 11.9299 34.1408 11.8029 34.2736 11.7048C34.2871 11.6952 34.3063 11.6913 34.3217 11.6913C34.3467 11.6913 34.366 11.7029 34.3737 11.7221C34.391 11.749 34.3833 11.7798 34.3563 11.8087L34.3544 11.8068Z" fill="#EA1D2D"/>
<path d="M48.953 28.0064V26.4055H47.9717V26.0322H50.3461V26.4055H49.3648V28.0064H48.9511H48.953Z" fill="white"/>
<path d="M51.472 26.4248C51.0852 26.4248 50.9698 26.571 50.9409 26.8346H53.0017V27.2041H50.9409C50.9698 27.4677 51.0852 27.612 51.472 27.612H53.0364V28.0064H51.472C50.7658 28.0064 50.5195 27.6697 50.5195 27.0193C50.5195 26.369 50.7658 26.0322 51.472 26.0322H53.0364V26.4248H51.472Z" fill="white"/>
<path d="M56.1282 28.0065H55.6837L55.4336 27.5178H53.9789L53.7287 28.0065H53.2881L54.0962 26.4229C54.2213 26.1766 54.3714 26.0054 54.7081 26.0054C55.0449 26.0054 55.193 26.1786 55.32 26.4229L56.1301 28.0065H56.1282ZM54.9102 26.5057C54.8678 26.4229 54.812 26.369 54.7062 26.369C54.6004 26.369 54.5446 26.421 54.5003 26.5057L54.1655 27.1522H55.2411L54.9102 26.5057Z" fill="white"/>
<path d="M56.8343 26.4671V28.0064H56.4302V26.0322H56.8304C56.9824 26.0322 57.0498 26.1111 57.1113 26.1842L57.931 27.1925L58.7507 26.1842C58.8123 26.1092 58.8777 26.0322 59.0317 26.0322H59.4319V28.0064H59.0278V26.4671L58.0888 27.5985H57.7713L56.8343 26.4671Z" fill="white"/>
<path d="M62.5011 26.0322C63.0456 26.0322 63.29 26.3381 63.29 26.6922C63.29 27.0462 63.0476 27.358 62.5011 27.358H61.2023V28.0045H60.7886V26.0303H62.4992L62.5011 26.0322ZM62.5223 26.9962C62.7763 26.9962 62.859 26.823 62.859 26.696C62.859 26.569 62.7724 26.3959 62.5223 26.3959H61.2042V26.9962H62.5223Z" fill="white"/>
<path d="M66.0877 28.0065H65.6432L65.393 27.5178H63.9383L63.6882 28.0065H63.2476L64.0557 26.4229C64.1808 26.1766 64.3309 26.0054 64.6676 26.0054C65.0043 26.0054 65.1525 26.1786 65.2795 26.4229L66.0896 28.0065H66.0877ZM64.8696 26.5057C64.8273 26.4229 64.7715 26.369 64.6657 26.369C64.5599 26.369 64.5041 26.421 64.4598 26.5057L64.125 27.1522H65.2006L64.8696 26.5057Z" fill="white"/>
<path d="M66.3921 26.0322H68.1065C68.5914 26.0322 68.8916 26.2516 68.8916 26.648C68.8916 26.9251 68.7454 27.0944 68.4875 27.1694C68.7377 27.2502 68.8493 27.4119 68.8493 27.6158V28.0064H68.4221V27.6081C68.4221 27.4985 68.3625 27.358 68.0988 27.358H66.8058V28.0084H66.394V26.0342L66.3921 26.0322ZM68.1373 26.9905C68.3913 26.9905 68.4702 26.8231 68.4702 26.6941C68.4702 26.5652 68.3913 26.3978 68.1373 26.3978H66.8039V26.9924H68.1373V26.9905Z" fill="white"/>
<path d="M70.0922 28.0064V26.4055H69.1108V26.0322H71.4853V26.4055H70.5039V28.0064H70.0903H70.0922Z" fill="white"/>
<path d="M72.1989 28.0064H71.7871V26.0322H72.0777C72.6087 26.0322 72.7531 26.2016 73.2514 26.8923C73.7228 27.5427 73.7556 27.5889 73.9711 27.5889H73.973V26.0342H74.3867V28.0084H74.0942C73.6074 28.0084 73.4592 27.8525 72.9205 27.1463C72.4163 26.4844 72.4009 26.4536 72.2027 26.4536H72.1989V28.0084V28.0064Z" fill="white"/>
<path d="M75.7396 26.4248C75.3528 26.4248 75.2374 26.571 75.2085 26.8346H77.2693V27.2041H75.2085C75.2374 27.4677 75.3528 27.612 75.7396 27.612H77.3039V28.0064H75.7396C75.0334 28.0064 74.7871 27.6697 74.7871 27.0193C74.7871 26.369 75.0334 26.0322 75.7396 26.0322H77.3039V26.4248H75.7396Z" fill="white"/>
<path d="M77.7368 26.0322H79.4513C79.9362 26.0322 80.2363 26.2516 80.2363 26.648C80.2363 26.9251 80.0882 27.0944 79.8323 27.1694C80.0843 27.2502 80.194 27.4119 80.194 27.6158V28.0064H79.7668V27.6081C79.7668 27.4985 79.7072 27.358 79.4436 27.358H78.1505V28.0084H77.7387V26.0342L77.7368 26.0322ZM79.4821 26.9905C79.736 26.9905 79.813 26.8231 79.813 26.6941C79.813 26.5652 79.736 26.3978 79.4821 26.3978H78.1486V26.9924H79.4821V26.9905Z" fill="white"/>
<path d="M51.7856 14.0947C50.6657 14.0947 49.771 13.1999 49.771 12.08C49.771 10.9602 50.6657 10.0654 51.7856 10.0654V8.42407C49.7536 8.42407 48.1123 10.0654 48.1123 12.0973C48.1123 14.1293 49.7536 15.7706 51.7856 15.7706C53.8175 15.7706 55.4589 14.1293 55.4589 12.0973H53.8175C53.7983 13.198 52.9035 14.0927 51.7856 14.0927V14.0947Z" fill="#247CFF"/>
<path d="M53.7983 10.0654H51.7837V12.0801H53.7983V10.0654Z" fill="#17E6A1"/>
<path d="M59.6153 11.651V12.8633H61.4799L61.4664 12.896C61.1489 13.656 60.412 14.1467 59.5903 14.1467C58.4685 14.1467 57.5584 13.2346 57.5584 12.1148C57.5584 10.9949 58.4705 10.0828 59.5903 10.0828C60.2369 10.0828 60.8372 10.3868 61.2201 10.9025H62.7056C62.2072 9.62102 60.9738 8.77053 59.5903 8.77053C57.747 8.77053 56.2461 10.2714 56.2461 12.1148C56.2461 13.9581 57.747 15.459 59.5903 15.459C60.4832 15.459 61.3221 15.1107 61.9532 14.4796C62.5824 13.8485 62.9288 13.0076 62.9288 12.1148C62.9288 11.9493 62.9192 11.7973 62.898 11.651H59.6153ZM79.7847 12.7036C79.802 12.5746 79.8039 12.4438 79.8039 12.3091C79.8039 10.7082 78.5166 9.40936 76.9157 9.40936C75.3148 9.40936 74.016 10.7082 74.016 12.3091C74.016 13.91 75.3148 15.2089 76.9157 15.2089C78.1684 15.2089 79.2344 14.4142 79.6384 13.302H78.33C78.0163 13.7465 77.5007 14.039 76.9157 14.039C76.096 14.039 75.4129 13.4694 75.234 12.7036H79.7866H79.7847ZM75.3302 11.6183C75.5976 11.0064 76.2057 10.5793 76.9157 10.5793C77.6257 10.5793 78.2357 11.0084 78.5012 11.6183H75.3302ZM68.1741 9.95967C67.6815 9.57291 67.0619 9.34201 66.3885 9.34201C64.7895 9.34201 63.4887 10.6428 63.4887 12.2418C63.4887 13.8408 64.7895 15.1415 66.3885 15.1415C67.0619 15.1415 67.6815 14.9106 68.1741 14.5238V15.0973H69.3537V9.59215H68.1741V9.95967ZM66.3885 13.9447C65.4495 13.9447 64.6856 13.1808 64.6856 12.2418C64.6856 11.3028 65.4495 10.5389 66.3885 10.5389C67.3275 10.5389 68.0914 11.3028 68.0914 12.2418C68.0914 13.1808 67.3275 13.9447 66.3885 13.9447ZM72.0648 8.56079H70.7776V9.59215H70.1734V10.7717H70.7776V13.4309C70.7776 14.3757 71.5453 15.1434 72.4901 15.1434H73.5676V13.8792H72.5132C72.2669 13.8792 72.0648 13.6772 72.0648 13.4309V10.7717H73.5676V9.59215H72.0648V8.56079Z" fill="white"/>
</g>
<defs>
<linearGradient id="paint0_linear_517_135196" x1="22.0417" y1="4.39694" x2="22.0417" y2="8.79371" gradientUnits="userSpaceOnUse">
<stop stop-color="#EEEFEF"/>
<stop offset="1" stop-color="#A6A8AB"/>
</linearGradient>
<linearGradient id="paint1_linear_517_135196" x1="22.0416" y1="17.9625" x2="22.0416" y2="20.385" gradientUnits="userSpaceOnUse">
<stop stop-color="#EEEFEF"/>
<stop offset="1" stop-color="#A6A8AB"/>
</linearGradient>
<radialGradient id="paint2_radial_517_135196" cx="0" cy="0" r="1" gradientUnits="userSpaceOnUse" gradientTransform="translate(22.0291 16.7768) scale(11.9806 11.9806)">
<stop stop-color="#EEEFEF"/>
<stop offset="1" stop-color="#A6A8AB"/>
</radialGradient>
<clipPath id="clip0_517_135196">
<rect width="85" height="30" fill="white"/>
</clipPath>
</defs>
</svg>
