<svg width="20" height="20" viewBox="0 0 20 20" fill="none" xmlns="http://www.w3.org/2000/svg">
<path fill-rule="evenodd" clip-rule="evenodd" d="M16.4239 2.66406C17.5937 2.66406 18.542 3.61235 18.542 4.78212V14.0698C18.542 15.2395 17.5937 16.1878 16.4239 16.1878H7.49805C7.49117 16.1878 7.48438 16.1893 7.47809 16.1921L3.22441 18.0839C2.3941 18.4531 1.45866 17.8454 1.45866 16.9367V4.78212C1.45866 3.61235 2.40694 2.66406 3.57671 2.66406H16.4239Z" fill="#F3EEFF"/>
<path d="M8.85 6.45797L11.5633 13.168H10.1517L9.565 11.6371H6.9525L6.38417 13.168H5.055L7.68583 6.45797H8.85ZM9.13417 10.5005L8.23583 8.14464L7.365 10.5005H9.13417ZM13.6593 13.168H12.3302V6.45797H13.6593V13.168Z" fill="url(#paint0_linear_2400_1192724)"/>
<defs>
<linearGradient id="paint0_linear_2400_1192724" x1="7.08333" y1="6.2513" x2="15.4167" y2="12.918" gradientUnits="userSpaceOnUse">
<stop stop-color="#B406FE"/>
<stop offset="1" stop-color="#2E17FD"/>
</linearGradient>
</defs>
</svg>
