<svg width="20" height="21" viewBox="0 0 20 21" fill="none" xmlns="http://www.w3.org/2000/svg">
<path d="M10.8334 2.58325C11.2936 2.58325 11.6667 2.95635 11.6667 3.41659L11.6667 5.08325C11.6667 5.54349 11.2936 5.91659 10.8334 5.91659H9.16671C8.70647 5.91659 8.33337 5.54349 8.33337 5.08325L8.33337 3.41659C8.33337 2.95635 8.70647 2.58325 9.16671 2.58325L10.8334 2.58325Z" fill="#303236"/>
<path d="M10.8334 8.83325C11.2936 8.83325 11.6667 9.20635 11.6667 9.66658V11.3333C11.6667 11.7935 11.2936 12.1666 10.8334 12.1666H9.16671C8.70647 12.1666 8.33337 11.7935 8.33337 11.3333L8.33337 9.66658C8.33337 9.20635 8.70647 8.83325 9.16671 8.83325H10.8334Z" fill="#303236"/>
<path d="M10.8334 15.0833C11.2936 15.0833 11.6667 15.4563 11.6667 15.9166V17.5833C11.6667 18.0435 11.2936 18.4166 10.8334 18.4166H9.16671C8.70647 18.4166 8.33337 18.0435 8.33337 17.5833L8.33337 15.9166C8.33337 15.4563 8.70647 15.0833 9.16671 15.0833H10.8334Z" fill="#303236"/>
</svg>
