<svg width="53" height="16" viewBox="0 0 53 16" fill="none" xmlns="http://www.w3.org/2000/svg">
<path d="M8.05186 7.48024V10.1777H12.1116L12.0812 10.2513C11.3909 11.9442 9.78708 13.0376 7.99471 13.0376C5.55367 13.0376 3.56832 11.0071 3.56832 8.51219C3.56832 6.0173 5.55441 3.98678 7.99471 3.98678C9.40412 3.98678 10.7081 4.66362 11.5431 5.81319H14.7775C13.6932 2.96014 11.008 1.06621 7.99545 1.06621C3.9795 1.06621 0.712402 4.40639 0.712402 8.51219C0.712402 12.618 3.9795 15.9582 7.99545 15.9582C9.93997 15.9582 11.7665 15.1835 13.1388 13.7774C14.5103 12.3721 15.2651 10.5017 15.2651 8.51219C15.2651 8.14266 15.2436 7.805 15.1998 7.481H8.05186V7.48024ZM51.9713 9.82186C52.0099 9.53352 52.0114 9.24215 52.0114 8.94318C52.0114 5.37764 49.2097 2.48742 45.7221 2.48742C42.2346 2.48742 39.4076 5.37764 39.4076 8.94318C39.4076 12.5087 42.2346 15.3989 45.7221 15.3989C48.4497 15.3989 50.7697 13.6287 51.6522 11.152H48.8015C48.1201 12.143 46.9972 12.7925 45.7221 12.7925C43.9387 12.7925 42.4484 11.5231 42.0587 9.8211H49.3856H51.9713V9.82186ZM42.2695 7.4074C42.8499 6.04538 44.1762 5.09234 45.7221 5.09234C47.2681 5.09234 48.5944 6.04538 49.1748 7.4074H42.2702H42.2695ZM26.6851 3.71741C25.6119 2.85695 24.2619 2.34173 22.7953 2.34173C19.3138 2.34173 16.4808 5.23802 16.4808 8.7975C16.4808 12.357 19.3138 15.2533 22.7953 15.2533C24.2619 15.2533 25.6119 14.738 26.6851 13.8776V15.1546H29.2538V2.89944H26.6851V3.71817V3.71741ZM22.7953 12.5869C20.7514 12.5869 19.0881 10.8864 19.0881 8.79674C19.0881 6.70704 20.7514 5.00659 22.7953 5.00659C24.8393 5.00659 26.5025 6.70704 26.5025 8.79674C26.5025 10.8864 24.8393 12.5869 22.7953 12.5869ZM35.1572 0.601074H32.3539V2.89868H31.0388V5.52636H32.3539V11.4479C32.3539 13.549 34.0261 15.2586 36.0812 15.2586H38.4265V12.445H36.1324C35.5943 12.445 35.1572 11.9973 35.1572 11.4479V5.52636H38.428V2.89868H35.1572V0.601074Z" fill="white"/>
</svg>
