<svg width="12" height="12" viewBox="0 0 12 12" fill="none" xmlns="http://www.w3.org/2000/svg">
<path d="M2.24996 5.20996C2.39318 5.20996 2.53053 5.26685 2.6318 5.36812C2.73307 5.46939 2.78996 5.60674 2.78996 5.74996C2.78996 6.60131 3.12816 7.41778 3.73015 8.01977C4.33214 8.62177 5.14862 8.95996 5.99996 8.95996C6.8512 8.9598 7.66812 8.62154 8.26999 8.01956C8.87185 7.41759 9.20996 6.6012 9.20996 5.74996C9.20996 5.60674 9.26685 5.46939 9.36812 5.36812C9.46939 5.26685 9.60674 5.20996 9.74996 5.20996C9.89318 5.20996 10.0305 5.26685 10.1318 5.36812C10.2331 5.46939 10.29 5.60674 10.29 5.74996C10.29 6.79427 9.90909 7.80273 9.21873 8.58631C8.52838 9.36988 7.57595 9.87478 6.53996 10.0064V11C6.53996 11.1432 6.48307 11.2805 6.3818 11.3818C6.28053 11.4831 6.14318 11.54 5.99996 11.54C5.85674 11.54 5.71939 11.4831 5.61812 11.3818C5.51685 11.2805 5.45996 11.1432 5.45996 11V10.0064C4.42397 9.87478 3.47154 9.36988 2.78119 8.58631C2.09084 7.80273 1.70996 6.79427 1.70996 5.74996C1.70996 5.60674 1.76685 5.46939 1.86812 5.36812C1.96939 5.26685 2.10674 5.20996 2.24996 5.20996Z" fill="#8E949E"/>
</svg>
