<svg fill="none" height="16" viewBox="0 0 14 16" width="14" xmlns="http://www.w3.org/2000/svg"><path d="m0 2c0-1.104569.895431-2 2-2h10c1.1046 0 2 .895431 2 2v12.4835c0 .7179-.7341 1.2019-1.3939.9191l-4.81826-2.065c-.5031-.2156-1.07258-.2156-1.57568 0l-4.81824 2.065c-.659868.2828-1.39392-.2012-1.39392-.9191z" fill="#ffc20d"/><path d="m5.80859 6.04883h.87305c.30859 0 .5625-.05274.76172-.15821.20312-.10937.35352-.25781.45117-.44531.10156-.1914.15235-.41211.15235-.66211 0-.24609-.04493-.45898-.13477-.63867-.08984-.18359-.22656-.32422-.41016-.42187-.17968-.10157-.41015-.15235-.6914-.15235-.22657 0-.43555.04492-.62696.13477-.1875.08984-.33789.21875-.45117.38672-.10937.16406-.16406.36132-.16406.59179h-1.55274c0-.46093.1211-.86523.36329-1.21289.24609-.35156.57812-.62695.99609-.82617s.88477-.29883 1.40039-.29883c.5625 0 1.05469.09375 1.47656.28125.42578.1836.75586.45508.99024.81446.23828.35937.35742.80468.35742 1.33593 0 .25391-.06055.50782-.18164.76172-.11719.25-.29102.47656-.52149.67969-.22656.19922-.50586.36133-.83789.48633-.32812.12109-.70507.18164-1.13086.18164h-1.11914zm0 1.19531v-.82617h1.11914c.48047 0 .89649.05664 1.24805.16992.35547.10938.64844.26563.87891.46875.23047.19922.40039.43164.50976.69727.11328.26562.16993.55078.16993.85547 0 .39843-.07422.7539-.22266 1.0664-.14844.3086-.35742.57032-.62695.78512-.26563.2149-.57813.3789-.9375.4922-.35938.1094-.74805.1641-1.16602.1641-.36328 0-.7168-.0488-1.06055-.1465-.33984-.1016-.64648-.2519-.91992-.4512-.27344-.2031-.49023-.457-.65039-.76169-.16016-.30859-.24023-.66601-.24023-1.07226h1.55273c0 .23437.05664.44336.16992.62695.11719.18359.27735.32812.48047.43359.20703.10157.43945.15235.69727.15235.28515 0 .52929-.05078.73242-.15235.20703-.10547.36523-.2539.47461-.44531.10937-.19531.16406-.42773.16406-.69726 0-.32032-.06055-.58008-.18164-.7793s-.29492-.3457-.52148-.43945c-.22266-.09375-.48829-.14063-.79688-.14063z" fill="#fff"/></svg>