<svg fill="none" height="16" viewBox="0 0 14 16" width="14" xmlns="http://www.w3.org/2000/svg"><path d="m0 2c0-1.104569.895431-2 2-2h10c1.1046 0 2 .895431 2 2v12.4835c0 .7179-.7341 1.2019-1.3939.9191l-4.81826-2.065c-.5031-.2156-1.07258-.2156-1.57568 0l-4.81824 2.065c-.659868.2828-1.39392-.2012-1.39392-.9191z" fill="#ff860d"/><path d="m9.89258 9.78125v1.21875h-5.77735v-1.04297l2.77149-2.99414c.28906-.32812.51758-.61328.68555-.85547.16796-.24219.28711-.46094.35742-.65625.07422-.19922.11133-.38867.11133-.56836 0-.26172-.04688-.49023-.14063-.68554-.09375-.19922-.23047-.35352-.41016-.46289-.17578-.10938-.39257-.16407-.65039-.16407-.28515 0-.52929.06641-.73242.19922-.19922.12891-.35156.30859-.45703.53906-.10156.23047-.15234.49414-.15234.79102h-1.55274c0-.50391.11719-.96289.35157-1.37695.23437-.41797.57031-.75196 1.00781-1.00196s.95703-.375 1.55859-.375c.58594 0 1.08203.09766 1.48828.29297.40625.19141.71485.46485.92578.82031.21094.35547.31641.7793.31641 1.27149 0 .27344-.04492.54297-.13477.80859-.08984.26563-.21679.5293-.38086.79102-.16015.25781-.35156.51953-.57421.78515-.22266.26563-.47071.53711-.74414.81446l-1.66407 1.85156z" fill="#fff"/></svg>