<svg width="16" height="16" viewBox="0 0 16 16" fill="none" xmlns="http://www.w3.org/2000/svg">
<g clip-path="url(#clip0_4214_234132)">
<path d="M13.4238 12.0146L13.4209 12.1533C13.4106 12.2913 13.3796 12.4273 13.3291 12.5566C13.2616 12.7294 13.1603 12.8874 13.0312 13.0205C12.9022 13.1536 12.7476 13.2593 12.5771 13.332C12.4067 13.4048 12.2234 13.4432 12.0381 13.4443H10.335L10.2598 13.459C10.2363 13.4687 10.2151 13.4833 10.1973 13.501L10.1963 13.5L9.00586 14.6904C8.87622 14.8212 8.72269 14.9262 8.55273 14.9971C8.38269 15.0679 8.19983 15.1035 8.01562 15.1035C7.83141 15.1035 7.64857 15.0679 7.47852 14.9971C7.30936 14.9266 7.15563 14.8232 7.02637 14.6934L5.83789 13.5049C5.80819 13.4761 5.77112 13.4564 5.73145 13.4482L5.69043 13.4443H3.95898C3.77533 13.4407 3.59402 13.4009 3.42578 13.3271C3.25747 13.2533 3.10559 13.1465 2.97852 13.0137C2.85149 12.8809 2.75186 12.7241 2.68555 12.5527C2.61923 12.3812 2.58711 12.1975 2.5918 12.0137V10.3262L2.57617 10.251C2.56637 10.2272 2.55237 10.205 2.53418 10.1865H2.5332L1.30859 8.97266C1.17791 8.84309 1.07475 8.68841 1.00391 8.51855C0.933059 8.34861 0.896508 8.16655 0.896484 7.98242C0.896484 7.79817 0.932986 7.61536 1.00391 7.44531C1.07482 7.2754 1.17877 7.12077 1.30957 6.99121L2.5293 5.78125C2.56219 5.74682 2.58172 5.70182 2.58203 5.6543V3.9707C2.57935 3.79046 2.61122 3.61139 2.67676 3.44336C2.74417 3.27052 2.84552 3.11272 2.97461 2.97949C3.10367 2.84635 3.25818 2.7398 3.42871 2.66699C3.59915 2.59428 3.78248 2.5568 3.96777 2.55566H5.66699C5.71846 2.55536 5.76705 2.53432 5.80371 2.49805L6.99609 1.30664C7.12539 1.17676 7.27907 1.07342 7.44824 1.00293C7.61829 0.932074 7.80114 0.896484 7.98535 0.896484C8.16934 0.896521 8.35162 0.932208 8.52148 1.00293C8.69057 1.07338 8.84438 1.17686 8.97363 1.30664L10.1621 2.49512L10.1943 2.52051C10.2283 2.54279 10.2683 2.55539 10.3096 2.55566H12.0449C12.2289 2.55909 12.4106 2.59902 12.5791 2.67285C12.7477 2.74672 12.9001 2.85334 13.0273 2.98633C13.1544 3.11921 13.254 3.27575 13.3203 3.44727C13.3848 3.61411 13.4167 3.79196 13.4141 3.9707V5.6748L13.4287 5.74902C13.4381 5.77178 13.4522 5.79254 13.4697 5.81055L14.6963 7.02734L14.7002 7.03125C14.8302 7.16246 14.9319 7.31725 15.001 7.4873C15.0703 7.65784 15.1051 7.84035 15.1035 8.02441C15.1019 8.20858 15.0645 8.39119 14.9922 8.56055C14.9198 8.72986 14.8145 8.88324 14.6826 9.01172L14.6816 9.01074L13.4766 10.2168L13.4375 10.2773C13.4285 10.2998 13.4235 10.324 13.4238 10.3486V12.0146Z" fill="#070808" stroke="#070808" stroke-width="1.20799"/>
<path d="M14.2714 7.45615L13.0417 6.23693C12.8943 6.08803 12.8111 5.88731 12.81 5.67783V3.97052C12.8128 3.86623 12.7948 3.76243 12.7572 3.66511C12.7196 3.56779 12.6631 3.47886 12.591 3.40346C12.5189 3.32806 12.4325 3.26767 12.3369 3.22578C12.2414 3.18389 12.1384 3.16132 12.0341 3.15938H10.3055C10.0945 3.15798 9.89228 3.075 9.74116 2.92783L8.54692 1.73412C8.47338 1.65994 8.38586 1.60106 8.28943 1.56087C8.19299 1.52069 8.08955 1.5 7.98507 1.5C7.88059 1.5 7.77715 1.52069 7.68072 1.56087C7.58428 1.60106 7.49677 1.65994 7.42323 1.73412L6.22899 2.92783C6.0799 3.07536 5.87927 3.15838 5.66965 3.15938H3.9716C3.8664 3.16001 3.76238 3.18161 3.66563 3.22291C3.56889 3.26422 3.48135 3.3244 3.40816 3.39994C3.33497 3.47547 3.27759 3.56484 3.23937 3.66282C3.20116 3.76079 3.18288 3.8654 3.18561 3.97052V5.65783C3.18439 5.86092 3.10503 6.05574 2.96398 6.20193L1.73422 7.42065C1.66001 7.49415 1.6011 7.58163 1.5609 7.67802C1.5207 7.77442 1.5 7.87781 1.5 7.98225C1.5 8.08668 1.5207 8.19008 1.5609 8.28647C1.6011 8.38286 1.66001 8.47034 1.73422 8.54385L2.96398 9.76257C3.11107 9.9116 3.19412 10.1126 3.19562 10.3217V12.0295C3.19296 12.1337 3.21095 12.2374 3.24854 12.3346C3.28613 12.4319 3.34259 12.5207 3.41466 12.596C3.48673 12.6714 3.573 12.7317 3.66849 12.7736C3.76399 12.8155 3.86683 12.8381 3.9711 12.8401H5.69466C5.90579 12.8416 6.10842 12.9251 6.25951 13.0722L7.45375 14.2659C7.52729 14.3401 7.6148 14.3989 7.71124 14.4391C7.80767 14.4793 7.91111 14.5 8.01559 14.5C8.12007 14.5 8.22351 14.4793 8.31995 14.4391C8.41638 14.3989 8.5039 14.3401 8.57744 14.2659L9.77167 13.0722C9.92027 12.9246 10.1214 12.8416 10.3305 12.8401H12.0341C12.1392 12.8395 12.2432 12.8179 12.3399 12.7766C12.4366 12.7354 12.5241 12.6752 12.5973 12.5997C12.6705 12.5243 12.7279 12.4349 12.7661 12.337C12.8044 12.2391 12.8227 12.1346 12.8201 12.0295V10.3567C12.8174 10.1484 12.897 9.94748 13.0417 9.79757L14.2609 8.57886C14.3358 8.50597 14.3954 8.41901 14.4364 8.32298C14.4774 8.22695 14.499 8.12375 14.5 8.01934C14.5009 7.91492 14.4811 7.81135 14.4418 7.71461C14.4025 7.61786 14.3449 7.53035 14.2714 7.45615ZM8.35229 10.4358C8.21298 10.7316 7.79219 10.7316 7.65288 10.4358L5.61285 6.10449C5.55247 5.97629 5.646 5.82886 5.78771 5.82886H6.01063C6.45531 5.82886 6.86084 6.08315 7.05452 6.48344L8.06863 8.57935L8.94614 6.53173C9.12887 6.10533 9.54814 5.82886 10.012 5.82886H10.2175C10.3592 5.82886 10.4527 5.97629 10.3923 6.10449L8.35229 10.4358Z" fill="#FEBE00"/>
</g>
<defs>
<clipPath id="clip0_4214_234132">
<rect width="16" height="16" fill="white"/>
</clipPath>
</defs>
</svg>
