<svg fill="none" height="53" viewBox="0 0 106 53" width="106" xmlns="http://www.w3.org/2000/svg">
<path d="m103.474 53.493c-1.398 0-2.527-1.0677-2.527-2.3904 0-7.2828-1.7682-14.2389-5.2546-20.6692-.64-1.1713-.1432-2.6135 1.0948-3.2191 1.2379-.5976 2.7622-.1354 3.4018 1.0359 3.857 7.1155 5.811 14.8047 5.811 22.8524 0 1.3227-1.128 2.3904-2.526 2.3904z" fill="#ea3943"/><path d="m2.52642 53.4924c-1.39795 0-2.52642-1.0677-2.52642-2.3904 0-8.4063 2.24009-16.733 6.49289-24.0636.67371-1.1554 2.2064-1.5857 3.4275-.9482 1.22111.6374 1.67581 2.0876 1.00211 3.243-3.84011 6.6294-5.86967 14.1593-5.86967 21.7608 0 1.3227-1.12846 2.3904-2.52641 2.3904z" fill="#13c885"/><path d="m93.4942 24.9832c-.7748 0-1.5327-.3346-2.0296-.9641-4.8002-6.0956-11.1836-10.988-18.4512-14.15129-1.2633-.54979-1.8191-1.96811-1.238-3.17129.5811-1.19521 2.0885-1.72111 3.3517-1.17131 8.034 3.49799 15.0827 8.90829 20.3882 15.63339.8337 1.0597.6063 2.5577-.5137 3.3466-.4548.3187-.9853.4701-1.5074.4701z" fill="#eb8b01"/><path d="m13.348 23.9473c-.5474 0-1.1032-.1673-1.5664-.51-1.0948-.8207-1.2801-2.3187-.4211-3.3545 5.4992-6.5976 12.6995-11.81667 20.8345-15.10748 1.2801-.51793 2.7707.04781 3.318 1.25895.5474 1.21115-.0505 2.6215-1.3305 3.13942-7.3519 2.97211-13.8701 7.69721-18.8471 13.66521-.4969.5976-1.2379.9084-1.9874.9084z" fill="#93d900"/>93D900
<path d="m66.1669 7.38165c-.219 0-.438-.0239-.6569-.07968-7.6887-1.96014-16.0007-2.06373-23.7483-.30278-1.3559.31075-2.7201-.48606-3.0486-1.76892-.3284-1.28286.5137-2.57369 1.8696-2.88444 8.5645-1.944211 17.7438-1.832657 26.241.33466 1.3474.34263 2.1475 1.65736 1.7854 2.93225-.3032 1.06772-1.3222 1.76891-2.4338 1.76891z" fill="#f3d42e"/></svg>