<svg width="16" height="16" viewBox="0 0 16 16" fill="none" xmlns="http://www.w3.org/2000/svg">
<g clip-path="url(#clip0_69_6755)">
<path d="M6.89891 11.7269L12.4422 6.18387L11.0823 4.81313L6.89891 8.99652L4.85301 6.95043L3.49315 8.32117L6.89891 11.7269ZM8 16C6.88657 16 5.84393 15.7903 4.8721 15.371C3.90039 14.9517 3.05513 14.3826 2.33634 13.6637C1.61742 12.9449 1.0483 12.0996 0.628978 11.1279C0.209659 10.1561 0 9.11343 0 8C0 6.88657 0.209659 5.84393 0.628978 4.8721C1.0483 3.90039 1.61742 3.05513 2.33634 2.33634C3.05513 1.61742 3.90039 1.0483 4.8721 0.628977C5.84393 0.209658 6.88657 0 8 0C9.11343 0 10.1561 0.209658 11.1279 0.628977C12.0996 1.0483 12.9449 1.61742 13.6637 2.33634C14.3826 3.05513 14.9517 3.90039 15.371 4.8721C15.7903 5.84393 16 6.88657 16 8C16 9.11343 15.7903 10.1561 15.371 11.1279C14.9517 12.0996 14.3826 12.9449 13.6637 13.6637C12.9449 14.3826 12.0996 14.9517 11.1279 15.371C10.1561 15.7903 9.11343 16 8 16Z" fill="#303236"/>
</g>
<defs>
<clipPath id="clip0_69_6755">
<rect width="16" height="16" rx="4" fill="white"/>
</clipPath>
</defs>
</svg>
