<svg width="351" height="351" viewBox="0 0 351 351" fill="none" xmlns="http://www.w3.org/2000/svg">
<rect width="351" height="351" fill="#00000000"/>
<mask id="mask0_12848_6408" style="mask-type:alpha" maskUnits="userSpaceOnUse" x="173" y="141" width="54" height="70">
<path d="M179.4 141.052L226.885 145.206L221.133 210.955L173.648 206.801L182.391 191.003L176.524 173.926L185.107 159.955L179.4 141.052Z" fill="#D9D9D9"/>
</mask>
<g mask="url(#mask0_12848_6408)">
<path d="M159.218 161.381L169.081 162.244L168.218 172.106L158.356 171.244L159.218 161.381Z" fill="#B5B7BC"/>
<path fill-rule="evenodd" clip-rule="evenodd" d="M149.539 145.812C147.521 145.635 145.743 147.127 145.566 149.145L141.731 192.977C141.555 194.995 143.047 196.773 145.065 196.95L203.508 202.063C205.525 202.239 207.304 200.747 207.48 198.73L211.315 154.897C211.492 152.88 209.999 151.101 207.982 150.925L149.539 145.812ZM149.673 186.349L158.183 179.178C158.966 178.518 160.137 178.627 160.784 179.419L168.657 189.054L192.012 171C192.804 170.388 193.941 170.524 194.566 171.307L201.732 180.287L203.69 157.911L152.552 153.437L149.673 186.349Z" fill="#B5B7BC"/>
</g>
<mask id="mask1_12848_6408" style="mask-type:alpha" maskUnits="userSpaceOnUse" x="118" y="141" width="60" height="71">
<path d="M166.147 141.376L118.662 145.531L124.414 211.279L171.899 207.125L177.767 190.049L169.023 174.251L175.05 159.001L166.147 141.376Z" fill="#D9D9D9"/>
</mask>
<g mask="url(#mask1_12848_6408)">
<path d="M157.106 164.239L166.968 163.376L167.831 173.238L157.969 174.101L157.106 164.239Z" fill="#B5B7BC"/>
<path fill-rule="evenodd" clip-rule="evenodd" d="M144.87 150.587C142.852 150.763 141.36 152.542 141.536 154.559L145.371 198.392C145.548 200.409 147.326 201.901 149.344 201.725L207.787 196.612C209.804 196.435 211.297 194.657 211.12 192.639L207.285 148.807C207.109 146.789 205.33 145.297 203.313 145.474L144.87 150.587ZM152.041 190.485L160.37 180.516L171.207 189.852L192.286 166.682L202.257 175.475L200.299 153.099L149.161 157.573L152.041 190.485Z" fill="#B5B7BC"/>
</g>
</svg>
