<svg fill="none" height="20" viewBox="0 0 23 20" width="23" xmlns="http://www.w3.org/2000/svg" xmlns:xlink="http://www.w3.org/1999/xlink"><filter id="a" color-interpolation-filters="sRGB" filterUnits="userSpaceOnUse" height="14.874" width="9.40759" x="3.40253" y=".036195"><feFlood flood-opacity="0" result="BackgroundImageFix"/><feBlend in="SourceGraphic" in2="BackgroundImageFix" mode="normal" result="shape"/><feGaussianBlur result="effect1_foregroundBlur_1909_115434" stdDeviation=".730987"/></filter><filter id="b" color-interpolation-filters="sRGB" filterUnits="userSpaceOnUse" height="9.18329" width="9.23883" x="12.8364" y="1.46262"><feFlood flood-opacity="0" result="BackgroundImageFix"/><feBlend in="SourceGraphic" in2="BackgroundImageFix" mode="normal" result="shape"/><feGaussianBlur result="effect1_foregroundBlur_1909_115434" stdDeviation=".365493"/></filter><radialGradient id="c" cx="0" cy="0" gradientTransform="matrix(0 18.8269 -20.0363 0 11.2539 .519013)" gradientUnits="userSpaceOnUse" r="1"><stop offset="0" stop-color="#fc0000"/><stop offset=".583333" stop-color="#ff3b79"/><stop offset="1" stop-color="#f72470"/></radialGradient><radialGradient id="d" cx="0" cy="0" gradientTransform="matrix(-13.75228931 4.05690989 -4.04593166 -13.71507482 13.2774 6.46747)" gradientUnits="userSpaceOnUse" r="1"><stop offset=".85468" stop-color="#963156" stop-opacity="0"/><stop offset="1" stop-color="#e44e85"/></radialGradient><radialGradient id="e" cx="0" cy="0" gradientTransform="matrix(-23.69969424 20.7161169 -20.52993345 -23.48669627 13.0758 8.57211)" gradientUnits="userSpaceOnUse" r="1"><stop offset=".278918" stop-opacity="0"/><stop offset="1" stop-color="#bbb"/></radialGradient><radialGradient id="f" cx="0" cy="0" gradientTransform="matrix(-8.6097344 -8.32362173 14.77058141 -15.27829916 12.4763 7.47323)" gradientUnits="userSpaceOnUse" r="1"><stop offset="0" stop-color="#ff6274"/><stop offset="1" stop-color="#ff6274" stop-opacity="0"/></radialGradient><radialGradient id="g" cx="0" cy="0" gradientTransform="matrix(-6.79187383 .85741104 -1.15927677 -9.18306527 8.37121 3.41357)" gradientUnits="userSpaceOnUse" r="1"><stop offset="0" stop-color="#ff7383"/><stop offset="1" stop-color="#ff7383" stop-opacity="0"/></radialGradient><path d="m10.7073 19.8237c.4393.2446.9677.231 1.4045-.018 2.942-1.6773 8.0543-5.5385 10.0621-10.55401 2.9469-6.53027-3.9725-11.74315-8.7548-7.99386-.4989.3911-1.1261.83872-1.5578 1.26274-.1951.19171-.539.21125-.7416.02737-.5675-.51509-1.45444-1.17584-2.02403-1.560279-4.077-2.751711-11.49521.875519-8.330865 8.616869 1.159175 3.47487 6.683045 8.40467 9.942495 10.21917z" fill="url(#c)"/><path d="m10.7073 19.8237c.4393.2446.9677.231 1.4045-.018 2.942-1.6773 8.0543-5.5385 10.0621-10.55401 2.9469-6.53027-3.9725-11.74315-8.7548-7.99386-.4989.3911-1.1261.83872-1.5578 1.26274-.1951.19171-.539.21125-.7416.02737-.5675-.51509-1.45444-1.17584-2.02403-1.560279-4.077-2.751711-11.49521.875519-8.330865 8.616869 1.159175 3.47487 6.683045 8.40467 9.942495 10.21917z" fill="url(#d)" fill-opacity=".6"/><path d="m10.7073 19.8237c.4393.2446.9677.231 1.4045-.018 2.942-1.6773 8.0543-5.5385 10.0621-10.55401 2.9469-6.53027-3.9725-11.74315-8.7548-7.99386-.4989.3911-1.1261.83872-1.5578 1.26274-.1951.19171-.539.21125-.7416.02737-.5675-.51509-1.45444-1.17584-2.02403-1.560279-4.077-2.751711-11.49521.875519-8.330865 8.616869 1.159175 3.47487 6.683045 8.40467 9.942495 10.21917z" fill="url(#e)" fill-opacity=".6"/><g filter="url(#a)" opacity=".6"><path d="m11.0512 3.83771.2969 9.61059c-6.53156-6.27032-7.78753-10.67361-5.28467-11.66163 2.37516-.937618 4.27527.58601 4.98777 2.05104z" fill="url(#f)"/></g><g filter="url(#b)" opacity=".6"><ellipse cx="4.18795" cy="3.53326" fill="url(#g)" rx="4.18795" ry="3.53326" transform="matrix(.717869 -.696178 .697905 .716191 11.9836 6.43933)"/></g></svg>