<svg fill="none" height="26" viewBox="0 0 26 26" width="26" xmlns="http://www.w3.org/2000/svg"><g clip-rule="evenodd" fill-rule="evenodd"><path d="m10 24.6962c-6.3313-1.6583-10.244462-8.1697-8.7-14.5823 1.66138-6.4452 8.17357-10.357509 14.7-8.8101 6.3314 1.65804 10.2435 8.17018 8.7 14.5823-1.662 6.4457-8.1742 10.3572-14.7 8.8101z" fill="#f7931a"/><path d="m18.7786 11.5303c.2395-1.57616-.9793-2.42346-2.6462-2.98869l.5409-2.13509-1.3199-.32389-.5263 2.07882c-.347-.08514-.7034-.16546-1.0572-.24504l.5297-2.09252-1.3188-.32389-.541 2.13434c-.2872-.0644-.5691-.12807-.8428-.19507l.0015-.00666-1.82034-.44753-.35113 1.3881s.97937.22099.95827.23468c.535.13141.6316.47973.6154.75587l-1.48119 5.84887c-.06542.1599-.23158.3994-.60489.3087.01278.0189-.95941-.2357-.95941-.2357l-.65565 1.488 1.71806.422c.31918.0788.63234.161.94099.2387l-.54662 2.1595 1.31841.3239.541-2.1369c.3602.0962.7094.1851 1.0519.2691l-.5391 2.1262 1.3199.3239.5463-2.1551c2.2504.4194 3.9433.2503 4.6557-1.7538.574-1.6135-.0286-2.5448-1.2128-3.1523.8624-.1962 1.512-.7547 1.6853-1.9085zm-2.6075-.0233c-.3722 1.468-2.6696.7221-3.4144.5393l.6572-2.59483c.7447.18286 3.1448.52415 2.7572 2.05553zm-.4083 4.1868c-.4079 1.6136-3.1677.7418-4.0628.5227l.7251-2.861c.8948.2199 3.764.6556 3.3377 2.3383z" fill="#fff"/></g></svg>