<svg width="20" height="21" viewBox="0 0 20 21" fill="none" xmlns="http://www.w3.org/2000/svg">
<g filter="url(#filter0_i_11852_45300)">
<path d="M20 10.1478C20 12.8366 18.9695 15.2811 17.2875 17.0969C16.8478 17.5715 16.5217 17.869 15.8696 18.3102C15.6522 18.7398 17.6087 19.9648 16.5217 20.2957C15.4348 20.6266 13.1522 20.7878 11.087 20.6266C9.02174 20.4654 7.91618 20.1279 6.95652 19.8171C2.92188 18.5105 0 14.6754 0 10.1478C0 4.54334 4.47715 0 10 0C15.5228 0 20 4.54334 20 10.1478Z" fill="url(#paint0_linear_11852_45300)"/>
</g>
<g filter="url(#filter1_d_11852_45300)">
<path d="M9.28226 6.53663L12.3002 14H10.7301L10.0775 12.2973H7.17172L6.53958 14H5.06118L7.98739 6.53663H9.28226ZM9.59833 11.033L8.59914 8.41267L7.63053 11.033H9.59833ZM14.6316 14H13.1532V6.53663H14.6316V14Z" fill="#FAFAFA"/>
</g>
<defs>
<filter id="filter0_i_11852_45300" x="-1" y="-1" width="21" height="21.6897" filterUnits="userSpaceOnUse" color-interpolation-filters="sRGB">
<feFlood flood-opacity="0" result="BackgroundImageFix"/>
<feBlend mode="normal" in="SourceGraphic" in2="BackgroundImageFix" result="shape"/>
<feColorMatrix in="SourceAlpha" type="matrix" values="0 0 0 0 0 0 0 0 0 0 0 0 0 0 0 0 0 0 127 0" result="hardAlpha"/>
<feOffset dx="-1" dy="-1"/>
<feGaussianBlur stdDeviation="1"/>
<feComposite in2="hardAlpha" operator="arithmetic" k2="-1" k3="1"/>
<feColorMatrix type="matrix" values="0 0 0 0 0.846089 0 0 0 0 0.688232 0 0 0 0 1 0 0 0 0.54 0"/>
<feBlend mode="normal" in2="shape" result="effect1_innerShadow_11852_45300"/>
</filter>
<filter id="filter1_d_11852_45300" x="2.86152" y="4.33662" width="16.1703" height="14.0634" filterUnits="userSpaceOnUse" color-interpolation-filters="sRGB">
<feFlood flood-opacity="0" result="BackgroundImageFix"/>
<feColorMatrix in="SourceAlpha" type="matrix" values="0 0 0 0 0 0 0 0 0 0 0 0 0 0 0 0 0 0 127 0" result="hardAlpha"/>
<feOffset dx="1.1" dy="1.1"/>
<feGaussianBlur stdDeviation="1.65"/>
<feComposite in2="hardAlpha" operator="out"/>
<feColorMatrix type="matrix" values="0 0 0 0 0.133492 0 0 0 0 0.24992 0 0 0 0 0.840088 0 0 0 0.45 0"/>
<feBlend mode="normal" in2="BackgroundImageFix" result="effect1_dropShadow_11852_45300"/>
<feBlend mode="normal" in="SourceGraphic" in2="effect1_dropShadow_11852_45300" result="shape"/>
</filter>
<linearGradient id="paint0_linear_11852_45300" x1="-2.69231" y1="3.31034" x2="18.002" y2="5.51764" gradientUnits="userSpaceOnUse">
<stop stop-color="#2E17FD"/>
<stop offset="1" stop-color="#B406FE"/>
</linearGradient>
</defs>
</svg>
