<svg fill="none" height="31" viewBox="0 0 31 31" width="31" xmlns="http://www.w3.org/2000/svg" xmlns:xlink="http://www.w3.org/1999/xlink"><filter id="a" color-interpolation-filters="sRGB" filterUnits="userSpaceOnUse" height="17.2566" width="14.075" x="8.0752" y="8.52502"><feFlood flood-opacity="0" result="BackgroundImageFix"/><feColorMatrix in="SourceAlpha" result="hardAlpha" type="matrix" values="0 0 0 0 0 0 0 0 0 0 0 0 0 0 0 0 0 0 127 0"/><feOffset dy="2"/><feGaussianBlur stdDeviation="1"/><feComposite in2="hardAlpha" operator="out"/><feColorMatrix type="matrix" values="0 0 0 0 1 0 0 0 0 0.776471 0 0 0 0 0.258824 0 0 0 1 0"/><feBlend in2="BackgroundImageFix" mode="normal" result="effect1_dropShadow_1909_115439"/><feColorMatrix in="SourceAlpha" result="hardAlpha" type="matrix" values="0 0 0 0 0 0 0 0 0 0 0 0 0 0 0 0 0 0 127 0"/><feOffset dy="1"/><feComposite in2="hardAlpha" operator="out"/><feColorMatrix type="matrix" values="0 0 0 0 0.9375 0 0 0 0 0.718378 0 0 0 0 0.210938 0 0 0 1 0"/><feBlend in2="effect1_dropShadow_1909_115439" mode="normal" result="effect2_dropShadow_1909_115439"/><feBlend in="SourceGraphic" in2="effect2_dropShadow_1909_115439" mode="normal" result="shape"/></filter><filter id="b" color-interpolation-filters="sRGB" filterUnits="userSpaceOnUse" height="13.2566" width="10.075" x="10.0752" y="8.52502"><feFlood flood-opacity="0" result="BackgroundImageFix"/><feBlend in="SourceGraphic" in2="BackgroundImageFix" mode="normal" result="shape"/><feColorMatrix in="SourceAlpha" result="hardAlpha" type="matrix" values="0 0 0 0 0 0 0 0 0 0 0 0 0 0 0 0 0 0 127 0"/><feOffset/><feGaussianBlur stdDeviation=".5"/><feComposite in2="hardAlpha" k2="-1" k3="1" operator="arithmetic"/><feColorMatrix type="matrix" values="0 0 0 0 1 0 0 0 0 0.776471 0 0 0 0 0.258824 0 0 0 1 0"/><feBlend in2="shape" mode="normal" result="effect1_innerShadow_1909_115439"/></filter><filter id="c" color-interpolation-filters="sRGB" filterUnits="userSpaceOnUse" height="17.2072" width="14.0256" x="8.09989" y="7.04354"><feFlood flood-opacity="0" result="BackgroundImageFix"/><feColorMatrix in="SourceAlpha" result="hardAlpha" type="matrix" values="0 0 0 0 0 0 0 0 0 0 0 0 0 0 0 0 0 0 127 0"/><feOffset dy=".493827"/><feGaussianBlur stdDeviation=".987654"/><feComposite in2="hardAlpha" operator="out"/><feColorMatrix type="matrix" values="0 0 0 0 0.870833 0 0 0 0 0.659633 0 0 0 0 0.170538 0 0 0 1 0"/><feBlend in2="BackgroundImageFix" mode="normal" result="effect1_dropShadow_1909_115439"/><feBlend in="SourceGraphic" in2="effect1_dropShadow_1909_115439" mode="normal" result="shape"/></filter><linearGradient id="d" gradientUnits="userSpaceOnUse" x1="6.60378" x2="24.1672" y1="4.97397" y2="26.1033"><stop offset="0" stop-color="#ffd466"/><stop offset="1" stop-color="#ffbd35"/></linearGradient><linearGradient id="e" gradientUnits="userSpaceOnUse" x1="11.4313" x2="15.5001" y1="4.84373" y2="27.9"><stop offset="0" stop-color="#ffea9d"/><stop offset="1" stop-color="#ffc13a"/></linearGradient><linearGradient id="f" gradientUnits="userSpaceOnUse" x1="9.71659" x2="21.517" y1="9.00909" y2="23.2053"><stop offset="0" stop-color="#ffe066"/><stop offset="1" stop-color="#ffbd35"/></linearGradient><circle cx="15.5001" cy="15.5" fill="url(#d)" r="12.4"/><circle cx="15.5001" cy="15.5" r="12" stroke="url(#e)" stroke-width=".8"/><circle cx="15.5001" cy="15.5" fill="#f1a354" r="8.9125"/><circle cx="15.6938" cy="16.0812" fill="url(#f)" r="8.33125"/><g filter="url(#a)"><path d="m11.7785 17.4874c-.0191.0792-.03.1256-.1392.0983l-1.2447-.3112-.3194 1.283 2.2957.5733-.4641 1.8646 1.2257.3057.464-1.8645.7616.1911-.464 1.8618 1.1655.2921.4668-1.8645.8763.2211c.5841.1447 2.7979.172 3.2756-1.7636.1531-.5175.1266-1.0716-.0751-1.5722s-.5668-.9182-1.0359-1.185c0 0 1.3649-.4177 1.556-1.668.191-1.2503-.6797-1.8318-1.1847-2.1512-.3973-.2294-.8195-.4126-1.2584-.546l.4859-1.94914-1.122-.273-.4804 1.93824-.9008-.2238.4914-1.94648-1.1356-.273-.4859 1.94648-2.3748-.59243-.2894 1.14653 1.3021.3249c.131.0328.1146.0983.1037.142zm3.5923-5.5882 1.384.3467c.2375.0601 1.343.546 1.0919 1.5261-.0613.2706-.2176.5103-.4404.6755-.2229.1653-.4976.2453-.7743.2253-.1129-.0002-.2254-.0121-.3358-.0354l-1.5259-.3822zm-.8762 3.5844 2.1619.546c.1559.042.3015.1154.4281.2156.1265.1001.2313.2251.3079.3671.0767.1421.1236.2983.1378.4591.0143.1607-.0044.3227-.0549.4761-.1938.7807-.9608.9527-1.3402.9527-.056.0017-.112-.0038-.1666-.0164l-2.0882-.5186z" fill="#ffe47e"/></g><g filter="url(#b)"><path d="m11.7785 17.4874c-.0191.0792-.03.1256-.1392.0983l-1.2447-.3112-.3194 1.283 2.2957.5733-.4641 1.8646 1.2257.3057.464-1.8645.7616.1911-.464 1.8618 1.1655.2921.4668-1.8645.8763.2211c.5841.1447 2.7979.172 3.2756-1.7636.1531-.5175.1266-1.0716-.0751-1.5722s-.5668-.9182-1.0359-1.185c0 0 1.3649-.4177 1.556-1.668.191-1.2503-.6797-1.8318-1.1847-2.1512-.3973-.2294-.8195-.4126-1.2584-.546l.4859-1.94914-1.122-.273-.4804 1.93824-.9008-.2238.4914-1.94648-1.1356-.273-.4859 1.94648-2.3748-.59243-.2894 1.14653 1.3021.3249c.131.0328.1146.0983.1037.142zm3.5923-5.5882 1.384.3467c.2375.0601 1.343.546 1.0919 1.5261-.0613.2706-.2176.5103-.4404.6755-.2229.1653-.4976.2453-.7743.2253-.1129-.0002-.2254-.0121-.3358-.0354l-1.5259-.3822zm-.8762 3.5844 2.1619.546c.1559.042.3015.1154.4281.2156.1265.1001.2313.2251.3079.3671.0767.1421.1236.2983.1378.4591.0143.1607-.0044.3227-.0549.4761-.1938.7807-.9608.9527-1.3402.9527-.056.0017-.112-.0038-.1666-.0164l-2.0882-.5186z" fill="#ffe47e"/></g><g filter="url(#c)"><path d="m11.7785 17.4874c-.0191.0792-.03.1256-.1392.0983l-1.2447-.3112-.3194 1.283 2.2957.5733-.4641 1.8646 1.2257.3057.464-1.8645.7616.1911-.464 1.8618 1.1655.2921.4668-1.8645.8763.2211c.5841.1447 2.7979.172 3.2756-1.7636.1531-.5175.1266-1.0716-.0751-1.5722s-.5668-.9182-1.0359-1.185c0 0 1.3649-.4177 1.556-1.668.191-1.2503-.6797-1.8318-1.1847-2.1512-.3973-.2294-.8195-.4126-1.2584-.546l.4859-1.94914-1.122-.273-.4804 1.93824-.9008-.2238.4914-1.94648-1.1356-.273-.4859 1.94648-2.3748-.59243-.2894 1.14653 1.3021.3249c.131.0328.1146.0983.1037.142zm3.5923-5.5882 1.384.3467c.2375.0601 1.343.546 1.0919 1.5261-.0613.2706-.2176.5103-.4404.6755-.2229.1653-.4976.2453-.7743.2253-.1129-.0002-.2254-.0121-.3358-.0354l-1.5259-.3822zm-.8762 3.5844 2.1619.546c.1559.042.3015.1154.4281.2156.1265.1001.2313.2251.3079.3671.0767.1421.1236.2983.1378.4591.0143.1607-.0044.3227-.0549.4761-.1938.7807-.9608.9527-1.3402.9527-.056.0017-.112-.0038-.1666-.0164l-2.0882-.5186z" fill="#fde3a1"/></g></svg>