<svg fill="none" height="32" viewBox="0 0 26 32" width="26" xmlns="http://www.w3.org/2000/svg" xmlns:xlink="http://www.w3.org/1999/xlink"><filter id="a" color-interpolation-filters="sRGB" filterUnits="userSpaceOnUse" height="11.5999" width="11.5999" x="7.20004" y="10"><feFlood flood-opacity="0" result="BackgroundImageFix"/><feColorMatrix in="SourceAlpha" result="hardAlpha" type="matrix" values="0 0 0 0 0 0 0 0 0 0 0 0 0 0 0 0 0 0 127 0"/><feOffset dy=".799963"/><feGaussianBlur stdDeviation=".399981"/><feComposite in2="hardAlpha" operator="out"/><feColorMatrix type="matrix" values="0 0 0 0 0.858824 0 0 0 0 0.282353 0 0 0 0 0.282353 0 0 0 0.41 0"/><feBlend in2="BackgroundImageFix" mode="normal" result="effect1_dropShadow_2467_48107"/><feBlend in="SourceGraphic" in2="effect1_dropShadow_2467_48107" mode="normal" result="shape"/></filter><linearGradient id="b"><stop offset="0" stop-color="#ffe0a3"/><stop offset=".332136" stop-color="#ff5065"/><stop offset=".890625" stop-color="#ff505a"/></linearGradient><linearGradient id="c" gradientUnits="userSpaceOnUse" x1="14.9478" x2="10.0557" xlink:href="#b" y1="-6.21321" y2="31.6193"/><linearGradient id="d" gradientUnits="userSpaceOnUse" x1="14.9478" x2="13.5506" xlink:href="#b" y1="-3.30077" y2="17.0378"/><radialGradient id="e" cx="0" cy="0" gradientTransform="matrix(.89921048 4.21374261 -3.87164534 .8262071 5.60795 5.85247)" gradientUnits="userSpaceOnUse" r="1"><stop offset=".12181" stop-color="#ffb8a8"/><stop offset=".797586" stop-color="#ff6c60" stop-opacity=".439961"/><stop offset="1" stop-color="#ff5151" stop-opacity="0"/></radialGradient><linearGradient id="f" gradientUnits="userSpaceOnUse" x1="4.42857" x2="12.375" y1="8.57143" y2="21.875"><stop offset="0" stop-color="#d6a059"/><stop offset=".280726" stop-color="#fdf197"/><stop offset=".756052" stop-color="#ffb356"/><stop offset="1" stop-color="#d59e57"/></linearGradient><linearGradient id="g" gradientUnits="userSpaceOnUse" x1="12.3333" x2="12.7737" y1="29.0833" y2="16.0757"><stop offset="0" stop-color="#ffda99"/><stop offset="1" stop-color="#ff8871" stop-opacity="0"/></linearGradient><rect fill="url(#c)" height="32" rx="2.90828" width="26"/><rect height="31" rx="2.40828" stroke="#ffb99b" stroke-opacity=".3" width="25" x=".5" y=".5"/><path d="m0 2.90828c0-1.6062 1.30208-2.90828 2.90828-2.90828h20.18342c1.6062 0 2.9083 1.30208 2.9083 2.90828v7.00839l-8.2154 4.47633c-2.9827 1.6252-6.5865 1.6252-9.56918 0l-8.21542-4.47633z" fill="url(#d)"/><path d="m.5 2.90828c0-1.33005 1.07822-2.40828 2.40828-2.40828h20.18342c1.3301 0 2.4083 1.07822 2.4083 2.40828v6.71142l-7.9546 4.3343c-2.8336 1.5439-6.2572 1.5439-9.09075 0l-7.95465-4.3343z" stroke="#ffb99b" stroke-opacity=".4"/><ellipse cx="6.34392" cy="6.09965" fill="url(#e)" opacity=".4" rx="4.06743" ry="4.50073" transform="matrix(-.04508228 .99898328 -.99898328 -.04508228 12.723367 .037166)"/><g filter="url(#a)"><circle cx="13" cy="15" fill="url(#f)" r="5"/><circle cx="13" cy="15" r="4.6" stroke="#ffda99" stroke-opacity=".4" stroke-width=".8"/></g><circle cx="13.0022" cy="14.9993" fill="#f4ae57" opacity=".5" r="1.89286" stroke="#ffda99" stroke-width=".5"/><path d="m3 15v10c0 1.6569 1.34315 3 3 3h14c1.6569 0 3-1.3431 3-3v-10" opacity=".3" stroke="url(#g)"/></svg>