<svg width="16" height="16" viewBox="0 0 16 16" fill="none" xmlns="http://www.w3.org/2000/svg">
<path d="M8.55406 1.38281H4.85926C2.83841 1.38281 1.2002 3.02103 1.2002 5.04188V11.7502C1.2002 13.4342 2.56538 14.7994 4.24942 14.7994H8.55406H11.5675C13.2516 14.7994 14.6168 13.4342 14.6168 11.7502V7.41477" stroke="#262933" stroke-width="1.4" stroke-linecap="round"/>
<path d="M12.9706 4.86219C13.9811 4.86219 14.8002 4.04308 14.8002 3.03266C14.8002 2.02223 13.9811 1.20312 12.9706 1.20312C11.9602 1.20312 11.1411 2.02223 11.1411 3.03266C11.1411 4.04308 11.9602 4.86219 12.9706 4.86219Z" stroke="#262933" stroke-width="1.4" stroke-linecap="round" stroke-linejoin="round"/>
<path d="M4.5542 11.1128L6.28825 8.86141C6.53597 8.54083 6.99499 8.48255 7.31557 8.73027L8.6489 9.77945C8.96948 10.0272 9.42848 9.96888 9.6762 9.65559L11.3593 7.48438" stroke="#262933" stroke-width="1.4" stroke-linecap="round" stroke-linejoin="round"/>
</svg>
