<svg width="16" height="16" viewBox="0 0 16 16" fill="none" xmlns="http://www.w3.org/2000/svg">
<g clip-path="url(#clip0_2742_5222)">
<path d="M12.2606 8.48634V8.85964C12.2606 9.44541 12.4957 10.0067 12.9131 10.4176L14.4953 11.9755C14.7173 12.1941 14.5625 12.572 14.2509 12.572H1.74891C1.43729 12.572 1.28249 12.1941 1.50454 11.9755L3.08674 10.4176C3.50414 10.0067 3.73918 9.4454 3.73918 8.85964V5.64585C3.73918 3.29272 5.64677 1.38513 7.9999 1.38513C8.48119 1.38513 8.94384 1.46493 9.37535 1.61202" stroke="#262933" stroke-width="1.4" stroke-linecap="round"/>
<path d="M9.94551 12.8638V13.1556C9.94551 13.9615 9.07446 14.6148 7.99998 14.6148C6.9255 14.6148 6.05444 13.9615 6.05444 13.1556V12.8638" stroke="#262933" stroke-width="1.4" stroke-linecap="round" stroke-linejoin="round"/>
<circle cx="11.891" cy="4.59526" r="1.45915" stroke="#262933" stroke-width="1.4"/>
</g>
<defs>
<clipPath id="clip0_2742_5222">
<rect width="16" height="16" fill="white"/>
</clipPath>
</defs>
</svg>
