<svg width="16" height="16" viewBox="0 0 16 16" fill="none" xmlns="http://www.w3.org/2000/svg">
<path d="M16 8C16 12.4183 12.4183 16 8 16C3.58172 16 0 12.4183 0 8C0 3.58172 3.58172 0 8 0C12.4183 0 16 3.58172 16 8Z" fill="#E57300"/>
<path fill-rule="evenodd" clip-rule="evenodd" d="M7.99958 3.80005C7.55776 3.80005 7.19958 4.15822 7.19958 4.60005V8.80005C7.19958 9.24188 7.55776 9.60005 7.99958 9.60005C8.44141 9.60005 8.79958 9.24188 8.79958 8.80005V4.60005C8.79958 4.15822 8.44141 3.80005 7.99958 3.80005ZM7.99961 12.3C8.49667 12.3 8.89961 11.8971 8.89961 11.4C8.89961 10.9029 8.49667 10.5 7.99961 10.5C7.50255 10.5 7.09961 10.9029 7.09961 11.4C7.09961 11.8971 7.50255 12.3 7.99961 12.3Z" fill="white"/>
</svg>
