<svg width="16" height="16" viewBox="0 0 16 16" fill="none" xmlns="http://www.w3.org/2000/svg">
<path fill-rule="evenodd" clip-rule="evenodd" d="M7.48476 9.51524L9.51524 7.48476C9.30078 6.8539 8.70341 6.40002 8.00002 6.40002C7.11637 6.40002 6.40002 7.11637 6.40002 8.00002C6.40002 8.70341 6.8539 9.30078 7.48476 9.51524Z" fill="#262933"/>
<path fill-rule="evenodd" clip-rule="evenodd" d="M11.0518 3.32691C10.0737 2.97432 9.0328 2.80005 8 2.80005C5.37676 2.80005 2.70142 3.92434 1.13403 6.23909C0.416058 7.2994 0.416057 8.70069 1.13403 9.76101C1.61006 10.464 2.1883 11.0572 2.83624 11.5425L3.83916 10.5396C3.24106 10.1204 2.71471 9.59845 2.29327 8.97605C1.89631 8.38981 1.89631 7.61028 2.29327 7.02404C3.55314 5.16344 5.75052 4.20005 8 4.20005C8.6565 4.20005 9.30855 4.2821 9.93416 4.44457L11.0518 3.32691ZM6.89909 11.7223C7.26203 11.774 7.63031 11.8 8 11.8C10.2495 11.8 12.4469 10.8367 13.7067 8.97605C14.1037 8.38981 14.1037 7.61028 13.7067 7.02404C13.4222 6.60384 13.0899 6.2294 12.7199 5.90149L13.7118 4.90954C14.1401 5.29804 14.5287 5.741 14.866 6.23909C15.5839 7.2994 15.5839 8.70069 14.866 9.76101C13.2986 12.0758 10.6232 13.2 8 13.2C7.2321 13.2 6.45973 13.1037 5.712 12.9094L6.89909 11.7223Z" fill="#262933"/>
<path d="M3 13.5L14 2.5" stroke="#262933" stroke-width="1.4" stroke-linecap="round"/>
</svg>
