<svg width="20" height="20" viewBox="0 0 20 20" fill="none" xmlns="http://www.w3.org/2000/svg">
<path d="M15.875 5.625V3.5C15.875 2.39543 14.9796 1.5 13.875 1.5H3.5C2.39543 1.5 1.5 2.39543 1.5 3.5V15.75C1.5 16.8546 2.39543 17.75 3.5 17.75H7" stroke="#262933" stroke-width="1.6" stroke-linecap="round" stroke-linejoin="round"/>
<path d="M5 5.625H11" stroke="#262933" stroke-width="1.6" stroke-linecap="round" stroke-linejoin="round"/>
<path d="M5 9.625L8 9.625" stroke="#262933" stroke-width="1.6" stroke-linecap="round" stroke-linejoin="round"/>
<path d="M18.25 14.2C18.25 16.5473 16.3472 18.4501 14 18.4501C11.6528 18.4501 9.75 16.5473 9.75 14.2C9.75 11.8528 11.6528 9.95001 14 9.95001C16.3472 9.95001 18.25 11.8528 18.25 14.2Z" stroke="#262933" stroke-width="1.5"/>
<path d="M15.6377 14.6004H13.6992V12.6619" stroke="#262933" stroke-width="1.4" stroke-linecap="round" stroke-linejoin="round"/>
</svg>
