<?xml version="1.0" standalone="no"?><!DOCTYPE svg PUBLIC "-//W3C//DTD SVG 1.1//EN" "http://www.w3.org/Graphics/SVG/1.1/DTD/svg11.dtd"><svg t="1756605946049" class="icon" viewBox="0 0 1024 1024" version="1.1" xmlns="http://www.w3.org/2000/svg" p-id="9667" xmlns:xlink="http://www.w3.org/1999/xlink" width="200" height="200"><path d="M512 106.666667a256 256 0 0 0-256 256V426.666667h-21.333333a85.333333 85.333333 0 0 0-85.333334 85.333333v298.666667a85.333333 85.333333 0 0 0 85.333334 85.333333h554.666666a85.333333 85.333333 0 0 0 85.333334-85.333333v-298.666667a85.333333 85.333333 0 0 0-85.333334-85.333333H768V362.666667a256 256 0 0 0-256-256z m128 320H384V362.666667a128 128 0 1 1 256 0V426.666667z m-170.666667 320v-170.666667h85.333334v170.666667h-85.333334z" p-id="9668"></path></svg>