<?xml version="1.0" standalone="no"?><!DOCTYPE svg PUBLIC "-//W3C//DTD SVG 1.1//EN" "http://www.w3.org/Graphics/SVG/1.1/DTD/svg11.dtd"><svg t="1756605884033" class="icon" viewBox="0 0 1024 1024" version="1.1" xmlns="http://www.w3.org/2000/svg" p-id="8470" xmlns:xlink="http://www.w3.org/1999/xlink" width="200" height="200"><path d="M607.573333 128.981333c0-38.826667 46.976-58.325333 74.453334-30.848l243.882666 243.882667c27.434667 27.477333 7.936 74.410667-30.890666 74.410667h-124.842667a23.04 23.04 0 0 1-20.693333-13.653334 262.485333 262.485333 0 0 0-128.256-128.298666 23.04 23.04 0 0 1-13.653334-20.693334V128.981333zM253.397333 607.573333c8.96 0 16.938667 5.546667 20.693334 13.738667a262.442667 262.442667 0 0 0 128.768 128.64 23.04 23.04 0 0 1 13.696 20.693333v124.458667c0 38.826667-46.933333 58.282667-74.410667 30.805333l-243.882667-243.84c-27.477333-27.434667-8.021333-74.453333 30.848-74.453333h124.288zM708.053333 512.170667a196.224 196.224 0 1 1-392.448 0 196.224 196.224 0 0 1 392.405334 0z" p-id="8471"></path></svg>