<?xml version="1.0" standalone="no"?><!DOCTYPE svg PUBLIC "-//W3C//DTD SVG 1.1//EN" "http://www.w3.org/Graphics/SVG/1.1/DTD/svg11.dtd"><svg t="1756461520949" class="icon" viewBox="0 0 1024 1024" version="1.1" xmlns="http://www.w3.org/2000/svg" p-id="4438" xmlns:xlink="http://www.w3.org/1999/xlink" width="200" height="200"><path d="M512 106.666667a256 256 0 0 0-256 256V426.666667h-21.333333a85.333333 85.333333 0 0 0-85.333334 85.333333v298.666667a85.333333 85.333333 0 0 0 85.333334 85.333333h554.666666a85.333333 85.333333 0 0 0 85.333334-85.333333v-298.666667a85.333333 85.333333 0 0 0-85.333334-85.333333H384V362.666667a128 128 0 0 1 128-128h21.333333a106.666667 106.666667 0 0 1 104.533334 85.461333c2.346667 11.52 11.690667 21.205333 23.466666 21.205333h85.333334a19.925333 19.925333 0 0 0 20.394666-21.333333 234.666667 234.666667 0 0 0-233.728-213.333333H512z m-42.666667 512a42.666667 42.666667 0 1 1 85.333334 0v85.333333a42.666667 42.666667 0 1 1-85.333334 0v-85.333333z" p-id="4439"></path></svg>