<svg width="13" height="14" viewBox="0 0 13 14" fill="none" xmlns="http://www.w3.org/2000/svg">
<path d="M5.09228 11.2959H1.98371C1.26837 11.2959 0.688477 10.716 0.688477 10.0007V3.52448C0.688477 2.80915 1.26837 2.22925 1.98371 2.22925H9.75513C10.4705 2.22925 11.0504 2.80914 11.0504 3.52448V5.46734" stroke="#262933" stroke-width="1.12" stroke-linecap="round"/>
<path d="M8.60059 1.56714V3.89856" stroke="#262933" stroke-width="1.12" stroke-linecap="round" stroke-linejoin="round"/>
<path d="M3.9375 1.56714V3.89856" stroke="#262933" stroke-width="1.12" stroke-linecap="round" stroke-linejoin="round"/>
<path d="M10.4069 8.81694L10.9589 8.21163C11.024 8.1402 11.0151 8.028 10.9349 7.97413C10.5639 7.72511 10.1175 7.57983 9.63709 7.57983C8.34948 7.57983 7.30566 8.62365 7.30566 9.91126C7.30566 10.2284 7.36901 10.5308 7.48373 10.8065M9.1375 11.2435L8.61987 11.7776C8.54445 11.8554 8.56232 11.9836 8.6607 12.029C8.95771 12.1662 9.28846 12.2427 9.63709 12.2427C10.9247 12.2427 11.9685 11.1989 11.9685 9.91126C11.9685 9.7372 11.9494 9.5676 11.9133 9.40442" stroke="#262933" stroke-width="1.04" stroke-linecap="round"/>
</svg>
