<svg width="20" height="20" viewBox="0 0 20 20" fill="none" xmlns="http://www.w3.org/2000/svg">
<path d="M11.4002 13.7008C10.9583 13.7008 10.6002 14.059 10.6001 14.5008C10.6001 14.9426 10.9583 15.3008 11.4001 15.3008L11.4002 13.7008ZM17.9121 13.7009L11.4002 13.7008L11.4001 15.3008L17.9121 15.3009L17.9121 13.7009Z" fill="#262933"/>
<path d="M16.0583 17.5L19.0583 14.5L16.0583 11.5" stroke="#262933" stroke-width="1.6" stroke-linecap="round" stroke-linejoin="round"/>
<path d="M7.25012 16.8327H4.25012C2.86941 16.8327 1.75012 15.7134 1.75012 14.3327V5.5C1.75012 4.11929 2.86941 3 4.25012 3H15.7501C17.1308 3 18.2501 4.11929 18.2501 5.5V7.5" stroke="#262933" stroke-width="1.6" stroke-linecap="round"/>
<path d="M5 7.66634H10" stroke="#262933" stroke-width="1.6" stroke-linecap="round" stroke-linejoin="round"/>
</svg>
