<?xml version="1.0" standalone="no"?><!DOCTYPE svg PUBLIC "-//W3C//DTD SVG 1.1//EN" "http://www.w3.org/Graphics/SVG/1.1/DTD/svg11.dtd"><svg t="1756992476565" class="icon" viewBox="0 0 1024 1024" version="1.1" xmlns="http://www.w3.org/2000/svg" p-id="2664" xmlns:xlink="http://www.w3.org/1999/xlink" width="200" height="200"><path d="M512 938.666667c235.648 0 426.666667-191.018667 426.666667-426.666667S747.648 85.333333 512 85.333333 85.333333 276.352 85.333333 512s191.018667 426.666667 426.666667 426.666667z m59.904-525.184h4.522667c-8.021333 39.210667-19.2 77.056-30.378667 114.773333-17.066667 57.6-34.005333 114.944-39.424 176.298667 1.28 1.28 1.834667 1.834667 2.517333 2.090666a6.272 6.272 0 0 0 1.962667 0.170667c19.925333 7.978667 34.346667-13.738667 46.506667-32 8.533333-12.8 15.914667-23.936 23.338666-22.186667 20.309333 4.522667-13.482667 40.618667-18.005333 45.141334-18.048 22.570667-51.84 63.189333-92.373333 63.189333-29.312 0-58.624-17.962667-54.101334-65.450667 2.944-31.018667 15.530667-70.656 27.648-108.885333 6.4-20.224 12.757333-40.106667 17.408-58.069333l3.114667-11.349334c10.410667-37.717333 18.688-67.626667-34.645333-67.626666v-11.306667c20.309333-7.893333 45.653333-10.154667 70.997333-12.373333 25.344-2.261333 50.688-4.522667 70.912-12.416z m-41.045333-140.586667a49.493333 49.493333 0 0 1 27.562666-8.362667 49.962667 49.962667 0 0 1 49.578667 49.664 49.706667 49.706667 0 0 1-59.264 48.725334 49.536 49.536 0 0 1-36.138667-67.712c3.754667-9.088 10.112-16.853333 18.261334-22.314667z" p-id="2665"></path></svg>