<?xml version="1.0" standalone="no"?><!DOCTYPE svg PUBLIC "-//W3C//DTD SVG 1.1//EN" "http://www.w3.org/Graphics/SVG/1.1/DTD/svg11.dtd"><svg t="1759057330538" class="icon" viewBox="0 0 1024 1024" version="1.1" xmlns="http://www.w3.org/2000/svg" p-id="6588" xmlns:xlink="http://www.w3.org/1999/xlink" width="200" height="200"><path d="M512 938.666667c235.648 0 426.666667-191.018667 426.666667-426.666667S747.648 85.333333 512 85.333333 85.333333 276.352 85.333333 512s191.018667 426.666667 426.666667 426.666667z m185.429333-572.928a21.333333 21.333333 0 0 1 30.165334 0l30.165333 30.165333a21.333333 21.333333 0 0 1 0 30.208l-264.917333 264.874667a42.666667 42.666667 0 0 1-60.330667 0l-152.917333-152.917334a21.333333 21.333333 0 0 1 0-30.165333l30.165333-30.165333a21.333333 21.333333 0 0 1 30.208 0l122.709333 122.752 234.752-234.752z" p-id="6589"></path></svg>