<svg width="24" height="24" viewBox="0 0 24 24" fill="none" xmlns="http://www.w3.org/2000/svg">
<path d="M21.5 17.3522C21.9418 17.3521 22.3 16.994 22.3 16.5521C22.2999 16.1103 21.9418 15.7521 21.4999 15.7522L21.5 17.3522ZM15.7432 20.1268C16.0563 20.4385 16.5628 20.4374 16.8746 20.1243C17.1863 19.8112 17.1852 19.3046 16.872 18.9929L15.7432 20.1268ZM13.2856 16.5513L12.7212 15.9844C12.5704 16.1345 12.4856 16.3385 12.4856 16.5513C12.4856 16.7641 12.5704 16.9681 12.7212 17.1182L13.2856 16.5513ZM16.872 14.1097C17.1852 13.7979 17.1863 13.2914 16.8746 12.9783C16.5628 12.6652 16.0563 12.6641 15.7432 12.9758L16.872 14.1097ZM13.9 17.3523L21.5 17.3522L21.4999 15.7522L13.8999 15.7523L13.9 17.3523ZM16.872 18.9929L13.8501 15.9844L12.7212 17.1182L15.7432 20.1268L16.872 18.9929ZM13.8501 17.1182L16.872 14.1097L15.7432 12.9758L12.7212 15.9844L13.8501 17.1182Z" fill="#262933"/>
<path d="M8.82857 19.7142H5.50714C4.12249 19.7142 3 18.5917 3 17.2071V6.79279C3 5.40813 4.12249 4.28564 5.50714 4.28564H17.9786C19.3632 4.28564 20.4857 5.40813 20.4857 6.79279V9.84017" stroke="#262933" stroke-width="1.6" stroke-linecap="round"/>
<path d="M6.76709 8.78564H11.7814" stroke="#262933" stroke-width="1.6" stroke-linecap="round" stroke-linejoin="round"/>
</svg>
