<svg width="20" height="20" viewBox="0 0 20 20" fill="none" xmlns="http://www.w3.org/2000/svg">
<g clip-path="url(#clip0_1142_368)">
<circle cx="10" cy="10" r="8.7" stroke="#262933" stroke-width="1.6"/>
<path fill-rule="evenodd" clip-rule="evenodd" d="M7.79029 5.80546C8.37634 5.28973 9.1712 5 10 5C10.8288 5 11.6237 5.28973 12.2097 5.80546C12.7958 6.32118 13.125 7.02065 13.125 7.75C13.125 8.833 12.7364 9.402 11.7386 10.28L11.5852 10.418C11.0057 10.945 10.8523 11.211 10.8523 11.75C10.8523 11.9489 10.7625 12.1397 10.6026 12.2803C10.4428 12.421 10.226 12.5 10 12.5C9.77396 12.5 9.55718 12.421 9.39735 12.2803C9.23752 12.1397 9.14773 11.9489 9.14773 11.75C9.14773 10.667 9.53636 10.098 10.5341 9.22L10.6875 9.082C11.267 8.555 11.4205 8.289 11.4205 7.75C11.4205 7.41848 11.2708 7.10054 11.0044 6.86612C10.738 6.6317 10.3767 6.5 10 6.5C9.62327 6.5 9.26197 6.6317 8.99559 6.86612C8.7292 7.10054 8.57955 7.41848 8.57955 7.75L8.57159 7.852C8.54216 8.04025 8.43262 8.21165 8.26511 8.33157C8.0976 8.45148 7.88462 8.51098 7.66918 8.49803C7.45375 8.48507 7.25193 8.40064 7.10451 8.26179C6.9571 8.12294 6.87507 7.94002 6.875 7.75C6.875 7.02065 7.20424 6.32118 7.79029 5.80546ZM10.0463 13.125C9.78444 13.125 9.53326 13.229 9.34807 13.4142C9.16288 13.5994 9.05884 13.8506 9.05884 14.1125C9.05884 14.3744 9.16288 14.6256 9.34807 14.8108C9.53326 14.996 9.78444 15.1 10.0463 15.1C10.3082 15.1 10.5594 14.996 10.7446 14.8108C10.9298 14.6256 11.0338 14.3744 11.0338 14.1125C11.0338 13.8506 10.9298 13.5994 10.7446 13.4142C10.5594 13.229 10.3082 13.125 10.0463 13.125Z" fill="#262933"/>
</g>
<defs>
<clipPath id="clip0_1142_368">
<rect width="20" height="20" fill="white"/>
</clipPath>
</defs>
</svg>
