<svg width="20" height="20" viewBox="0 0 20 20" fill="none" xmlns="http://www.w3.org/2000/svg">
<path d="M1.39961 3.76395C1.39961 2.82506 2.16073 2.06395 3.09961 2.06395H6.76627C8.59494 2.06395 10.0774 3.54638 10.0774 5.37505V17.9361H3.72461C2.44055 17.9361 1.39961 16.8952 1.39961 15.6111V3.76395Z" stroke="#262933" stroke-width="1.6"/>
<path d="M18.7996 3.76395C18.7996 2.82506 18.0385 2.06395 17.0996 2.06395H13.433C11.6043 2.06395 10.1219 3.54638 10.1219 5.37505V17.9361H16.4746C17.7587 17.9361 18.7996 16.8952 18.7996 15.6111V3.76395Z" stroke="#262933" stroke-width="1.6"/>
<rect x="12.2178" y="6.91687" width="3.75" height="1.6" rx="0.8" fill="#262933"/>
<rect x="12.2178" y="10" width="2.5" height="1.6" rx="0.8" fill="#262933"/>
</svg>
