<svg width="57" height="56" viewBox="0 0 57 56" fill="none" xmlns="http://www.w3.org/2000/svg">
<path d="M28.5 1.75C42.9975 1.75 54.75 13.5025 54.75 28C54.75 42.4975 42.9975 54.25 28.5 54.25C14.0025 54.25 2.25 42.4975 2.25 28C2.25 13.5025 14.0025 1.75 28.5 1.75Z" stroke="#F14360" stroke-width="3.5"/>
<path fill-rule="evenodd" clip-rule="evenodd" d="M30.5002 16C30.5002 14.8954 29.6048 14 28.5002 14C27.3957 14 26.5002 14.8954 26.5002 16V31.75C26.5002 32.8546 27.3957 33.75 28.5002 33.75C29.6048 33.75 30.5002 32.8546 30.5002 31.75V16ZM28.5 42.25C29.8807 42.25 31 41.1307 31 39.75C31 38.3693 29.8807 37.25 28.5 37.25C27.1193 37.25 26 38.3693 26 39.75C26 41.1307 27.1193 42.25 28.5 42.25Z" fill="#F14360"/>
</svg>
