<svg width="3" height="8" viewBox="0 0 3 8" fill="none" xmlns="http://www.w3.org/2000/svg">
<path d="M1.704 2.668C1.432 2.668 1.196 2.568 0.996 2.368C0.804 2.168 0.708 1.928 0.708 1.648C0.708 1.368 0.804 1.128 0.996 0.927999C1.196 0.728 1.432 0.628 1.704 0.628C1.984 0.628 2.22 0.728 2.412 0.927999C2.612 1.128 2.712 1.368 2.712 1.648C2.712 1.928 2.612 2.168 2.412 2.368C2.22 2.568 1.984 2.668 1.704 2.668ZM1.704 7.144C1.432 7.144 1.196 7.044 0.996 6.844C0.804 6.644 0.708 6.404 0.708 6.124C0.708 5.844 0.804 5.604 0.996 5.404C1.196 5.204 1.432 5.104 1.704 5.104C1.976 5.104 2.212 5.204 2.412 5.404C2.612 5.604 2.712 5.844 2.712 6.124C2.712 6.404 2.612 6.644 2.412 6.844C2.22 7.044 1.984 7.144 1.704 7.144Z" fill="#70798C"/>
</svg>
