<svg width="10" height="10" viewBox="0 0 10 10" fill="none" xmlns="http://www.w3.org/2000/svg">
<path fill-rule="evenodd" clip-rule="evenodd" d="M5 8.83333C7.11709 8.83333 8.83333 7.11709 8.83333 5C8.83333 2.88291 7.11709 1.16667 5 1.16667C2.88291 1.16667 1.16667 2.88291 1.16667 5C1.16667 7.11709 2.88291 8.83333 5 8.83333ZM10 5C10 7.76142 7.76142 10 5 10C2.23858 10 0 7.76142 0 5C0 2.23858 2.23858 0 5 0C7.76142 0 10 2.23858 10 5Z" fill="#8E949E"/>
<rect x="4.375" y="2.5" width="1.25" height="1.25" fill="#8E949E"/>
<path d="M4.375 4.58366C4.375 4.35354 4.56155 4.16699 4.79167 4.16699H5.625V7.08366C5.625 7.31378 5.43845 7.50033 5.20833 7.50033H4.375V4.58366Z" fill="#8E949E"/>
</svg>
