<svg width="12" height="12" viewBox="0 0 12 12" fill="none" xmlns="http://www.w3.org/2000/svg">
<path d="M6.7891 8.2002C6.51295 8.20018 6.28908 8.42402 6.28906 8.70016C6.28904 8.9763 6.51289 9.20018 6.78903 9.2002L6.7891 8.2002ZM10.6963 8.20047L6.7891 8.2002L6.78903 9.2002L10.6962 9.20047L10.6963 8.20047Z" fill="#8E949E"/>
<path d="M9.58203 10.5004L11.382 8.70039L9.58203 6.90039" stroke="#8E949E" stroke-linecap="round" stroke-linejoin="round"/>
<path d="M4.33333 10.0994H2.5C1.67157 10.0994 1 9.42784 1 8.59941V3.2998C1 2.47138 1.67157 1.7998 2.5 1.7998H9.5C10.3284 1.7998 11 2.47138 11 3.2998V4.4998" stroke="#8E949E" stroke-linecap="round"/>
<path d="M3 4.59961H6" stroke="#8E949E" stroke-linecap="round" stroke-linejoin="round"/>
</svg>
