<svg width="12" height="13" viewBox="0 0 12 13" fill="none" xmlns="http://www.w3.org/2000/svg">
<path fill-rule="evenodd" clip-rule="evenodd" d="M6 11.4091C8.71122 11.4091 10.9091 9.21122 10.9091 6.5C10.9091 3.78878 8.71122 1.59091 6 1.59091C3.28878 1.59091 1.09091 3.78878 1.09091 6.5C1.09091 9.21122 3.28878 11.4091 6 11.4091ZM12 6.5C12 9.81371 9.31371 12.5 6 12.5C2.68629 12.5 0 9.81371 0 6.5C0 3.18629 2.68629 0.5 6 0.5C9.31371 0.5 12 3.18629 12 6.5Z" fill="#2E384D"/>
<rect x="5.2998" y="3.56982" width="1.4" height="1.4" rx="0.7" fill="#2E384D"/>
<path d="M5.39981 5.88656C5.39981 5.63343 5.60501 5.42822 5.85814 5.42822H6.59981V8.96989C6.59981 9.22302 6.39461 9.42822 6.14148 9.42822H5.39981V5.88656Z" fill="#2E384D"/>
</svg>
