<svg width="101" height="100" viewBox="0 0 101 100" fill="none" xmlns="http://www.w3.org/2000/svg">
<g clip-path="url(#clip0_1115_8449)">
<ellipse cx="58.8808" cy="74.5266" rx="38.1142" ry="11.5557" transform="rotate(-15 58.8808 74.5266)" fill="#DCDCDC"/>
<path d="M46.379 94.3826C51.9148 93.5358 57.8062 92.3044 63.8603 90.6822C72.1197 88.4691 79.753 85.7775 86.3444 82.866" stroke="#262933" stroke-linecap="round"/>
<mask id="mask0_1115_8449" style="mask-type:alpha" maskUnits="userSpaceOnUse" x="-14" y="-14" width="119" height="104">
<path fill-rule="evenodd" clip-rule="evenodd" d="M104.234 -13.4175L-13.3982 16.2244L11.3863 84.8888L22.1952 82.3126C22.0238 83.0175 22.0181 83.6961 22.1907 84.3404C23.8667 90.5951 41.7164 91.2469 62.0592 85.796C82.2448 80.3873 97.3002 71.0023 95.8943 64.7467L104.234 62.759L104.234 -13.4175Z" fill="#D9D9D9"/>
</mask>
<g mask="url(#mask0_1115_8449)">
<ellipse cx="59.0254" cy="74.4708" rx="38.1332" ry="11.7248" transform="rotate(-15 59.0254 74.4708)" fill="#DCDCDC"/>
<mask id="path-5-inside-1_1115_8449" fill="white">
<path fill-rule="evenodd" clip-rule="evenodd" d="M64.9087 13.7315C64.642 13.8945 64.3877 14.0933 64.1515 14.3295L15.5164 62.9645C15.4642 63.0167 15.4138 63.0698 15.3653 63.1238L11.4814 64.5702L15.172 68.2362C15.6773 68.8974 16.4012 69.4133 17.3096 69.6567L83.7463 87.4583C86.7206 88.2553 89.4422 85.5336 88.6453 82.5593L70.8436 16.1226C70.5916 15.1822 70.0476 14.4396 69.3527 13.9325L65.6989 10.2567L64.9087 13.7315Z"/>
</mask>
<path fill-rule="evenodd" clip-rule="evenodd" d="M64.9087 13.7315C64.642 13.8945 64.3877 14.0933 64.1515 14.3295L15.5164 62.9645C15.4642 63.0167 15.4138 63.0698 15.3653 63.1238L11.4814 64.5702L15.172 68.2362C15.6773 68.8974 16.4012 69.4133 17.3096 69.6567L83.7463 87.4583C86.7206 88.2553 89.4422 85.5336 88.6453 82.5593L70.8436 16.1226C70.5916 15.1822 70.0476 14.4396 69.3527 13.9325L65.6989 10.2567L64.9087 13.7315Z" fill="#262933"/>
<path d="M64.9087 13.7315L65.4302 14.5847L65.7902 14.3647L65.8838 13.9532L64.9087 13.7315ZM64.1515 14.3295L63.4444 13.6224L63.4444 13.6224L64.1515 14.3295ZM15.5164 62.9645L16.2235 63.6716L16.2236 63.6716L15.5164 62.9645ZM15.3653 63.1238L15.7143 64.0609L15.9441 63.9753L16.1082 63.7931L15.3653 63.1238ZM11.4814 64.5702L11.1324 63.6331L9.66803 64.1784L10.7767 65.2797L11.4814 64.5702ZM15.172 68.2362L15.9666 67.629L15.9251 67.5748L15.8768 67.5267L15.172 68.2362ZM88.6453 82.5593L89.6112 82.3005L88.6453 82.5593ZM70.8436 16.1226L71.8095 15.8638L71.8095 15.8638L70.8436 16.1226ZM69.3527 13.9325L68.6435 14.6374L68.6993 14.6936L68.7632 14.7403L69.3527 13.9325ZM65.6989 10.2567L66.4081 9.55171L65.1268 8.2627L64.7238 10.0349L65.6989 10.2567ZM64.3872 12.8782C64.0527 13.0826 63.7362 13.3306 63.4444 13.6224L64.8586 15.0366C65.0391 14.8561 65.2312 14.7063 65.4302 14.5847L64.3872 12.8782ZM63.4444 13.6224L14.8093 62.2574L16.2236 63.6716L64.8586 15.0366L63.4444 13.6224ZM14.8093 62.2574C14.7449 62.3219 14.6825 62.3876 14.6223 62.4544L16.1082 63.7931C16.1452 63.7521 16.1836 63.7116 16.2235 63.6716L14.8093 62.2574ZM15.0163 62.1866L11.1324 63.6331L11.8304 65.5073L15.7143 64.0609L15.0163 62.1866ZM10.7767 65.2797L14.4673 68.9457L15.8768 67.5267L12.1861 63.8607L10.7767 65.2797ZM14.3775 68.8434C15.0126 69.6745 15.9225 70.3203 17.0508 70.6226L17.5684 68.6907C16.8799 68.5062 16.342 68.1203 15.9666 67.629L14.3775 68.8434ZM17.0508 70.6226L83.4875 88.4242L84.0051 86.4924L17.5684 68.6907L17.0508 70.6226ZM83.4875 88.4242C87.2053 89.4204 90.6074 86.0184 89.6112 82.3005L87.6793 82.8182C88.2771 85.0489 86.2358 87.0901 84.0051 86.4924L83.4875 88.4242ZM89.6112 82.3005L71.8095 15.8638L69.8777 16.3815L87.6793 82.8182L89.6112 82.3005ZM71.8095 15.8638C71.4964 14.6954 70.8153 13.7618 69.9421 13.1247L68.7632 14.7403C69.28 15.1173 69.6868 15.6691 69.8777 16.3815L71.8095 15.8638ZM70.0619 13.2275L66.4081 9.55171L64.9896 10.9617L68.6435 14.6374L70.0619 13.2275ZM64.7238 10.0349L63.9336 13.5097L65.8838 13.9532L66.674 10.4784L64.7238 10.0349Z" fill="#262933" mask="url(#path-5-inside-1_1115_8449)"/>
<path d="M60.3231 10.4994C62.5004 8.32207 66.2183 9.31827 67.0152 12.2925L84.8169 78.7292C85.6139 81.7035 82.8922 84.4252 79.9179 83.6282L13.4812 65.8266C10.507 65.0296 9.51076 61.3118 11.6881 59.1344L60.3231 10.4994Z" fill="#FFD21F"/>
<path fill-rule="evenodd" clip-rule="evenodd" d="M58.2765 31.5234C56.6857 31.0971 55.0507 32.0411 54.6244 33.6319L51.1515 46.5932C50.7252 48.1839 51.6692 49.819 53.26 50.2452C54.8507 50.6715 56.4858 49.7275 56.912 48.1367L60.385 35.1754C60.8112 33.5847 59.8672 31.9496 58.2765 31.5234ZM50.9436 58.8862C52.5344 59.3124 54.1695 58.3684 54.5957 56.7776C55.0219 55.1869 54.0779 53.5518 52.4872 53.1256C50.8965 52.6993 49.2614 53.6434 48.8351 55.2341C48.4089 56.8248 49.3529 58.4599 50.9436 58.8862Z" fill="#262933"/>
</g>
<path d="M15.8415 4.67224C15.6686 8.50764 12.5985 11.5778 8.76311 11.7506C12.5985 11.9235 15.6686 14.9937 15.8415 18.8291C16.0144 14.9937 19.0845 11.9235 22.9199 11.7506C19.0845 11.5778 16.0144 8.50764 15.8415 4.67224Z" fill="#262933"/>
<path d="M34.8896 14.1893C34.7762 16.7034 32.7638 18.7157 30.2498 18.8291C32.7638 18.9424 34.7762 20.9548 34.8896 23.4688C35.0029 20.9548 37.0153 18.9424 39.5293 18.8291C37.0153 18.7157 35.0029 16.7034 34.8896 14.1893Z" fill="#262933"/>
</g>
<defs>
<clipPath id="clip0_1115_8449">
<rect width="100" height="100" fill="white" transform="translate(0.5)"/>
</clipPath>
</defs>
</svg>
