<svg width="14" height="15" viewBox="0 0 14 15" fill="none" xmlns="http://www.w3.org/2000/svg">
<g clip-path="url(#clip0_1407_18306)">
<circle cx="7" cy="7.5" r="6.4" stroke="#262933" stroke-width="1.2"/>
<path fill-rule="evenodd" clip-rule="evenodd" d="M5.4532 4.56382C5.86344 4.20281 6.41984 4 7 4C7.58016 4 8.13656 4.20281 8.5468 4.56382C8.95703 4.92483 9.1875 5.41446 9.1875 5.925C9.1875 6.6831 8.91545 7.0814 8.21705 7.696L8.10966 7.7926C7.70398 8.1615 7.59659 8.3477 7.59659 8.725C7.59659 8.86424 7.53374 8.99777 7.42185 9.09623C7.30997 9.19469 7.15823 9.25 7 9.25C6.84177 9.25 6.69003 9.19469 6.57815 9.09623C6.46626 8.99777 6.40341 8.86424 6.40341 8.725C6.40341 7.9669 6.67545 7.5686 7.37386 6.954L7.48125 6.8574C7.88693 6.4885 7.99432 6.3023 7.99432 5.925C7.99432 5.69294 7.88956 5.47038 7.70309 5.30628C7.51662 5.14219 7.26371 5.05 7 5.05C6.73629 5.05 6.48338 5.14219 6.29691 5.30628C6.11044 5.47038 6.00568 5.69294 6.00568 5.925L6.00011 5.9964C5.97951 6.12818 5.90283 6.24815 5.78558 6.3321C5.66832 6.41604 5.51923 6.45768 5.36843 6.44862C5.21762 6.43955 5.07635 6.38045 4.97316 6.28325C4.86997 6.18606 4.81255 6.05802 4.8125 5.925C4.8125 5.41446 5.04297 4.92483 5.4532 4.56382ZM7.03244 9.6875C6.84911 9.6875 6.67328 9.76033 6.54365 9.88996C6.41401 10.0196 6.34119 10.1954 6.34119 10.3787C6.34119 10.5621 6.41401 10.7379 6.54365 10.8675C6.67328 10.9972 6.84911 11.07 7.03244 11.07C7.21577 11.07 7.39159 10.9972 7.52122 10.8675C7.65086 10.7379 7.72369 10.5621 7.72369 10.3787C7.72369 10.1954 7.65086 10.0196 7.52122 9.88996C7.39159 9.76033 7.21577 9.6875 7.03244 9.6875Z" fill="#262933"/>
</g>
<defs>
<clipPath id="clip0_1407_18306">
<rect width="14" height="14" fill="white" transform="translate(0 0.5)"/>
</clipPath>
</defs>
</svg>
