<svg width="16" height="16" viewBox="0 0 16 16" fill="none" xmlns="http://www.w3.org/2000/svg">
<path d="M5.99233 13.3504H3.32979C2.59537 13.3504 2 12.755 2 12.0206V3.08077C2 2.34635 2.59537 1.75098 3.32979 1.75098H11.6138C12.3482 1.75098 12.9436 2.34635 12.9436 3.08077V7.49278C12.9436 7.86 12.6459 8.15768 12.2787 8.15768H9.68226C9.31505 8.15768 9.01737 8.45537 9.01737 8.82258V13.9582C9.01737 14.2523 9.37118 14.4015 9.58182 14.1963L11.0503 12.7655C11.3114 12.5111 11.7286 12.5143 11.9857 12.7728L13.3806 14.1751C13.5898 14.3854 13.9488 14.2373 13.9488 13.9407V10.5119" stroke="#262933" stroke-width="1.3" stroke-linecap="round"/>
<path d="M4.5 4.75879H9.70687" stroke="#262933" stroke-width="1.3" stroke-linecap="round"/>
<path d="M4.5 7.32227H6.25665" stroke="#262933" stroke-width="1.3" stroke-linecap="round"/>
</svg>
