<svg width="14" height="15" viewBox="0 0 14 15" fill="none" xmlns="http://www.w3.org/2000/svg">
<g clip-path="url(#clip0_1407_18314)">
<path d="M11.7992 6.0498V2.99961C11.7992 2.22641 11.1724 1.59961 10.3992 1.59961H2.59922C1.82602 1.59961 1.19922 2.22641 1.19922 2.99961V11.5746C1.19922 12.3478 1.82602 12.9746 2.59922 12.9746H5.69922" stroke="#262933" stroke-width="1.2" stroke-linecap="round" stroke-linejoin="round"/>
<path d="M3.64844 4.4873H7.84844" stroke="#262933" stroke-width="1.2" stroke-linecap="round" stroke-linejoin="round"/>
<path d="M3.64844 7.28711L5.74844 7.28711" stroke="#262933" stroke-width="1.2" stroke-linecap="round" stroke-linejoin="round"/>
<path d="M12.6988 11.0498C12.6988 12.3753 11.6243 13.4498 10.2988 13.4498C8.97335 13.4498 7.89883 12.3753 7.89883 11.0498C7.89883 9.72433 8.97335 8.6498 10.2988 8.6498C11.6243 8.6498 12.6988 9.72433 12.6988 11.0498Z" stroke="#262933" stroke-width="1.2"/>
</g>
<defs>
<clipPath id="clip0_1407_18314">
<rect width="14" height="14" fill="white" transform="translate(0 0.5)"/>
</clipPath>
</defs>
</svg>
