<svg width="14" height="14" viewBox="0 0 14 14" fill="none" xmlns="http://www.w3.org/2000/svg">
<path d="M1.2915 5.07204C1.2915 4.36914 1.86132 3.79932 2.56423 3.79932H8.92787C9.63077 3.79932 10.2006 4.36914 10.2006 5.07204V11.4357C10.2006 12.1386 9.63077 12.7084 8.92787 12.7084H2.56423C1.86132 12.7084 1.2915 12.1386 1.2915 11.4357V5.07204Z" stroke="#262933" stroke-width="1.2"/>
<path fill-rule="evenodd" clip-rule="evenodd" d="M5.65511 0.653809C4.67104 0.653809 3.87329 1.45156 3.87329 2.43563V3.79929H5.07329V2.43563C5.07329 2.1143 5.33378 1.85381 5.65511 1.85381H10.7369C11.5151 1.85381 12.146 2.48468 12.146 3.2629V8.34472C12.146 8.66605 11.8855 8.92654 11.5642 8.92654H10.2005V10.1265H11.5642C12.5483 10.1265 13.346 9.32879 13.346 8.34472V3.2629C13.346 1.82194 12.1779 0.653809 10.7369 0.653809H5.65511Z" fill="#262933"/>
</svg>
