<svg width="33" height="32" viewBox="0 0 33 32" fill="none" xmlns="http://www.w3.org/2000/svg">
<path d="M26.9887 15.2214C26.9887 20.9807 22.8076 26.375 17.0953 27.9532C16.7066 28.0593 16.2826 28.0593 15.8939 27.9532C10.1816 26.375 6.00049 20.9807 6.00049 15.2214V10.0508C6.00049 9.08505 6.73073 7.98971 7.63763 7.6246L14.1979 4.93927C15.6701 4.3386 17.3308 4.3386 18.803 4.93927L25.3633 7.6246C26.2585 7.98971 27.0005 9.08505 27.0005 10.0508L26.9887 15.2214Z" stroke="#262933" stroke-width="1.77778" stroke-linecap="round" stroke-linejoin="round"/>
<path d="M16.506 14.6019C16.4557 14.6019 16.3928 14.6019 16.3425 14.6019C15.16 14.5641 14.2166 13.5829 14.2166 12.3878C14.2166 11.1676 15.2104 10.1738 16.4306 10.1738C17.6508 10.1738 18.6446 11.1676 18.6446 12.3878C18.632 13.5955 17.6885 14.5641 16.506 14.6019Z" stroke="url(#paint0_linear_2439_8899)" stroke-width="1.6" stroke-linecap="round" stroke-linejoin="round"/>
<path d="M13.6462 18.8906C12.266 19.6957 12.266 21.0166 13.6462 21.8217C15.2133 22.74 17.7867 22.74 19.3537 21.8217C20.7339 21.0166 20.7339 19.6957 19.3537 18.8906C17.8011 17.9723 15.2276 17.9723 13.6462 18.8906Z" stroke="#262933" stroke-width="1.6" stroke-linecap="round" stroke-linejoin="round"/>
<defs>
<linearGradient id="paint0_linear_2439_8899" x1="18.5994" y1="11.7101" x2="14.2617" y2="11.7101" gradientUnits="userSpaceOnUse">
<stop stop-color="#FFC088"/>
<stop offset="1" stop-color="#FEB360"/>
</linearGradient>
</defs>
</svg>
