<svg width="64" height="64" viewBox="0 0 64 64" fill="none" xmlns="http://www.w3.org/2000/svg">
<g clip-path="url(#clip0_131_3969)">
<path d="M56.7612 21.3685C57.7315 21.3688 58.516 22.1589 58.5104 23.1292L58.3285 53.1286C58.3231 54.0307 57.6362 54.7703 56.7575 54.8594L56.5787 54.868L11.5125 54.8684L11.3328 54.8595C10.4466 54.7693 9.75684 54.0178 9.76235 53.1077L9.94416 23.1083C9.94973 22.2061 10.6372 21.4672 11.5162 21.3785L11.694 21.3689L56.7612 21.3685Z" fill="#131516" stroke="white" stroke-width="0.5"/>
<path d="M9.85901 26H58.4102V32H9.85901V26Z" fill="white"/>
<path d="M38.3221 48.5153L41.1988 42.0324L43.6271 42.08L39.095 50.9909L36.7908 50.9457L35.447 41.9196L37.7454 41.9646L38.3221 48.5153ZM52.9132 42.269C53.502 42.2929 54.0267 42.4306 54.4874 42.6827C54.9481 42.9349 55.3024 43.2834 55.5492 43.7291C55.7959 44.1749 55.8881 44.7069 55.8265 45.3237C55.7599 45.9898 55.5367 46.5379 55.1575 46.9672C54.7824 47.3964 54.3147 47.7122 53.7548 47.9155C53.1987 48.1147 52.611 48.2085 51.9931 48.1964L50.5091 48.1634L49.9191 51.2032L47.8062 51.1617L49.54 42.196L52.9132 42.269ZM45.5889 51.1163L43.476 51.0749L45.2157 42.1092L47.3227 42.1505L45.5889 51.1163ZM50.8329 46.4946L52.1001 46.5234C52.3677 46.5286 52.614 46.4865 52.8381 46.3962C53.0625 46.3017 53.2494 46.1629 53.3972 45.9803C53.5449 45.7978 53.6415 45.5686 53.688 45.2935C53.7295 45.0679 53.7274 44.8561 53.682 44.6575C53.6364 44.459 53.5431 44.2942 53.4015 44.1637C53.2599 44.0331 53.0631 43.9584 52.812 43.9411L51.3359 43.9063L50.8329 46.4946Z" fill="white"/>
<path d="M26.479 43.6095C26.3918 43.3474 26.0555 43.275 25.8682 43.478L21.1144 48.6288C20.9939 48.7594 20.7965 48.7835 20.6481 48.6856L11.7649 42.829C11.5524 42.6889 11.2655 42.8054 11.2108 43.0539L8.92355 53.4453C8.88534 53.6188 8.72703 53.7392 8.54956 53.7296L1.55067 53.3497C1.2749 53.3348 1.08419 53.6212 1.20433 53.8699L5.50104 62.7635L29.5973 52.9815L26.479 43.6095Z" fill="#247CFF" stroke="#247CFF" stroke-width="0.533333"/>
<path d="M15.8107 49.096C15.8239 48.9999 15.785 48.9041 15.7086 48.8444L13.1368 46.837C13.0817 46.794 13.0007 46.8269 12.9912 46.8961L12.5464 50.1281C12.5332 50.2242 12.5721 50.32 12.6485 50.3797L15.2203 52.3871C15.2754 52.4301 15.3564 52.3973 15.3659 52.328L15.8107 49.096Z" fill="#131516" stroke="#247CFF" stroke-width="0.533333"/>
<circle cx="53.1445" cy="10.1445" r="8.89042" transform="rotate(-30 53.1445 10.1445)" fill="#A7F757"/>
</g>
<defs>
<clipPath id="clip0_131_3969">
<rect width="64" height="64" fill="white"/>
</clipPath>
</defs>
</svg>
