<svg width="101" height="100" viewBox="0 0 101 100" fill="none" xmlns="http://www.w3.org/2000/svg">
<g clip-path="url(#clip0_1115_8667)">
<ellipse cx="58.8808" cy="74.5266" rx="38.1142" ry="11.5557" transform="rotate(-15 58.8808 74.5266)" fill="#595959"/>
<path d="M46.379 94.3826C51.9148 93.5358 57.8062 92.3044 63.8603 90.6822C72.1197 88.4691 79.753 85.7775 86.3444 82.866" stroke="#FAFAFA" stroke-linecap="round"/>
<mask id="mask0_1115_8667" style="mask-type:alpha" maskUnits="userSpaceOnUse" x="-14" y="-14" width="119" height="104">
<path fill-rule="evenodd" clip-rule="evenodd" d="M104.234 -13.4175L-13.3982 16.2244L11.3863 84.8888L22.1952 82.3126C22.0238 83.0175 22.0181 83.6961 22.1907 84.3404C23.8667 90.5951 41.7164 91.2469 62.0592 85.796C82.2448 80.3873 97.3002 71.0023 95.8943 64.7467L104.234 62.759L104.234 -13.4175Z" fill="#D9D9D9"/>
</mask>
<g mask="url(#mask0_1115_8667)">
<ellipse cx="59.0254" cy="74.4708" rx="38.1332" ry="11.7248" transform="rotate(-15 59.0254 74.4708)" fill="#595959"/>
<mask id="path-5-inside-1_1115_8667" fill="white">
<path fill-rule="evenodd" clip-rule="evenodd" d="M64.9088 13.7315C64.6421 13.8945 64.3878 14.0933 64.1516 14.3295L15.5166 62.9645C15.4644 63.0167 15.414 63.0698 15.3654 63.1238L11.4815 64.5702L15.1721 68.2362C15.6774 68.8974 16.4013 69.4133 17.3097 69.6567L83.7464 87.4583C86.7207 88.2553 89.4423 85.5336 88.6454 82.5593L70.8437 16.1226C70.5917 15.1822 70.0478 14.4396 69.3528 13.9325L65.699 10.2567L64.9088 13.7315Z"/>
</mask>
<path fill-rule="evenodd" clip-rule="evenodd" d="M64.9088 13.7315C64.6421 13.8945 64.3878 14.0933 64.1516 14.3295L15.5166 62.9645C15.4644 63.0167 15.414 63.0698 15.3654 63.1238L11.4815 64.5702L15.1721 68.2362C15.6774 68.8974 16.4013 69.4133 17.3097 69.6567L83.7464 87.4583C86.7207 88.2553 89.4423 85.5336 88.6454 82.5593L70.8437 16.1226C70.5917 15.1822 70.0478 14.4396 69.3528 13.9325L65.699 10.2567L64.9088 13.7315Z" fill="#141414"/>
<path d="M64.9088 13.7315L65.4303 14.5847L65.7904 14.3647L65.8839 13.9532L64.9088 13.7315ZM64.1516 14.3295L63.4445 13.6224L63.4445 13.6224L64.1516 14.3295ZM15.5166 62.9645L16.2237 63.6716L16.2237 63.6716L15.5166 62.9645ZM15.3654 63.1238L15.7144 64.0609L15.9442 63.9753L16.1083 63.7931L15.3654 63.1238ZM11.4815 64.5702L11.1325 63.6331L9.66815 64.1784L10.7768 65.2797L11.4815 64.5702ZM15.1721 68.2362L15.9667 67.629L15.9253 67.5748L15.8769 67.5267L15.1721 68.2362ZM88.6454 82.5593L89.6113 82.3005L88.6454 82.5593ZM70.8437 16.1226L71.8097 15.8638L71.8097 15.8638L70.8437 16.1226ZM69.3528 13.9325L68.6436 14.6374L68.6994 14.6936L68.7633 14.7403L69.3528 13.9325ZM65.699 10.2567L66.4082 9.55171L65.1269 8.2627L64.7239 10.0349L65.699 10.2567ZM64.3873 12.8782C64.0529 13.0826 63.7363 13.3306 63.4445 13.6224L64.8587 15.0366C65.0393 14.8561 65.2313 14.7063 65.4303 14.5847L64.3873 12.8782ZM63.4445 13.6224L14.8095 62.2574L16.2237 63.6716L64.8587 15.0366L63.4445 13.6224ZM14.8095 62.2574C14.745 62.3219 14.6827 62.3876 14.6224 62.4544L16.1083 63.7931C16.1453 63.7521 16.1837 63.7116 16.2237 63.6716L14.8095 62.2574ZM15.0164 62.1866L11.1325 63.6331L11.8305 65.5073L15.7144 64.0609L15.0164 62.1866ZM10.7768 65.2797L14.4674 68.9457L15.8769 67.5267L12.1863 63.8607L10.7768 65.2797ZM14.3776 68.8434C15.0128 69.6745 15.9226 70.3203 17.0509 70.6226L17.5685 68.6907C16.88 68.5062 16.3421 68.1203 15.9667 67.629L14.3776 68.8434ZM17.0509 70.6226L83.4876 88.4242L84.0052 86.4924L17.5685 68.6907L17.0509 70.6226ZM83.4876 88.4242C87.2054 89.4204 90.6075 86.0184 89.6113 82.3005L87.6795 82.8182C88.2772 85.0489 86.2359 87.0901 84.0052 86.4924L83.4876 88.4242ZM89.6113 82.3005L71.8097 15.8638L69.8778 16.3815L87.6795 82.8182L89.6113 82.3005ZM71.8097 15.8638C71.4966 14.6954 70.8154 13.7618 69.9423 13.1247L68.7633 14.7403C69.2801 15.1173 69.6869 15.6691 69.8778 16.3815L71.8097 15.8638ZM70.062 13.2275L66.4082 9.55171L64.9898 10.9617L68.6436 14.6374L70.062 13.2275ZM64.7239 10.0349L63.9337 13.5097L65.8839 13.9532L66.6741 10.4784L64.7239 10.0349Z" fill="#595959" mask="url(#path-5-inside-1_1115_8667)"/>
<path d="M60.3231 10.4994C62.5004 8.32207 66.2183 9.31827 67.0152 12.2925L84.8169 78.7292C85.6139 81.7035 82.8922 84.4252 79.9179 83.6282L13.4812 65.8266C10.507 65.0296 9.51076 61.3118 11.6881 59.1344L60.3231 10.4994Z" fill="#FFD21F"/>
<path fill-rule="evenodd" clip-rule="evenodd" d="M58.2766 31.5234C56.6859 31.0971 55.0508 32.0411 54.6245 33.6319L51.1516 46.5932C50.7253 48.1839 51.6694 49.819 53.2601 50.2452C54.8508 50.6715 56.4859 49.7275 56.9122 48.1367L60.3851 35.1754C60.8114 33.5847 59.8673 31.9496 58.2766 31.5234ZM50.9438 58.8862C52.5345 59.3124 54.1696 58.3684 54.5958 56.7776C55.0221 55.1869 54.0781 53.5518 52.4873 53.1256C50.8966 52.6993 49.2615 53.6434 48.8353 55.2341C48.409 56.8248 49.353 58.4599 50.9438 58.8862Z" fill="#262933"/>
</g>
<path d="M15.8416 4.67224C15.6687 8.50764 12.5986 11.5778 8.76323 11.7506C12.5986 11.9235 15.6687 14.9937 15.8416 18.8291C16.0145 14.9937 19.0846 11.9235 22.92 11.7506C19.0846 11.5778 16.0145 8.50764 15.8416 4.67224Z" fill="#FAFAFA"/>
<path d="M34.8897 14.1893C34.7763 16.7034 32.764 18.7157 30.2499 18.8291C32.764 18.9424 34.7763 20.9548 34.8897 23.4688C35.003 20.9548 37.0154 18.9424 39.5294 18.8291C37.0154 18.7157 35.003 16.7034 34.8897 14.1893Z" fill="#FAFAFA"/>
</g>
<defs>
<clipPath id="clip0_1115_8667">
<rect width="100" height="100" fill="white" transform="translate(0.5)"/>
</clipPath>
</defs>
</svg>
