<svg width="32" height="32" viewBox="0 0 32 32" fill="none" xmlns="http://www.w3.org/2000/svg">
<path d="M26.4882 15.2214C26.4882 20.9807 22.3071 26.375 16.5948 27.9532C16.2061 28.0593 15.7821 28.0593 15.3934 27.9532C9.68114 26.375 5.5 20.9807 5.5 15.2214V10.0508C5.5 9.08505 6.23025 7.98971 7.13714 7.6246L13.6974 4.93927C15.1696 4.3386 16.8303 4.3386 18.3026 4.93927L24.8629 7.6246C25.758 7.98971 26.5 9.08505 26.5 10.0508L26.4882 15.2214Z" stroke="#FAFAFA" stroke-width="1.77778" stroke-linecap="round" stroke-linejoin="round"/>
<path d="M16.0063 14.6019C15.956 14.6019 15.8931 14.6019 15.8427 14.6019C14.6603 14.5641 13.7168 13.5829 13.7168 12.3878C13.7168 11.1676 14.7106 10.1738 15.9308 10.1738C17.151 10.1738 18.1448 11.1676 18.1448 12.3878C18.1323 13.5955 17.1888 14.5641 16.0063 14.6019Z" stroke="url(#paint0_linear_2368_15728)" stroke-width="1.6" stroke-linecap="round" stroke-linejoin="round"/>
<path d="M13.1464 18.8906C11.7663 19.6957 11.7663 21.0166 13.1464 21.8217C14.7135 22.74 17.2869 22.74 18.854 21.8217C20.2341 21.0166 20.2341 19.6957 18.854 18.8906C17.3013 17.9723 14.7279 17.9723 13.1464 18.8906Z" stroke="#FAFAFA" stroke-width="1.6" stroke-linecap="round" stroke-linejoin="round"/>
<defs>
<linearGradient id="paint0_linear_2368_15728" x1="18.0996" y1="11.7101" x2="13.762" y2="11.7101" gradientUnits="userSpaceOnUse">
<stop stop-color="#FFC088"/>
<stop offset="1" stop-color="#FEB360"/>
</linearGradient>
</defs>
</svg>
