<svg width="28" height="28" viewBox="0 0 28 28" fill="none" xmlns="http://www.w3.org/2000/svg">
<path d="M20.3113 5.90739H22.0613V13.4657H24.6282V15.2157H22.0613V15.2179H20.3113V15.2157H17.7444V13.4657H20.3113V5.90739ZM5.93872 4.375H7.68872V11.4126H10.2545V13.1626H3.37183V11.4126H5.93872V4.375Z" fill="#0068FF"/>
<path d="M3.8849 3.79558L24.3016 5.97625L24.3893 5.98992C24.8233 6.08117 25.1265 6.48855 25.0786 6.93898C25.0305 7.38944 24.6482 7.72396 24.2047 7.72169L24.1147 7.71599L14.8748 6.72934V22.5614H20.1259L20.2148 22.5659C20.6562 22.6106 21.0009 22.9832 21.0009 23.4364C21.0009 23.8895 20.6562 24.2622 20.2148 24.3068L20.1259 24.3114H7.99102C7.50799 24.3111 7.11603 23.9195 7.11602 23.4364C7.11602 22.9533 7.50798 22.5616 7.99102 22.5614H13.1248V6.54249L3.69805 5.53647L3.61032 5.52166C3.17627 5.43031 2.87291 5.02314 2.92103 4.5726C2.96935 4.12237 3.35158 3.78876 3.79489 3.79103L3.8849 3.79558Z" fill="#303236"/>
</svg>
