<svg width="28" height="28" viewBox="0 0 28 28" fill="none" xmlns="http://www.w3.org/2000/svg">
<path fill-rule="evenodd" clip-rule="evenodd" d="M4.58811 16.0237C5.51765 20.3677 9.37844 23.625 14 23.625C17.8229 23.625 21.1269 21.3963 22.6806 18.1635C22.8899 17.7279 23.4127 17.5445 23.8483 17.7538C24.2838 17.9632 24.4672 18.4859 24.2579 18.9215C22.4239 22.7377 18.5208 25.375 14 25.375C7.71776 25.375 2.625 20.2822 2.625 14C2.625 13.6617 2.81996 13.3538 3.12571 13.2091C3.43146 13.0644 3.79322 13.1089 4.05479 13.3234L6.20824 15.089C6.58194 15.3954 6.63649 15.9468 6.33009 16.3205C6.02369 16.6942 5.47236 16.7487 5.09866 16.4423L4.58811 16.0237Z" fill="white"/>
<path fill-rule="evenodd" clip-rule="evenodd" d="M23.5513 11.9865C22.6257 7.63734 18.7625 4.375 14.1373 4.375C10.3133 4.375 7.00844 6.60496 5.45535 9.83931C5.24617 10.2749 4.72345 10.4585 4.28782 10.2493C3.85219 10.0401 3.66862 9.51743 3.8778 9.0818C5.71111 5.26386 9.61518 2.625 14.1373 2.625C20.4195 2.625 25.5123 7.71776 25.5123 14C25.5123 14.3378 25.3179 14.6454 25.0128 14.7903C24.7077 14.9353 24.3464 14.8917 24.0846 14.6783L22.0159 12.9927C21.6413 12.6875 21.585 12.1363 21.8903 11.7617C22.1956 11.3871 22.7467 11.3308 23.1213 11.6361L23.5513 11.9865Z" fill="white"/>
<path fill-rule="evenodd" clip-rule="evenodd" d="M9.05029 14L14 9.05025L18.9498 14L14 18.9497L9.05029 14ZM11.5252 14L14 16.4749L16.4749 14L14 11.5251L11.5252 14Z" fill="#247CFF"/>
</svg>
