<svg width="28" height="28" viewBox="0 0 28 28" fill="none" xmlns="http://www.w3.org/2000/svg">
<path d="M9.04297 5.25H3.5C3.01675 5.25 2.625 4.85825 2.625 4.375C2.625 3.89175 3.01675 3.5 3.5 3.5H9.04297V5.25ZM17.1504 5.25H10.8516V3.5H17.1504V5.25ZM24.5 3.5C24.9832 3.5 25.375 3.89175 25.375 4.375C25.375 4.85825 24.9832 5.25 24.5 5.25H18.957V3.5H24.5Z" fill="#303236"/>
<path fill-rule="evenodd" clip-rule="evenodd" d="M2.625 23.625C2.625 23.1418 3.01675 22.75 3.5 22.75L24.5 22.75C24.9832 22.75 25.375 23.1418 25.375 23.625V23.625C25.375 24.1082 24.9832 24.5 24.5 24.5L3.5 24.5C3.01675 24.5 2.625 24.1082 2.625 23.625V23.625Z" fill="#303236"/>
<path d="M4.9176 10.5767C6.80892 8.68534 9.87558 8.68543 11.767 10.5767L12.4294 11.2391C12.7567 11.567 12.7571 12.0986 12.4294 12.4263C12.1017 12.7539 11.5701 12.7536 11.2422 12.4263L10.5798 11.7639C9.34421 10.5285 7.34122 10.5286 6.10562 11.7639C4.87034 12.9992 4.87057 15.0037 6.10644 16.2396C7.34222 17.4753 9.34602 17.4771 10.583 16.2437L14.2619 12.5755C14.2643 12.5731 14.2668 12.5706 14.2693 12.5682L16.2329 10.5914C18.1199 8.69237 21.1916 8.6878 23.0847 10.5808C24.974 12.4702 24.9703 15.5353 23.0822 17.4236C21.1916 19.314 18.1232 19.3175 16.2313 17.426L15.5688 16.7635C15.2412 16.4357 15.241 15.9041 15.5688 15.5763C15.8966 15.2487 16.4281 15.2488 16.756 15.5763L17.4185 16.238C18.6534 17.4729 20.6588 17.4724 21.895 16.2364C23.1286 15.0027 23.1296 13.0013 21.8975 11.7688C20.6616 10.5329 18.6562 10.5356 17.4242 11.7753L15.4647 13.7464C15.462 13.7491 15.46 13.7526 15.4573 13.7554L11.7686 17.4326C9.87499 19.3206 6.80951 19.317 4.91924 17.4268C3.02825 15.5358 3.02614 12.4683 4.9176 10.5767Z" fill="#0068FF"/>
</svg>
