<svg width="28" height="28" viewBox="0 0 28 28" fill="none" xmlns="http://www.w3.org/2000/svg">
<path fill-rule="evenodd" clip-rule="evenodd" d="M21.0356 3.5C19.1221 3.5 17.571 5.0512 17.571 6.96466C17.571 8.87812 19.1221 10.4293 21.0356 10.4293C22.9491 10.4293 24.5002 8.87812 24.5002 6.96466C24.5002 5.0512 22.9491 3.5 21.0356 3.5ZM19.321 6.96466C19.321 6.01766 20.0887 5.25 21.0356 5.25C21.9825 5.25 22.7502 6.01766 22.7502 6.96466C22.7502 7.91166 21.9825 8.67931 21.0356 8.67931C20.0887 8.67931 19.321 7.91166 19.321 6.96466Z" fill="#303236"/>
<path d="M9.91675 3.79195C6.534 3.79195 3.79175 6.53421 3.79175 9.91695V18.0836C3.79175 21.4664 6.534 24.2086 9.91675 24.2086H18.0834C21.4662 24.2086 24.2084 21.4664 24.2084 18.0836V13.0593C24.2084 12.5761 23.8167 12.1843 23.3334 12.1843C22.8502 12.1843 22.4584 12.5761 22.4584 13.0593V18.0836C22.4584 20.4999 20.4997 22.4586 18.0834 22.4586H9.91675C7.5005 22.4586 5.54175 20.4999 5.54175 18.0836V9.91695C5.54175 7.50071 7.5005 5.54195 9.91675 5.54195H14.8983C15.3815 5.54195 15.7733 5.1502 15.7733 4.66695C15.7733 4.1837 15.3815 3.79195 14.8983 3.79195H9.91675Z" fill="#303236"/>
<path fill-rule="evenodd" clip-rule="evenodd" d="M19.8687 13.4523L15.3696 17.9514L12.7826 15.3645L9.95204 18.195L8.7146 16.9576L12.7826 12.8896L15.3696 15.4766L18.6313 12.2148L19.8687 13.4523Z" fill="#0068FF"/>
</svg>
