<svg width="28" height="28" viewBox="0 0 28 28" fill="none" xmlns="http://www.w3.org/2000/svg">
<path fill-rule="evenodd" clip-rule="evenodd" d="M19.9419 3.51172H13.0312C12.408 3.51171 11.8878 3.5117 11.4629 3.54642C11.0197 3.58263 10.6036 3.66092 10.2101 3.86141C9.60643 4.169 9.11562 4.65981 8.80802 5.2635C8.60754 5.65697 8.52924 6.07307 8.49303 6.51627C8.45831 6.94121 8.45832 7.46137 8.45833 8.08455V9.33288H6.3C5.31991 9.33288 4.82986 9.33288 4.45552 9.52361C4.12623 9.69139 3.85852 9.95911 3.69074 10.2884C3.5 10.6627 3.5 11.1528 3.5 12.1329V19.3662C3.5 21.163 3.5 22.0615 3.84969 22.7478C4.15728 23.3514 4.64809 23.8423 5.25178 24.1499C5.91543 24.488 6.77743 24.4992 8.45833 24.4995L9.18703 24.4995C9.23461 24.5076 9.28348 24.5117 9.33333 24.5117H19.9419C20.5651 24.5117 21.0852 24.5117 21.5102 24.477C21.9534 24.4408 22.3695 24.3625 22.763 24.162C23.3666 23.8544 23.8575 23.3636 24.165 22.7599C24.3655 22.3665 24.4438 21.9504 24.48 21.5072C24.5148 21.0822 24.5147 20.5621 24.5147 19.9389V8.08453C24.5147 7.46136 24.5148 6.94121 24.48 6.51627C24.4438 6.07307 24.3655 5.65697 24.165 5.2635C23.8575 4.65981 23.3666 4.169 22.763 3.86141C22.3695 3.66092 21.9534 3.58263 21.5102 3.54642C21.0852 3.5117 20.5651 3.51171 19.9419 3.51172ZM8.45833 22.7495V11.0829H6.3C5.78108 11.0829 5.49713 11.0842 5.29311 11.1009L5.27003 11.1029L5.26803 11.126C5.25136 11.33 5.25 11.614 5.25 12.1329V19.3662C5.25 20.2935 5.25136 20.8837 5.2879 21.3309C5.32277 21.7577 5.38076 21.8979 5.40895 21.9533C5.54876 22.2277 5.77186 22.4508 6.04626 22.5906C6.1016 22.6188 6.24184 22.6768 6.66861 22.7116C7.08702 22.7458 7.63062 22.7492 8.45833 22.7495ZM11.0046 5.42067C11.1103 5.36684 11.2704 5.31797 11.6054 5.2906C11.9506 5.2624 12.3988 5.26172 13.0667 5.26172H19.9064C20.5742 5.26172 21.0225 5.2624 21.3677 5.2906C21.7027 5.31797 21.8628 5.36684 21.9685 5.42067C22.2429 5.56048 22.466 5.78358 22.6058 6.05798C22.6596 6.16364 22.7085 6.3238 22.7358 6.65878C22.764 7.00397 22.7647 7.45222 22.7647 8.12005V19.9034C22.7647 20.5712 22.764 21.0195 22.7358 21.3647C22.7085 21.6996 22.6596 21.8598 22.6058 21.9655C22.466 22.2399 22.2429 22.463 21.9685 22.6028C21.8628 22.6566 21.7027 22.7055 21.3677 22.7328C21.0225 22.761 20.5742 22.7617 19.9064 22.7617H10.2083V8.12005C10.2083 7.45222 10.209 7.00397 10.2372 6.65878C10.2646 6.3238 10.3134 6.16364 10.3673 6.05798C10.5071 5.78358 10.7302 5.56048 11.0046 5.42067Z" fill="white"/>
<path d="M21.2106 10.5713L17.3962 14.3857L15.2656 12.2552L13.0439 14.4769L11.8066 13.2396L15.2656 9.7806L17.3962 11.9111L19.9733 9.33398L21.2106 10.5713Z" fill="#247CFF"/>
<path d="M20.8557 16.9648V18.7148H12.252V16.9648H20.8557Z" fill="white"/>
</svg>
