<svg width="28" height="28" viewBox="0 0 28 28" fill="none" xmlns="http://www.w3.org/2000/svg">
<path fill-rule="evenodd" clip-rule="evenodd" d="M9.33333 3.5C9.81658 3.5 10.2083 3.89175 10.2083 4.375V5.86979H17.7917V4.375C17.7917 3.89175 18.1834 3.5 18.6667 3.5C19.1499 3.5 19.5417 3.89175 19.5417 4.375V5.86979H20.6172C22.7616 5.86979 24.5 7.60819 24.5 9.7526V20.5807C24.5 22.7251 22.7616 24.4635 20.6172 24.4635H7.38281C5.2384 24.4635 3.5 22.7251 3.5 20.5807V9.7526C3.5 7.60819 5.23839 5.86979 7.38281 5.86979H8.45833V4.375C8.45833 3.89175 8.85008 3.5 9.33333 3.5ZM8.45833 7.61979H7.38281C6.20489 7.61979 5.25 8.57468 5.25 9.7526V20.5807C5.25 21.7587 6.20489 22.7135 7.38281 22.7135H20.6172C21.7951 22.7135 22.75 21.7587 22.75 20.5807V9.7526C22.75 8.57468 21.7951 7.61979 20.6172 7.61979H19.5417V9.04167C19.5417 9.52492 19.1499 9.91667 18.6667 9.91667C18.1834 9.91667 17.7917 9.52492 17.7917 9.04167V7.61979H10.2083V9.04167C10.2083 9.52492 9.81658 9.91667 9.33333 9.91667C8.85008 9.91667 8.45833 9.52492 8.45833 9.04167V7.61979Z" fill="white"/>
<path fill-rule="evenodd" clip-rule="evenodd" d="M19.5772 14.4791L15.078 18.9783L12.4911 16.3913L9.66053 19.2219L8.4231 17.9845L12.4911 13.9165L15.078 16.5034L18.3398 13.2417L19.5772 14.4791Z" fill="#247CFF"/>
</svg>
