<svg width="28" height="28" viewBox="0 0 28 28" fill="none" xmlns="http://www.w3.org/2000/svg">
<path fill-rule="evenodd" clip-rule="evenodd" d="M21.0354 3.5C19.1219 3.5 17.5708 5.0512 17.5708 6.96466C17.5708 8.87812 19.1219 10.4293 21.0354 10.4293C22.9488 10.4293 24.5 8.87812 24.5 6.96466C24.5 5.0512 22.9488 3.5 21.0354 3.5ZM19.3208 6.96466C19.3208 6.01766 20.0884 5.25 21.0354 5.25C21.9823 5.25 22.75 6.01766 22.75 6.96466C22.75 7.91166 21.9823 8.67931 21.0354 8.67931C20.0884 8.67931 19.3208 7.91166 19.3208 6.96466Z" fill="white"/>
<path d="M9.9165 3.79195C6.53376 3.79195 3.7915 6.53421 3.7915 9.91695V18.0836C3.7915 21.4664 6.53376 24.2086 9.9165 24.2086H18.0832C21.4659 24.2086 24.2082 21.4664 24.2082 18.0836V13.0593C24.2082 12.5761 23.8164 12.1843 23.3332 12.1843C22.8499 12.1843 22.4582 12.5761 22.4582 13.0593V18.0836C22.4582 20.4999 20.4994 22.4586 18.0832 22.4586H9.9165C7.50026 22.4586 5.5415 20.4999 5.5415 18.0836V9.91695C5.5415 7.50071 7.50026 5.54195 9.9165 5.54195H14.898C15.3813 5.54195 15.773 5.1502 15.773 4.66695C15.773 4.1837 15.3813 3.79195 14.898 3.79195H9.9165Z" fill="white"/>
<path fill-rule="evenodd" clip-rule="evenodd" d="M19.8689 13.4523L15.3698 17.9514L12.7828 15.3645L9.95228 18.195L8.71484 16.9576L12.7828 12.8896L15.3698 15.4766L18.6315 12.2148L19.8689 13.4523Z" fill="#247CFF"/>
</svg>
