<svg width="28" height="28" viewBox="0 0 28 28" fill="none" xmlns="http://www.w3.org/2000/svg">
<path fill-rule="evenodd" clip-rule="evenodd" d="M19.9419 3.51221H13.0312C12.408 3.5122 11.8878 3.51219 11.4629 3.5469C11.0197 3.58311 10.6036 3.66141 10.2101 3.8619C9.60643 4.16949 9.11562 4.6603 8.80802 5.26399C8.60754 5.65746 8.52924 6.07356 8.49303 6.51676C8.45831 6.9417 8.45832 7.46186 8.45833 8.08503V9.33336H6.3C5.31991 9.33336 4.82986 9.33336 4.45552 9.5241C4.12623 9.69188 3.85852 9.9596 3.69074 10.2889C3.5 10.6632 3.5 11.1533 3.5 12.1334V19.3667C3.5 21.1635 3.5 22.062 3.84969 22.7483C4.15728 23.3519 4.64809 23.8427 5.25178 24.1503C5.91543 24.4885 6.77743 24.4997 8.45833 24.5L9.18703 24.5C9.23461 24.508 9.28348 24.5122 9.33333 24.5122H19.9419C20.5651 24.5122 21.0852 24.5122 21.5102 24.4775C21.9534 24.4413 22.3695 24.363 22.763 24.1625C23.3666 23.8549 23.8575 23.3641 24.165 22.7604C24.3655 22.367 24.4438 21.9509 24.48 21.5077C24.5148 21.0827 24.5147 20.5626 24.5147 19.9394V8.08501C24.5147 7.46184 24.5148 6.94169 24.48 6.51676C24.4438 6.07356 24.3655 5.65746 24.165 5.26399C23.8575 4.6603 23.3666 4.16949 22.763 3.8619C22.3695 3.66141 21.9534 3.58311 21.5102 3.5469C21.0852 3.51219 20.5651 3.5122 19.9419 3.51221ZM8.45833 22.75V11.0834H6.3C5.78108 11.0834 5.49713 11.0847 5.29311 11.1014L5.27003 11.1034L5.26803 11.1265C5.25136 11.3305 5.25 11.6144 5.25 12.1334V19.3667C5.25 20.294 5.25136 20.8842 5.2879 21.3314C5.32277 21.7582 5.38076 21.8984 5.40895 21.9538C5.54876 22.2282 5.77186 22.4513 6.04626 22.5911C6.1016 22.6193 6.24184 22.6773 6.66861 22.7121C7.08702 22.7463 7.63062 22.7497 8.45833 22.75ZM11.0046 5.42116C11.1103 5.36732 11.2704 5.31846 11.6054 5.29109C11.9506 5.26289 12.3988 5.26221 13.0667 5.26221H19.9064C20.5742 5.26221 21.0225 5.26289 21.3677 5.29109C21.7027 5.31846 21.8628 5.36732 21.9685 5.42116C22.2429 5.56097 22.466 5.78407 22.6058 6.05847C22.6596 6.16413 22.7085 6.32429 22.7358 6.65927C22.7641 7.00446 22.7647 7.45271 22.7647 8.12054V19.9039C22.7647 20.5717 22.7641 21.02 22.7358 21.3652C22.7085 21.7001 22.6596 21.8603 22.6058 21.9659C22.466 22.2403 22.2429 22.4634 21.9685 22.6033C21.8628 22.6571 21.7027 22.706 21.3677 22.7333C21.0225 22.7615 20.5742 22.7622 19.9064 22.7622H10.2083V8.12054C10.2083 7.45271 10.209 7.00446 10.2372 6.65927C10.2646 6.32429 10.3134 6.16413 10.3673 6.05847C10.5071 5.78407 10.7302 5.56097 11.0046 5.42116Z" fill="white"/>
<path fill-rule="evenodd" clip-rule="evenodd" d="M17.3835 9.12305V10.7337H19.5417V12.4837H15.1669C14.9091 12.4837 14.7002 12.6926 14.7002 12.9504C14.7002 13.2081 14.9091 13.417 15.1669 13.417H17.8502C19.0744 13.417 20.0669 14.4095 20.0669 15.6337C20.0669 16.8579 19.0744 17.8504 17.8502 17.8504H17.3835V19.46H15.6335V17.8504H13.4167V16.1004H15.6335L17.3835 16.1L17.8502 16.1004C18.1079 16.1004 18.3169 15.8914 18.3169 15.6337C18.3169 15.376 18.1079 15.167 17.8502 15.167H15.1669C13.9426 15.167 12.9502 14.1746 12.9502 12.9504C12.9502 11.7261 13.9426 10.7337 15.1669 10.7337H15.6335V9.12305H17.3835Z" fill="#247CFF"/>
</svg>
