<svg width="28" height="28" viewBox="0 0 28 28" fill="none" xmlns="http://www.w3.org/2000/svg">
<path d="M20.3113 5.90739H22.0613V13.4657H24.6282V15.2157H22.0613V15.2179H20.3113V15.2157H17.7444V13.4657H20.3113V5.90739ZM5.93872 4.375H7.68872V11.4126H10.2545V13.1626H3.37183V11.4126H5.93872V4.375Z" fill="#247CFF"/>
<path d="M3.8849 3.79607L24.3016 5.97674L24.3893 5.99041C24.8233 6.08166 25.1265 6.48903 25.0786 6.93946C25.0305 7.38993 24.6482 7.72445 24.2047 7.72218L24.1147 7.71648L14.8748 6.72983V22.5619H20.1259L20.2148 22.5664C20.6562 22.611 21.0009 22.9837 21.0009 23.4369C21.0009 23.89 20.6562 24.2627 20.2148 24.3073L20.1259 24.3119H7.99102C7.50799 24.3116 7.11603 23.9199 7.11602 23.4369C7.11602 22.9538 7.50798 22.5621 7.99102 22.5619H13.1248V6.54298L3.69805 5.53696L3.61032 5.52215C3.17627 5.4308 2.87291 5.02363 2.92103 4.57309C2.96935 4.12286 3.35158 3.78925 3.79489 3.79152L3.8849 3.79607Z" fill="white"/>
</svg>
