<svg width="28" height="28" viewBox="0 0 28 28" fill="none" xmlns="http://www.w3.org/2000/svg">
<path d="M22.75 7.875C22.75 6.51592 21.7171 5.39818 20.3936 5.26367L20.125 5.25H7.875C6.42525 5.25 5.25 6.42525 5.25 7.875V20.125L5.26367 20.3936C5.39818 21.7171 6.51592 22.75 7.875 22.75H20.125C21.5747 22.75 22.75 21.5747 22.75 20.125V7.875ZM24.5 20.125C24.5 22.5412 22.5412 24.5 20.125 24.5H7.875C5.53442 24.5 3.62326 22.662 3.50586 20.3506L3.5 20.125V7.875C3.5 5.45875 5.45875 3.5 7.875 3.5H20.125L20.3506 3.50586C22.662 3.62326 24.5 5.53442 24.5 7.875V20.125Z" fill="white"/>
<path d="M18.0996 11.8203C17.7982 12.3413 17.2633 12.7095 16.6367 12.7793L18.5166 15.7031L18.9893 16.4385L20.4609 15.4912L19.9873 14.7559L18.0996 11.8203ZM11.7441 15.2373C12.3637 15.3372 12.8846 15.7292 13.1611 16.2686L16.0205 12.75C15.4102 12.6225 14.9071 12.2087 14.6543 11.6553L11.7441 15.2373ZM7.55664 12.5557L8.01855 13.2988L9.78027 16.1367C10.0953 15.6256 10.6386 15.2713 11.2695 15.2188L9.50488 12.376L9.04297 11.6328L7.55664 12.5557Z" fill="#247CFF"/>
<path d="M15.2526 10.8503C15.2526 11.4946 15.7749 12.0169 16.4193 12.0169C17.0636 12.0169 17.5859 11.4946 17.5859 10.8503C17.5859 10.2059 17.0636 9.68359 16.4193 9.68359C15.7749 9.68359 15.2526 10.2059 15.2526 10.8503Z" fill="#247CFF"/>
<path d="M10.2685 17.153C10.2685 17.7973 10.7908 18.3197 11.4351 18.3197C12.0795 18.3197 12.6018 17.7973 12.6018 17.153C12.6018 16.5087 12.0795 15.9863 11.4351 15.9863C10.7908 15.9863 10.2685 16.5087 10.2685 17.153Z" fill="#247CFF"/>
</svg>
