<svg width="28" height="28" viewBox="0 0 28 28" fill="none" xmlns="http://www.w3.org/2000/svg">
<path d="M22.7487 10.631C22.7487 7.65915 20.3395 5.25 17.3677 5.25C14.4841 5.2502 12.1306 7.51824 11.9935 10.3678C14.8352 10.9187 17.0783 13.1626 17.6297 16.0041C20.4799 15.8676 22.7486 13.515 22.7487 10.631ZM5.25098 17.3678C5.25121 20.3395 7.66027 22.7477 10.632 22.7477C13.6036 22.7476 16.0128 20.3394 16.013 17.3678C16.013 17.2393 16.0043 17.0981 15.9948 16.936L15.9709 16.6922C15.6574 14.1869 13.6065 12.2072 11.0695 12.0039C10.9062 11.9943 10.7628 11.9868 10.632 11.9868C7.66013 11.9868 5.25098 14.396 5.25098 17.3678ZM24.4987 10.631C24.4986 14.4409 21.5109 17.5508 17.7505 17.7495C17.5519 21.5101 14.442 24.4976 10.632 24.4977C6.69378 24.4977 3.50121 21.306 3.50098 17.3678C3.50098 13.5582 6.48812 10.4464 10.248 10.2471C10.4474 6.48727 13.5582 3.5002 17.3677 3.5C21.306 3.5 24.4987 6.69266 24.4987 10.631Z" fill="#303236"/>
<path d="M22.7396 20.1193C22.7325 20.1092 22.7176 20.0957 22.6952 20.0863C22.6724 20.0768 22.652 20.0763 22.6405 20.0783L22.5994 20.1034L20.1112 22.5916L20.085 22.6361C20.0826 22.6499 20.0835 22.671 20.0929 22.6942C20.1025 22.7173 20.116 22.7312 20.1248 22.7375C20.1295 22.7408 20.1409 22.7489 20.1716 22.7489H22.6633C22.6846 22.7489 22.7063 22.74 22.7248 22.7215C22.743 22.7031 22.7509 22.6823 22.751 22.6611V20.1683C22.751 20.1379 22.744 20.1256 22.7396 20.1193ZM7.83154 3.5C9.48114 3.50036 10.2668 5.48716 9.13835 6.63428L6.64095 9.13167C5.48065 10.292 3.50134 9.46233 3.50098 7.83057V5.33773C3.50098 4.32514 4.32612 3.5 5.3387 3.5H7.83154ZM24.501 22.6611C24.5008 23.6736 23.6758 24.4989 22.6633 24.4989H20.1716C18.5215 24.4989 17.7347 22.5106 18.8636 21.3634L18.8693 21.3589L21.3621 18.866L21.4727 18.7635C22.6437 17.7585 24.501 18.5871 24.501 20.1683V22.6611ZM5.25098 7.83057C5.25105 7.86111 5.25802 7.87339 5.26237 7.87956C5.26956 7.88975 5.28518 7.90313 5.30794 7.9126C5.33048 7.92185 5.35004 7.92253 5.36149 7.92057C5.36824 7.9194 5.38106 7.91579 5.40251 7.89437L7.89193 5.40381C7.91097 5.38376 7.91549 5.37057 7.91699 5.36165C7.91922 5.34776 7.91849 5.32653 7.90902 5.30355C7.89946 5.28048 7.8859 5.26648 7.87712 5.26025C7.87232 5.25687 7.86141 5.25007 7.83154 5.25H5.3387C5.31738 5.25 5.29568 5.2577 5.27718 5.2762C5.25868 5.2947 5.25098 5.31641 5.25098 5.33773V7.83057Z" fill="#0068FF"/>
</svg>
