<svg width="28" height="28" viewBox="0 0 28 28" fill="none" xmlns="http://www.w3.org/2000/svg">
<path d="M22.7487 10.6315C22.7487 7.65964 20.3395 5.25049 17.3677 5.25049C14.4841 5.25069 12.1306 7.51873 11.9935 10.3683C14.8352 10.9192 17.0783 13.1631 17.6297 16.0046C20.4799 15.8681 22.7486 13.5155 22.7487 10.6315ZM5.25098 17.3683C5.25121 20.34 7.66027 22.7482 10.632 22.7482C13.6036 22.7481 16.0128 20.3399 16.013 17.3683C16.013 17.2398 16.0043 17.0986 15.9948 16.9365L15.9709 16.6927C15.6574 14.1874 13.6065 12.2077 11.0695 12.0044C10.9062 11.9948 10.7628 11.9873 10.632 11.9873C7.66013 11.9873 5.25098 14.3965 5.25098 17.3683ZM24.4987 10.6315C24.4986 14.4414 21.5109 17.5512 17.7505 17.75C17.5519 21.5106 14.442 24.4981 10.632 24.4982C6.69378 24.4982 3.50121 21.3065 3.50098 17.3683C3.50098 13.5587 6.48812 10.4469 10.248 10.2476C10.4474 6.48776 13.5582 3.50069 17.3677 3.50049C21.306 3.50049 24.4987 6.69314 24.4987 10.6315Z" fill="white"/>
<path d="M22.7396 20.1198C22.7325 20.1097 22.7176 20.0962 22.6952 20.0868C22.6724 20.0773 22.652 20.0768 22.6405 20.0788L22.5994 20.1038L20.1112 22.5921L20.085 22.6366C20.0826 22.6504 20.0835 22.6715 20.0929 22.6947C20.1025 22.7178 20.116 22.7317 20.1248 22.738C20.1295 22.7413 20.1409 22.7494 20.1716 22.7494H22.6633C22.6846 22.7494 22.7063 22.7405 22.7248 22.722C22.743 22.7036 22.7509 22.6828 22.751 22.6616V20.1688C22.751 20.1384 22.744 20.1261 22.7396 20.1198ZM7.83154 3.50049C9.48114 3.50085 10.2668 5.48765 9.13835 6.63477L6.64095 9.13216C5.48065 10.2925 3.50134 9.46282 3.50098 7.83105V5.33822C3.50098 4.32563 4.32612 3.50049 5.3387 3.50049H7.83154ZM24.501 22.6616C24.5008 23.6741 23.6758 24.4994 22.6633 24.4994H20.1716C18.5215 24.4994 17.7347 22.5111 18.8636 21.3639L18.8693 21.3594L21.3621 18.8665L21.4727 18.764C22.6437 17.759 24.501 18.5876 24.501 20.1688V22.6616ZM5.25098 7.83105C5.25105 7.8616 5.25802 7.87388 5.26237 7.88005C5.26956 7.89024 5.28518 7.90362 5.30794 7.91309C5.33048 7.92234 5.35004 7.92302 5.36149 7.92106C5.36824 7.91989 5.38106 7.91628 5.40251 7.89486L7.89193 5.4043C7.91097 5.38425 7.91549 5.37105 7.91699 5.36214C7.91922 5.34825 7.91849 5.32702 7.90902 5.30404C7.89946 5.28097 7.8859 5.26697 7.87712 5.26074C7.87232 5.25735 7.86141 5.25056 7.83154 5.25049H5.3387C5.31738 5.25049 5.29568 5.25819 5.27718 5.27669C5.25868 5.29519 5.25098 5.3169 5.25098 5.33822V7.83105Z" fill="#247CFF"/>
</svg>
