<svg width="48" height="48" viewBox="0 0 48 48" fill="none" xmlns="http://www.w3.org/2000/svg">
<path d="M39.6002 39V24.6002C39.6002 15.9844 32.6158 9 24 9V9C15.3843 9 8.39981 15.9844 8.39981 24.6002V39" stroke="#070808" stroke-width="0.842105"/>
<path d="M32.4 17.9185C32.4 17.9185 33.7251 19.2357 34.4 21.1617C34.8747 22.5162 34.8001 23.9995 34.8788 24.8103" stroke="#070808" stroke-width="0.842105" stroke-linecap="round"/>
<path d="M14.7998 27.2583C16.3346 27.2583 17.5791 28.5028 17.5791 30.0376V35.7993C17.5791 37.3341 16.3346 38.5786 14.7998 38.5786H8.4209V27.2583H14.7998Z" stroke="#070808" stroke-width="0.842105"/>
<path d="M33.2002 27.2583C31.6654 27.2583 30.4209 28.5028 30.4209 30.0376V35.7993C30.4209 37.3341 31.6654 38.5786 33.2002 38.5786H39.5791V27.2583H33.2002Z" stroke="#070808" stroke-width="0.842105"/>
</svg>
