<svg width="20" height="20" viewBox="0 0 20 20" fill="none" xmlns="http://www.w3.org/2000/svg">
<path d="M12.0833 4.16663C12.0833 6.23769 13.7623 7.91663 15.8333 7.91663C16.4322 7.91663 16.9978 7.77525 17.5 7.52559V15.8333C17.5 16.7538 16.7538 17.5 15.8333 17.5H4.16667C3.24619 17.5 2.5 16.7538 2.5 15.8333V5.83329C2.5 4.91282 3.24619 4.16663 4.16667 4.16663H12.0833ZM11.1145 12.2225L9.79329 10.3352L9.75586 10.2848C9.36869 9.79542 8.63678 9.75585 8.19906 10.2006L8.15633 10.2465L5.2063 13.6177L6.46037 14.7155L8.88509 11.9437L10.2067 13.8313C10.5944 14.3852 11.3985 14.4288 11.8437 13.92L14.7937 10.5489L13.5396 9.45105L11.1145 12.2225Z" fill="#484B51"/>
<path d="M15.8333 1.66663C17.214 1.66663 18.3333 2.78591 18.3333 4.16663C18.3333 5.54734 17.214 6.66663 15.8333 6.66663C14.4526 6.66663 13.3333 5.54734 13.3333 4.16663C13.3333 2.78591 14.4526 1.66663 15.8333 1.66663Z" fill="#484B51"/>
</svg>
