<svg width="81" height="80" viewBox="0 0 81 80" fill="none" xmlns="http://www.w3.org/2000/svg">
<path d="M20.179 14.2144H61.3215C62.3077 14.2144 63.1067 15.0143 63.1067 16.0005V68.0005C63.1065 68.9865 62.3076 69.7856 61.3215 69.7856H20.179C19.1929 69.7856 18.393 68.9865 18.3928 68.0005V16.0005C18.3928 15.0143 19.1927 14.2144 20.179 14.2144Z" fill="#070808" stroke="white"/>
<path d="M24.5867 42.8569H54.9541" stroke="white" stroke-linecap="round"/>
<path d="M39.9874 35.2432L49.415 35.2432" stroke="white" stroke-linecap="round"/>
<path d="M39.8516 28.4897L55.525 28.4897" stroke="white" stroke-linecap="round"/>
<circle cx="30" cy="30" r="6.5" fill="#070808" stroke="white"/>
<mask id="path-6-inside-1_1752_364665" fill="white">
<path d="M43.9319 5.87793C44.7981 5.87801 45.5002 6.58007 45.5002 7.44629V10.584H50.0393C50.9055 10.5842 51.6077 11.2861 51.6077 12.1523V15.7373C51.6077 16.6035 50.9055 17.3065 50.0393 17.3066H31.4612C30.5951 17.3064 29.8928 16.6035 29.8928 15.7373V12.1523C29.8928 11.2862 30.5951 10.5842 31.4612 10.584H36.0002V7.44629C36.0003 6.5801 36.7024 5.87806 37.5686 5.87793H43.9319Z"/>
</mask>
<path d="M43.9319 5.87793C44.7981 5.87801 45.5002 6.58007 45.5002 7.44629V10.584H50.0393C50.9055 10.5842 51.6077 11.2861 51.6077 12.1523V15.7373C51.6077 16.6035 50.9055 17.3065 50.0393 17.3066H31.4612C30.5951 17.3064 29.8928 16.6035 29.8928 15.7373V12.1523C29.8928 11.2862 30.5951 10.5842 31.4612 10.584H36.0002V7.44629C36.0003 6.5801 36.7024 5.87806 37.5686 5.87793H43.9319Z" fill="#070808"/>
<path d="M43.9319 5.87793L43.932 4.87793H43.9319V5.87793ZM45.5002 7.44629H46.5002V7.44621L45.5002 7.44629ZM45.5002 10.584H44.5002V11.584H45.5002V10.584ZM50.0393 10.584L50.0395 9.58398H50.0393V10.584ZM50.0393 17.3066V18.3066H50.0395L50.0393 17.3066ZM31.4612 17.3066L31.4609 18.3066H31.4612V17.3066ZM31.4612 10.584V9.58398H31.4609L31.4612 10.584ZM36.0002 10.584V11.584H37.0002V10.584H36.0002ZM36.0002 7.44629L35.0002 7.44621V7.44629H36.0002ZM37.5686 5.87793V4.87793H37.5685L37.5686 5.87793ZM43.9319 5.87793L43.9318 6.87793C44.2458 6.87796 44.5002 7.13239 44.5002 7.44637L45.5002 7.44629L46.5002 7.44621C46.5001 6.02775 45.3504 4.87807 43.932 4.87793L43.9319 5.87793ZM45.5002 7.44629H44.5002V10.584H45.5002H46.5002V7.44629H45.5002ZM45.5002 10.584V11.584H50.0393V10.584V9.58398H45.5002V10.584ZM50.0393 10.584L50.0391 11.584C50.3534 11.584 50.6077 11.8386 50.6077 12.1523H51.6077H52.6077C52.6077 10.7336 51.4576 9.58427 50.0395 9.58398L50.0393 10.584ZM51.6077 12.1523H50.6077V15.7373H51.6077H52.6077V12.1523H51.6077ZM51.6077 15.7373H50.6077C50.6077 16.0519 50.3525 16.3066 50.0391 16.3066L50.0393 17.3066L50.0395 18.3066C51.4584 18.3064 52.6077 17.1552 52.6077 15.7373H51.6077ZM50.0393 17.3066V16.3066H31.4612V17.3066V18.3066H50.0393V17.3066ZM31.4612 17.3066L31.4615 16.3066C31.1479 16.3066 30.8928 16.0517 30.8928 15.7373H29.8928H28.8928C28.8928 17.1552 30.0422 18.3062 31.4609 18.3066L31.4612 17.3066ZM29.8928 15.7373H30.8928V12.1523H29.8928H28.8928V15.7373H29.8928ZM29.8928 12.1523H30.8928C30.8928 11.8387 31.1471 11.5841 31.4615 11.584L31.4612 10.584L31.4609 9.58398C30.043 9.58438 28.8928 10.7336 28.8928 12.1523H29.8928ZM31.4612 10.584V11.584H36.0002V10.584V9.58398H31.4612V10.584ZM36.0002 10.584H37.0002V7.44629H36.0002H35.0002V10.584H36.0002ZM36.0002 7.44629L37.0002 7.44637C37.0003 7.13246 37.2547 6.87798 37.5687 6.87793L37.5686 5.87793L37.5685 4.87793C36.1502 4.87814 35.0004 6.02773 35.0002 7.44621L36.0002 7.44629ZM37.5686 5.87793V6.87793H43.9319V5.87793V4.87793H37.5686V5.87793Z" fill="white" mask="url(#path-6-inside-1_1752_364665)"/>
<path d="M27.2676 28.4574C27.2676 27.6494 27.7956 27.1614 28.5396 27.1614C29.2836 27.1614 29.8116 27.6494 29.8116 28.4574C29.8116 29.2814 29.2836 29.7614 28.5396 29.7614C27.7956 29.7614 27.2676 29.2814 27.2676 28.4574ZM31.3076 27.2574H32.4036L29.2596 32.8574H28.1716L31.3076 27.2574ZM28.5316 27.8334C28.2356 27.8334 28.0916 28.0414 28.0916 28.4574C28.0916 28.8814 28.2356 29.0894 28.5316 29.0894C28.8196 29.0894 28.9876 28.8814 28.9876 28.4574C28.9876 28.0414 28.8356 27.8334 28.5316 27.8334ZM30.7796 31.6494C30.7796 30.8254 31.3076 30.3534 32.0516 30.3534C32.7956 30.3534 33.3076 30.8254 33.3076 31.6494C33.3076 32.4734 32.7956 32.9534 32.0516 32.9534C31.2916 32.9534 30.7796 32.4734 30.7796 31.6494ZM32.0436 31.0254C31.7396 31.0254 31.5876 31.2334 31.5876 31.6494C31.5876 32.0734 31.7396 32.2814 32.0436 32.2814C32.3396 32.2814 32.4916 32.0734 32.4916 31.6494C32.4916 31.2334 32.3396 31.0254 32.0436 31.0254Z" fill="white"/>
<path d="M30.4054 15H51L50.8108 17H31L30.4054 15Z" fill="white"/>
</svg>
