<svg width="24" height="24" viewBox="0 0 24 24" fill="none" xmlns="http://www.w3.org/2000/svg">
<path d="M10.1045 2.91805C10.2755 2.35266 10.5462 2.19833 11.2871 2.71786C14.0378 4.63683 15.7151 6.97055 16.3184 9.71786C16.4146 10.1695 16.6002 10.0002 16.7002 9.70028C16.8591 9.04217 17.0497 8.20994 17.1748 7.70516C17.2999 7.20042 17.5974 7.15402 17.8877 7.55477C22.7261 15.4544 18.2367 20.8472 14.5508 21.5792L14.4502 21.5948C14.029 21.6407 13.8151 21.4072 13.7657 20.9708L13.7549 20.7559C13.7549 19.9538 13.1466 18.4636 11.9405 17.3878L11.6914 17.1778C11.2087 16.7954 10.9644 16.942 11 17.5001C11.1283 19.5276 10.1002 20.5003 9.51469 21.1475C9.2309 21.5063 8.73478 21.5996 8.34574 21.3673C2.56839 18.2326 3.06521 11.8547 6.83304 7.89657C9.00631 5.60566 9.80876 3.87879 10.1045 2.91805ZM11.1123 4.45614C10.5784 5.61613 9.62457 7.13495 7.92191 8.92977L7.91996 8.93075C6.27468 10.6591 5.40508 12.8556 5.50785 14.8643C5.6018 16.6995 6.51011 18.5136 8.6807 19.8282C8.88803 19.5973 9.06008 19.3942 9.20707 19.1241C9.39127 18.7856 9.54838 18.3163 9.50297 17.5958L9.49613 17.4093C9.49535 17.21 9.51526 16.9764 9.58597 16.7364C9.68199 16.4106 9.92329 15.9243 10.4795 15.6456C11.0287 15.3705 11.5564 15.4634 11.8672 15.5714C12.1776 15.6792 12.4336 15.8519 12.6231 16.002H12.6221C13.4946 16.6914 14.1367 17.5435 14.5635 18.3516C14.8116 18.8214 15.0111 19.3249 15.1309 19.8165C16.2389 19.3098 17.3952 18.2555 18.0245 16.6944C18.6112 15.2386 18.7693 13.2476 17.8233 10.7735C17.7054 10.9409 17.4409 11.2623 16.9776 11.4151C16.6554 11.5214 16.2745 11.5316 15.9034 11.3849C15.5585 11.2485 15.3365 11.0224 15.208 10.8526C14.9784 10.549 14.8917 10.2204 14.8526 10.0391C14.3934 7.9487 13.1922 6.08632 11.1123 4.45614Z" fill="#303236"/>
</svg>
