<svg width="343" height="191" viewBox="0 0 343 191" fill="none" xmlns="http://www.w3.org/2000/svg">
    <path d="M8 0.5H335C339.142 0.5 342.5 3.85787 342.5 8V183C342.5 187.142 339.142 190.5 335 190.5H8C3.85787 190.5 0.5 187.142 0.5 183V8L0.509766 7.61426C0.710538 3.65139 3.98724 0.5 8 0.5Z" fill="white" stroke="#F2F3F4"/>
    <mask id="mask0_77_62" style="mask-type:alpha" maskUnits="userSpaceOnUse" x="16" y="97" width="311" height="62">
        <rect x="16" y="97" width="311" height="62" fill="#D9D9D9"/>
    </mask>
    <g mask="url(#mask0_77_62)">
        <path d="M16.8391 154.506L16.6218 155.141C16.5776 155.271 16.4561 155.358 16.3195 155.358C16.143 155.358 16 155.215 16 155.038V96.541H89.4704L89.8231 96.8922C90.0116 97.0798 90.1159 97.335 90.1268 97.6007C90.1799 98.8982 90.4124 100.074 89.4704 100.397C88.4286 100.754 87.9078 100.498 87.9078 101.468C87.9078 104.062 87.8251 106.633 86.9276 109.15C86.8876 109.262 86.8661 109.38 86.8658 109.499C86.8534 114.083 86.373 118.653 86.3321 123.236C86.3288 123.611 86.1191 123.955 85.785 124.126L85.2373 124.406C84.7815 124.64 84.223 124.491 83.9436 124.062L83.8481 123.915C83.8187 123.87 83.793 123.823 83.7712 123.773L83.3203 122.752C83.2547 122.603 83.1488 122.475 83.0147 122.383C82.5741 122.082 81.9642 122.25 81.7306 122.73C81.6825 122.829 81.6527 122.937 81.6438 123.047L81.1428 129.226C81.1385 129.279 81.1301 129.331 81.1177 129.382L80.6155 131.446L80.0157 134.997L79.7093 136.494C79.6274 136.894 79.3106 137.204 78.9089 137.278L78.4177 137.367C78.2246 137.402 78.0461 137.493 77.9045 137.629L75.5962 139.845L73.7586 141.256C73.721 141.285 73.6854 141.316 73.6523 141.35L72.0926 142.947C71.9102 143.134 71.808 143.384 71.808 143.646V144.2C71.808 144.51 71.6635 144.804 71.417 144.993L70.5453 145.662L69.4182 146.528C69.3284 146.596 69.251 146.68 69.1892 146.775L68.8087 147.359C68.7058 147.517 68.5613 147.643 68.389 147.72C67.3048 148.203 65.3716 148.973 64.3807 149.049C64.2814 149.057 64.1833 149.041 64.0882 149.011L61.0748 148.086L59.9851 147.668C59.8708 147.624 59.7493 147.601 59.6267 147.601H58.5851C58.1812 147.601 57.8169 147.844 57.6618 148.217L57.5692 148.44C57.414 148.813 57.0498 149.056 56.6459 149.056H54.398C54.2223 149.056 54.0497 149.102 53.8976 149.19L52.8528 149.794C52.6197 149.928 52.4508 150.151 52.3842 150.412L52.3212 150.659C52.2659 150.877 52.1391 151.069 51.9613 151.205L51.2424 151.757C51.0677 151.891 50.8536 151.964 50.6334 151.964H49.0789H47.1848H44.6594H42.4736C42.2533 151.964 42.0392 152.037 41.8645 152.171L40.7559 153.022C40.4422 153.263 40.0158 153.296 39.6685 153.107L38.7194 152.59C38.2595 152.339 37.6843 152.486 37.4005 152.926L37.3784 152.96C37.1943 153.246 36.8777 153.418 36.538 153.418H35.7076C35.3574 153.418 35.0316 153.604 34.8505 153.903C34.6694 154.203 34.3436 154.388 33.9935 154.388H33.7739C33.4289 154.388 33.1105 154.573 32.9397 154.873C32.7689 155.173 32.4505 155.358 32.1055 155.358H30.138H28.8131C28.6268 155.358 28.4442 155.306 28.2859 155.207L27.3082 154.601C27.0883 154.464 26.9298 154.248 26.8661 153.997L26.5413 152.718C26.4287 152.275 26.0295 151.964 25.5721 151.964H24.012C23.7326 151.964 23.4822 151.792 23.3824 151.531C23.1675 150.969 22.3801 150.949 22.1365 151.499L22.114 151.549C22.0023 151.802 21.7525 151.964 21.4767 151.964H21.1541C20.7131 151.964 20.3283 152.264 20.2201 152.691C20.112 153.119 19.7272 153.418 19.2862 153.418H18.0529C17.7147 153.418 17.3995 153.589 17.2149 153.873L16.9474 154.284C16.9022 154.353 16.8659 154.428 16.8391 154.506Z" fill="url(#paint0_linear_77_62)"/>
        <path d="M16 155.357V155.357C16.3277 155.357 16.6192 155.148 16.7252 154.838L16.8391 154.505C16.8659 154.427 16.9022 154.352 16.9474 154.283L17.2149 153.872C17.3995 153.589 17.7147 153.418 18.0529 153.418H19.2862C19.7272 153.418 20.112 153.118 20.2201 152.69V152.69C20.3283 152.263 20.7131 151.963 21.1541 151.963H21.4767C21.7525 151.963 22.0023 151.801 22.114 151.549L22.1365 151.498C22.3801 150.948 23.1675 150.968 23.3824 151.53V151.53C23.4822 151.791 23.7326 151.963 24.012 151.963H25.5721C26.0295 151.963 26.4287 152.274 26.5413 152.717L26.8661 153.996C26.9298 154.247 27.0883 154.463 27.3082 154.6L28.2859 155.206C28.4442 155.305 28.6268 155.357 28.8131 155.357H30.138H32.1055C32.4505 155.357 32.7689 155.172 32.9397 154.872V154.872C33.1105 154.572 33.4289 154.387 33.7739 154.387H33.9934C34.3436 154.387 34.6694 154.202 34.8505 153.902V153.902C35.0316 153.603 35.3574 153.418 35.7076 153.418H36.538C36.8777 153.418 37.1943 153.245 37.3784 152.96L37.4005 152.925C37.6843 152.485 38.2595 152.339 38.7194 152.589L39.6685 153.106C40.0158 153.296 40.4422 153.262 40.7559 153.021L41.8645 152.17C42.0392 152.036 42.2533 151.963 42.4736 151.963H44.6594H47.1848H49.0789H50.6334C50.8536 151.963 51.0677 151.891 51.2424 151.756L51.9613 151.204C52.1391 151.068 52.2659 150.876 52.3212 150.658L52.3842 150.411C52.4508 150.15 52.6197 149.927 52.8528 149.793L53.8976 149.189C54.0497 149.101 54.2223 149.055 54.398 149.055H56.6459C57.0498 149.055 57.414 148.812 57.5692 148.439L57.6618 148.216C57.8169 147.843 58.1812 147.6 58.5851 147.6H59.6267C59.7493 147.6 59.8707 147.623 59.9851 147.667L61.0748 148.085L64.0881 149.011C64.1833 149.04 64.2814 149.056 64.3807 149.049C65.3716 148.972 67.3048 148.202 68.389 147.719C68.5613 147.642 68.7058 147.516 68.8087 147.359L69.1892 146.774C69.251 146.679 69.3284 146.596 69.4182 146.527L70.5453 145.661L71.417 144.992C71.6635 144.803 71.808 144.51 71.808 144.199V143.645C71.808 143.384 71.9102 143.133 72.0926 142.946L73.6523 141.349C73.6854 141.315 73.721 141.284 73.7586 141.255L75.5962 139.844L77.9045 137.628C78.0461 137.493 78.2246 137.401 78.4177 137.366L78.9089 137.277C79.3106 137.203 79.6274 136.893 79.7093 136.493L80.0157 134.996L80.6155 131.445L81.1177 129.381C81.1301 129.33 81.1385 129.278 81.1428 129.225L81.6438 123.046C81.6527 122.936 81.6825 122.828 81.7306 122.729V122.729C81.9642 122.249 82.5741 122.081 83.0147 122.383V122.383C83.1488 122.474 83.2547 122.602 83.3203 122.751L83.7712 123.772C83.793 123.822 83.8187 123.869 83.8481 123.914L83.9436 124.061C84.223 124.49 84.7815 124.639 85.2373 124.405L85.785 124.125C86.1191 123.954 86.3288 123.61 86.3321 123.235C86.373 118.652 86.8534 114.082 86.8658 109.498C86.8661 109.379 86.8876 109.261 86.9275 109.149C87.8251 106.632 87.9078 104.061 87.9078 101.467C87.9078 100.497 88.4286 100.753 89.4704 100.396C90.4098 100.074 90.1812 98.9038 90.1272 97.6107C90.1159 97.3386 90.2286 97.0778 90.4251 96.8893L92.4103 94.9839C92.5616 94.8387 92.6634 94.6496 92.7013 94.4434L93.0671 92.4563C93.0994 92.2805 93.1753 92.1129 93.3066 91.9917C94.3602 91.0191 95.7998 91.4196 95.7998 90.8824C95.7998 87.625 94.4094 83.6419 97.314 81.0183C97.5446 80.81 97.6939 80.52 97.6939 80.2092V78.5752C97.6939 78.3815 97.7502 78.1919 97.8559 78.0295L98.7946 76.588C98.9003 76.4257 98.9546 76.2357 98.963 76.0421C99.0689 73.5992 100.469 71.7075 101.971 68.2764C103.534 64.7075 103.376 70.0372 103.376 70.0372V73.2229C103.376 73.3599 103.404 73.4954 103.459 73.6211L103.925 74.6944C103.979 74.8201 104.008 74.9556 104.008 75.0926V76.3392C104.008 76.6624 104.008 77.5027 104.008 78.2783C104.008 82.1565 104.008 82.1565 104.008 84.0956C104.008 87.3402 103.697 90.7672 105.902 93.3063M117.897 93.3063C117.352 91.2125 118.235 88.667 119.117 86.619C119.146 86.5526 119.182 86.4899 119.224 86.4313L122.127 82.4189C122.251 82.2483 122.317 82.0432 122.317 81.8327V74.1909C122.317 73.4216 123.149 72.9404 123.816 73.3243L124.744 73.8587C124.809 73.8963 124.87 73.9408 124.922 73.996C125.151 74.2422 125.82 75.047 126.105 76.3392C126.452 77.9123 126.863 79.9232 127.494 80.7022C128.126 81.4812 127.999 79.2479 127.999 78.2783C127.999 77.3088 127.999 76.824 127.999 75.8545C127.999 74.8849 127.999 73.4306 127.999 72.9458C127.999 72.461 128.631 71.0067 128.631 70.5219C128.631 70.158 129.372 68.3426 129.811 67.3192C129.865 67.1933 129.893 67.0578 129.893 66.9208V64.2199V59.6904C129.893 59.195 130.589 59.0846 130.742 59.5557V59.5557C130.873 59.9562 131.439 59.9562 131.57 59.5557L132.37 57.0992C132.402 56.9992 132.419 56.8948 132.419 56.7897C132.419 55.9349 132.419 54.4037 132.419 54.0397C132.419 53.6723 133.174 52.406 133.612 51.7241C133.658 51.652 133.717 51.5896 133.785 51.5383V51.5383C134.232 51.2036 134.874 51.4754 134.945 52.0295L135.349 55.178C135.448 55.953 136.362 56.3244 137 55.8732C137.593 55.4538 138.198 55.0716 138.433 55.0716C138.953 55.0716 138.732 56.1727 138.732 56.9483C138.732 60.1962 137.909 69.6736 141.915 71.3122C142.272 71.4582 142.583 71.7292 142.68 72.1025L143.152 73.9154L143.713 76.9319C143.758 77.1746 143.892 77.3919 144.087 77.5422L145.918 78.9476C146.164 79.1369 146.309 79.43 146.309 79.7408V81.9488C146.309 82.0858 146.338 82.2207 146.388 82.3479C146.61 82.9024 146.94 83.8935 146.94 84.5804C146.94 88.3165 147.572 92.096 147.572 95.7301M148.834 93.791C148.834 93.3063 148.834 90.8824 148.834 90.3976C148.834 89.9129 148.834 87.0042 148.834 86.0347C148.834 85.0651 148.834 80.6905 150.728 82.1565C152.622 83.6225 152.622 86.4411 152.622 87.489C152.622 87.9738 152.622 87.489 152.622 88.4585C152.622 89.2342 152.622 90.7208 152.622 91.3672C152.622 91.6904 152.622 92.4337 152.622 92.8215C152.622 93.2093 152.622 94.2758 152.622 94.7606M154.58 86.1207C155.101 85.7638 155.621 86.8345 155.779 87.489C155.964 88.2543 156.158 91.3615 156.411 90.8824C157.15 89.4791 157.673 88.0117 157.673 86.5195C157.673 86.0347 157.673 85.0651 157.673 84.0956C157.673 83.3199 158.305 82.1565 158.936 80.7022C159.567 79.2479 159.788 77.1986 160.309 75.8545C160.83 74.5103 160.83 78.3753 160.83 78.7631C160.83 79.2479 160.83 78.2783 160.83 80.7022C160.83 83.126 160.83 83.2656 161.351 84.5804C162.126 86.5352 163.471 87.666 164.618 89.4281L165.088 90.1488C165.193 90.3112 165.25 90.5008 165.25 90.6945V93.3063M274.476 92.8215L275.729 94.4138C275.868 94.5901 275.936 94.8097 275.966 95.0322C276.155 96.4543 277.516 96.7002 278.264 95.7301C279.069 94.686 279.069 93.6153 279.59 92.8215C280.071 92.0871 281.769 85.6593 282.021 84.6999C282.042 84.6176 282.052 84.5373 282.052 84.4522V82.1565L281.428 69.2201C281.423 69.119 281.434 69.0176 281.459 68.9196C282.076 66.5463 282.571 64.5031 283.324 62.1687C283.355 62.0723 283.372 61.9794 283.373 61.8781C283.397 60.2987 283.65 46.3587 285.266 47.1952C285.362 47.2445 285.425 47.3417 285.471 47.4384C286.542 49.6637 287.687 55.2473 287.902 56.3204C287.925 56.4401 287.97 56.5529 288.033 56.6574C288.367 57.2097 289.459 59.065 289.459 59.7219V59.7219C289.459 60.1157 290.469 60.1223 290.639 59.7667C291.451 58.0602 292.154 56.3379 292.154 56.9483C292.154 57.9179 292.154 61.3113 292.154 63.2504C292.154 65.1894 292.154 65.6742 292.154 68.0981C292.154 70.0372 292.154 71.4915 292.154 73.4306C292.154 75.3697 292.154 78.2783 292.785 75.8545C293.417 73.4306 294.679 71.9763 294.679 70.0372C294.679 65.1894 295.216 65.7782 295.942 63.7351C296.631 61.7967 296.77 59.4637 297.681 58.1257C297.777 57.9851 297.852 57.83 297.881 57.6625L298.105 56.4033C298.222 55.7413 298.96 55.4054 299.356 55.9488C299.579 56.2553 299.73 56.602 299.73 56.9483C299.73 63.6306 300.867 77.1986 303.55 77.3088C306.233 77.419 304.592 67.1285 306.044 67.1285C307.408 67.1285 308.624 69.4115 309.115 70.3573C309.172 70.4663 309.208 70.5845 309.221 70.7066L310.01 77.665C310.108 78.533 311.313 78.5737 311.884 77.9123V77.9123C312.405 77.3088 312.926 76.1279 313.62 75.3697C314.227 74.7075 313.786 78.3066 314.926 79.8752C315.203 80.2564 315.74 80.1339 316.025 79.7585C316.583 79.0244 317.024 78.4393 317.374 77.9524C317.842 77.3008 320.448 77.5963 321.196 77.3088V77.3088V77.3088C321.678 77.1239 322.941 72.0666 323.063 71.5654C323.148 71.2208 323.24 70.8394 323.343 70.4177C324.906 63.9938 326.037 48.384 326.247 41.4356L326.495 39.0117" stroke="#F74B60" stroke-width="1.2" stroke-linecap="square" stroke-linejoin="round"/>
    </g>
    <mask id="mask1_77_62" style="mask-type:alpha" maskUnits="userSpaceOnUse" x="16" y="16" width="311" height="81">
        <rect x="16" y="16" width="311" height="81" fill="#D9D9D9"/>
    </mask>
    <g mask="url(#mask1_77_62)">
        <path d="M16.3404 154.895H16.0001V174.237C16.0001 174.79 16.4478 175.237 17.0001 175.237H326C326.552 175.237 327 174.79 327 174.237V38.09L326.752 40.9736C326.542 47.922 325.41 63.5318 323.848 69.9558L323.645 70.7907C323.512 71.335 321.43 76.646 320.907 76.8468C320.081 77.1639 319.954 77.366 319.402 77.0993C319.113 76.9594 318.782 76.9242 318.475 77.019C317.551 77.3039 317.064 77.2492 316.428 78.8282C316.196 79.4028 315.526 79.6457 315.236 79.0983C314.341 77.4133 314.694 74.2868 314.125 74.9077C313.43 75.666 312.91 76.8468 312.389 77.4504C312.087 77.8004 311.557 77.7445 311.165 77.6357C310.846 77.5471 310.644 77.2537 310.602 76.9252L309.728 70.2356C309.713 70.1194 309.68 70.0121 309.652 69.8983C309.256 68.2669 308.914 57.4621 307.524 57.4621C306.071 57.4621 307.713 67.7525 305.03 67.6423C302.346 67.5321 301.21 53.9642 301.21 47.2818C301.21 46.9355 301.059 46.5888 300.836 46.2823C300.44 45.7389 299.702 46.0748 299.585 46.7368L299.361 47.996C299.331 48.1635 299.257 48.3186 299.161 48.4592C298.25 49.7973 298.111 52.1303 297.422 54.0686C296.696 56.1117 296.159 55.523 296.159 60.3707C296.159 62.3098 294.896 63.7641 294.265 66.188C293.634 68.6118 293.634 65.7032 293.634 63.7641V58.4316C293.634 56.0077 292.659 55.523 292.659 53.5839C292.659 51.6448 291.684 44.5696 291.684 43.6C291.684 43.1631 290.927 44.5055 290.078 46.1078C289.593 47.0243 286.668 52.0049 286.111 52.8793C285.327 54.1083 284.627 55.1337 284.627 54.7927C284.627 54.1248 283.925 52.4502 283.73 51.9981C283.697 51.9215 283.673 51.8456 283.659 51.7633C283.454 50.5581 281.758 40.6834 280.942 37.9113C280.879 37.6963 280.702 37.5056 280.515 37.6294C278.839 38.7398 274.234 51.5623 273.678 53.1223C273.64 53.2292 273.625 53.335 273.617 53.4482C273.519 54.9977 272.16 57.6791 271.673 58.8002C271.183 59.9302 272.105 61.991 272.459 64.2169C272.479 64.3475 272.471 64.4809 272.438 64.6089L272.193 65.5551C272.171 65.6371 272.161 65.7215 272.161 65.8062V67.9451C272.161 68.0494 272.146 68.1488 272.114 68.2481C271.775 69.2917 269.714 75.6151 269.236 76.3432C268.715 77.137 267.116 81.2277 266.311 82.2718C265.539 83.2736 262.658 74.1546 262.426 71.8918C262.409 71.7261 262.37 71.5665 262.291 71.4202L261.72 70.3689C261.546 70.0465 261.208 69.8457 260.841 69.8457H260.731C260.555 69.8457 260.381 69.8923 260.229 69.981L254.26 73.4489C254.17 73.501 254.064 73.5539 253.973 73.5044C252.688 72.8062 252.691 59.3259 251.76 58.3869C251.718 58.3441 251.654 58.3362 251.594 58.3321C248.859 58.1429 249.609 62.1395 246.373 69.1875C246.184 69.5991 245.369 70.7026 244.996 70.4456C244.925 70.3967 244.822 70.2874 244.746 70.2479C243.84 69.7815 242.306 68.588 241.273 67.4447C241.071 67.2215 240.77 67.0991 240.564 67.3183C240.005 67.9133 239.334 69.5248 238.526 70.7661C237.263 72.7057 235.954 76.9589 235.954 75.8589C235.954 74.7588 235.149 73.0332 235.149 71.9807C235.149 70.9609 234.658 71.4617 233.693 71.6283C233.631 71.6391 233.569 71.6536 233.509 71.6744L232.783 71.9257C232.678 71.9621 232.567 71.9807 232.456 71.9807H231.547C231.424 71.9807 231.303 71.9581 231.188 71.9141L230.099 71.4954L228.489 70.6717C228.304 70.5771 228.153 70.4275 228.057 70.2434L227.25 68.6935C227.063 68.3356 226.681 68.1222 226.281 68.1758C224.259 68.4471 221.08 69.2765 220.628 71.0111C220.182 72.7237 219.703 73.8059 219.453 74.258C219.398 74.357 219.32 74.4398 219.23 74.5087L217.697 75.6851C217.235 76.04 216.568 75.9248 216.194 75.478C215.394 74.524 214.188 73.4345 213.052 73.4345C209.66 73.4345 210.526 77.965 210.526 79.2518C210.526 79.9179 208.441 80.8129 207.135 81.9366C206.506 82.4774 205.156 82.8846 204.498 82.3797L204.286 82.2165C203.884 81.9082 203.315 81.9488 202.961 82.3109L201.982 83.3136C201.794 83.5062 201.536 83.6147 201.266 83.6147H197.005C196.453 83.6147 196.005 83.167 196.005 82.6147V80.2218V75.8589C196.005 75.1674 195.336 76.2224 194.893 77.0318C194.793 77.2137 194.629 77.3533 194.5 77.5157C194.161 77.9414 194.078 78.7922 193.158 79.881C192.977 80.095 192.674 80.1698 192.435 80.0233C192.173 79.8631 191.941 79.6538 191.743 79.4362C191.454 79.1197 190.798 79.2428 190.729 79.6657C190.683 79.9473 190.384 80.11 190.123 79.9953L188.607 79.3298C188.489 79.2783 188.383 79.2047 188.293 79.113L187.23 78.0243C186.873 77.6595 186.271 77.7189 185.992 78.1463C185.665 78.6486 184.923 78.623 184.636 78.0964C183.963 76.8576 183.117 75.2576 182.747 74.4045C182.174 73.0862 182.277 71.8581 181.525 71.5578C181.361 71.4923 181.176 71.5309 181.02 71.6126C180.221 72.0286 180.221 72.4141 180.221 73.4345C180.221 74.3369 178.981 75.3665 178.508 75.7264C178.39 75.8158 178.29 75.9241 178.215 76.0517C177.324 77.5792 175.507 80.5617 174.539 81.6761C173.565 82.7978 173.23 81.3063 173.207 80.3289C173.206 80.2576 173.199 80.187 173.184 80.1173C172.963 79.0999 172.501 76.9819 172.014 75.8589C171.64 74.9991 171.405 74.0959 171.104 73.6758C170.959 73.4748 170.751 73.2388 170.751 72.9915C170.751 72.769 170.592 72.5783 170.373 72.5389L169.772 72.4307C169.325 72.3502 168.988 71.9784 168.902 71.5324C168.748 70.7321 168.398 69.5071 167.644 68.9012C167.598 68.8638 167.553 68.8303 167.511 68.8006C166.895 68.3707 166.226 70.2701 166.095 71.0094L164.938 77.5665C164.925 77.635 164.906 77.7021 164.88 77.7666L163.827 80.3785C163.813 80.4131 163.806 80.4501 163.806 80.4875C163.806 80.6862 163.611 80.8267 163.423 80.7642L163.302 80.7243C163.22 80.6969 163.149 80.642 163.101 80.5697C161.97 78.8711 160.665 77.7473 159.907 75.8343C159.387 74.5196 159.387 74.38 159.387 71.9561V70.017C159.387 69.6292 159.387 65.7643 158.866 67.1084C158.345 68.4525 158.124 70.5018 157.492 71.9561C156.861 73.4105 156.23 74.5739 156.23 75.3495V77.7734C156.23 79.2657 155.707 80.7331 154.967 82.1364C154.714 82.6154 153.405 78.5566 153.22 77.7913C153.065 77.1468 152.743 77.2073 150.871 85.1193C150.815 85.3565 150.673 85.5712 150.474 85.7121L149.028 86.7365C148.9 86.8269 148.795 86.9462 148.722 87.0846L147.487 89.4159C147.411 89.5601 147.371 89.7191 147.371 89.8823C147.375 90.8049 147.391 93.5282 147.391 93.9611C147.391 94.3034 146.735 93.4125 146.292 92.7541C146.184 92.5934 146.128 92.403 146.127 92.2092C146.093 88.8139 145.497 87.7505 145.497 84.1184C145.497 83.4315 145.167 82.4405 144.945 81.886C144.894 81.7588 144.865 81.6239 144.865 81.4868V79.2789C144.865 78.9681 144.721 78.675 144.474 78.4857L142.644 77.0802C142.448 76.93 142.315 76.7126 142.27 76.47L141.708 73.4534L141.146 71.2937C141.101 71.1208 141.007 70.966 140.896 70.826C138.956 68.3802 139.239 59.7898 139.239 56.4864C139.239 55.7107 139.46 54.6097 138.939 54.6097C138.668 54.6097 137.927 54.8717 137.278 55.1232C136.693 55.35 136.034 55.011 135.899 54.3983L135.312 51.7349C135.237 51.3955 134.937 51.1539 134.589 51.1539C134.339 51.1539 134.105 51.2798 133.972 51.4922C133.532 52.1977 132.925 53.2486 132.925 53.5777V56.2873C132.925 56.4191 132.899 56.549 132.849 56.6707L131.983 58.7534C131.855 59.0604 131.555 59.2605 131.223 59.2605C130.768 59.2605 130.4 59.6289 130.4 60.0835V63.758V66.4589C130.4 66.5959 130.372 66.7313 130.318 66.8572C129.878 67.8807 129.137 69.6961 129.137 70.06C129.137 70.5448 128.506 71.9991 128.506 72.4839V75.3925V77.8164C128.506 78.7859 128.632 81.0193 128.001 80.2402C127.369 79.4612 126.959 77.4504 126.612 75.8773C126.326 74.5851 125.658 73.7803 125.428 73.5341C125.377 73.4788 125.316 73.4344 125.251 73.3967L124.068 72.7158C123.515 72.3971 122.824 72.7966 122.824 73.4353C122.824 73.9186 122.412 74.2997 121.931 74.2632L120.376 74.1454C119.952 74.1132 119.559 74.358 119.354 74.7314C118.602 76.0994 117.961 76.2302 118.357 77.928C118.386 78.0532 118.396 78.1826 118.379 78.31L117.785 82.8727C117.777 82.9339 117.763 82.9943 117.744 83.0531L117.141 84.9039C117.046 85.2682 116.51 89.2119 116.51 89.5884V91.9225C116.51 92.0843 116.447 92.2398 116.334 92.3556L115.751 92.952C115.327 93.3862 113.863 93.4746 113.353 93.145C111.854 92.175 111.171 89.6284 111.171 86.3577C111.171 82.0322 109.51 82.0864 106.408 78.117C104.204 75.578 104.514 75.8328 104.514 72.5882V71.3732V69.4341V68.1875C104.514 68.0505 104.486 67.9149 104.431 67.7892L103.966 66.716C103.911 66.5903 103.883 66.4548 103.883 66.3178V63.1321C103.883 63.1321 104.041 57.8024 102.478 61.3713C100.976 64.8024 99.5756 66.6941 99.4697 69.137C99.4613 69.3306 99.407 69.5205 99.3013 69.6829L98.3626 71.1244C98.2569 71.2868 98.2006 71.4763 98.2006 71.6701V73.3041C98.2006 73.6149 98.0499 73.9014 97.8357 74.1266C94.9114 77.2008 96.3065 87.1575 96.3065 90.4205C96.3065 90.9576 94.867 90.5572 93.8134 91.5297C93.682 91.6509 93.6062 91.8186 93.5738 91.9943L93.2081 93.9815C93.1701 94.1877 93.0683 94.3768 92.9171 94.5219L90.9319 96.4273C90.7354 96.6159 90.6226 96.8766 90.634 97.1487C90.688 98.4419 90.9165 99.6124 89.9771 99.9342C88.9354 100.291 88.4146 100.035 88.4146 101.005C88.4146 103.6 88.3319 106.17 87.4343 108.687C87.3944 108.799 87.3729 108.917 87.3726 109.036C87.3602 113.62 86.8798 118.19 86.8389 122.773C86.8356 123.148 86.6259 123.492 86.2918 123.663L85.7441 123.944C85.2883 124.177 84.7299 124.028 84.4504 123.599L84.3549 123.452C84.3255 123.407 84.2998 123.36 84.278 123.31L83.8271 122.289C83.7615 122.14 83.6556 122.013 83.5215 121.921C83.0809 121.619 82.4711 121.787 82.2374 122.267C82.1894 122.366 82.1596 122.474 82.1507 122.584L81.6496 128.763C81.6454 128.816 81.637 128.868 81.6245 128.919L81.1224 130.983L80.5226 134.534L80.2161 136.031C80.1343 136.431 79.8174 136.742 79.4157 136.815L78.9246 136.904C78.7315 136.939 78.553 137.031 78.4114 137.167L76.1031 139.382L74.2655 140.793C74.2279 140.822 74.1924 140.853 74.1592 140.887L72.5996 142.484C72.4171 142.671 72.3149 142.922 72.3149 143.183V143.737C72.3149 144.048 72.1704 144.341 71.9239 144.53L71.0522 145.199L69.9251 146.065C69.8354 146.134 69.7579 146.217 69.6962 146.312L69.3156 146.897C69.2127 147.055 69.0682 147.18 68.896 147.257C67.8118 147.74 65.8786 148.51 64.8877 148.587C64.7884 148.594 64.6903 148.578 64.5951 148.549L61.5818 147.623L60.4922 147.205C60.3778 147.161 60.2563 147.138 60.1338 147.138H59.0921C58.6882 147.138 58.324 147.381 58.1688 147.754L58.0762 147.977C57.9211 148.35 57.5569 148.593 57.153 148.593H54.9051C54.7294 148.593 54.5568 148.639 54.4047 148.727L53.3599 149.331C53.1268 149.465 52.9579 149.689 52.8913 149.949L52.8283 150.196C52.7729 150.414 52.6462 150.606 52.4684 150.743L51.7495 151.295C51.5748 151.429 51.3607 151.501 51.1405 151.501H49.586H47.692H45.1665H42.9807C42.7605 151.501 42.5464 151.574 42.3717 151.708L41.2631 152.559C40.9494 152.8 40.523 152.834 40.1757 152.644L39.2266 152.127C38.7668 151.877 38.1915 152.023 37.9077 152.463L37.8856 152.498C37.7015 152.783 37.385 152.956 37.0452 152.956H36.2148C35.8647 152.956 35.5388 153.141 35.3578 153.44C35.1767 153.74 34.8508 153.925 34.5007 153.925H34.2811C33.9362 153.925 33.6177 154.11 33.447 154.41C33.2762 154.71 32.9578 154.895 32.6128 154.895H30.6453H29.3204C29.1341 154.895 28.9515 154.843 28.7932 154.744L27.8155 154.138C27.5956 154.001 27.4372 153.785 27.3735 153.534L27.0486 152.255C26.936 151.812 26.5369 151.501 26.0794 151.501H24.5193C24.24 151.501 23.9895 151.329 23.8897 151.068C23.6748 150.506 22.8874 150.486 22.6438 151.036L22.6214 151.087C22.5097 151.339 22.2599 151.501 21.9841 151.501H21.6615C21.2204 151.501 20.8357 151.801 20.7275 152.229C20.6194 152.656 20.2346 152.956 19.7935 152.956H18.5603C18.2221 152.956 17.9069 153.127 17.7223 153.41L17.4548 153.821C17.4096 153.89 17.3733 153.965 17.3465 154.043L17.2866 154.218C17.1483 154.623 16.768 154.895 16.3404 154.895Z" fill="url(#paint1_linear_77_62)"/>
        <path d="M16.0001 155V155C16.3284 155 16.6204 154.791 16.7269 154.481L16.8404 154.15C16.8673 154.071 16.9038 153.997 16.9491 153.927L17.2173 153.517C17.402 153.234 17.7169 153.064 18.0546 153.064H19.2937C19.7343 153.064 20.1187 152.764 20.2271 152.337V152.337C20.3354 151.91 20.7198 151.611 21.1605 151.611H21.4862C21.7622 151.611 22.0122 151.449 22.1243 151.197L22.1469 151.146C22.3912 150.596 23.1786 150.616 23.3942 151.178V151.178C23.4944 151.439 23.745 151.611 24.0246 151.611H25.5895C26.0467 151.611 26.4457 151.921 26.5586 152.364L26.8837 153.641C26.9476 153.892 27.1064 154.108 27.3266 154.244L28.3067 154.85C28.4648 154.948 28.6469 155 28.8328 155H30.1611H32.133C32.4778 155 32.7962 154.815 32.9673 154.516V154.516C33.1384 154.217 33.4568 154.032 33.8016 154.032H34.0246C34.3742 154.032 34.7 153.847 34.8812 153.548V153.548C35.0625 153.249 35.3882 153.064 35.7379 153.064H36.5732C36.9125 153.064 37.2286 152.892 37.4129 152.607L37.4364 152.57C37.7202 152.131 38.2942 151.985 38.7535 152.235L39.7092 152.754C40.056 152.942 40.4811 152.909 40.7945 152.669L41.9074 151.817C42.0819 151.684 42.2955 151.611 42.5153 151.611H44.706H47.2356H49.1328H50.6911C50.9108 151.611 51.1245 151.539 51.299 151.405L52.0196 150.854C52.1978 150.717 52.3249 150.525 52.3805 150.307L52.4432 150.062C52.51 149.801 52.6793 149.578 52.9128 149.444L53.9601 148.84C54.1119 148.753 54.2841 148.707 54.4594 148.707H56.7139C57.1174 148.707 57.4814 148.464 57.6368 148.092L57.7296 147.869C57.885 147.497 58.249 147.254 58.6525 147.254H59.6985C59.8207 147.254 59.9419 147.277 60.056 147.32L61.1482 147.738L64.167 148.663C64.2619 148.692 64.3597 148.708 64.4587 148.7C65.4512 148.625 67.3885 147.855 68.4747 147.372C68.6469 147.296 68.7915 147.17 68.8946 147.013L69.2757 146.429C69.3376 146.334 69.4151 146.251 69.505 146.182L70.634 145.318L71.5066 144.65C71.7538 144.46 71.8988 144.167 71.8988 143.856V143.305C71.8988 143.044 72.0013 142.792 72.1845 142.606L73.7461 141.012C73.7793 140.978 73.8148 140.946 73.8525 140.917L75.6931 139.508L78.0056 137.296C78.1472 137.16 78.3254 137.069 78.5182 137.034L79.0122 136.944C79.414 136.871 79.731 136.562 79.8131 136.162L80.1198 134.667L80.7206 131.121L81.2235 129.06C81.236 129.008 81.2445 128.956 81.2487 128.904L81.7505 122.734C81.7595 122.624 81.7894 122.516 81.8377 122.417V122.417C82.0721 121.936 82.6817 121.769 83.1231 122.07V122.07C83.2578 122.162 83.3642 122.29 83.4302 122.439L83.8813 123.458C83.9032 123.508 83.929 123.555 83.9585 123.601L84.0552 123.748C84.3346 124.176 84.8918 124.325 85.347 124.092L85.8983 123.811C86.233 123.64 86.4431 123.296 86.4465 122.92C86.4876 118.345 86.9685 113.781 86.981 109.205C86.9813 109.085 87.003 108.967 87.0431 108.855C87.9419 106.341 88.0247 103.774 88.0247 101.183C88.0247 100.215 88.5464 100.471 89.5899 100.114C90.5304 99.793 90.302 98.6248 90.2478 97.334C90.2364 97.0613 90.3496 96.8002 90.5467 96.6115L92.5342 94.7096C92.686 94.5644 92.7881 94.3752 92.8262 94.1687L93.1923 92.186C93.2248 92.0099 93.3009 91.842 93.4327 91.7208C94.488 90.75 95.9296 91.1498 95.9296 90.6134C95.9296 87.355 94.5323 77.4129 97.4607 74.3422C97.6756 74.117 97.8267 73.83 97.8267 73.5187V71.8896C97.8267 71.6954 97.8833 71.5054 97.9895 71.3428L98.9287 69.9048C99.035 69.7421 99.0895 69.5518 99.098 69.3577C99.2044 66.9187 100.607 65.0296 102.111 61.6037C103.676 58.0397 103.518 63.3621 103.518 63.3621V66.5426C103.518 66.68 103.547 66.8159 103.601 66.9418L104.067 68.0123C104.122 68.1382 104.151 68.2741 104.151 68.4115V69.6556C104.151 69.9783 104.151 70.8174 104.151 71.592C104.151 75.4649 104.151 75.4649 104.151 77.4014C104.151 80.6416 103.84 69.3567 106.048 71.8923C109.155 75.8562 109.842 75.8021 109.842 80.1217C109.842 83.3879 111.502 92.3655 113.004 93.3342V93.3342C113.514 93.6629 114.982 93.5742 115.406 93.141L115.989 92.5465C116.102 92.4305 116.166 92.2745 116.166 92.1121C116.166 91.2818 116.166 90.4812 116.166 89.783C116.166 89.4059 116.703 85.4691 116.798 85.1043V85.1043L117.402 83.2564C117.421 83.1975 117.435 83.1369 117.443 83.0755L118.038 78.5202C118.055 78.3924 118.053 78.2512 118.001 78.1332C117.593 77.206 118.432 87.7869 119.275 86.3612C119.312 86.2988 119.349 86.2268 119.392 86.1682L122.299 82.1621C122.423 81.9913 122.49 81.7857 122.49 81.5747V73.9443C122.49 73.1756 123.321 72.6943 123.988 73.0771L124.921 73.6129C124.986 73.6504 125.047 73.6948 125.099 73.7499C125.329 73.9956 125.999 74.7994 126.284 76.09C126.632 77.661 127.043 79.669 127.675 80.447C128.308 81.225 128.181 78.9947 128.181 78.0264C128.181 77.0582 128.181 76.5741 128.181 75.6059C128.181 74.6376 128.181 73.1853 128.181 72.7012C128.181 72.2171 128.814 70.7647 128.814 70.2806C128.814 69.9173 129.556 68.1051 129.996 67.0829C130.05 66.9567 130.079 66.8209 130.079 66.6835V63.9871V59.4647C130.079 58.9686 130.775 58.8578 130.929 59.3294V59.3294C131.06 59.7302 131.627 59.7302 131.758 59.3294L132.559 56.8767C132.591 56.7765 132.608 56.6718 132.608 56.5663C132.608 55.7126 132.608 54.1841 132.608 53.8207C132.608 53.4539 133.364 52.1897 133.803 51.5086C133.849 51.4365 133.908 51.3739 133.977 51.3226V51.3226C134.425 50.9881 135.068 51.2605 135.139 51.8153L135.543 54.959C135.643 55.7331 136.555 56.1045 137.193 55.6545C137.788 55.2346 138.396 54.8513 138.632 54.8513C139.153 54.8513 138.932 55.9508 138.932 56.7254C138.932 60.1235 138.932 68.1113 140.77 71.2488C140.931 71.5234 141.068 71.7685 141.185 71.9871C141.591 72.7454 141.65 74.9967 141.808 75.8424L141.964 76.6809C142.009 76.9238 142.143 77.1413 142.339 77.2915L144.172 78.6945C144.419 78.8837 144.564 79.1772 144.564 79.4885V81.6911C144.564 81.8284 144.593 81.9637 144.644 82.0912C144.866 82.6451 145.196 83.6342 145.196 84.3199C145.196 87.9467 145.794 89.0088 145.827 92.3986C145.829 92.5928 145.885 92.7837 145.993 92.9446C146.438 93.602 147.094 94.4909 147.094 94.1493C147.094 93.6651 147.094 91.2446 147.094 90.7605C147.094 90.2763 147.094 90.6134 147.094 90.1293C147.094 89.7372 148.205 88.6098 148.627 87.6809C148.788 87.3281 149.012 86.966 149.363 86.8012L150.312 86.355C150.586 86.2267 150.786 85.9817 150.858 85.6884L152.757 77.9568C152.816 77.7176 152.985 77.4505 153.212 77.5464C153.595 77.7086 153.929 78.4518 154.05 78.9518C154.235 79.716 154.429 82.819 154.682 82.3406C155.423 80.9392 155.947 79.4737 155.947 77.9835C155.947 77.4994 155.947 76.5312 155.947 75.563C155.947 74.7884 156.579 73.6265 157.212 72.1742C157.844 70.7218 158.066 68.6753 158.587 67.333C159.109 65.9907 159.109 69.8504 159.109 70.2377C159.109 70.7218 159.109 69.7536 159.109 72.1742C159.109 74.5947 159.109 74.7341 159.631 76.0471C160.406 77.9993 161.754 79.1285 162.903 80.8882V80.8882C163.134 81.2409 163.676 81.1348 163.757 80.7213L163.919 79.8842C163.941 79.7744 163.985 79.67 164.048 79.5778L165.272 77.7992C165.369 77.659 165.428 77.498 165.444 77.3286C165.553 76.2236 165.997 71.8343 166.411 69.7286C166.887 67.3085 167.17 70.0196 167.676 69.245C168.036 68.6939 168.722 70.9708 169.088 72.3308C169.227 72.8462 169.764 73.1522 170.274 72.997V72.997C170.869 72.816 171.47 73.2613 171.47 73.8834V74.2724C171.47 74.4664 171.527 74.6557 171.627 74.8221C171.891 75.2622 172.327 76.0532 172.735 76.9908C173.223 78.1106 172.84 79.3665 173.001 80.3231C173.013 80.3936 173.021 80.4645 173.023 80.536C173.041 81.5121 173.311 83.0009 174.286 81.881C175.256 80.7681 177.076 77.7898 177.968 76.2643C178.043 76.1368 178.144 76.0286 178.261 75.9393C178.735 75.58 179.978 74.5518 179.978 73.6505C179.978 72.6311 179.978 72.2462 180.778 71.8306C180.935 71.7494 181.119 71.711 181.282 71.776C182.037 72.0751 181.934 73.3021 182.507 74.6193C182.878 75.4711 183.725 77.0688 184.4 78.3059C184.687 78.8327 185.43 78.8582 185.758 78.3559V78.3559C186.037 77.9286 186.64 77.8692 186.997 78.2337L188.063 79.3214C188.153 79.4129 188.259 79.4863 188.377 79.5376L189.896 80.2028C190.158 80.3172 190.457 80.1545 190.503 79.8727V79.8727C190.572 79.4498 191.228 79.3265 191.517 79.6428C191.716 79.8606 191.949 80.0702 192.212 80.2306C192.451 80.3768 192.754 80.302 192.936 80.0881C193.858 79.0008 193.94 78.1512 194.28 77.726C194.409 77.5639 194.573 77.4245 194.673 77.2427C195.118 76.4344 195.788 75.3811 195.788 76.0716C195.788 76.8462 195.788 79.299 195.788 80.4286V82.8169C195.788 83.3692 196.235 83.8169 196.788 83.8169H201.059C201.328 83.8169 201.585 83.7088 201.773 83.5168L202.757 82.5129C203.111 82.1521 203.678 82.1117 204.079 82.4187L204.298 82.5864C204.956 83.09 206.305 82.6826 206.933 82.1428C208.241 81.0199 210.333 80.1254 210.333 79.4599C210.333 78.1748 209.465 73.6505 212.862 73.6505C214.001 73.6505 215.21 74.7402 216.011 75.6934C216.385 76.1388 217.05 76.2538 217.512 75.9003L219.05 74.7232C219.14 74.6544 219.218 74.5717 219.273 74.4728C219.525 74.0212 220.004 72.9406 220.451 71.2305C220.903 69.4975 224.09 68.6694 226.115 68.3987C226.514 68.3453 226.896 68.5582 227.083 68.9154L227.889 70.4582C227.987 70.6455 228.141 70.7969 228.331 70.8909L230.756 72.0945C230.894 72.163 231.047 72.2001 231.201 72.1939C233.085 72.1182 234.996 71.1895 234.996 72.1987C234.996 73.2497 235.802 74.973 235.802 76.0716C235.802 77.1702 238.793 70.5319 238.793 70.5319C238.793 70.5319 240.054 68.2907 240.839 67.5459C241.057 67.3393 241.346 67.4436 241.547 67.6676C242.828 69.1022 245.666 71.6826 246.13 70.2622L247.064 68.2082C247.094 68.1438 247.129 68.083 247.171 68.0255C247.457 67.6278 248.649 65.9242 249.065 64.5509C249.539 62.9854 249.862 58.3933 252.059 58.1589C254.257 57.9245 252.573 76.4086 255.221 73.9268C257.139 72.13 259.167 70.8792 260.54 69.9582C261.143 69.5537 262.041 69.8182 262.268 70.508L265.554 80.4712C265.588 80.5723 265.603 80.6782 265.609 80.7844C265.701 82.3669 267.148 82.6759 267.929 81.6665C268.735 80.6238 268.735 79.5546 269.257 78.7618C269.778 77.969 271.723 70.5319 271.723 70.5319L272.614 68.3277C272.671 68.1853 272.695 68.0317 272.684 67.8786L272.081 59.8023C272.073 59.6923 272.083 59.5816 272.111 59.4749C272.727 57.1101 273.222 55.0727 273.976 52.7454C274.007 52.65 274.023 52.5527 274.026 52.4525C274.054 51.4857 274.278 46.1732 275.845 47.4232C275.928 47.4902 275.988 47.5969 276.066 47.6715C276.848 48.4284 278.431 42.2035 279.565 37.1459C279.813 36.0355 281.548 36.0957 281.714 37.2214C282.356 41.5822 283.301 47.3829 284.341 51.7188C286.195 59.4433 286.705 50.7478 289 48.6464C289.112 48.5446 289.214 48.4298 289.284 48.2967C291.651 43.8425 292.603 43.0179 292.603 47.5334C292.603 52.1173 293.581 51.8904 293.581 53.8269C293.581 55.7633 293.581 56.2474 293.581 58.668C293.581 60.6045 293.581 62.0568 293.581 63.9933C293.581 65.9297 293.581 68.8344 294.213 66.4138C294.846 63.9933 296.11 62.5409 296.11 60.6045C296.11 55.7633 296.648 56.3513 297.375 54.311C298.065 52.3755 298.205 50.046 299.117 48.7097C299.213 48.5689 299.288 48.4135 299.318 48.2458L299.542 46.9884C299.659 46.3272 300.396 45.9911 300.793 46.5329C301.018 46.8396 301.17 47.1867 301.17 47.5334C301.17 54.2066 302.308 67.7561 304.996 67.8662C307.683 67.9762 306.039 57.6998 307.493 57.6998C308.883 57.6998 309.226 68.4512 309.622 70.1102C309.65 70.23 309.684 70.3434 309.698 70.4657L310.487 77.4126C310.586 78.2818 311.792 78.3224 312.365 77.661V77.661C312.887 77.0582 313.408 75.8789 314.104 75.1217C314.711 74.4604 314.27 78.0556 315.412 79.6217C315.69 80.0025 316.227 79.8798 316.513 79.5048C317.07 78.7726 317.512 78.1888 317.862 77.703C318.332 77.0508 320.942 77.3455 321.693 77.0582V77.0582V77.0582C322.175 76.8735 323.44 71.8233 323.563 71.3213C323.647 70.9775 323.74 70.5971 323.843 70.1765C325.408 63.7613 326.541 48.1728 326.752 41.2338L327 38.8132" stroke="#2BC287" stroke-width="1.2" stroke-linecap="square" stroke-linejoin="round"/>
    </g>
    <g opacity="0.25">
        <path d="M16 16H327" stroke="#C4C7CA" stroke-width="0.5" stroke-dasharray="4 4"/>
    </g>
    <g opacity="0.25">
        <path d="M16 56H327" stroke="#C4C7CA" stroke-width="0.5" stroke-dasharray="4 4"/>
    </g>
    <g opacity="0.25">
        <path d="M16 96H327" stroke="#C4C7CA" stroke-width="0.5"/>
    </g>
    <g opacity="0.25">
        <path d="M16 136H327" stroke="#C4C7CA" stroke-width="0.5" stroke-dasharray="4 4"/>
    </g>
    <path d="M23.85 163.63L24.46 164.19C24.02 164.297 23.53 164.397 22.99 164.49C22.4567 164.583 21.8967 164.67 21.31 164.75C20.7233 164.83 20.13 164.9 19.53 164.96C18.93 165.013 18.3467 165.057 17.78 165.09C17.7667 165.01 17.74 164.91 17.7 164.79C17.6667 164.67 17.63 164.57 17.59 164.49C18.1433 164.443 18.7133 164.393 19.3 164.34C19.8867 164.28 20.4567 164.213 21.01 164.14C21.57 164.067 22.0933 163.99 22.58 163.91C23.0733 163.823 23.4967 163.73 23.85 163.63ZM17.43 164.35L18.39 164.64C18.3833 164.713 18.3133 164.76 18.18 164.78V167.44C18.18 167.82 18.1667 168.237 18.14 168.69C18.1133 169.143 18.06 169.607 17.98 170.08C17.9 170.553 17.78 171.017 17.62 171.47C17.46 171.923 17.25 172.347 16.99 172.74C16.9567 172.687 16.9033 172.627 16.83 172.56C16.7567 172.493 16.68 172.427 16.6 172.36C16.5267 172.3 16.4567 172.257 16.39 172.23C16.71 171.757 16.9433 171.24 17.09 170.68C17.2367 170.12 17.33 169.56 17.37 169C17.41 168.44 17.43 167.917 17.43 167.43V164.35ZM19.06 171.73H24.41V172.38H19.06V171.73ZM18.67 169.38H24.82V172.78H24.06V170.03H19.39V172.79H18.67V169.38ZM17.86 165.68H24.69V168.33H17.86V167.67H23.95V166.33H17.86V165.68ZM31.07 165.91H35.09V166.63H31.07V165.91ZM34.72 165.91H35.45C35.45 165.91 35.45 165.933 35.45 165.98C35.45 166.027 35.45 166.08 35.45 166.14C35.45 166.2 35.45 166.25 35.45 166.29C35.4167 167.323 35.38 168.197 35.34 168.91C35.3067 169.617 35.2667 170.2 35.22 170.66C35.18 171.113 35.13 171.467 35.07 171.72C35.01 171.973 34.9333 172.157 34.84 172.27C34.74 172.397 34.6333 172.487 34.52 172.54C34.4133 172.593 34.28 172.63 34.12 172.65C33.9667 172.663 33.7633 172.67 33.51 172.67C33.2567 172.67 32.9967 172.66 32.73 172.64C32.7233 172.533 32.7 172.41 32.66 172.27C32.62 172.13 32.5667 172.007 32.5 171.9C32.78 171.927 33.04 171.943 33.28 171.95C33.52 171.957 33.6933 171.96 33.8 171.96C33.8867 171.96 33.96 171.95 34.02 171.93C34.0867 171.91 34.1433 171.87 34.19 171.81C34.2633 171.73 34.3233 171.573 34.37 171.34C34.4233 171.1 34.47 170.76 34.51 170.32C34.55 169.873 34.5867 169.303 34.62 168.61C34.6533 167.917 34.6867 167.073 34.72 166.08V165.91ZM32.53 163.77H33.27C33.2633 164.47 33.25 165.167 33.23 165.86C33.2167 166.553 33.1733 167.233 33.1 167.9C33.0333 168.56 32.9267 169.19 32.78 169.79C32.6333 170.39 32.4267 170.943 32.16 171.45C31.9 171.957 31.57 172.403 31.17 172.79C31.1233 172.73 31.0667 172.663 31 172.59C30.9333 172.523 30.8633 172.457 30.79 172.39C30.7167 172.33 30.6467 172.283 30.58 172.25C30.9667 171.897 31.28 171.483 31.52 171.01C31.7667 170.537 31.9567 170.017 32.09 169.45C32.23 168.883 32.33 168.287 32.39 167.66C32.45 167.033 32.4867 166.393 32.5 165.74C32.52 165.08 32.53 164.423 32.53 163.77ZM26.89 164.42H30.76V165.09H26.89V164.42ZM26.54 166.8H30.94V167.49H26.54V166.8ZM29.48 168.52L30.1 168.35C30.2267 168.65 30.3567 168.973 30.49 169.32C30.6233 169.66 30.7467 169.99 30.86 170.31C30.9733 170.63 31.06 170.907 31.12 171.14L30.46 171.36C30.4067 171.12 30.3233 170.84 30.21 170.52C30.1033 170.193 29.9867 169.857 29.86 169.51C29.7333 169.157 29.6067 168.827 29.48 168.52ZM26.9 171.57L26.84 170.93L27.22 170.66L30.49 169.97C30.5033 170.07 30.52 170.183 30.54 170.31C30.56 170.437 30.58 170.54 30.6 170.62C29.98 170.76 29.4633 170.877 29.05 170.97C28.6367 171.063 28.2967 171.143 28.03 171.21C27.77 171.27 27.5633 171.323 27.41 171.37C27.2633 171.417 27.1533 171.453 27.08 171.48C27.0067 171.507 26.9467 171.537 26.9 171.57ZM26.89 171.56C26.8767 171.507 26.8567 171.44 26.83 171.36C26.8033 171.273 26.7733 171.187 26.74 171.1C26.7067 171.007 26.6767 170.93 26.65 170.87C26.73 170.843 26.8033 170.77 26.87 170.65C26.9433 170.523 27.0233 170.363 27.11 170.17C27.15 170.077 27.2067 169.927 27.28 169.72C27.3533 169.507 27.4367 169.257 27.53 168.97C27.6233 168.683 27.71 168.377 27.79 168.05C27.8767 167.717 27.95 167.387 28.01 167.06L28.75 167.3C28.6433 167.74 28.5167 168.193 28.37 168.66C28.23 169.12 28.0767 169.563 27.91 169.99C27.75 170.41 27.5867 170.79 27.42 171.13V171.15C27.42 171.15 27.3933 171.163 27.34 171.19C27.2867 171.217 27.2233 171.253 27.15 171.3C27.0833 171.34 27.0233 171.383 26.97 171.43C26.9167 171.477 26.89 171.52 26.89 171.56Z" fill="#A0A3A7"/>
    <rect opacity="0.5" x="82" y="16" width="0.0001" height="142" stroke="#C4C7CA" stroke-width="0.5" stroke-dasharray="6 6"/>
    <path d="M71.2791 167.99H76.9891V166.98H70.4091V166.34H77.7291V168.62H71.2791V167.99ZM70.8891 167.99H71.6391C71.5858 168.27 71.5225 168.567 71.4491 168.88C71.3758 169.187 71.3025 169.483 71.2291 169.77C71.1558 170.057 71.0858 170.313 71.0191 170.54L70.2791 170.43C70.3458 170.21 70.4158 169.963 70.4891 169.69C70.5691 169.41 70.6425 169.123 70.7091 168.83C70.7825 168.53 70.8425 168.25 70.8891 167.99ZM70.9991 169.55H77.7491V170.19H70.8091L70.9991 169.55ZM77.5591 169.55H78.3091C78.3091 169.55 78.3058 169.587 78.2991 169.66C78.2991 169.733 78.2958 169.797 78.2891 169.85C78.2225 170.55 78.1491 171.07 78.0691 171.41C77.9891 171.75 77.8858 171.983 77.7591 172.11C77.6725 172.197 77.5791 172.257 77.4791 172.29C77.3858 172.33 77.2658 172.353 77.1191 172.36C76.9925 172.367 76.8158 172.37 76.5891 172.37C76.3625 172.37 76.1191 172.363 75.8591 172.35C75.8525 172.243 75.8291 172.127 75.7891 172C75.7558 171.867 75.7091 171.753 75.6491 171.66C75.8891 171.687 76.1158 171.703 76.3291 171.71C76.5491 171.717 76.7025 171.717 76.7891 171.71C76.8758 171.71 76.9458 171.707 76.9991 171.7C77.0591 171.687 77.1091 171.663 77.1491 171.63C77.2358 171.543 77.3091 171.353 77.3691 171.06C77.4358 170.767 77.4991 170.293 77.5591 169.64V169.55ZM73.7491 166.51H74.4891V172.8H73.7491V166.51ZM73.5491 169.74L74.1391 170.01C73.9058 170.297 73.6291 170.573 73.3091 170.84C72.9958 171.1 72.6558 171.343 72.2891 171.57C71.9225 171.797 71.5458 172 71.1591 172.18C70.7791 172.36 70.4058 172.513 70.0391 172.64C70.0058 172.58 69.9591 172.51 69.8991 172.43C69.8458 172.357 69.7891 172.283 69.7291 172.21C69.6691 172.143 69.6091 172.087 69.5491 172.04C69.9158 171.94 70.2891 171.81 70.6691 171.65C71.0558 171.49 71.4258 171.31 71.7791 171.11C72.1391 170.903 72.4691 170.687 72.7691 170.46C73.0758 170.227 73.3358 169.987 73.5491 169.74ZM70.7491 164.47H73.9791V165.07H70.7491V164.47ZM74.6091 164.47H78.6491V165.07H74.6091V164.47ZM70.9591 163.55L71.6591 163.74C71.5391 164.067 71.3925 164.39 71.2191 164.71C71.0458 165.023 70.8591 165.32 70.6591 165.6C70.4658 165.873 70.2691 166.113 70.0691 166.32C70.0225 166.28 69.9625 166.237 69.8891 166.19C69.8158 166.137 69.7391 166.087 69.6591 166.04C69.5791 165.987 69.5091 165.943 69.4491 165.91C69.7625 165.617 70.0525 165.263 70.3191 164.85C70.5858 164.43 70.7991 163.997 70.9591 163.55ZM74.8991 163.55L75.6091 163.73C75.4225 164.23 75.1725 164.703 74.8591 165.15C74.5458 165.59 74.2191 165.963 73.8791 166.27C73.8391 166.23 73.7791 166.183 73.6991 166.13C73.6258 166.077 73.5491 166.023 73.4691 165.97C73.3958 165.917 73.3258 165.873 73.2591 165.84C73.6125 165.56 73.9325 165.223 74.2191 164.83C74.5058 164.43 74.7325 164.003 74.8991 163.55ZM71.3091 164.93L71.9391 164.7C72.0525 164.9 72.1625 165.123 72.2691 165.37C72.3825 165.617 72.4625 165.827 72.5091 166L71.8491 166.26C71.8091 166.08 71.7358 165.867 71.6291 165.62C71.5291 165.373 71.4225 165.143 71.3091 164.93ZM75.4991 164.92L76.1191 164.7C76.2925 164.893 76.4625 165.117 76.6291 165.37C76.7958 165.617 76.9191 165.833 76.9991 166.02L76.3391 166.28C76.2725 166.093 76.1591 165.873 75.9991 165.62C75.8391 165.367 75.6725 165.133 75.4991 164.92ZM81.7991 172H80.8791C81.2191 169.87 82.0491 167.96 83.2791 166.27H79.6891V165.57H84.2291V166.13C82.8791 167.98 82.0691 169.95 81.7991 172ZM90.2909 167.77C90.4909 168.517 90.7709 169.183 91.1309 169.77C91.4975 170.35 91.9609 170.84 92.5209 171.24C93.0875 171.633 93.7575 171.927 94.5309 172.12C94.4775 172.173 94.4175 172.24 94.3509 172.32C94.2842 172.4 94.2209 172.483 94.1609 172.57C94.1075 172.663 94.0609 172.747 94.0209 172.82C93.2075 172.587 92.5109 172.25 91.9309 171.81C91.3575 171.37 90.8775 170.827 90.4909 170.18C90.1109 169.527 89.8042 168.777 89.5709 167.93L90.2909 167.77ZM85.7909 167.48H94.0209V168.25H85.7909V167.48ZM85.4809 164.37H94.2709V165.14H85.4809V164.37ZM89.4109 164.58H90.2109V166.92C90.2109 167.34 90.1809 167.77 90.1209 168.21C90.0675 168.643 89.9575 169.077 89.7909 169.51C89.6242 169.937 89.3775 170.35 89.0509 170.75C88.7242 171.15 88.2909 171.527 87.7509 171.88C87.2175 172.233 86.5509 172.547 85.7509 172.82C85.7242 172.76 85.6842 172.687 85.6309 172.6C85.5775 172.52 85.5175 172.44 85.4509 172.36C85.3909 172.28 85.3375 172.217 85.2909 172.17C86.0375 171.91 86.6609 171.623 87.1609 171.31C87.6609 170.99 88.0609 170.653 88.3609 170.3C88.6609 169.94 88.8875 169.57 89.0409 169.19C89.1942 168.81 89.2942 168.427 89.3409 168.04C89.3875 167.653 89.4109 167.28 89.4109 166.92V164.58Z" fill="#2BC235"/>
    <rect opacity="0.5" x="271" y="16" width="0.0001" height="142" stroke="#C4C7CA" stroke-width="0.5" stroke-dasharray="6 6"/>
    <path d="M257.398 167.99H263.108V166.98H256.528V166.34H263.848V168.62H257.398V167.99ZM257.008 167.99H257.758C257.705 168.27 257.642 168.567 257.568 168.88C257.495 169.187 257.422 169.483 257.348 169.77C257.275 170.057 257.205 170.313 257.138 170.54L256.398 170.43C256.465 170.21 256.535 169.963 256.608 169.69C256.688 169.41 256.762 169.123 256.828 168.83C256.902 168.53 256.962 168.25 257.008 167.99ZM257.118 169.55H263.868V170.19H256.928L257.118 169.55ZM263.678 169.55H264.428C264.428 169.55 264.425 169.587 264.418 169.66C264.418 169.733 264.415 169.797 264.408 169.85C264.342 170.55 264.268 171.07 264.188 171.41C264.108 171.75 264.005 171.983 263.878 172.11C263.792 172.197 263.698 172.257 263.598 172.29C263.505 172.33 263.385 172.353 263.238 172.36C263.112 172.367 262.935 172.37 262.708 172.37C262.482 172.37 262.238 172.363 261.978 172.35C261.972 172.243 261.948 172.127 261.908 172C261.875 171.867 261.828 171.753 261.768 171.66C262.008 171.687 262.235 171.703 262.448 171.71C262.668 171.717 262.822 171.717 262.908 171.71C262.995 171.71 263.065 171.707 263.118 171.7C263.178 171.687 263.228 171.663 263.268 171.63C263.355 171.543 263.428 171.353 263.488 171.06C263.555 170.767 263.618 170.293 263.678 169.64V169.55ZM259.868 166.51H260.608V172.8H259.868V166.51ZM259.668 169.74L260.258 170.01C260.025 170.297 259.748 170.573 259.428 170.84C259.115 171.1 258.775 171.343 258.408 171.57C258.042 171.797 257.665 172 257.278 172.18C256.898 172.36 256.525 172.513 256.158 172.64C256.125 172.58 256.078 172.51 256.018 172.43C255.965 172.357 255.908 172.283 255.848 172.21C255.788 172.143 255.728 172.087 255.668 172.04C256.035 171.94 256.408 171.81 256.788 171.65C257.175 171.49 257.545 171.31 257.898 171.11C258.258 170.903 258.588 170.687 258.888 170.46C259.195 170.227 259.455 169.987 259.668 169.74ZM256.868 164.47H260.098V165.07H256.868V164.47ZM260.728 164.47H264.768V165.07H260.728V164.47ZM257.078 163.55L257.778 163.74C257.658 164.067 257.512 164.39 257.338 164.71C257.165 165.023 256.978 165.32 256.778 165.6C256.585 165.873 256.388 166.113 256.188 166.32C256.142 166.28 256.082 166.237 256.008 166.19C255.935 166.137 255.858 166.087 255.778 166.04C255.698 165.987 255.628 165.943 255.568 165.91C255.882 165.617 256.172 165.263 256.438 164.85C256.705 164.43 256.918 163.997 257.078 163.55ZM261.018 163.55L261.728 163.73C261.542 164.23 261.292 164.703 260.978 165.15C260.665 165.59 260.338 165.963 259.998 166.27C259.958 166.23 259.898 166.183 259.818 166.13C259.745 166.077 259.668 166.023 259.588 165.97C259.515 165.917 259.445 165.873 259.378 165.84C259.732 165.56 260.052 165.223 260.338 164.83C260.625 164.43 260.852 164.003 261.018 163.55ZM257.428 164.93L258.058 164.7C258.172 164.9 258.282 165.123 258.388 165.37C258.502 165.617 258.582 165.827 258.628 166L257.968 166.26C257.928 166.08 257.855 165.867 257.748 165.62C257.648 165.373 257.542 165.143 257.428 164.93ZM261.618 164.92L262.238 164.7C262.412 164.893 262.582 165.117 262.748 165.37C262.915 165.617 263.038 165.833 263.118 166.02L262.458 166.28C262.392 166.093 262.278 165.873 262.118 165.62C261.958 165.367 261.792 165.133 261.618 164.92ZM265.858 172V171.76C265.858 168.87 269.418 169.11 269.418 167.38C269.418 166.65 268.988 166.21 268.188 166.21C267.308 166.21 266.878 166.66 266.758 167.4H265.848C266.018 166.19 266.828 165.45 268.198 165.45C269.598 165.45 270.318 166.28 270.318 167.37C270.318 169.45 267.138 169.43 266.768 171.3H270.388V172H265.858ZM273.68 172H272.76C273.1 169.87 273.93 167.96 275.16 166.27H271.57V165.57H276.11V166.13C274.76 167.98 273.95 169.95 273.68 172ZM282.172 167.77C282.372 168.517 282.652 169.183 283.012 169.77C283.378 170.35 283.842 170.84 284.402 171.24C284.968 171.633 285.638 171.927 286.412 172.12C286.358 172.173 286.298 172.24 286.232 172.32C286.165 172.4 286.102 172.483 286.042 172.57C285.988 172.663 285.942 172.747 285.902 172.82C285.088 172.587 284.392 172.25 283.812 171.81C283.238 171.37 282.758 170.827 282.372 170.18C281.992 169.527 281.685 168.777 281.452 167.93L282.172 167.77ZM277.672 167.48H285.902V168.25H277.672V167.48ZM277.362 164.37H286.152V165.14H277.362V164.37ZM281.292 164.58H282.092V166.92C282.092 167.34 282.062 167.77 282.002 168.21C281.948 168.643 281.838 169.077 281.672 169.51C281.505 169.937 281.258 170.35 280.932 170.75C280.605 171.15 280.172 171.527 279.632 171.88C279.098 172.233 278.432 172.547 277.632 172.82C277.605 172.76 277.565 172.687 277.512 172.6C277.458 172.52 277.398 172.44 277.332 172.36C277.272 172.28 277.218 172.217 277.172 172.17C277.918 171.91 278.542 171.623 279.042 171.31C279.542 170.99 279.942 170.653 280.242 170.3C280.542 169.94 280.768 169.57 280.922 169.19C281.075 168.81 281.175 168.427 281.222 168.04C281.268 167.653 281.292 167.28 281.292 166.92V164.58Z" fill="#2BC235"/>
    <rect x="60" y="69" width="68" height="17" rx="2" fill="#2BC287"/>
    <path d="M64.89 73.25H73.18V73.97H64.89V73.25ZM64.52 76.82H73.49V77.54H64.52V76.82ZM70.49 73.63H71.26V81.81H70.49V73.63ZM66.93 73.62H67.69V76.39C67.69 76.8767 67.6633 77.3667 67.61 77.86C67.5567 78.3533 67.4433 78.8367 67.27 79.31C67.1033 79.7767 66.85 80.2267 66.51 80.66C66.17 81.0867 65.7133 81.48 65.14 81.84C65.0933 81.7733 65.0367 81.7067 64.97 81.64C64.9033 81.5733 64.83 81.5067 64.75 81.44C64.6767 81.3733 64.6067 81.32 64.54 81.28C65.08 80.9467 65.51 80.5867 65.83 80.2C66.15 79.8133 66.3867 79.41 66.54 78.99C66.7 78.57 66.8033 78.14 66.85 77.7C66.9033 77.26 66.93 76.8233 66.93 76.39V73.62ZM79.28 80.67H82.78V81.36H79.28V80.67ZM78.9 77.74H83.17V81.77H82.42V78.43H79.62V81.81H78.9V77.74ZM78.21 76.07C78.61 76.0433 79.07 76.0167 79.59 75.99C80.1167 75.9633 80.6733 75.9333 81.26 75.9C81.8533 75.86 82.4467 75.82 83.04 75.78L83.03 76.46C82.4633 76.5 81.8967 76.5433 81.33 76.59C80.7633 76.6367 80.22 76.6767 79.7 76.71C79.1867 76.7433 78.72 76.7767 78.3 76.81L78.21 76.07ZM81.53 74.45L82.13 74.15C82.3567 74.4233 82.5767 74.7233 82.79 75.05C83.0033 75.37 83.1967 75.6867 83.37 76C83.5433 76.3067 83.67 76.5833 83.75 76.83L83.1 77.19C83.02 76.9433 82.8967 76.66 82.73 76.34C82.5633 76.02 82.3767 75.6967 82.17 75.37C81.9633 75.0433 81.75 74.7367 81.53 74.45ZM80.16 72.59L80.99 72.77C80.85 73.17 80.6967 73.5967 80.53 74.05C80.37 74.5033 80.2033 74.94 80.03 75.36C79.8567 75.78 79.69 76.15 79.53 76.47L78.9 76.29C79.0133 76.0433 79.13 75.7667 79.25 75.46C79.37 75.1533 79.4833 74.8333 79.59 74.5C79.7033 74.16 79.81 73.83 79.91 73.51C80.01 73.1833 80.0933 72.8767 80.16 72.59ZM74.44 74.67H77.74V75.37H74.44V74.67ZM75.96 72.59L76.67 72.68C76.57 73.1733 76.4567 73.7067 76.33 74.28C76.2033 74.8467 76.07 75.4167 75.93 75.99C75.7967 76.5633 75.6633 77.1133 75.53 77.64C75.3967 78.16 75.2733 78.6267 75.16 79.04L74.53 78.71C74.6433 78.33 74.7633 77.89 74.89 77.39C75.0233 76.8833 75.1533 76.35 75.28 75.79C75.4067 75.23 75.53 74.6767 75.65 74.13C75.77 73.5767 75.8733 73.0633 75.96 72.59ZM74.94 78.4L75.35 77.88C75.7233 78.0867 76.1067 78.3233 76.5 78.59C76.9 78.8567 77.2667 79.13 77.6 79.41C77.9333 79.69 78.2 79.9567 78.4 80.21L77.95 80.81C77.75 80.5633 77.4833 80.2967 77.15 80.01C76.8233 79.7167 76.4667 79.43 76.08 79.15C75.6933 78.8633 75.3133 78.6133 74.94 78.4ZM77.45 74.67H77.58L77.71 74.64L78.16 74.74C78.0733 76.0267 77.8933 77.1333 77.62 78.06C77.3467 78.98 76.99 79.7467 76.55 80.36C76.11 80.9733 75.58 81.4633 74.96 81.83C74.9067 81.7367 74.8333 81.63 74.74 81.51C74.6533 81.39 74.57 81.2933 74.49 81.22C75.05 80.9267 75.5333 80.4967 75.94 79.93C76.3533 79.3567 76.6867 78.6467 76.94 77.8C77.2 76.9467 77.37 75.9533 77.45 74.82V74.67ZM84.9 73.33H93.17V74.07H84.9V73.33ZM89.23 76.74H92.78V77.47H89.23V76.74ZM84.52 80.62H93.5V81.35H84.52V80.62ZM88.86 73.61H89.65V80.98H88.86V73.61ZM85.88 75.9H86.65V81.01H85.88V75.9ZM94.99 74.33H102.6V75.06H95.73V81.8H94.99V74.33ZM102.32 74.33H103.07V80.8C103.07 81.0467 103.037 81.2367 102.97 81.37C102.903 81.5033 102.78 81.6033 102.6 81.67C102.42 81.73 102.173 81.7667 101.86 81.78C101.547 81.7933 101.16 81.8 100.7 81.8C100.693 81.7267 100.673 81.6433 100.64 81.55C100.613 81.4633 100.583 81.37 100.55 81.27C100.517 81.1767 100.48 81.0933 100.44 81.02C100.68 81.0333 100.91 81.04 101.13 81.04C101.357 81.0467 101.55 81.0467 101.71 81.04C101.877 81.04 101.993 81.04 102.06 81.04C102.167 81.04 102.237 81.0233 102.27 80.99C102.303 80.95 102.32 80.8867 102.32 80.8V74.33ZM98.38 72.58L99.31 72.73C99.1633 73.09 99 73.4567 98.82 73.83C98.64 74.2033 98.4733 74.5233 98.32 74.79L97.61 74.61C97.7033 74.4233 97.7967 74.21 97.89 73.97C97.99 73.73 98.0833 73.49 98.17 73.25C98.2633 73.0033 98.3333 72.78 98.38 72.58ZM97.04 76.39H97.73V80.42H97.04V76.39ZM97.36 76.39H100.96V79.7H97.36V79.02H100.26V77.06H97.36V76.39ZM104.45 80.85H113.56V81.52H104.45V80.85ZM104.64 73.12H110.91V73.76H104.64V73.12ZM105.58 78.38H112.43V81.19H111.7V78.99H110.35V81.19H109.65V78.99H108.31V81.19H107.61V78.99H106.29V81.19H105.58V78.38ZM110.69 74.8H112.73V75.44H110.5L110.69 74.8ZM106.81 74.62H109.25V75.2H106.59L106.81 74.62ZM112.48 74.8H113.21C113.21 74.8 113.207 74.84 113.2 74.92C113.2 75 113.193 75.0667 113.18 75.12C113.133 75.6667 113.083 76.1133 113.03 76.46C112.983 76.8067 112.927 77.08 112.86 77.28C112.793 77.4733 112.717 77.6133 112.63 77.7C112.543 77.7933 112.447 77.86 112.34 77.9C112.24 77.9333 112.12 77.9533 111.98 77.96C111.853 77.9733 111.68 77.98 111.46 77.98C111.24 77.9733 111.003 77.9633 110.75 77.95C110.743 77.8433 110.72 77.73 110.68 77.61C110.64 77.4833 110.59 77.3733 110.53 77.28C110.783 77.3 111.017 77.3133 111.23 77.32C111.443 77.32 111.597 77.32 111.69 77.32C111.77 77.32 111.837 77.3167 111.89 77.31C111.95 77.3033 111.997 77.28 112.03 77.24C112.097 77.1733 112.157 77.0567 112.21 76.89C112.263 76.7167 112.31 76.47 112.35 76.15C112.39 75.83 112.433 75.4133 112.48 74.9V74.8ZM106.72 73.23L107.46 73.34C107.28 74.4733 106.977 75.4533 106.55 76.28C106.13 77.1067 105.567 77.7767 104.86 78.29C104.82 78.2433 104.763 78.19 104.69 78.13C104.623 78.0633 104.55 78 104.47 77.94C104.39 77.8733 104.323 77.82 104.27 77.78C104.97 77.3267 105.517 76.7167 105.91 75.95C106.303 75.1767 106.573 74.27 106.72 73.23ZM109.06 74.62H109.21L109.33 74.61L109.72 74.74C109.573 75.3733 109.36 75.9133 109.08 76.36C108.8 76.8 108.467 77.1633 108.08 77.45C107.693 77.73 107.26 77.9533 106.78 78.12C106.753 78.0667 106.713 78.0067 106.66 77.94C106.607 77.8733 106.55 77.81 106.49 77.75C106.437 77.6833 106.387 77.6333 106.34 77.6C107.013 77.3867 107.587 77.0567 108.06 76.61C108.54 76.1567 108.873 75.53 109.06 74.73V74.62ZM106.88 76.03L107.33 75.63C107.657 75.7633 107.987 75.93 108.32 76.13C108.66 76.3233 108.977 76.5267 109.27 76.74C109.57 76.9467 109.817 77.1467 110.01 77.34L109.55 77.8C109.363 77.6067 109.123 77.4 108.83 77.18C108.537 76.96 108.22 76.75 107.88 76.55C107.547 76.35 107.213 76.1767 106.88 76.03ZM110.68 73.12H111.42C111.36 73.4267 111.293 73.7533 111.22 74.1C111.153 74.4467 111.083 74.78 111.01 75.1C110.937 75.42 110.867 75.7033 110.8 75.95L110.1 75.85C110.173 75.61 110.243 75.3367 110.31 75.03C110.377 74.7167 110.443 74.3933 110.51 74.06C110.577 73.72 110.633 73.4067 110.68 73.12ZM114.5 75.61H119.26V76.31H114.5V75.61ZM119.93 73.79H120.66V79.31H119.93V73.79ZM116.59 73.44H117.33V81.78H116.59V73.44ZM122.38 72.79H123.13V80.8C123.13 81.06 123.093 81.2533 123.02 81.38C122.953 81.5067 122.84 81.6033 122.68 81.67C122.513 81.73 122.283 81.7667 121.99 81.78C121.703 81.8 121.33 81.81 120.87 81.81C120.857 81.7367 120.833 81.6533 120.8 81.56C120.767 81.4733 120.733 81.3833 120.7 81.29C120.667 81.1967 120.63 81.1167 120.59 81.05C120.943 81.0567 121.263 81.06 121.55 81.06C121.837 81.06 122.027 81.06 122.12 81.06C122.213 81.0533 122.28 81.0333 122.32 81C122.36 80.96 122.38 80.8933 122.38 80.8V72.79ZM118.58 72.66L119.14 73.23C118.76 73.3833 118.317 73.5233 117.81 73.65C117.303 73.7767 116.777 73.8867 116.23 73.98C115.69 74.0733 115.167 74.1533 114.66 74.22C114.64 74.1333 114.607 74.0333 114.56 73.92C114.52 73.8067 114.473 73.71 114.42 73.63C114.793 73.5767 115.173 73.5167 115.56 73.45C115.953 73.3767 116.333 73.3 116.7 73.22C117.073 73.1333 117.42 73.0433 117.74 72.95C118.067 72.8567 118.347 72.76 118.58 72.66ZM116.57 75.93L117.1 76.16C116.973 76.54 116.82 76.93 116.64 77.33C116.46 77.73 116.263 78.12 116.05 78.5C115.837 78.88 115.613 79.2367 115.38 79.57C115.147 79.8967 114.913 80.1767 114.68 80.41C114.653 80.3367 114.613 80.26 114.56 80.18C114.513 80.0933 114.463 80.0067 114.41 79.92C114.363 79.8333 114.317 79.76 114.27 79.7C114.497 79.4933 114.72 79.2467 114.94 78.96C115.167 78.6667 115.383 78.35 115.59 78.01C115.797 77.67 115.983 77.3233 116.15 76.97C116.323 76.61 116.463 76.2633 116.57 75.93ZM117.23 76.97C117.33 77.0367 117.47 77.1467 117.65 77.3C117.837 77.4533 118.037 77.62 118.25 77.8C118.463 77.98 118.657 78.1467 118.83 78.3C119.01 78.4533 119.14 78.5667 119.22 78.64L118.79 79.27C118.69 79.1567 118.553 79.0133 118.38 78.84C118.207 78.66 118.023 78.4767 117.83 78.29C117.637 78.1033 117.45 77.9267 117.27 77.76C117.09 77.5933 116.94 77.4633 116.82 77.37L117.23 76.97Z" fill="white"/>
    <path d="M93.6464 89.6464L90 86H98L94.3536 89.6464C94.1583 89.8417 93.8417 89.8417 93.6464 89.6464Z" fill="#2BC287"/>
    <circle cx="94" cy="96" r="3.5" fill="white" stroke="#2BC287"/>
    <rect x="240.658" y="22" width="68" height="17" rx="2" fill="#2BC287"/>
    <path d="M246.618 26.3H253.088V27.02H246.618V26.3ZM246.618 28.63H253.068V29.34H246.618V28.63ZM246.558 31.02H253.088V31.73H246.558V31.02ZM246.188 26.3H246.928V29.93C246.928 30.31 246.912 30.7167 246.878 31.15C246.845 31.5833 246.782 32.0233 246.688 32.47C246.602 32.91 246.465 33.3333 246.278 33.74C246.098 34.1467 245.858 34.5167 245.558 34.85C245.525 34.7967 245.472 34.7367 245.398 34.67C245.325 34.61 245.252 34.55 245.178 34.49C245.105 34.43 245.038 34.3867 244.978 34.36C245.258 34.0467 245.478 33.7067 245.638 33.34C245.798 32.9733 245.918 32.5967 245.998 32.21C246.078 31.8167 246.128 31.4267 246.148 31.04C246.175 30.6533 246.188 30.2833 246.188 29.93V26.3ZM252.788 26.3H253.528V33.78C253.528 34.02 253.492 34.2033 253.418 34.33C253.352 34.4567 253.235 34.5533 253.068 34.62C252.902 34.68 252.668 34.7167 252.368 34.73C252.068 34.7433 251.682 34.7467 251.208 34.74C251.188 34.6467 251.152 34.5267 251.098 34.38C251.052 34.24 251.002 34.12 250.948 34.02C251.182 34.0267 251.405 34.03 251.618 34.03C251.838 34.0367 252.028 34.0367 252.188 34.03C252.348 34.03 252.458 34.03 252.518 34.03C252.618 34.0233 252.688 34.0033 252.728 33.97C252.768 33.9367 252.788 33.8733 252.788 33.78V26.3ZM249.328 26.57H250.088V34.71H249.328V26.57ZM256.348 27.15H257.128V29.33C257.128 29.7367 257.108 30.18 257.068 30.66C257.035 31.14 256.965 31.63 256.858 32.13C256.758 32.6233 256.608 33.1033 256.408 33.57C256.215 34.0367 255.962 34.4667 255.648 34.86C255.602 34.8067 255.538 34.75 255.458 34.69C255.378 34.63 255.295 34.5733 255.208 34.52C255.128 34.4667 255.058 34.43 254.998 34.41C255.305 34.0367 255.548 33.6367 255.728 33.21C255.908 32.7767 256.042 32.3333 256.128 31.88C256.222 31.4267 256.282 30.9833 256.308 30.55C256.335 30.11 256.348 29.7033 256.348 29.33V27.15ZM259.068 25.74L259.788 25.55C259.908 25.7833 260.025 26.0367 260.138 26.31C260.252 26.5767 260.338 26.81 260.398 27.01L259.638 27.24C259.585 27.0333 259.502 26.79 259.388 26.51C259.275 26.23 259.168 25.9733 259.068 25.74ZM256.838 27.15H263.108V31.22H262.348V27.85H256.838V27.15ZM256.838 29.86H262.768V30.56H256.838V29.86ZM265.738 26.81H273.668V27.45H265.738V26.81ZM265.178 29.41H274.158V30.04H265.178V29.41ZM268.278 27.07H268.978V29.76H268.278V27.07ZM270.248 27.07H270.968V29.76H270.248V27.07ZM266.238 27.82L266.848 27.58C267.035 27.8067 267.205 28.0633 267.358 28.35C267.518 28.6367 267.628 28.8933 267.688 29.12L267.028 29.38C266.975 29.16 266.872 28.9033 266.718 28.61C266.572 28.3167 266.412 28.0533 266.238 27.82ZM266.978 25.84L267.628 25.59C267.788 25.75 267.938 25.9333 268.078 26.14C268.225 26.34 268.328 26.5233 268.388 26.69L267.698 26.99C267.645 26.83 267.548 26.64 267.408 26.42C267.268 26.2 267.125 26.0067 266.978 25.84ZM272.428 27.53L273.108 27.76C272.955 28.04 272.788 28.3267 272.608 28.62C272.428 28.9067 272.262 29.15 272.108 29.35L271.528 29.14C271.628 28.9933 271.735 28.8267 271.848 28.64C271.962 28.4533 272.068 28.2633 272.168 28.07C272.275 27.87 272.362 27.69 272.428 27.53ZM271.568 25.58L272.298 25.82C272.172 26.0267 272.035 26.2267 271.888 26.42C271.748 26.6067 271.618 26.77 271.498 26.91L270.838 26.69C270.958 26.5367 271.088 26.3533 271.228 26.14C271.368 25.9267 271.482 25.74 271.568 25.58ZM266.648 30.66H272.708V34.75H271.928V31.26H267.408V34.79H266.648V30.66ZM267.068 32.24H272.288V32.83H267.068V32.24ZM267.078 33.84H272.298V34.44H267.078V33.84ZM277.048 29.55V33.09H276.338V30.25H275.108V29.55H277.048ZM277.048 32.79C277.288 33.1633 277.625 33.44 278.058 33.62C278.498 33.8 279.012 33.9033 279.598 33.93C279.885 33.9367 280.232 33.9433 280.638 33.95C281.045 33.95 281.472 33.95 281.918 33.95C282.372 33.9433 282.805 33.9333 283.218 33.92C283.638 33.9 284.002 33.88 284.308 33.86C284.282 33.9133 284.252 33.9833 284.218 34.07C284.185 34.1567 284.155 34.2433 284.128 34.33C284.108 34.4233 284.092 34.5067 284.078 34.58C283.792 34.5933 283.452 34.6033 283.058 34.61C282.672 34.6167 282.265 34.62 281.838 34.62C281.418 34.6267 281.012 34.6267 280.618 34.62C280.232 34.62 279.898 34.6133 279.618 34.6C278.952 34.5733 278.385 34.4667 277.918 34.28C277.452 34.0933 277.062 33.8 276.748 33.4C276.535 33.6133 276.315 33.83 276.088 34.05C275.862 34.27 275.628 34.4933 275.388 34.72L274.998 34C275.212 33.8333 275.445 33.6433 275.698 33.43C275.952 33.2167 276.192 33.0033 276.418 32.79H277.048ZM275.158 26.21L275.738 25.83C275.938 25.9833 276.138 26.16 276.338 26.36C276.545 26.56 276.732 26.76 276.898 26.96C277.065 27.1533 277.195 27.3333 277.288 27.5L276.658 27.93C276.565 27.7567 276.438 27.57 276.278 27.37C276.118 27.1633 275.942 26.96 275.748 26.76C275.555 26.56 275.358 26.3767 275.158 26.21ZM277.598 25.98H284.118V26.61H277.598V25.98ZM279.128 31.25H283.518V31.81H279.128V31.25ZM280.288 29.98H280.828V33.38H280.288V29.98ZM281.708 29.98H282.248V33.38H281.708V29.98ZM278.238 27.19H278.928V28.68C278.928 29 278.912 29.35 278.878 29.73C278.852 30.11 278.798 30.5 278.718 30.9C278.638 31.2933 278.522 31.6833 278.368 32.07C278.215 32.45 278.018 32.8 277.778 33.12C277.738 33.0667 277.685 33.0133 277.618 32.96C277.552 32.9067 277.482 32.8533 277.408 32.8C277.335 32.7467 277.272 32.7067 277.218 32.68C277.518 32.2733 277.742 31.8333 277.888 31.36C278.035 30.8867 278.128 30.4167 278.168 29.95C278.215 29.4833 278.238 29.0533 278.238 28.66V27.19ZM278.798 29.79H283.488V30.36H279.438V33.5H278.798V29.79ZM283.138 29.79H283.798V32.81C283.798 32.9567 283.782 33.0733 283.748 33.16C283.722 33.24 283.658 33.31 283.558 33.37C283.458 33.4167 283.338 33.4467 283.198 33.46C283.065 33.4667 282.895 33.47 282.688 33.47C282.682 33.3833 282.658 33.2867 282.618 33.18C282.585 33.0733 282.548 32.98 282.508 32.9C282.635 32.9067 282.745 32.91 282.838 32.91C282.932 32.91 282.998 32.9067 283.038 32.9C283.105 32.9 283.138 32.8667 283.138 32.8V29.79ZM278.618 27.19H283.548V29.16H278.618V28.6H282.848V27.73H278.618V27.19ZM287.848 29.67H293.438V30.34H288.578V34.76H287.848V29.67ZM287.638 26.41H294.108V27.05H287.638V26.41ZM293.178 29.67H293.878V34.04C293.878 34.2133 293.855 34.3433 293.808 34.43C293.762 34.5167 293.672 34.5867 293.538 34.64C293.412 34.68 293.235 34.7033 293.008 34.71C292.788 34.7233 292.505 34.73 292.158 34.73C292.138 34.6433 292.108 34.5533 292.068 34.46C292.028 34.3667 291.992 34.28 291.958 34.2C292.205 34.2067 292.425 34.21 292.618 34.21C292.812 34.2167 292.942 34.2167 293.008 34.21C293.075 34.2033 293.118 34.1867 293.138 34.16C293.165 34.14 293.178 34.1 293.178 34.04V29.67ZM289.318 25.6H290.028V27.82H289.318V25.6ZM291.678 25.6H292.378V27.82H291.678V25.6ZM287.588 28.13H294.168V28.77H287.588V28.13ZM289.658 31.46L290.068 31.1C290.235 31.2533 290.402 31.4333 290.568 31.64C290.735 31.8467 290.858 32.0267 290.938 32.18L290.508 32.61C290.428 32.45 290.305 32.2633 290.138 32.05C289.978 31.83 289.818 31.6333 289.658 31.46ZM289.748 28.48L290.368 28.47C290.368 29.2367 290.335 29.9267 290.268 30.54C290.208 31.1533 290.088 31.7 289.908 32.18C289.735 32.6533 289.475 33.0733 289.128 33.44C289.102 33.4 289.055 33.3533 288.988 33.3C288.928 33.2467 288.865 33.1933 288.798 33.14C288.732 33.08 288.672 33.0367 288.618 33.01C288.958 32.6967 289.205 32.32 289.358 31.88C289.518 31.44 289.622 30.9367 289.668 30.37C289.722 29.7967 289.748 29.1667 289.748 28.48ZM291.458 31.39L291.938 31.05C292.078 31.2233 292.215 31.41 292.348 31.61C292.488 31.81 292.615 32.0067 292.728 32.2C292.842 32.3867 292.928 32.5567 292.988 32.71L292.488 33.11C292.428 32.9567 292.342 32.78 292.228 32.58C292.122 32.38 291.998 32.1767 291.858 31.97C291.725 31.7567 291.592 31.5633 291.458 31.39ZM291.528 28.44L292.138 28.45C292.132 29.2367 292.095 29.9533 292.028 30.6C291.968 31.24 291.852 31.8133 291.678 32.32C291.505 32.8267 291.248 33.2733 290.908 33.66C290.875 33.6267 290.825 33.5867 290.758 33.54C290.698 33.4867 290.635 33.4367 290.568 33.39C290.502 33.3433 290.442 33.3067 290.388 33.28C290.715 32.94 290.958 32.5333 291.118 32.06C291.285 31.5867 291.395 31.0467 291.448 30.44C291.502 29.8333 291.528 29.1667 291.528 28.44ZM285.568 26.33L286.028 25.82C286.208 25.92 286.395 26.0333 286.588 26.16C286.782 26.2867 286.965 26.4133 287.138 26.54C287.312 26.6667 287.452 26.7833 287.558 26.89L287.068 27.45C286.968 27.3367 286.832 27.2167 286.658 27.09C286.492 26.9567 286.312 26.8233 286.118 26.69C285.925 26.55 285.742 26.43 285.568 26.33ZM285.078 29.09L285.518 28.57C285.698 28.65 285.885 28.7467 286.078 28.86C286.278 28.9733 286.468 29.0867 286.648 29.2C286.828 29.3133 286.975 29.42 287.088 29.52L286.638 30.1C286.525 30 286.378 29.89 286.198 29.77C286.025 29.65 285.838 29.53 285.638 29.41C285.445 29.2833 285.258 29.1767 285.078 29.09ZM285.288 34.1C285.442 33.8467 285.608 33.5467 285.788 33.2C285.975 32.8533 286.162 32.49 286.348 32.11C286.542 31.7233 286.715 31.3467 286.868 30.98L287.458 31.45C287.312 31.7833 287.152 32.1367 286.978 32.51C286.812 32.8833 286.638 33.2467 286.458 33.6C286.285 33.9467 286.115 34.2733 285.948 34.58L285.288 34.1ZM297.228 31.42H302.138V30.75H297.228V31.42ZM297.228 30.25H302.138V29.58H297.228V30.25ZM302.878 29.07V31.94H296.518V29.07H302.878ZM302.058 26.96C301.952 27.1667 301.842 27.3667 301.728 27.56C301.622 27.7467 301.518 27.9133 301.418 28.06L300.758 27.89C300.845 27.73 300.938 27.5467 301.038 27.34C301.145 27.1267 301.228 26.94 301.288 26.78L302.058 26.96ZM298.028 26.79C298.128 26.9633 298.222 27.15 298.308 27.35C298.402 27.55 298.468 27.7233 298.508 27.87L297.788 28.06C297.755 27.9067 297.698 27.7267 297.618 27.52C297.538 27.3067 297.448 27.1167 297.348 26.95L298.028 26.79ZM300.018 25.6V26.69H299.268V25.6H300.018ZM303.988 27.95V28.56H295.388V27.95H303.988ZM303.468 26.26V26.88H295.838V26.26H303.468ZM297.128 32.67C296.988 33.03 296.802 33.3833 296.568 33.73C296.342 34.07 296.042 34.35 295.668 34.57L295.078 34.17C295.425 33.9767 295.718 33.7233 295.958 33.41C296.198 33.09 296.378 32.7667 296.498 32.44L297.128 32.67ZM302.478 32.35C302.698 32.5167 302.925 32.7033 303.158 32.91C303.392 33.1167 303.605 33.3267 303.798 33.54C303.998 33.7467 304.155 33.94 304.268 34.12L303.648 34.51C303.542 34.33 303.392 34.1333 303.198 33.92C303.012 33.7067 302.805 33.4933 302.578 33.28C302.358 33.06 302.132 32.8667 301.898 32.7L302.478 32.35ZM299.108 31.93C299.302 32.0233 299.502 32.1333 299.708 32.26C299.922 32.38 300.118 32.5033 300.298 32.63C300.485 32.75 300.638 32.8633 300.758 32.97L300.318 33.42C300.205 33.3133 300.055 33.1967 299.868 33.07C299.688 32.9367 299.495 32.8067 299.288 32.68C299.082 32.5467 298.885 32.4267 298.698 32.32L299.108 31.93ZM298.368 33.8C298.368 33.92 298.405 33.9967 298.478 34.03C298.552 34.0633 298.718 34.08 298.978 34.08C299.038 34.08 299.145 34.08 299.298 34.08C299.458 34.08 299.635 34.08 299.828 34.08C300.022 34.08 300.202 34.08 300.368 34.08C300.542 34.08 300.668 34.08 300.748 34.08C300.888 34.08 300.992 34.0567 301.058 34.01C301.132 33.97 301.182 33.8767 301.208 33.73C301.242 33.5833 301.265 33.3633 301.278 33.07C301.365 33.1233 301.472 33.1733 301.598 33.22C301.725 33.2667 301.838 33.3 301.938 33.32C301.912 33.7 301.862 33.9867 301.788 34.18C301.715 34.38 301.602 34.5167 301.448 34.59C301.295 34.67 301.082 34.71 300.808 34.71C300.768 34.71 300.682 34.71 300.548 34.71C300.422 34.71 300.275 34.71 300.108 34.71C299.948 34.71 299.785 34.71 299.618 34.71C299.452 34.71 299.302 34.71 299.168 34.71C299.042 34.71 298.958 34.71 298.918 34.71C298.578 34.71 298.315 34.6833 298.128 34.63C297.948 34.5833 297.822 34.4933 297.748 34.36C297.675 34.2267 297.638 34.04 297.638 33.8V32.51H298.368V33.8Z" fill="white"/>
    <path d="M274.305 42.6464L270.658 39H278.658L275.012 42.6464C274.816 42.8417 274.5 42.8417 274.305 42.6464Z" fill="#2BC287"/>
    <circle cx="274.658" cy="49" r="3.5" fill="white" stroke="#2BC287"/>
    <defs>
        <linearGradient id="paint0_linear_77_62" x1="53.1559" y1="130.451" x2="53.1559" y2="155.202" gradientUnits="userSpaceOnUse">
            <stop stop-color="#F2495E" stop-opacity="0.06"/>
            <stop offset="1" stop-color="#F2495E" stop-opacity="0.3"/>
        </linearGradient>
        <linearGradient id="paint1_linear_77_62" x1="171.754" y1="38.0148" x2="171.754" y2="96.2306" gradientUnits="userSpaceOnUse">
            <stop stop-color="#26BA7A" stop-opacity="0.3"/>
            <stop offset="1" stop-color="#26BA7A" stop-opacity="0.06"/>
        </linearGradient>
    </defs>
</svg>
