<svg width="18" height="18" viewBox="0 0 18 18" fill="none" xmlns="http://www.w3.org/2000/svg">
<path d="M16.4989 6.11279C16.4989 3.56548 14.4339 1.50049 11.8866 1.50049C9.41499 1.50066 7.39766 3.44469 7.28015 5.88721C9.71586 6.35935 11.6386 8.28273 12.1112 10.7183C14.5542 10.6013 16.4988 8.5848 16.4989 6.11279ZM1.50085 11.8872C1.50105 14.4344 3.56597 16.4985 6.11316 16.4985C8.66026 16.4984 10.7253 14.4343 10.7255 11.8872C10.7255 11.777 10.718 11.656 10.7098 11.5171L10.6893 11.3081C10.4207 9.16072 8.66274 7.46381 6.48816 7.28955C6.34822 7.28134 6.22524 7.27491 6.11316 7.2749C3.56584 7.2749 1.50085 9.33989 1.50085 11.8872ZM17.9989 6.11279C17.9988 9.37844 15.4379 12.044 12.2147 12.2144C12.0445 15.4377 9.3789 17.9984 6.11316 17.9985C2.73754 17.9985 0.00105444 15.2628 0.000854492 11.8872C0.000854492 8.62181 2.56126 5.95457 5.78406 5.78369C5.95493 2.56101 8.62135 0.00065777 11.8866 0.000488281C15.2623 0.000488281 17.9989 2.73705 17.9989 6.11279Z" fill="#303236"/>
<path d="M16.491 14.2456C16.4849 14.2369 16.4721 14.2254 16.4529 14.2173C16.4334 14.2092 16.4159 14.2088 16.406 14.2104L16.3708 14.2319L14.238 16.3647L14.2156 16.4028C14.2136 16.4147 14.2143 16.4328 14.2224 16.4526C14.2306 16.4724 14.2422 16.4843 14.2498 16.4897C14.2538 16.4926 14.2635 16.4995 14.2898 16.4995H16.4255C16.4438 16.4995 16.4624 16.4919 16.4783 16.4761C16.4939 16.4603 16.5007 16.4424 16.5007 16.4243V14.2876C16.5007 14.2615 16.4947 14.251 16.491 14.2456ZM3.71265 0.000488281C5.12659 0.000799499 5.80005 1.70377 4.83276 2.68701L2.69214 4.82764C1.6976 5.82218 0.00104559 5.11106 0.000732422 3.7124V1.57568C0.000732422 0.707754 0.707998 0.000488281 1.57593 0.000488281H3.71265ZM18.0007 16.4243C18.0006 17.2921 17.2934 17.9995 16.4255 17.9995H14.2898C12.8755 17.9995 12.201 16.2953 13.1687 15.312L13.1736 15.3081L15.3103 13.1714L15.405 13.0835C16.4088 12.2221 18.0007 12.9323 18.0007 14.2876V16.4243ZM1.50073 3.7124C1.5008 3.73858 1.50677 3.74911 1.5105 3.75439C1.51666 3.76313 1.53005 3.7746 1.54956 3.78271C1.56888 3.79065 1.58565 3.79123 1.59546 3.78955C1.60125 3.78854 1.61223 3.78545 1.63062 3.76709L3.7644 1.63232C3.78073 1.61514 3.7846 1.60383 3.78589 1.59619C3.7878 1.58428 3.78717 1.56608 3.77905 1.54639C3.77086 1.52662 3.75924 1.51462 3.75171 1.50928C3.7476 1.50637 3.73824 1.50055 3.71265 1.50049H1.57593C1.55765 1.50049 1.53905 1.50709 1.52319 1.52295C1.50734 1.53881 1.50073 1.55741 1.50073 1.57568V3.7124Z" fill="#303236"/>
</svg>
