<svg width="343" height="191" viewBox="0 0 343 191" fill="none" xmlns="http://www.w3.org/2000/svg">
    <path d="M8 0.5H335C339.142 0.5 342.5 3.85787 342.5 8V183C342.5 187.142 339.142 190.5 335 190.5H8C3.85787 190.5 0.5 187.142 0.5 183V8L0.509766 7.61426C0.710538 3.65139 3.98724 0.5 8 0.5Z" fill="#131516" stroke="#1F2023"/>
    <mask id="mask0_77_8" style="mask-type:alpha" maskUnits="userSpaceOnUse" x="16" y="97" width="311" height="62">
        <rect x="16" y="97" width="311" height="62" fill="#D9D9D9"/>
    </mask>
    <g mask="url(#mask0_77_8)">
        <path d="M16.8391 154.506L16.6218 155.141C16.5776 155.271 16.4561 155.358 16.3195 155.358C16.143 155.358 16 155.215 16 155.038V96.541H89.4704L89.8231 96.8922C90.0116 97.0798 90.1159 97.335 90.1268 97.6007C90.1799 98.8982 90.4124 100.074 89.4704 100.397C88.4286 100.754 87.9078 100.498 87.9078 101.468C87.9078 104.062 87.8251 106.633 86.9276 109.15C86.8876 109.262 86.8661 109.38 86.8658 109.499C86.8534 114.083 86.373 118.653 86.3321 123.236C86.3288 123.611 86.1191 123.955 85.785 124.126L85.2373 124.406C84.7815 124.64 84.223 124.491 83.9436 124.062L83.8481 123.915C83.8187 123.87 83.793 123.823 83.7712 123.773L83.3203 122.752C83.2547 122.603 83.1488 122.475 83.0147 122.383C82.5741 122.082 81.9642 122.25 81.7306 122.73C81.6825 122.829 81.6527 122.937 81.6438 123.047L81.1428 129.226C81.1385 129.279 81.1301 129.331 81.1177 129.382L80.6155 131.446L80.0157 134.997L79.7093 136.494C79.6274 136.894 79.3106 137.204 78.9089 137.278L78.4177 137.367C78.2246 137.402 78.0461 137.493 77.9045 137.629L75.5962 139.845L73.7586 141.256C73.721 141.285 73.6854 141.316 73.6523 141.35L72.0926 142.947C71.9102 143.134 71.808 143.384 71.808 143.646V144.2C71.808 144.51 71.6635 144.804 71.417 144.993L70.5453 145.662L69.4182 146.528C69.3284 146.596 69.251 146.68 69.1892 146.775L68.8087 147.359C68.7058 147.517 68.5613 147.643 68.389 147.72C67.3048 148.203 65.3716 148.973 64.3807 149.049C64.2814 149.057 64.1833 149.041 64.0882 149.011L61.0748 148.086L59.9851 147.668C59.8708 147.624 59.7493 147.601 59.6267 147.601H58.5851C58.1812 147.601 57.8169 147.844 57.6618 148.217L57.5692 148.44C57.414 148.813 57.0498 149.056 56.6459 149.056H54.398C54.2223 149.056 54.0497 149.102 53.8976 149.19L52.8528 149.794C52.6197 149.928 52.4508 150.151 52.3842 150.412L52.3212 150.659C52.2659 150.877 52.1391 151.069 51.9613 151.205L51.2424 151.757C51.0677 151.891 50.8536 151.964 50.6334 151.964H49.0789H47.1848H44.6594H42.4736C42.2533 151.964 42.0392 152.037 41.8645 152.171L40.7559 153.022C40.4422 153.263 40.0158 153.296 39.6685 153.107L38.7194 152.59C38.2595 152.339 37.6843 152.486 37.4005 152.926L37.3784 152.96C37.1943 153.246 36.8777 153.418 36.538 153.418H35.7076C35.3574 153.418 35.0316 153.604 34.8505 153.903C34.6694 154.203 34.3436 154.388 33.9935 154.388H33.7739C33.4289 154.388 33.1105 154.573 32.9397 154.873C32.7689 155.173 32.4505 155.358 32.1055 155.358H30.138H28.8131C28.6268 155.358 28.4442 155.306 28.2859 155.207L27.3082 154.601C27.0883 154.464 26.9298 154.248 26.8661 153.997L26.5413 152.718C26.4287 152.275 26.0295 151.964 25.5721 151.964H24.012C23.7326 151.964 23.4822 151.792 23.3824 151.531C23.1675 150.969 22.3801 150.949 22.1365 151.499L22.114 151.549C22.0023 151.802 21.7525 151.964 21.4767 151.964H21.1541C20.7131 151.964 20.3283 152.264 20.2201 152.691C20.112 153.119 19.7272 153.418 19.2862 153.418H18.0529C17.7147 153.418 17.3995 153.589 17.2149 153.873L16.9474 154.284C16.9022 154.353 16.8659 154.428 16.8391 154.506Z" fill="url(#paint0_linear_77_8)"/>
        <path d="M16 155.357V155.357C16.3277 155.357 16.6192 155.148 16.7252 154.838L16.8391 154.505C16.8659 154.427 16.9022 154.352 16.9474 154.283L17.2149 153.872C17.3995 153.589 17.7147 153.418 18.0529 153.418H19.2862C19.7272 153.418 20.112 153.118 20.2201 152.69V152.69C20.3283 152.263 20.7131 151.963 21.1541 151.963H21.4767C21.7525 151.963 22.0023 151.801 22.114 151.549L22.1365 151.498C22.3801 150.948 23.1675 150.968 23.3824 151.53V151.53C23.4822 151.791 23.7326 151.963 24.012 151.963H25.5721C26.0295 151.963 26.4287 152.274 26.5413 152.717L26.8661 153.996C26.9298 154.247 27.0883 154.463 27.3082 154.6L28.2859 155.206C28.4442 155.305 28.6268 155.357 28.8131 155.357H30.138H32.1055C32.4505 155.357 32.7689 155.172 32.9397 154.872V154.872C33.1105 154.572 33.4289 154.387 33.7739 154.387H33.9934C34.3436 154.387 34.6694 154.202 34.8505 153.902V153.902C35.0316 153.603 35.3574 153.418 35.7076 153.418H36.538C36.8777 153.418 37.1943 153.245 37.3784 152.96L37.4005 152.925C37.6843 152.485 38.2595 152.339 38.7194 152.589L39.6685 153.106C40.0158 153.296 40.4422 153.262 40.7559 153.021L41.8645 152.17C42.0392 152.036 42.2533 151.963 42.4736 151.963H44.6594H47.1848H49.0789H50.6334C50.8536 151.963 51.0677 151.891 51.2424 151.756L51.9613 151.204C52.1391 151.068 52.2659 150.876 52.3212 150.658L52.3842 150.411C52.4508 150.15 52.6197 149.927 52.8528 149.793L53.8976 149.189C54.0497 149.101 54.2223 149.055 54.398 149.055H56.6459C57.0498 149.055 57.414 148.812 57.5692 148.439L57.6618 148.216C57.8169 147.843 58.1812 147.6 58.5851 147.6H59.6267C59.7493 147.6 59.8707 147.623 59.9851 147.667L61.0748 148.085L64.0881 149.011C64.1833 149.04 64.2814 149.056 64.3807 149.049C65.3716 148.972 67.3048 148.202 68.389 147.719C68.5613 147.642 68.7058 147.516 68.8087 147.359L69.1892 146.774C69.251 146.679 69.3284 146.596 69.4182 146.527L70.5453 145.661L71.417 144.992C71.6635 144.803 71.808 144.51 71.808 144.199V143.645C71.808 143.384 71.9102 143.133 72.0926 142.946L73.6523 141.349C73.6854 141.315 73.721 141.284 73.7586 141.255L75.5962 139.844L77.9045 137.628C78.0461 137.493 78.2246 137.401 78.4177 137.366L78.9089 137.277C79.3106 137.203 79.6274 136.893 79.7093 136.493L80.0157 134.996L80.6155 131.445L81.1177 129.381C81.1301 129.33 81.1385 129.278 81.1428 129.225L81.6438 123.046C81.6527 122.936 81.6825 122.828 81.7306 122.729V122.729C81.9642 122.249 82.5741 122.081 83.0147 122.383V122.383C83.1488 122.474 83.2547 122.602 83.3203 122.751L83.7712 123.772C83.793 123.822 83.8187 123.869 83.8481 123.914L83.9436 124.061C84.223 124.49 84.7815 124.639 85.2373 124.405L85.785 124.125C86.1191 123.954 86.3288 123.61 86.3321 123.235C86.373 118.652 86.8534 114.082 86.8658 109.498C86.8661 109.379 86.8876 109.261 86.9275 109.149C87.8251 106.632 87.9078 104.061 87.9078 101.467C87.9078 100.497 88.4286 100.753 89.4704 100.396C90.4098 100.074 90.1812 98.9038 90.1272 97.6107C90.1159 97.3386 90.2286 97.0778 90.4251 96.8893L92.4103 94.9839C92.5616 94.8387 92.6634 94.6496 92.7013 94.4434L93.0671 92.4563C93.0994 92.2805 93.1753 92.1129 93.3066 91.9917C94.3602 91.0191 95.7998 91.4196 95.7998 90.8824C95.7998 87.625 94.4094 83.6419 97.314 81.0183C97.5446 80.81 97.6939 80.52 97.6939 80.2092V78.5752C97.6939 78.3815 97.7502 78.1919 97.8559 78.0295L98.7946 76.588C98.9003 76.4257 98.9546 76.2357 98.963 76.0421C99.0689 73.5992 100.469 71.7075 101.971 68.2764C103.534 64.7075 103.376 70.0372 103.376 70.0372V73.2229C103.376 73.3599 103.404 73.4954 103.459 73.6211L103.925 74.6944C103.979 74.8201 104.008 74.9556 104.008 75.0926V76.3392C104.008 76.6624 104.008 77.5027 104.008 78.2783C104.008 82.1565 104.008 82.1565 104.008 84.0956C104.008 87.3402 103.697 90.7672 105.902 93.3063M117.897 93.3063C117.352 91.2125 118.235 88.667 119.117 86.619C119.146 86.5526 119.182 86.4899 119.224 86.4313L122.127 82.4189C122.251 82.2483 122.317 82.0432 122.317 81.8327V74.1909C122.317 73.4216 123.149 72.9404 123.816 73.3243L124.744 73.8587C124.809 73.8963 124.87 73.9408 124.922 73.996C125.151 74.2422 125.82 75.047 126.105 76.3392C126.452 77.9123 126.863 79.9232 127.494 80.7022C128.126 81.4812 127.999 79.2479 127.999 78.2783C127.999 77.3088 127.999 76.824 127.999 75.8545C127.999 74.8849 127.999 73.4306 127.999 72.9458C127.999 72.461 128.631 71.0067 128.631 70.5219C128.631 70.158 129.372 68.3426 129.811 67.3192C129.865 67.1933 129.893 67.0578 129.893 66.9208V64.2199V59.6904C129.893 59.195 130.589 59.0846 130.742 59.5557V59.5557C130.873 59.9562 131.439 59.9562 131.57 59.5557L132.37 57.0992C132.402 56.9992 132.419 56.8948 132.419 56.7897C132.419 55.9349 132.419 54.4037 132.419 54.0397C132.419 53.6723 133.174 52.406 133.612 51.7241C133.658 51.652 133.717 51.5896 133.785 51.5383V51.5383C134.232 51.2036 134.874 51.4754 134.945 52.0295L135.349 55.178C135.448 55.953 136.362 56.3244 137 55.8732C137.593 55.4538 138.198 55.0716 138.433 55.0716C138.953 55.0716 138.732 56.1727 138.732 56.9483C138.732 60.1962 137.909 69.6736 141.915 71.3122C142.272 71.4582 142.583 71.7292 142.68 72.1025L143.152 73.9154L143.713 76.9319C143.758 77.1746 143.892 77.3919 144.087 77.5422L145.918 78.9476C146.164 79.1369 146.309 79.43 146.309 79.7408V81.9488C146.309 82.0858 146.338 82.2207 146.388 82.3479C146.61 82.9024 146.94 83.8935 146.94 84.5804C146.94 88.3165 147.572 92.096 147.572 95.7301M148.834 93.791C148.834 93.3063 148.834 90.8824 148.834 90.3976C148.834 89.9129 148.834 87.0042 148.834 86.0347C148.834 85.0651 148.834 80.6905 150.728 82.1565C152.622 83.6225 152.622 86.4411 152.622 87.489C152.622 87.9738 152.622 87.489 152.622 88.4585C152.622 89.2342 152.622 90.7208 152.622 91.3672C152.622 91.6904 152.622 92.4337 152.622 92.8215C152.622 93.2093 152.622 94.2758 152.622 94.7606M154.58 86.1207C155.101 85.7638 155.621 86.8345 155.779 87.489C155.964 88.2543 156.158 91.3615 156.411 90.8824C157.15 89.4791 157.673 88.0117 157.673 86.5195C157.673 86.0347 157.673 85.0651 157.673 84.0956C157.673 83.3199 158.305 82.1565 158.936 80.7022C159.567 79.2479 159.788 77.1986 160.309 75.8545C160.83 74.5103 160.83 78.3753 160.83 78.7631C160.83 79.2479 160.83 78.2783 160.83 80.7022C160.83 83.126 160.83 83.2656 161.351 84.5804C162.126 86.5352 163.471 87.666 164.618 89.4281L165.088 90.1488C165.193 90.3112 165.25 90.5008 165.25 90.6945V93.3063M274.476 92.8215L275.729 94.4138C275.868 94.5901 275.936 94.8097 275.966 95.0322C276.155 96.4543 277.516 96.7002 278.264 95.7301C279.069 94.686 279.069 93.6153 279.59 92.8215C280.071 92.0871 281.769 85.6593 282.021 84.6999C282.042 84.6176 282.052 84.5373 282.052 84.4522V82.1565L281.428 69.2201C281.423 69.119 281.434 69.0176 281.459 68.9196C282.076 66.5463 282.571 64.5031 283.324 62.1687C283.355 62.0723 283.372 61.9794 283.373 61.8781C283.397 60.2987 283.65 46.3587 285.266 47.1952C285.362 47.2445 285.425 47.3417 285.471 47.4384C286.542 49.6637 287.687 55.2473 287.902 56.3204C287.925 56.4401 287.97 56.5529 288.033 56.6574C288.367 57.2097 289.459 59.065 289.459 59.7219V59.7219C289.459 60.1157 290.469 60.1223 290.639 59.7667C291.451 58.0602 292.154 56.3379 292.154 56.9483C292.154 57.9179 292.154 61.3113 292.154 63.2504C292.154 65.1894 292.154 65.6742 292.154 68.0981C292.154 70.0372 292.154 71.4915 292.154 73.4306C292.154 75.3697 292.154 78.2783 292.785 75.8545C293.417 73.4306 294.679 71.9763 294.679 70.0372C294.679 65.1894 295.216 65.7782 295.942 63.7351C296.631 61.7967 296.77 59.4637 297.681 58.1257C297.777 57.9851 297.852 57.83 297.881 57.6625L298.105 56.4033C298.222 55.7413 298.96 55.4054 299.356 55.9488C299.579 56.2553 299.73 56.602 299.73 56.9483C299.73 63.6306 300.867 77.1986 303.55 77.3088C306.233 77.419 304.592 67.1285 306.044 67.1285C307.408 67.1285 308.624 69.4115 309.115 70.3573C309.172 70.4663 309.208 70.5845 309.221 70.7066L310.01 77.665C310.108 78.533 311.313 78.5737 311.884 77.9123V77.9123C312.405 77.3088 312.926 76.1279 313.62 75.3697C314.227 74.7075 313.786 78.3066 314.926 79.8752C315.203 80.2564 315.74 80.1339 316.025 79.7585C316.583 79.0244 317.024 78.4393 317.374 77.9524C317.842 77.3008 320.448 77.5963 321.196 77.3088V77.3088V77.3088C321.678 77.1239 322.941 72.0666 323.063 71.5654C323.148 71.2208 323.24 70.8394 323.343 70.4177C324.906 63.9938 326.037 48.384 326.247 41.4356L326.495 39.0117" stroke="#F74B60" stroke-width="1.2" stroke-linecap="square" stroke-linejoin="round"/>
    </g>
    <mask id="mask1_77_8" style="mask-type:alpha" maskUnits="userSpaceOnUse" x="16" y="16" width="311" height="81">
        <rect x="16" y="16" width="311" height="81" fill="#D9D9D9"/>
    </mask>
    <g mask="url(#mask1_77_8)">
        <path d="M16.3404 154.895H16.0001V174.237C16.0001 174.79 16.4478 175.237 17.0001 175.237H326C326.552 175.237 327 174.79 327 174.237V38.09L326.752 40.9736C326.542 47.922 325.41 63.5318 323.848 69.9558L323.645 70.7907C323.512 71.335 321.43 76.646 320.907 76.8468C320.081 77.1639 319.954 77.366 319.402 77.0993C319.113 76.9594 318.782 76.9242 318.475 77.019C317.551 77.3039 317.064 77.2492 316.427 78.8282C316.196 79.4028 315.526 79.6457 315.236 79.0983C314.341 77.4133 314.694 74.2868 314.125 74.9077C313.43 75.666 312.91 76.8468 312.389 77.4504C312.087 77.8004 311.557 77.7445 311.165 77.6357C310.846 77.5471 310.644 77.2537 310.602 76.9252L309.728 70.2356C309.713 70.1194 309.68 70.0121 309.652 69.8983C309.256 68.2669 308.914 57.4621 307.524 57.4621C306.071 57.4621 307.713 67.7525 305.03 67.6423C302.346 67.5321 301.21 53.9642 301.21 47.2818C301.21 46.9355 301.059 46.5888 300.836 46.2823C300.44 45.7389 299.702 46.0748 299.585 46.7368L299.361 47.996C299.331 48.1635 299.257 48.3186 299.161 48.4592C298.25 49.7973 298.111 52.1303 297.422 54.0686C296.696 56.1117 296.159 55.523 296.159 60.3707C296.159 62.3098 294.896 63.7641 294.265 66.188C293.634 68.6118 293.634 65.7032 293.634 63.7641V58.4316C293.634 56.0077 292.659 55.523 292.659 53.5839C292.659 51.6448 291.684 44.5696 291.684 43.6C291.684 43.1631 290.927 44.5055 290.078 46.1078C289.593 47.0243 286.668 52.0049 286.111 52.8793C285.327 54.1083 284.627 55.1337 284.627 54.7927C284.627 54.1248 283.925 52.4502 283.73 51.9981C283.697 51.9215 283.673 51.8456 283.659 51.7633C283.454 50.5581 281.758 40.6834 280.942 37.9113C280.879 37.6963 280.702 37.5056 280.515 37.6294C278.839 38.7398 274.234 51.5623 273.678 53.1223C273.64 53.2292 273.625 53.335 273.617 53.4482C273.519 54.9977 272.16 57.6791 271.673 58.8002C271.183 59.9302 272.105 61.991 272.459 64.2169C272.479 64.3475 272.471 64.4809 272.438 64.6089L272.193 65.5551C272.171 65.6371 272.161 65.7215 272.161 65.8062V67.9451C272.161 68.0494 272.146 68.1488 272.114 68.2481C271.775 69.2917 269.714 75.6151 269.236 76.3432C268.715 77.137 267.116 81.2277 266.311 82.2718C265.539 83.2736 262.658 74.1546 262.426 71.8918C262.409 71.7261 262.37 71.5665 262.291 71.4202L261.72 70.3689C261.546 70.0465 261.208 69.8457 260.841 69.8457H260.731C260.555 69.8457 260.381 69.8923 260.229 69.981L254.26 73.4489C254.17 73.501 254.064 73.5539 253.973 73.5044C252.688 72.8062 252.691 59.3259 251.76 58.3869C251.718 58.3441 251.654 58.3362 251.594 58.3321C248.859 58.1429 249.609 62.1395 246.373 69.1875C246.184 69.5991 245.369 70.7026 244.996 70.4456C244.925 70.3967 244.822 70.2874 244.746 70.2479C243.84 69.7815 242.306 68.588 241.273 67.4447C241.071 67.2215 240.77 67.0991 240.564 67.3183C240.005 67.9133 239.334 69.5248 238.526 70.7661C237.263 72.7057 235.954 76.9589 235.954 75.8589C235.954 74.7588 235.149 73.0332 235.149 71.9807C235.149 70.9609 234.658 71.4617 233.693 71.6283C233.631 71.6391 233.569 71.6536 233.509 71.6744L232.783 71.9257C232.678 71.9621 232.567 71.9807 232.456 71.9807H231.547C231.424 71.9807 231.303 71.9581 231.188 71.9141L230.099 71.4954L228.488 70.6717C228.304 70.5771 228.153 70.4275 228.057 70.2434L227.25 68.6935C227.063 68.3356 226.681 68.1222 226.281 68.1758C224.259 68.4471 221.08 69.2765 220.628 71.0111C220.182 72.7237 219.703 73.8059 219.453 74.258C219.398 74.357 219.32 74.4398 219.23 74.5087L217.697 75.6851C217.235 76.04 216.568 75.9248 216.194 75.478C215.394 74.524 214.188 73.4345 213.052 73.4345C209.66 73.4345 210.526 77.965 210.526 79.2518C210.526 79.9179 208.441 80.8129 207.135 81.9366C206.506 82.4774 205.156 82.8846 204.498 82.3797L204.286 82.2165C203.884 81.9082 203.315 81.9488 202.961 82.3109L201.982 83.3136C201.794 83.5062 201.536 83.6147 201.266 83.6147H197.005C196.453 83.6147 196.005 83.167 196.005 82.6147V80.2218V75.8589C196.005 75.1674 195.336 76.2224 194.893 77.0318C194.793 77.2137 194.629 77.3533 194.5 77.5157C194.161 77.9414 194.078 78.7922 193.158 79.881C192.977 80.095 192.674 80.1698 192.435 80.0233C192.173 79.8631 191.941 79.6538 191.742 79.4362C191.454 79.1197 190.798 79.2428 190.729 79.6657C190.683 79.9473 190.384 80.11 190.123 79.9953L188.607 79.3298C188.489 79.2783 188.383 79.2047 188.293 79.113L187.23 78.0243C186.873 77.6595 186.271 77.7189 185.992 78.1463C185.665 78.6486 184.923 78.623 184.636 78.0964C183.963 76.8576 183.117 75.2576 182.747 74.4045C182.174 73.0862 182.277 71.8581 181.525 71.5578C181.361 71.4923 181.176 71.5309 181.02 71.6126C180.221 72.0286 180.221 72.4141 180.221 73.4345C180.221 74.3369 178.981 75.3665 178.508 75.7264C178.39 75.8158 178.29 75.9241 178.215 76.0517C177.324 77.5792 175.507 80.5617 174.539 81.6761C173.565 82.7978 173.23 81.3063 173.207 80.3289C173.206 80.2576 173.199 80.187 173.184 80.1173C172.963 79.0999 172.501 76.9819 172.014 75.8589C171.64 74.9991 171.405 74.0959 171.104 73.6758C170.959 73.4748 170.751 73.2388 170.751 72.9915C170.751 72.769 170.592 72.5783 170.373 72.5389L169.772 72.4307C169.325 72.3502 168.988 71.9784 168.902 71.5324C168.748 70.7321 168.398 69.5071 167.644 68.9012C167.598 68.8638 167.553 68.8303 167.511 68.8006C166.895 68.3707 166.226 70.2701 166.095 71.0094L164.938 77.5665C164.925 77.635 164.906 77.7021 164.88 77.7666L163.827 80.3785C163.813 80.4131 163.806 80.4501 163.806 80.4875C163.806 80.6862 163.611 80.8267 163.423 80.7642L163.302 80.7243C163.22 80.6969 163.149 80.642 163.101 80.5697C161.97 78.8711 160.665 77.7473 159.907 75.8343C159.386 74.5196 159.386 74.38 159.386 71.9561V70.017C159.386 69.6292 159.386 65.7643 158.866 67.1084C158.345 68.4525 158.124 70.5018 157.492 71.9561C156.861 73.4105 156.23 74.5739 156.23 75.3495V77.7734C156.23 79.2657 155.707 80.7331 154.967 82.1364C154.714 82.6154 153.405 78.5566 153.22 77.7913C153.065 77.1468 152.743 77.2073 150.871 85.1193C150.815 85.3565 150.673 85.5712 150.474 85.7121L149.028 86.7365C148.9 86.8269 148.795 86.9462 148.722 87.0846L147.487 89.4159C147.411 89.5601 147.371 89.7191 147.371 89.8823C147.375 90.8049 147.391 93.5282 147.391 93.9611C147.391 94.3034 146.735 93.4125 146.292 92.7541C146.184 92.5934 146.128 92.403 146.127 92.2092C146.093 88.8139 145.497 87.7505 145.497 84.1184C145.497 83.4315 145.167 82.4405 144.945 81.886C144.894 81.7588 144.865 81.6239 144.865 81.4868V79.2789C144.865 78.9681 144.721 78.675 144.474 78.4857L142.644 77.0802C142.448 76.93 142.315 76.7126 142.27 76.47L141.708 73.4534L141.146 71.2937C141.101 71.1208 141.007 70.966 140.896 70.826C138.956 68.3802 139.239 59.7898 139.239 56.4864C139.239 55.7107 139.46 54.6097 138.939 54.6097C138.668 54.6097 137.927 54.8717 137.278 55.1232C136.693 55.35 136.034 55.011 135.899 54.3983L135.312 51.7349C135.237 51.3955 134.937 51.1539 134.589 51.1539C134.339 51.1539 134.105 51.2798 133.972 51.4922C133.532 52.1977 132.925 53.2486 132.925 53.5777V56.2873C132.925 56.4191 132.899 56.549 132.849 56.6707L131.983 58.7534C131.855 59.0604 131.555 59.2605 131.223 59.2605C130.768 59.2605 130.4 59.6289 130.4 60.0835V63.758V66.4589C130.4 66.5959 130.372 66.7313 130.318 66.8572C129.878 67.8807 129.137 69.6961 129.137 70.06C129.137 70.5448 128.506 71.9991 128.506 72.4839V75.3925V77.8164C128.506 78.7859 128.632 81.0193 128.001 80.2402C127.369 79.4612 126.959 77.4504 126.612 75.8773C126.326 74.5851 125.658 73.7803 125.428 73.5341C125.377 73.4788 125.316 73.4344 125.25 73.3967L124.068 72.7158C123.515 72.3971 122.824 72.7966 122.824 73.4353C122.824 73.9186 122.412 74.2997 121.93 74.2632L120.376 74.1454C119.952 74.1132 119.559 74.358 119.354 74.7314C118.602 76.0994 117.96 76.2302 118.357 77.928C118.386 78.0532 118.395 78.1826 118.379 78.31L117.785 82.8727C117.777 82.9339 117.763 82.9943 117.744 83.0531L117.141 84.9039C117.046 85.2682 116.51 89.2119 116.51 89.5884V91.9225C116.51 92.0843 116.447 92.2398 116.334 92.3556L115.751 92.952C115.327 93.3862 113.863 93.4746 113.353 93.145C111.854 92.175 111.171 89.6284 111.171 86.3577C111.171 82.0322 109.51 82.0864 106.408 78.117C104.204 75.578 104.514 75.8328 104.514 72.5882V71.3732V69.4341V68.1875C104.514 68.0505 104.486 67.9149 104.431 67.7892L103.965 66.716C103.911 66.5903 103.883 66.4548 103.883 66.3178V63.1321C103.883 63.1321 104.041 57.8024 102.478 61.3713C100.976 64.8024 99.5756 66.6941 99.4697 69.137C99.4613 69.3306 99.407 69.5205 99.3013 69.6829L98.3626 71.1244C98.2569 71.2868 98.2006 71.4763 98.2006 71.6701V73.3041C98.2006 73.6149 98.0499 73.9014 97.8357 74.1266C94.9114 77.2008 96.3065 87.1575 96.3065 90.4205C96.3065 90.9576 94.867 90.5572 93.8133 91.5297C93.682 91.6509 93.6062 91.8186 93.5738 91.9943L93.2081 93.9815C93.1701 94.1877 93.0683 94.3768 92.9171 94.5219L90.9318 96.4273C90.7354 96.6159 90.6226 96.8766 90.634 97.1487C90.688 98.4419 90.9165 99.6124 89.9771 99.9342C88.9354 100.291 88.4145 100.035 88.4145 101.005C88.4145 103.6 88.3319 106.17 87.4343 108.687C87.3944 108.799 87.3729 108.917 87.3725 109.036C87.3602 113.62 86.8798 118.19 86.8389 122.773C86.8356 123.148 86.6259 123.492 86.2918 123.663L85.7441 123.944C85.2883 124.177 84.7298 124.028 84.4504 123.599L84.3549 123.452C84.3255 123.407 84.2998 123.36 84.278 123.31L83.8271 122.289C83.7615 122.14 83.6556 122.013 83.5215 121.921C83.0809 121.619 82.4711 121.787 82.2374 122.267C82.1894 122.366 82.1595 122.474 82.1507 122.584L81.6496 128.763C81.6453 128.816 81.637 128.868 81.6245 128.919L81.1224 130.983L80.5226 134.534L80.2161 136.031C80.1343 136.431 79.8174 136.742 79.4157 136.815L78.9245 136.904C78.7315 136.939 78.553 137.031 78.4114 137.167L76.1031 139.382L74.2655 140.793C74.2279 140.822 74.1923 140.853 74.1592 140.887L72.5995 142.484C72.4171 142.671 72.3149 142.922 72.3149 143.183V143.737C72.3149 144.048 72.1704 144.341 71.9239 144.53L71.0522 145.199L69.9251 146.065C69.8353 146.134 69.7579 146.217 69.6961 146.312L69.3156 146.897C69.2127 147.055 69.0682 147.18 68.896 147.257C67.8117 147.74 65.8786 148.51 64.8876 148.587C64.7884 148.594 64.6903 148.578 64.5951 148.549L61.5818 147.623L60.4922 147.205C60.3778 147.161 60.2563 147.138 60.1338 147.138H59.0921C58.6882 147.138 58.324 147.381 58.1688 147.754L58.0762 147.977C57.9211 148.35 57.5568 148.593 57.1529 148.593H54.9051C54.7294 148.593 54.5568 148.639 54.4047 148.727L53.3599 149.331C53.1268 149.465 52.9579 149.689 52.8913 149.949L52.8283 150.196C52.7729 150.414 52.6462 150.606 52.4683 150.743L51.7495 151.295C51.5748 151.429 51.3607 151.501 51.1405 151.501H49.586H47.692H45.1665H42.9807C42.7605 151.501 42.5464 151.574 42.3717 151.708L41.2631 152.559C40.9493 152.8 40.523 152.834 40.1756 152.644L39.2266 152.127C38.7667 151.877 38.1915 152.023 37.9077 152.463L37.8856 152.498C37.7015 152.783 37.385 152.956 37.0452 152.956H36.2148C35.8647 152.956 35.5388 153.141 35.3577 153.44C35.1767 153.74 34.8508 153.925 34.5007 153.925H34.2811C33.9362 153.925 33.6177 154.11 33.447 154.41C33.2762 154.71 32.9577 154.895 32.6128 154.895H30.6453H29.3204C29.1341 154.895 28.9515 154.843 28.7931 154.744L27.8155 154.138C27.5956 154.001 27.4371 153.785 27.3735 153.534L27.0486 152.255C26.936 151.812 26.5369 151.501 26.0794 151.501H24.5193C24.24 151.501 23.9895 151.329 23.8897 151.068C23.6748 150.506 22.8874 150.486 22.6438 151.036L22.6213 151.087C22.5097 151.339 22.2598 151.501 21.9841 151.501H21.6615C21.2204 151.501 20.8357 151.801 20.7275 152.229C20.6193 152.656 20.2346 152.956 19.7935 152.956H18.5603C18.2221 152.956 17.9068 153.127 17.7223 153.41L17.4547 153.821C17.4096 153.89 17.3733 153.965 17.3465 154.043L17.2866 154.218C17.1483 154.623 16.768 154.895 16.3404 154.895Z" fill="url(#paint1_linear_77_8)"/>
        <path d="M16.0001 155V155C16.3284 155 16.6204 154.791 16.7269 154.481L16.8404 154.15C16.8673 154.071 16.9038 153.997 16.9491 153.927L17.2173 153.517C17.402 153.234 17.7168 153.064 18.0545 153.064H19.2937C19.7343 153.064 20.1187 152.764 20.2271 152.337V152.337C20.3354 151.91 20.7198 151.611 21.1605 151.611H21.4862C21.7622 151.611 22.0122 151.449 22.1242 151.197L22.1468 151.146C22.3912 150.596 23.1786 150.616 23.3942 151.178V151.178C23.4943 151.439 23.745 151.611 24.0245 151.611H25.5895C26.0467 151.611 26.4457 151.921 26.5586 152.364L26.8837 153.641C26.9476 153.892 27.1064 154.108 27.3266 154.244L28.3067 154.85C28.4647 154.948 28.6469 155 28.8328 155H30.1611H32.133C32.4778 155 32.7962 154.815 32.9673 154.516V154.516C33.1384 154.217 33.4567 154.032 33.8015 154.032H34.0245C34.3742 154.032 34.7 153.847 34.8812 153.548V153.548C35.0624 153.249 35.3882 153.064 35.7379 153.064H36.5732C36.9125 153.064 37.2286 152.892 37.4129 152.607L37.4364 152.57C37.7202 152.131 38.2942 151.985 38.7534 152.235L39.7092 152.754C40.056 152.942 40.4811 152.909 40.7944 152.669L41.9074 151.817C42.0819 151.684 42.2955 151.611 42.5153 151.611H44.706H47.2356H49.1327H50.6911C50.9108 151.611 51.1245 151.539 51.299 151.405L52.0196 150.854C52.1978 150.717 52.3249 150.525 52.3805 150.307L52.4432 150.062C52.51 149.801 52.6793 149.578 52.9128 149.444L53.9601 148.84C54.1119 148.753 54.2841 148.707 54.4594 148.707H56.7139C57.1174 148.707 57.4814 148.464 57.6367 148.092L57.7296 147.869C57.885 147.497 58.249 147.254 58.6525 147.254H59.6985C59.8207 147.254 59.9419 147.277 60.056 147.32L61.1481 147.738L64.167 148.663C64.2618 148.692 64.3597 148.708 64.4587 148.7C65.4512 148.625 67.3885 147.855 68.4747 147.372C68.6469 147.296 68.7915 147.17 68.8945 147.013L69.2756 146.429C69.3376 146.334 69.4151 146.251 69.505 146.182L70.634 145.318L71.5066 144.65C71.7538 144.46 71.8988 144.167 71.8988 143.856V143.305C71.8988 143.044 72.0013 142.792 72.1844 142.606L73.7461 141.012C73.7793 140.978 73.8148 140.946 73.8525 140.917L75.6931 139.508L78.0056 137.296C78.1472 137.16 78.3254 137.069 78.5182 137.034L79.0122 136.944C79.4139 136.871 79.7309 136.562 79.813 136.162L80.1198 134.667L80.7206 131.121L81.2235 129.06C81.236 129.008 81.2444 128.956 81.2487 128.904L81.7505 122.734C81.7594 122.624 81.7894 122.516 81.8377 122.417V122.417C82.0721 121.936 82.6817 121.769 83.1231 122.07V122.07C83.2578 122.162 83.3642 122.29 83.4302 122.439L83.8813 123.458C83.9032 123.508 83.929 123.555 83.9585 123.601L84.0551 123.748C84.3346 124.176 84.8917 124.325 85.347 124.092L85.8983 123.811C86.233 123.64 86.4431 123.296 86.4465 122.92C86.4875 118.345 86.9685 113.781 86.981 109.205C86.9813 109.085 87.003 108.967 87.0431 108.855C87.9419 106.341 88.0247 103.774 88.0247 101.183C88.0247 100.215 88.5464 100.471 89.5898 100.114C90.5304 99.793 90.302 98.6248 90.2478 97.334C90.2364 97.0613 90.3495 96.8002 90.5467 96.6115L92.5342 94.7096C92.6859 94.5644 92.7881 94.3752 92.8262 94.1687L93.1922 92.186C93.2247 92.0099 93.3009 91.842 93.4327 91.7208C94.488 90.75 95.9296 91.1498 95.9296 90.6134C95.9296 87.355 94.5323 77.4129 97.4607 74.3422C97.6755 74.117 97.8267 73.83 97.8267 73.5187V71.8896C97.8267 71.6954 97.8833 71.5054 97.9895 71.3428L98.9287 69.9048C99.0349 69.7421 99.0895 69.5518 99.098 69.3577C99.2044 66.9187 100.607 65.0296 102.111 61.6037C103.676 58.0397 103.518 63.3621 103.518 63.3621V66.5426C103.518 66.68 103.547 66.8159 103.601 66.9418L104.067 68.0123C104.122 68.1382 104.151 68.2741 104.151 68.4115V69.6556C104.151 69.9783 104.151 70.8174 104.151 71.592C104.151 75.4649 104.151 75.4649 104.151 77.4014C104.151 80.6416 103.84 69.3567 106.048 71.8923C109.155 75.8562 109.842 75.8021 109.842 80.1217C109.842 83.3879 111.502 92.3655 113.004 93.3342V93.3342C113.514 93.6629 114.982 93.5742 115.406 93.141L115.989 92.5465C116.102 92.4305 116.166 92.2745 116.166 92.1121C116.166 91.2818 116.166 90.4812 116.166 89.783C116.166 89.4059 116.703 85.4691 116.798 85.1043V85.1043L117.402 83.2564C117.421 83.1975 117.435 83.1369 117.443 83.0755L118.038 78.5202C118.055 78.3924 118.053 78.2512 118.001 78.1332C117.593 77.206 118.432 87.7869 119.275 86.3612C119.312 86.2988 119.349 86.2268 119.392 86.1682L122.299 82.1621C122.423 81.9913 122.49 81.7857 122.49 81.5747V73.9443C122.49 73.1756 123.321 72.6943 123.988 73.0771L124.921 73.6129C124.986 73.6504 125.047 73.6948 125.099 73.7499C125.329 73.9956 125.998 74.7994 126.284 76.09C126.632 77.661 127.043 79.669 127.675 80.447C128.308 81.225 128.181 78.9947 128.181 78.0264C128.181 77.0582 128.181 76.5741 128.181 75.6059C128.181 74.6376 128.181 73.1853 128.181 72.7012C128.181 72.2171 128.814 70.7647 128.814 70.2806C128.814 69.9173 129.556 68.1051 129.996 67.0829C130.05 66.9567 130.079 66.8209 130.079 66.6835V63.9871V59.4647C130.079 58.9686 130.775 58.8578 130.929 59.3294V59.3294C131.06 59.7302 131.627 59.7302 131.758 59.3294L132.559 56.8767C132.591 56.7765 132.608 56.6718 132.608 56.5663C132.608 55.7126 132.608 54.1841 132.608 53.8207C132.608 53.4539 133.364 52.1897 133.803 51.5086C133.849 51.4365 133.908 51.3739 133.977 51.3226V51.3226C134.425 50.9881 135.068 51.2605 135.139 51.8153L135.543 54.959C135.643 55.7331 136.555 56.1045 137.193 55.6545C137.788 55.2346 138.396 54.8513 138.632 54.8513C139.153 54.8513 138.932 55.9508 138.932 56.7254C138.932 60.1235 138.932 68.1113 140.77 71.2488C140.931 71.5234 141.068 71.7685 141.185 71.9871C141.591 72.7454 141.65 74.9967 141.808 75.8424L141.964 76.6809C142.009 76.9238 142.143 77.1413 142.339 77.2915L144.172 78.6945C144.419 78.8837 144.564 79.1772 144.564 79.4885V81.6911C144.564 81.8284 144.593 81.9637 144.644 82.0912C144.866 82.6451 145.196 83.6342 145.196 84.3199C145.196 87.9467 145.794 89.0088 145.827 92.3986C145.829 92.5928 145.885 92.7837 145.993 92.9446C146.438 93.602 147.094 94.4909 147.094 94.1493C147.094 93.6651 147.094 91.2446 147.094 90.7605C147.094 90.2763 147.094 90.6134 147.094 90.1293C147.094 89.7372 148.205 88.6098 148.627 87.6809C148.788 87.3281 149.012 86.966 149.363 86.8012L150.312 86.355C150.586 86.2267 150.786 85.9817 150.858 85.6884L152.757 77.9568C152.816 77.7176 152.985 77.4505 153.212 77.5464C153.595 77.7086 153.929 78.4518 154.05 78.9518C154.235 79.716 154.429 82.819 154.682 82.3406C155.423 80.9392 155.947 79.4737 155.947 77.9835C155.947 77.4994 155.947 76.5312 155.947 75.563C155.947 74.7884 156.579 73.6265 157.212 72.1742C157.844 70.7218 158.066 68.6753 158.587 67.333C159.109 65.9907 159.109 69.8504 159.109 70.2377C159.109 70.7218 159.109 69.7536 159.109 72.1742C159.109 74.5947 159.109 74.7341 159.631 76.0471C160.406 77.9993 161.754 79.1285 162.903 80.8882V80.8882C163.134 81.2409 163.676 81.1348 163.757 80.7213L163.919 79.8842C163.941 79.7744 163.985 79.67 164.048 79.5778L165.272 77.7992C165.369 77.659 165.428 77.498 165.444 77.3286C165.553 76.2236 165.997 71.8343 166.411 69.7286C166.887 67.3085 167.17 70.0196 167.676 69.245C168.036 68.6939 168.722 70.9708 169.088 72.3308C169.227 72.8462 169.764 73.1522 170.274 72.997V72.997C170.869 72.816 171.47 73.2613 171.47 73.8834V74.2724C171.47 74.4664 171.527 74.6557 171.627 74.8221C171.891 75.2622 172.327 76.0532 172.735 76.9908C173.223 78.1106 172.84 79.3665 173.001 80.3231C173.013 80.3936 173.021 80.4645 173.023 80.536C173.041 81.5121 173.311 83.0009 174.286 81.881C175.256 80.7681 177.076 77.7898 177.968 76.2643C178.043 76.1368 178.144 76.0286 178.261 75.9393C178.735 75.58 179.978 74.5518 179.978 73.6505C179.978 72.6311 179.978 72.2462 180.778 71.8306C180.935 71.7494 181.119 71.711 181.282 71.776C182.037 72.0751 181.934 73.3021 182.507 74.6193C182.878 75.4711 183.725 77.0688 184.4 78.3059C184.687 78.8327 185.43 78.8582 185.758 78.3559V78.3559C186.037 77.9286 186.64 77.8692 186.997 78.2337L188.063 79.3214C188.153 79.4129 188.259 79.4863 188.377 79.5376L189.896 80.2028C190.158 80.3172 190.457 80.1545 190.503 79.8727V79.8727C190.572 79.4498 191.228 79.3265 191.517 79.6428C191.716 79.8606 191.949 80.0702 192.212 80.2306C192.451 80.3768 192.754 80.302 192.936 80.0881C193.858 79.0008 193.94 78.1512 194.28 77.726C194.409 77.5639 194.573 77.4245 194.673 77.2427C195.117 76.4344 195.788 75.3811 195.788 76.0716C195.788 76.8462 195.788 79.299 195.788 80.4286V82.8169C195.788 83.3692 196.235 83.8169 196.788 83.8169H201.059C201.328 83.8169 201.585 83.7088 201.773 83.5168L202.757 82.5129C203.111 82.1521 203.678 82.1117 204.079 82.4187L204.298 82.5864C204.956 83.09 206.305 82.6826 206.933 82.1428C208.241 81.0199 210.333 80.1254 210.333 79.4599C210.333 78.1748 209.465 73.6505 212.862 73.6505C214.001 73.6505 215.21 74.7402 216.011 75.6934C216.385 76.1388 217.05 76.2538 217.512 75.9003L219.05 74.7232C219.14 74.6544 219.218 74.5717 219.273 74.4728C219.525 74.0212 220.004 72.9406 220.451 71.2305C220.903 69.4975 224.09 68.6694 226.114 68.3987C226.514 68.3453 226.896 68.5582 227.083 68.9154L227.889 70.4582C227.987 70.6455 228.141 70.7969 228.331 70.8909L230.756 72.0945C230.894 72.163 231.046 72.2001 231.201 72.1939C233.085 72.1182 234.996 71.1895 234.996 72.1987C234.996 73.2497 235.802 74.973 235.802 76.0716C235.802 77.1702 238.793 70.5319 238.793 70.5319C238.793 70.5319 240.054 68.2907 240.839 67.5459C241.057 67.3393 241.346 67.4436 241.547 67.6676C242.828 69.1022 245.666 71.6826 246.13 70.2622L247.064 68.2082C247.094 68.1438 247.129 68.083 247.171 68.0255C247.457 67.6278 248.649 65.9242 249.065 64.5509C249.539 62.9854 249.862 58.3933 252.059 58.1589C254.257 57.9245 252.573 76.4086 255.221 73.9268C257.139 72.13 259.167 70.8792 260.54 69.9582C261.143 69.5537 262.041 69.8182 262.268 70.508L265.554 80.4712C265.588 80.5723 265.603 80.6782 265.609 80.7844C265.701 82.3669 267.148 82.6759 267.929 81.6665C268.735 80.6238 268.735 79.5546 269.257 78.7618C269.778 77.969 271.723 70.5319 271.723 70.5319L272.614 68.3277C272.671 68.1853 272.695 68.0317 272.684 67.8786L272.081 59.8023C272.073 59.6923 272.083 59.5816 272.111 59.4749C272.727 57.1101 273.222 55.0727 273.976 52.7454C274.007 52.65 274.023 52.5527 274.026 52.4525C274.054 51.4857 274.278 46.1732 275.845 47.4232C275.928 47.4902 275.988 47.5969 276.066 47.6715C276.848 48.4284 278.431 42.2035 279.565 37.1459C279.813 36.0355 281.548 36.0957 281.714 37.2214C282.356 41.5822 283.301 47.3829 284.341 51.7188C286.195 59.4433 286.705 50.7478 289 48.6464C289.112 48.5446 289.214 48.4298 289.284 48.2967C291.651 43.8425 292.603 43.0179 292.603 47.5334C292.603 52.1173 293.581 51.8904 293.581 53.8269C293.581 55.7633 293.581 56.2474 293.581 58.668C293.581 60.6045 293.581 62.0568 293.581 63.9933C293.581 65.9297 293.581 68.8344 294.213 66.4138C294.846 63.9933 296.11 62.5409 296.11 60.6045C296.11 55.7633 296.648 56.3513 297.375 54.311C298.065 52.3755 298.205 50.046 299.117 48.7097C299.213 48.5689 299.288 48.4135 299.318 48.2458L299.542 46.9884C299.659 46.3272 300.396 45.9911 300.793 46.5329C301.018 46.8396 301.17 47.1867 301.17 47.5334C301.17 54.2066 302.308 67.7561 304.996 67.8662C307.683 67.9762 306.039 57.6998 307.493 57.6998C308.883 57.6998 309.226 68.4512 309.622 70.1102C309.65 70.23 309.684 70.3434 309.698 70.4657L310.487 77.4126C310.586 78.2818 311.792 78.3224 312.365 77.661V77.661C312.886 77.0582 313.408 75.8789 314.104 75.1217C314.711 74.4604 314.27 78.0556 315.412 79.6217C315.69 80.0025 316.227 79.8798 316.513 79.5048C317.07 78.7726 317.512 78.1888 317.862 77.703C318.332 77.0508 320.942 77.3455 321.693 77.0582V77.0582V77.0582C322.175 76.8735 323.44 71.8233 323.563 71.3213C323.647 70.9775 323.74 70.5971 323.843 70.1765C325.408 63.7613 326.541 48.1728 326.752 41.2338L327 38.8132" stroke="#2BC287" stroke-width="1.2" stroke-linecap="square" stroke-linejoin="round"/>
    </g>
    <g opacity="0.25">
        <path d="M16 16H327" stroke="#484B51" stroke-width="0.5" stroke-dasharray="4 4"/>
    </g>
    <g opacity="0.25">
        <path d="M16 56H327" stroke="#484B51" stroke-width="0.5" stroke-dasharray="4 4"/>
    </g>
    <g opacity="0.25">
        <path d="M16 96H327" stroke="#484B51" stroke-width="0.5"/>
    </g>
    <g opacity="0.25">
        <path d="M16 136H327" stroke="#484B51" stroke-width="0.5" stroke-dasharray="4 4"/>
    </g>
    <path d="M16.78 172V165.2H17.7V172H16.78ZM19.1805 172V166.69H20.0605V167.41C20.4205 166.85 21.0005 166.56 21.7005 166.56C22.8305 166.56 23.5005 167.22 23.5005 168.45V172H22.6205V168.63C22.6205 167.83 22.2605 167.31 21.4605 167.31C20.5805 167.31 20.0605 168.1 20.0605 168.86V172H19.1805ZM24.9031 165.98V164.8H25.7831V165.98H24.9031ZM24.9031 172V166.69H25.7831V172H24.9031ZM27.2985 170.47V167.39H26.5585V166.69H27.2985V165.47H28.1785V166.69H29.3485V167.39H28.1785V170.47C28.1785 171.11 28.3685 171.41 29.1485 171.41H29.3285V172.04C29.2285 172.09 29.0085 172.12 28.7585 172.12C27.7685 172.12 27.2985 171.59 27.2985 170.47ZM30.1863 165.98V164.8H31.0663V165.98H30.1863ZM30.1863 172V166.69H31.0663V172H30.1863ZM33.2717 168.42H32.3917C32.5617 167.25 33.3317 166.56 34.6317 166.56C36.0517 166.56 36.7417 167.39 36.7417 168.63V170.72C36.7417 171.33 36.7917 171.71 36.9317 172H36.0017C35.9017 171.79 35.8717 171.48 35.8617 171.16C35.4117 171.83 34.6917 172.12 34.0517 172.12C32.9517 172.12 32.2117 171.61 32.2117 170.6C32.2117 169.87 32.6117 169.34 33.3917 169.08C34.1117 168.84 34.8417 168.78 35.8617 168.77V168.65C35.8617 167.79 35.4617 167.32 34.5517 167.32C33.7917 167.32 33.3817 167.74 33.2717 168.42ZM33.1117 170.58C33.1117 171.07 33.5217 171.36 34.1417 171.36C35.1217 171.36 35.8617 170.59 35.8617 169.68V169.43C33.6017 169.45 33.1117 169.93 33.1117 170.58ZM38.3044 170.47V167.39H37.5644V166.69H38.3044V165.47H39.1844V166.69H40.3544V167.39H39.1844V170.47C39.1844 171.11 39.3744 171.41 40.1544 171.41H40.3344V172.04C40.2344 172.09 40.0144 172.12 39.7644 172.12C38.7744 172.12 38.3044 171.59 38.3044 170.47ZM45.7822 170.27C45.4922 171.51 44.6022 172.12 43.3922 172.12C41.8522 172.12 40.9222 171.08 40.9222 169.35C40.9222 167.55 41.8522 166.56 43.3422 166.56C44.8422 166.56 45.7422 167.59 45.7422 169.28V169.5H41.8222C41.8722 170.69 42.4322 171.36 43.3922 171.36C44.1422 171.36 44.6722 171 44.8622 170.27H45.7822ZM43.3422 167.32C42.4922 167.32 41.9822 167.85 41.8522 168.84H44.8222C44.7022 167.86 44.1722 167.32 43.3422 167.32Z" fill="#84888C"/>
    <rect opacity="0.5" x="92.9999" y="16" width="0.0001" height="142" stroke="#484B51" stroke-width="0.5" stroke-dasharray="6 6"/>
    <path d="M80.9626 172V165.2H83.1826C85.2926 165.2 86.6126 166.48 86.6126 168.61C86.6126 170.74 85.2926 172 83.1826 172H80.9626ZM83.1826 171.25C84.7426 171.25 85.6726 170.27 85.6726 168.61C85.6726 166.93 84.7426 165.95 83.1826 165.95H81.8826V171.25H83.1826ZM88.6653 168.42H87.7853C87.9553 167.25 88.7253 166.56 90.0253 166.56C91.4453 166.56 92.1353 167.39 92.1353 168.63V170.72C92.1353 171.33 92.1853 171.71 92.3253 172H91.3953C91.2953 171.79 91.2653 171.48 91.2553 171.16C90.8053 171.83 90.0853 172.12 89.4453 172.12C88.3453 172.12 87.6053 171.61 87.6053 170.6C87.6053 169.87 88.0053 169.34 88.7853 169.08C89.5053 168.84 90.2353 168.78 91.2553 168.77V168.65C91.2553 167.79 90.8553 167.32 89.9453 167.32C89.1853 167.32 88.7753 167.74 88.6653 168.42ZM88.5053 170.58C88.5053 171.07 88.9153 171.36 89.5353 171.36C90.5153 171.36 91.2553 170.59 91.2553 169.68V169.43C88.9953 169.45 88.5053 169.93 88.5053 170.58ZM93.7203 174.32C93.5203 174.32 93.3103 174.27 93.2003 174.24V173.56H93.4703C94.1203 173.56 94.3003 173.43 94.8203 172.24L95.0003 171.83L92.8303 166.69H93.7803L95.2203 170.2L95.4603 170.91L95.7003 170.2L97.1003 166.69H98.0003L95.5203 172.7C94.9903 173.98 94.6403 174.32 93.7203 174.32ZM102.736 172H101.816C102.156 169.87 102.986 167.96 104.216 166.27H100.626V165.57H105.166V166.13C103.816 167.98 103.006 169.95 102.736 172Z" fill="#2BC235"/>
    <rect opacity="0.5" x="282" y="16" width="0.0001" height="142" stroke="#484B51" stroke-width="0.5" stroke-dasharray="6 6"/>
    <path d="M267.082 172V165.2H269.302C271.412 165.2 272.732 166.48 272.732 168.61C272.732 170.74 271.412 172 269.302 172H267.082ZM269.302 171.25C270.862 171.25 271.792 170.27 271.792 168.61C271.792 166.93 270.862 165.95 269.302 165.95H268.002V171.25H269.302ZM274.784 168.42H273.904C274.074 167.25 274.844 166.56 276.144 166.56C277.564 166.56 278.254 167.39 278.254 168.63V170.72C278.254 171.33 278.304 171.71 278.444 172H277.514C277.414 171.79 277.384 171.48 277.374 171.16C276.924 171.83 276.204 172.12 275.564 172.12C274.464 172.12 273.724 171.61 273.724 170.6C273.724 169.87 274.124 169.34 274.904 169.08C275.624 168.84 276.354 168.78 277.374 168.77V168.65C277.374 167.79 276.974 167.32 276.064 167.32C275.304 167.32 274.894 167.74 274.784 168.42ZM274.624 170.58C274.624 171.07 275.034 171.36 275.654 171.36C276.634 171.36 277.374 170.59 277.374 169.68V169.43C275.114 169.45 274.624 169.93 274.624 170.58ZM279.839 174.32C279.639 174.32 279.429 174.27 279.319 174.24V173.56H279.589C280.239 173.56 280.419 173.43 280.939 172.24L281.119 171.83L278.949 166.69H279.899L281.339 170.2L281.579 170.91L281.819 170.2L283.219 166.69H284.119L281.639 172.7C281.109 173.98 280.759 174.32 279.839 174.32ZM286.795 172V171.76C286.795 168.87 290.355 169.11 290.355 167.38C290.355 166.65 289.925 166.21 289.125 166.21C288.245 166.21 287.815 166.66 287.695 167.4H286.785C286.955 166.19 287.765 165.45 289.135 165.45C290.535 165.45 291.255 166.28 291.255 167.37C291.255 169.45 288.075 169.43 287.705 171.3H291.325V172H286.795ZM294.617 172H293.697C294.037 169.87 294.867 167.96 296.097 166.27H292.507V165.57H297.047V166.13C295.697 167.98 294.887 169.95 294.617 172Z" fill="#2BC235"/>
    <rect x="60" y="69" width="66" height="17" rx="2" fill="#2BC287"/>
    <path d="M65.48 75.86C65.48 77.78 69.65 76.29 69.65 79.08C69.65 80.39 68.59 81.12 67.14 81.12C65.68 81.12 64.68 80.45 64.38 79.08H65.34C65.56 79.89 66.17 80.33 67.15 80.33C68.17 80.33 68.71 79.88 68.71 79.2C68.71 77.12 64.54 78.67 64.54 75.92C64.54 74.94 65.36 74.08 66.86 74.08C68.17 74.08 69.22 74.71 69.47 76.16H68.5C68.29 75.26 67.71 74.87 66.84 74.87C65.98 74.87 65.48 75.26 65.48 75.86ZM70.8454 79.47V76.39H70.1054V75.69H70.8454V74.47H71.7254V75.69H72.8954V76.39H71.7254V79.47C71.7254 80.11 71.9154 80.41 72.6954 80.41H72.8754V81.04C72.7754 81.09 72.5554 81.12 72.3054 81.12C71.3154 81.12 70.8454 80.59 70.8454 79.47ZM74.5432 77.42H73.6632C73.8332 76.25 74.6032 75.56 75.9032 75.56C77.3232 75.56 78.0132 76.39 78.0132 77.63V79.72C78.0132 80.33 78.0632 80.71 78.2032 81H77.2732C77.1732 80.79 77.1432 80.48 77.1332 80.16C76.6832 80.83 75.9632 81.12 75.3232 81.12C74.2232 81.12 73.4832 80.61 73.4832 79.6C73.4832 78.87 73.8832 78.34 74.6632 78.08C75.3832 77.84 76.1132 77.78 77.1332 77.77V77.65C77.1332 76.79 76.7332 76.32 75.8232 76.32C75.0632 76.32 74.6532 76.74 74.5432 77.42ZM74.3832 79.58C74.3832 80.07 74.7932 80.36 75.4132 80.36C76.3932 80.36 77.1332 79.59 77.1332 78.68V78.43C74.8732 78.45 74.3832 78.93 74.3832 79.58ZM79.4559 81V75.69H80.3359V76.51C80.6959 75.86 81.2659 75.56 81.9059 75.56C82.1159 75.56 82.3059 75.61 82.4059 75.69V76.48C82.2559 76.43 82.0659 76.41 81.8559 76.41C80.7959 76.41 80.3359 77.07 80.3359 78.03V81H79.4559ZM83.3063 79.47V76.39H82.5663V75.69H83.3063V74.47H84.1863V75.69H85.3563V76.39H84.1863V79.47C84.1863 80.11 84.3763 80.41 85.1563 80.41H85.3363V81.04C85.2363 81.09 85.0163 81.12 84.7663 81.12C83.7763 81.12 83.3063 80.59 83.3063 79.47ZM88.3161 79.47V76.39H87.5761V75.69H88.3161V74.47H89.1961V75.69H90.3661V76.39H89.1961V79.47C89.1961 80.11 89.3861 80.41 90.1661 80.41H90.3461V81.04C90.2461 81.09 90.0261 81.12 89.7761 81.12C88.7861 81.12 88.3161 80.59 88.3161 79.47ZM93.3639 81.12C91.8439 81.12 90.9339 80.08 90.9339 78.35C90.9339 76.55 91.8739 75.56 93.3639 75.56C94.8839 75.56 95.7939 76.62 95.7939 78.35C95.7939 80.14 94.8539 81.12 93.3639 81.12ZM93.3639 80.36C94.3539 80.36 94.8939 79.65 94.8939 78.35C94.8939 77.06 94.3439 76.32 93.3639 76.32C92.3739 76.32 91.8339 77.04 91.8339 78.35C91.8339 79.63 92.3839 80.36 93.3639 80.36ZM99.0085 81V74.2H101.339C102.879 74.2 103.849 75.02 103.849 76.35C103.849 77.72 102.869 78.52 101.349 78.52H99.9285V81H99.0085ZM101.329 74.95H99.9285V77.77H101.299C102.309 77.77 102.899 77.23 102.899 76.36C102.899 75.5 102.299 74.95 101.329 74.95ZM104.944 81V75.69H105.824V76.51C106.184 75.86 106.754 75.56 107.394 75.56C107.604 75.56 107.794 75.61 107.894 75.69V76.48C107.744 76.43 107.554 76.41 107.344 76.41C106.284 76.41 105.824 77.07 105.824 78.03V81H104.944ZM110.737 81.12C109.217 81.12 108.307 80.08 108.307 78.35C108.307 76.55 109.247 75.56 110.737 75.56C112.257 75.56 113.167 76.62 113.167 78.35C113.167 80.14 112.227 81.12 110.737 81.12ZM110.737 80.36C111.727 80.36 112.267 79.65 112.267 78.35C112.267 77.06 111.717 76.32 110.737 76.32C109.747 76.32 109.207 77.04 109.207 78.35C109.207 79.63 109.757 80.36 110.737 80.36ZM113.65 76.39V75.69H114.39V75.33C114.39 74.21 114.85 73.68 115.83 73.68C116.05 73.68 116.23 73.72 116.32 73.76V74.39H116.23C115.46 74.39 115.27 74.69 115.27 75.33V75.69H116.32V76.39H115.27V81H114.39V76.39H113.65ZM117.02 74.98V73.8H117.9V74.98H117.02ZM117.02 81V75.69H117.9V81H117.02ZM119.42 79.47V76.39H118.68V75.69H119.42V74.47H120.3V75.69H121.47V76.39H120.3V79.47C120.3 80.11 120.49 80.41 121.27 80.41H121.45V81.04C121.35 81.09 121.13 81.12 120.88 81.12C119.89 81.12 119.42 80.59 119.42 79.47Z" fill="#070808"/>
    <path d="M92.6464 89.6464L89 86H97L93.3536 89.6464C93.1583 89.8417 92.8417 89.8417 92.6464 89.6464Z" fill="#2BC287"/>
    <circle cx="93" cy="96" r="3.5" fill="#070808" stroke="#2BC287"/>
    <rect x="222.658" y="22" width="104" height="17" rx="2" fill="#2BC287"/>
    <path d="M228.138 28.86C228.138 30.78 232.308 29.29 232.308 32.08C232.308 33.39 231.248 34.12 229.798 34.12C228.338 34.12 227.338 33.45 227.038 32.08H227.998C228.218 32.89 228.828 33.33 229.808 33.33C230.828 33.33 231.368 32.88 231.368 32.2C231.368 30.12 227.198 31.67 227.198 28.92C227.198 27.94 228.018 27.08 229.518 27.08C230.828 27.08 231.878 27.71 232.128 29.16H231.158C230.948 28.26 230.368 27.87 229.498 27.87C228.638 27.87 228.138 28.26 228.138 28.86ZM234.194 30.42H233.314C233.484 29.25 234.254 28.56 235.554 28.56C236.974 28.56 237.664 29.39 237.664 30.63V32.72C237.664 33.33 237.714 33.71 237.854 34H236.924C236.824 33.79 236.794 33.48 236.784 33.16C236.334 33.83 235.614 34.12 234.974 34.12C233.874 34.12 233.134 33.61 233.134 32.6C233.134 31.87 233.534 31.34 234.314 31.08C235.034 30.84 235.764 30.78 236.784 30.77V30.65C236.784 29.79 236.384 29.32 235.474 29.32C234.714 29.32 234.304 29.74 234.194 30.42ZM234.034 32.58C234.034 33.07 234.444 33.36 235.064 33.36C236.044 33.36 236.784 32.59 236.784 31.68V31.43C234.524 31.45 234.034 31.93 234.034 32.58ZM239.226 32.47V29.39H238.486V28.69H239.226V27.47H240.106V28.69H241.276V29.39H240.106V32.47C240.106 33.11 240.296 33.41 241.076 33.41H241.256V34.04C241.156 34.09 240.936 34.12 240.686 34.12C239.696 34.12 239.226 33.59 239.226 32.47ZM242.114 27.98V26.8H242.994V27.98H242.114ZM242.114 34V28.69H242.994V34H242.114ZM245.039 30.05C245.039 31.53 248.489 30.31 248.489 32.5C248.489 33.49 247.609 34.12 246.359 34.12C245.099 34.12 244.219 33.52 244.019 32.27H244.899C245.019 33.01 245.569 33.42 246.389 33.42C247.189 33.42 247.609 33.06 247.609 32.56C247.609 31.11 244.199 32.31 244.199 30.11C244.199 29.3 244.829 28.56 246.129 28.56C247.279 28.56 248.129 29.1 248.299 30.42H247.419C247.289 29.59 246.829 29.28 246.079 29.28C245.419 29.28 245.039 29.61 245.039 30.05ZM248.886 29.39V28.69H249.626V28.33C249.626 27.21 250.086 26.68 251.066 26.68C251.286 26.68 251.466 26.72 251.556 26.76V27.39H251.466C250.696 27.39 250.506 27.69 250.506 28.33V28.69H251.556V29.39H250.506V34H249.626V29.39H248.886ZM253.071 30.42H252.191C252.361 29.25 253.131 28.56 254.431 28.56C255.851 28.56 256.541 29.39 256.541 30.63V32.72C256.541 33.33 256.591 33.71 256.731 34H255.801C255.701 33.79 255.671 33.48 255.661 33.16C255.211 33.83 254.491 34.12 253.851 34.12C252.751 34.12 252.011 33.61 252.011 32.6C252.011 31.87 252.411 31.34 253.191 31.08C253.911 30.84 254.641 30.78 255.661 30.77V30.65C255.661 29.79 255.261 29.32 254.351 29.32C253.591 29.32 253.181 29.74 253.071 30.42ZM252.911 32.58C252.911 33.07 253.321 33.36 253.941 33.36C254.921 33.36 255.661 32.59 255.661 31.68V31.43C253.401 31.45 252.911 31.93 252.911 32.58ZM262.373 30.52H261.493C261.353 29.71 260.813 29.32 260.113 29.32C259.133 29.32 258.613 30.04 258.613 31.35C258.613 32.64 259.163 33.37 260.143 33.37C260.853 33.37 261.363 32.99 261.533 32.23H262.413C262.173 33.55 261.283 34.12 260.123 34.12C258.613 34.12 257.713 33.07 257.713 31.35C257.713 29.55 258.633 28.56 260.113 28.56C261.283 28.56 262.203 29.22 262.373 30.52ZM263.621 32.47V29.39H262.881V28.69H263.621V27.47H264.501V28.69H265.671V29.39H264.501V32.47C264.501 33.11 264.691 33.41 265.471 33.41H265.651V34.04C265.551 34.09 265.331 34.12 265.081 34.12C264.091 34.12 263.621 33.59 263.621 32.47ZM268.669 34.12C267.149 34.12 266.239 33.08 266.239 31.35C266.239 29.55 267.179 28.56 268.669 28.56C270.189 28.56 271.099 29.62 271.099 31.35C271.099 33.14 270.159 34.12 268.669 34.12ZM268.669 33.36C269.659 33.36 270.199 32.65 270.199 31.35C270.199 30.06 269.649 29.32 268.669 29.32C267.679 29.32 267.139 30.04 267.139 31.35C267.139 32.63 267.689 33.36 268.669 33.36ZM272.231 34V28.69H273.111V29.51C273.471 28.86 274.041 28.56 274.681 28.56C274.891 28.56 275.081 28.61 275.181 28.69V29.48C275.031 29.43 274.841 29.41 274.631 29.41C273.571 29.41 273.111 30.07 273.111 31.03V34H272.231ZM276.202 36.32C276.002 36.32 275.792 36.27 275.682 36.24V35.56H275.952C276.602 35.56 276.782 35.43 277.302 34.24L277.482 33.83L275.312 28.69H276.262L277.702 32.2L277.942 32.91L278.182 32.2L279.582 28.69H280.482L278.002 34.7C277.472 35.98 277.122 36.32 276.202 36.32ZM283.317 34V27.2H285.767C287.197 27.2 288.107 27.94 288.107 29.12C288.107 29.9 287.727 30.45 287.087 30.74C287.527 30.94 287.757 31.31 287.927 31.98L288.437 34H287.467L287.037 32.16C286.837 31.31 286.497 31.15 285.677 31.15H284.237V34H283.317ZM285.747 27.95H284.237V30.4H285.727C286.627 30.4 287.157 29.92 287.157 29.17C287.157 28.42 286.627 27.95 285.747 27.95ZM294.048 32.27C293.758 33.51 292.868 34.12 291.658 34.12C290.118 34.12 289.188 33.08 289.188 31.35C289.188 29.55 290.118 28.56 291.608 28.56C293.108 28.56 294.008 29.59 294.008 31.28V31.5H290.088C290.138 32.69 290.698 33.36 291.658 33.36C292.408 33.36 292.938 33 293.128 32.27H294.048ZM291.608 29.32C290.758 29.32 290.248 29.85 290.118 30.84H293.088C292.968 29.86 292.438 29.32 291.608 29.32ZM295.3 32.47V29.39H294.56V28.69H295.3V27.47H296.18V28.69H297.35V29.39H296.18V32.47C296.18 33.11 296.37 33.41 297.15 33.41H297.33V34.04C297.23 34.09 297.01 34.12 296.76 34.12C295.77 34.12 295.3 33.59 295.3 32.47ZM301.568 31.83V28.69H302.448V34H301.568V33.28C301.208 33.84 300.648 34.12 299.958 34.12C298.848 34.12 298.188 33.47 298.188 32.24V28.69H299.068V32.06C299.068 32.86 299.418 33.37 300.198 33.37C301.058 33.37 301.568 32.59 301.568 31.83ZM303.852 34V28.69H304.732V29.51C305.092 28.86 305.662 28.56 306.302 28.56C306.512 28.56 306.702 28.61 306.802 28.69V29.48C306.652 29.43 306.462 29.41 306.252 29.41C305.192 29.41 304.732 30.07 304.732 31.03V34H303.852ZM307.583 34V28.69H308.463V29.41C308.823 28.85 309.403 28.56 310.103 28.56C311.233 28.56 311.903 29.22 311.903 30.45V34H311.023V30.63C311.023 29.83 310.663 29.31 309.863 29.31C308.983 29.31 308.463 30.1 308.463 30.86V34H307.583ZM316.327 31.07C315.357 31.07 314.787 30.41 314.787 29.27C314.787 28.11 315.367 27.45 316.327 27.45C317.297 27.45 317.867 28.13 317.867 29.27C317.867 30.42 317.297 31.07 316.327 31.07ZM315.757 34L320.397 27.57H321.277L316.637 34H315.757ZM316.327 30.43C316.817 30.43 317.087 30.02 317.087 29.27C317.087 28.52 316.817 28.1 316.327 28.1C315.837 28.1 315.577 28.51 315.577 29.27C315.577 30.01 315.847 30.43 316.327 30.43ZM320.697 34.08C319.727 34.08 319.157 33.41 319.157 32.28C319.157 31.12 319.737 30.46 320.697 30.46C321.667 30.46 322.237 31.13 322.237 32.28C322.237 33.43 321.667 34.08 320.697 34.08ZM320.697 33.44C321.187 33.44 321.457 33.03 321.457 32.28C321.457 31.53 321.187 31.11 320.697 31.11C320.207 31.11 319.947 31.52 319.947 32.28C319.947 33.02 320.217 33.44 320.697 33.44Z" fill="#070808"/>
    <path d="M274.305 42.6464L270.658 39H278.658L275.012 42.6464C274.816 42.8417 274.5 42.8417 274.305 42.6464Z" fill="#2BC287"/>
    <circle cx="274.658" cy="49" r="3.5" fill="#070808" stroke="#2BC287"/>
    <defs>
        <linearGradient id="paint0_linear_77_8" x1="53.1559" y1="130.451" x2="53.1559" y2="155.202" gradientUnits="userSpaceOnUse">
            <stop stop-color="#F2495E" stop-opacity="0.06"/>
            <stop offset="1" stop-color="#F2495E" stop-opacity="0.3"/>
        </linearGradient>
        <linearGradient id="paint1_linear_77_8" x1="171.754" y1="38.0148" x2="171.754" y2="96.2306" gradientUnits="userSpaceOnUse">
            <stop stop-color="#26BA7A" stop-opacity="0.3"/>
            <stop offset="1" stop-color="#26BA7A" stop-opacity="0.06"/>
        </linearGradient>
    </defs>
</svg>
