<svg width="81" height="80" viewBox="0 0 81 80" fill="none" xmlns="http://www.w3.org/2000/svg">
<mask id="path-1-inside-1_1752_364669" fill="white">
<path d="M44.8293 18.344C47.5441 18.9152 50.075 19.984 52.3235 21.4504L57.5188 16.2561L63.9944 22.7317L58.7991 27.926C60.2658 30.1747 61.3343 32.706 61.9055 35.4211H69.2502V44.5793H61.9055C61.3344 47.2939 60.2654 49.8242 58.7991 52.0725L63.9944 57.2678L57.5188 63.7434L52.3235 58.5491C50.075 60.0156 47.5441 61.0843 44.8293 61.6555V69.0002H35.6711V61.6555C32.956 61.0843 30.4247 60.0158 28.176 58.5491L22.9817 63.7444L16.5061 57.2688L21.7004 52.0735C20.234 49.8251 19.1662 47.294 18.595 44.5793H11.2502V35.4211H18.595C19.1662 32.7062 20.2338 30.1746 21.7004 27.926L16.5061 22.7317L22.9817 16.2561L28.176 21.4504C30.4247 19.9838 32.9561 18.9152 35.6711 18.344V11.0002H44.8293V18.344Z"/>
</mask>
<path d="M44.8293 18.344C47.5441 18.9152 50.075 19.984 52.3235 21.4504L57.5188 16.2561L63.9944 22.7317L58.7991 27.926C60.2658 30.1747 61.3343 32.706 61.9055 35.4211H69.2502V44.5793H61.9055C61.3344 47.2939 60.2654 49.8242 58.7991 52.0725L63.9944 57.2678L57.5188 63.7434L52.3235 58.5491C50.075 60.0156 47.5441 61.0843 44.8293 61.6555V69.0002H35.6711V61.6555C32.956 61.0843 30.4247 60.0158 28.176 58.5491L22.9817 63.7444L16.5061 57.2688L21.7004 52.0735C20.234 49.8251 19.1662 47.294 18.595 44.5793H11.2502V35.4211H18.595C19.1662 32.7062 20.2338 30.1746 21.7004 27.926L16.5061 22.7317L22.9817 16.2561L28.176 21.4504C30.4247 19.9838 32.9561 18.9152 35.6711 18.344V11.0002H44.8293V18.344Z" fill="#070808"/>
<path d="M44.8293 18.344H43.8293V19.1555L44.6235 19.3226L44.8293 18.344ZM52.3235 21.4504L51.7772 22.288L52.4568 22.7313L53.0305 22.1576L52.3235 21.4504ZM57.5188 16.2561L58.2259 15.549L57.5189 14.842L56.8118 15.5489L57.5188 16.2561ZM63.9944 22.7317L64.7014 23.4389L65.4087 22.7318L64.7015 22.0246L63.9944 22.7317ZM58.7991 27.926L58.092 27.2189L57.5181 27.7926L57.9615 28.4723L58.7991 27.926ZM61.9055 35.4211L60.9269 35.627L61.094 36.4211H61.9055V35.4211ZM69.2502 35.4211H70.2502V34.4211H69.2502V35.4211ZM69.2502 44.5793V45.5793H70.2502V44.5793H69.2502ZM61.9055 44.5793V43.5793H61.094L60.9269 44.3734L61.9055 44.5793ZM58.7991 52.0725L57.9615 51.5262L57.5182 52.2059L58.092 52.7796L58.7991 52.0725ZM63.9944 57.2678L64.7015 57.9749L65.4086 57.2678L64.7015 56.5607L63.9944 57.2678ZM57.5188 63.7434L56.8118 64.4506L57.5189 65.1576L58.2259 64.4505L57.5188 63.7434ZM52.3235 58.5491L53.0305 57.8419L52.4568 57.2682L51.7772 57.7115L52.3235 58.5491ZM44.8293 61.6555L44.6234 60.6769L43.8293 60.844V61.6555H44.8293ZM44.8293 69.0002V70.0002H45.8293V69.0002H44.8293ZM35.6711 69.0002H34.6711V70.0002H35.6711V69.0002ZM35.6711 61.6555H36.6711V60.844L35.877 60.6769L35.6711 61.6555ZM28.176 58.5491L28.7223 57.7115L28.0426 57.2681L27.4689 57.842L28.176 58.5491ZM22.9817 63.7444L22.2746 64.4515L22.9818 65.1587L23.6889 64.4514L22.9817 63.7444ZM16.5061 57.2688L15.7989 56.5618L15.092 57.2689L15.799 57.9759L16.5061 57.2688ZM21.7004 52.0735L22.4076 52.7805L22.9813 52.2068L22.538 51.5272L21.7004 52.0735ZM18.595 44.5793L19.5735 44.3734L19.4065 43.5793H18.595V44.5793ZM11.2502 44.5793H10.2502V45.5793H11.2502V44.5793ZM11.2502 35.4211V34.4211H10.2502V35.4211H11.2502ZM18.595 35.4211V36.4211H19.4065L19.5735 35.627L18.595 35.4211ZM21.7004 27.926L22.538 28.4723L22.9813 27.7927L22.4075 27.2189L21.7004 27.926ZM16.5061 22.7317L15.799 22.0246L15.0919 22.7317L15.799 23.4388L16.5061 22.7317ZM22.9817 16.2561L23.6888 15.549L22.9817 14.8419L22.2746 15.549L22.9817 16.2561ZM28.176 21.4504L27.4689 22.1575L28.0427 22.7313L28.7223 22.288L28.176 21.4504ZM35.6711 18.344L35.877 19.3226L36.6711 19.1555V18.344H35.6711ZM35.6711 11.0002V10.0002H34.6711V11.0002H35.6711ZM44.8293 11.0002H45.8293V10.0002H44.8293V11.0002ZM44.8293 18.344L44.6235 19.3226C47.2143 19.8677 49.6302 20.8878 51.7772 22.288L52.3235 21.4504L52.8698 20.6128C50.5198 19.0802 47.8738 17.9626 45.0352 17.3654L44.8293 18.344ZM52.3235 21.4504L53.0305 22.1576L58.2258 16.9633L57.5188 16.2561L56.8118 15.5489L51.6164 20.7433L52.3235 21.4504ZM57.5188 16.2561L56.8117 16.9632L63.2873 23.4388L63.9944 22.7317L64.7015 22.0246L58.2259 15.549L57.5188 16.2561ZM63.9944 22.7317L63.2873 22.0245L58.092 27.2189L58.7991 27.926L59.5061 28.6332L64.7014 23.4389L63.9944 22.7317ZM58.7991 27.926L57.9615 28.4723C59.3619 30.6194 60.3817 33.0357 60.9269 35.627L61.9055 35.4211L62.8841 35.2153C62.2868 32.3764 61.1697 29.73 59.6367 27.3797L58.7991 27.926ZM61.9055 35.4211V36.4211H69.2502V35.4211V34.4211H61.9055V35.4211ZM69.2502 35.4211H68.2502V44.5793H69.2502H70.2502V35.4211H69.2502ZM69.2502 44.5793V43.5793H61.9055V44.5793V45.5793H69.2502V44.5793ZM61.9055 44.5793L60.9269 44.3734C60.3819 46.964 59.3616 49.3793 57.9615 51.5262L58.7991 52.0725L59.6367 52.6188C61.1691 50.2691 62.2869 47.6237 62.8841 44.7852L61.9055 44.5793ZM58.7991 52.0725L58.092 52.7796L63.2873 57.9749L63.9944 57.2678L64.7015 56.5607L59.5062 51.3654L58.7991 52.0725ZM63.9944 57.2678L63.2873 56.5607L56.8117 63.0363L57.5188 63.7434L58.2259 64.4505L64.7015 57.9749L63.9944 57.2678ZM57.5188 63.7434L58.2258 63.0362L53.0305 57.8419L52.3235 58.5491L51.6164 59.2562L56.8118 64.4506L57.5188 63.7434ZM52.3235 58.5491L51.7772 57.7115C49.6302 59.1118 47.2144 60.1318 44.6234 60.6769L44.8293 61.6555L45.0352 62.6341C47.8739 62.0368 50.5198 60.9194 52.8698 59.3867L52.3235 58.5491ZM44.8293 61.6555H43.8293V69.0002H44.8293H45.8293V61.6555H44.8293ZM44.8293 69.0002V68.0002H35.6711V69.0002V70.0002H44.8293V69.0002ZM35.6711 69.0002H36.6711V61.6555H35.6711H34.6711V69.0002H35.6711ZM35.6711 61.6555L35.877 60.6769C33.2857 60.1317 30.8694 59.1119 28.7223 57.7115L28.176 58.5491L27.6297 59.3867C29.98 60.9197 32.6264 62.0368 35.4653 62.6341L35.6711 61.6555ZM28.176 58.5491L27.4689 57.842L22.2745 63.0373L22.9817 63.7444L23.6889 64.4514L28.8832 59.2561L28.176 58.5491ZM22.9817 63.7444L23.6888 63.0373L17.2132 56.5617L16.5061 57.2688L15.799 57.9759L22.2746 64.4515L22.9817 63.7444ZM16.5061 57.2688L17.2133 57.9758L22.4076 52.7805L21.7004 52.0735L20.9933 51.3664L15.7989 56.5618L16.5061 57.2688ZM21.7004 52.0735L22.538 51.5272C21.138 49.3805 20.1187 46.9645 19.5735 44.3734L18.595 44.5793L17.6164 44.7852C18.2136 47.6235 19.3301 50.2697 20.8628 52.6198L21.7004 52.0735ZM18.595 44.5793V43.5793H11.2502V44.5793V45.5793H18.595V44.5793ZM11.2502 44.5793H12.2502V35.4211H11.2502H10.2502V44.5793H11.2502ZM11.2502 35.4211V36.4211H18.595V35.4211V34.4211H11.2502V35.4211ZM18.595 35.4211L19.5735 35.627C20.1188 33.0356 21.1378 30.6191 22.538 28.4723L21.7004 27.926L20.8629 27.3797C19.3299 29.7301 18.2136 32.3768 17.6164 35.2153L18.595 35.4211ZM21.7004 27.926L22.4075 27.2189L17.2132 22.0246L16.5061 22.7317L15.799 23.4388L20.9933 28.6331L21.7004 27.926ZM16.5061 22.7317L17.2132 23.4388L23.6888 16.9632L22.9817 16.2561L22.2746 15.549L15.799 22.0246L16.5061 22.7317ZM22.9817 16.2561L22.2746 16.9632L27.4689 22.1575L28.176 21.4504L28.8831 20.7433L23.6888 15.549L22.9817 16.2561ZM28.176 21.4504L28.7223 22.288C30.8694 20.8876 33.2857 19.8677 35.877 19.3226L35.6711 18.344L35.4653 17.3654C32.6265 17.9627 29.9799 19.08 27.6297 20.6129L28.176 21.4504ZM35.6711 18.344H36.6711V11.0002H35.6711H34.6711V18.344H35.6711ZM35.6711 11.0002V12.0002H44.8293V11.0002V10.0002H35.6711V11.0002ZM44.8293 11.0002H43.8293V18.344H44.8293H45.8293V11.0002H44.8293Z" fill="white" mask="url(#path-1-inside-1_1752_364669)"/>
<circle cx="40.2498" cy="39.9999" r="12.1818" fill="#070808" stroke="white" stroke-width="2"/>
<circle cx="60.8214" cy="61.1429" r="11.5" fill="#070808" stroke="white"/>
<path d="M61.0331 67.4587L61.0331 65.527" stroke="white" stroke-linecap="round" stroke-linejoin="round"/>
<path d="M61.033 57.3164L61.033 55.7371" stroke="white" stroke-linecap="round" stroke-linejoin="round"/>
<path d="M58.5898 65.4436H62.6589C63.7369 65.4436 64.6109 64.5697 64.6109 63.4917V63.4917C64.6109 62.4136 63.7369 61.5397 62.6589 61.5397H59.6484C58.5703 61.5397 57.6964 60.6658 57.6964 59.5877V59.5877C57.6964 58.5097 58.5703 57.6358 59.6484 57.6358H63.7175" stroke="white" stroke-linecap="round" stroke-linejoin="round"/>
</svg>
