<svg width="48" height="45" viewBox="0 0 48 45" fill="none" xmlns="http://www.w3.org/2000/svg">
<rect x="1.0625" y="0.9375" width="45.875" height="34.625" rx="1.375" fill="white" stroke="#070808"/>
<path d="M11.6785 20.617C11.467 20.7946 11.4395 21.11 11.617 21.3215C11.7946 21.533 12.11 21.5605 12.3215 21.383L12 21L11.6785 20.617ZM37.4954 9.06767C37.5328 8.79407 37.3413 8.54198 37.0677 8.5046L32.6091 7.89554C32.3355 7.85816 32.0834 8.04966 32.046 8.32326C32.0086 8.59686 32.2001 8.84896 32.4737 8.88633L36.4369 9.42773L35.8955 13.3909C35.8582 13.6645 36.0497 13.9166 36.3233 13.954C36.5969 13.9914 36.849 13.7999 36.8863 13.5263L37.4954 9.06767ZM26.2619 16.5333L25.9448 16.9198L26.2619 16.5333ZM27.0631 16.5483L26.7606 16.1502L27.0631 16.5483ZM22.1558 13.1637L21.8386 13.5502L22.1558 13.1637ZM12 21L12.3215 21.383L21.6515 13.5512L21.3301 13.1682L21.0086 12.7853L11.6785 20.617L12 21ZM22.1558 13.1637L21.8386 13.5502L25.9448 16.9198L26.2619 16.5333L26.5791 16.1468L22.473 12.7771L22.1558 13.1637ZM27.0631 16.5483L27.3655 16.9465L37.3024 9.39815L37 9L36.6976 8.60185L26.7606 16.1502L27.0631 16.5483ZM26.2619 16.5333L25.9448 16.9198C26.3551 17.2565 26.9429 17.2676 27.3655 16.9465L27.0631 16.5483L26.7606 16.1502C26.7066 16.1912 26.6315 16.1898 26.5791 16.1468L26.2619 16.5333ZM21.3301 13.1682L21.6515 13.5512C21.7055 13.5059 21.7841 13.5055 21.8386 13.5502L22.1558 13.1637L22.473 12.7771C22.0465 12.4271 21.4312 12.4306 21.0086 12.7853L21.3301 13.1682Z" fill="#070808"/>
<path d="M46.9375 28.125V34.1875C46.9375 34.9469 46.3219 35.5625 45.5625 35.5625H2.4375C1.67811 35.5625 1.0625 34.9469 1.0625 34.1875V28.125H46.9375Z" stroke="#070808"/>
<mask id="path-4-inside-1_805_5195" fill="white">
<path d="M0.5625 27.625H47.4375C47.4375 28.1428 47.0178 28.5625 46.5 28.5625H1.5C0.982232 28.5625 0.5625 28.1428 0.5625 27.625Z"/>
</mask>
<path d="M0.5625 27.625V28.625H47.4375V27.625V26.625H0.5625V27.625ZM46.5 28.5625V27.5625H1.5V28.5625V29.5625H46.5V28.5625ZM1.5 28.5625V27.5625C1.53452 27.5625 1.5625 27.5905 1.5625 27.625H0.5625H-0.4375C-0.4375 28.6951 0.429946 29.5625 1.5 29.5625V28.5625ZM47.4375 27.625H46.4375C46.4375 27.5905 46.4655 27.5625 46.5 27.5625V28.5625V29.5625C47.5701 29.5625 48.4375 28.6951 48.4375 27.625H47.4375Z" fill="#070808" mask="url(#path-4-inside-1_805_5195)"/>
<path d="M29.125 35.625V41.1875H19.8125V35.625H29.125Z" fill="white" stroke="#070808"/>
<path d="M10.875 41.25H37.125C37.8844 41.25 38.5 41.8656 38.5 42.625V44H9.5V42.625C9.5 41.8656 10.1156 41.25 10.875 41.25Z" fill="white" stroke="#070808"/>
</svg>
