<svg width="24" height="24" viewBox="0 0 24 24" fill="none" xmlns="http://www.w3.org/2000/svg">
<circle cx="12" cy="12" r="9" stroke="#303236" stroke-width="1.5" stroke-linecap="round" stroke-linejoin="round"/>
<path d="M3 12.321H7.29231L9 14.5L10.5 8L13.5 16.5L15 10.5L16.5 12.321H21" stroke="#303236" stroke-width="1.5" stroke-linecap="round" stroke-linejoin="round"/>
<path d="M12 2.25C17.3848 2.25 21.75 6.61522 21.75 12C21.75 12.0774 21.745 12.1545 21.7432 12.2314C21.7467 12.261 21.75 12.2908 21.75 12.3213C21.75 12.3633 21.7449 12.4042 21.7383 12.4443C21.506 17.6228 17.2358 21.75 12 21.75C6.76415 21.75 2.49303 17.6229 2.26074 12.4443C2.25411 12.4043 2.25002 12.3632 2.25 12.3213C2.25 12.2909 2.25234 12.2609 2.25586 12.2314C2.25407 12.1545 2.25 12.0774 2.25 12C2.25 6.61522 6.61522 2.25 12 2.25ZM9.73047 14.6689C9.66541 14.9503 9.44494 15.1697 9.16309 15.2324C8.88123 15.2951 8.5884 15.19 8.41016 14.9629L6.92773 13.0713H3.82129C4.3466 17.1214 7.80681 20.25 12 20.25C16.1932 20.25 19.6534 17.1214 20.1787 13.0713H16.5C16.2759 13.0713 16.0634 12.9708 15.9209 12.7979L15.3662 12.124L14.2275 16.6816C14.1473 17.0028 13.8658 17.2334 13.5352 17.249C13.2047 17.2645 12.9032 17.0619 12.793 16.75L10.6504 10.6797L9.73047 14.6689ZM12 3.75C7.58744 3.75 3.98378 7.21419 3.76074 11.5713H7.29199L7.37793 11.5762C7.57596 11.5989 7.75841 11.6997 7.88281 11.8584L8.62207 12.8018L9.76953 7.83105L9.80664 7.71387C9.91515 7.45064 10.1666 7.26738 10.458 7.25098C10.7908 7.23232 11.0959 7.43576 11.207 7.75L13.377 13.8984L14.2725 10.3184L14.3047 10.2178C14.3962 9.99231 14.5934 9.8231 14.835 9.76855C15.1112 9.70624 15.3991 9.80489 15.5791 10.0234L16.8545 11.5713H20.2393C20.0162 7.21419 16.4126 3.75 12 3.75Z" fill="#303236"/>
</svg>
