<svg width="60" height="60" viewBox="0 0 60 60" fill="none" xmlns="http://www.w3.org/2000/svg">
<rect x="7.0625" y="8.9375" width="45.875" height="34.625" rx="1.375" fill="#070808" stroke="white"/>
<path d="M17.6785 28.617C17.467 28.7946 17.4395 29.11 17.617 29.3215C17.7946 29.533 18.11 29.5605 18.3215 29.383L18 29L17.6785 28.617ZM43.4954 17.0677C43.5328 16.7941 43.3413 16.542 43.0677 16.5046L38.6091 15.8955C38.3355 15.8582 38.0834 16.0497 38.046 16.3233C38.0086 16.5969 38.2001 16.849 38.4737 16.8863L42.4369 17.4277L41.8955 21.3909C41.8582 21.6645 42.0497 21.9166 42.3233 21.954C42.5969 21.9914 42.849 21.7999 42.8863 21.5263L43.4954 17.0677ZM32.2619 24.5333L31.9448 24.9198L32.2619 24.5333ZM33.0631 24.5483L32.7606 24.1502L33.0631 24.5483ZM28.1558 21.1637L27.8386 21.5502L28.1558 21.1637ZM18 29L18.3215 29.383L27.6515 21.5512L27.3301 21.1682L27.0086 20.7853L17.6785 28.617L18 29ZM28.1558 21.1637L27.8386 21.5502L31.9448 24.9198L32.2619 24.5333L32.5791 24.1468L28.473 20.7771L28.1558 21.1637ZM33.0631 24.5483L33.3655 24.9465L43.3024 17.3982L43 17L42.6976 16.6018L32.7606 24.1502L33.0631 24.5483ZM32.2619 24.5333L31.9448 24.9198C32.3551 25.2565 32.9429 25.2676 33.3655 24.9465L33.0631 24.5483L32.7606 24.1502C32.7066 24.1912 32.6315 24.1898 32.5791 24.1468L32.2619 24.5333ZM27.3301 21.1682L27.6515 21.5512C27.7055 21.5059 27.7841 21.5055 27.8386 21.5502L28.1558 21.1637L28.473 20.7771C28.0465 20.4271 27.4312 20.4306 27.0086 20.7853L27.3301 21.1682Z" fill="white"/>
<path d="M52.9375 36.125V42.1875C52.9375 42.9469 52.3219 43.5625 51.5625 43.5625H8.4375C7.67811 43.5625 7.0625 42.9469 7.0625 42.1875V36.125H52.9375Z" stroke="white"/>
<mask id="path-4-inside-1_1049_22237" fill="white">
<path d="M6.5625 35.625H53.4375V35.625C53.4375 36.1428 53.0178 36.5625 52.5 36.5625H7.5C6.98223 36.5625 6.5625 36.1428 6.5625 35.625V35.625Z"/>
</mask>
<path d="M6.5625 35.625V36.625H53.4375V35.625V34.625H6.5625V35.625ZM52.5 36.5625V35.5625H7.5V36.5625V37.5625H52.5V36.5625ZM7.5 36.5625V35.5625C7.53452 35.5625 7.5625 35.5905 7.5625 35.625H6.5625H5.5625C5.5625 36.6951 6.42995 37.5625 7.5 37.5625V36.5625ZM53.4375 35.625H52.4375C52.4375 35.5905 52.4655 35.5625 52.5 35.5625V36.5625V37.5625C53.5701 37.5625 54.4375 36.6951 54.4375 35.625H53.4375Z" fill="white" mask="url(#path-4-inside-1_1049_22237)"/>
<path d="M35.125 43.625V49.1875H25.8125V43.625H35.125Z" fill="#070808" stroke="white"/>
<path d="M16.875 49.25H43.125C43.8844 49.25 44.5 49.8656 44.5 50.625V52H15.5V50.625C15.5 49.8656 16.1156 49.25 16.875 49.25Z" fill="#070808" stroke="white"/>
</svg>
