<svg width="61" height="60" viewBox="0 0 61 60" fill="none" xmlns="http://www.w3.org/2000/svg">
    <path fill-rule="evenodd" clip-rule="evenodd" d="M42.6954 9.37152L48.4569 8.99994L45.8979 14.1754L44.574 12.1895L12.7343 33.416L12.1796 32.5839L44.0193 11.3574L42.6954 9.37152Z" fill="#0A75F7"/>
    <rect x="12.957" y="40.5" width="8" height="12" rx="1.5" stroke="#FAFAFA"/>
    <rect x="25.957" y="32.5" width="9" height="20" rx="1.5" stroke="#FAFAFA"/>
    <path d="M41.457 22.5H46.457C47.2855 22.5 47.957 23.1716 47.957 24V26V45.5V51C47.957 51.8284 47.2855 52.5 46.457 52.5H41.457C40.6286 52.5 39.957 51.8284 39.957 51V24C39.957 23.1716 40.6286 22.5 41.457 22.5Z" stroke="#FAFAFA" stroke-linecap="round"/>
</svg>
