<svg width="16" height="16" viewBox="0 0 16 16" fill="none" xmlns="http://www.w3.org/2000/svg">
<g id="Group 1707489656">
<circle id="Ellipse 1427" cx="8" cy="8" r="7.5" fill="url(#paint0_linear_15075_20999)" stroke="white"/>
<path id="802" d="M9.83253 10.6631L9.62037 12H5.03979L5.22476 10.8038L7.66193 8.17335C7.80337 8.01098 7.94663 7.83417 8.0917 7.64293C8.23677 7.44808 8.3637 7.24421 8.4725 7.03132C8.58493 6.81481 8.65565 6.59651 8.68467 6.3764C8.69917 6.25733 8.70643 6.1166 8.70643 5.95423C8.71005 5.78824 8.68104 5.64391 8.61939 5.52122C8.55773 5.39493 8.43624 5.32998 8.2549 5.32637C8.04092 5.31555 7.87409 5.38591 7.75441 5.53746C7.63835 5.68901 7.55494 5.86763 7.50416 6.0733C7.45339 6.27898 7.42075 6.4612 7.40624 6.61996L5.79597 6.63079C5.82136 6.16171 5.94829 5.7269 6.17678 5.32637C6.40526 4.92224 6.70991 4.59929 7.09072 4.35754C7.47515 4.11217 7.9158 3.99309 8.41266 4.00031C8.85875 4.00753 9.23231 4.10676 9.53332 4.298C9.83797 4.48924 10.061 4.75265 10.2025 5.08822C10.3475 5.42019 10.4001 5.80268 10.3602 6.23568C10.3348 6.55682 10.2587 6.85992 10.1317 7.14498C10.0048 7.42643 9.84704 7.69164 9.65845 7.94062C9.47348 8.18959 9.2722 8.43135 9.05459 8.66589C8.83699 8.89683 8.62483 9.12415 8.4181 9.34787L7.37904 10.6577L9.83253 10.6631Z" fill="white"/>
</g>
<defs>
<linearGradient id="paint0_linear_15075_20999" x1="8" y1="0" x2="8" y2="16" gradientUnits="userSpaceOnUse">
<stop stop-color="#9C9EB1"/>
<stop offset="1" stop-color="#C4C6D5"/>
</linearGradient>
</defs>
</svg>
