<svg width="16" height="16" viewBox="0 0 16 16" fill="none" xmlns="http://www.w3.org/2000/svg">
<g id="Group 1707489657">
<circle id="Ellipse 1427" cx="8" cy="8" r="7.5" fill="url(#paint0_linear_15075_21005)" stroke="white"/>
<path id="3" d="M7.34713 7.28216L8.01655 7.2875C8.22362 7.28394 8.38963 7.23058 8.51459 7.12741C8.64312 7.02424 8.73951 6.89084 8.80377 6.7272C8.87161 6.56355 8.91445 6.39102 8.9323 6.20959C8.94658 6.09219 8.94301 5.96412 8.92159 5.82538C8.90374 5.68308 8.85733 5.56213 8.78235 5.46252C8.71095 5.36291 8.59849 5.31133 8.44497 5.30777C8.29502 5.30421 8.17185 5.34512 8.07545 5.4305C7.97906 5.51588 7.9023 5.6226 7.84518 5.75067C7.79162 5.87518 7.75235 5.99614 7.72736 6.11353L6.13683 6.12421C6.16182 5.70798 6.28143 5.33979 6.49564 5.01962C6.71342 4.69589 6.99547 4.44331 7.34178 4.26188C7.68809 4.08045 8.07188 3.99329 8.49317 4.0004C8.92516 4.01108 9.29825 4.10713 9.61243 4.28856C9.93017 4.46999 10.1729 4.72435 10.3407 5.05163C10.5085 5.37536 10.58 5.75423 10.555 6.18824C10.5371 6.48707 10.4639 6.75921 10.3354 7.00468C10.2069 7.24659 10.0373 7.4547 9.82664 7.62901C9.61957 7.79977 9.38393 7.93318 9.11974 8.02923C8.85554 8.12172 8.57707 8.16797 8.28431 8.16797L7.20254 8.16263L7.34713 7.28216ZM7.13828 8.55751L7.27751 7.69838L8.19863 7.70372C8.49852 7.71439 8.76807 7.7642 9.00728 7.85313C9.24648 7.94207 9.44998 8.07014 9.61778 8.23734C9.78915 8.40454 9.91411 8.60731 9.99265 8.84566C10.0748 9.08401 10.1069 9.35794 10.089 9.66744C10.0676 10.0161 9.98373 10.3362 9.83735 10.628C9.69097 10.9161 9.49639 11.1634 9.25362 11.3697C9.01442 11.576 8.73951 11.7343 8.4289 11.8446C8.12187 11.9549 7.79341 12.0065 7.44353 11.9994C7.11507 11.9887 6.8241 11.9246 6.57061 11.8073C6.3207 11.6899 6.11006 11.5298 5.93869 11.327C5.77089 11.1207 5.64414 10.8823 5.55846 10.6119C5.47278 10.338 5.4335 10.0463 5.44064 9.73681H7.02581C7.02938 9.86132 7.04366 9.9965 7.06866 10.1424C7.09365 10.2847 7.1472 10.4074 7.22932 10.5106C7.31143 10.6137 7.43282 10.6671 7.59348 10.6706C7.7827 10.6778 7.94157 10.628 8.0701 10.5212C8.2022 10.4145 8.30573 10.2811 8.38071 10.121C8.45925 9.96093 8.50923 9.79906 8.53065 9.63542C8.54851 9.47178 8.55029 9.30991 8.53601 9.14983C8.52173 8.98974 8.47175 8.85456 8.38606 8.74428C8.30038 8.634 8.15757 8.57352 7.95764 8.56285L7.13828 8.55751Z" fill="white"/>
</g>
<defs>
<linearGradient id="paint0_linear_15075_21005" x1="8" y1="0" x2="8" y2="16" gradientUnits="userSpaceOnUse">
<stop stop-color="#B49773"/>
<stop offset="1" stop-color="#CCAC84"/>
</linearGradient>
</defs>
</svg>
