<svg width="24" height="24" viewBox="0 0 24 24" fill="none" xmlns="http://www.w3.org/2000/svg">
<path d="M16.6318 19.1318C16.5474 19.0474 16.433 19 16.3136 19H11.45C11.2015 19 11 18.7985 11 18.55V15.45C11 15.2015 11.2015 15 11.45 15H17.55C17.7985 15 18 14.7985 18 14.55V11.45C18 11.2015 18.2015 11 18.45 11H21.55C21.7985 11 22 11.2015 22 11.45V18.55C22 18.7985 21.7985 19 21.55 19H19.6864C19.567 19 19.4526 19.0474 19.3682 19.1318L18.3182 20.1818C18.1425 20.3575 17.8575 20.3575 17.6818 20.1818L16.6318 19.1318Z" stroke="#2E384D" stroke-width="1.8" stroke-linecap="round"/>
<path d="M2 3.45C2 3.20147 2.20147 3 2.45 3H17.55C17.7985 3 18 3.20147 18 3.45V14.55C18 14.7985 17.7985 15 17.55 15H8.6864C8.56705 15 8.45259 15.0474 8.3682 15.1318L6.8182 16.6818C6.64246 16.8575 6.35754 16.8575 6.1818 16.6818L4.6318 15.1318C4.54741 15.0474 4.43295 15 4.3136 15H2.45C2.20147 15 2 14.7985 2 14.55V3.45Z" stroke="#2E384D" stroke-width="1.8" stroke-linecap="round"/>
<path d="M6 11H9" stroke="#2E384D" stroke-width="1.8" stroke-linecap="round"/>
<path d="M6 7H12" stroke="#2E384D" stroke-width="1.8" stroke-linecap="round"/>
</svg>
