<svg width="24" height="24" viewBox="0 0 24 24" fill="none" xmlns="http://www.w3.org/2000/svg">
<path d="M12 20H3C2.44771 20 2 19.5523 2 19V5C2 4.44771 2.44771 4 3 4H21C21.5523 4 22 4.44771 22 5C22 5 22 5 22 5C22 5 22 10.4477 22 11" stroke="#2E384D" stroke-width="1.8" stroke-linecap="round"/>
<path d="M6 16H14" stroke="#2E384D" stroke-width="1.8" stroke-linecap="round"/>
<path d="M10 8.45C10 8.20147 9.79853 8 9.55 8H6.45C6.20147 8 6 8.20147 6 8.45V11.55C6 11.7985 6.20147 12 6.45 12H9.55C9.79853 12 10 11.7985 10 11.55V8.45Z" stroke="#2E384D" stroke-width="1.8"/>
<path d="M14 10L18 10" stroke="#2E384D" stroke-width="1.8" stroke-linecap="round"/>
<path d="M15 20.55C15.0001 20.7985 15.2015 21 15.45 21L16.7644 21C16.8837 21 16.9982 20.9526 17.0826 20.8682L22.6818 15.2689C22.8575 15.0932 22.8575 14.8083 22.6818 14.6325L21.3674 13.3182C21.1917 13.1425 20.9068 13.1425 20.731 13.3182L15.1318 18.9175C15.0474 19.0019 15 19.1163 15 19.2357L15 20.55Z" stroke="#2E384D" stroke-width="1.8"/>
</svg>
