<svg width="24" height="24" viewBox="0 0 24 24" fill="none" xmlns="http://www.w3.org/2000/svg">
<path fill-rule="evenodd" clip-rule="evenodd" d="M3.95059 9.09985C3.20501 9.09985 2.60059 9.70427 2.60059 10.4499V21.5499C2.60059 22.2954 3.205 22.8999 3.95059 22.8999H12.0003H20.0506C20.7962 22.8999 21.4006 22.2954 21.4006 21.5499V10.4499C21.4006 9.70427 20.7962 9.09985 20.0506 9.09985H12.0003H3.95059ZM11.1003 10.8999H4.40059V21.0999H11.1003V10.8999ZM12.9003 21.0999V10.8999H19.6006V21.0999H12.9003Z" fill="#2E384D"/>
<path d="M21.55 6H2.45C2.20147 6 2 6.20147 2 6.45V9.55C2 9.79853 2.20147 10 2.45 10H21.55C21.7985 10 22 9.79853 22 9.55V6.45C22 6.20147 21.7985 6 21.55 6Z" stroke="#2E384D" stroke-width="1.8"/>
<path d="M8 2L12 5.5L16 2" stroke="#2E384D" stroke-width="1.8" stroke-linecap="round"/>
</svg>
