<svg width="16" height="16" viewBox="0 0 16 16" fill="none" xmlns="http://www.w3.org/2000/svg">
<g clip-path="url(#clip0_2742_28870)">
<path d="M12.2606 8.48597V8.85928C12.2606 9.44504 12.4957 10.0063 12.9131 10.4173L14.4953 11.9751C14.7173 12.1937 14.5625 12.5716 14.2509 12.5716H1.74891C1.43729 12.5716 1.28249 12.1937 1.50454 11.9751L3.08674 10.4173C3.50414 10.0063 3.73918 9.44504 3.73918 8.85928V5.64549C3.73918 3.29236 5.64677 1.38477 7.9999 1.38477C8.48119 1.38477 8.94384 1.46457 9.37535 1.61166" stroke="#FAFAFA" stroke-width="1.4" stroke-linecap="round"/>
<path d="M9.94551 12.8633V13.1551C9.94551 13.961 9.07446 14.6143 7.99998 14.6143C6.9255 14.6143 6.05444 13.961 6.05444 13.1551V12.8633" stroke="#FAFAFA" stroke-width="1.4" stroke-linecap="round" stroke-linejoin="round"/>
<circle cx="11.891" cy="4.59489" r="1.45915" stroke="#FAFAFA" stroke-width="1.4"/>
</g>
<defs>
<clipPath id="clip0_2742_28870">
<rect width="16" height="16" fill="white"/>
</clipPath>
</defs>
</svg>
