<svg width="7" height="14" viewBox="0 0 7 14" fill="none" xmlns="http://www.w3.org/2000/svg">
<path d="M7 13.9961H0.239258C0.918984 13.4571 1.53123 12.8403 2.0625 12.1582L2.06152 12.1572C2.62487 11.4448 3.48725 10.393 3.93066 9.18359L3.93262 9.18457C4.3974 7.92107 4.35704 6.59037 4.35547 5.68262L4.36426 0.916992C4.36489 0.58706 4.28903 0.277193 4.1582 0H7V13.9961Z" fill="#F5F6F7"/>
<path d="M7 13.9961H0.239258C0.918984 13.4571 1.53123 12.8403 2.0625 12.1582L2.06152 12.1572C2.62487 11.4448 3.48725 10.393 3.93066 9.18359L3.93262 9.18457C4.3974 7.92107 4.35704 6.59037 4.35547 5.68262L4.36426 0.916992C4.36489 0.58706 4.28903 0.277193 4.1582 0H7V13.9961Z" fill="url(#paint0_linear_5322_66746)"/>
<path d="M7 13.9961H0.239258C0.918984 13.4571 1.53123 12.8403 2.0625 12.1582L2.06152 12.1572C2.62487 11.4448 3.48725 10.393 3.93066 9.18359L3.93262 9.18457C4.3974 7.92107 4.35704 6.59037 4.35547 5.68262L4.36426 0.916992C4.36489 0.58706 4.28903 0.277193 4.1582 0H7V13.9961Z" fill="#BFFF5F"/>
<defs>
<linearGradient id="paint0_linear_5322_66746" x1="0.872762" y1="7.00064" x2="4.19121" y2="7.00064" gradientUnits="userSpaceOnUse">
<stop stop-color="#AAFE6A"/>
<stop offset="1" stop-color="#FAFF63"/>
</linearGradient>
</defs>
</svg>
