<svg width="49" height="49" viewBox="0 0 49 49" fill="none" xmlns="http://www.w3.org/2000/svg">
<path d="M24.6348 24.3173L18.8125 5.17627L40.2992 6.37797L46.0633 25.3276L24.6348 24.3173Z" fill="white"/>
<mask id="path-2-inside-1_850_68606" fill="white">
<path fill-rule="evenodd" clip-rule="evenodd" d="M22.4448 28.1201L44.123 29.2636L46.254 25.2695L24.5759 24.126L22.4448 28.1201ZM22.4447 28.1201L24.5757 24.1259L18.7535 4.98486L16.6225 8.97899L22.4447 28.1201Z"/>
</mask>
<path fill-rule="evenodd" clip-rule="evenodd" d="M22.4448 28.1201L44.123 29.2636L46.254 25.2695L24.5759 24.126L22.4448 28.1201ZM22.4447 28.1201L24.5757 24.1259L18.7535 4.98486L16.6225 8.97899L22.4447 28.1201Z" fill="white"/>
<path d="M44.123 29.2636L44.0966 29.7629C44.2905 29.7731 44.4727 29.6702 44.5641 29.499L44.123 29.2636ZM22.4448 28.1201L22.0037 27.8848C21.9232 28.0356 21.9254 28.2171 22.0095 28.3659C22.0935 28.5148 22.2478 28.6104 22.4185 28.6194L22.4448 28.1201ZM46.254 25.2695L46.6951 25.5048C46.7756 25.354 46.7734 25.1725 46.6894 25.0236C46.6053 24.8748 46.451 24.7792 46.2803 24.7702L46.254 25.2695ZM24.5759 24.126L24.6022 23.6267C24.4083 23.6165 24.2261 23.7193 24.1347 23.8906L24.5759 24.126ZM24.5757 24.1259L25.0169 24.3613C25.0793 24.2443 25.0927 24.1073 25.0541 23.9804L24.5757 24.1259ZM22.4447 28.1201L21.9664 28.2656C22.0252 28.459 22.1948 28.598 22.3961 28.6177C22.5974 28.6374 22.7907 28.5338 22.8859 28.3554L22.4447 28.1201ZM18.7535 4.98486L19.2318 4.83935C19.173 4.64587 19.0034 4.50689 18.8021 4.48723C18.6008 4.46756 18.4075 4.57107 18.3123 4.74949L18.7535 4.98486ZM16.6225 8.97899L16.1813 8.74362C16.1189 8.86062 16.1055 8.99762 16.1441 9.12449L16.6225 8.97899ZM44.1493 28.7643L22.4712 27.6208L22.4185 28.6194L44.0966 29.7629L44.1493 28.7643ZM45.8128 25.0341L43.6818 29.0282L44.5641 29.499L46.6951 25.5048L45.8128 25.0341ZM24.5495 24.6253L46.2276 25.7688L46.2803 24.7702L24.6022 23.6267L24.5495 24.6253ZM22.886 28.3555L25.017 24.3613L24.1347 23.8906L22.0037 27.8848L22.886 28.3555ZM24.1346 23.8906L22.0036 27.8847L22.8859 28.3554L25.0169 24.3613L24.1346 23.8906ZM18.2751 5.13036L24.0974 24.2714L25.0541 23.9804L19.2318 4.83935L18.2751 5.13036ZM17.0636 9.21435L19.1946 5.22022L18.3123 4.74949L16.1813 8.74362L17.0636 9.21435ZM22.9231 27.9745L17.1008 8.83348L16.1441 9.12449L21.9664 28.2656L22.9231 27.9745Z" fill="#262933" mask="url(#path-2-inside-1_850_68606)"/>
<mask id="path-4-inside-2_850_68606" fill="white">
<path fill-rule="evenodd" clip-rule="evenodd" d="M40.432 6.12842L18.754 4.98494L16.623 8.97907L38.3011 10.1226L38.3011 10.1225L44.1234 29.2635L46.2544 25.2693L40.4321 6.12827L40.432 6.12842Z"/>
</mask>
<path fill-rule="evenodd" clip-rule="evenodd" d="M40.432 6.12842L18.754 4.98494L16.623 8.97907L38.3011 10.1226L38.3011 10.1225L44.1234 29.2635L46.2544 25.2693L40.4321 6.12827L40.432 6.12842Z" fill="white"/>
<path d="M18.754 4.98494L18.7803 4.48563C18.5865 4.47541 18.4042 4.57831 18.3128 4.74958L18.754 4.98494ZM40.432 6.12842L40.4057 6.62772C40.6003 6.63799 40.7831 6.53424 40.8741 6.36192L40.432 6.12842ZM16.623 8.97907L16.1818 8.74371C16.1014 8.89454 16.1035 9.07604 16.1876 9.2249C16.2716 9.37377 16.4259 9.46938 16.5966 9.47838L16.623 8.97907ZM38.3011 10.1226L38.2748 10.6219C38.4686 10.6321 38.6509 10.5292 38.7422 10.3579L38.3011 10.1226ZM38.3011 10.1225L38.7795 9.97701C38.7206 9.78353 38.551 9.64455 38.3497 9.62488C38.1485 9.60521 37.9552 9.70873 37.86 9.88715L38.3011 10.1225ZM44.1234 29.2635L43.645 29.409C43.7038 29.6025 43.8735 29.7414 44.0747 29.7611C44.276 29.7808 44.4693 29.6773 44.5645 29.4988L44.1234 29.2635ZM46.2544 25.2693L46.6955 25.5047C46.7579 25.3877 46.7713 25.2507 46.7327 25.1238L46.2544 25.2693ZM40.4321 6.12827L40.9105 5.98277C40.8515 5.78892 40.6814 5.64982 40.4797 5.63054C40.278 5.61126 40.0846 5.71561 39.99 5.89477L40.4321 6.12827ZM18.7276 5.48425L40.4057 6.62772L40.4584 5.62911L18.7803 4.48563L18.7276 5.48425ZM17.0641 9.21444L19.1951 5.2203L18.3128 4.74958L16.1818 8.74371L17.0641 9.21444ZM38.3274 9.62325L16.6493 8.47977L16.5966 9.47838L38.2748 10.6219L38.3274 9.62325ZM37.86 9.88715L37.86 9.88719L38.7422 10.3579L38.7423 10.3579L37.86 9.88715ZM44.6017 29.118L38.7795 9.97701L37.8228 10.268L43.645 29.409L44.6017 29.118ZM45.8132 25.034L43.6822 29.0281L44.5645 29.4988L46.6955 25.5047L45.8132 25.034ZM39.9537 6.27378L45.776 25.4148L46.7327 25.1238L40.9105 5.98277L39.9537 6.27378ZM40.8741 6.36192L40.8742 6.36177L39.99 5.89477L39.9899 5.89492L40.8741 6.36192Z" fill="#262933" mask="url(#path-4-inside-2_850_68606)"/>
<path d="M39.88 6.36769L38.3003 10.1226" stroke="#262933" stroke-width="0.5"/>
<path d="M24.5762 24.1262L22.5784 27.8707" stroke="#262933" stroke-width="0.5"/>
<path d="M5.89258 23.0933L26.2476 24.0118L38.8807 20.1692L18.5257 19.2506L5.89258 23.0933Z" fill="#141414"/>
<mask id="path-9-inside-3_850_68606" fill="white">
<path d="M39.4936 40.0581L38.8809 20.1689L26.2477 24.0117L5.89269 23.0931L6.50539 42.9824L26.8604 43.9009L39.4936 40.0581Z"/>
</mask>
<path d="M39.4936 40.0581L38.8809 20.1689L26.2477 24.0117L5.89269 23.0931L6.50539 42.9824L26.8604 43.9009L39.4936 40.0581Z" fill="white"/>
<path d="M38.8809 20.1689L39.3806 20.1535C39.3758 19.9979 39.2988 19.8534 39.1723 19.7626C39.0459 19.6719 38.8843 19.6452 38.7354 19.6905L38.8809 20.1689ZM39.4936 40.0581L39.6391 40.5365C39.8551 40.4708 40.0003 40.2684 39.9933 40.0427L39.4936 40.0581ZM5.89269 23.0931L5.91523 22.5937C5.77618 22.5874 5.6408 22.6394 5.54168 22.7371C5.44255 22.8348 5.38864 22.9694 5.39293 23.1085L5.89269 23.0931ZM26.2477 24.0117L26.2251 24.5112C26.282 24.5138 26.3388 24.5066 26.3932 24.4901L26.2477 24.0117ZM26.8604 43.9009L26.8378 44.4004C26.8947 44.403 26.9515 44.3959 27.0059 44.3793L26.8604 43.9009ZM6.50539 42.9824L6.00563 42.9978C6.01368 43.2591 6.22168 43.4701 6.48285 43.4818L6.50539 42.9824ZM38.3811 20.1843L38.9938 40.0735L39.9933 40.0427L39.3806 20.1535L38.3811 20.1843ZM5.87015 23.5926L26.2251 24.5112L26.2702 23.5122L5.91523 22.5937L5.87015 23.5926ZM26.8829 43.4015L6.52794 42.4829L6.48285 43.4818L26.8378 44.4004L26.8829 43.4015ZM7.00516 42.967L6.39246 23.0777L5.39293 23.1085L6.00563 42.9978L7.00516 42.967ZM39.3481 39.5798L26.7149 43.4226L27.0059 44.3793L39.6391 40.5365L39.3481 39.5798ZM26.3932 24.4901L39.0264 20.6473L38.7354 19.6905L26.1022 23.5334L26.3932 24.4901Z" fill="#262933" mask="url(#path-9-inside-3_850_68606)"/>
<path d="M26.3634 24.3949L26.8014 43.7099" stroke="#262933" stroke-width="0.5"/>
<mask id="mask0_850_68606" style="mask-type:alpha" maskUnits="userSpaceOnUse" x="5" y="8" width="34" height="17">
<path d="M5.89209 23.0925L26.2471 24.0111L38.8802 20.1684L28.9659 8.10654L5.89209 23.0925Z" fill="#262933"/>
</mask>
<g mask="url(#mask0_850_68606)">
<path fill-rule="evenodd" clip-rule="evenodd" d="M21.1071 20.3242C21.7142 23.8202 24.8785 26.1903 28.1747 25.6179C28.1747 25.6179 28.1748 25.6179 28.1748 25.6179L28.1748 25.6179L29.6217 25.3666L29.5891 25.1793C32.0671 24.0424 33.559 21.2181 33.0438 18.2514C32.5286 15.2846 30.1719 13.1287 27.4557 12.8937L27.4232 12.7065L25.9969 12.9541C25.99 12.9553 25.9831 12.9565 25.9762 12.9577C22.6799 13.5301 20.5 16.8282 21.1071 20.3242Z" fill="#262933"/>
<path d="M29.578 25.1202C26.4312 25.6667 23.3853 23.404 22.7994 20.0301C22.2136 16.6563 24.3183 13.4991 27.465 12.9527C30.6118 12.4062 33.6577 14.669 34.2436 18.0428C34.8295 21.4166 32.7247 24.5738 29.578 25.1202Z" fill="#141414" stroke="#FAFAFA" stroke-width="0.5"/>
<path d="M27.1696 22.5704L27.9558 19.6622L27.4663 19.4823C26.9794 19.3152 26.5118 19.0961 26.0713 18.8289C25.8808 18.7136 25.7044 18.5761 25.5458 18.4192C25.302 18.1677 25.3719 17.9406 25.7056 17.8279C25.8259 17.7923 25.9495 17.7692 26.0744 17.7593C26.7944 17.7248 27.5151 17.7918 28.2157 17.9584L28.3948 18.0068L28.6373 17.1098L26.6952 16.5847L27.0758 15.1768L32.3994 16.6377L32.0188 18.0456L30.0766 17.5205L29.8417 18.3893L29.9387 18.4414L30.5533 18.6637C31.0175 18.8315 31.4607 19.0527 31.8742 19.323C32.0391 19.4378 32.1873 19.5752 32.3147 19.7313C32.3498 19.7637 32.3755 19.8053 32.3887 19.8515C32.4019 19.8977 32.4022 19.9467 32.3897 19.9933C32.3771 20.0398 32.3521 20.082 32.3174 20.1153C32.2826 20.1485 32.2396 20.1715 32.1929 20.1818C32.046 20.2424 31.8915 20.282 31.734 20.2995C31.0262 20.3348 30.3174 20.2724 29.6274 20.1141L29.3821 20.0737L28.5969 22.9779L27.1696 22.5704ZM29.5404 19.551L28.1077 19.1637L28.3774 18.1661C28.3566 18.1509 28.3344 18.1377 28.3112 18.1266C27.6623 17.9605 26.9939 17.8829 26.3236 17.8957C26.1984 17.903 26.0746 17.926 25.9549 17.9644C25.7765 18.0241 25.7315 18.1587 25.8679 18.2862C26.0255 18.4495 26.2072 18.5874 26.4065 18.6951C26.8542 18.9179 27.3144 19.1144 27.7849 19.2836C28.3312 19.4744 28.8902 19.6342 29.4557 19.7698C30.1174 19.9448 30.7999 20.0291 31.4848 20.0206C31.5948 20.0161 31.7042 20.0024 31.812 19.9795C31.9115 19.959 32.0269 19.9427 32.0606 19.818C32.0943 19.6933 32.0072 19.605 31.9265 19.54C31.7763 19.4164 31.6164 19.3053 31.4483 19.2079C30.9456 18.9363 30.4174 18.7154 29.8713 18.5484L29.8156 18.5333L29.5404 19.551Z" fill="#FAFAFA"/>
</g>
<path fill-rule="evenodd" clip-rule="evenodd" d="M15.529 6.55245L15.5722 6.31813L17.5129 6.6715L17.5129 6.67168C21.9341 7.47681 24.8658 11.6731 24.0609 16.0444C23.256 20.4158 19.0193 23.3068 14.598 22.5018C14.5799 22.4985 14.5617 22.4951 14.5437 22.4917L12.6574 22.1483L12.7005 21.9143C9.37479 20.4224 7.36679 16.8388 8.04984 13.129C8.7329 9.41932 11.8875 6.7757 15.529 6.55245Z" fill="#141414"/>
<ellipse cx="8.34429" cy="6.91384" rx="8.34429" ry="6.91384" transform="matrix(0.174654 -0.948561 1.01755 0.18528 5.62305 20.8672)" fill="#198CFF"/>
<path d="M14.893 11.3626C14.7466 11.0143 14.5125 10.798 14.1895 10.7147C13.8678 10.6304 13.499 10.6836 13.0844 10.8722C12.7924 11.0049 12.558 11.1684 12.379 11.3609C12.2001 11.5535 12.0808 11.7582 12.0213 11.9752C11.9617 12.1922 11.9633 12.4084 12.026 12.6238C12.08 12.8021 12.1644 12.9396 12.2792 13.0363C12.3929 13.1327 12.5288 13.1979 12.6839 13.229C12.84 13.2613 13.0043 13.272 13.1793 13.2614C13.3542 13.2518 13.5268 13.2308 13.6981 13.2007L14.4831 13.07C14.7973 13.0122 15.1092 12.985 15.4187 12.9894C15.7282 12.9939 16.0196 13.0448 16.2941 13.1413C16.5687 13.2378 16.8106 13.3946 17.021 13.6131C17.2313 13.8316 17.3922 14.1251 17.5057 14.4949C17.6586 14.995 17.6773 15.4879 17.5631 15.9726C17.4477 16.4571 17.2048 16.9057 16.8334 17.3171C16.4619 17.7285 15.9673 18.076 15.3497 18.3585C14.7493 18.6332 14.1965 18.7672 13.692 18.763C13.1875 18.7588 12.7515 18.6157 12.3838 18.3336C12.0149 18.0524 11.7344 17.6326 11.541 17.074L12.9173 16.4455C13.0282 16.7341 13.1868 16.943 13.3929 17.0743C13.5989 17.2057 13.834 17.266 14.0994 17.2556C14.3647 17.2463 14.6429 17.1741 14.9338 17.0411C15.2381 16.9029 15.489 16.7292 15.6883 16.5227C15.8876 16.3162 16.0242 16.0926 16.0995 15.8508C16.1747 15.6091 16.1762 15.3658 16.1039 15.1198C16.0336 14.8986 15.9175 14.7408 15.7576 14.6479C15.5977 14.5551 15.3989 14.5059 15.1609 14.5026C14.923 14.4982 14.6539 14.5211 14.3537 14.5694L13.3985 14.7204C12.7075 14.8299 12.1207 14.7849 11.6405 14.5848C11.1604 14.3848 10.8254 13.9792 10.638 13.3675C10.4841 12.865 10.4731 12.3669 10.6044 11.8765C10.7358 11.3851 10.9833 10.9373 11.347 10.5322C11.7095 10.1269 12.1617 9.80145 12.7026 9.55445C13.2508 9.3044 13.764 9.18953 14.2407 9.21071C14.7186 9.2321 15.1324 9.37443 15.4822 9.63771C15.832 9.90098 16.0841 10.2712 16.2395 10.7485L14.893 11.3626ZM15.331 19.4356L12.0646 8.76147L12.6834 8.47915L15.9499 19.1533L15.331 19.4356Z" fill="white"/>
</svg>
