<svg width="49" height="49" viewBox="0 0 49 49" fill="none" xmlns="http://www.w3.org/2000/svg">
<path d="M29.2319 3.58376V3.58376C29.1664 2.64705 28.3521 1.8877 27.4131 1.8877H5.70081C4.04395 1.8877 2.7945 3.22757 2.91008 4.88039L5.28381 38.8263C5.34741 39.7358 6.13804 40.4731 7.04974 40.4731V40.4731" stroke="#FAFAFA" stroke-width="0.5"/>
<mask id="path-2-inside-1_850_68608" fill="white">
<path fill-rule="evenodd" clip-rule="evenodd" d="M9.1211 4.45557C7.46424 4.45557 6.21479 5.79544 6.33037 7.44826L6.44617 9.10437L8.67499 40.978C8.79057 42.6308 10.2274 43.9707 11.8843 43.9707H35.7095C37.3664 43.9707 38.6158 42.6308 38.5002 40.978L36.3364 10.0342L36.1556 7.44826C36.04 5.79544 34.6032 4.45557 32.9463 4.45557H9.1211Z"/>
</mask>
<path fill-rule="evenodd" clip-rule="evenodd" d="M9.1211 4.45557C7.46424 4.45557 6.21479 5.79544 6.33037 7.44826L6.44617 9.10437L8.67499 40.978C8.79057 42.6308 10.2274 43.9707 11.8843 43.9707H35.7095C37.3664 43.9707 38.6158 42.6308 38.5002 40.978L36.3364 10.0342L36.1556 7.44826C36.04 5.79544 34.6032 4.45557 32.9463 4.45557H9.1211Z" fill="#141414"/>
<path d="M6.33037 7.44826L6.83037 7.44826L6.83037 7.44826H6.33037ZM6.44617 9.10437L5.94617 9.10437L5.94617 9.10437H6.44617ZM8.67499 40.978H8.17499H8.67499ZM38.5002 40.978H38.0002H38.5002ZM36.3364 10.0342H36.8364H36.3364ZM36.1556 7.44826H36.6556H36.1556ZM6.83037 7.44826C6.73405 6.07091 7.77526 4.95435 9.15598 4.95435L9.08622 3.95678C7.15322 3.95678 5.69553 5.51997 5.83037 7.44826H6.83037ZM6.94617 9.10437L6.83037 7.44826L5.83037 7.44826L5.94617 9.10437L6.94617 9.10437ZM9.17499 40.978L6.94617 9.10437H5.94617L8.17499 40.978H9.17499ZM11.8494 43.4719C10.4687 43.4719 9.27131 42.3553 9.17499 40.978H8.17499C8.30983 42.9063 9.98614 44.4695 11.9191 44.4695L11.8494 43.4719ZM35.6746 43.4719H11.8494L11.9191 44.4695H35.7444L35.6746 43.4719ZM38.0002 40.978C38.0965 42.3553 37.0553 43.4719 35.6746 43.4719L35.7444 44.4695C37.6774 44.4695 39.1351 42.9063 39.0002 40.978H38.0002ZM35.8364 10.0342L38.0002 40.978H39.0002L36.8364 10.0342H35.8364ZM35.6556 7.44826L35.8364 10.0342H36.8364L36.6556 7.44826H35.6556ZM32.9812 4.95435C34.3619 4.95435 35.5593 6.07091 35.6556 7.44826H36.6556C36.5208 5.51997 34.8445 3.95678 32.9115 3.95678L32.9812 4.95435ZM9.15598 4.95435H32.9812L32.9115 3.95678H9.08622L9.15598 4.95435Z" fill="#FAFAFA" mask="url(#path-2-inside-1_850_68608)"/>
<path d="M17.0364 7.24467C17.0185 6.98792 17.2126 6.77979 17.4699 6.77979H24.9262C25.1836 6.77979 25.4068 6.98792 25.4248 7.24467C25.4427 7.50142 25.2486 7.70955 24.9913 7.70955H17.5349C17.2776 7.70955 17.0544 7.50142 17.0364 7.24467Z" fill="#141414"/>
<path d="M11.6359 27.4169C11.5027 27.4467 11.4247 27.5799 11.4617 27.7144C11.4987 27.8488 11.6367 27.9336 11.7699 27.9037L11.6359 27.4169ZM11.7699 27.9037C14.1597 27.3678 15.3536 25.5086 16.3105 23.8681C16.7966 23.0347 17.2143 22.2704 17.6974 21.7065C18.174 21.1502 18.6845 20.8253 19.343 20.8253L19.3169 20.3266C18.4629 20.3266 17.8339 20.7593 17.3094 21.3715C16.7915 21.9761 16.3467 22.7911 15.8742 23.601C14.9141 25.247 13.807 26.93 11.6359 27.4169L11.7699 27.9037ZM19.343 20.8253C20.0234 20.8253 20.494 21.0748 20.8954 21.4588C21.3138 21.859 21.6451 22.3906 22.0527 22.9746C22.4508 23.5449 22.91 24.1446 23.5618 24.5979C24.2203 25.0559 25.0573 25.3526 26.1946 25.3526L26.1684 24.8539C25.1266 24.8539 24.3958 24.5848 23.8337 24.1939C23.2649 23.7983 22.8509 23.2661 22.4589 22.7046C22.0766 22.1568 21.7013 21.5565 21.2323 21.1079C20.7464 20.643 20.149 20.3266 19.3169 20.3266L19.343 20.8253ZM26.1946 25.3526C27.3833 25.3526 28.2214 24.7573 28.8678 23.9052C29.5073 23.0622 29.9786 21.9428 30.4341 20.85C30.8956 19.743 31.3416 18.6615 31.9329 17.8339C32.5192 17.0133 33.2269 16.4728 34.2032 16.4025L34.1413 15.9051C32.9722 15.9892 32.1532 16.6445 31.5199 17.5309C30.8916 18.4102 30.4253 19.5468 29.9702 20.6386C29.5092 21.7445 29.0596 22.8046 28.4627 23.5915C27.8727 24.3692 27.1587 24.8539 26.1684 24.8539L26.1946 25.3526Z" fill="#FAFAFA"/>
<path fill-rule="evenodd" clip-rule="evenodd" d="M42.281 10.7894L42.4553 10.6081L43.9601 12.0489L43.9601 12.049C47.3885 15.3314 47.5304 20.736 44.2772 24.1205C41.024 27.5049 35.6075 27.5876 32.1791 24.3051C32.1719 24.2983 32.1648 24.2914 32.1577 24.2846L30.6743 22.8643L30.8485 22.683C28.7855 19.4328 29.1012 15.1058 31.862 12.2336C34.6228 9.36148 38.9415 8.86718 42.281 10.7894Z" fill="#262933"/>
<ellipse cx="8.81289" cy="7.30211" rx="8.81289" ry="7.30211" transform="matrix(0.668396 -0.695355 0.74707 0.715273 25.2188 17.6411)" fill="#198CFF"/>
<path d="M38.9223 14.6596C38.9959 14.2674 38.9154 13.9405 38.6792 13.6791C38.4447 13.4177 38.0887 13.2499 37.6136 13.1749C37.2789 13.1219 36.9773 13.1296 36.7075 13.1952C36.4377 13.2607 36.2134 13.3718 36.0346 13.5284C35.8559 13.685 35.7315 13.8765 35.6614 14.1028C35.6052 14.2914 35.5996 14.4617 35.6445 14.6137C35.6886 14.7648 35.7705 14.9014 35.8891 15.019C36.0078 15.1384 36.1465 15.2434 36.3069 15.3359C36.4666 15.4292 36.631 15.5112 36.7995 15.5843L37.5674 15.9259C37.8779 16.0578 38.1687 16.2153 38.4389 16.3994C38.7091 16.5834 38.9363 16.7978 39.1221 17.0426C39.3079 17.2874 39.4299 17.5665 39.4881 17.8815C39.5464 18.1965 39.5174 18.5487 39.4022 18.9408C39.246 19.4705 38.9757 19.9158 38.5929 20.2765C38.2092 20.6364 37.7341 20.8904 37.1674 21.0369C36.6006 21.1833 35.9624 21.2018 35.2536 21.0914C34.5647 20.9841 33.9994 20.7805 33.5572 20.4833C33.115 20.186 32.814 19.8061 32.6541 19.3435C32.4926 18.881 32.4896 18.3477 32.6442 17.7429L34.223 17.9899C34.1529 18.3088 34.1711 18.5851 34.2763 18.8208C34.3814 19.0565 34.5535 19.2465 34.7935 19.3918C35.0327 19.5379 35.3199 19.6361 35.6537 19.6882C36.0024 19.7435 36.3245 19.7364 36.6203 19.6704C36.9162 19.6044 37.1668 19.4868 37.3738 19.3175C37.5808 19.1482 37.7237 18.9346 37.8031 18.6758C37.8699 18.4399 37.8593 18.2332 37.7725 18.0583C37.6856 17.8835 37.539 17.7244 37.3311 17.583C37.124 17.4407 36.8734 17.3043 36.5808 17.1721L35.651 16.7494C34.9783 16.4438 34.4873 16.0626 34.1805 15.6069C33.8737 15.1511 33.8144 14.5987 34.0053 13.9505C34.1621 13.4181 34.4421 12.9727 34.8433 12.6169C35.2451 12.2602 35.7238 12.0096 36.2801 11.8642C36.8354 11.7179 37.4234 11.6942 38.0439 11.7913C38.6726 11.8899 39.1917 12.0873 39.5996 12.3834C40.0083 12.6803 40.2903 13.0466 40.4453 13.4822C40.6004 13.9178 40.6071 14.3907 40.4664 14.9019L38.9223 14.6596ZM34.6104 22.0299L37.943 10.7211L38.6527 10.8324L35.3201 22.1412L34.6104 22.0299Z" fill="white"/>
<path fill-rule="evenodd" clip-rule="evenodd" d="M8.29312 41.8253L8.3307 41.9911L9.60066 41.7908L9.60066 41.7908C12.4938 41.3345 14.2705 38.4558 13.569 35.361C12.8675 32.2662 9.95343 30.1272 7.06024 30.5835C7.05566 30.5842 7.05109 30.5849 7.04652 30.5857L5.7903 30.7838L5.82788 30.9495C3.68595 31.9162 2.49654 34.3869 3.09186 37.0133C3.68718 39.6396 5.87594 41.5776 8.29312 41.8253Z" fill="#262933"/>
<path d="M8.27392 41.7446C11.0188 41.3118 12.7277 38.5724 12.0538 35.5998C11.38 32.6272 8.59014 30.5972 5.84522 31.0301C3.1003 31.463 1.39148 34.2024 2.06529 37.175C2.73909 40.1476 5.529 42.1775 8.27392 41.7446Z" fill="#FAFAFA" stroke="#FAFAFA" stroke-width="0.5"/>
</svg>
