<svg width="49" height="49" viewBox="0 0 49 49" fill="none" xmlns="http://www.w3.org/2000/svg">
<path d="M24.8926 24.3173L19.0703 5.17627L40.557 6.37797L46.3211 25.3276L24.8926 24.3173Z" fill="white"/>
<mask id="path-2-inside-1_850_68602" fill="white">
<path fill-rule="evenodd" clip-rule="evenodd" d="M22.7027 28.1201L44.3808 29.2636L46.5118 25.2695L24.8337 24.126L22.7027 28.1201ZM22.7025 28.1201L24.8335 24.1259L19.0113 4.98486L16.8803 8.97899L22.7025 28.1201Z"/>
</mask>
<path fill-rule="evenodd" clip-rule="evenodd" d="M22.7027 28.1201L44.3808 29.2636L46.5118 25.2695L24.8337 24.126L22.7027 28.1201ZM22.7025 28.1201L24.8335 24.1259L19.0113 4.98486L16.8803 8.97899L22.7025 28.1201Z" fill="white"/>
<path d="M44.3808 29.2636L44.3545 29.7629C44.5483 29.7731 44.7306 29.6702 44.8219 29.499L44.3808 29.2636ZM22.7027 28.1201L22.2615 27.8848C22.181 28.0356 22.1832 28.2171 22.2673 28.3659C22.3513 28.5148 22.5056 28.6104 22.6763 28.6194L22.7027 28.1201ZM46.5118 25.2695L46.9529 25.5048C47.0334 25.354 47.0312 25.1725 46.9472 25.0236C46.8631 24.8748 46.7089 24.7792 46.5381 24.7702L46.5118 25.2695ZM24.8337 24.126L24.86 23.6267C24.6662 23.6165 24.4839 23.7193 24.3925 23.8906L24.8337 24.126ZM24.8335 24.1259L25.2747 24.3613C25.3371 24.2443 25.3505 24.1073 25.3119 23.9804L24.8335 24.1259ZM22.7025 28.1201L22.2242 28.2656C22.283 28.459 22.4526 28.598 22.6539 28.6177C22.8552 28.6374 23.0485 28.5338 23.1437 28.3554L22.7025 28.1201ZM19.0113 4.98486L19.4896 4.83935C19.4308 4.64587 19.2612 4.50689 19.0599 4.48723C18.8586 4.46756 18.6653 4.57107 18.5701 4.74949L19.0113 4.98486ZM16.8803 8.97899L16.4391 8.74362C16.3767 8.86062 16.3633 8.99762 16.4019 9.12449L16.8803 8.97899ZM44.4071 28.7643L22.729 27.6208L22.6763 28.6194L44.3545 29.7629L44.4071 28.7643ZM46.0707 25.0341L43.9396 29.0282L44.8219 29.499L46.9529 25.5048L46.0707 25.0341ZM24.8073 24.6253L46.4855 25.7688L46.5381 24.7702L24.86 23.6267L24.8073 24.6253ZM23.1438 28.3555L25.2748 24.3613L24.3925 23.8906L22.2615 27.8848L23.1438 28.3555ZM24.3924 23.8906L22.2614 27.8847L23.1437 28.3554L25.2747 24.3613L24.3924 23.8906ZM18.5329 5.13036L24.3552 24.2714L25.3119 23.9804L19.4896 4.83935L18.5329 5.13036ZM17.3214 9.21435L19.4524 5.22022L18.5701 4.74949L16.4391 8.74362L17.3214 9.21435ZM23.1809 27.9745L17.3586 8.83348L16.4019 9.12449L22.2242 28.2656L23.1809 27.9745Z" fill="#262933" mask="url(#path-2-inside-1_850_68602)"/>
<mask id="path-4-inside-2_850_68602" fill="white">
<path fill-rule="evenodd" clip-rule="evenodd" d="M40.6898 6.12842L19.0118 4.98494L16.8808 8.97907L38.5589 10.1226L38.5589 10.1225L44.3812 29.2635L46.5122 25.2693L40.6899 6.12827L40.6898 6.12842Z"/>
</mask>
<path fill-rule="evenodd" clip-rule="evenodd" d="M40.6898 6.12842L19.0118 4.98494L16.8808 8.97907L38.5589 10.1226L38.5589 10.1225L44.3812 29.2635L46.5122 25.2693L40.6899 6.12827L40.6898 6.12842Z" fill="white"/>
<path d="M19.0118 4.98494L19.0381 4.48563C18.8443 4.47541 18.662 4.57831 18.5706 4.74958L19.0118 4.98494ZM40.6898 6.12842L40.6635 6.62772C40.8581 6.63799 41.0409 6.53424 41.132 6.36192L40.6898 6.12842ZM16.8808 8.97907L16.4396 8.74371C16.3592 8.89454 16.3613 9.07604 16.4454 9.2249C16.5294 9.37377 16.6837 9.46938 16.8544 9.47838L16.8808 8.97907ZM38.5589 10.1226L38.5326 10.6219C38.7264 10.6321 38.9087 10.5292 39 10.3579L38.5589 10.1226ZM38.5589 10.1225L39.0373 9.97701C38.9784 9.78353 38.8088 9.64455 38.6076 9.62488C38.4063 9.60521 38.213 9.70873 38.1178 9.88715L38.5589 10.1225ZM44.3812 29.2635L43.9028 29.409C43.9617 29.6025 44.1313 29.7414 44.3325 29.7611C44.5338 29.7808 44.7271 29.6773 44.8223 29.4988L44.3812 29.2635ZM46.5122 25.2693L46.9533 25.5047C47.0157 25.3877 47.0291 25.2507 46.9905 25.1238L46.5122 25.2693ZM40.6899 6.12827L41.1683 5.98277C41.1093 5.78892 40.9392 5.64982 40.7375 5.63054C40.5358 5.61126 40.3424 5.71561 40.2478 5.89477L40.6899 6.12827ZM18.9855 5.48425L40.6635 6.62772L40.7162 5.62911L19.0381 4.48563L18.9855 5.48425ZM17.3219 9.21444L19.4529 5.2203L18.5706 4.74958L16.4396 8.74371L17.3219 9.21444ZM38.5852 9.62325L16.9071 8.47977L16.8544 9.47838L38.5326 10.6219L38.5852 9.62325ZM38.1178 9.88715L38.1178 9.88719L39 10.3579L39.0001 10.3579L38.1178 9.88715ZM44.8595 29.118L39.0373 9.97701L38.0806 10.268L43.9028 29.409L44.8595 29.118ZM46.071 25.034L43.94 29.0281L44.8223 29.4988L46.9533 25.5047L46.071 25.034ZM40.2115 6.27378L46.0338 25.4148L46.9905 25.1238L41.1683 5.98277L40.2115 6.27378ZM41.132 6.36192L41.132 6.36177L40.2478 5.89477L40.2477 5.89492L41.132 6.36192Z" fill="#262933" mask="url(#path-4-inside-2_850_68602)"/>
<path d="M40.1378 6.36769L38.5581 10.1226" stroke="#262933" stroke-width="0.5"/>
<path d="M24.8341 24.1262L22.8362 27.8707" stroke="#262933" stroke-width="0.5"/>
<path d="M6.15039 23.0933L26.5054 24.0118L39.1385 20.1692L18.7835 19.2506L6.15039 23.0933Z" fill="#262933"/>
<mask id="path-9-inside-3_850_68602" fill="white">
<path d="M39.7514 40.0581L39.1387 20.1689L26.5055 24.0117L6.1505 23.0931L6.76321 42.9824L27.1182 43.9009L39.7514 40.0581Z"/>
</mask>
<path d="M39.7514 40.0581L39.1387 20.1689L26.5055 24.0117L6.1505 23.0931L6.76321 42.9824L27.1182 43.9009L39.7514 40.0581Z" fill="white"/>
<path d="M39.1387 20.1689L39.6384 20.1535C39.6337 19.9979 39.5566 19.8534 39.4302 19.7626C39.3037 19.6719 39.1421 19.6452 38.9932 19.6905L39.1387 20.1689ZM39.7514 40.0581L39.8969 40.5365C40.1129 40.4708 40.2581 40.2684 40.2511 40.0427L39.7514 40.0581ZM6.1505 23.0931L6.17305 22.5937C6.03399 22.5874 5.89862 22.6394 5.79949 22.7371C5.70036 22.8348 5.64646 22.9694 5.65074 23.1085L6.1505 23.0931ZM26.5055 24.0117L26.483 24.5112C26.5398 24.5138 26.5966 24.5066 26.651 24.4901L26.5055 24.0117ZM27.1182 43.9009L27.0957 44.4004C27.1525 44.403 27.2093 44.3959 27.2637 44.3793L27.1182 43.9009ZM6.76321 42.9824L6.26344 42.9978C6.27149 43.2591 6.47949 43.4701 6.74067 43.4818L6.76321 42.9824ZM38.6389 20.1843L39.2516 40.0735L40.2511 40.0427L39.6384 20.1535L38.6389 20.1843ZM6.12796 23.5926L26.483 24.5112L26.528 23.5122L6.17305 22.5937L6.12796 23.5926ZM27.1407 43.4015L6.78575 42.4829L6.74067 43.4818L27.0957 44.4004L27.1407 43.4015ZM7.26297 42.967L6.65027 23.0777L5.65074 23.1085L6.26344 42.9978L7.26297 42.967ZM39.6059 39.5798L26.9727 43.4226L27.2637 44.3793L39.8969 40.5365L39.6059 39.5798ZM26.651 24.4901L39.2842 20.6473L38.9932 19.6905L26.36 23.5334L26.651 24.4901Z" fill="#262933" mask="url(#path-9-inside-3_850_68602)"/>
<path d="M26.6212 24.3949L27.0592 43.7099" stroke="#262933" stroke-width="0.5"/>
<mask id="mask0_850_68602" style="mask-type:alpha" maskUnits="userSpaceOnUse" x="6" y="8" width="34" height="17">
<path d="M6.1499 23.0925L26.5049 24.0111L39.138 20.1684L29.2237 8.10654L6.1499 23.0925Z" fill="#262933"/>
</mask>
<g mask="url(#mask0_850_68602)">
<path fill-rule="evenodd" clip-rule="evenodd" d="M21.365 20.3242C21.9721 23.8202 25.1364 26.1902 28.4326 25.6178C28.4326 25.6178 28.4327 25.6178 28.4327 25.6178L28.4327 25.6178L29.8796 25.3666L29.8471 25.1792C32.325 24.0423 33.8169 21.2181 33.3017 18.2513C32.7865 15.2845 30.4298 13.1286 27.7136 12.8937L27.6811 12.7064L26.2549 12.9541C26.2479 12.9552 26.241 12.9564 26.2341 12.9576C22.9379 13.53 20.7579 16.8281 21.365 20.3242Z" fill="#262933"/>
<path d="M29.8358 25.1202C26.689 25.6667 23.6431 23.404 23.0573 20.0301C22.4714 16.6563 24.5761 13.4991 27.7228 12.9527C30.8696 12.4062 33.9155 14.669 34.5014 18.0428C35.0873 21.4166 32.9826 24.5738 29.8358 25.1202Z" fill="white" stroke="#262933" stroke-width="0.5"/>
<path d="M27.4274 22.5704L28.2136 19.6622L27.7241 19.4823C27.2373 19.3152 26.7696 19.0961 26.3292 18.8289C26.1386 18.7136 25.9622 18.5761 25.8036 18.4192C25.5598 18.1677 25.6298 17.9406 25.9634 17.8279C26.0837 17.7923 26.2073 17.7692 26.3322 17.7593C27.0522 17.7248 27.7729 17.7918 28.4735 17.9584L28.6526 18.0068L28.8952 17.1098L26.953 16.5847L27.3336 15.1768L32.6572 16.6377L32.2766 18.0456L30.3344 17.5205L30.0995 18.3893L30.1965 18.4414L30.8112 18.6637C31.2753 18.8315 31.7185 19.0527 32.132 19.323C32.2969 19.4378 32.4451 19.5752 32.5725 19.7313C32.6077 19.7637 32.6333 19.8053 32.6465 19.8515C32.6597 19.8977 32.6601 19.9467 32.6475 19.9933C32.6349 20.0398 32.6099 20.082 32.5752 20.1153C32.5405 20.1485 32.4974 20.1715 32.4507 20.1818C32.3038 20.2424 32.1493 20.282 31.9918 20.2995C31.284 20.3348 30.5752 20.2724 29.8852 20.1141L29.6399 20.0737L28.8547 22.9779L27.4274 22.5704ZM29.7983 19.551L28.3655 19.1637L28.6352 18.1661C28.6144 18.1509 28.5923 18.1377 28.569 18.1266C27.9201 17.9605 27.2517 17.8829 26.5815 17.8957C26.4563 17.903 26.3324 17.926 26.2127 17.9644C26.0343 18.0241 25.9893 18.1587 26.1257 18.2862C26.2833 18.4495 26.465 18.5874 26.6643 18.6951C27.112 18.9179 27.5722 19.1144 28.0427 19.2836C28.589 19.4744 29.148 19.6342 29.7135 19.7698C30.3752 19.9448 31.0577 20.0291 31.7426 20.0206C31.8526 20.0161 31.962 20.0024 32.0698 19.9795C32.1693 19.959 32.2847 19.9427 32.3184 19.818C32.3522 19.6933 32.265 19.605 32.1843 19.54C32.0341 19.4164 31.8742 19.3053 31.7061 19.2079C31.2034 18.9363 30.6752 18.7154 30.1291 18.5484L30.0734 18.5333L29.7983 19.551Z" fill="#262933"/>
</g>
<path fill-rule="evenodd" clip-rule="evenodd" d="M15.7868 6.55245L15.83 6.31813L17.7707 6.6715L17.7707 6.67168C22.1919 7.47681 25.1236 11.6731 24.3187 16.0444C23.5138 20.4158 19.2771 23.3068 14.8558 22.5018C14.8377 22.4985 14.8196 22.4951 14.8015 22.4917L12.9153 22.1483L12.9583 21.9143C9.6326 20.4224 7.6246 16.8388 8.30766 13.129C8.99071 9.41932 12.1453 6.7757 15.7868 6.55245Z" fill="#262933"/>
<ellipse cx="8.34429" cy="6.91384" rx="8.34429" ry="6.91384" transform="matrix(0.174654 -0.948561 1.01755 0.18528 5.88086 20.8672)" fill="#198CFF"/>
<path d="M15.1508 11.3626C15.0044 11.0143 14.7703 10.798 14.4473 10.7147C14.1256 10.6304 13.7568 10.6836 13.3422 10.8722C13.0502 11.0049 12.8158 11.1684 12.6369 11.3609C12.4579 11.5535 12.3386 11.7582 12.2791 11.9752C12.2195 12.1922 12.2211 12.4084 12.2838 12.6238C12.3378 12.8021 12.4222 12.9396 12.537 13.0363C12.6507 13.1327 12.7866 13.1979 12.9417 13.229C13.0978 13.2613 13.2622 13.272 13.4371 13.2614C13.612 13.2518 13.7846 13.2308 13.9559 13.2007L14.7409 13.07C15.0551 13.0122 15.367 12.985 15.6765 12.9894C15.986 12.9939 16.2774 13.0448 16.5519 13.1413C16.8265 13.2378 17.0684 13.3946 17.2788 13.6131C17.4891 13.8316 17.65 14.1251 17.7635 14.4949C17.9164 14.995 17.9351 15.4879 17.8209 15.9726C17.7055 16.4571 17.4626 16.9057 17.0912 17.3171C16.7198 17.7285 16.2252 18.076 15.6075 18.3585C15.0071 18.6332 14.4543 18.7672 13.9498 18.763C13.4453 18.7588 13.0093 18.6157 12.6416 18.3336C12.2727 18.0524 11.9922 17.6326 11.7988 17.074L13.1752 16.4455C13.2861 16.7341 13.4446 16.943 13.6507 17.0743C13.8567 17.2057 14.0919 17.266 14.3572 17.2556C14.6225 17.2463 14.9007 17.1741 15.1916 17.0411C15.496 16.9029 15.7468 16.7292 15.9461 16.5227C16.1454 16.3162 16.282 16.0926 16.3573 15.8508C16.4325 15.6091 16.434 15.3658 16.3618 15.1198C16.2914 14.8986 16.1753 14.7408 16.0154 14.6479C15.8556 14.5551 15.6567 14.5059 15.4187 14.5026C15.1808 14.4982 14.9117 14.5211 14.6115 14.5694L13.6563 14.7204C12.9653 14.8299 12.3785 14.7849 11.8983 14.5848C11.4182 14.3848 11.0832 13.9792 10.8958 13.3675C10.7419 12.865 10.7309 12.3669 10.8622 11.8765C10.9936 11.3851 11.2411 10.9373 11.6048 10.5322C11.9673 10.1269 12.4195 9.80145 12.9604 9.55445C13.5087 9.3044 14.0218 9.18953 14.4985 9.21071C14.9764 9.2321 15.3903 9.37443 15.74 9.63771C16.0898 9.90098 16.3419 10.2712 16.4974 10.7485L15.1508 11.3626ZM15.5889 19.4356L12.3224 8.76147L12.9413 8.47915L16.2077 19.1533L15.5889 19.4356Z" fill="white"/>
</svg>
