<svg width="49" height="49" viewBox="0 0 49 49" fill="none" xmlns="http://www.w3.org/2000/svg">
<path d="M16.688 25.2235L16.4645 25.1146L16.3544 25.3376L9.66451 38.8858L9.47231 39.275L9.90544 39.2459L15.1003 38.8968L17.9992 43.1882L18.24 43.5446L18.4305 43.159L25.1246 29.6108L25.236 29.3854L25.0099 29.2753L16.688 25.2235Z" fill="#141414" stroke="#FAFAFA" stroke-width="0.5"/>
<mask id="mask0_850_68607" style="mask-type:alpha" maskUnits="userSpaceOnUse" x="9" y="25" width="16" height="19">
<path d="M16.5785 25.4482L9.88867 38.9965L15.227 38.6377L18.2064 43.0482L24.9004 29.5001L16.5785 25.4482Z" fill="#FFD21F"/>
</mask>
<g mask="url(#mask0_850_68607)">
<path d="M13.1406 42.6543L21.6406 25.6543" stroke="#141414" stroke-width="0.5"/>
</g>
<path d="M32.0776 25.2235L32.3012 25.1146L32.4112 25.3376L39.1011 38.8858L39.2933 39.275L38.8602 39.2459L33.6653 38.8968L30.7664 43.1882L30.5257 43.5446L30.3351 43.159L23.6411 29.6108L23.5297 29.3854L23.7557 29.2753L32.0776 25.2235Z" fill="#141414" stroke="#FAFAFA" stroke-width="0.5"/>
<mask id="mask1_850_68607" style="mask-type:alpha" maskUnits="userSpaceOnUse" x="23" y="25" width="16" height="19">
<path d="M32.1871 25.4482L38.877 38.9965L33.5387 38.6377L30.5593 43.0482L23.8652 29.5001L32.1871 25.4482Z" fill="#FFD21F"/>
</mask>
<g mask="url(#mask1_850_68607)">
<path d="M34.6406 40.6543L27.6406 26.6543" stroke="#141414" stroke-width="0.5"/>
</g>
<path d="M37.0738 18.7185C37.0738 25.7277 31.3917 31.4097 24.3826 31.4097C17.3734 31.4097 11.6914 25.7277 11.6914 18.7185C11.6914 11.7094 17.3734 6.02734 24.3826 6.02734C31.3917 6.02734 37.0738 11.7094 37.0738 18.7185Z" fill="#FAFAFA" stroke="#FAFAFA" stroke-width="0.5"/>
<path d="M23.8838 13.0091C24.1942 12.3802 25.091 12.3802 25.4014 13.0091L26.6516 15.5425C26.7749 15.7922 27.0131 15.9653 27.2888 16.0053L30.0844 16.4116C30.7785 16.5124 31.0556 17.3653 30.5534 17.8549L28.5304 19.8268C28.331 20.0212 28.24 20.3012 28.2871 20.5757L28.7646 23.3601C28.8832 24.0514 28.1577 24.5785 27.5369 24.2521L25.0364 22.9375C24.7898 22.8079 24.4954 22.8079 24.2489 22.9375L21.7483 24.2521C21.1275 24.5785 20.402 24.0514 20.5206 23.3601L20.9981 20.5757C21.0452 20.3012 20.9542 20.0212 20.7548 19.8268L18.7318 17.8549C18.2296 17.3653 18.5067 16.5124 19.2008 16.4116L21.9965 16.0053C22.2721 15.9653 22.5103 15.7922 22.6336 15.5425L23.8838 13.0091Z" fill="#0A75F7"/>
</svg>
