<svg width="49" height="49" viewBox="0 0 49 49" fill="none" xmlns="http://www.w3.org/2000/svg">
<path d="M29.4897 3.58376V3.58376C29.4242 2.64705 28.6099 1.8877 27.6709 1.8877H5.95862C4.30176 1.8877 3.05231 3.22757 3.16789 4.88039L5.54162 38.8263C5.60522 39.7358 6.39585 40.4731 7.30755 40.4731V40.4731" stroke="#262933" stroke-width="0.5"/>
<mask id="path-2-inside-1_850_68598" fill="white">
<path fill-rule="evenodd" clip-rule="evenodd" d="M9.37891 4.45557C7.72206 4.45557 6.4726 5.79544 6.58818 7.44826L6.70398 9.10437L8.93281 40.978C9.04838 42.6308 10.4852 43.9707 12.1421 43.9707H35.9673C37.6242 43.9707 38.8736 42.6308 38.758 40.978L36.5942 10.0342L36.4134 7.44826C36.2978 5.79544 34.861 4.45557 33.2042 4.45557H9.37891Z"/>
</mask>
<path fill-rule="evenodd" clip-rule="evenodd" d="M9.37891 4.45557C7.72206 4.45557 6.4726 5.79544 6.58818 7.44826L6.70398 9.10437L8.93281 40.978C9.04838 42.6308 10.4852 43.9707 12.1421 43.9707H35.9673C37.6242 43.9707 38.8736 42.6308 38.758 40.978L36.5942 10.0342L36.4134 7.44826C36.2978 5.79544 34.861 4.45557 33.2042 4.45557H9.37891Z" fill="white"/>
<path d="M6.58818 7.44826L7.08818 7.44826L7.08818 7.44826H6.58818ZM6.70398 9.10437L6.20398 9.10437L6.20398 9.10437H6.70398ZM8.93281 40.978H8.43281H8.93281ZM38.758 40.978H38.258H38.758ZM36.5942 10.0342H37.0942H36.5942ZM7.08818 7.44826C6.99187 6.07091 8.03308 4.95435 9.41379 4.95435L9.34403 3.95678C7.41103 3.95678 5.95334 5.51997 6.08818 7.44826H7.08818ZM7.20398 9.10437L7.08818 7.44826L6.08818 7.44826L6.20398 9.10437L7.20398 9.10437ZM9.43281 40.978L7.20398 9.10437H6.20398L8.43281 40.978H9.43281ZM12.1072 43.4719C10.7265 43.4719 9.52912 42.3553 9.43281 40.978H8.43281C8.56764 42.9063 10.244 44.4695 12.177 44.4695L12.1072 43.4719ZM35.9324 43.4719H12.1072L12.177 44.4695H36.0022L35.9324 43.4719ZM38.258 40.978C38.3544 42.3553 37.3132 43.4719 35.9324 43.4719L36.0022 44.4695C37.9352 44.4695 39.3929 42.9063 39.258 40.978H38.258ZM36.0942 10.0342L38.258 40.978H39.258L37.0942 10.0342H36.0942ZM35.9134 7.44826L36.0942 10.0342H37.0942L36.9134 7.44826H35.9134ZM33.239 4.95435C34.6197 4.95435 35.8171 6.07091 35.9134 7.44826H36.9134C36.7786 5.51997 35.1023 3.95678 33.1693 3.95678L33.239 4.95435ZM9.41379 4.95435H33.239L33.1693 3.95678H9.34403L9.41379 4.95435Z" fill="#262933" mask="url(#path-2-inside-1_850_68598)"/>
<path d="M17.2942 7.24467C17.2763 6.98792 17.4704 6.77979 17.7277 6.77979H25.184C25.4414 6.77979 25.6646 6.98792 25.6826 7.24467C25.7005 7.50142 25.5064 7.70955 25.2491 7.70955H17.7928C17.5354 7.70955 17.3122 7.50142 17.2942 7.24467Z" fill="#262933"/>
<path d="M11.8937 27.4169C11.7605 27.4467 11.6825 27.5799 11.7195 27.7144C11.7565 27.8488 11.8945 27.9336 12.0277 27.9037L11.8937 27.4169ZM12.0277 27.9037C14.4175 27.3678 15.6114 25.5086 16.5683 23.8681C17.0544 23.0347 17.4721 22.2704 17.9552 21.7065C18.4318 21.1502 18.9423 20.8253 19.6009 20.8253L19.5747 20.3266C18.7207 20.3266 18.0917 20.7593 17.5672 21.3715C17.0493 21.9761 16.6045 22.7911 16.132 23.601C15.1719 25.247 14.0648 26.93 11.8937 27.4169L12.0277 27.9037ZM19.6009 20.8253C20.2813 20.8253 20.7518 21.0748 21.1532 21.4588C21.5716 21.859 21.9029 22.3906 22.3105 22.9746C22.7086 23.5449 23.1678 24.1446 23.8196 24.5979C24.4781 25.0559 25.3151 25.3526 26.4524 25.3526L26.4262 24.8539C25.3844 24.8539 24.6536 24.5848 24.0915 24.1939C23.5227 23.7983 23.1087 23.2661 22.7168 22.7046C22.3344 22.1568 21.9591 21.5565 21.4901 21.1079C21.0042 20.643 20.4068 20.3266 19.5747 20.3266L19.6009 20.8253ZM26.4524 25.3526C27.6411 25.3526 28.4792 24.7573 29.1257 23.9052C29.7651 23.0622 30.2364 21.9428 30.6919 20.85C31.1534 19.743 31.5994 18.6615 32.1907 17.8339C32.777 17.0133 33.4847 16.4728 34.461 16.4025L34.3991 15.9051C33.23 15.9892 32.411 16.6445 31.7777 17.5309C31.1494 18.4102 30.6831 19.5468 30.228 20.6386C29.767 21.7445 29.3174 22.8046 28.7205 23.5915C28.1305 24.3692 27.4165 24.8539 26.4262 24.8539L26.4524 25.3526Z" fill="#262933"/>
<path fill-rule="evenodd" clip-rule="evenodd" d="M42.5387 10.7895L42.713 10.6081L44.2179 12.0489L44.2178 12.049C47.6462 15.3314 47.7882 20.736 44.5349 24.1205C41.2817 27.5049 35.8652 27.5876 32.4368 24.3051C32.4297 24.2983 32.4225 24.2914 32.4154 24.2846L30.932 22.8643L31.1062 22.683C29.0433 19.4328 29.3589 15.1058 32.1197 12.2336C34.8805 9.3615 39.1992 8.8672 42.5387 10.7895Z" fill="#262933"/>
<ellipse cx="8.81289" cy="7.30211" rx="8.81289" ry="7.30211" transform="matrix(0.668396 -0.695355 0.74707 0.715273 25.4766 17.6411)" fill="#198CFF"/>
<path d="M39.1801 14.6596C39.2537 14.2674 39.1732 13.9405 38.937 13.6791C38.7025 13.4177 38.3465 13.2499 37.8714 13.1749C37.5368 13.1219 37.2351 13.1296 36.9653 13.1952C36.6955 13.2607 36.4712 13.3718 36.2925 13.5284C36.1137 13.685 35.9893 13.8765 35.9192 14.1028C35.863 14.2914 35.8574 14.4617 35.9024 14.6137C35.9464 14.7648 36.0283 14.9014 36.1469 15.019C36.2656 15.1384 36.4043 15.2434 36.5647 15.3359C36.7244 15.4292 36.8888 15.5112 37.0573 15.5843L37.8252 15.9259C38.1357 16.0578 38.4265 16.2153 38.6967 16.3994C38.9669 16.5834 39.1941 16.7978 39.3799 17.0426C39.5657 17.2874 39.6877 17.5665 39.7459 17.8815C39.8042 18.1965 39.7752 18.5487 39.66 18.9408C39.5038 19.4705 39.2335 19.9158 38.8507 20.2765C38.4671 20.6364 37.9919 20.8904 37.4252 21.0369C36.8584 21.1833 36.2202 21.2018 35.5114 21.0914C34.8225 20.9841 34.2572 20.7805 33.815 20.4833C33.3728 20.186 33.0718 19.8061 32.9119 19.3435C32.7504 18.881 32.7474 18.3477 32.9021 17.7429L34.4808 17.9899C34.4107 18.3088 34.4289 18.5851 34.5341 18.8208C34.6392 19.0565 34.8113 19.2465 35.0513 19.3918C35.2905 19.5379 35.5777 19.6361 35.9115 19.6882C36.2602 19.7435 36.5823 19.7364 36.8781 19.6704C37.174 19.6044 37.4246 19.4868 37.6316 19.3175C37.8386 19.1482 37.9815 18.9346 38.0609 18.6758C38.1277 18.4399 38.1171 18.2332 38.0303 18.0583C37.9434 17.8835 37.7968 17.7244 37.589 17.583C37.3819 17.4407 37.1313 17.3043 36.8386 17.1721L35.9088 16.7494C35.2361 16.4438 34.7451 16.0626 34.4383 15.6069C34.1315 15.1511 34.0723 14.5987 34.2631 13.9505C34.4199 13.4181 34.7 12.9727 35.1011 12.6169C35.5029 12.2602 35.9816 12.0096 36.5379 11.8642C37.0933 11.7179 37.6812 11.6942 38.3017 11.7913C38.9304 11.8899 39.4495 12.0873 39.8574 12.3834C40.2662 12.6803 40.5481 13.0466 40.7031 13.4822C40.8582 13.9178 40.865 14.3907 40.7242 14.9019L39.1801 14.6596ZM34.8682 22.0299L38.2009 10.7211L38.9106 10.8324L35.5779 22.1412L34.8682 22.0299Z" fill="white"/>
<path fill-rule="evenodd" clip-rule="evenodd" d="M8.55097 41.8252L8.58855 41.991L9.85851 41.7907L9.85851 41.7907C12.7517 41.3344 14.5284 38.4557 13.8269 35.3609C13.1254 32.2661 10.2113 30.1271 7.31809 30.5834C7.31351 30.5841 7.30894 30.5848 7.30436 30.5855L6.04815 30.7837L6.08573 30.9494C3.9438 31.9161 2.75439 34.3868 3.34971 37.0132C3.94503 39.6395 6.13379 41.5775 8.55097 41.8252Z" fill="#262933"/>
<path d="M8.53173 41.7446C11.2766 41.3118 12.9855 38.5724 12.3117 35.5998C11.6379 32.6272 8.84795 30.5972 6.10303 31.0301C3.35811 31.463 1.64929 34.2024 2.3231 37.175C2.99691 40.1476 5.78681 42.1775 8.53173 41.7446Z" fill="white" stroke="#262933" stroke-width="0.5"/>
</svg>
