<svg width="48" height="48" viewBox="0 0 48 48" fill="none" xmlns="http://www.w3.org/2000/svg">
<mask id="mask0_1276_41764" style="mask-type:alpha" maskUnits="userSpaceOnUse" x="8" y="11" width="19" height="14">
<path d="M8 24.4999H26L26.5 19.4999L9 10.9999L8 24.4999Z" fill="#D9D9D9"/>
</mask>
<g mask="url(#mask0_1276_41764)">
<circle cx="6.75032" cy="6.75032" r="6.00032" transform="matrix(1 0 0 -1 9.77539 27.3826)" stroke="#262933" stroke-width="1.5"/>
</g>
<path d="M7.27002 39.7833V25.7824C7.27002 25.0921 7.82966 24.5324 8.52002 24.5324H36.1737C36.1881 24.5324 36.2024 24.534 36.2164 24.5371C36.307 24.5571 36.3715 24.6374 36.3715 24.7302V27.219V39.7833C36.3715 40.4736 35.8118 41.0333 35.1215 41.0333H8.52002C7.82966 41.0333 7.27002 40.4736 7.27002 39.7833Z" stroke="#262933" stroke-width="1.5" stroke-linecap="round"/>
<path d="M25.9524 9.0402C26.2602 9.79265 26.1407 10.8958 25.8604 11.941C25.7489 12.3568 25.6202 12.7339 25.5079 13.0326C25.2184 12.8983 24.8623 12.7195 24.4913 12.5011C23.5588 11.952 22.7004 11.249 22.3926 10.4965C22.0362 9.62551 22.0466 8.96508 22.2136 8.50407C22.3785 8.04923 22.7279 7.69705 23.2395 7.48776C23.7511 7.27847 24.2472 7.28475 24.6835 7.49365C25.1258 7.70539 25.5961 8.1692 25.9524 9.0402Z" stroke="#262933" stroke-width="1.5"/>
<path d="M31.9427 14.3001C31.0008 14.6518 29.6522 14.4339 28.403 14.0303C27.8135 13.8399 27.29 13.6229 26.9096 13.451C27.0843 13.0718 27.3374 12.5648 27.6578 12.0347C28.3367 10.9111 29.2125 9.86258 30.1543 9.51089C31.2183 9.11359 32.0389 9.15499 32.6274 9.4029C33.214 9.64999 33.6647 10.1415 33.9227 10.8322C34.1806 11.523 34.1623 12.1896 33.8813 12.7607C33.5993 13.3336 33.0066 13.9028 31.9427 14.3001Z" stroke="#262933" stroke-width="1.5"/>
<rect x="39.5079" y="25.2586" width="34.5017" height="4.57524" rx="1.25" transform="rotate(-155.476 39.5079 25.2586)" stroke="#262933" stroke-width="1.5"/>
</svg>
