<svg width="88" height="72" viewBox="0 0 88 72" fill="none" xmlns="http://www.w3.org/2000/svg">
<path d="M76.2715 71.1538V7.71548C76.2715 4.09157 73.3337 1.15381 69.7098 1.15381H18.8332C15.2092 1.15381 12.2715 4.09157 12.2715 7.71548V11.5059M12.2715 71.1538V59.164V48.4778" stroke="#262933" stroke-linecap="round"/>
<rect x="31.6602" y="6.77881" width="23.9032" height="2.81215" rx="1.40607" fill="#262933" stroke="#262933" stroke-linecap="round"/>
<path d="M76.7715 24.6538H76.8654C77.3658 24.6538 77.7715 25.0595 77.7715 25.5599V32.7477C77.7715 33.2481 77.3658 33.6538 76.8654 33.6538H76.7715V24.6538Z" fill="#262933" stroke="#262933"/>
<path fill-rule="evenodd" clip-rule="evenodd" d="M30.0941 34.959C30.5423 33.5222 30.7839 31.9943 30.7839 30.4099C30.7839 21.9842 23.9534 15.1538 15.5277 15.1538C7.10191 15.1538 0.271484 21.9842 0.271484 30.4099C0.271484 38.8356 7.10191 45.6659 15.5277 45.6659C20.549 45.6659 25.0038 43.2401 27.7839 39.4964C27.8518 39.5209 27.9239 39.5387 27.9996 39.5485L31.9994 40.0666C32.8809 40.1807 33.4621 39.1741 32.9224 38.4677L30.4739 35.2629C30.3686 35.1251 30.2374 35.024 30.0941 34.959Z" fill="#198CFF"/>
<path d="M9.27148 31.1238L13.7185 35.9537L21.8713 27.9038" stroke="white" stroke-width="2.21348" stroke-linecap="round" stroke-linejoin="round"/>
<path d="M85.2715 41.1538H43.2715C42.1669 41.1538 41.2715 42.0492 41.2715 43.1538V45.048V60.3365V69.1538C41.2715 70.2584 42.1669 71.1538 43.2715 71.1538H85.2715C86.3761 71.1538 87.2715 70.2584 87.2715 69.1538V43.1538C87.2715 42.0492 86.3761 41.1538 85.2715 41.1538Z" fill="#262933" stroke="#262933" stroke-linecap="round"/>
<path d="M84.2715 39.1538H42.2715C41.1669 39.1538 40.2715 40.0492 40.2715 41.1538V43.1778V58.9759V68.1538C40.2715 69.2584 41.1669 70.1538 42.2715 70.1538H84.2715C85.3761 70.1538 86.2715 69.2584 86.2715 68.1538V41.1538C86.2715 40.0492 85.3761 39.1538 84.2715 39.1538Z" fill="white" stroke="#262933" stroke-linecap="round"/>
<path d="M64.2715 56.1538H73.2715" stroke="#DCDCDC" stroke-linecap="round"/>
<path d="M64.2715 61.1538H81.2715" stroke="#DCDCDC" stroke-linecap="round"/>
<path d="M59.2715 46.1538H45.2715C44.7192 46.1538 44.2715 46.6015 44.2715 47.1538V48.2307V56.3846V61.1538C44.2715 61.7061 44.7192 62.1538 45.2715 62.1538H59.2715C59.8238 62.1538 60.2715 61.7061 60.2715 61.1538V47.1538C60.2715 46.6015 59.8238 46.1538 59.2715 46.1538Z" fill="#3FD494"/>
<path fill-rule="evenodd" clip-rule="evenodd" d="M52.2715 54.6538C53.6522 54.6538 54.7715 53.5345 54.7715 52.1538C54.7715 50.7731 53.6522 49.6538 52.2715 49.6538C50.8908 49.6538 49.7715 50.7731 49.7715 52.1538C49.7715 53.5345 50.8908 54.6538 52.2715 54.6538ZM52.2715 54.6538H52.0582H49.733C48.3736 54.6538 47.2715 55.598 47.2715 56.7628V58.7163C47.2715 59.2341 47.6912 59.6538 48.209 59.6538H56.334C56.8518 59.6538 57.2715 59.2341 57.2715 58.7163V56.7628C57.2715 55.598 56.1694 54.6538 54.8099 54.6538H52.4848H52.2715Z" fill="white"/>
</svg>
