<svg width="49" height="49" viewBox="0 0 49 49" fill="none" xmlns="http://www.w3.org/2000/svg">
<path d="M16.9458 25.2235L16.7223 25.1146L16.6122 25.3376L9.92232 38.8858L9.73013 39.275L10.1632 39.2459L15.3581 38.8968L18.257 43.1882L18.4978 43.5446L18.6883 43.159L25.3824 29.6108L25.4938 29.3854L25.2677 29.2753L16.9458 25.2235Z" fill="white" stroke="#262933" stroke-width="0.5"/>
<mask id="mask0_850_68601" style="mask-type:alpha" maskUnits="userSpaceOnUse" x="10" y="25" width="16" height="19">
<path d="M16.8364 25.4482L10.1465 38.9965L15.4848 38.6377L18.4642 43.0482L25.1582 29.5001L16.8364 25.4482Z" fill="#FFD21F"/>
</mask>
<g mask="url(#mask0_850_68601)">
<path d="M13.3984 42.6543L21.8984 25.6543" stroke="#262933" stroke-width="0.5"/>
</g>
<path d="M32.3355 25.2235L32.559 25.1146L32.6691 25.3376L39.3589 38.8858L39.5511 39.275L39.118 39.2459L33.9232 38.8968L31.0242 43.1882L30.7835 43.5446L30.5929 43.159L23.8989 29.6108L23.7875 29.3854L24.0136 29.2753L32.3355 25.2235Z" fill="white" stroke="#262933" stroke-width="0.5"/>
<mask id="mask1_850_68601" style="mask-type:alpha" maskUnits="userSpaceOnUse" x="24" y="25" width="16" height="19">
<path d="M32.4449 25.4482L39.1348 38.9965L33.7965 38.6377L30.8171 43.0482L24.123 29.5001L32.4449 25.4482Z" fill="#FFD21F"/>
</mask>
<g mask="url(#mask1_850_68601)">
<path d="M34.8984 40.6543L27.8984 26.6543" stroke="#262933" stroke-width="0.5"/>
</g>
<path d="M37.3316 18.7185C37.3316 25.7277 31.6495 31.4097 24.6404 31.4097C17.6312 31.4097 11.9492 25.7277 11.9492 18.7185C11.9492 11.7094 17.6312 6.02734 24.6404 6.02734C31.6495 6.02734 37.3316 11.7094 37.3316 18.7185Z" fill="white" stroke="#262933" stroke-width="0.5"/>
<path d="M24.1416 13.0091C24.452 12.3802 25.3488 12.3802 25.6592 13.0091L26.9095 15.5425C27.0327 15.7922 27.271 15.9653 27.5466 16.0053L30.3423 16.4116C31.0363 16.5124 31.3134 17.3653 30.8112 17.8549L28.7882 19.8268C28.5888 20.0212 28.4978 20.3012 28.5449 20.5757L29.0224 23.3601C29.141 24.0514 28.4155 24.5785 27.7947 24.2521L25.2942 22.9375C25.0477 22.8079 24.7532 22.8079 24.5067 22.9375L22.0061 24.2521C21.3854 24.5785 20.6598 24.0514 20.7784 23.3601L21.256 20.5757C21.303 20.3012 21.212 20.0212 21.0126 19.8268L18.9896 17.8549C18.4874 17.3653 18.7645 16.5124 19.4586 16.4116L22.2543 16.0053C22.5299 15.9653 22.7681 15.7922 22.8914 15.5425L24.1416 13.0091Z" fill="#198CFF"/>
</svg>
