<svg width="20" height="20" viewBox="0 0 20 20" fill="none" xmlns="http://www.w3.org/2000/svg">
<circle cx="10" cy="10" r="9.5" fill="url(#paint0_linear_13075_9023)" stroke="white"/>
<path d="M9.18419 9.1027L10.021 9.10937C10.2798 9.10492 10.4873 9.03822 10.6435 8.90926C10.8042 8.78031 10.9247 8.61355 11.005 8.409C11.0898 8.20444 11.1433 7.98877 11.1657 7.76198C11.1835 7.61524 11.179 7.45515 11.1523 7.28172C11.13 7.10385 11.0719 6.95266 10.9782 6.82815C10.889 6.70364 10.7484 6.63916 10.5565 6.63471C10.3691 6.63027 10.2151 6.6814 10.0946 6.78813C9.9741 6.89485 9.87815 7.02826 9.80674 7.18834C9.7398 7.34398 9.69071 7.49517 9.65947 7.64192L7.67132 7.65526C7.70256 7.13498 7.85206 6.67473 8.11982 6.27452C8.39205 5.86986 8.74461 5.55413 9.1775 5.32735C9.61038 5.10056 10.0901 4.99161 10.6167 5.0005C11.1567 5.01384 11.6231 5.13391 12.0158 5.3607C12.413 5.58748 12.7165 5.90543 12.9262 6.31454C13.136 6.7192 13.2252 7.19279 13.194 7.7353C13.1717 8.10883 13.0802 8.44902 12.9195 8.75585C12.7589 9.05823 12.5469 9.31837 12.2836 9.53627C12.0247 9.74971 11.7302 9.91647 11.3999 10.0365C11.0697 10.1522 10.7216 10.21 10.3557 10.21L9.00345 10.2033L9.18419 9.1027ZM8.92312 10.6969L9.09717 9.62298L10.2486 9.62965C10.6234 9.64299 10.9604 9.70525 11.2594 9.81642C11.5584 9.92759 11.8128 10.0877 12.0225 10.2967C12.2367 10.5057 12.3929 10.7591 12.4911 11.0571C12.5937 11.355 12.6339 11.6974 12.6116 12.0843C12.5848 12.5201 12.4799 12.9203 12.297 13.2849C12.114 13.6451 11.8708 13.9542 11.5673 14.2121C11.2683 14.47 10.9247 14.6679 10.5364 14.8058C10.1526 14.9436 9.74203 15.0081 9.30468 14.9992C8.89411 14.9859 8.5304 14.9058 8.21354 14.7591C7.90115 14.6123 7.63785 14.4122 7.42363 14.1587C7.21388 13.9008 7.05546 13.6029 6.94835 13.2649C6.84124 12.9225 6.79215 12.5579 6.80108 12.171H8.78254C8.787 12.3266 8.80486 12.4956 8.83609 12.6779C8.86733 12.8558 8.93428 13.0092 9.03692 13.1382C9.13956 13.2672 9.2913 13.3339 9.49212 13.3383C9.72865 13.3472 9.92724 13.2849 10.0879 13.1515C10.253 13.0181 10.3824 12.8514 10.4762 12.6513C10.5743 12.4512 10.6368 12.2488 10.6636 12.0443C10.6859 11.8397 10.6881 11.6374 10.6703 11.4373C10.6524 11.2372 10.59 11.0682 10.4829 10.9303C10.3757 10.7925 10.1972 10.7169 9.94732 10.7036L8.92312 10.6969Z" fill="white"/>
<defs>
<linearGradient id="paint0_linear_13075_9023" x1="10" y1="0" x2="10" y2="20" gradientUnits="userSpaceOnUse">
<stop stop-color="#B49773"/>
<stop offset="1" stop-color="#CCAC84"/>
</linearGradient>
</defs>
</svg>
