<svg width="49" height="49" viewBox="0 0 49 49" fill="none" xmlns="http://www.w3.org/2000/svg">
<path d="M32.7247 43.1083C39.684 41.1332 45.1017 37.8006 47.4473 34.1551" stroke="#262933" stroke-width="0.5"/>
<ellipse cx="24.4635" cy="32.4572" rx="21.6074" ry="9.06942" transform="rotate(-8.49 24.4635 32.4572)" fill="#DCDCDC"/>
<mask id="mask0_850_68596" style="mask-type:alpha" maskUnits="userSpaceOnUse" x="-4" y="-12" width="50" height="54">
<path d="M25.802 41.4273C37.6047 39.6655 46.5732 34.2212 45.8337 29.2672L39.7158 -11.717L-3.02539 -5.33691L3.09243 35.6473C3.83193 40.6013 13.9994 43.1891 25.802 41.4273Z" fill="#D9D9D9"/>
</mask>
<g mask="url(#mask0_850_68596)">
<rect x="7.27831" y="7.68105" width="26.86" height="38.6798" rx="3.75" transform="rotate(-8.49 7.27831 7.68105)" fill="white" stroke="#262933" stroke-width="0.5"/>
</g>
<path d="M10.9398 12.4262L10.8314 11.7003L11.9022 10.8625L12.4923 10.7744L13.0637 14.6022L12.296 14.7168L11.8494 11.7245L10.9398 12.4262Z" fill="#262933"/>
<path d="M13.1717 21.188L14.7018 20.9596L14.8008 21.6228L12.1636 22.0164L12.0903 21.5255L13.0511 20.0582C13.2163 19.8057 13.3278 19.6111 13.3857 19.4744C13.4465 19.3336 13.4668 19.1953 13.4466 19.0596C13.4242 18.9099 13.3645 18.796 13.2674 18.718C13.1704 18.6399 13.0505 18.6115 12.9077 18.6328C12.7615 18.6547 12.6408 18.7279 12.5455 18.8524C12.4496 18.9735 12.3867 19.1359 12.3566 19.3397L11.7098 19.0839C11.7541 18.7606 11.8824 18.4994 12.0947 18.3004C12.3065 18.098 12.5673 17.9736 12.8772 17.9274C13.1209 17.891 13.339 17.91 13.5316 17.9845C13.7272 18.055 13.885 18.1702 14.005 18.3303C14.1285 18.4898 14.2068 18.6809 14.2401 18.9037C14.2728 19.1231 14.2495 19.3365 14.1702 19.5441C14.0938 19.7477 13.9424 20.0212 13.7161 20.3646L13.1717 21.188Z" fill="#262933"/>
<path d="M14.8815 26.8509C15.1058 26.8993 15.2854 26.9935 15.4202 27.1336C15.5545 27.2701 15.6387 27.4533 15.673 27.683C15.7084 27.9198 15.6779 28.1325 15.5815 28.3213C15.4881 28.5061 15.3454 28.6591 15.1535 28.7802C14.9646 28.8974 14.7465 28.9745 14.4993 29.0114C14.1825 29.0587 13.8946 29.0251 13.6355 28.9108C13.3799 28.7959 13.182 28.603 13.0419 28.332L13.591 27.8977C13.6738 28.0705 13.7866 28.1942 13.9294 28.269C14.0717 28.3403 14.223 28.3639 14.3831 28.34C14.5398 28.3167 14.6636 28.2519 14.7545 28.1458C14.8489 28.0392 14.8842 27.9058 14.8603 27.7456C14.8078 27.394 14.5135 27.2582 13.9773 27.3383L13.8363 27.3593L13.7428 26.7326L13.9464 26.7022C14.1449 26.6726 14.2893 26.603 14.3797 26.4934C14.4731 26.3798 14.5091 26.2517 14.4878 26.1089C14.4681 25.9766 14.4087 25.877 14.3097 25.8099C14.2107 25.7428 14.0916 25.7196 13.9523 25.7404C13.8026 25.7628 13.6794 25.831 13.5825 25.9451C13.4886 26.0552 13.4253 26.2035 13.3927 26.3899L12.7691 26.1466C12.816 25.8407 12.9411 25.5942 13.1445 25.4072C13.3475 25.2168 13.6038 25.0985 13.9137 25.0522C14.1539 25.0163 14.3713 25.0302 14.5658 25.0937C14.7633 25.1531 14.9245 25.2554 15.0494 25.4005C15.1743 25.5456 15.2523 25.7226 15.2835 25.9314C15.3126 26.1264 15.2925 26.302 15.2233 26.4583C15.1576 26.614 15.0436 26.7449 14.8815 26.8509Z" fill="#262933"/>
<rect x="15.4062" y="10.3696" width="5.76" height="1.44" transform="rotate(-8.49 15.4062 10.3696)" fill="#DCDCDC"/>
<rect x="16.4688" y="17.4907" width="5.76" height="1.44" transform="rotate(-8.49 16.4688 17.4907)" fill="#DCDCDC"/>
<rect x="17.5332" y="24.6118" width="5.76" height="1.44" transform="rotate(-8.49 17.5332 24.6118)" fill="#DCDCDC"/>
<rect x="15.7617" y="12.7437" width="13.92" height="1.44" transform="rotate(-8.49 15.7617 12.7437)" fill="#DCDCDC"/>
<rect x="16.8242" y="19.8647" width="13.92" height="1.44" transform="rotate(-8.49 16.8242 19.8647)" fill="#DCDCDC"/>
<rect x="17.8867" y="26.9858" width="13.92" height="1.44" transform="rotate(-8.49 17.8867 26.9858)" fill="#DCDCDC"/>
<path fill-rule="evenodd" clip-rule="evenodd" d="M42.4912 24.4204C39.1693 28.1634 33.6156 28.6587 30.0865 25.5267C30.0864 25.5266 30.0864 25.5266 30.0864 25.5266L30.0863 25.5267L28.5372 24.152L28.7153 23.9513C26.5864 20.7493 26.8922 16.2548 29.7111 13.0784C32.5301 9.90198 36.9564 9.06445 40.3887 10.7978L40.5666 10.5974L42.0764 11.9373C42.0896 11.9488 42.1027 11.9604 42.1158 11.9721C45.6449 15.1041 45.813 20.6774 42.4912 24.4204Z" fill="#262933"/>
<ellipse cx="9.06136" cy="8.54357" rx="9.06136" ry="8.54357" transform="matrix(-0.663774 0.747934 0.747934 0.663774 34.1758 4.92676)" fill="#3FD494"/>
<path d="M33.5517 22.6174L34.7662 18.5457L35.4867 18.6932C36.1947 18.8539 36.9181 18.9381 37.6447 18.9444C37.9588 18.9474 38.2724 18.9134 38.5791 18.8428C39.0581 18.722 39.1427 18.3977 38.826 18.015C38.7082 17.883 38.577 17.7637 38.4346 17.6591C37.5966 17.0835 36.6824 16.6292 35.7184 16.3093L35.4677 16.2345L35.8423 14.9786L38.5614 15.7896L39.1493 13.8186L31.68 11.6214L31.0921 13.5924L33.8112 14.4035L33.4484 15.6199L33.2934 15.6105L32.3912 15.4211C31.71 15.278 31.0143 15.2145 30.3179 15.232C30.0348 15.2474 29.7551 15.3022 29.4865 15.3949C29.4203 15.4077 29.3588 15.4386 29.3086 15.4842C29.2585 15.5298 29.2217 15.5884 29.2022 15.6536C29.1828 15.7187 29.1815 15.7879 29.1985 15.8535C29.2154 15.9192 29.25 15.9787 29.2984 16.0257C29.4297 16.2073 29.5856 16.3694 29.7615 16.5072C30.5843 17.0747 31.4807 17.5257 32.4259 17.8477L32.7502 17.9812L31.5374 22.0473L33.5517 22.6174ZM32.9479 17.2368L34.9538 17.8351L35.3704 16.4385C35.4066 16.4357 35.443 16.4362 35.4791 16.4403C36.3807 16.7224 37.24 17.1252 38.0344 17.6378C38.1792 17.7394 38.3107 17.859 38.4258 17.9937C38.5956 18.1977 38.5496 18.3925 38.2914 18.4443C37.9811 18.5233 37.661 18.5539 37.342 18.5352C36.6397 18.4704 35.9419 18.3646 35.2521 18.2185C34.4552 18.0421 33.6662 17.819 32.8873 17.5622C31.9638 17.2811 31.0825 16.876 30.2673 16.3576C30.1387 16.2707 30.0177 16.173 29.9054 16.0657C29.8013 15.9671 29.6749 15.862 29.7269 15.6874C29.779 15.5128 29.9491 15.4716 30.094 15.4535C30.3659 15.4167 30.6401 15.4021 30.9141 15.4098C31.7185 15.4571 32.516 15.584 33.2949 15.7888L33.3729 15.812L32.9479 17.2368Z" fill="white"/>
</svg>
