<svg width="44" height="44" viewBox="0 0 44 44" fill="none" xmlns="http://www.w3.org/2000/svg">
<rect x="16.5" y="16.4863" width="11" height="21" rx="1.5" stroke="#262933"/>
<path d="M21.5546 4.85901C21.7402 4.49538 22.2598 4.49538 22.4454 4.85901L23.683 7.28417C23.7557 7.42653 23.892 7.52558 24.0498 7.55069L26.7387 7.97834C27.1419 8.04246 27.3025 8.5366 27.014 8.82546L25.09 10.7519C24.977 10.865 24.925 11.0253 24.9499 11.1832L25.3741 13.8726C25.4377 14.2759 25.0173 14.5813 24.6535 14.3962L22.2267 13.1617C22.0843 13.0892 21.9157 13.0892 21.7733 13.1617L19.3465 14.3962C18.9827 14.5813 18.5623 14.2759 18.6259 13.8726L19.0501 11.1832C19.075 11.0253 19.023 10.865 18.91 10.7519L16.986 8.82546C16.6975 8.53661 16.8581 8.04246 17.2613 7.97834L19.9502 7.55069C20.108 7.52558 20.2443 7.42653 20.317 7.28417L21.5546 4.85901Z" stroke="#262933"/>
<rect x="4.5" y="22.4863" width="9" height="15" rx="1.5" stroke="#262933"/>
<rect x="30.5" y="25.4863" width="9" height="12" rx="1.5" stroke="#262933"/>
</svg>
