<svg width="16" height="16" viewBox="0 0 16 16" fill="none" xmlns="http://www.w3.org/2000/svg">
<path d="M1.33398 10.3333V5.6666C1.33398 5.4825 1.48322 5.33326 1.66732 5.33326H3.87099C3.95439 5.33326 4.03475 5.302 4.09623 5.24565L7.44208 2.17865C7.65588 1.98267 8.00065 2.13433 8.00065 2.42437V13.5755C8.00065 13.8656 7.65588 14.0172 7.44208 13.8213L4.09623 10.7542C4.03475 10.6979 3.95439 10.6666 3.87099 10.6666H1.66732C1.48322 10.6666 1.33398 10.5174 1.33398 10.3333Z" fill="#303236"/>
<path d="M9.6084 2.67346C12.4264 2.81611 14.6678 5.1462 14.668 7.99963C14.668 10.9452 12.2795 13.3336 9.33398 13.3336V11.6666C11.359 11.6666 13.001 10.0247 13.001 7.99963C13.0008 6.03819 11.4605 4.43693 9.52344 4.3385L9.33398 4.33362V2.66663L9.6084 2.67346Z" fill="#303236"/>
<path d="M9.57324 5.68164C10.7497 5.8025 11.668 6.80697 11.668 8.02734C11.6679 9.32909 10.6226 10.3848 9.33398 10.3848V5.66992L9.57324 5.68164Z" fill="#303236"/>
<path d="M1.3335 10.3332V5.66655C1.3335 5.48246 1.48273 5.33322 1.66683 5.33322H3.8705C3.9539 5.33322 4.03427 5.30196 4.09574 5.24561L7.44159 2.1786C7.65539 1.98262 8.00016 2.13429 8.00016 2.42432V13.5755C8.00016 13.8655 7.65539 14.0172 7.44159 13.8212L4.09574 10.7542C4.03427 10.6978 3.9539 10.6666 3.8705 10.6666H1.66683C1.48273 10.6666 1.3335 10.5173 1.3335 10.3332Z" fill="#484B51"/>
<path d="M9.3335 13.3332C12.279 13.3332 14.6668 10.9454 14.6668 7.99992C14.6668 5.0544 12.279 2.66658 9.3335 2.66658V4.33325C11.3585 4.33325 13.0002 5.97487 13.0002 7.99992C13.0002 10.025 11.3585 11.6666 9.3335 11.6666V13.3332Z" fill="#484B51"/>
<path d="M11.6668 8.02704C11.6668 9.32889 10.6222 10.3842 9.3335 10.3842V5.66984C10.6222 5.66984 11.6668 6.72519 11.6668 8.02704Z" fill="#484B51"/>
</svg>
