<svg width="11" height="10" viewBox="0 0 11 10" fill="none" xmlns="http://www.w3.org/2000/svg">
<path d="M4.65355 0.94523C4.52153 1.37412 4.16364 2.14529 3.19337 3.16809C1.5113 4.9351 1.28941 7.78208 3.86859 9.18148C4.04227 9.2852 4.26362 9.24361 4.39031 9.08345C4.82931 8.61508 5.02019 7.92831 4.96292 7.02316C4.94702 6.774 5.05598 6.70864 5.2715 6.87938C5.88389 7.363 6.28313 8.10477 6.28313 8.90862C6.28313 9.18148 6.3897 9.32526 6.63863 9.27624C8.28412 8.94947 10.2883 6.54199 8.12824 3.01532C7.9986 2.83641 7.81011 2.83641 7.81011 3.08231C7.81402 3.38505 7.78007 3.68706 7.70911 3.98093C7.6598 4.18516 7.47052 4.18271 7.42757 3.98093C7.15823 2.75445 6.40958 1.71287 5.18163 0.856185C4.85079 0.624179 4.7299 0.6928 4.65355 0.94523Z" fill="url(#paint0_linear_5135_10052)"/>
<defs>
<linearGradient id="paint0_linear_5135_10052" x1="1.92847" y1="5.00001" x2="9.07132" y2="5.00001" gradientUnits="userSpaceOnUse">
<stop stop-color="#FFEC1A"/>
<stop offset="1" stop-color="#FFAA33"/>
</linearGradient>
</defs>
</svg>
