<svg width="49" height="49" viewBox="0 0 49 49" fill="none" xmlns="http://www.w3.org/2000/svg">
<path d="M32.4669 43.1083C39.4262 41.1332 44.8439 37.8006 47.1895 34.1551" stroke="#FAFAFA" stroke-width="0.5"/>
<ellipse cx="24.2057" cy="32.4572" rx="21.6074" ry="9.06942" transform="rotate(-8.49 24.2057 32.4572)" fill="#595959"/>
<mask id="mask0_850_68609" style="mask-type:alpha" maskUnits="userSpaceOnUse" x="-4" y="-12" width="50" height="54">
<path d="M25.5442 41.4273C37.3469 39.6655 46.3153 34.2212 45.5758 29.2672L39.458 -11.717L-3.2832 -5.33691L2.83462 35.6473C3.57412 40.6013 13.7415 43.1891 25.5442 41.4273Z" fill="#D9D9D9"/>
</mask>
<g mask="url(#mask0_850_68609)">
<rect x="7.0205" y="7.68105" width="26.86" height="38.6798" rx="3.75" transform="rotate(-8.49 7.0205 7.68105)" fill="#141414" stroke="#FAFAFA" stroke-width="0.5"/>
</g>
<path d="M10.682 12.4262L10.5736 11.7003L11.6444 10.8625L12.2345 10.7744L12.8059 14.6022L12.0382 14.7168L11.5915 11.7245L10.682 12.4262Z" fill="#FAFAFA"/>
<path d="M12.9139 21.188L14.444 20.9596L14.543 21.6228L11.9058 22.0164L11.8325 21.5255L12.7933 20.0582C12.9585 19.8057 13.07 19.6111 13.1279 19.4744C13.1887 19.3336 13.209 19.1953 13.1887 19.0596C13.1664 18.9099 13.1067 18.796 13.0096 18.718C12.9126 18.6399 12.7927 18.6115 12.6499 18.6328C12.5037 18.6547 12.3829 18.7279 12.2876 18.8524C12.1918 18.9735 12.1289 19.1359 12.0988 19.3397L11.452 19.0839C11.4963 18.7606 11.6246 18.4994 11.8369 18.3004C12.0487 18.098 12.3095 17.9736 12.6194 17.9274C12.8631 17.891 13.0812 17.91 13.2738 17.9845C13.4694 18.055 13.6272 18.1702 13.7472 18.3303C13.8707 18.4898 13.949 18.6809 13.9823 18.9037C14.015 19.1231 13.9917 19.3365 13.9124 19.5441C13.836 19.7477 13.6846 20.0212 13.4583 20.3646L12.9139 21.188Z" fill="#FAFAFA"/>
<path d="M14.6237 26.8509C14.848 26.8993 15.0276 26.9935 15.1624 27.1336C15.2966 27.2701 15.3809 27.4533 15.4152 27.683C15.4506 27.9198 15.42 28.1325 15.3237 28.3213C15.2302 28.5061 15.0876 28.6591 14.8957 28.7802C14.7068 28.8974 14.4887 28.9745 14.2415 29.0114C13.9247 29.0587 13.6368 29.0251 13.3777 28.9108C13.1221 28.7959 12.9242 28.603 12.7841 28.332L13.3332 27.8977C13.416 28.0705 13.5287 28.1942 13.6716 28.269C13.8139 28.3403 13.9651 28.3639 14.1253 28.34C14.282 28.3167 14.4058 28.2519 14.4967 28.1458C14.5911 28.0392 14.6264 27.9058 14.6024 27.7456C14.55 27.394 14.2556 27.2582 13.7195 27.3383L13.5785 27.3593L13.485 26.7326L13.6886 26.7022C13.8871 26.6726 14.0315 26.603 14.1219 26.4934C14.2153 26.3798 14.2513 26.2517 14.23 26.1089C14.2103 25.9766 14.1509 25.877 14.0519 25.8099C13.9529 25.7428 13.8338 25.7196 13.6945 25.7404C13.5448 25.7628 13.4216 25.831 13.3247 25.9451C13.2308 26.0552 13.1675 26.2035 13.1348 26.3899L12.5113 26.1466C12.5582 25.8407 12.6833 25.5942 12.8867 25.4072C13.0896 25.2168 13.346 25.0985 13.6559 25.0522C13.8961 25.0163 14.1135 25.0302 14.308 25.0937C14.5055 25.1531 14.6667 25.2554 14.7916 25.4005C14.9164 25.5456 14.9945 25.7226 15.0256 25.9314C15.0547 26.1264 15.0347 26.302 14.9655 26.4583C14.8998 26.614 14.7858 26.7449 14.6237 26.8509Z" fill="#FAFAFA"/>
<rect x="15.1484" y="10.3696" width="5.76" height="1.44" transform="rotate(-8.49 15.1484 10.3696)" fill="#595959"/>
<rect x="16.2109" y="17.4907" width="5.76" height="1.44" transform="rotate(-8.49 16.2109 17.4907)" fill="#595959"/>
<rect x="17.2754" y="24.6118" width="5.76" height="1.44" transform="rotate(-8.49 17.2754 24.6118)" fill="#595959"/>
<rect x="15.5039" y="12.7437" width="13.92" height="1.44" transform="rotate(-8.49 15.5039 12.7437)" fill="#595959"/>
<rect x="16.5664" y="19.8647" width="13.92" height="1.44" transform="rotate(-8.49 16.5664 19.8647)" fill="#595959"/>
<rect x="17.6289" y="26.9858" width="13.92" height="1.44" transform="rotate(-8.49 17.6289 26.9858)" fill="#595959"/>
<path fill-rule="evenodd" clip-rule="evenodd" d="M42.2334 24.4204C38.9115 28.1634 33.3578 28.6587 29.8286 25.5267C29.8286 25.5266 29.8286 25.5266 29.8286 25.5266L29.8285 25.5267L28.2794 24.152L28.4575 23.9513C26.3286 20.7493 26.6343 16.2548 29.4533 13.0784C32.2723 9.90198 36.6986 9.06445 40.1309 10.7978L40.3088 10.5974L41.8186 11.9373C41.8317 11.9488 41.8449 11.9604 41.858 11.9721C45.3871 15.1041 45.5552 20.6774 42.2334 24.4204Z" fill="#262933"/>
<ellipse cx="9.06136" cy="8.54357" rx="9.06136" ry="8.54357" transform="matrix(-0.663774 0.747934 0.747934 0.663774 33.918 4.92676)" fill="#3FD494"/>
<path d="M33.2939 22.6174L34.5084 18.5457L35.2289 18.6932C35.9369 18.8539 36.6603 18.9381 37.3869 18.9444C37.701 18.9474 38.0146 18.9134 38.3213 18.8428C38.8003 18.722 38.8849 18.3977 38.5682 18.015C38.4504 17.883 38.3192 17.7637 38.1768 17.6591C37.3388 17.0835 36.4246 16.6292 35.4606 16.3093L35.2099 16.2345L35.5844 14.9786L38.3036 15.7896L38.8915 13.8186L31.4222 11.6214L30.8342 13.5924L33.5534 14.4035L33.1906 15.6199L33.0356 15.6105L32.1334 15.4211C31.4522 15.278 30.7565 15.2145 30.06 15.232C29.777 15.2474 29.4973 15.3022 29.2287 15.3949C29.1625 15.4077 29.101 15.4386 29.0508 15.4842C29.0007 15.5298 28.9639 15.5884 28.9444 15.6536C28.925 15.7187 28.9237 15.7879 28.9406 15.8535C28.9576 15.9192 28.9922 15.9787 29.0406 16.0257C29.1719 16.2073 29.3277 16.3694 29.5037 16.5072C30.3265 17.0747 31.2229 17.5257 32.1681 17.8477L32.4923 17.9812L31.2796 22.0473L33.2939 22.6174ZM32.6901 17.2368L34.696 17.8351L35.1126 16.4385C35.1488 16.4357 35.1852 16.4362 35.2213 16.4403C36.1228 16.7224 36.9822 17.1252 37.7766 17.6378C37.9214 17.7394 38.0529 17.859 38.168 17.9937C38.3377 18.1977 38.2918 18.3925 38.0336 18.4443C37.7233 18.5233 37.4031 18.5539 37.0842 18.5352C36.3819 18.4704 35.6841 18.3646 34.9943 18.2185C34.1974 18.0421 33.4084 17.819 32.6295 17.5622C31.7059 17.2811 30.8247 16.876 30.0095 16.3576C29.8809 16.2707 29.7599 16.173 29.6476 16.0657C29.5435 15.9671 29.4171 15.862 29.4691 15.6874C29.5212 15.5128 29.6913 15.4716 29.8362 15.4535C30.1081 15.4167 30.3823 15.4021 30.6563 15.4098C31.4607 15.4571 32.2581 15.584 33.0371 15.7888L33.1151 15.812L32.6901 17.2368Z" fill="white"/>
</svg>
