<svg width="89" height="72" viewBox="0 0 89 72" fill="none" xmlns="http://www.w3.org/2000/svg">
<path d="M76.7285 71.1538V7.71548C76.7285 4.09157 73.7908 1.15381 70.1668 1.15381H19.2902C15.6663 1.15381 12.7285 4.09157 12.7285 7.71548V11.5059M12.7285 71.1538V59.164V48.4778" stroke="#FAFAFA" stroke-linecap="round"/>
<rect x="32.1172" y="6.77881" width="23.9032" height="2.81215" rx="1.40607" fill="#FAFAFA" stroke="#FAFAFA" stroke-linecap="round"/>
<path d="M77.2285 24.6538H77.3224C77.8229 24.6538 78.2285 25.0595 78.2285 25.5599V32.7477C78.2285 33.2481 77.8229 33.6538 77.3224 33.6538H77.2285V24.6538Z" fill="#FAFAFA" stroke="#FAFAFA"/>
<path fill-rule="evenodd" clip-rule="evenodd" d="M30.5511 34.959C30.9994 33.5222 31.2409 31.9943 31.2409 30.4099C31.2409 21.9842 24.4105 15.1538 15.9847 15.1538C7.55894 15.1538 0.728516 21.9842 0.728516 30.4099C0.728516 38.8356 7.55894 45.6659 15.9847 45.6659C21.0061 45.6659 25.4608 43.2401 28.2409 39.4964C28.3088 39.5209 28.3809 39.5387 28.4566 39.5485L32.4564 40.0666C33.3379 40.1807 33.9191 39.1741 33.3795 38.4677L30.9309 35.2629C30.8256 35.1251 30.6945 35.024 30.5511 34.959Z" fill="#0A75F7"/>
<path d="M9.72852 31.1238L14.1755 35.9537L22.3283 27.9038" stroke="white" stroke-width="2.21348" stroke-linecap="round" stroke-linejoin="round"/>
<path d="M85.7285 41.1538H43.7285C42.6239 41.1538 41.7285 42.0492 41.7285 43.1538V45.048V60.3365V69.1538C41.7285 70.2584 42.6239 71.1538 43.7285 71.1538H85.7285C86.8331 71.1538 87.7285 70.2584 87.7285 69.1538V43.1538C87.7285 42.0492 86.8331 41.1538 85.7285 41.1538Z" fill="#595959" stroke="#595959" stroke-linecap="round"/>
<path d="M84.7285 39.1538H42.7285C41.6239 39.1538 40.7285 40.0492 40.7285 41.1538V43.1778V58.9759V68.1538C40.7285 69.2584 41.6239 70.1538 42.7285 70.1538H84.7285C85.8331 70.1538 86.7285 69.2584 86.7285 68.1538V41.1538C86.7285 40.0492 85.8331 39.1538 84.7285 39.1538Z" fill="#141414" stroke="#FAFAFA" stroke-linecap="round"/>
<path d="M64.7285 56.1538H73.7285" stroke="#595959" stroke-linecap="round"/>
<path d="M64.7285 61.1538H81.7285" stroke="#595959" stroke-linecap="round"/>
<path d="M59.7285 46.1538H45.7285C45.1762 46.1538 44.7285 46.6015 44.7285 47.1538V48.2307V56.3846V61.1538C44.7285 61.7061 45.1762 62.1538 45.7285 62.1538H59.7285C60.2808 62.1538 60.7285 61.7061 60.7285 61.1538V47.1538C60.7285 46.6015 60.2808 46.1538 59.7285 46.1538Z" fill="#3FD494"/>
<path fill-rule="evenodd" clip-rule="evenodd" d="M52.7285 54.6538C54.1092 54.6538 55.2285 53.5345 55.2285 52.1538C55.2285 50.7731 54.1092 49.6538 52.7285 49.6538C51.3478 49.6538 50.2285 50.7731 50.2285 52.1538C50.2285 53.5345 51.3478 54.6538 52.7285 54.6538ZM52.7285 54.6538H52.5152H50.1901C48.8306 54.6538 47.7285 55.598 47.7285 56.7628V58.7163C47.7285 59.2341 48.1482 59.6538 48.666 59.6538H56.791C57.3088 59.6538 57.7285 59.2341 57.7285 58.7163V56.7628C57.7285 55.598 56.6264 54.6538 55.267 54.6538H52.9419H52.7285Z" fill="#FAFAFA"/>
</svg>
