<svg width="14" height="14" viewBox="0 0 14 14" fill="none" xmlns="http://www.w3.org/2000/svg">
<circle cx="7" cy="7" r="6.70833" fill="url(#paint0_linear_136_53408)"/>
<circle cx="7" cy="7" r="6.70833" fill="url(#paint1_linear_136_53408)"/>
<circle cx="7" cy="7" r="6.70833" stroke="white" stroke-width="0.583333"/>
<path d="M9.12672 9.66311L8.91456 11H4.33398L4.51895 9.80384L6.95612 7.17335C7.09756 7.01098 7.24082 6.83417 7.38589 6.64293C7.53095 6.44808 7.65789 6.24421 7.76669 6.03132C7.87912 5.81481 7.94984 5.59651 7.97886 5.3764C7.99336 5.25733 8.00062 5.1166 8.00062 4.95423C8.00424 4.78824 7.97523 4.64391 7.91358 4.52122C7.85192 4.39493 7.73043 4.32998 7.54909 4.32637C7.33511 4.31555 7.16828 4.38591 7.0486 4.53746C6.93254 4.68901 6.84913 4.86763 6.79835 5.0733C6.74758 5.27898 6.71494 5.4612 6.70043 5.61996L5.09016 5.63079C5.11555 5.16171 5.24248 4.7269 5.47097 4.32637C5.69945 3.92224 6.0041 3.59929 6.38491 3.35754C6.76934 3.11217 7.20999 2.99309 7.70685 3.00031C8.15294 3.00753 8.52649 3.10676 8.82751 3.298C9.13216 3.48924 9.3552 3.75265 9.49665 4.08822C9.64172 4.42019 9.6943 4.80268 9.65441 5.23568C9.62902 5.55682 9.55286 5.85992 9.42593 6.14498C9.29899 6.42643 9.14123 6.69164 8.95264 6.94062C8.76767 7.18959 8.56639 7.43135 8.34878 7.66589C8.13118 7.89683 7.91902 8.12415 7.71229 8.34787L6.67323 9.6577L9.12672 9.66311Z" fill="white"/>
<defs>
<linearGradient id="paint0_linear_136_53408" x1="7" y1="0" x2="7" y2="14" gradientUnits="userSpaceOnUse">
<stop stop-color="#F7A300"/>
<stop offset="1" stop-color="#F4B948"/>
</linearGradient>
<linearGradient id="paint1_linear_136_53408" x1="7" y1="0" x2="7" y2="14" gradientUnits="userSpaceOnUse">
<stop stop-color="#9C9EB1"/>
<stop offset="1" stop-color="#C4C6D5"/>
</linearGradient>
</defs>
</svg>
