<svg width="14" height="14" viewBox="0 0 14 14" fill="none" xmlns="http://www.w3.org/2000/svg">
<circle cx="7" cy="7" r="6.70833" fill="url(#paint0_linear_136_53443)"/>
<circle cx="7" cy="7" r="6.70833" fill="url(#paint1_linear_136_53443)"/>
<circle cx="7" cy="7" r="6.70833" fill="url(#paint2_linear_136_53443)"/>
<circle cx="7" cy="7" r="6.70833" stroke="white" stroke-width="0.583333"/>
<path d="M6.21227 6.06341L7.04903 6.06875C7.30787 6.06519 7.51539 6.01183 7.67159 5.90866C7.83225 5.80549 7.95274 5.67209 8.03307 5.50845C8.11786 5.3448 8.17141 5.17227 8.19373 4.99084C8.21158 4.87344 8.20712 4.74537 8.18034 4.60663C8.15803 4.46433 8.10001 4.34338 8.00629 4.24377C7.91704 4.14416 7.77646 4.09258 7.58456 4.08902C7.39713 4.08546 7.24316 4.12637 7.12267 4.21175C7.00217 4.29713 6.90622 4.40385 6.83482 4.53192C6.76788 4.65643 6.71879 4.77739 6.68755 4.89478L4.69939 4.90546C4.73063 4.48923 4.88013 4.12104 5.1479 3.80087C5.42013 3.47714 5.77268 3.22456 6.20557 3.04313C6.63846 2.8617 7.1182 2.77454 7.64481 2.78165C8.1848 2.79233 8.65116 2.88838 9.04388 3.06981C9.44107 3.25124 9.74454 3.5056 9.95428 3.83288C10.164 4.15661 10.2533 4.53548 10.2221 4.96949C10.1997 5.26832 10.1082 5.54046 9.94759 5.78593C9.78693 6.02784 9.57495 6.23595 9.31165 6.41026C9.05281 6.58102 8.75827 6.71443 8.42802 6.81048C8.09778 6.90297 7.74968 6.94922 7.38374 6.94922L6.03152 6.94388L6.21227 6.06341ZM5.95119 7.33876L6.12524 6.47963L7.27663 6.48497C7.6515 6.49564 7.98844 6.54545 8.28745 6.63438C8.58645 6.72332 8.84083 6.85139 9.05058 7.01859C9.26479 7.18579 9.42099 7.38856 9.51917 7.62691C9.62181 7.86526 9.66197 8.13919 9.63966 8.44869C9.61288 8.79732 9.50801 9.11749 9.32504 9.4092C9.14206 9.69736 8.89884 9.9446 8.59538 10.1509C8.29637 10.3573 7.95274 10.5156 7.56448 10.6259C7.18068 10.7361 6.77011 10.7877 6.33276 10.7806C5.92219 10.7699 5.55847 10.7059 5.24162 10.5885C4.92922 10.4711 4.66592 10.311 4.45171 10.1082C4.24196 9.90191 4.08353 9.66356 3.97643 9.39319C3.86932 9.11927 3.82023 8.82756 3.82915 8.51806H5.81062C5.81508 8.64257 5.83293 8.77775 5.86417 8.92361C5.89541 9.06591 5.96235 9.18864 6.06499 9.29181C6.16764 9.39497 6.31937 9.44833 6.5202 9.45189C6.75672 9.45901 6.95531 9.4092 7.11597 9.30248C7.2811 9.19575 7.41051 9.06235 7.50423 8.90226C7.60241 8.74218 7.66489 8.58031 7.69167 8.41667C7.71398 8.25303 7.71621 8.09116 7.69836 7.93108C7.68051 7.77099 7.61803 7.63581 7.51093 7.52553C7.40382 7.41525 7.22531 7.35477 6.9754 7.3441L5.95119 7.33876Z" fill="white"/>
<defs>
<linearGradient id="paint0_linear_136_53443" x1="7" y1="0" x2="7" y2="14" gradientUnits="userSpaceOnUse">
<stop stop-color="#F7A300"/>
<stop offset="1" stop-color="#F4B948"/>
</linearGradient>
<linearGradient id="paint1_linear_136_53443" x1="7" y1="0" x2="7" y2="14" gradientUnits="userSpaceOnUse">
<stop stop-color="#9C9EB1"/>
<stop offset="1" stop-color="#C4C6D5"/>
</linearGradient>
<linearGradient id="paint2_linear_136_53443" x1="7" y1="0" x2="7" y2="14" gradientUnits="userSpaceOnUse">
<stop stop-color="#B49773"/>
<stop offset="1" stop-color="#CCAC84"/>
</linearGradient>
</defs>
</svg>
