<svg t="1710980090695" class="icon" viewBox="0 0 1024 1024" version="1.1" xmlns="http://www.w3.org/2000/svg" p-id="22660" width="48" height="48"><path d="M76.8 44.8h870.4v454.4h-102.4V147.2H179.2v729.6h379.328v102.4H76.8V44.8z" p-id="22661"></path><path d="M864.512 729.6h-116.032V640h268.8v268.8h-89.6v-115.648l-211.328 211.328-63.36-63.36 211.52-211.52zM491.392 297.984V224H417.408v73.984h-36.992a92.416 92.416 0 1 0 0 184.832h147.968l3.328 0.32a18.496 18.496 0 0 1-3.328 36.672H324.992v73.984h92.416v73.92h73.984V593.792h36.992a92.416 92.416 0 1 0 0-184.96H380.416l-3.328-0.256a18.496 18.496 0 0 1 3.328-36.672h203.392V297.984H491.392z" p-id="22662"></path></svg>