<svg width="14" height="14" viewBox="0 0 14 14" fill="none" xmlns="http://www.w3.org/2000/svg">
<path fill-rule="evenodd" clip-rule="evenodd" d="M7.00008 1.45825C5.06709 1.45825 3.50008 3.02526 3.50008 4.95825V5.83325H3.20841C2.56408 5.83325 2.04175 6.35559 2.04175 6.99992V11.0833C2.04175 11.7276 2.56408 12.2499 3.20841 12.2499H10.7917C11.4361 12.2499 11.9584 11.7276 11.9584 11.0833V6.99992C11.9584 6.35559 11.4361 5.83325 10.7917 5.83325H10.5001V4.95825C10.5001 3.02526 8.93308 1.45825 7.00008 1.45825ZM8.75008 5.83325V4.95825C8.75008 3.99175 7.96658 3.20825 7.00008 3.20825C6.03358 3.20825 5.25008 3.99175 5.25008 4.95825V5.83325H8.75008ZM6.41675 10.2083V7.87492H7.58342V10.2083H6.41675Z" fill="white"/>
</svg>
