<svg width="343" height="92" viewBox="0 0 343 92" fill="none" xmlns="http://www.w3.org/2000/svg">
<g clip-path="url(#clip0_3635_17479)">
<path d="M0 12C0 5.37259 5.37258 0 12 0H331C337.627 0 343 5.37258 343 12V80C343 86.6274 337.627 92 331 92H12C5.37258 92 0 86.6274 0 80V12Z" fill="#FAFAFA"/>
<g clip-path="url(#clip1_3635_17479)">
<path opacity="0.5" d="M272.624 28.2837L279.251 23.5232C280.358 22.7303 280.183 21.0435 278.945 20.4898L271.495 17.1567C270.256 16.6029 268.876 17.5925 269.009 18.9412L269.838 27.0327C269.977 28.3794 271.531 29.0756 272.631 28.2827L272.624 28.2837Z" stroke="#888888" stroke-width="0.5" stroke-linecap="round" stroke-linejoin="round"/>
<path opacity="0.2" d="M244.864 0.225427C245.481 -2.893 247.374 -5.74677 250.324 -7.49485C252.991 -9.07404 256.116 -9.52597 259.125 -8.75837C261.787 -8.08325 264.075 -6.53041 265.665 -4.33582C265.996 -3.87911 265.879 -3.23821 265.39 -2.94646L263.56 -1.86309C263.152 -1.6232 262.619 -1.71322 262.334 -2.09426C261.298 -3.47257 259.832 -4.44902 258.133 -4.88266C256.165 -5.38327 254.121 -5.08673 252.373 -4.05363C249.005 -2.06322 247.749 2.12901 249.336 5.59892C249.534 6.02937 249.363 6.53561 248.955 6.7755L247.124 7.85961C246.641 8.14658 246.014 7.9473 245.774 7.43713C244.667 5.12701 244.395 2.59847 244.866 0.220647L244.864 0.225427Z" stroke="#888888" stroke-width="0.5" stroke-linecap="round" stroke-linejoin="round"/>
<path opacity="0.4" d="M312.547 19.0856C314.505 19.0856 316.093 17.4995 316.093 15.5428C316.093 13.5862 314.505 12 312.547 12C310.588 12 309 13.5862 309 15.5428C309 17.4995 310.588 19.0856 312.547 19.0856Z" fill="#A7F757"/>
<path opacity="0.1" d="M225.992 24.1816C224.327 23.853 222.803 22.8446 221.87 21.2728C221.027 19.852 220.785 18.1871 221.195 16.5843C221.556 15.1656 222.385 13.9472 223.556 13.0999C223.8 12.9234 224.142 12.9859 224.298 13.2465L224.876 14.2214C225.005 14.4386 224.957 14.7226 224.753 14.8744C224.017 15.4267 223.496 16.2077 223.264 17.1128C222.997 18.1612 223.155 19.25 223.707 20.1815C224.77 21.9756 227.008 22.6448 228.861 21.7991C229.09 21.6937 229.361 21.7851 229.489 22.0024L230.068 22.9776C230.221 23.2353 230.114 23.5694 229.842 23.697C228.609 24.2867 227.259 24.4316 225.989 24.1808L225.992 24.1816Z" fill="#0068FF"/>
<path opacity="0.1" d="M82.1016 3.04846L74.9532 -6.88076C73.7625 -8.53881 71.2297 -8.27735 70.3982 -6.4216L65.3931 4.73999C64.5616 6.59734 66.0475 8.66512 68.0728 8.46584L80.2231 7.22389C82.2453 7.01504 83.2906 4.68738 82.1 3.03889L82.1016 3.04846Z" stroke="#888888" stroke-width="0.5" stroke-linecap="round" stroke-linejoin="round"/>
<path opacity="0.4" d="M265.944 60.0311L258.795 50.1019C257.605 48.4439 255.072 48.7053 254.24 50.5611L249.235 61.7227C248.404 63.58 249.89 65.6478 251.915 65.4485L264.065 64.2066C266.087 63.9977 267.133 61.67 265.942 60.0216L265.944 60.0311Z" stroke="#888888" stroke-width="0.5" stroke-linecap="round" stroke-linejoin="round"/>
<path opacity="0.5" d="M328.512 41.2514C328.512 43.5994 326.606 45.5029 324.256 45.5029C321.906 45.5029 320 43.5994 320 41.2514C320 38.9035 321.906 37 324.256 37C326.606 37 328.512 38.9035 328.512 41.2514ZM324.256 39.1257C323.081 39.1257 322.128 40.0774 322.128 41.2514C322.128 42.4255 323.081 43.3771 324.256 43.3771C325.431 43.3771 326.384 42.4255 326.384 41.2514C326.384 40.0774 325.431 39.1257 324.256 39.1257Z" fill="#FE7435"/>
<path d="M108.883 -4.07889C108.883 -1.73094 106.977 0.172535 104.627 0.172535C102.276 0.172535 100.371 -1.73094 100.371 -4.07889C100.371 -6.42685 102.276 -8.33032 104.627 -8.33032C106.977 -8.33032 108.883 -6.42685 108.883 -4.07889ZM104.627 -6.20461C103.451 -6.20461 102.499 -5.25293 102.499 -4.07889C102.499 -2.90486 103.451 -1.95318 104.627 -1.95318C105.802 -1.95318 106.755 -2.90486 106.755 -4.07889C106.755 -5.25293 105.802 -6.20461 104.627 -6.20461Z" fill="#A7F757"/>
<path opacity="0.2" d="M311.259 73.464L316.37 75.9783L311.659 79.178L310.845 84.8098L306.342 81.3233L300.728 82.2897L302.656 76.9352L300 71.9006L305.694 72.0779L309.667 68L311.259 73.464Z" stroke="#888888" stroke-width="0.5" stroke-linecap="round" stroke-linejoin="round"/>
<path opacity="0.5" d="M190.727 16.0341L195.287 13L195.69 18.4413L200 21.8165L194.921 23.8799L193.024 29L189.482 24.834L184 24.6233L186.89 19.985L185.398 14.7346L190.727 16.0341Z" stroke="#888888" stroke-width="0.5" stroke-linecap="round" stroke-linejoin="round"/>
<path opacity="0.1" d="M14.1274 38.9511L17.6789 36.5779L17.9929 40.8341L21.3496 43.4741L17.3939 45.0882L15.917 49.0931L13.1584 45.8345L8.88885 45.6696L11.1394 42.0416L9.97775 37.9347L14.1274 38.9511Z" stroke="#888888" stroke-width="0.5" stroke-linecap="round" stroke-linejoin="round"/>
<path opacity="0.6" d="M296.039 47.3471L299.766 44.6693C300.389 44.2234 300.291 43.2746 299.594 42.963L295.404 41.0882C294.707 40.7766 293.93 41.3332 294.005 42.0919L294.471 46.6434C294.55 47.4009 295.423 47.7924 296.042 47.3465L296.039 47.3471Z" fill="#FE7435"/>
<path opacity="0.1" d="M124.289 17.1037C121.469 18.991 117.887 19.7173 114.342 18.813C111.138 17.9947 108.439 15.9811 106.75 13.1354C105.251 10.6198 104.699 7.72547 105.156 4.87191C105.251 4.27788 105.824 3.88281 106.413 4.0314L108.611 4.59291C109.1 4.71918 109.434 5.18875 109.361 5.69074C109.102 7.5113 109.47 9.35228 110.424 10.9594C111.531 12.8196 113.296 14.1358 115.395 14.6739C119.438 15.7099 123.55 13.4942 124.973 9.68113C125.149 9.20731 125.661 8.95487 126.149 9.08103L128.349 9.64255C128.93 9.7905 129.253 10.4133 129.048 10.9786C128.139 13.5549 126.435 15.667 124.284 17.1058L124.289 17.1037Z" stroke="#888888" stroke-width="0.5" stroke-linecap="round" stroke-linejoin="round"/>
<path opacity="0.1" d="M155.547 11.0856C157.505 11.0856 159.093 9.49947 159.093 7.54282C159.093 5.58617 157.505 4 155.547 4C153.588 4 152 5.58617 152 7.54282C152 9.49947 153.588 11.0856 155.547 11.0856Z" fill="#FABD03"/>
</g>
</g>
<defs>
<clipPath id="clip0_3635_17479">
<path d="M0 12C0 5.37259 5.37258 0 12 0H331C337.627 0 343 5.37258 343 12V80C343 86.6274 337.627 92 331 92H12C5.37258 92 0 86.6274 0 80V12Z" fill="white"/>
</clipPath>
<clipPath id="clip1_3635_17479">
<rect width="399" height="186" fill="white" transform="translate(0 -61)"/>
</clipPath>
</defs>
</svg>
