<svg width="20" height="20" viewBox="0 0 20 20" fill="none" xmlns="http://www.w3.org/2000/svg">
<circle cx="10" cy="10" r="9.5" fill="url(#paint0_linear_13075_9000)" stroke="white"/>
<path d="M12.291 13.3289L12.0258 15H6.30005L6.53125 13.5048L9.57771 10.2167C9.75452 10.0137 9.93359 9.79271 10.1149 9.55366C10.2963 9.3101 10.4549 9.05526 10.5909 8.78914C10.7315 8.51852 10.8199 8.24564 10.8561 7.9705C10.8743 7.82166 10.8833 7.64575 10.8833 7.44278C10.8879 7.2353 10.8516 7.05489 10.7745 6.90153C10.6975 6.74367 10.5456 6.66248 10.3189 6.65797C10.0515 6.64444 9.84292 6.73239 9.69332 6.92183C9.54825 7.11127 9.44398 7.33453 9.38051 7.59163C9.31704 7.84872 9.27624 8.0765 9.25811 8.27496L7.24527 8.28849C7.277 7.70213 7.43567 7.15863 7.72128 6.65797C8.00688 6.1528 8.38769 5.74912 8.8637 5.44692C9.34424 5.14021 9.89505 4.99137 10.5161 5.00039C11.0737 5.00941 11.5407 5.13344 11.917 5.3725C12.2978 5.61155 12.5766 5.94081 12.7534 6.36028C12.9347 6.77524 13.0004 7.25334 12.9506 7.7946C12.9188 8.19602 12.8236 8.5749 12.665 8.93122C12.5063 9.28304 12.3091 9.61455 12.0734 9.92577C11.8422 10.237 11.5906 10.5392 11.3185 10.8324C11.0465 11.121 10.7813 11.4052 10.5229 11.6848L9.22411 13.3221L12.291 13.3289Z" fill="white"/>
<defs>
<linearGradient id="paint0_linear_13075_9000" x1="10" y1="0" x2="10" y2="20" gradientUnits="userSpaceOnUse">
<stop stop-color="#9C9EB1"/>
<stop offset="1" stop-color="#C4C6D5"/>
</linearGradient>
</defs>
</svg>
