<svg width="12" height="12" viewBox="0 0 12 12" fill="none" xmlns="http://www.w3.org/2000/svg">
<path d="M12 6C12 9.31371 9.31371 12 6 12C2.68629 12 0 9.31371 0 6C0 2.68629 2.68629 0 6 0C9.31371 0 12 2.68629 12 6Z" fill="#F2B80C"/>
<path fill-rule="evenodd" clip-rule="evenodd" d="M6.00027 2.8501C5.6689 2.8501 5.40027 3.11873 5.40027 3.4501V6.6001C5.40027 6.93147 5.6689 7.2001 6.00027 7.2001C6.33164 7.2001 6.60027 6.93147 6.60027 6.6001V3.4501C6.60027 3.11873 6.33164 2.8501 6.00027 2.8501ZM6.0002 9.22506C6.37299 9.22506 6.6752 8.92285 6.6752 8.55006C6.6752 8.17727 6.37299 7.87506 6.0002 7.87506C5.6274 7.87506 5.3252 8.17727 5.3252 8.55006C5.3252 8.92285 5.6274 9.22506 6.0002 9.22506Z" fill="white"/>
</svg>
