<svg width="32" height="32" viewBox="0 0 32 32" fill="none" xmlns="http://www.w3.org/2000/svg">
<path d="M3.7002 24.4034L3.70692 14.3931H9.96442C10.9379 14.3931 11.8278 14.9431 12.2631 15.8137L12.8976 17.0827H16.0606C17.0178 17.0827 17.9041 17.5872 18.3928 18.4103L20.6473 22.2074M20.6473 22.2074L25.4144 21.6729C26.3784 21.5648 27.288 22.1414 27.6016 23.0594V23.0594C27.9823 24.174 27.3566 25.381 26.2263 25.7123L21.5887 27.0713C18.548 27.9623 15.3116 27.933 12.2876 26.9872L7.97846 25.6393M20.6473 22.2074L14.9306 21.8958" stroke="#262933" stroke-width="2" stroke-linecap="round" stroke-linejoin="round"/>
<path d="M3.7002 11.7351V14.7124V24.5748V27.7786" stroke="#262933" stroke-width="2" stroke-linecap="round"/>
<path d="M26.1612 11.7349L26.1612 7.93202C26.1612 7.26765 25.8526 6.641 25.3258 6.23609L22.6519 4.18057C21.8832 3.58964 20.8132 3.58964 20.0445 4.18056L17.3706 6.23609C16.8438 6.64099 16.5352 7.26765 16.5352 7.93202L16.5352 11.7349C16.5352 12.3256 17.014 12.8044 17.6047 12.8044L21.3482 12.8044" stroke="#2354E6" stroke-width="2" stroke-linecap="round"/>
</svg>
