<svg width="20" height="20" viewBox="0 0 20 20" fill="none" xmlns="http://www.w3.org/2000/svg">
<path fill-rule="evenodd" clip-rule="evenodd" d="M9.42247 11.6985L11.6985 9.42247C11.4581 8.71532 10.7885 8.20654 10.0001 8.20654C9.00953 8.20654 8.20654 9.00953 8.20654 10.0001C8.20654 10.7885 8.71532 11.4581 9.42247 11.6985Z" fill="#262933"/>
<path fill-rule="evenodd" clip-rule="evenodd" d="M13.421 4.76172C12.3245 4.36649 11.1578 4.17114 10.0001 4.17114C7.05955 4.17114 4.06064 5.43141 2.30368 8.02612C1.49887 9.21468 1.49887 10.7855 2.30368 11.974C2.83729 12.7621 3.48546 13.427 4.21176 13.971L5.33599 12.8467C4.66555 12.3769 4.07554 11.7918 3.60313 11.0941C3.15816 10.437 3.15816 9.56316 3.60313 8.90602C5.01538 6.82038 7.47853 5.74047 10.0001 5.74047C10.736 5.74047 11.4669 5.83245 12.1682 6.01456L13.421 4.76172ZM16.4027 6.53577L15.2908 7.64769C15.7055 8.01527 16.0781 8.43499 16.397 8.90602C16.842 9.56316 16.842 10.437 16.397 11.0941C14.9848 13.1798 12.5216 14.2597 10.0001 14.2597C9.58567 14.2597 9.17285 14.2305 8.76601 14.1725L7.43535 15.5032C8.27351 15.721 9.1393 15.829 10.0001 15.829C12.9406 15.829 15.9395 14.5687 17.6965 11.974C18.5013 10.7855 18.5013 9.21468 17.6965 8.02612C17.3184 7.4678 16.8828 6.97126 16.4027 6.53577Z" fill="#262933"/>
<path d="M4.39526 16.1653L16.7257 3.83484" stroke="#262933" stroke-width="1.56933" stroke-linecap="round"/>
</svg>
