<svg width="40" height="40" viewBox="0 0 40 40" fill="none" xmlns="http://www.w3.org/2000/svg">
<rect x="34.2832" y="10.4507" width="16" height="20" rx="1" transform="rotate(105 34.2832 10.4507)" fill="#262933"/>
<mask id="path-2-inside-1_2245_21476" fill="white">
<path fill-rule="evenodd" clip-rule="evenodd" d="M9.28653 6.74817C10.3743 6.55636 11.1007 5.51904 10.9088 4.43126L12.8785 4.08396C13.0703 5.17175 14.1076 5.89809 15.1954 5.70628C16.2832 5.51447 17.0095 4.47716 16.8177 3.38937L18.7873 3.04207C18.9791 4.12986 20.0164 4.8562 21.1042 4.66439C22.192 4.47258 22.9183 3.43527 22.7265 2.34748L23.7113 2.17383C24.2552 2.07793 24.7739 2.4411 24.8698 2.98499L27.3009 16.7723C27.3968 17.3162 27.0336 17.8349 26.4897 17.9308L8.76318 21.0564C8.21928 21.1523 7.70063 20.7892 7.60472 20.2453L5.17365 6.45795C5.07774 5.91406 5.44091 5.3954 5.98481 5.2995L6.96962 5.12585C7.16142 6.21364 8.19874 6.93997 9.28653 6.74817Z"/>
</mask>
<path fill-rule="evenodd" clip-rule="evenodd" d="M9.28653 6.74817C10.3743 6.55636 11.1007 5.51904 10.9088 4.43126L12.8785 4.08396C13.0703 5.17175 14.1076 5.89809 15.1954 5.70628C16.2832 5.51447 17.0095 4.47716 16.8177 3.38937L18.7873 3.04207C18.9791 4.12986 20.0164 4.8562 21.1042 4.66439C22.192 4.47258 22.9183 3.43527 22.7265 2.34748L23.7113 2.17383C24.2552 2.07793 24.7739 2.4411 24.8698 2.98499L27.3009 16.7723C27.3968 17.3162 27.0336 17.8349 26.4897 17.9308L8.76318 21.0564C8.21928 21.1523 7.70063 20.7892 7.60472 20.2453L5.17365 6.45795C5.07774 5.91406 5.44091 5.3954 5.98481 5.2995L6.96962 5.12585C7.16142 6.21364 8.19874 6.93997 9.28653 6.74817Z" fill="white"/>
<path d="M10.9088 4.43126L10.822 3.93885L10.3296 4.02568L10.4164 4.51808L10.9088 4.43126ZM12.8785 4.08396L13.3709 3.99713L13.284 3.50473L12.7916 3.59156L12.8785 4.08396ZM16.8177 3.38937L16.7309 2.89696L16.2385 2.98379L16.3253 3.47619L16.8177 3.38937ZM18.7873 3.04207L19.2797 2.95525L19.1929 2.46284L18.7005 2.54967L18.7873 3.04207ZM22.7265 2.34748L22.6397 1.85507L22.1473 1.9419L22.2341 2.4343L22.7265 2.34748ZM24.8698 2.98499L25.3622 2.89817L24.8698 2.98499ZM27.3009 16.7723L26.8085 16.8591L27.3009 16.7723ZM26.4897 17.9308L26.5765 18.4232L26.4897 17.9308ZM8.76318 21.0564L8.67635 20.564L8.67635 20.564L8.76318 21.0564ZM6.96962 5.12585L7.46202 5.03902L7.3752 4.54662L6.88279 4.63344L6.96962 5.12585ZM10.4164 4.51808C10.5603 5.33392 10.0155 6.11191 9.1997 6.25576L9.37335 7.24057C10.7331 7.00081 11.641 5.70417 11.4013 4.34443L10.4164 4.51808ZM10.9957 4.92366L12.9653 4.57636L12.7916 3.59156L10.822 3.93885L10.9957 4.92366ZM15.1086 5.21388C14.2927 5.35773 13.5147 4.81298 13.3709 3.99713L12.3861 4.17078C12.6258 5.53052 13.9225 6.43844 15.2822 6.19868L15.1086 5.21388ZM16.3253 3.47619C16.4691 4.29203 15.9244 5.07002 15.1086 5.21388L15.2822 6.19868C16.6419 5.95892 17.5499 4.66228 17.3101 3.30254L16.3253 3.47619ZM16.9045 3.88177L18.8741 3.53447L18.7005 2.54967L16.7309 2.89696L16.9045 3.88177ZM18.2949 3.12889C18.5347 4.48863 19.8313 5.39655 21.191 5.15679L21.0174 4.17199C20.2016 4.31584 19.4236 3.77109 19.2797 2.95525L18.2949 3.12889ZM21.191 5.15679C22.5508 4.91704 23.4587 3.62039 23.2189 2.26065L22.2341 2.4343C22.378 3.25014 21.8332 4.02813 21.0174 4.17199L21.191 5.15679ZM22.8134 2.83988L23.7982 2.66623L23.6245 1.68143L22.6397 1.85507L22.8134 2.83988ZM23.7982 2.66623C24.0701 2.61828 24.3294 2.79987 24.3774 3.07181L25.3622 2.89817C25.2184 2.08232 24.4404 1.53757 23.6245 1.68143L23.7982 2.66623ZM24.3774 3.07181L26.8085 16.8591L27.7933 16.6855L25.3622 2.89817L24.3774 3.07181ZM26.8085 16.8591C26.8564 17.1311 26.6748 17.3904 26.4029 17.4384L26.5765 18.4232C27.3924 18.2793 27.9371 17.5013 27.7933 16.6855L26.8085 16.8591ZM26.4029 17.4384L8.67635 20.564L8.85 21.5488L26.5765 18.4232L26.4029 17.4384ZM8.67635 20.564C8.40441 20.612 8.14508 20.4304 8.09713 20.1584L7.11232 20.3321C7.25617 21.1479 8.03416 21.6927 8.85 21.5488L8.67635 20.564ZM8.09713 20.1584L5.66605 6.37113L4.68124 6.54478L7.11232 20.3321L8.09713 20.1584ZM5.66605 6.37113C5.6181 6.09918 5.79968 5.83985 6.07163 5.7919L5.89798 4.80709C5.08214 4.95095 4.53739 5.72893 4.68124 6.54478L5.66605 6.37113ZM6.07163 5.7919L7.05644 5.61825L6.88279 4.63344L5.89798 4.80709L6.07163 5.7919ZM9.1997 6.25576C8.38386 6.39962 7.60588 5.85487 7.46202 5.03902L6.47721 5.21267C6.71697 6.57241 8.01362 7.48033 9.37335 7.24057L9.1997 6.25576Z" fill="#262933" mask="url(#path-2-inside-1_2245_21476)"/>
<path fill-rule="evenodd" clip-rule="evenodd" d="M10.7929 9.52868L8.82324 9.87598L8.99689 10.8608L10.9665 10.5135L10.7929 9.52868ZM14.7321 8.83409L12.7625 9.18138L12.9361 10.1662L14.9057 9.8189L14.7321 8.83409ZM16.7017 8.48679L18.6713 8.13949L18.845 9.1243L16.8754 9.4716L16.7017 8.48679ZM22.6106 7.4449L20.6409 7.7922L20.8146 8.77701L22.7842 8.42971L22.6106 7.4449Z" fill="#262933"/>
<rect x="7" y="16" width="28" height="17" fill="#FFD21F"/>
<path d="M16.4608 23.7229C16.7781 23.7229 17.0604 23.7929 17.3078 23.9329C17.5551 24.0682 17.7465 24.2595 17.8818 24.5069C18.0171 24.7542 18.0848 25.0365 18.0848 25.3539C18.0848 25.6852 18.0032 25.9815 17.8398 26.2429C17.6812 26.5042 17.4618 26.7072 17.1818 26.8519C16.9065 26.9965 16.6055 27.0689 16.2788 27.0689C15.9428 27.0689 15.6372 26.9965 15.3618 26.8519C15.0865 26.7025 14.8695 26.4949 14.7108 26.2289C14.5522 25.9629 14.4728 25.6549 14.4728 25.3049C14.4728 25.0435 14.5218 24.7939 14.6198 24.5559C14.7178 24.3132 14.8904 23.9959 15.1378 23.6039L16.2437 21.8539L17.3427 21.8539L16.3418 23.3939C16.2624 23.5199 16.1761 23.6459 16.0828 23.7719C16.1948 23.7392 16.3208 23.7229 16.4608 23.7229ZM16.2718 26.1589C16.4912 26.1589 16.6685 26.0865 16.8038 25.9419C16.9391 25.7925 17.0068 25.6012 17.0068 25.3679C17.0068 25.1345 16.9391 24.9455 16.8038 24.8009C16.6685 24.6515 16.4911 24.5769 16.2718 24.5769C16.0478 24.5769 15.8681 24.6515 15.7328 24.8009C15.5975 24.9455 15.5298 25.1345 15.5298 25.3679C15.5298 25.6059 15.5975 25.7972 15.7328 25.9419C15.8728 26.0865 16.0525 26.1589 16.2718 26.1589ZM19.3069 25.8929C19.4889 25.8929 19.6429 25.9652 19.7689 26.1099C19.8949 26.2545 19.9579 26.4692 19.9579 26.7539C19.9579 27.0152 19.9019 27.2555 19.79 27.4749C19.678 27.6989 19.524 27.8809 19.328 28.0209C19.1366 28.1655 18.922 28.2589 18.684 28.3009L18.684 27.7829C18.88 27.7362 19.0363 27.6522 19.153 27.5309C19.2743 27.4095 19.3443 27.2579 19.3629 27.0759L19.3279 27.0759C19.1599 27.0759 19.0223 27.0199 18.9149 26.9079C18.8076 26.7912 18.7539 26.6489 18.7539 26.4809C18.7539 26.3175 18.8053 26.1799 18.9079 26.0679C19.0106 25.9512 19.1436 25.8929 19.3069 25.8929ZM22.5994 23.7229C22.9168 23.7229 23.1991 23.7929 23.4464 23.9329C23.6938 24.0682 23.8851 24.2595 24.0205 24.5069C24.1558 24.7542 24.2235 25.0365 24.2235 25.3539C24.2235 25.6852 24.1418 25.9815 23.9785 26.2429C23.8198 26.5042 23.6005 26.7072 23.3205 26.8519C23.0452 26.9965 22.7442 27.0689 22.4175 27.0689C22.0815 27.0689 21.7758 26.9965 21.5005 26.8519C21.2252 26.7025 21.0082 26.4949 20.8495 26.2289C20.6908 25.9629 20.6115 25.6549 20.6115 25.3049C20.6115 25.0435 20.6605 24.7939 20.7585 24.5559C20.8565 24.3132 21.0291 23.9959 21.2764 23.6039L22.3824 21.8539L23.4814 21.8539L22.4804 23.3939C22.4011 23.5199 22.3148 23.6459 22.2214 23.7719C22.3334 23.7392 22.4594 23.7229 22.5994 23.7229ZM22.4105 26.1589C22.6298 26.1589 22.8072 26.0865 22.9425 25.9419C23.0778 25.7925 23.1455 25.6012 23.1455 25.3679C23.1455 25.1345 23.0778 24.9455 22.9425 24.8009C22.8071 24.6515 22.6298 24.5769 22.4105 24.5769C22.1865 24.5769 22.0068 24.6515 21.8715 24.8009C21.7361 24.9455 21.6685 25.1345 21.6685 25.3679C21.6685 25.6059 21.7362 25.7972 21.8715 25.9419C22.0115 26.0865 22.1912 26.1589 22.4105 26.1589ZM26.8035 23.7229C27.1209 23.7229 27.4032 23.7929 27.6506 23.9329C27.8979 24.0682 28.0892 24.2595 28.2246 24.5069C28.3599 24.7542 28.4276 25.0365 28.4276 25.3539C28.4276 25.6852 28.3459 25.9815 28.1826 26.2429C28.0239 26.5042 27.8046 26.7072 27.5246 26.8519C27.2493 26.9965 26.9483 27.0689 26.6216 27.0689C26.2856 27.0689 25.9799 26.9965 25.7046 26.8519C25.4293 26.7025 25.2123 26.4949 25.0536 26.2289C24.8949 25.9629 24.8156 25.6549 24.8156 25.3049C24.8156 25.0435 24.8646 24.7939 24.9626 24.5559C25.0606 24.3132 25.2332 23.9959 25.4805 23.6039L26.5865 21.8539L27.6855 21.8539L26.6845 23.3939C26.6052 23.5199 26.5189 23.6459 26.4255 23.7719C26.5375 23.7392 26.6635 23.7229 26.8035 23.7229ZM26.6146 26.1589C26.8339 26.1589 27.0113 26.0865 27.1466 25.9419C27.2819 25.7925 27.3496 25.6012 27.3496 25.3679C27.3496 25.1345 27.2819 24.9455 27.1466 24.8009C27.0112 24.6515 26.8339 24.5769 26.6146 24.5769C26.3906 24.5769 26.2109 24.6515 26.0756 24.8009C25.9402 24.9455 25.8726 25.1345 25.8726 25.3679C25.8726 25.6059 25.9403 25.7972 26.0756 25.9419C26.2156 26.0865 26.3953 26.1589 26.6146 26.1589ZM31.0076 23.7229C31.325 23.7229 31.6073 23.7929 31.8547 23.9329C32.102 24.0682 32.2933 24.2595 32.4287 24.5069C32.564 24.7542 32.6317 25.0365 32.6317 25.3539C32.6317 25.6852 32.55 25.9815 32.3867 26.2429C32.228 26.5042 32.0087 26.7072 31.7287 26.8519C31.4534 26.9965 31.1524 27.0689 30.8257 27.0689C30.4897 27.0689 30.184 26.9965 29.9087 26.8519C29.6334 26.7025 29.4164 26.4949 29.2577 26.2289C29.099 25.9629 29.0197 25.6549 29.0197 25.3049C29.0197 25.0435 29.0687 24.7939 29.1667 24.5559C29.2647 24.3132 29.4373 23.9959 29.6846 23.6039L30.7906 21.8539L31.8896 21.8539L30.8886 23.3939C30.8093 23.5199 30.723 23.6459 30.6296 23.7719C30.7416 23.7392 30.8676 23.7229 31.0076 23.7229ZM30.8187 26.1589C31.038 26.1589 31.2154 26.0865 31.3507 25.9419C31.486 25.7925 31.5537 25.6012 31.5537 25.3679C31.5537 25.1345 31.486 24.9455 31.3507 24.8009C31.2153 24.6515 31.038 24.5769 30.8187 24.5769C30.5947 24.5769 30.415 24.6515 30.2797 24.8009C30.1443 24.9455 30.0767 25.1345 30.0767 25.3679C30.0767 25.6059 30.1444 25.7972 30.2797 25.9419C30.4197 26.0865 30.5994 26.1589 30.8187 26.1589Z" fill="#262933"/>
<path d="M11.5059 21.5029L11.5059 22.2835" stroke="#262933" stroke-linecap="round" stroke-linejoin="round"/>
<path d="M11.502 26.7432L11.502 27.4922" stroke="#262933" stroke-linecap="round" stroke-linejoin="round"/>
<path d="M12.6806 22.5151L10.9478 22.5151C10.4244 22.5151 10.0001 22.9394 10.0001 23.4629L10.0001 23.5591C10.0001 24.0825 10.4244 24.5068 10.9478 24.5068L12.18 24.5068C12.7035 24.5068 13.1278 24.9311 13.1278 25.4546L13.1278 25.5508C13.1278 26.0742 12.7035 26.4985 12.1801 26.4985L10.3235 26.4985" stroke="#262933" stroke-linecap="round" stroke-linejoin="round"/>
<rect x="-0.25" y="0.25" width="1.5" height="16.5" transform="matrix(-1 4.88565e-08 2.1714e-08 1 6.5 16)" fill="#262933" stroke="#262933" stroke-width="0.5"/>
</svg>
