<svg width="57" height="56" viewBox="0 0 57 56" fill="none" xmlns="http://www.w3.org/2000/svg">
<g clip-path="url(#clip0_98_35838)">
<path fill-rule="evenodd" clip-rule="evenodd" d="M28.5 56C43.964 56 56.5 43.464 56.5 28C56.5 12.536 43.964 0 28.5 0C13.036 0 0.5 12.536 0.5 28C0.5 43.464 13.036 56 28.5 56ZM42.6978 22.5168C43.4147 21.8281 43.4375 20.6886 42.7488 19.9717C42.0601 19.2548 40.9207 19.232 40.2038 19.9207L24.7528 34.7642L16.8582 26.4216C16.1749 25.6995 15.0357 25.668 14.3136 26.3513C13.5915 27.0346 13.5601 28.1739 14.2434 28.8959L23.3845 38.5559C23.7143 38.9044 24.1695 39.1068 24.6491 39.1182C25.1287 39.1297 25.593 38.9492 25.939 38.6168L42.6978 22.5168Z" fill="#03AA65"/>
</g>
<defs>
<clipPath id="clip0_98_35838">
<rect width="56" height="56" fill="white" transform="translate(0.5)"/>
</clipPath>
</defs>
</svg>
