<svg xmlns="http://www.w3.org/2000/svg" width="28" height="29" fill="none" viewBox="0 0 28 29">
  <path stroke="#262933" stroke-linecap="round" stroke-width="1.75" d="M12.688 24.5H6.125A2.625 2.625 0 0 1 3.5 21.875V7.125A2.625 2.625 0 0 1 6.125 4.5h12.75A2.625 2.625 0 0 1 21.5 7.125v1.958"/>
  <path stroke="#262933" stroke-linecap="round" stroke-linejoin="round" stroke-width="1.75" d="M7.875 10.125h8.75m-8.75 5.25h5.25"/>
  <path stroke="#262933" stroke-linecap="round" stroke-width="1.575" d="m19.29 23.69-2.375 1.87a.39.39 0 0 1-.627-.362l.431-2.992a1.05 1.05 0 0 1 .13-.376l4.968-8.604a1.56 1.56 0 1 1 2.702 1.56L19.55 23.39a1.051 1.051 0 0 1-.26.3Z"/>
</svg>
