<svg width="32" height="32" viewBox="0 0 32 32" fill="none" xmlns="http://www.w3.org/2000/svg">
<path fill-rule="evenodd" clip-rule="evenodd" d="M25.0476 19.0039C24.9177 18.6467 25.0595 18.2505 25.368 18.0284C27.6034 16.4192 29.0589 13.7944 29.0589 10.8297C29.0589 5.93433 25.0904 1.96582 20.195 1.96582C15.2996 1.96582 11.3311 5.93433 11.3311 10.8297C11.3311 14.0269 13.0237 16.8287 15.5618 18.3878C15.9061 18.5994 16.0753 19.0193 15.9372 19.3991L12.46 28.9615C12.2703 29.4832 12.6567 30.0349 13.2118 30.0349H27.9167C28.4719 30.0349 28.8583 29.4832 28.6685 28.9615L25.0476 19.0039Z" fill="white"/>
<path d="M15.5618 18.3878L16.0329 17.621L15.5618 18.3878ZM28.6685 28.9615L27.8227 29.269L28.6685 28.9615ZM25.368 18.0284L25.8938 18.7588L25.368 18.0284ZM28.1589 10.8297C28.1589 13.4927 26.8527 15.8506 24.8422 17.298L25.8938 18.7588C28.354 16.9878 29.9589 14.0961 29.9589 10.8297H28.1589ZM20.195 2.86582C24.5933 2.86582 28.1589 6.43139 28.1589 10.8297H29.9589C29.9589 5.43727 25.5874 1.06582 20.195 1.06582V2.86582ZM12.2311 10.8297C12.2311 6.43139 15.7966 2.86582 20.195 2.86582V1.06582C14.8025 1.06582 10.4311 5.43727 10.4311 10.8297H12.2311ZM16.0329 17.621C13.7502 16.2187 12.2311 13.7012 12.2311 10.8297H10.4311C10.4311 14.3525 12.2973 17.4386 15.0907 19.1547L16.0329 17.621ZM13.3058 29.269L16.783 19.7067L15.0914 19.0915L11.6142 28.6539L13.3058 29.269ZM27.9167 29.1349H13.2118V30.9349H27.9167V29.1349ZM24.2018 19.3114L27.8227 29.269L29.5143 28.6539L25.8934 18.6963L24.2018 19.3114ZM11.6142 28.6539C11.211 29.7626 12.0321 30.9349 13.2118 30.9349V29.1349C13.2812 29.1349 13.3295 29.2038 13.3058 29.269L11.6142 28.6539ZM15.0907 19.1547C15.0933 19.1563 15.0917 19.1569 15.0893 19.1505C15.0878 19.1465 15.0856 19.1389 15.0854 19.1277C15.0852 19.1159 15.0872 19.1031 15.0914 19.0915L16.783 19.7067C17.0818 18.885 16.7037 18.0331 16.0329 17.621L15.0907 19.1547ZM27.9167 30.9349C29.0964 30.9349 29.9175 29.7626 29.5143 28.6539L27.8227 29.269C27.799 29.2038 27.8473 29.1349 27.9167 29.1349V30.9349ZM24.8422 17.298C24.239 17.7322 23.921 18.5395 24.2018 19.3114L25.8934 18.6963C25.8974 18.7074 25.8994 18.7194 25.8995 18.7305C25.8995 18.7411 25.8977 18.7486 25.8963 18.7529C25.8938 18.7601 25.8917 18.7603 25.8938 18.7588L24.8422 17.298Z" fill="black"/>
<path d="M13.8152 13.2561C15.1038 13.8516 16.6916 13.872 18.0091 13.6956C18.4525 13.6363 18.901 14.4246 18.6029 14.7582C17.7449 15.7185 16.8802 16.9023 16.6344 17.9978C16.3151 19.421 16.5318 21.6576 16.7895 23.2702C16.852 23.6615 16.342 23.9503 16.0338 23.7012C14.981 22.8504 13.4195 21.7637 11.8011 21.1122C10.1654 20.4537 8.20443 20.4436 6.79848 20.5951C6.40186 20.6379 6.10377 20.1071 6.35972 19.8011C7.34775 18.62 8.57838 16.9381 9.02764 15.5927C9.44708 14.3366 9.21982 12.5501 8.89196 11.1608C8.79633 10.7555 9.34665 10.39 9.67583 10.645C10.7827 11.5024 12.3206 12.5654 13.8152 13.2561Z" fill="#A7F757" stroke="black" stroke-width="1.8" stroke-linejoin="round"/>
<path d="M1.73002 11.2221L5.94287 13.4102" stroke="black" stroke-width="1.8" stroke-linecap="round"/>
<path d="M19.6763 20.5424L23.8892 22.7305" stroke="black" stroke-width="1.8" stroke-linecap="round"/>
<path d="M18.5641 5.89677L16.376 10.1096" stroke="black" stroke-width="1.8" stroke-linecap="round"/>
<path d="M9.24301 23.8428L7.05493 28.0557" stroke="black" stroke-width="1.8" stroke-linecap="round"/>
</svg>
