<svg width="343" height="247" viewBox="0 0 343 247" fill="none" xmlns="http://www.w3.org/2000/svg">
<rect x="0.5" y="0.5" width="165" height="246" rx="7.5" fill="white"/>
<rect x="0.5" y="0.5" width="165" height="246" rx="7.5" stroke="#F2F3F4"/>
<rect x="16" y="16" width="46" height="13" rx="4" fill="#F2F3F4"/>
<rect x="16" y="37" width="133.5" height="21" rx="4" fill="#F2F3F4"/>
<rect x="16" y="62" width="134" height="21" rx="4" fill="#F2F3F4"/>
<rect x="16" y="167" width="64" height="64" rx="4" fill="#F2F3F4"/>
<rect x="178.5" y="0.5" width="164" height="128" rx="7.5" fill="white"/>
<rect x="178.5" y="0.5" width="164" height="128" rx="7.5" stroke="#F2F3F4"/>
<rect x="194" y="16" width="46" height="13" rx="4" fill="#F2F3F4"/>
<path fill-rule="evenodd" clip-rule="evenodd" d="M204.5 64.6456C197.113 62.7109 192.548 55.1142 194.35 47.6329C196.288 40.1135 203.886 35.5491 211.5 37.3544C218.887 39.2888 223.451 46.8863 221.65 54.3671C219.711 61.8871 212.113 66.4506 204.5 64.6456Z" fill="#F2F3F4"/>
<rect x="230" y="37" width="97" height="28" rx="4" fill="#F2F3F4"/>
<rect x="194" y="80" width="133" height="33" rx="4" fill="#F2F3F4"/>
<rect x="178.5" y="141.5" width="164" height="105" rx="7.5" fill="white"/>
<rect x="178.5" y="141.5" width="164" height="105" rx="7.5" stroke="#F2F3F4"/>
<path fill-rule="evenodd" clip-rule="evenodd" d="M204.5 184.646C197.113 182.711 192.548 175.114 194.35 167.633C196.288 160.113 203.886 155.549 211.5 157.354C218.887 159.289 223.451 166.886 221.65 174.367C219.711 181.887 212.113 186.451 204.5 184.646Z" fill="#F2F3F4"/>
<rect x="194" y="193" width="133" height="38" rx="4" fill="#F2F3F4"/>
</svg>
