<svg width="16" height="16" viewBox="0 0 16 16" fill="none" xmlns="http://www.w3.org/2000/svg">
<path fill-rule="evenodd" clip-rule="evenodd" d="M7.48476 9.51524L9.51524 7.48476C9.30078 6.8539 8.70341 6.40002 8.00002 6.40002C7.11637 6.40002 6.40002 7.11637 6.40002 8.00002C6.40002 8.70341 6.8539 9.30078 7.48476 9.51524Z" fill="#8E949E"/>
<path fill-rule="evenodd" clip-rule="evenodd" d="M11.0519 3.32684C10.0737 2.97426 9.03283 2.79999 8.00003 2.79999C5.37679 2.79999 2.70145 3.92427 1.13406 6.23903C0.416089 7.29934 0.416088 8.70063 1.13406 9.76095C1.61009 10.464 2.18833 11.0572 2.83627 11.5424L3.83919 10.5395C3.24109 10.1204 2.71474 9.59838 2.2933 8.97599C1.89634 8.38975 1.89634 7.61022 2.2933 7.02398C3.55317 5.16338 5.75055 4.19999 8.00003 4.19999C8.65653 4.19999 9.30858 4.28204 9.93419 4.44451L11.0519 3.32684ZM6.89912 11.7222C7.26206 11.774 7.63034 11.8 8.00003 11.8C10.2495 11.8 12.4469 10.8366 13.7068 8.97599C14.1037 8.38975 14.1037 7.61022 13.7068 7.02398C13.4222 6.60378 13.0899 6.22934 12.7199 5.90142L13.7119 4.90948C14.1402 5.29798 14.5287 5.74094 14.866 6.23903C15.584 7.29934 15.584 8.70063 14.866 9.76095C13.2986 12.0757 10.6233 13.2 8.00003 13.2C7.23213 13.2 6.45977 13.1036 5.71203 12.9093L6.89912 11.7222Z" fill="#8E949E"/>
<path d="M3 13.5L14 2.5" stroke="#8E949E" stroke-width="1.4" stroke-linecap="round"/>
</svg>
