<svg width="14" height="14" viewBox="0 0 14 14" fill="none" xmlns="http://www.w3.org/2000/svg">
<g clip-path="url(#clip0_2829_71784)">
<mask id="mask0_2829_71784" style="mask-type:luminance" maskUnits="userSpaceOnUse" x="0" y="0" width="14" height="14">
<path d="M14 7C14 3.13401 10.866 0 7 0C3.13401 0 0 3.13401 0 7C0 10.866 3.13401 14 7 14C10.866 14 14 10.866 14 7Z" fill="white"/>
</mask>
<g mask="url(#mask0_2829_71784)">
<path d="M14 7C14 3.13401 10.866 0 7 0C3.13401 0 0 3.13401 0 7C0 10.866 3.13401 14 7 14C10.866 14 14 10.866 14 7Z" fill="#070808"/>
<path d="M1 7.6C1.29309 10.5371 3.71459 12.8511 6.70821 12.9929L7 13C5.43662 13 4.15127 10.632 4 7.6H1ZM10 7.6C9.84873 10.632 8.56338 13 7 13C10.1268 13 12.6975 10.632 13 7.6H10ZM5.20821 7.6C5.27784 8.85638 5.56115 9.93981 5.94648 10.7067C6.4279 11.6644 6.87034 11.8 7 11.8C7.12966 11.8 7.5721 11.6644 8.05352 10.7067C8.43885 9.93981 8.72216 8.85638 8.79179 7.6H5.20821ZM7 1C3.87323 1 1.30256 3.36802 1 6.4H4C4.15127 3.36801 5.43662 1 7 1ZM7 2.2C6.87032 2.2 6.428 2.33631 5.94648 3.29453C5.56128 4.06133 5.27783 5.14389 5.20821 6.4H8.79179C8.72217 5.14389 8.43872 4.06133 8.05352 3.29453C7.572 2.33631 7.12968 2.2 7 2.2ZM7 1C8.56338 1 9.84873 3.36801 10 6.4H13C12.6975 3.36802 10.1268 1 7 1Z" fill="white"/>
</g>
</g>
<defs>
<clipPath id="clip0_2829_71784">
<rect width="14" height="14" fill="white"/>
</clipPath>
</defs>
</svg>
