<svg width="16" height="16" viewBox="0 0 16 16" fill="none" xmlns="http://www.w3.org/2000/svg">
<path d="M1 2.5H14" stroke="#262933" stroke-width="1.4" stroke-linecap="round"/>
<path d="M1.09998 8H5.09998" stroke="#262933" stroke-width="1.4" stroke-linecap="round"/>
<path d="M1.09998 13.5H5.09998" stroke="#262933" stroke-width="1.4" stroke-linecap="round"/>
<path d="M14.85 12.1067C14.85 12.2692 14.7623 12.4192 14.6206 12.4989L11.7206 14.1301C11.5836 14.2072 11.4164 14.2072 11.2794 14.1301L8.37938 12.4989C8.23769 12.4192 8.15 12.2692 8.15 12.1067L8.15 8.89333C8.15 8.73076 8.23769 8.58083 8.37938 8.50112L11.2794 6.86987L10.9607 6.30335L11.2794 6.86987C11.4164 6.79282 11.5836 6.79282 11.7206 6.86987L14.6206 8.50112C14.7623 8.58083 14.85 8.73076 14.85 8.89333L14.85 12.1067Z" stroke="#262933" stroke-width="1.3" stroke-linejoin="round"/>
<circle cx="11.5" cy="10.5" r="1" fill="#262933"/>
</svg>
