<svg width="121" height="120" viewBox="0 0 121 120" fill="none" xmlns="http://www.w3.org/2000/svg">
<rect width="120" height="120" transform="translate(0.5)" fill="white"/>
<path d="M16.4489 22.9876C16.7082 19.0479 19.9859 15.9326 23.9913 15.9326H36.0854C38.0336 15.9326 39.6129 17.5119 39.6129 19.4601C39.6129 21.4083 38.0336 22.9876 36.0855 22.9876H16.4489Z" fill="#262933" stroke="#262933" stroke-width="1.00785"/>
<path d="M80.5814 15.4287H25.3569C30.2923 18.335 31.6971 20.5399 31.3814 25.5586V71.0178L31.4269 88.9325C31.3968 89.3005 31.3814 89.6726 31.3814 90.0483V91.0499C31.3814 97.3625 35.7179 102.665 41.5814 104.154C42.6543 104.427 43.7785 104.572 44.9365 104.572H95.6426V30.4528C95.6426 22.1552 88.8995 15.4287 80.5814 15.4287Z" fill="white"/>
<path d="M31.8823 89.3478C31.8823 89.3478 31.8372 90.0921 31.8372 90.4699M43.2368 104.572H95.1442L95.6426 30.5377C95.6426 22.1932 88.9473 15.4287 80.6882 15.4287L25.3569 15.9323C30.2573 18.8551 32.1506 20.5688 31.8372 25.6158V73.3794" stroke="#262933" stroke-width="0.857143" stroke-linecap="round"/>
<path d="M43.9321 95.1429C43.9321 90.6457 47.5778 87 52.075 87H60.4321C62.6807 87 64.5036 88.8228 64.5036 91.0714C64.5036 93.32 62.6807 95.1429 60.4321 95.1429H43.9321Z" fill="#262933"/>
<path d="M60.2141 96.0001V94.9053C60.2141 90.7761 56.8667 87.4287 52.7375 87.4287H100.786C105.519 87.4287 109.357 91.2663 109.357 96.0001C109.357 100.734 105.519 104.572 100.786 104.572H51.6427C56.3766 104.572 60.2141 100.734 60.2141 96.0001Z" fill="white" stroke="#262933" stroke-width="0.857143" stroke-linejoin="round"/>
<path d="M38.7893 57.127H72.2179" stroke="#DCDCDC" stroke-width="1.71429"/>
<path d="M38.7893 63.9844H59.3607" stroke="#DCDCDC" stroke-width="1.71429"/>
<mask id="path-8-inside-1_893_34801" fill="white">
<path d="M11.6389 77.1436L39.0524 77.1436L39.0524 86.2814L11.6389 86.2814L11.6389 77.1436Z"/>
</mask>
<path d="M11.6389 77.1436L39.0524 77.1436L39.0524 86.2814L11.6389 86.2814L11.6389 77.1436Z" fill="#FFD21F"/>
<path d="M11.6389 78.1514L39.0524 78.1514L39.0524 76.1357L11.6389 76.1357L11.6389 78.1514Z" fill="#262933" mask="url(#path-8-inside-1_893_34801)"/>
<path d="M16.2078 78.667L20.0152 78.667L20.0152 86.2819L16.2078 86.2819L16.2078 78.667Z" fill="white"/>
<mask id="path-11-inside-2_893_34801" fill="white">
<path d="M4.78564 86.2812L34.4836 86.2812L34.4836 95.4191L4.78564 95.4191L4.78564 86.2812Z"/>
</mask>
<path d="M4.78564 86.2812L34.4836 86.2812L34.4836 95.4191L4.78564 95.4191L4.78564 86.2812Z" fill="#FFD21F"/>
<path d="M4.78564 87.2891L34.4836 87.2891L34.4836 85.2734L4.78564 85.2734L4.78564 87.2891Z" fill="#262933" mask="url(#path-11-inside-2_893_34801)"/>
<path d="M9.35449 87.8047L13.1619 87.8047L13.1619 95.4195L9.35449 95.4195L9.35449 87.8047Z" fill="white"/>
<mask id="path-14-inside-3_893_34801" fill="white">
<path d="M11.6389 95.4189L39.0524 95.4189L39.0524 104.557L11.6389 104.557L11.6389 95.4189Z"/>
</mask>
<path d="M11.6389 95.4189L39.0524 95.4189L39.0524 104.557L11.6389 104.557L11.6389 95.4189Z" fill="#FFD21F"/>
<path d="M11.6389 96.4268L39.0524 96.4268L39.0524 94.4111L11.6389 94.4111L11.6389 96.4268Z" fill="#262933" mask="url(#path-14-inside-3_893_34801)"/>
<path d="M16.2078 96.9424L20.0152 96.9424L20.0152 104.557L16.2078 104.557L16.2078 96.9424Z" fill="white"/>
<mask id="path-17-inside-4_893_34801" fill="white">
<path fill-rule="evenodd" clip-rule="evenodd" d="M102.734 15.8258C103.681 14.186 105.777 13.6241 107.417 14.5709L113.356 17.9995C114.996 18.9462 115.557 21.0431 114.611 22.683L111.182 28.6214L111.182 28.6214L89.7535 65.7368L89.7533 65.7367L89.3249 66.4787C88.0372 68.7092 82.7365 70.249 80.1312 70.8865C79.2981 71.0904 78.4686 70.6104 78.2297 69.7867C77.4817 67.208 76.168 61.8385 77.4479 59.6216L78.3051 58.137L78.3053 58.1371L99.3052 21.7643L99.3052 21.7643L102.734 15.8258Z"/>
</mask>
<path fill-rule="evenodd" clip-rule="evenodd" d="M102.734 15.8258C103.681 14.186 105.777 13.6241 107.417 14.5709L113.356 17.9995C114.996 18.9462 115.557 21.0431 114.611 22.683L111.182 28.6214L111.182 28.6214L89.7535 65.7368L89.7533 65.7367L89.3249 66.4787C88.0372 68.7092 82.7365 70.249 80.1312 70.8865C79.2981 71.0904 78.4686 70.6104 78.2297 69.7867C77.4817 67.208 76.168 61.8385 77.4479 59.6216L78.3051 58.137L78.3053 58.1371L99.3052 21.7643L99.3052 21.7643L102.734 15.8258Z" fill="white"/>
<path d="M107.417 14.5709L107.846 13.8286L107.417 14.5709ZM113.356 17.9995L112.927 18.7418L113.356 17.9995ZM111.182 28.6214L110.691 29.3238L111.457 29.8597L111.924 29.05L111.182 28.6214ZM111.182 28.6214L111.673 27.919L110.907 27.3832L110.44 28.1929L111.182 28.6214ZM89.7535 65.7368L89.3249 66.4791L90.0672 66.9077L90.4958 66.1654L89.7535 65.7368ZM89.7533 65.7367L90.1819 64.9944L89.4396 64.5658L89.011 65.3081L89.7533 65.7367ZM89.3249 66.4787L90.0672 66.9073L90.0672 66.9073L89.3249 66.4787ZM80.1312 70.8865L79.9275 70.054L79.9275 70.054L80.1312 70.8865ZM78.2297 69.7867L79.0529 69.548L79.0529 69.548L78.2297 69.7867ZM77.4479 59.6216L76.7056 59.193L76.7056 59.193L77.4479 59.6216ZM78.3051 58.137L78.7337 57.3947L77.9914 56.9661L77.5628 57.7084L78.3051 58.137ZM78.3053 58.1371L77.8767 58.8794L78.619 59.308L79.0476 58.5657L78.3053 58.1371ZM99.3052 21.7643L99.7948 21.0607L99.0292 20.528L98.5629 21.3357L99.3052 21.7643ZM99.3052 21.7643L98.8156 22.4678L99.5811 23.0006L100.047 22.1929L99.3052 21.7643ZM107.846 13.8286C105.796 12.6451 103.175 13.3474 101.991 15.3973L103.476 16.2544C104.186 15.0245 105.759 14.6031 106.989 15.3132L107.846 13.8286ZM113.784 17.2572L107.846 13.8286L106.989 15.3132L112.927 18.7418L113.784 17.2572ZM115.353 23.1116C116.536 21.0617 115.834 18.4406 113.784 17.2572L112.927 18.7418C114.157 19.4519 114.578 21.0245 113.868 22.2544L115.353 23.1116ZM111.924 29.05L115.353 23.1116L113.868 22.2544L110.44 28.1929L111.924 29.05ZM110.691 29.3238L110.691 29.3238L111.673 27.9191L111.673 27.919L110.691 29.3238ZM90.4958 66.1654L111.924 29.05L110.44 28.1929L89.0112 65.3082L90.4958 66.1654ZM89.3247 66.479L89.3249 66.4791L90.1821 64.9945L90.1819 64.9944L89.3247 66.479ZM89.011 65.3081L88.5826 66.0502L90.0672 66.9073L90.4956 66.1653L89.011 65.3081ZM88.5826 66.0502C88.358 66.4392 87.9132 66.8646 87.2438 67.3005C86.5859 67.7288 85.7743 68.1269 84.8967 68.487C83.1423 69.207 81.2128 69.7394 79.9275 70.054L80.3349 71.7191C81.6549 71.3961 83.6784 70.8399 85.5475 70.073C86.4818 69.6896 87.3996 69.2447 88.1792 68.7371C88.9472 68.237 89.6479 67.6335 90.0672 66.9073L88.5826 66.0502ZM79.9275 70.054C79.5408 70.1486 79.1639 69.9308 79.0529 69.548L77.4064 70.0255C77.7732 71.2901 79.0555 72.0322 80.3349 71.7191L79.9275 70.054ZM79.0529 69.548C78.6838 68.2755 78.1815 66.3348 77.9278 64.4539C77.8009 63.5131 77.7395 62.6109 77.7809 61.8277C77.8229 61.0302 77.968 60.4351 78.1902 60.0501L76.7056 59.193C76.2879 59.9165 76.1171 60.8239 76.0689 61.7373C76.02 62.665 76.0938 63.682 76.2289 64.683C76.499 66.6858 77.0276 68.7192 77.4064 70.0255L79.0529 69.548ZM78.1902 60.0502L79.0474 58.5656L77.5628 57.7084L76.7056 59.193L78.1902 60.0502ZM77.8765 58.8793L77.8767 58.8794L78.7339 57.3948L78.7337 57.3947L77.8765 58.8793ZM98.5629 21.3357L77.563 57.7085L79.0476 58.5657L100.047 22.1929L98.5629 21.3357ZM99.7948 21.0608L99.7948 21.0607L98.8156 22.4678L98.8156 22.4678L99.7948 21.0608ZM101.991 15.3973L98.5629 21.3357L100.047 22.1929L103.476 16.2544L101.991 15.3973Z" fill="#262933" mask="url(#path-17-inside-4_893_34801)"/>
<path d="M103.105 16.04C103.933 14.6051 105.768 14.1135 107.203 14.9419L113.141 18.3705C114.576 19.1989 115.068 21.0337 114.239 22.4685L111.738 26.8009C111.731 26.8025 111.723 26.8041 111.715 26.8057C111.598 26.8276 111.353 26.8447 110.915 26.7632C110.034 26.599 108.438 26.0472 105.672 24.4504C102.907 22.8536 101.63 21.7469 101.048 21.0665C100.758 20.7283 100.651 20.507 100.611 20.3949C100.608 20.3868 100.606 20.3793 100.604 20.3724L103.105 16.04Z" fill="white" stroke="#262933" stroke-width="0.857143"/>
<path fill-rule="evenodd" clip-rule="evenodd" d="M83.3965 68.9947C82.1159 69.5384 80.7647 69.978 79.9272 70.2324C79.4724 70.3706 79.0039 70.0996 78.8966 69.6366C78.6993 68.7844 78.4059 67.3953 78.2366 66.0156L83.3965 68.9947Z" fill="#262933"/>
</svg>
