<svg width="16" height="16" viewBox="0 0 16 16" fill="none" xmlns="http://www.w3.org/2000/svg">
<path d="M6.86486 13.8697H2.97915C2.08498 13.8697 1.36011 13.1448 1.36011 12.2506V4.15542C1.36011 3.26125 2.08498 2.53638 2.97915 2.53638H12.6934C13.5876 2.53638 14.3125 3.26125 14.3125 4.15542V6.58399" stroke="#262933" stroke-width="1.28" stroke-linecap="round"/>
<path d="M10.7505 1.20874V4.12302" stroke="#262933" stroke-width="1.28" stroke-linecap="round" stroke-linejoin="round"/>
<path d="M4.922 1.20874V4.12302" stroke="#262933" stroke-width="1.28" stroke-linecap="round" stroke-linejoin="round"/>
<path d="M13.0082 10.271L13.6981 9.51435C13.7795 9.42506 13.7684 9.28482 13.6681 9.21747C13.2044 8.90621 12.6463 8.72461 12.0459 8.72461C10.4364 8.72461 9.13159 10.0294 9.13159 11.6389C9.13159 12.0354 9.21077 12.4134 9.35418 12.7579M11.4214 13.3042L10.7744 13.9718C10.6801 14.069 10.7024 14.2293 10.8254 14.2861C11.1966 14.4575 11.6101 14.5532 12.0459 14.5532C13.6554 14.5532 14.9602 13.2484 14.9602 11.6389C14.9602 11.4213 14.9363 11.2093 14.8911 11.0053" stroke="#262933" stroke-width="1.2" stroke-linecap="round"/>
</svg>
