<svg width="20" height="20" viewBox="0 0 20 20" fill="none" xmlns="http://www.w3.org/2000/svg">
<path fill-rule="evenodd" clip-rule="evenodd" d="M0.699951 9.99995C0.699951 4.8637 4.8637 0.699951 9.99995 0.699951C15.1362 0.699951 19.2999 4.8637 19.2999 9.99995C19.2999 15.1362 15.1362 19.2999 9.99995 19.2999C4.8637 19.2999 0.699951 15.1362 0.699951 9.99995ZM9.99995 2.29995C5.74736 2.29995 2.29995 5.74736 2.29995 9.99995C2.29995 14.2525 5.74736 17.7 9.99995 17.7C14.2525 17.7 17.6999 14.2525 17.6999 9.99995C17.6999 5.74736 14.2525 2.29995 9.99995 2.29995Z" fill="#262933"/>
<circle cx="9.99998" cy="6.13828" r="1.15" fill="#262933"/>
<path d="M9.99976 9.45508L10.0001 14.6245" stroke="#262933" stroke-width="1.8" stroke-linecap="round" stroke-linejoin="round"/>
</svg>
