<svg width="24" height="24" viewBox="0 0 24 24" fill="none" xmlns="http://www.w3.org/2000/svg">
<path d="M7.02441 13C7.27527 18.0533 9.40732 22 12 22C14.5927 22 16.7247 18.0533 16.9756 13H21.9502C21.4485 18.0533 17.1853 22 12 22C6.81467 22 2.55155 18.0533 2.0498 13H7.02441Z" fill="#303236"/>
<path d="M14.9717 13C14.8562 15.094 14.3861 16.8987 13.7471 18.1768C12.9486 19.7738 12.2151 20 12 20C11.7849 20 11.0514 19.7738 10.2529 18.1768C9.61392 16.8987 9.14381 15.094 9.02832 13H14.9717Z" fill="#303236"/>
<path d="M12 2C17.1853 2 21.4485 5.9467 21.9502 11H16.9756C16.7247 5.94667 14.5927 2 12 2Z" fill="#303236"/>
<path d="M12 2C9.40732 2 7.27527 5.94667 7.02441 11H2.0498C2.55155 5.9467 6.81467 2 12 2Z" fill="#303236"/>
<path d="M12 4C12.2151 4 12.9486 4.22621 13.7471 5.82324C14.3861 7.1013 14.8562 8.90603 14.9717 11H9.02832C9.14381 8.90603 9.61392 7.1013 10.2529 5.82324C11.0514 4.22621 11.7849 4 12 4Z" fill="#303236"/>
</svg>
