<svg width="36" height="36" viewBox="0 0 36 36" fill="none" xmlns="http://www.w3.org/2000/svg">
<circle cx="18" cy="18" r="18" fill="#F2F3F4"/>
<path fill-rule="evenodd" clip-rule="evenodd" d="M17.9997 10.083C18.4599 10.083 18.833 10.4561 18.833 10.9163L18.833 22.9764L23.6424 17.8464C23.9572 17.5106 24.4845 17.4936 24.8203 17.8084C25.156 18.1232 25.173 18.6505 24.8583 18.9863L18.6083 25.653C18.4507 25.821 18.2307 25.9163 18.0003 25.9163C17.77 25.9163 17.5499 25.821 17.3924 25.653L11.1424 18.9863C10.8276 18.6505 10.8446 18.1232 11.1804 17.8084C11.5161 17.4936 12.0435 17.5106 12.3583 17.8464L17.1663 22.975L17.1663 10.9163C17.1663 10.4561 17.5394 10.083 17.9997 10.083Z" fill="#303236"/>
</svg>
