<svg width="36" height="36" viewBox="0 0 36 36" fill="none" xmlns="http://www.w3.org/2000/svg">
<rect width="36" height="36" rx="18" fill="#F2F3F4"/>
<path fill-rule="evenodd" clip-rule="evenodd" d="M21.5955 11.0007C21.7488 11.3197 21.6839 11.7007 21.4337 11.9509L11.9509 21.4337C11.6255 21.7591 11.0978 21.7591 10.7724 21.4337C10.447 21.1083 10.447 20.5806 10.7724 20.2552L18.5753 12.4523L15.2468 12.8221C14.7894 12.8729 14.3773 12.5433 14.3265 12.0859C14.2757 11.6285 14.6053 11.2165 15.0627 11.1656L20.7524 10.5334C21.1041 10.4944 21.4422 10.6817 21.5955 11.0007ZM25.2267 14.5656C25.5522 14.891 25.5522 15.4186 25.2267 15.7441L17.4238 23.547L20.7523 23.1772C21.2098 23.1263 21.6218 23.456 21.6726 23.9134C21.7234 24.3708 21.3938 24.7828 20.9364 24.8336L15.2467 25.4658C14.895 25.5049 14.5569 25.3176 14.4036 24.9986C14.2503 24.6796 14.3152 24.2986 14.5654 24.0483L24.0482 14.5656C24.3736 14.2401 24.9013 14.2401 25.2267 14.5656Z" fill="#303236"/>
</svg>
