<svg width="40" height="41" viewBox="0 0 40 41" fill="none" xmlns="http://www.w3.org/2000/svg">
<path d="M0 20.5C0 9.45431 8.95431 0.5 20 0.5C31.0457 0.5 40 9.45431 40 20.5C40 31.5457 31.0457 40.5 20 40.5C8.95431 40.5 0 31.5457 0 20.5Z" fill="#ADF73E"/>
<path d="M27.7832 16.6504V17.6094L18.3604 27.0322V30H10.7832V11H22.0889L27.7832 16.6504ZM13.7812 17.1475H21.1699V14.6475H13.7812V17.1475Z" fill="black"/>
<path d="M27.8213 25.0137L22.835 30L22.8291 29.9941H20.3604V27.5244L25.3467 22.5381L27.8213 25.0137Z" fill="black"/>
<path d="M29.9785 22.8545L28.4658 24.3682L25.9902 21.8936L27.5039 20.3799L29.9785 22.8545Z" fill="black"/>
</svg>
