<svg width="40" height="40" viewBox="0 0 40 40" fill="none" xmlns="http://www.w3.org/2000/svg">
<path d="M0 20C0 8.95431 8.95431 0 20 0C31.0457 0 40 8.95431 40 20C40 31.0457 31.0457 40 20 40C8.95431 40 0 31.0457 0 20Z" fill="#242526"/>
<path d="M23.3931 11.6928C23.7836 11.3023 24.4168 11.3023 24.8073 11.6928L28.2925 15.178C28.683 15.5685 28.683 16.2017 28.2925 16.5922L25.8966 18.9881L20.9915 14.0945L23.3931 11.6928Z" fill="#ADF73E"/>
<path d="M19.9307 15.1552L24.8217 20.063L18.899 25.9857H28C28.5523 25.9857 29 26.4334 29 26.9857V27.9857C29 28.538 28.5523 28.9857 28 28.9857H13V28.983L12.0023 28.9821C11.4508 28.9816 11.0038 28.5346 11.0033 27.983L11 24.5011C10.9998 24.2356 11.1051 23.9808 11.2929 23.7931L19.9307 15.1552Z" fill="#ADF73E"/>
</svg>
