<svg width="40" height="40" viewBox="0 0 40 40" fill="none" xmlns="http://www.w3.org/2000/svg">
<path d="M0 20C0 8.95431 8.95431 0 20 0C31.0457 0 40 8.95431 40 20C40 31.0457 31.0457 40 20 40C8.95431 40 0 31.0457 0 20Z" fill="#242526"/>
<path fill-rule="evenodd" clip-rule="evenodd" d="M16.7523 14.5507C16.0347 15.3435 15.6287 16.3605 15.4201 17.1946C15.3089 17.6397 14.9089 17.952 14.45 17.952C14.1951 17.952 13.4994 18.0845 12.8855 18.5856C12.3206 19.0468 11.75 19.8797 11.75 21.445C11.75 22.7814 12.1913 23.4659 12.6523 23.8402C13.1519 24.2459 13.8272 24.4093 14.45 24.4093H15C15.5523 24.4093 16 24.8571 16 25.4093C16 25.9616 15.5523 26.4093 15 26.4093H14.45C13.5312 26.4093 12.3564 26.1763 11.3915 25.3928C10.3879 24.5778 9.75 23.2801 9.75 21.445C9.75 19.3102 10.5669 17.8966 11.6207 17.0363C12.3016 16.4805 13.0511 16.1801 13.6721 16.0442C13.9682 15.1438 14.4618 14.101 15.2695 13.2086C16.3142 12.0545 17.8499 11.1948 20 11.1948C21.8572 11.1948 23.2628 11.8097 24.2688 12.7542C25.0697 13.5061 25.5756 14.4266 25.8787 15.3112C25.9276 15.3249 25.9785 15.3398 26.0313 15.356C26.4876 15.496 27.1022 15.7389 27.7235 16.153C29.0052 17.0075 30.25 18.5576 30.25 21.1807C30.25 22.9643 29.7243 24.3124 28.7834 25.2085C27.8548 26.0929 26.6552 26.4093 25.55 26.4093H25C24.4477 26.4093 24 25.9616 24 25.4093C24 24.8571 24.4477 24.4093 25 24.4093H25.55C26.2948 24.4093 26.9452 24.1972 27.4041 23.7602C27.8507 23.3348 28.25 22.5686 28.25 21.1807C28.25 19.3108 27.4136 18.3502 26.614 17.8171C26.1946 17.5375 25.7687 17.3675 25.4445 17.268C25.284 17.2187 25.1529 17.1881 25.0664 17.1705C25.0233 17.1617 24.9916 17.1562 24.9734 17.1532L24.9565 17.1506L24.9597 17.151C24.9582 17.1508 24.9579 17.1508 24.9565 17.1506C24.5499 17.0968 24.2169 16.8 24.1174 16.4017C23.9187 15.607 23.5325 14.8062 22.8999 14.2123C22.2872 13.6371 21.3803 13.1948 20 13.1948C18.4501 13.1948 17.4421 13.7887 16.7523 14.5507ZM19.9998 19.5395C20.5521 19.5395 20.9998 19.9872 20.9998 20.5395V26.0858L21.8562 25.2294C22.2467 24.8389 22.8798 24.8389 23.2704 25.2294C23.6609 25.6199 23.6609 26.2531 23.2704 26.6436L20.7069 29.2071C20.5194 29.3946 20.265 29.5 19.9998 29.5C19.7346 29.5 19.4802 29.3946 19.2927 29.2071L16.7292 26.6436C16.3387 26.2531 16.3387 25.6199 16.7292 25.2294C17.1198 24.8389 17.7529 24.8389 18.1435 25.2294L18.9998 26.0857V20.5395C18.9998 19.9872 19.4475 19.5395 19.9998 19.5395Z" fill="#ADF73E"/>
</svg>
