<svg width="40" height="40" viewBox="0 0 40 40" fill="none" xmlns="http://www.w3.org/2000/svg">
<path d="M0 20C0 8.95431 8.95431 0 20 0C31.0457 0 40 8.95431 40 20C40 31.0457 31.0457 40 20 40C8.95431 40 0 31.0457 0 20Z" fill="#242526"/>
<path fill-rule="evenodd" clip-rule="evenodd" d="M10 15.5C10 13.2909 11.7909 11.5 14 11.5H26C28.2091 11.5 30 13.2909 30 15.5V18.8104C30 19.3627 29.5523 19.8104 29 19.8104C28.4477 19.8104 28 19.3627 28 18.8104V18H12V24.5C12 25.6046 12.8954 26.5 14 26.5H20C20.5523 26.5 21 26.9477 21 27.5C21 28.0523 20.5523 28.5 20 28.5H14C11.7909 28.5 10 26.7091 10 24.5V15.5ZM28 15.5V16H12V15.5C12 14.3954 12.8954 13.5 14 13.5H26C27.1046 13.5 28 14.3954 28 15.5Z" fill="#ADF73E"/>
<path d="M28.2033 21.0003C27.9273 20.6914 27.4532 20.6648 27.1443 20.9407C26.8354 21.2167 26.8088 21.6908 27.0848 21.9997C28.6384 23.7386 28.6384 26.2615 27.0848 28.0003C26.8088 28.3092 26.8354 28.7833 27.1443 29.0593C27.4532 29.3353 27.9273 29.3086 28.2033 28.9997C30.2656 26.6917 30.2656 23.3083 28.2033 21.0003Z" fill="#ADF73E"/>
<path d="M26.9424 22.1594C26.6761 21.8422 26.203 21.8008 25.8858 22.0671C25.5685 22.3334 25.5272 22.8065 25.7934 23.1237C26.7193 24.2269 26.7193 25.7732 25.7934 26.8763C25.5272 27.1936 25.5685 27.6667 25.8858 27.933C26.203 28.1993 26.6761 28.1579 26.9424 27.8406C28.3363 26.1798 28.3363 23.8203 26.9424 22.1594Z" fill="#ADF73E"/>
<path d="M23.0357 23.3557C22.7512 23.0634 22.2852 23.052 21.9868 23.3302C21.0044 24.246 21.0044 25.754 21.9868 26.6698C22.2897 26.9523 22.7643 26.9356 23.0468 26.6326C23.3292 26.3297 23.3126 25.8551 23.0096 25.5726C22.9112 25.4809 22.8407 25.3748 22.7983 25.2625L24.1431 26.6443C24.4276 26.9367 24.8936 26.948 25.192 26.6698C26.1743 25.754 26.1743 24.246 25.192 23.3302C24.889 23.0478 24.4144 23.0644 24.132 23.3674C23.8495 23.6704 23.8662 24.145 24.1691 24.4274C24.2676 24.5192 24.338 24.6252 24.3805 24.7375L23.0357 23.3557Z" fill="#ADF73E"/>
</svg>
