<svg width="40" height="40" viewBox="0 0 40 40" fill="none" xmlns="http://www.w3.org/2000/svg">
<path d="M0 20C0 8.95431 8.95431 0 20 0C31.0457 0 40 8.95431 40 20C40 31.0457 31.0457 40 20 40C8.95431 40 0 31.0457 0 20Z" fill="#F2F3F5"/>
<path fill-rule="evenodd" clip-rule="evenodd" d="M14.25 12.75C13.4216 12.75 12.75 13.4216 12.75 14.25V16.3906C12.75 16.9429 12.3023 17.3906 11.75 17.3906C11.1977 17.3906 10.75 16.9429 10.75 16.3906V14.25C10.75 12.317 12.317 10.75 14.25 10.75H16.3906C16.9429 10.75 17.3906 11.1977 17.3906 11.75C17.3906 12.3023 16.9429 12.75 16.3906 12.75H14.25ZM22.6094 11.75C22.6094 11.1977 23.0571 10.75 23.6094 10.75L25.75 10.75C27.683 10.75 29.25 12.317 29.25 14.25V16.3906C29.25 16.9429 28.8023 17.3906 28.25 17.3906C27.6977 17.3906 27.25 16.9429 27.25 16.3906V14.25C27.25 13.4216 26.5784 12.75 25.75 12.75H23.6094C23.0571 12.75 22.6094 12.3023 22.6094 11.75ZM18.5 15C19.0523 15 19.5 15.4477 19.5 16V22.5H23.5C24.0523 22.5 24.5 22.9477 24.5 23.5C24.5 24.0523 24.0523 24.5 23.5 24.5H18.5C17.9477 24.5 17.5 24.0523 17.5 23.5V16C17.5 15.4477 17.9477 15 18.5 15ZM11.75 22.6094C12.3023 22.6094 12.75 23.0571 12.75 23.6094V25.75C12.75 26.5784 13.4216 27.25 14.25 27.25H16.3906C16.9429 27.25 17.3906 27.6977 17.3906 28.25C17.3906 28.8023 16.9429 29.25 16.3906 29.25H14.25C12.317 29.25 10.75 27.683 10.75 25.75V23.6094C10.75 23.0571 11.1977 22.6094 11.75 22.6094ZM28.25 22.6094C28.8023 22.6094 29.25 23.0571 29.25 23.6094V25.75C29.25 27.683 27.683 29.25 25.75 29.25H23.6094C23.0571 29.25 22.6094 28.8023 22.6094 28.25C22.6094 27.6977 23.0571 27.25 23.6094 27.25H25.75C26.5784 27.25 27.25 26.5784 27.25 25.75V23.6094C27.25 23.0571 27.6977 22.6094 28.25 22.6094Z" fill="#68AD00"/>
</svg>
