<svg width="40" height="40" viewBox="0 0 40 40" fill="none" xmlns="http://www.w3.org/2000/svg">
<path d="M0 20C0 8.95431 8.95431 0 20 0C31.0457 0 40 8.95431 40 20C40 31.0457 31.0457 40 20 40C8.95431 40 0 31.0457 0 20Z" fill="#F2F3F5"/>
<path fill-rule="evenodd" clip-rule="evenodd" d="M25.9552 20.526C26.3131 20.884 26.3132 21.4649 25.9552 21.8228L19.4366 28.3415C18.3627 29.4153 16.6214 29.4153 15.5475 28.3415L11.6584 24.4524C10.5845 23.3785 10.5846 21.6373 11.6584 20.5633L18.1771 14.0447C18.535 13.6867 19.1159 13.6867 19.4739 14.0447L25.9552 20.526ZM14.7175 20.8948L13.4828 22.1294L17.9271 26.5737L19.1618 25.339L14.7175 20.8948Z" fill="#68AD00"/>
<path d="M28.8499 15.4575C29.246 15.8539 29.2461 16.4961 28.8499 16.8924L26.6962 19.0462L20.9537 13.3037L23.1075 11.1499C23.5039 10.7536 24.1467 10.7542 24.5431 11.1506L28.8499 15.4575Z" fill="#68AD00"/>
</svg>
