<svg width="16" height="17" viewBox="0 0 16 17" fill="none" xmlns="http://www.w3.org/2000/svg">
<path d="M9 11.6523C8.64101 11.6523 8.35 11.9433 8.35 12.3023C8.35 12.6613 8.64102 12.9523 9 12.9523L9 11.6523ZM14.5 11.6523L9 11.6523L9 12.9523L14.5 12.9523L14.5 11.6523Z" fill="#262933"/>
<path d="M12.8156 14.6756L15.2 12.3016L12.8156 9.92773" stroke="#262933" stroke-width="1.3" stroke-linecap="round" stroke-linejoin="round"/>
<path d="M5.66372 14.5841H3.17821C2.08565 14.5841 1.19995 13.6984 1.19995 12.6058V4.38842C1.19995 3.29585 2.08565 2.41016 3.17821 2.41016H12.613C13.7056 2.41016 14.5913 3.29585 14.5913 4.38842V6.79295" stroke="#262933" stroke-width="1.3" stroke-linecap="round"/>
<path d="M3.9696 6.3667H7.92613" stroke="#262933" stroke-width="1.3" stroke-linecap="round" stroke-linejoin="round"/>
</svg>
