<svg width="16" height="16" viewBox="0 0 16 16" fill="none" xmlns="http://www.w3.org/2000/svg">
<path d="M8.69943 1.7666C8.69943 1.38 8.38603 1.0666 7.99943 1.0666C7.61283 1.0666 7.29943 1.38 7.29943 1.7666L8.69943 1.7666ZM14.0107 8.84536C14.2751 8.56332 14.2608 8.12034 13.9788 7.85593C13.6967 7.59151 13.2537 7.6058 12.9893 7.88784L14.0107 8.84536ZM3.01068 7.88784C2.74626 7.60581 2.30328 7.59152 2.02124 7.85593C1.7392 8.12034 1.72491 8.56332 1.98932 8.84536L3.01068 7.88784ZM8.21886 13.9998L8.72954 14.4786L8.21886 13.9998ZM8.69943 13.4999L8.69943 1.7666L7.29943 1.7666L7.29943 13.4999L8.69943 13.4999ZM12.9893 7.88784L7.70819 13.5211L8.72954 14.4786L14.0107 8.84536L12.9893 7.88784ZM8.29182 13.5211L3.01068 7.88784L1.98932 8.84536L7.27046 14.4786L8.29182 13.5211ZM7.70819 13.5211C7.86622 13.3525 8.13379 13.3525 8.29182 13.5211L7.27046 14.4786C7.66554 14.9 8.33447 14.9 8.72954 14.4786L7.70819 13.5211Z" fill="#262933"/>
</svg>
