<svg width="16" height="17" viewBox="0 0 16 17" fill="none" xmlns="http://www.w3.org/2000/svg">
<path d="M15.1999 11.6522C15.5589 11.6522 15.8499 11.9432 15.85 12.3022C15.85 12.6612 15.5589 12.9522 15.2 12.9522L15.1999 11.6522ZM9.69994 11.6523L15.1999 11.6522L15.2 12.9522L9.69996 12.9523L9.69994 11.6523Z" fill="#262933"/>
<path d="M11.4 14.6756L9.01554 12.3016L11.4 9.92773" stroke="#262933" stroke-width="1.3" stroke-linecap="round" stroke-linejoin="round"/>
<path d="M5.66372 14.5841H3.17821C2.08565 14.5841 1.19995 13.6984 1.19995 12.6058V4.38842C1.19995 3.29585 2.08565 2.41016 3.17821 2.41016H12.613C13.7056 2.41016 14.5913 3.29585 14.5913 4.38842V6.79295" stroke="#262933" stroke-width="1.3" stroke-linecap="round"/>
<path d="M3.9696 6.3667H7.92613" stroke="#262933" stroke-width="1.3" stroke-linecap="round" stroke-linejoin="round"/>
</svg>
