<svg width="16" height="16" viewBox="0 0 16 16" fill="none" xmlns="http://www.w3.org/2000/svg">
<path d="M7.30057 14.2333C7.30057 14.6199 7.61398 14.9333 8.00057 14.9333C8.38717 14.9333 8.70057 14.6199 8.70057 14.2333L7.30057 14.2333ZM1.98932 7.15451C1.72491 7.43655 1.7392 7.87953 2.02124 8.14395C2.30328 8.40836 2.74626 8.39407 3.01068 8.11203L1.98932 7.15451ZM12.9893 8.11203C13.2537 8.39407 13.6967 8.40836 13.9788 8.14395C14.2608 7.87953 14.2751 7.43655 14.0107 7.15451L12.9893 8.11203ZM7.78114 2.00005L7.27046 1.52129L7.78114 2.00005ZM8.21886 2.00005L8.72954 1.52129L8.21886 2.00005ZM7.30057 2.49994L7.30057 14.2333L8.70057 14.2333L8.70057 2.49993L7.30057 2.49994ZM3.01068 8.11203L8.29181 2.47881L7.27046 1.52129L1.98932 7.15451L3.01068 8.11203ZM7.70818 2.47881L12.9893 8.11203L14.0107 7.15451L8.72954 1.52129L7.70818 2.47881ZM8.29181 2.47881C8.13379 2.64738 7.86621 2.64738 7.70818 2.47881L8.72954 1.52129C8.33446 1.09988 7.66554 1.09988 7.27046 1.52129L8.29181 2.47881Z" fill="#262933"/>
</svg>
