<svg width="16" height="16" viewBox="0 0 16 16" fill="none" xmlns="http://www.w3.org/2000/svg">
<path fill-rule="evenodd" clip-rule="evenodd" d="M10.1769 14.4132C10.7291 14.4132 11.1769 13.9654 11.1769 13.4132L11.1769 5.02652L12.397 6.49426C12.7501 6.91895 13.3806 6.97702 13.8053 6.62396C14.23 6.2709 14.288 5.64041 13.935 5.21571L11.3521 2.10872C10.6164 1.22378 9.17685 1.74399 9.17685 2.8948L9.17685 13.4132C9.17685 13.9654 9.62457 14.4132 10.1769 14.4132ZM4.82182 10.974L4.82182 2.5874C4.82182 2.03512 5.26953 1.5874 5.82182 1.5874C6.3741 1.5874 6.82182 2.03512 6.82182 2.5874L6.82182 13.1058C6.82182 14.2566 5.38229 14.7768 4.64661 13.8918L2.06369 10.7848C1.71063 10.3602 1.7687 9.72965 2.19339 9.37659C2.61809 9.02353 3.24859 9.0816 3.60165 9.5063L4.82182 10.974Z" fill="#070808"/>
<path d="M10.1769 13.9132C10.453 13.9132 10.6769 13.6893 10.6769 13.4132V3.64293L12.7816 6.17462C12.9581 6.38697 13.2733 6.416 13.4857 6.23947C13.698 6.06294 13.7271 5.74769 13.5505 5.53535L10.9676 2.42836C10.5311 1.90326 9.6769 2.21194 9.6769 2.8948L9.6769 13.4132C9.6769 13.6893 9.90076 13.9132 10.1769 13.9132Z" fill="#070808"/>
<path d="M5.32187 12.3576L5.32187 2.5874C5.32187 2.31126 5.54572 2.0874 5.82187 2.0874C6.09801 2.0874 6.32187 2.31126 6.32187 2.5874L6.32187 13.1058C6.32187 13.7886 5.46768 14.0973 5.03115 13.5722L2.44823 10.4652C2.2717 10.2529 2.30073 9.93761 2.51308 9.76108C2.72543 9.58455 3.04067 9.61359 3.21721 9.82594L5.32187 12.3576Z" fill="#070808"/>
</svg>
