<svg width="16" height="17" viewBox="0 0 16 17" fill="none" xmlns="http://www.w3.org/2000/svg">
<path d="M2.5 11.5V3.09091C2.5 2.48842 2.98842 2 3.59091 2H13.4388C14.0249 2 14.5 2.47513 14.5 3.06122V13.5C14.5 14.3284 13.8284 15 13 15V15C12.1716 15 11.5 14.3284 11.5 13.5V13" stroke="#262933" stroke-width="1.4" stroke-linecap="round"/>
<path d="M5.5 5H11.5" stroke="#262933" stroke-width="1.4" stroke-linecap="round"/>
<path d="M5.5 8H9.5" stroke="#262933" stroke-width="1.4" stroke-linecap="round"/>
<path d="M11.5 15V13.5V12.05C11.5 12.0224 11.4776 12 11.45 12H1.55C1.52239 12 1.5 12.0224 1.5 12.05V14C1.5 14.5523 1.94772 15 2.5 15H6.5H11.5ZM11.5 15H13" stroke="#262933" stroke-width="1.4"/>
</svg>
