<svg width="24" height="24" viewBox="0 0 24 24" fill="none" xmlns="http://www.w3.org/2000/svg">
<path d="M20 9C20.5523 9 21 9.44772 21 10V11.2559C19.8661 10.4648 18.4875 10 17 10C13.134 10 10 13.134 10 17C10 18.2754 10.3426 19.4702 10.9385 20.5H4C3.44772 20.5 3 20.0523 3 19.5V9H20ZM16 3.5C16.5523 3.5 17 3.94772 17 4.5V7H3V4.5C3 3.94772 3.44772 3.5 4 3.5H16Z" fill="#68AD00"/>
<path fill-rule="evenodd" clip-rule="evenodd" d="M22 17C22 19.7614 19.7614 22 17 22C14.2386 22 12 19.7614 12 17C12 14.2386 14.2386 12 17 12C19.7614 12 22 14.2386 22 17ZM18 16V14H16V16H14V18H16V20H18V18H20V16H18Z" fill="#68AD00"/>
</svg>
