<svg width="32" height="32" viewBox="0 0 32 32" fill="none" xmlns="http://www.w3.org/2000/svg">
<path fill-rule="evenodd" clip-rule="evenodd" d="M16 0C24.8366 0 32 7.16344 32 16C32 24.8366 24.8366 32 16 32C7.16344 32 0 24.8366 0 16C0 7.16344 7.16344 0 16 0ZM7 17C7.50068 21.4999 11.3382 25 16 25C15.1922 25 14.5423 24.5633 14.0714 24.0357C13.5995 23.5068 13.2209 22.7973 12.923 22.0078C12.4123 20.6545 12.0836 18.9097 11.9978 17H7ZM20.0022 17C19.9164 18.9097 19.5877 20.6545 19.077 22.0078C18.7791 22.7973 18.4005 23.5068 17.9286 24.0357C17.4577 24.5633 16.8078 25 16 25C20.6618 25 24.4993 21.4999 25 17H20.0022ZM14.0145 17C14.099 18.7078 14.3932 20.2066 14.808 21.3058C15.0562 21.9635 15.3267 22.4269 15.577 22.7076C15.8285 22.9895 15.9743 23 16 23C16.0257 23 16.1715 22.9895 16.423 22.7076C16.6733 22.4269 16.9438 21.9635 17.192 21.3058C17.6068 20.2066 17.901 18.7078 17.9855 17H14.0145ZM16 7C11.3382 7 7.50068 10.5001 7 15H11.9978C12.0836 13.0903 12.4123 11.3455 12.923 9.99219C13.2208 9.20298 13.5997 8.49429 14.0714 7.9654C14.5423 7.43772 15.1921 7 16 7ZM16 9C15.9743 9 15.8285 9.01055 15.577 9.29241C15.3267 9.57314 15.0562 10.0365 14.808 10.6942C14.3932 11.7934 14.099 13.2922 14.0145 15H17.9855C17.901 13.2922 17.6068 11.7934 17.192 10.6942C16.9438 10.0365 16.6733 9.57314 16.423 9.29241C16.1715 9.01055 16.0257 9 16 9ZM16 7C16.8079 7 17.4577 7.43772 17.9286 7.9654C18.4003 8.49429 18.7792 9.20298 19.077 9.99219C19.5877 11.3455 19.9164 13.0903 20.0022 15H25C24.4993 10.5001 20.6618 7 16 7Z" fill="#C4C7CA"/>
</svg>
