<svg width="40" height="40" viewBox="0 0 40 40" fill="none" xmlns="http://www.w3.org/2000/svg">
<path d="M0 20C0 8.95431 8.95431 0 20 0C31.0457 0 40 8.95431 40 20C40 31.0457 31.0457 40 20 40C8.95431 40 0 31.0457 0 20Z" fill="#ADF73E"/>
<path d="M22.474 24.0963L24.5953 21.975L21.7669 19.1466L23.8882 17.0252L30.2522 23.3892L23.8882 29.7532L17.5243 23.3892L19.6456 21.2679L22.474 24.0963Z" fill="black"/>
<path d="M22.474 15.611L20.3527 17.7324L17.5243 14.9039L15.4029 17.0252L18.2314 19.8537L16.1101 21.975L9.74609 15.611L16.1101 9.24707L22.474 15.611Z" fill="black"/>
</svg>
