<svg width="25" height="24" viewBox="0 0 25 24" fill="none" xmlns="http://www.w3.org/2000/svg">
<path d="M10.04 12.8094C9.59298 12.3624 9.59298 11.6376 10.04 11.1905L12.0973 9.13327C12.5444 8.68622 13.2692 8.68622 13.7162 9.13327L15.7735 11.1906C16.2205 11.6376 16.2205 12.3624 15.7735 12.8095L13.7162 14.8667C13.2692 15.3138 12.5444 15.3138 12.0973 14.8667L10.04 12.8094Z" stroke="#262933" stroke-width="1.5"/>
<path d="M20.4959 7.5C21.2617 8.82378 21.7 10.3607 21.7 12C21.7 16.9706 17.6705 21 12.7 21C7.72939 21 3.69995 16.9706 3.69995 12C3.69995 7.02944 7.72939 3 12.7 3C14.4407 3 16.0661 3.49422 17.4433 4.35" stroke="#262933" stroke-width="1.6" stroke-linecap="round"/>
</svg>
