<svg width="160" height="284" viewBox="0 0 160 284" fill="none" xmlns="http://www.w3.org/2000/svg">
<g opacity="0.9">
<g clip-path="url(#clip0_3042_754691)">
<ellipse opacity="0.07" cx="79" cy="103.533" rx="49" ry="29.425" fill="url(#paint0_linear_3042_754691)"/>
<rect width="160" height="283.352" rx="16" fill="#F5F6F7"/>
<path opacity="0.45" d="M12 32.0001C12 27.5818 15.5817 24.0001 20 24.0001H140C144.418 24.0001 148 27.5818 148 32.0001C148 36.4184 144.418 40.0001 140 40.0001H20C15.5817 40.0001 12 36.4184 12 32.0001Z" fill="#A0A3A7"/>
<path opacity="0.45" d="M12 210C12 206.686 14.6863 204 18 204H142C145.314 204 148 206.686 148 210C148 213.314 145.314 216 142 216H18C14.6863 216 12 213.314 12 210Z" fill="#A0A3A7"/>
<path opacity="0.45" d="M148 124C148 130.627 142.627 136 136 136L24 136C17.3726 136 12 130.627 12 124L12 68C12 61.3726 17.3726 56 24 56L136 56C142.627 56 148 61.3726 148 68L148 124Z" fill="#A0A3A7"/>
<path d="M25.9615 74C25.9615 71.7698 27.7693 69.9618 29.9994 69.9615V73.9999H34.2226V69.7767H30V66.5C25.8579 66.5 22.5 69.8579 22.5 74C22.5 78.1421 25.8579 81.5 30 81.5C34.1421 81.5 37.5 78.1421 37.5 74H34.0385C34.0385 76.2304 32.2304 78.0385 30 78.0385C27.7696 78.0385 25.9615 76.2304 25.9615 74Z" fill="#68AD00" fill-opacity="0.6"/>
</g>
<path opacity="0.45" d="M12 156C12 153.791 13.7909 152 16 152H68C70.2091 152 72 153.791 72 156V184C72 186.209 70.2091 188 68 188H16C13.7909 188 12 186.209 12 184V156Z" fill="#A0A3A7"/>
<path opacity="0.45" d="M82 156C82 153.791 83.7909 152 86 152H134C136.209 152 138 153.791 138 156V184C138 186.209 136.209 188 134 188H86C83.7909 188 82 186.209 82 184V156Z" fill="#A0A3A7"/>
<path opacity="0.45" d="M148 156C148 153.791 149.791 152 152 152H159.5V188H152C149.791 188 148 186.209 148 184V156Z" fill="#A0A3A7"/>
<circle opacity="0.45" cx="20" cy="236" r="8" fill="#A0A3A7"/>
<path opacity="0.45" d="M33.999 232C33.999 230.895 34.8945 230 35.999 230H59.999C61.1036 230 61.999 230.895 61.999 232C61.999 233.105 61.1036 234 59.999 234H35.999C34.8945 234 33.999 233.105 33.999 232Z" fill="#A0A3A7"/>
<path opacity="0.45" d="M33.999 240C33.999 238.896 34.8945 238 35.999 238H71.999C73.1036 238 73.999 238.896 73.999 240C73.999 241.105 73.1036 242 71.999 242H35.999C34.8945 242 33.999 241.105 33.999 240Z" fill="#A0A3A7"/>
<path opacity="0.45" d="M134 232C134 230.895 134.895 230 136 230H146C147.105 230 148 230.895 148 232C148 233.105 147.105 234 146 234H136C134.895 234 134 233.105 134 232Z" fill="#A0A3A7"/>
<path opacity="0.45" d="M120 240C120 238.896 120.895 238 122 238H146C147.105 238 148 238.896 148 240C148 241.105 147.105 242 146 242H122C120.895 242 120 241.105 120 240Z" fill="#A0A3A7"/>
<circle opacity="0.45" cx="20" cy="264" r="8" fill="#A0A3A7"/>
<path opacity="0.45" d="M33.999 260C33.999 258.895 34.8945 258 35.999 258H59.999C61.1036 258 61.999 258.895 61.999 260C61.999 261.105 61.1036 262 59.999 262H35.999C34.8945 262 33.999 261.105 33.999 260Z" fill="#A0A3A7"/>
<path opacity="0.45" d="M33.999 268C33.999 266.896 34.8945 266 35.999 266H71.999C73.1036 266 73.999 266.896 73.999 268C73.999 269.105 73.1036 270 71.999 270H35.999C34.8945 270 33.999 269.105 33.999 268Z" fill="#A0A3A7"/>
<path opacity="0.45" d="M134 260C134 258.895 134.895 258 136 258H146C147.105 258 148 258.895 148 260C148 261.105 147.105 262 146 262H136C134.895 262 134 261.105 134 260Z" fill="#A0A3A7"/>
<path opacity="0.45" d="M120 268C120 266.896 120.895 266 122 266H146C147.105 266 148 266.896 148 268C148 269.105 147.105 270 146 270H122C120.895 270 120 269.105 120 268Z" fill="#A0A3A7"/>
</g>
<defs>
<linearGradient id="paint0_linear_3042_754691" x1="48.1774" y1="88.7322" x2="96.9861" y2="163.838" gradientUnits="userSpaceOnUse">
<stop stop-color="#ADF73E"/>
<stop offset="1" stop-color="#5FD809"/>
</linearGradient>
<clipPath id="clip0_3042_754691">
<rect width="160" height="283.352" rx="16" fill="white"/>
</clipPath>
</defs>
</svg>
