<svg width="26" height="26" viewBox="0 0 26 26" fill="none" xmlns="http://www.w3.org/2000/svg">
<circle cx="13" cy="12.9995" r="12.5" fill="#F2F3F4" stroke="white"/>
<path d="M7.85742 11.7137C8.56731 11.714 9.14258 12.2899 9.14258 12.9999C9.14235 13.7096 8.56717 14.2848 7.85742 14.285C7.14748 14.285 6.57152 13.7098 6.57129 12.9999C6.57129 12.2898 7.14734 11.7137 7.85742 11.7137ZM13 11.7137C13.7101 11.7137 14.2861 12.2898 14.2861 12.9999C14.2859 13.7098 13.7099 14.285 13 14.285C12.2901 14.285 11.7151 13.7097 11.7148 12.9999C11.7148 12.2898 12.29 11.7138 13 11.7137ZM18.1426 11.7137C18.8527 11.7137 19.4287 12.2898 19.4287 12.9999C19.4285 13.7098 18.8525 14.285 18.1426 14.285C17.4328 14.2849 16.8576 13.7097 16.8574 12.9999C16.8574 12.2899 17.4326 11.7139 18.1426 11.7137Z" fill="#A0A3A7"/>
</svg>
