<svg width="141" height="141" viewBox="0 0 141 141" fill="none" xmlns="http://www.w3.org/2000/svg">
<mask id="path-1-inside-1_5382_57253" fill="white">
<path fill-rule="evenodd" clip-rule="evenodd" d="M105.247 52.9207C118.706 54.3635 129.188 65.7577 129.188 79.5999C129.188 94.4195 117.174 106.433 102.354 106.433H37.9544C23.1348 106.433 11.1211 94.4195 11.1211 79.5999C11.1211 65.7577 21.6023 54.3635 35.0614 52.9207C38.3166 36.5134 52.791 24.1445 70.1544 24.1445C87.5177 24.1445 101.992 36.5134 105.247 52.9207Z"/>
</mask>
<path fill-rule="evenodd" clip-rule="evenodd" d="M105.247 52.9207C118.706 54.3635 129.188 65.7577 129.188 79.5999C129.188 94.4195 117.174 106.433 102.354 106.433H37.9544C23.1348 106.433 11.1211 94.4195 11.1211 79.5999C11.1211 65.7577 21.6023 54.3635 35.0614 52.9207C38.3166 36.5134 52.791 24.1445 70.1544 24.1445C87.5177 24.1445 101.992 36.5134 105.247 52.9207Z" fill="white"/>
<path d="M105.247 52.9207L104.266 53.1153L104.41 53.8367L105.141 53.915L105.247 52.9207ZM35.0614 52.9207L35.168 53.915L35.8992 53.8367L36.0423 53.1153L35.0614 52.9207ZM105.141 53.915C118.097 55.3039 128.188 66.2742 128.188 79.5999H130.188C130.188 65.2412 119.316 53.4231 105.354 51.9264L105.141 53.915ZM128.188 79.5999C128.188 93.8673 116.622 105.433 102.354 105.433V107.433C117.726 107.433 130.188 94.9718 130.188 79.5999H128.188ZM102.354 105.433H37.9544V107.433H102.354V105.433ZM37.9544 105.433C23.687 105.433 12.1211 93.8673 12.1211 79.5999H10.1211C10.1211 94.9718 22.5825 107.433 37.9544 107.433V105.433ZM12.1211 79.5999C12.1211 66.2742 22.2116 55.3039 35.168 53.915L34.9548 51.9264C20.9931 53.4231 10.1211 65.2412 10.1211 79.5999H12.1211ZM36.0423 53.1153C39.2064 37.1671 53.2775 25.1445 70.1544 25.1445V23.1445C52.3046 23.1445 37.4268 35.8597 34.0805 52.7261L36.0423 53.1153ZM70.1544 25.1445C87.0313 25.1445 101.102 37.167 104.266 53.1153L106.228 52.7261C102.882 35.8597 88.0042 23.1445 70.1544 23.1445V25.1445Z" fill="#262933" mask="url(#path-1-inside-1_5382_57253)"/>
<rect x="72.6914" y="77.8115" width="60.6667" height="49" rx="2.33333" fill="white"/>
<path d="M92.2754 83.228C92.2754 77.429 96.9764 72.728 102.775 72.728C108.574 72.728 113.275 77.429 113.275 83.228V92.728H92.2754V83.228Z" stroke="#262933"/>
<rect x="82.2754" y="87.728" width="41" height="29" rx="4.16667" fill="white" stroke="#262933"/>
<path d="M101.41 112.322L99.2352 108.555C101.317 109.755 103.964 109.843 106.195 108.555C108.813 107.043 110.078 104.086 109.562 101.273M104.074 92.7045L106.303 96.5643C104.205 95.3052 101.505 95.1922 99.2364 96.5022C96.4866 98.0897 95.2303 101.271 95.9603 104.205" stroke="#0073FF" stroke-width="2" stroke-linecap="round" stroke-linejoin="round"/>
</svg>
