<svg width="24" height="25" viewBox="0 0 24 25" fill="none" xmlns="http://www.w3.org/2000/svg">
<path d="M5.45579 15.8979C5.45579 16.2221 5.72355 16.4849 6.05385 16.4849H8.44607C8.77637 16.4849 9.04413 16.2221 9.04413 15.8979V9.83562H11.4008C11.9001 9.83562 12.1796 9.27072 11.8708 8.88566L7.71998 3.70884C7.48053 3.41021 7.01947 3.4102 6.78002 3.70884L2.62919 8.88566C2.32044 9.27072 2.59992 9.83562 3.09917 9.83562H5.45579V15.8979Z" fill="#ADF73E"/>
<path d="M14.9558 10.0718C14.9558 9.74766 15.2236 9.48486 15.5539 9.48486H17.9461C18.2764 9.48486 18.5441 9.74766 18.5441 10.0718V16.1341H20.9008C21.4001 16.1341 21.6796 16.699 21.3708 17.0841L17.22 22.2609C16.9805 22.5595 16.5195 22.5595 16.28 22.2609L12.1292 17.0841C11.8204 16.699 12.0999 16.1341 12.5992 16.1341H14.9558V10.0718Z" fill="#FF6600"/>
</svg>
