<svg width="40" height="40" viewBox="0 0 40 40" fill="none" xmlns="http://www.w3.org/2000/svg">
<path d="M0 20C0 8.95431 8.95431 0 20 0C31.0457 0 40 8.95431 40 20C40 31.0457 31.0457 40 20 40C8.95431 40 0 31.0457 0 20Z" fill="#ADF73E"/>
<path d="M14.164 20.0665C14.164 19.4125 14.274 18.7855 14.469 18.1975L11.044 15.607C10.355 16.9925 9.99765 18.5192 10 20.0665C10 21.669 10.375 23.1805 11.042 24.5225L14.466 21.9275C14.266 21.3275 14.1645 20.699 14.164 20.0665Z" fill="black"/>
<path d="M20.1804 14.1185C21.545 14.1158 22.8687 14.5841 23.9279 15.4445L26.8895 12.5165C25.085 10.9615 22.7714 10 20.1805 10C16.1575 10 12.6995 12.2785 11.044 15.607L14.4714 18.1975C15.2604 15.8245 17.5104 14.118 20.1814 14.118" fill="black"/>
<path d="M20.224 25.8819C17.539 25.8819 15.26 24.286 14.466 21.9275L11.042 24.5225C12.7055 27.8305 16.18 29.9744 20.224 29.9744C22.7185 29.9744 25.1005 29.1075 26.889 27.4815L23.6205 25.0074C22.699 25.576 21.5375 25.8824 20.223 25.8824" fill="black"/>
<path d="M29.9891 19.9715C29.9891 19.3805 29.8956 18.7435 29.7566 18.1525H20.2231V22.0175H25.7102C25.4366 23.3355 24.6895 24.3484 23.6205 25.0074L26.889 27.4815C28.7675 25.775 29.9891 23.2324 29.9891 19.9715Z" fill="black"/>
</svg>
