<svg width="141" height="141" viewBox="0 0 141 141" fill="none" xmlns="http://www.w3.org/2000/svg">
<mask id="path-1-inside-1_5382_57261" fill="white">
<path fill-rule="evenodd" clip-rule="evenodd" d="M105.704 52.9207C119.163 54.3635 129.645 65.7577 129.645 79.5999C129.645 94.4195 117.631 106.433 102.811 106.433H38.4114C23.5918 106.433 11.5781 94.4195 11.5781 79.5999C11.5781 65.7577 22.0594 54.3635 35.5184 52.9207C38.7736 36.5134 53.2481 24.1445 70.6114 24.1445C87.9748 24.1445 102.449 36.5134 105.704 52.9207Z"/>
</mask>
<path fill-rule="evenodd" clip-rule="evenodd" d="M105.704 52.9207C119.163 54.3635 129.645 65.7577 129.645 79.5999C129.645 94.4195 117.631 106.433 102.811 106.433H38.4114C23.5918 106.433 11.5781 94.4195 11.5781 79.5999C11.5781 65.7577 22.0594 54.3635 35.5184 52.9207C38.7736 36.5134 53.2481 24.1445 70.6114 24.1445C87.9748 24.1445 102.449 36.5134 105.704 52.9207Z" fill="#1A1A1A"/>
<path d="M105.704 52.9207L104.724 53.1153L104.867 53.8367L105.598 53.915L105.704 52.9207ZM35.5184 52.9207L35.625 53.915L36.3562 53.8367L36.4993 53.1153L35.5184 52.9207ZM105.598 53.915C118.554 55.3039 128.645 66.2742 128.645 79.5999H130.645C130.645 65.2412 119.773 53.4231 105.811 51.9264L105.598 53.915ZM128.645 79.5999C128.645 93.8673 117.079 105.433 102.811 105.433V107.433C118.183 107.433 130.645 94.9718 130.645 79.5999H128.645ZM102.811 105.433H38.4114V107.433H102.811V105.433ZM38.4114 105.433C24.1441 105.433 12.5781 93.8673 12.5781 79.5999H10.5781C10.5781 94.9718 23.0395 107.433 38.4114 107.433V105.433ZM12.5781 79.5999C12.5781 66.2742 22.6686 55.3039 35.625 53.915L35.4119 51.9264C21.4501 53.4231 10.5781 65.2412 10.5781 79.5999H12.5781ZM36.4993 53.1153C39.6634 37.1671 53.7345 25.1445 70.6114 25.1445V23.1445C52.7616 23.1445 37.8838 35.8597 34.5376 52.7261L36.4993 53.1153ZM70.6114 25.1445C87.4883 25.1445 101.559 37.167 104.724 53.1153L106.685 52.7261C103.339 35.8597 88.4612 23.1445 70.6114 23.1445V25.1445Z" fill="#FAFAFA" mask="url(#path-1-inside-1_5382_57261)"/>
<rect x="73.1484" y="77.8115" width="60.6667" height="49" rx="2.33333" fill="#1A1A1A"/>
<path d="M92.7324 83.228C92.7324 77.429 97.4334 72.728 103.232 72.728C109.031 72.728 113.732 77.429 113.732 83.228V92.728H92.7324V83.228Z" stroke="#FAFAFA"/>
<rect x="82.7324" y="87.728" width="41" height="29" rx="4.16667" fill="#FAFAFA" stroke="#FAFAFA"/>
<path d="M101.867 112.322L99.6922 108.555C101.774 109.755 104.421 109.843 106.652 108.555C109.27 107.043 110.535 104.086 110.019 101.273M104.532 92.7045L106.76 96.5643C104.662 95.3052 101.962 95.1922 99.6934 96.5022C96.9436 98.0897 95.6873 101.271 96.4173 104.205" stroke="#0073FF" stroke-width="2" stroke-linecap="round" stroke-linejoin="round"/>
</svg>
