<svg width="141" height="141" viewBox="0 0 141 141" fill="none" xmlns="http://www.w3.org/2000/svg">
<mask id="path-1-inside-1_5382_56527" fill="white">
<path fill-rule="evenodd" clip-rule="evenodd" d="M105.247 53.4207C118.706 54.8635 129.188 66.2577 129.188 80.0999C129.188 94.9195 117.174 106.933 102.354 106.933H37.9544C23.1348 106.933 11.1211 94.9195 11.1211 80.0999C11.1211 66.2577 21.6023 54.8635 35.0614 53.4207C38.3166 37.0134 52.7911 24.6445 70.1544 24.6445C87.5178 24.6445 101.992 37.0134 105.247 53.4207Z"/>
</mask>
<path fill-rule="evenodd" clip-rule="evenodd" d="M105.247 53.4207C118.706 54.8635 129.188 66.2577 129.188 80.0999C129.188 94.9195 117.174 106.933 102.354 106.933H37.9544C23.1348 106.933 11.1211 94.9195 11.1211 80.0999C11.1211 66.2577 21.6023 54.8635 35.0614 53.4207C38.3166 37.0134 52.7911 24.6445 70.1544 24.6445C87.5178 24.6445 101.992 37.0134 105.247 53.4207Z" fill="white"/>
<path d="M105.247 53.4207L104.267 53.6153L104.41 54.3367L105.141 54.415L105.247 53.4207ZM35.0614 53.4207L35.168 54.415L35.8992 54.3367L36.0423 53.6153L35.0614 53.4207ZM105.141 54.415C118.097 55.804 128.188 66.7742 128.188 80.0999H130.188C130.188 65.7412 119.316 53.9231 105.354 52.4264L105.141 54.415ZM128.188 80.0999C128.188 94.3673 116.622 105.933 102.354 105.933V107.933C117.726 107.933 130.188 95.4718 130.188 80.0999H128.188ZM102.354 105.933H37.9544V107.933H102.354V105.933ZM37.9544 105.933C23.687 105.933 12.1211 94.3673 12.1211 80.0999H10.1211C10.1211 95.4718 22.5825 107.933 37.9544 107.933V105.933ZM12.1211 80.0999C12.1211 66.7742 22.2116 55.8039 35.168 54.415L34.9549 52.4264C20.9931 53.9231 10.1211 65.7412 10.1211 80.0999H12.1211ZM36.0423 53.6153C39.2064 37.667 53.2775 25.6445 70.1544 25.6445V23.6445C52.3046 23.6445 37.4268 36.3597 34.0806 53.2261L36.0423 53.6153ZM70.1544 25.6445C87.0313 25.6445 101.102 37.6671 104.267 53.6153L106.228 53.2261C102.882 36.3597 88.0042 23.6445 70.1544 23.6445V25.6445Z" fill="#262933" mask="url(#path-1-inside-1_5382_56527)"/>
<rect x="76.6875" y="78.3115" width="60.6667" height="49" rx="2.33333" fill="white"/>
<path d="M96.2715 83.728C96.2715 77.929 100.972 73.228 106.771 73.228C112.57 73.228 117.271 77.929 117.271 83.728V93.228H96.2715V83.728Z" stroke="#262933"/>
<path d="M86.2715 92.3947C86.2715 90.0935 88.137 88.228 90.4382 88.228H123.105C125.406 88.228 127.271 90.0935 127.271 92.3947V113.061C127.271 115.363 125.406 117.228 123.105 117.228H90.4382C88.137 117.228 86.2715 115.363 86.2715 113.061V92.3947Z" fill="white" stroke="#262933"/>
<path d="M102.021 101.978L107.021 96.978L112.021 101.978" stroke="#0073FF" stroke-width="2" stroke-linecap="round" stroke-linejoin="round"/>
<path d="M107.021 96.978V108.645" stroke="#0073FF" stroke-width="2" stroke-linecap="round" stroke-linejoin="round"/>
</svg>
