<svg width="32" height="32" viewBox="0 0 32 32" fill="none" xmlns="http://www.w3.org/2000/svg">
<g clip-path="url(#clip0_5193_132454)">
<path d="M16 32C24.8366 32 32 24.8366 32 16C32 7.16344 24.8366 0 16 0C7.16344 0 0 7.16344 0 16C0 24.8366 7.16344 32 16 32Z" fill="#303236"/>
<path d="M7.78906 11.439C7.78906 10.96 7.88342 10.4856 8.06675 10.043C8.25008 9.60039 8.51879 9.19824 8.85754 8.85949C9.19629 8.52074 9.59844 8.25203 10.041 8.0687C10.4836 7.88538 10.958 7.79102 11.4371 7.79102C11.9161 7.79102 12.3905 7.88538 12.8331 8.0687C13.2757 8.25203 13.6778 8.52074 14.0166 8.85949C14.3553 9.19824 14.624 9.60039 14.8074 10.043C14.9907 10.4856 15.0851 10.96 15.0851 11.439V14.631C15.0851 14.6909 15.0733 14.7502 15.0504 14.8055C15.0274 14.8608 14.9938 14.9111 14.9515 14.9535C14.9092 14.9958 14.8589 15.0294 14.8036 15.0523C14.7482 15.0752 14.6889 15.087 14.6291 15.087H11.4371C10.4696 15.087 9.54167 14.7027 8.85754 14.0185C8.1734 13.3344 7.78906 12.4065 7.78906 11.439ZM16.9091 11.439C16.9091 10.7175 17.123 10.0122 17.5239 9.4123C17.9247 8.81239 18.4944 8.34481 19.161 8.0687C19.8276 7.7926 20.5611 7.72035 21.2688 7.86111C21.9764 8.00187 22.6264 8.34931 23.1366 8.85949C23.6468 9.36967 23.9942 10.0197 24.135 10.7273C24.2757 11.435 24.2035 12.1685 23.9274 12.835C23.6513 13.5016 23.1837 14.0714 22.5838 14.4722C21.9839 14.8731 21.2786 15.087 20.5571 15.087H17.3651C17.3052 15.087 17.2459 15.0752 17.1906 15.0523C17.1352 15.0294 17.085 14.9958 17.0426 14.9535C17.0003 14.9111 16.9667 14.8608 16.9438 14.8055C16.9209 14.7502 16.9091 14.6909 16.9091 14.631V11.439ZM7.78906 20.559C7.78906 19.5915 8.1734 18.6636 8.85754 17.9795C9.54167 17.2954 10.4696 16.911 11.4371 16.911H14.6291C14.6889 16.911 14.7482 16.9228 14.8036 16.9457C14.8589 16.9686 14.9092 17.0022 14.9515 17.0446C14.9938 17.0869 15.0274 17.1372 15.0504 17.1925C15.0733 17.2478 15.0851 17.3071 15.0851 17.367V20.559C15.0851 21.5265 14.7007 22.4544 14.0166 23.1385C13.3325 23.8227 12.4046 24.207 11.4371 24.207C10.4696 24.207 9.54167 23.8227 8.85754 23.1385C8.1734 22.4544 7.78906 21.5265 7.78906 20.559ZM16.9091 17.367C16.9091 17.2461 16.9571 17.1301 17.0426 17.0446C17.1281 16.9591 17.2441 16.911 17.3651 16.911H20.5571C21.2786 16.911 21.9839 17.125 22.5838 17.5258C23.1837 17.9267 23.6513 18.4964 23.9274 19.163C24.2035 19.8296 24.2757 20.5631 24.135 21.2707C23.9942 21.9783 23.6468 22.6284 23.1366 23.1385C22.6264 23.6487 21.9764 23.9962 21.2688 24.1369C20.5611 24.2777 19.8276 24.2054 19.161 23.9293C18.4944 23.6532 17.9247 23.1856 17.5239 22.5857C17.123 21.9858 16.9091 21.2805 16.9091 20.559V17.367Z" fill="white"/>
</g>
<defs>
<clipPath id="clip0_5193_132454">
<rect width="32" height="32" fill="white"/>
</clipPath>
</defs>
</svg>
