<svg width="40" height="40" viewBox="0 0 40 40" fill="none" xmlns="http://www.w3.org/2000/svg">
<path d="M0 20C0 8.95431 8.95431 0 20 0C31.0457 0 40 8.95431 40 20C40 31.0457 31.0457 40 20 40C8.95431 40 0 31.0457 0 20Z" fill="#ADF73E"/>
<path d="M21.25 11.5C21.25 11.2239 21.0261 11 20.75 11H19.25C18.9739 11 18.75 11.2239 18.75 11.5V18.75H11.5C11.2239 18.75 11 18.9739 11 19.25V20.75C11 21.0261 11.2239 21.25 11.5 21.25H18.75V28.5C18.75 28.7761 18.9739 29 19.25 29H20.75C21.0261 29 21.25 28.7761 21.25 28.5V21.25H28.5C28.7761 21.25 29 21.0261 29 20.75V19.25C29 18.9739 28.7761 18.75 28.5 18.75H21.25V11.5Z" fill="black"/>
</svg>
