<svg width="26" height="26" viewBox="0 0 26 26" fill="none" xmlns="http://www.w3.org/2000/svg">
<circle cx="13" cy="13" r="12.5" fill="#18191B" stroke="#070808"/>
<path fill-rule="evenodd" clip-rule="evenodd" d="M9.14369 13.0001C9.14369 13.7102 8.56806 14.2858 7.85798 14.2858C7.1479 14.2858 6.57227 13.7102 6.57227 13.0001C6.57227 12.29 7.1479 11.7144 7.85798 11.7144C8.56806 11.7144 9.14369 12.29 9.14369 13.0001ZM14.2868 13.0001C14.2868 13.7102 13.7111 14.2858 13.001 14.2858C12.291 14.2858 11.7153 13.7102 11.7153 13.0001C11.7153 12.29 12.291 11.7144 13.001 11.7144C13.7111 11.7144 14.2868 12.29 14.2868 13.0001ZM18.1439 14.2858C18.8539 14.2858 19.4296 13.7102 19.4296 13.0001C19.4296 12.29 18.8539 11.7144 18.1439 11.7144C17.4338 11.7144 16.8582 12.29 16.8582 13.0001C16.8582 13.7102 17.4338 14.2858 18.1439 14.2858Z" fill="#84888C"/>
</svg>
