<svg width="20" height="21" viewBox="0 0 20 21" fill="none" xmlns="http://www.w3.org/2000/svg">
<path d="M16.7349 13.1665L17.7367 13.7676C17.9339 13.886 17.9979 14.1419 17.8796 14.3392C17.8444 14.3979 17.7953 14.447 17.7367 14.4821L10.4275 18.8676C10.1636 19.026 9.83394 19.026 9.57003 18.8676L2.26095 14.4821C2.06363 14.3637 1.99964 14.1078 2.11804 13.9105C2.15322 13.8518 2.2023 13.8027 2.26095 13.7676L3.26269 13.1665L9.99878 17.2081L16.7349 13.1665ZM16.7349 9.24981L17.7367 9.8509C17.9339 9.96931 17.9979 10.2252 17.8796 10.4226C17.8444 10.4812 17.7953 10.5303 17.7367 10.5655L9.99878 15.2081L2.26095 10.5655C2.06363 10.4471 1.99964 10.1911 2.11804 9.99381C2.15322 9.93515 2.2023 9.88606 2.26095 9.8509L3.26269 9.24981L9.99878 13.2915L16.7349 9.24981ZM10.4275 1.59043L17.7367 5.9759C17.9339 6.09429 17.9979 6.35023 17.8796 6.54755C17.8444 6.6062 17.7953 6.65529 17.7367 6.69047L9.99878 11.3331L2.26095 6.69047C2.06363 6.57208 1.99964 6.31614 2.11804 6.11881C2.15322 6.06016 2.2023 6.01109 2.26095 5.9759L9.57003 1.59043C9.83394 1.4321 10.1636 1.4321 10.4275 1.59043ZM9.99878 3.27684L4.90489 6.33319L9.99878 9.38956L15.0927 6.33319L9.99878 3.27684Z" fill="white"/>
</svg>
