<svg width="40" height="40" viewBox="0 0 40 40" fill="none" xmlns="http://www.w3.org/2000/svg">
<path d="M0 20C0 8.95431 8.95431 0 20 0C31.0457 0 40 8.95431 40 20C40 31.0457 31.0457 40 20 40C8.95431 40 0 31.0457 0 20Z" fill="#ADF73E"/>
<path d="M23.8168 15.0215C24.4325 15.0691 26.2085 15.2594 27.3451 16.9404C27.2461 17.0148 25.2383 18.1754 25.2621 20.6123C25.2856 23.5201 27.808 24.4939 27.8422 24.5215C27.8184 24.593 27.4405 25.8965 26.517 27.2461C25.712 28.4311 24.8829 29.5914 23.557 29.6152C22.2784 29.6389 21.8514 28.8574 20.3842 28.8574C18.9162 28.8575 18.4426 29.5923 17.2348 29.6396C15.9564 29.6864 14.9861 28.3821 14.1811 27.1982C12.5234 24.8051 11.2684 20.4469 12.9731 17.5088C13.8018 16.0401 15.3174 15.1169 16.9506 15.0928C18.2055 15.0698 19.3663 15.9229 20.1244 15.9229C20.8821 15.9226 22.2307 14.9272 23.8168 15.0215Z" fill="black"/>
<path d="M23.8315 10.3594C23.9504 11.5002 23.4991 12.6167 22.8344 13.4482C22.1456 14.2565 21.0538 14.8975 19.9613 14.8027C19.8189 13.7097 20.3655 12.5467 20.9828 11.834C21.6704 11.0018 22.8582 10.4078 23.8315 10.3594Z" fill="black"/>
</svg>
