<svg width="20" height="20" viewBox="0 0 20 20" fill="none" xmlns="http://www.w3.org/2000/svg">
<rect width="20" height="20" rx="10" fill="black"/>
<path d="M10 4.1543C10.6443 4.1543 11.1669 4.67703 11.167 5.32129C11.167 5.69198 10.9932 6.02165 10.7236 6.23535V7.1084H14.623V14.8652H5.36719V7.1084H9.26562V6.22656C9.00245 6.01265 8.83398 5.68686 8.83398 5.32129C8.83407 4.67714 9.35587 4.15447 10 4.1543ZM4.75 13.2061H3.29199V8.76758H4.75V13.2061ZM16.7119 13.2061H15.2529V8.76758H16.7119V13.2061ZM7.25098 11.8613H9.00098V10.1113H7.25098V11.8613ZM11 11.8613H12.75V10.1113H11V11.8613Z" fill="#ADF73E"/>
</svg>
