<svg width="28" height="28" viewBox="0 0 28 28" fill="none" xmlns="http://www.w3.org/2000/svg">
<g clip-path="url(#clip0_10104_464164)">
<path d="M28 14C28 21.732 21.732 28 14 28C6.26801 28 0 21.732 0 14C0 6.26801 6.26801 0 14 0C21.732 0 28 6.26801 28 14Z" fill="black"/>
<path fill-rule="evenodd" clip-rule="evenodd" d="M19.8996 11.9135C19.6233 12.0754 19.3008 12.2251 18.9393 12.3602C19.3315 12.5625 19.6239 12.775 19.8208 12.9786C20.0669 13.2332 20.125 13.4292 20.125 13.5625C20.125 13.6959 20.0669 13.8919 19.8208 14.1464C19.5707 14.4052 19.1664 14.6782 18.599 14.9264C17.4668 15.4217 15.8415 15.75 14 15.75C12.1585 15.75 10.5332 15.4217 9.40097 14.9264C8.83357 14.6782 8.42934 14.4052 8.17918 14.1464C7.93308 13.8919 7.875 13.6959 7.875 13.5625C7.875 13.4292 7.93308 13.2332 8.17918 12.9786C8.37609 12.775 8.66846 12.5625 9.06073 12.3602C8.69916 12.2251 8.37673 12.0754 8.10038 11.9135C7.40383 12.3895 7 12.9554 7 13.5625C7 15.2539 10.134 16.625 14 16.625C17.866 16.625 21 15.2539 21 13.5625C21 12.9554 20.5962 12.3895 19.8996 11.9135Z" fill="white"/>
<path fill-rule="evenodd" clip-rule="evenodd" d="M19.8996 16.2885C19.6233 16.4503 19.3008 16.6001 18.9393 16.7351C19.3315 16.9374 19.6239 17.1499 19.8208 17.3536C20.0669 17.6081 20.125 17.8041 20.125 17.9375C20.125 18.0708 20.0669 18.2668 19.8208 18.5213C19.5707 18.7801 19.1664 19.0531 18.599 19.3013C17.4668 19.7967 15.8415 20.125 14 20.125C12.1585 20.125 10.5332 19.7967 9.40097 19.3013C8.83357 19.0531 8.42934 18.7801 8.17918 18.5213C7.93308 18.2668 7.875 18.0708 7.875 17.9375C7.875 17.8041 7.93308 17.6081 8.17918 17.3536C8.37609 17.1499 8.66846 16.9374 9.06073 16.7351C8.69916 16.6001 8.37673 16.4503 8.10038 16.2885C7.40383 16.7645 7 17.3303 7 17.9375C7 19.6288 10.134 21 14 21C17.866 21 21 19.6288 21 17.9375C21 17.3303 20.5962 16.7645 19.8996 16.2885Z" fill="white"/>
<ellipse cx="14" cy="9.1875" rx="7" ry="3.0625" fill="white"/>
</g>
<defs>
<clipPath id="clip0_10104_464164">
<rect width="28" height="28" fill="white"/>
</clipPath>
</defs>
</svg>
