<svg width="25" height="24" viewBox="0 0 25 24" fill="none" xmlns="http://www.w3.org/2000/svg">
<path d="M11.3007 20.5C11.3007 21.0523 11.7484 21.5 12.3007 21.5C12.853 21.5 13.3007 21.0523 13.3007 20.5H11.3007ZM4.07039 10.8161C3.69266 11.219 3.71307 11.8518 4.11599 12.2295C4.5189 12.6073 5.15173 12.5869 5.52946 12.1839L4.07039 10.8161ZM12.2999 3.5L13.0295 2.81606C12.8404 2.61441 12.5763 2.5 12.2999 2.5C12.0235 2.5 11.7594 2.61441 11.5704 2.81606L12.2999 3.5ZM19.0704 12.1839C19.4481 12.5869 20.081 12.6073 20.4839 12.2295C20.8868 11.8518 20.9072 11.219 20.5295 10.8161L19.0704 12.1839ZM11.3007 4.5L11.3007 20.5H13.3007L13.3007 4.5L11.3007 4.5ZM5.52946 12.1839L13.0295 4.18394L11.5704 2.81606L4.07039 10.8161L5.52946 12.1839ZM11.5704 4.18394L19.0704 12.1839L20.5295 10.8161L13.0295 2.81606L11.5704 4.18394Z" fill="#262933"/>
</svg>
