<svg width="24" height="24" viewBox="0 0 24 24" fill="none" xmlns="http://www.w3.org/2000/svg">
<path d="M10.2041 3.12488C11.3234 2.51436 12.6766 2.51436 13.7959 3.12488L19.5664 6.27234C20.4497 6.75416 20.9998 7.68024 21 8.68641V15.3124C21 16.3187 20.4498 17.2446 19.5664 17.7264L13.7959 20.8739C12.6766 21.4844 11.3234 21.4844 10.2041 20.8739L4.43359 17.7264C3.55016 17.2446 3.00004 16.3187 3 15.3124V8.68641C3.00016 7.68023 3.55026 6.75416 4.43359 6.27234L10.2041 3.12488ZM4.5 15.3124C4.50004 15.7698 4.74982 16.191 5.15137 16.41L10.9229 19.5575C11.0288 19.6153 11.1382 19.6644 11.25 19.704V12.4452L4.5 8.76356V15.3124ZM12.75 12.4452V19.704C12.8618 19.6644 12.9712 19.6153 13.0771 19.5575L18.8486 16.41C19.2502 16.191 19.5 15.7698 19.5 15.3124V8.76356L12.75 12.4452ZM13.0771 4.44129C12.4058 4.07521 11.5942 4.07524 10.9229 4.44129L5.31641 7.49988L12 11.1454L18.6836 7.49988L13.0771 4.44129Z" fill="#303236"/>
</svg>
