<svg width="25" height="24" viewBox="0 0 25 24" fill="none" xmlns="http://www.w3.org/2000/svg">
<path fill-rule="evenodd" clip-rule="evenodd" d="M4.90002 14C3.79545 14 2.90002 13.1046 2.90002 12C2.90002 10.8954 3.79545 10 4.90002 10C6.00459 10 6.90002 10.8954 6.90002 12C6.90002 13.1046 6.00459 14 4.90002 14ZM12.9 14C11.7954 14 10.9 13.1046 10.9 12C10.9 10.8954 11.7954 10 12.9 10C14.0046 10 14.9 10.8954 14.9 12C14.9 13.1046 14.0046 14 12.9 14ZM18.9 12C18.9 13.1046 19.7955 14 20.9 14C22.0046 14 22.9 13.1046 22.9 12C22.9 10.8954 22.0046 10 20.9 10C19.7955 10 18.9 10.8954 18.9 12Z" fill="#262933"/>
</svg>
