<svg width="80" height="80" viewBox="0 0 80 80" fill="none" xmlns="http://www.w3.org/2000/svg">
<path d="M29.1667 51.3333C41.1328 51.3333 50.8333 41.6328 50.8333 29.6667C50.8333 17.7005 41.1328 8 29.1667 8C17.2005 8 7.5 17.7005 7.5 29.6667C7.5 41.6328 17.2005 51.3333 29.1667 51.3333Z" fill="#0068FF"/>
<path d="M50.8327 73.0001C62.7989 73.0001 72.4994 63.2996 72.4994 51.3334C72.4994 39.3672 62.7989 29.6667 50.8327 29.6667C38.8665 29.6667 29.166 39.3672 29.166 51.3334C29.166 63.2996 38.8665 73.0001 50.8327 73.0001Z" fill="#FE7435"/>
<path d="M56.7969 17.1802C63.6934 17.1802 69.2834 22.7702 69.2834 29.6667" stroke="white" stroke-width="0.5" stroke-linecap="round" stroke-linejoin="round"/>
<path d="M23.2033 63.8198C16.3068 63.8198 10.7168 58.2298 10.7168 51.3333" stroke="white" stroke-width="0.5" stroke-linecap="round" stroke-linejoin="round"/>
<path d="M51.3293 18.0403L55.3051 20.3348C55.9681 20.7183 56.7958 20.2394 56.7958 19.4746V14.8834C56.7958 14.1186 55.9681 13.6398 55.3051 14.0233L51.3293 16.3178C50.6663 16.7013 50.6663 17.6568 51.3293 18.0403Z" fill="#A7F757"/>
<path d="M28.6696 62.9596L24.6938 60.6651C24.0308 60.2816 23.2031 60.7604 23.2031 61.5253V66.1164C23.2031 66.8813 24.0308 67.3601 24.6938 66.9766L28.6696 64.6821C29.3326 64.2986 29.3326 63.3431 28.6696 62.9596Z" fill="#A7F757"/>
</svg>
