<svg width="16" height="16" viewBox="0 0 16 16" fill="none" xmlns="http://www.w3.org/2000/svg">
<path fill-rule="evenodd" clip-rule="evenodd" d="M11.7142 7.35312C11.7142 9.76168 9.76168 11.7142 7.35312 11.7142C4.94457 11.7142 2.99204 9.76168 2.99204 7.35312C2.99204 4.94457 4.94457 2.99204 7.35312 2.99204C9.76168 2.99204 11.7142 4.94457 11.7142 7.35312ZM11.2376 12.9998C10.1336 13.7607 8.79539 14.2062 7.35312 14.2062C3.56825 14.2062 0.5 11.138 0.5 7.35312C0.5 3.56825 3.56825 0.5 7.35312 0.5C11.138 0.5 14.2062 3.56825 14.2062 7.35312C14.2062 8.79539 13.7607 10.1336 12.9998 11.2376L15.6262 13.8641C16.0168 14.2546 16.0168 14.8878 15.6262 15.2783L15.2783 15.6262C14.8878 16.0168 14.2546 16.0168 13.8641 15.6262L11.2376 12.9998Z" fill="#A0A3A7"/>
</svg>
