<svg width="40" height="40" viewBox="0 0 40 40" fill="none" xmlns="http://www.w3.org/2000/svg">
<path d="M0 20C0 8.95431 8.95431 0 20 0C31.0457 0 40 8.95431 40 20C40 31.0457 31.0457 40 20 40C8.95431 40 0 31.0457 0 20Z" fill="#F2F3F5"/>
<path d="M15.1538 20C15.1538 17.3238 17.3232 15.1542 19.9993 15.1538V19.9999H25.0671V14.9321H20V11C15.0294 11 11 15.0294 11 20C11 24.9706 15.0294 29 20 29C24.9706 29 29 24.9706 29 20H24.8462C24.8462 22.6765 22.6765 24.8462 20 24.8462C17.3235 24.8462 15.1538 22.6765 15.1538 20Z" fill="#303236"/>
</svg>
