<svg width="24" height="24" viewBox="0 0 24 24" fill="none" xmlns="http://www.w3.org/2000/svg">
<path d="M15.8167 7.02148C16.4324 7.06911 18.2085 7.25942 19.345 8.94043C19.2461 9.0148 17.2382 10.1754 17.262 12.6123C17.2855 15.5201 19.8079 16.4939 19.8421 16.5215C19.8183 16.593 19.4405 17.8965 18.5169 19.2461C17.7119 20.4311 16.8828 21.5914 15.557 21.6152C14.2783 21.6389 13.8513 20.8574 12.3841 20.8574C10.9161 20.8575 10.4425 21.5923 9.2347 21.6396C7.95632 21.6864 6.98602 20.3821 6.18098 19.1982C4.5233 16.8051 3.26833 12.4469 4.97298 9.50879C5.80176 8.04011 7.31732 7.11688 8.95052 7.09277C10.2054 7.06979 11.3663 7.92285 12.1243 7.92285C12.882 7.92257 14.2306 6.92723 15.8167 7.02148Z" fill="black"/>
<path d="M15.8314 2.35938C15.9503 3.50022 15.499 4.61673 14.8343 5.44824C14.1455 6.25647 13.0537 6.8975 11.9613 6.80273C11.8188 5.7097 12.3654 4.54666 12.9827 3.83398C13.6703 3.00177 14.8582 2.40777 15.8314 2.35938Z" fill="black"/>
</svg>
