<svg width="15" height="14" viewBox="0 0 15 14" fill="none" xmlns="http://www.w3.org/2000/svg">
<path d="M4.29399 6.25C4.59214 4.75 5.93381 3.625 7.49908 3.625C8.47952 3.625 9.288 4.02871 9.87428 4.68441C10.0006 4.82573 10.2262 4.83488 10.3486 4.69007L11.2153 3.66401C11.3075 3.55498 11.3078 3.39458 11.2095 3.29117C10.3111 2.34688 8.97099 1.75 7.49908 1.75C4.89029 1.75 2.72871 3.7 2.35603 6.25H1.4309C1.18074 6.25 1.04666 6.54428 1.21082 6.73306L3.17946 8.99691C3.29572 9.13061 3.50337 9.13061 3.61964 8.99691L5.58828 6.73306C5.75243 6.54428 5.61835 6.25 5.36819 6.25H4.29399ZM11.8187 5.00309C11.7024 4.86939 11.4948 4.86939 11.3785 5.00309L9.40989 7.26694C9.24573 7.45572 9.37981 7.75 9.62998 7.75H10.7042C10.3315 9.25 9.06436 10.375 7.49908 10.375C6.51509 10.375 5.70429 9.96835 5.11751 9.30843C4.99357 9.16904 4.77276 9.15717 4.64881 9.29656L3.78616 10.2667C3.69194 10.3726 3.68683 10.5317 3.78098 10.6378C4.67939 11.6497 6.02295 12.25 7.49908 12.25C10.1079 12.25 12.2695 10.3 12.6421 7.75H13.5673C13.8174 7.75 13.9515 7.45572 13.7874 7.26694L11.8187 5.00309Z" fill="#303236"/>
</svg>
