<svg width="41" height="40" viewBox="0 0 41 40" fill="none" xmlns="http://www.w3.org/2000/svg">
<rect x="0.700012" width="40" height="40" rx="20" fill="white"/>
<path d="M22.2042 23.1387C21.6033 23.1378 20.9968 22.991 20.4422 22.7598C19.8876 22.5286 19.3841 22.1903 18.9605 21.7642L18.9118 21.7155C18.6075 21.4112 18.6075 20.9178 18.9118 20.6135C19.2161 20.3092 19.7095 20.3092 20.0138 20.6135L20.0625 20.6622C20.6053 21.2074 21.3354 21.5255 22.1044 21.5515C22.8733 21.5775 23.6233 21.3097 24.2018 20.8023L24.2368 20.7712C24.271 20.7419 24.3035 20.7107 24.3342 20.6777L26.7991 18.2128C27.0812 17.9321 27.305 17.5983 27.4578 17.2308C27.6105 16.8632 27.6891 16.4692 27.6891 16.0711C27.6891 15.6731 27.6105 15.279 27.4578 14.9115C27.305 14.544 27.0812 14.2102 26.7991 13.9294L26.7523 13.8827C26.4716 13.6006 26.1378 13.3768 25.7703 13.224C25.4027 13.0713 25.0087 12.9926 24.6106 12.9926C24.2126 12.9926 23.8185 13.0713 23.451 13.224C23.0835 13.3768 22.7497 13.6006 22.4689 13.8827L21.2112 15.1405C21.1782 15.1711 21.147 15.2036 21.1177 15.2378C20.8506 15.5713 20.3607 15.6287 20.0272 15.3615C19.6909 15.092 19.6397 14.5997 19.9133 14.2667L19.9184 14.2604C19.984 14.1811 20.0542 14.1057 20.1287 14.0346L21.3864 12.7768C21.8119 12.3493 22.3177 12.0101 22.8747 11.7786C23.4317 11.5471 24.0289 11.428 24.6321 11.428C25.2352 11.428 25.8325 11.5471 26.3894 11.7786C26.9464 12.0101 27.4522 12.3493 27.8777 12.7768L27.9244 12.8235C28.3519 13.2491 28.6912 13.7548 28.9226 14.3118C29.1541 14.8688 29.2733 15.466 29.2733 16.0692C29.2733 16.6724 29.1541 17.2696 28.9226 17.8266C28.6912 18.3836 28.3519 18.8893 27.9244 19.3148L25.4595 21.7797C25.3941 21.8468 25.3252 21.9105 25.2532 21.9705C24.4124 22.7173 23.3286 23.1325 22.2042 23.1387Z" fill="#262933"/>
<path d="M16.7693 28.5628C16.1664 28.5638 15.5693 28.4452 15.0125 28.214C14.4557 27.9827 13.9503 27.6433 13.5256 27.2155L13.4788 27.1687C13.0513 26.7432 12.7121 26.2374 12.4806 25.6805C12.2492 25.1235 12.13 24.5262 12.13 23.9231C12.13 23.3199 12.2492 22.7227 12.4806 22.1657C12.7121 21.6087 13.0513 21.1029 13.4788 20.6774L15.9437 18.2125C16.0092 18.1454 16.0781 18.0817 16.1501 18.0217C17.0243 17.2473 18.1611 16.8358 19.3285 16.8713C20.4958 16.9067 21.6056 17.3865 22.4311 18.2125L22.4904 18.2733C22.79 18.5807 22.7868 19.0718 22.4833 19.3753C22.1771 19.6815 21.6805 19.6815 21.3743 19.3753L21.3291 19.3301C20.7863 18.7848 20.0562 18.4668 19.2872 18.4408C18.5183 18.4147 17.7683 18.6826 17.1898 19.1899L17.1548 19.2211C17.1206 19.2504 17.0881 19.2816 17.0574 19.3145L14.5925 21.7794C14.3104 22.0602 14.0866 22.3939 13.9338 22.7615C13.7811 23.129 13.7025 23.5231 13.7025 23.9211C13.7025 24.3191 13.7811 24.7132 13.9338 25.0808C14.0866 25.4483 14.3104 25.7821 14.5925 26.0628L14.6393 26.1096C14.92 26.3917 15.2538 26.6155 15.6213 26.7682C15.9888 26.921 16.3829 26.9996 16.781 26.9996C17.179 26.9996 17.5731 26.921 17.9406 26.7682C18.3081 26.6155 18.6419 26.3917 18.9226 26.1096L20.1804 24.8518C20.2134 24.8211 20.2446 24.7886 20.2739 24.7544C20.5408 24.4214 21.0307 24.3627 21.3642 24.6291C21.7022 24.8991 21.7491 25.3986 21.4732 25.7318C21.4076 25.8112 21.3374 25.8866 21.2629 25.9577L20.0052 27.2155C19.5813 27.6424 19.0772 27.9812 18.5219 28.2125C17.9665 28.4437 17.3709 28.5628 16.7693 28.5628Z" fill="#262933"/>
</svg>
