<svg width="40" height="40" viewBox="0 0 40 40" fill="none" xmlns="http://www.w3.org/2000/svg">
<path d="M0 20C0 8.95431 8.95431 0 20 0C31.0457 0 40 8.95431 40 20C40 31.0457 31.0457 40 20 40C8.95431 40 0 31.0457 0 20Z" fill="#ADF73E"/>
<path d="M18 13.4473C22.4183 13.4473 26 17.1529 26 21.7236C25.9999 26.2943 22.4182 29.999 18 29.999C13.5819 29.9989 10.0001 26.2942 10 21.7236C10 17.153 13.5818 13.4474 18 13.4473ZM18.4453 18.7354C18.2027 18.4846 17.8003 18.4847 17.5576 18.7354L15.083 21.2959C14.8517 21.5352 14.8517 21.915 15.083 22.1543L17.5576 24.7139C17.8003 24.9649 18.2026 24.9649 18.4453 24.7139L20.9199 22.1543C21.1512 21.915 21.1512 21.5352 20.9199 21.2959L18.4453 18.7354Z" fill="black"/>
<path d="M22.333 10C26.5671 10.0001 29.999 13.5514 29.999 17.9316C29.9988 20.644 28.6817 23.0368 26.6738 24.4668C27.0975 23.4099 27.3329 22.2515 27.333 21.0361C27.333 16.0846 23.4534 12.0705 18.667 12.0703C18.0961 12.0703 17.5381 12.1283 16.998 12.2373C18.3782 10.8532 20.259 10 22.333 10Z" fill="black"/>
</svg>
