<svg width="40" height="40" viewBox="0 0 40 40" fill="none" xmlns="http://www.w3.org/2000/svg">
<path d="M0 20C0 8.95431 8.95431 0 20 0C31.0457 0 40 8.95431 40 20C40 31.0457 31.0457 40 20 40C8.95431 40 0 31.0457 0 20Z" fill="#ADF73E"/>
<path d="M26.8636 13.7324C28.2331 15.0361 29.1767 16.7077 29.5599 18.541C29.9431 20.375 29.7455 22.2753 28.9964 23.9971C28.2476 25.7178 26.9855 27.1748 25.3841 28.1934C23.7834 29.2114 21.91 29.75 20.0003 29.75C18.0906 29.75 16.2171 29.2114 14.6165 28.1934C13.015 27.1748 11.7529 25.7178 11.0042 23.9971C10.2551 22.2753 10.0575 20.375 10.4407 18.541C10.8238 16.7077 11.7675 15.0361 13.137 13.7324L15.5501 16.2676C14.6821 17.0938 14.1018 18.1359 13.8675 19.2568C13.6334 20.3771 13.7524 21.5395 14.2142 22.6006C14.6764 23.6629 15.4657 24.5853 16.4954 25.2402C17.5258 25.8955 18.7457 26.25 20.0003 26.25C21.2549 26.25 22.4748 25.8955 23.5052 25.2402C24.5349 24.5853 25.3242 23.6629 25.7864 22.6006C26.2481 21.5395 26.3672 20.3771 26.1331 19.2568C25.8988 18.1359 25.3185 17.0938 24.4505 16.2676L26.8636 13.7324Z" fill="black"/>
<path d="M21.7503 19H24.0003L20.0003 23L16.0003 19H18.2503V11H21.7503V19Z" fill="black"/>
</svg>
