<svg width="40" height="40" viewBox="0 0 40 40" fill="none" xmlns="http://www.w3.org/2000/svg">
<path d="M0 20C0 8.95431 8.95431 0 20 0C31.0457 0 40 8.95431 40 20C40 31.0457 31.0457 40 20 40C8.95431 40 0 31.0457 0 20Z" fill="#ADF73E"/>
<path d="M23.8167 15.0215C24.4324 15.0691 26.2085 15.2594 27.345 16.9404C27.2461 17.0148 25.2382 18.1754 25.262 20.6123C25.2855 23.5201 27.8079 24.4939 27.8421 24.5215C27.8183 24.593 27.4405 25.8965 26.5169 27.2461C25.7119 28.4311 24.8828 29.5914 23.557 29.6152C22.2783 29.6389 21.8513 28.8574 20.3841 28.8574C18.9161 28.8575 18.4425 29.5923 17.2347 29.6396C15.9563 29.6864 14.986 28.3821 14.181 27.1982C12.5233 24.8051 11.2683 20.4469 12.973 17.5088C13.8018 16.0401 15.3173 15.1169 16.9505 15.0928C18.2054 15.0698 19.3663 15.9229 20.1243 15.9229C20.882 15.9226 22.2306 14.9272 23.8167 15.0215Z" fill="black"/>
<path d="M23.8314 10.3594C23.9503 11.5002 23.499 12.6167 22.8343 13.4482C22.1455 14.2565 21.0537 14.8975 19.9613 14.8027C19.8188 13.7097 20.3654 12.5467 20.9827 11.834C21.6703 11.0018 22.8582 10.4078 23.8314 10.3594Z" fill="black"/>
</svg>
