<svg width="40" height="40" viewBox="0 0 40 40" fill="none" xmlns="http://www.w3.org/2000/svg">
<path d="M0 20C0 8.95431 8.95431 0 20 0C31.0457 0 40 8.95431 40 20C40 31.0457 31.0457 40 20 40C8.95431 40 0 31.0457 0 20Z" fill="#ADF73E"/>
<path d="M14.75 25.25H17.25V28.75H11.25V22.75H14.75V25.25Z" fill="black"/>
<path d="M28.75 28.75H22.75V25.25H25.25V22.75H28.75V28.75Z" fill="black"/>
<path d="M25 21.75H15V18.25H25V21.75Z" fill="black"/>
<path d="M17.25 14.75H14.75V17.25H11.25V11.25H17.25V14.75Z" fill="black"/>
<path d="M28.75 17.25H25.25V14.75H22.75V11.25H28.75V17.25Z" fill="black"/>
</svg>
