<svg width="141" height="141" viewBox="0 0 141 141" fill="none" xmlns="http://www.w3.org/2000/svg">
<mask id="path-1-inside-1_5382_56535" fill="white">
<path fill-rule="evenodd" clip-rule="evenodd" d="M105.704 53.4207C119.163 54.8635 129.645 66.2577 129.645 80.0999C129.645 94.9195 117.631 106.933 102.811 106.933H38.4114C23.5918 106.933 11.5781 94.9195 11.5781 80.0999C11.5781 66.2577 22.0594 54.8635 35.5185 53.4207C38.7737 37.0134 53.2481 24.6445 70.6115 24.6445C87.9748 24.6445 102.449 37.0134 105.704 53.4207Z"/>
</mask>
<path fill-rule="evenodd" clip-rule="evenodd" d="M105.704 53.4207C119.163 54.8635 129.645 66.2577 129.645 80.0999C129.645 94.9195 117.631 106.933 102.811 106.933H38.4114C23.5918 106.933 11.5781 94.9195 11.5781 80.0999C11.5781 66.2577 22.0594 54.8635 35.5185 53.4207C38.7737 37.0134 53.2481 24.6445 70.6115 24.6445C87.9748 24.6445 102.449 37.0134 105.704 53.4207Z" fill="#1A1A1A"/>
<path d="M105.704 53.4207L104.724 53.6153L104.867 54.3367L105.598 54.415L105.704 53.4207ZM35.5185 53.4207L35.6251 54.415L36.3563 54.3367L36.4994 53.6153L35.5185 53.4207ZM105.598 54.415C118.554 55.804 128.645 66.7742 128.645 80.0999H130.645C130.645 65.7412 119.773 53.9231 105.811 52.4264L105.598 54.415ZM128.645 80.0999C128.645 94.3673 117.079 105.933 102.811 105.933V107.933C118.183 107.933 130.645 95.4718 130.645 80.0999H128.645ZM102.811 105.933H38.4114V107.933H102.811V105.933ZM38.4114 105.933C24.1441 105.933 12.5781 94.3673 12.5781 80.0999H10.5781C10.5781 95.4718 23.0395 107.933 38.4114 107.933V105.933ZM12.5781 80.0999C12.5781 66.7742 22.6686 55.8039 35.6251 54.415L35.4119 52.4264C21.4501 53.9231 10.5781 65.7412 10.5781 80.0999H12.5781ZM36.4994 53.6153C39.6635 37.667 53.7346 25.6445 70.6115 25.6445V23.6445C52.7617 23.6445 37.8839 36.3597 34.5376 53.2261L36.4994 53.6153ZM70.6115 25.6445C87.4883 25.6445 101.559 37.6671 104.724 53.6153L106.685 53.2261C103.339 36.3597 88.4613 23.6445 70.6115 23.6445V25.6445Z" fill="#FAFAFA" mask="url(#path-1-inside-1_5382_56535)"/>
<rect x="77.1445" y="78.3115" width="60.6667" height="49" rx="2.33333" fill="#1A1A1A"/>
<path d="M96.7285 83.728C96.7285 77.929 101.43 73.228 107.229 73.228C113.028 73.228 117.729 77.929 117.729 83.728V93.228H96.7285V83.728Z" stroke="#FAFAFA"/>
<path d="M86.7285 92.3947C86.7285 90.0935 88.594 88.228 90.8952 88.228H123.562C125.863 88.228 127.729 90.0935 127.729 92.3947V113.061C127.729 115.363 125.863 117.228 123.562 117.228H90.8952C88.594 117.228 86.7285 115.363 86.7285 113.061V92.3947Z" fill="#FAFAFA" stroke="#FAFAFA"/>
<path d="M102.478 101.978L107.478 96.978L112.478 101.978" stroke="#0080FF" stroke-width="2" stroke-linecap="round" stroke-linejoin="round"/>
<path d="M107.478 96.978V108.645" stroke="#0080FF" stroke-width="2" stroke-linecap="round" stroke-linejoin="round"/>
</svg>
