<svg width="40" height="41" viewBox="0 0 40 41" fill="none" xmlns="http://www.w3.org/2000/svg">
<path d="M0 20.5C0 9.45431 8.95431 0.5 20 0.5C31.0457 0.5 40 9.45431 40 20.5C40 31.5457 31.0457 40.5 20 40.5C8.95431 40.5 0 31.5457 0 20.5Z" fill="#F2F3F5"/>
<path d="M23.3931 12.1928C23.7836 11.8023 24.4168 11.8023 24.8073 12.1928L28.2925 15.678C28.683 16.0685 28.683 16.7017 28.2925 17.0922L25.8966 19.4881L20.9915 14.5945L23.3931 12.1928Z" fill="#68AD00"/>
<path d="M19.9307 15.6552L24.8217 20.563L18.899 26.4857H28C28.5523 26.4857 29 26.9334 29 27.4857V28.4857C29 29.038 28.5523 29.4857 28 29.4857H13V29.483L12.0023 29.4821C11.4508 29.4816 11.0038 29.0346 11.0033 28.483L11 25.0011C10.9998 24.7356 11.1051 24.4808 11.2929 24.2931L19.9307 15.6552Z" fill="#68AD00"/>
</svg>
