<svg width="40" height="41" viewBox="0 0 40 41" fill="none" xmlns="http://www.w3.org/2000/svg">
<path d="M0 20.5C0 9.45431 8.95431 0.5 20 0.5C31.0457 0.5 40 9.45431 40 20.5C40 31.5457 31.0457 40.5 20 40.5C8.95431 40.5 0 31.5457 0 20.5Z" fill="#ADF73E"/>
<path d="M11 15.5H19V23.5H11V15.5Z" fill="black"/>
<path d="M21 17.5H29V25.5H21V17.5Z" fill="black"/>
<path d="M24 12.5H26V17.5H24V12.5Z" fill="black"/>
<path d="M14 12.5H16V15.5H14V12.5Z" fill="black"/>
<path d="M14 23.5H16V28.5H14V23.5Z" fill="black"/>
<path d="M24 25.5H26V28.5H24V25.5Z" fill="black"/>
</svg>
