<svg fill="none" height="27" viewBox="0 0 28 27" width="28" xmlns="http://www.w3.org/2000/svg" xmlns:xlink="http://www.w3.org/1999/xlink"><linearGradient id="a" gradientUnits="userSpaceOnUse" x1="18.8397" x2="1.7668" y1="18.2886" y2="17.462"><stop offset="0" stop-color="#f8cb3a"/><stop offset=".311241" stop-color="#ffcd4c"/><stop offset="1" stop-color="#ffe9a2"/><stop offset="1" stop-color="#ffefbb"/></linearGradient><linearGradient id="b" gradientUnits="userSpaceOnUse" x1="19.0004" x2="1.76663" y1="19.9999" y2="17.462"><stop offset="0" stop-color="#ffda61"/><stop offset=".34107" stop-color="#ffd753"/><stop offset="1" stop-color="#ffe07c"/></linearGradient><linearGradient id="c" gradientUnits="userSpaceOnUse" x1="2.34453" x2="5.07643" y1="2.19474" y2="15.8277"><stop offset="0" stop-color="#fdc431"/><stop offset="1" stop-color="#ffe48e"/></linearGradient><linearGradient id="d" gradientUnits="userSpaceOnUse" x1="11.843" x2="13.4623" y1="10.5959" y2="14.1651"><stop offset="0" stop-color="#fea217"/><stop offset="1" stop-color="#f58925" stop-opacity=".33"/></linearGradient><mask id="e" height="25" maskUnits="userSpaceOnUse" width="26" x="0" y="0"><path clip-rule="evenodd" d="m25.1859 10.2187c-7.5001 1.1775-13.4632 6.9864-14.8703 14.4078l-9.02943-4.8353c-.465415-.2492-.471586-.9143-.01087-1.1722l3.82394-2.1399c1.11886-.6261 1.78071-1.8373 1.70337-3.1171l-.37072-6.13443c-.05002-.82763.65784-1.50059 1.48188-1.40884l6.21393.69193c1.3814.15381 2.7136-.56363 3.3455-1.80157l1.8058-3.5376c.2475-.484919.9394-.4878 1.1909-.00496z" fill="url(#b)" fill-rule="evenodd"/></mask><path clip-rule="evenodd" d="m25.1859 10.2187c-7.5001 1.1775-13.4632 6.9864-14.8703 14.4078l-9.02943-4.8353c-.465415-.2492-.471586-.9143-.01087-1.1722l3.82394-2.1399c1.11886-.6261 1.78071-1.8373 1.70337-3.1171l-.37072-6.13443c-.05002-.82763.65784-1.50059 1.48188-1.40884l6.21393.69193c1.3814.15381 2.7136-.56363 3.3455-1.80157l1.8058-3.5376c.2475-.484919.9394-.4878 1.1909-.00496z" fill="url(#a)" fill-rule="evenodd"/><g mask="url(#e)"><path d="m0 0h13.6983v20.3804h-13.6983z" fill="url(#c)" transform="matrix(.715403 -.698712 .698711 .715405 5.80957 5.22363)"/></g><path d="m11.7847 13.4111-.4771-2.5414 2.5294.537.3561 2.4269z" fill="url(#d)"/></svg>