<svg fill="none" height="10" viewBox="0 0 10 10" width="10" xmlns="http://www.w3.org/2000/svg" xmlns:xlink="http://www.w3.org/1999/xlink"><filter id="a" color-interpolation-filters="sRGB" filterUnits="userSpaceOnUse" height="9.10862" width="9.48716" x=".011546" y=".82014"><feFlood flood-opacity="0" result="BackgroundImageFix"/><feGaussianBlur in="BackgroundImageFix" stdDeviation=".147059"/><feComposite in2="SourceAlpha" operator="in" result="effect1_backgroundBlur_6182_25992"/><feBlend in="SourceGraphic" in2="effect1_backgroundBlur_6182_25992" mode="normal" result="shape"/></filter><g filter="url(#a)"><path d="m1.14541 6.00966c-1.1198889-1.11988-1.1198871-2.93557 0-4.05546 1.11988-1.119884 2.93558-1.119885 4.05546 0l4.00348 4.00347-3.40927 3.40927c-.35688.35688-.93551.35688-1.2924 0z" fill="#fff" fill-opacity=".5"/></g><g fill="#fff"><path d="m9.14273 1.95405c-1.11989-1.119886-2.93558-1.119885-4.05547 0l-1.70494 1.70494c.46651.46651 1.22288.46651 1.68939 0l.03766-.03766c.48731-.48731 1.2774-.48731 1.7647 0l2.32756 2.32756c1.06067-1.12386 1.04097-2.89494-.0589-3.99484z"/><path d="m5.10399 7.40712c-.05743-.05743-.15055-.05743-.20798 0s-.05743.15054 0 .20797zm-.20798.20797 1.32353 1.32353.20798-.20797-1.32353-1.32353z"/><path d="m6.06004 6.45119c-.05743-.05743-.15054-.05743-.20797 0s-.05743.15054 0 .20797zm-.20797.20797 1.32353 1.32353.20797-.20797-1.32353-1.32353z"/><path d="m6.94237 5.56874c-.05743-.05743-.15055-.05743-.20798 0s-.05743.15055 0 .20798zm-.20798.20798 1.32353 1.32353.20797-.20798-1.32352-1.32353z"/></g></svg>