<svg width="14" height="14" viewBox="0 0 14 14" fill="none" xmlns="http://www.w3.org/2000/svg">
<path d="M2.3335 2.33268C2.3335 1.68835 2.85583 1.16602 3.50016 1.16602H10.5002C11.1445 1.16602 11.6668 1.68835 11.6668 2.33268V4.14232C10.6565 4.6268 9.55882 4.95852 8.4032 5.10732C8.1374 4.60413 7.60883 4.2612 7.00016 4.2612C6.39268 4.2612 5.86498 4.6028 5.59867 5.1044C4.44214 4.95299 3.34388 4.61834 2.3335 4.13073V2.33268Z" fill="url(#paint0_linear_2360_15364)"/>
<path d="M5.4699 6.26414C4.37097 6.12242 3.31838 5.83129 2.3335 5.41167V11.666C2.3335 12.3103 2.85583 12.8327 3.50016 12.8327H10.5002C11.1445 12.8327 11.6668 12.3103 11.6668 11.666V5.42191C10.6814 5.83919 9.62855 6.12795 8.52956 6.26733C8.34532 6.93907 7.73039 7.43265 7.00016 7.43265C6.26878 7.43265 5.65306 6.9375 5.4699 6.26414Z" fill="url(#paint1_linear_2360_15364)"/>
<defs>
<linearGradient id="paint0_linear_2360_15364" x1="7.00016" y1="1.16602" x2="7.00016" y2="12.8327" gradientUnits="userSpaceOnUse">
<stop offset="0.156585" stop-color="#FF7990"/>
<stop offset="1" stop-color="#F21981"/>
</linearGradient>
<linearGradient id="paint1_linear_2360_15364" x1="7.00016" y1="1.16602" x2="7.00016" y2="12.8327" gradientUnits="userSpaceOnUse">
<stop offset="0.156585" stop-color="#FF7990"/>
<stop offset="1" stop-color="#F21981"/>
</linearGradient>
</defs>
</svg>
