<svg width="97" height="96" viewBox="0 0 97 96" fill="none" xmlns="http://www.w3.org/2000/svg">
<path fill-rule="evenodd" clip-rule="evenodd" d="M20 17H70.509V60.0736C69.9269 60.0249 69.3382 60 68.7439 60C59.8522 60 52.7271 65.5965 49.5 73.5158C50.2658 75.4035 51.253 77.156 52.4329 78.7309H26.9119C23.0946 78.7309 20 75.6364 20 71.819V17Z" fill="#D0D4DB"/>
<path fill-rule="evenodd" clip-rule="evenodd" d="M36.4277 29.1094H31.2246V34.3123H36.4277V29.1094ZM31.2246 41.5391H59.2852V44.5391H31.2246V41.5391ZM31.2246 52.7578H45.8161V55.7578H31.2246V52.7578Z" fill="white"/>
<rect x="26" y="85" width="5" height="5" fill="#D0D4DB"/>
<rect x="4" y="14" width="7" height="7" fill="#D0D4DB"/>
<rect x="85" y="38" width="8" height="8" fill="#D0D4DB"/>
<path d="M68.7627 77.1886C70.7962 77.1886 72.4448 75.54 72.4448 73.5064C72.4448 71.4729 70.7962 69.8243 68.7627 69.8243C66.7291 69.8243 65.0805 71.4729 65.0805 73.5064C65.0805 75.54 66.7291 77.1886 68.7627 77.1886Z" fill="#B8BFCC"/>
<path d="M54.0342 73.495C56.4415 67.735 62.1293 63.6875 68.7624 63.6875C75.4043 63.6875 81.0983 67.7458 83.5001 73.518C81.0928 79.278 75.4051 83.3255 68.772 83.3255C62.13 83.3255 56.436 79.2672 54.0342 73.495ZM74.8995 73.5064C74.8995 70.1171 72.152 67.3696 68.7627 67.3696C65.3734 67.3696 62.6258 70.1171 62.6258 73.5064C62.6258 76.8957 65.3734 79.6433 68.7627 79.6433C72.152 79.6433 74.8995 76.8957 74.8995 73.5064Z" fill="#B8BFCC"/>
</svg>
