<svg width="18" height="18" viewBox="0 0 18 18" fill="none" xmlns="http://www.w3.org/2000/svg">
<path d="M10.8 2L6.49302 2C6.11254 2 5.88648 2.425 6.09915 2.7405L7.37777 4.63735C7.54346 4.88316 7.36733 5.21429 7.0709 5.21429V5.21429C4.8226 5.21429 3 7.03689 3 9.28518V14.4745C3 15.8693 4.13071 17 5.52551 17H13.4745C14.8693 17 16 15.8693 16 14.4745V9.58234C16 7.16993 14.0444 5.21429 11.6319 5.21429V5.21429C11.298 5.21429 11.1132 4.82711 11.3232 4.56746L13.4 2" stroke="#262933" stroke-width="1.3" stroke-linecap="round"/>
<path d="M9.5 9.19951V7.99951" stroke="#262933" stroke-width="1.3" stroke-linecap="round"/>
<path d="M9.5 13.1997V14.3997" stroke="#262933" stroke-width="1.3" stroke-linecap="round"/>
<path d="M10.775 9.19971H9C8.44771 9.19971 8 9.64742 8 10.1997V10.1997C8 10.752 8.44772 11.1997 9 11.1997H10C10.5523 11.1997 11 11.6474 11 12.1997V12.1997C11 12.752 10.5523 13.1997 10 13.1997H8.225" stroke="#262933" stroke-width="1.3" stroke-linecap="round"/>
</svg>
