<svg width="12" height="12" viewBox="0 0 12 12" fill="none" xmlns="http://www.w3.org/2000/svg">
<g clip-path="url(#clip0_8107_4374)">
<path fill-rule="evenodd" clip-rule="evenodd" d="M1.82917 4.05762C1.7731 4.3076 1.74356 4.56737 1.74356 4.83478V9.1206H1.03149C0.755352 9.1206 0.531494 9.34446 0.531494 9.6206C0.531494 9.89675 0.755352 10.1206 1.03149 10.1206H2.24356H4.13646C4.24739 11.0517 5.03972 11.7736 6.00066 11.7736C6.96159 11.7736 7.75392 11.0517 7.86485 10.1206H7.89215L6.89215 9.1206H2.74356V4.97201L1.82917 4.05762ZM9.2546 7.02614V4.83478C9.2546 3.31291 7.8523 1.98471 5.99908 1.98471C5.46075 1.98471 4.96048 2.09678 4.52157 2.29311L3.7791 1.55065C4.29497 1.26545 4.88035 1.07735 5.50061 1.01117V0.773621C5.50061 0.497478 5.72446 0.273621 6.00061 0.273621C6.27675 0.273621 6.50061 0.497478 6.50061 0.773621V1.0115C8.57254 1.23395 10.2546 2.81689 10.2546 4.83478V8.02614L9.2546 7.02614ZM6.00066 10.7736C5.59365 10.7736 5.25135 10.4965 5.15217 10.1207H6.84914C6.74996 10.4965 6.40766 10.7736 6.00066 10.7736Z" fill="#AAAEB2"/>
<path fill-rule="evenodd" clip-rule="evenodd" d="M0.963232 0.963171C1.18081 0.745593 1.53357 0.745593 1.75115 0.963171L11.0369 10.2489C11.2544 10.4665 11.2544 10.8192 11.0369 11.0368C10.8193 11.2544 10.4665 11.2544 10.2489 11.0368L0.963232 1.75109C0.745654 1.53351 0.745654 1.18075 0.963232 0.963171Z" fill="#AAAEB2"/>
</g>
<defs>
<clipPath id="clip0_8107_4374">
<rect width="12" height="12" fill="white"/>
</clipPath>
</defs>
</svg>
