<svg width="18" height="18" viewBox="0 0 18 18" fill="none" xmlns="http://www.w3.org/2000/svg">
<path d="M9.6 16H12.3059C14.1252 16 15.6 14.5252 15.6 12.7059V8.8C15.6 5.04446 12.5555 2 8.8 2V2C5.04446 2 2 5.04447 2 8.80001V11.8327C2 12.146 2.25398 12.4 2.56727 12.4H3.73333C4.21198 12.4 4.6 12.012 4.6 11.5333V9.6C4.6 8.71634 3.88366 8 3 8H2.4" stroke="#262933" stroke-width="1.4" stroke-linecap="round"/>
<path d="M15.04 12.4H14.2C13.5373 12.4 13 11.8627 13 11.2V9.6C13 8.71634 13.7163 8 14.6 8H15.36" stroke="#262933" stroke-width="1.4" stroke-linecap="round"/>
</svg>
