<svg width="17" height="16" viewBox="0 0 17 16" fill="none" xmlns="http://www.w3.org/2000/svg">
<path d="M3 3.41667C3 3.18655 3.18655 3 3.41667 3H4.25C4.48012 3 4.66667 3.18655 4.66667 3.41667V4.25C4.66667 4.48012 4.48012 4.66667 4.25 4.66667H3.41667C3.18655 4.66667 3 4.48012 3 4.25V3.41667Z" fill="#303236"/>
<path fill-rule="evenodd" clip-rule="evenodd" d="M7.16667 2.16667V5.5C7.16667 6.42047 6.42047 7.16667 5.5 7.16667H2.16667C1.24619 7.16667 0.5 6.42047 0.5 5.5V2.16667C0.5 1.24619 1.24619 0.5 2.16667 0.5H5.5C6.42047 0.5 7.16667 1.24619 7.16667 2.16667ZM2.16667 2.16667H5.5V5.5H2.16667V2.16667Z" fill="#303236"/>
<path d="M3 11.75C3 11.5199 3.18655 11.3333 3.41667 11.3333H4.25C4.48012 11.3333 4.66667 11.5199 4.66667 11.75V12.5833C4.66667 12.8135 4.48012 13 4.25 13H3.41667C3.18655 13 3 12.8135 3 12.5833V11.75Z" fill="#303236"/>
<path fill-rule="evenodd" clip-rule="evenodd" d="M2.16667 8.83333C1.24619 8.83333 0.5 9.57953 0.5 10.5V13.8333C0.5 14.7538 1.24619 15.5 2.16667 15.5H5.5C6.42047 15.5 7.16667 14.7538 7.16667 13.8333V10.5C7.16667 9.57953 6.42047 8.83333 5.5 8.83333H2.16667ZM2.16667 10.5H5.5V13.8333H2.16667V10.5Z" fill="#303236"/>
<path d="M11.3333 3.41667C11.3333 3.18655 11.5199 3 11.75 3H12.5833C12.8135 3 13 3.18655 13 3.41667V4.25C13 4.48012 12.8135 4.66667 12.5833 4.66667H11.75C11.5199 4.66667 11.3333 4.48012 11.3333 4.25V3.41667Z" fill="#303236"/>
<path fill-rule="evenodd" clip-rule="evenodd" d="M8.83333 2.16667C8.83333 1.24619 9.57953 0.5 10.5 0.5H13.8333C14.7538 0.5 15.5 1.24619 15.5 2.16667V5.5C15.5 6.42047 14.7538 7.16667 13.8333 7.16667H10.5C9.57953 7.16667 8.83333 6.42047 8.83333 5.5V2.16667ZM10.5 2.16667H13.8333V5.5H10.5V2.16667Z" fill="#303236"/>
<path d="M10.9167 8.83333C10.6865 8.83333 10.5 9.01988 10.5 9.25V10.0833C10.5 10.3135 10.6865 10.5 10.9167 10.5H14.25C14.4801 10.5 14.6667 10.3135 14.6667 10.0833V9.25C14.6667 9.01988 14.4801 8.83333 14.25 8.83333H10.9167Z" fill="#303236"/>
<path d="M9.25 10.5C9.01988 10.5 8.83333 10.6865 8.83333 10.9167V13.4167C8.83333 13.6468 9.01988 13.8333 9.25 13.8333H10.0833C10.3135 13.8333 10.5 13.6468 10.5 13.4167V10.9167C10.5 10.6865 10.3135 10.5 10.0833 10.5H9.25Z" fill="#303236"/>
<path d="M15.0833 11.3333C14.8532 11.3333 14.6667 11.5199 14.6667 11.75V13.4167C14.6667 13.6468 14.8532 13.8333 15.0833 13.8333H15.9167C16.1468 13.8333 16.3333 13.6468 16.3333 13.4167V11.75C16.3333 11.5199 16.1468 11.3333 15.9167 11.3333H15.0833Z" fill="#303236"/>
<path d="M13.4167 11.3333C13.6468 11.3333 13.8333 11.5199 13.8333 11.75V12.5833C13.8333 12.8135 13.6468 13 13.4167 13H11.75C11.5199 13 11.3333 12.8135 11.3333 12.5833V11.75C11.3333 11.5199 11.5199 11.3333 11.75 11.3333H13.4167Z" fill="#303236"/>
<path d="M10.5 14.25C10.5 14.0199 10.6865 13.8333 10.9167 13.8333H14.25C14.4801 13.8333 14.6667 14.0199 14.6667 14.25V15.0833C14.6667 15.3135 14.4801 15.5 14.25 15.5H10.9167C10.6865 15.5 10.5 15.3135 10.5 15.0833V14.25Z" fill="#303236"/>
</svg>
