<svg width="12" height="12" viewBox="0 0 12 12" fill="none" xmlns="http://www.w3.org/2000/svg">
<path fill-rule="evenodd" clip-rule="evenodd" d="M1.94795 1.125H10.0518C10.891 1.125 11.5713 1.80529 11.5713 2.64448V7.70941C11.5713 8.5486 10.891 9.2289 10.0518 9.2289H9.14016C9.08421 9.2289 9.03886 9.27425 9.03886 9.3302V10.2532C9.03886 10.7134 8.55457 11.0127 8.14296 10.8069L5.2008 9.33584C5.06014 9.26551 4.90504 9.2289 4.74778 9.2289H1.94795C1.10876 9.2289 0.428467 8.5486 0.428467 7.70942V2.64448C0.428467 1.8053 1.10876 1.125 1.94795 1.125ZM3.15231 6.01533C3.59676 6.01533 3.95707 5.65503 3.95707 5.21057C3.95707 4.76611 3.59676 4.40581 3.15231 4.40581C2.70785 4.40581 2.34754 4.76611 2.34754 5.21057C2.34754 5.65503 2.70785 6.01533 3.15231 6.01533ZM5.99987 6.01533C6.44432 6.01533 6.80463 5.65503 6.80463 5.21057C6.80463 4.76611 6.44432 4.40581 5.99987 4.40581C5.55541 4.40581 5.1951 4.76611 5.1951 5.21057C5.1951 5.65503 5.55541 6.01533 5.99987 6.01533ZM9.65219 5.21057C9.65219 5.65503 9.29188 6.01533 8.84742 6.01533C8.40297 6.01533 8.04266 5.65503 8.04266 5.21057C8.04266 4.76611 8.40297 4.40581 8.84742 4.40581C9.29188 4.40581 9.65219 4.76611 9.65219 5.21057Z" fill="#8C8C8C"/>
</svg>
