<svg width="12" height="12" viewBox="0 0 12 12" fill="none" xmlns="http://www.w3.org/2000/svg">
<rect width="12" height="12" rx="2" fill="#8E949E"/>
<path d="M6.3 10C6.57614 10 6.8 9.77614 6.8 9.5V2.5C6.8 2.22386 6.57614 2 6.3 2H5.7C5.42386 2 5.2 2.22386 5.2 2.5V9.5C5.2 9.77614 5.42386 10 5.7 10H6.3Z" fill="white"/>
<path d="M9.5 4.4C9.77614 4.4 10 4.62386 10 4.9L10 9.5C10 9.77614 9.77614 10 9.5 10H8.9C8.62386 10 8.4 9.77614 8.4 9.5V4.9C8.4 4.62386 8.62386 4.4 8.9 4.4H9.5Z" fill="white"/>
<path d="M3.1 6.8C3.37614 6.8 3.6 7.02386 3.6 7.3L3.6 9.5C3.6 9.77614 3.37614 10 3.1 10H2.5C2.22386 10 2 9.77614 2 9.5V7.3C2 7.02386 2.22386 6.8 2.5 6.8H3.1Z" fill="white"/>
</svg>
