<svg width="16" height="16" viewBox="0 0 16 16" fill="none" xmlns="http://www.w3.org/2000/svg">
<path fill-rule="evenodd" clip-rule="evenodd" d="M2.17187 3C0.97238 3 0 3.98744 0 5.2055V10.514C0 11.7321 0.972379 12.7195 2.17187 12.7195H9.82813C11.0276 12.7195 12 11.7321 12 10.514V10.2283L13.7189 11.522C14.2461 11.9188 15 11.5427 15 10.8828V4.80146C15 4.1416 14.2461 3.76546 13.7189 4.16226L12 5.45597V5.2055C12 3.98744 11.0276 3 9.82813 3H2.17187ZM6 5.46594C6.29577 5.46594 6.53553 5.70942 6.53553 6.00976V9.70914C6.53553 10.0095 6.29577 10.253 6 10.253C5.70424 10.253 5.46447 10.0095 5.46447 9.70914V6.00976C5.46447 5.70942 5.70424 5.46594 6 5.46594ZM3.57129 7.31585C3.86706 7.31585 4.10682 7.55933 4.10682 7.85968V9.70937C4.10682 10.0097 3.86706 10.2532 3.57129 10.2532C3.27553 10.2532 3.03576 10.0097 3.03576 9.70937V7.85968C3.03576 7.55933 3.27553 7.31585 3.57129 7.31585ZM8.9642 6.9349C8.9642 6.63455 8.72444 6.39107 8.42867 6.39107C8.13291 6.39107 7.89314 6.63455 7.89314 6.9349V9.70943C7.89314 10.0098 8.13291 10.2533 8.42867 10.2533C8.72444 10.2533 8.9642 10.0098 8.9642 9.70943V6.9349Z" fill="white"/>
</svg>
