<svg fill="none" height="96" viewBox="0 0 97 96" width="97" xmlns="http://www.w3.org/2000/svg"><path clip-rule="evenodd" d="m70.5 17h-51v55.0881c0 3.8173 3.0946 6.9119 6.9119 6.9119h25.5048c-3.3217-2.9318-5.4167-7.2212-5.4167-12 0-8.8366 7.1634-16 16-16 2.9143 0 5.6466.7792 8 2.1405z" fill="#d0d4db" fill-rule="evenodd"/><path clip-rule="evenodd" d="m35.9277 29.1094h-5.2031v5.2029h5.2031zm-5.2031 12.4297h28.0606v3h-28.0606zm0 11.2187h14.5915v3h-14.5915z" fill="#fff" fill-rule="evenodd"/><g fill="#d0d4db"><path d="m26 85h5v5h-5z"/><path d="m4 14h7v7h-7z"/><path d="m85 38h8v8h-8z"/></g><path d="m68.0684 74.8984h4v15.4884h-4z" fill="#b8bfcc" transform="matrix(.70710678 -.70710678 .70710678 .70710678 -33.024394 70.068861)"/><circle cx="63" cy="67" r="10.5" stroke="#b8bfcc" stroke-width="3"/></svg>