<svg width="90" height="83" viewBox="0 0 90 83" fill="none" xmlns="http://www.w3.org/2000/svg">
<g opacity="0.4" filter="url(#filter0_bd_1432_59144)">
<path d="M71.2739 60.0523C72.8777 57.2616 72.5869 54.1515 70.8979 52.5955C70.6427 53.7132 70.2516 54.9253 69.7272 56.2311C68.3144 59.749 65.9079 61.8996 63.8412 63.0684C63.8702 63.0863 63.8995 63.1039 63.9291 63.1211C66.1708 64.4238 69.4829 63.169 71.2739 60.0523Z" stroke="url(#paint0_linear_1432_59144)" stroke-width="0.717506" shape-rendering="crispEdges"/>
</g>
<path d="M52.8038 62.9996L48.2494 60.1561C47.4189 59.6376 46.4226 59.7404 46.0242 60.3857L39.6069 70.7797C39.2084 71.425 39.5587 72.3685 40.3892 72.8871L44.9436 75.7305C45.7741 76.2491 46.7704 76.1463 47.1689 75.5009L53.5862 65.107C53.9846 64.4616 53.6343 63.5181 52.8038 62.9996Z" fill="#E3EAF2"/>
<g filter="url(#filter1_bd_1432_59144)">
<path d="M42.29 12.0301C43 17.457 40.0228 26.9438 34.1719 36.5526C27.6166 47.3181 19.5075 54.8646 14.2674 55.5874C21.5521 54.8756 25.7517 53.669 34.3485 53.8924C38.0967 53.9898 43.1883 55.3571 44.3871 55.2411C45.5859 55.1252 50.524 52.9237 53.1213 48.1019C54.8687 44.8581 55.2485 39.8334 54.5808 38.6238C51.2592 34.265 48.857 30.5164 46.8775 26.6374C45.1178 23.1893 43.5887 18.3202 42.29 12.0301Z" fill="white" fill-opacity="0.6" shape-rendering="crispEdges"/>
<path d="M42.29 12.0301C43 17.457 40.0228 26.9438 34.1719 36.5526C27.6166 47.3181 19.5075 54.8646 14.2674 55.5874C21.5521 54.8756 25.7517 53.669 34.3485 53.8924C38.0967 53.9898 43.1883 55.3571 44.3871 55.2411C45.5859 55.1252 50.524 52.9237 53.1213 48.1019C54.8687 44.8581 55.2485 39.8334 54.5808 38.6238C51.2592 34.265 48.857 30.5164 46.8775 26.6374C45.1178 23.1893 43.5887 18.3202 42.29 12.0301Z" fill="url(#paint1_linear_1432_59144)" shape-rendering="crispEdges"/>
<path d="M46.5581 26.8004C45.1016 23.9463 43.8081 20.1455 42.6733 15.4067C42.4773 17.5992 41.9182 20.1191 41.0322 22.8348C39.6356 27.1156 37.4161 31.9147 34.4782 36.7396C31.1869 42.1448 27.5016 46.7487 23.9734 50.0965C21.7425 52.2134 19.5548 53.8468 17.5544 54.8539C18.5064 54.7331 19.4198 54.6081 20.3181 54.4852C24.5274 53.9094 28.4046 53.379 34.3574 53.5337C36.2624 53.5832 38.4975 53.9544 40.3868 54.2936C40.6519 54.3412 40.91 54.3881 41.1594 54.4334C41.8042 54.5506 42.3916 54.6574 42.8965 54.7387C43.6126 54.854 44.1072 54.9076 44.3522 54.884C44.5933 54.8606 45.0842 54.7204 45.7467 54.4267C46.3988 54.1375 47.1906 53.7114 48.0273 53.1398C49.7019 51.9957 51.5406 50.2797 52.8056 47.9314C53.6517 46.3606 54.1745 44.3399 54.4009 42.5545C54.5139 41.6639 54.5518 40.8419 54.5219 40.1746C54.4921 39.5101 54.3968 39.0499 54.2781 38.8181C50.9555 34.4558 48.5458 30.6954 46.5581 26.8004Z" stroke="url(#paint2_linear_1432_59144)" stroke-width="0.717506" shape-rendering="crispEdges"/>
</g>
<g filter="url(#filter2_bd_1432_59144)">
<path d="M54.6842 38.1461C54.5865 38.1673 54.4998 38.2212 54.4241 38.3077L54.4753 38.379C55.1216 39.5972 54.7329 44.6696 53.0181 47.9498C50.488 52.7895 45.7198 55.0324 44.5064 55.1841L44.1187 55.8488C43.5458 56.8039 43.5876 57.5466 44.2442 58.0767C45.0351 58.7154 47.4676 60.3571 48.9094 61.2524L50.6053 62.2934C52.1955 63.2796 53.3445 64.0173 54.2235 64.4416L55.2444 64.9047C55.8536 65.1668 56.1929 65.2143 56.5972 64.7191C56.7825 64.4921 57.0906 64.0754 57.2417 63.7704C58.4159 64.6113 59.4563 65.0799 60.3627 65.1761C61.7224 65.3203 67.0757 63.4083 69.4814 57.418C71.0066 53.6205 71.3709 50.6748 70.5746 48.5808C70.5335 48.4727 70.4877 48.429 70.3563 48.2772C70.2687 48.1761 70.1779 48.0931 70.0838 48.0284L55.1446 38.2289C54.9665 38.1458 54.813 38.1182 54.6842 38.1461Z" fill="url(#paint3_linear_1432_59144)" fill-opacity="0.1" shape-rendering="crispEdges"/>
<path d="M69.8838 48.3261L54.9714 38.5442C54.9529 38.5361 54.9358 38.5292 54.9199 38.5234C55.0372 38.8928 55.0986 39.3778 55.1198 39.9132C55.1484 40.635 55.1052 41.5059 54.988 42.4364C54.7539 44.2932 54.2195 46.4263 53.3359 48.1164C52.0389 50.5974 50.1712 52.4081 48.477 53.6172C47.6294 54.2221 46.8217 54.679 46.1446 54.9955C45.5798 55.2595 45.088 55.4344 44.7322 55.5093L44.4286 56.0299L44.4286 56.0299L44.4263 56.0337C44.1595 56.4785 44.0632 56.8303 44.0785 57.1023C44.0929 57.3581 44.2082 57.5868 44.4692 57.7975C45.2419 58.4215 47.6578 60.0531 49.0973 60.947C49.0976 60.9472 49.098 60.9474 49.0983 60.9476L50.7926 61.9875L50.794 61.9884C51.0385 62.1401 51.2719 62.2854 51.4949 62.4242C52.7321 63.1945 53.6498 63.7659 54.3752 64.1165L55.3889 64.5765C55.6934 64.7073 55.8552 64.7475 55.9681 64.7382C56.0481 64.7317 56.1529 64.6958 56.3193 64.4919C56.5007 64.2698 56.7877 63.8784 56.9203 63.6107L57.1073 63.233L57.4502 63.4786C58.6007 64.3025 59.5814 64.7324 60.4002 64.8192C60.6614 64.8469 61.1911 64.7748 61.9054 64.5279C62.6066 64.2855 63.4509 63.8867 64.3304 63.299C66.0879 62.1247 67.9762 60.2031 69.1486 57.2839C70.6651 53.5079 70.9859 50.671 70.2394 48.7082C70.2316 48.6877 70.2271 48.6797 70.2139 48.6624C70.2044 48.6498 70.1909 48.6336 70.1687 48.6078C70.156 48.5931 70.1448 48.5803 70.1321 48.5657C70.1192 48.5509 70.1047 48.5344 70.0854 48.5121C70.0155 48.4314 69.9479 48.3707 69.8838 48.3261Z" stroke="url(#paint4_linear_1432_59144)" stroke-width="0.717506" shape-rendering="crispEdges"/>
</g>
<g filter="url(#filter3_bd_1432_59144)">
<path d="M11.9023 55.336C7.33987 52.5768 9.97212 39.7543 17.7816 26.6963C25.5911 13.6383 35.6204 5.28943 40.1829 8.04865C44.7453 10.8079 42.113 23.6303 34.3036 36.6883C26.4941 49.7464 16.4647 58.0952 11.9023 55.336Z" fill="url(#paint5_linear_1432_59144)" shape-rendering="crispEdges"/>
<path d="M18.0884 26.8819C14.1988 33.3856 11.6068 39.8178 10.553 44.9514C10.0257 47.5198 9.88773 49.7431 10.1517 51.4795C10.4162 53.2187 11.0736 54.4154 12.0865 55.028C13.0994 55.6406 14.4587 55.6636 16.1104 55.0832C17.7594 54.5037 19.6477 53.3389 21.6567 51.6666C25.672 48.3241 30.1071 43.0065 33.9967 36.5028C37.8863 29.999 40.4783 23.5668 41.5321 18.4333C42.0594 15.8648 42.1974 13.6415 41.9334 11.9051C41.669 10.1659 41.0116 8.96928 39.9986 8.35668C38.9857 7.74408 37.6264 7.72109 35.9747 8.30148C34.3257 8.88092 32.4375 10.0457 30.4285 11.7181C26.4131 15.0606 21.9781 20.3781 18.0884 26.8819Z" stroke="url(#paint6_linear_1432_59144)" stroke-width="0.717506" shape-rendering="crispEdges"/>
</g>
<defs>
<filter id="filter0_bd_1432_59144" x="41.6433" y="30.2815" width="52.5723" height="55.2366" filterUnits="userSpaceOnUse" color-interpolation-filters="sRGB">
<feFlood flood-opacity="0" result="BackgroundImageFix"/>
<feGaussianBlur in="BackgroundImageFix" stdDeviation="10.7626"/>
<feComposite in2="SourceAlpha" operator="in" result="effect1_backgroundBlur_1432_59144"/>
<feColorMatrix in="SourceAlpha" type="matrix" values="0 0 0 0 0 0 0 0 0 0 0 0 0 0 0 0 0 0 127 0" result="hardAlpha"/>
<feOffset dx="8.61007" dy="8.61007"/>
<feGaussianBlur stdDeviation="4.30504"/>
<feComposite in2="hardAlpha" operator="out"/>
<feColorMatrix type="matrix" values="0 0 0 0 0 0 0 0 0 0 0 0 0 0 0 0 0 0 0.04 0"/>
<feBlend mode="normal" in2="effect1_backgroundBlur_1432_59144" result="effect2_dropShadow_1432_59144"/>
<feBlend mode="normal" in="SourceGraphic" in2="effect2_dropShadow_1432_59144" result="shape"/>
</filter>
<filter id="filter1_bd_1432_59144" x="-7.2576" y="-9.49515" width="83.6729" height="86.6077" filterUnits="userSpaceOnUse" color-interpolation-filters="sRGB">
<feFlood flood-opacity="0" result="BackgroundImageFix"/>
<feGaussianBlur in="BackgroundImageFix" stdDeviation="10.7626"/>
<feComposite in2="SourceAlpha" operator="in" result="effect1_backgroundBlur_1432_59144"/>
<feColorMatrix in="SourceAlpha" type="matrix" values="0 0 0 0 0 0 0 0 0 0 0 0 0 0 0 0 0 0 127 0" result="hardAlpha"/>
<feOffset dx="8.61007" dy="8.61007"/>
<feGaussianBlur stdDeviation="4.30504"/>
<feComposite in2="hardAlpha" operator="out"/>
<feColorMatrix type="matrix" values="0 0 0 0 0 0 0 0 0 0 0 0 0 0 0 0 0 0 0.04 0"/>
<feBlend mode="normal" in2="effect1_backgroundBlur_1432_59144" result="effect2_dropShadow_1432_59144"/>
<feBlend mode="normal" in="SourceGraphic" in2="effect2_dropShadow_1432_59144" result="shape"/>
</filter>
<filter id="filter2_bd_1432_59144" x="22.1931" y="16.6103" width="70.3165" height="70.0985" filterUnits="userSpaceOnUse" color-interpolation-filters="sRGB">
<feFlood flood-opacity="0" result="BackgroundImageFix"/>
<feGaussianBlur in="BackgroundImageFix" stdDeviation="10.7626"/>
<feComposite in2="SourceAlpha" operator="in" result="effect1_backgroundBlur_1432_59144"/>
<feColorMatrix in="SourceAlpha" type="matrix" values="0 0 0 0 0 0 0 0 0 0 0 0 0 0 0 0 0 0 127 0" result="hardAlpha"/>
<feOffset dx="8.61007" dy="8.61007"/>
<feGaussianBlur stdDeviation="4.30504"/>
<feComposite in2="hardAlpha" operator="out"/>
<feColorMatrix type="matrix" values="0 0 0 0 0 0 0 0 0 0 0 0 0 0 0 0 0 0 0.04 0"/>
<feBlend mode="normal" in2="effect1_backgroundBlur_1432_59144" result="effect2_dropShadow_1432_59144"/>
<feBlend mode="normal" in="SourceGraphic" in2="effect2_dropShadow_1432_59144" result="shape"/>
</filter>
<filter id="filter3_bd_1432_59144" x="-11.8616" y="-14.0035" width="75.8087" height="91.3917" filterUnits="userSpaceOnUse" color-interpolation-filters="sRGB">
<feFlood flood-opacity="0" result="BackgroundImageFix"/>
<feGaussianBlur in="BackgroundImageFix" stdDeviation="10.7626"/>
<feComposite in2="SourceAlpha" operator="in" result="effect1_backgroundBlur_1432_59144"/>
<feColorMatrix in="SourceAlpha" type="matrix" values="0 0 0 0 0 0 0 0 0 0 0 0 0 0 0 0 0 0 127 0" result="hardAlpha"/>
<feOffset dx="8.61007" dy="8.61007"/>
<feGaussianBlur stdDeviation="4.30504"/>
<feComposite in2="hardAlpha" operator="out"/>
<feColorMatrix type="matrix" values="0 0 0 0 0 0 0 0 0 0 0 0 0 0 0 0 0 0 0.04 0"/>
<feBlend mode="normal" in2="effect1_backgroundBlur_1432_59144" result="effect2_dropShadow_1432_59144"/>
<feBlend mode="normal" in="SourceGraphic" in2="effect2_dropShadow_1432_59144" result="shape"/>
</filter>
<linearGradient id="paint0_linear_1432_59144" x1="70.4296" y1="64.1709" x2="62.3572" y2="59.8108" gradientUnits="userSpaceOnUse">
<stop stop-color="#E6EAF7"/>
<stop offset="1" stop-color="#EEF1FA" stop-opacity="0"/>
</linearGradient>
<linearGradient id="paint1_linear_1432_59144" x1="64.2305" y1="53.6595" x2="27.702" y2="3.2279" gradientUnits="userSpaceOnUse">
<stop stop-color="#EDF4FF"/>
<stop offset="1" stop-color="white" stop-opacity="0"/>
</linearGradient>
<linearGradient id="paint2_linear_1432_59144" x1="47.5765" y1="59.1215" x2="17.8433" y2="43.5417" gradientUnits="userSpaceOnUse">
<stop stop-color="#E6EAF7"/>
<stop offset="1" stop-color="#EEF1FA" stop-opacity="0"/>
</linearGradient>
<linearGradient id="paint3_linear_1432_59144" x1="52.5739" y1="49.0716" x2="63.8691" y2="57.1196" gradientUnits="userSpaceOnUse">
<stop stop-color="white"/>
<stop offset="1" stop-color="#EDF4FF" stop-opacity="0"/>
</linearGradient>
<linearGradient id="paint4_linear_1432_59144" x1="69.6206" y1="42.9315" x2="58.9353" y2="57.7652" gradientUnits="userSpaceOnUse">
<stop stop-color="#E6EAF7"/>
<stop offset="1" stop-color="#EEF1FA" stop-opacity="0"/>
</linearGradient>
<linearGradient id="paint5_linear_1432_59144" x1="48.4438" y1="13.0447" x2="28.7086" y2="2.66672" gradientUnits="userSpaceOnUse">
<stop stop-color="#EDF4FF"/>
<stop offset="1" stop-color="white" stop-opacity="0"/>
</linearGradient>
<linearGradient id="paint6_linear_1432_59144" x1="17.8617" y1="58.9401" x2="4.37007" y2="47.5055" gradientUnits="userSpaceOnUse">
<stop stop-color="white"/>
<stop offset="1" stop-color="white" stop-opacity="0.6"/>
</linearGradient>
</defs>
</svg>
