<svg fill="none" height="16" viewBox="0 0 16 16" width="16" xmlns="http://www.w3.org/2000/svg"><path clip-rule="evenodd" d="m7.48476 9.51561 2.03048-2.03049c-.21446-.63085-.81183-1.08473-1.51522-1.08473-.88365 0-1.6.71635-1.6 1.6 0 .70338.45388 1.30076 1.08474 1.51522z" fill="#262933" fill-rule="evenodd"/><path clip-rule="evenodd" d="m11.0519 3.32666c-.9782-.35258-2.01907-.52686-3.05187-.52686-2.62324 0-5.29858 1.12429-6.86597 3.43904-.717971 1.06032-.717972 2.46161 0 3.52193.47603.70303 1.05427 1.29623 1.70221 1.78143l1.00292-1.0029c-.5981-.4191-1.12445-.9411-1.54589-1.56349-.39696-.58624-.39696-1.36577 0-1.95201 1.25987-1.8606 3.45725-2.824 5.70673-2.824.6565 0 1.30855.08206 1.93416.24452zm-4.15278 8.39534c.36294.0518.73122.0778 1.10091.0778 2.24947 0 4.44687-.9634 5.70677-2.82399.3969-.58624.3969-1.36577 0-1.95201-.2846-.4202-.6169-.79464-.9869-1.12256l.992-.99194c.4283.3885.8168.83146 1.1541 1.32954.718 1.06032.718 2.46161 0 3.52193-1.5674 2.31473-4.2427 3.43903-6.86597 3.43903-.7679 0-1.54027-.0963-2.288-.2907z" fill="#262933" fill-rule="evenodd"/><path d="m3 13.5 11-11" stroke="#262933" stroke-linecap="round" stroke-width="1.4"/></svg>