<svg fill="none" height="16" viewBox="0 0 16 16" width="16" xmlns="http://www.w3.org/2000/svg" xmlns:xlink="http://www.w3.org/1999/xlink"><clipPath id="a"><path d="m0 0h16v16h-16z"/></clipPath><g clip-path="url(#a)" stroke="#e57300" stroke-width="1.5"><path d="m12.5331 11.6669c2.0252-2.02521 2.0252-5.3087 0-7.33389" stroke-linecap="round"/><path d="m4.0853 4.67575h-1.43763c-.57863 0-1.04769.46906-1.04769 1.04769v4.55256c0 .5786.46906 1.0477 1.04769 1.0477h1.43763c.29356 0 .58189.0778.83565.2254l3.58745 2.0867c.34922.2031.78723-.0488.78723-.4528v-10.36651c0-.40401-.43801-.65595-.78723-.45282l-3.58745 2.08672c-.25376.1476-.54209.22536-.83565.22536z"/></g></svg>