<svg width="12" height="12" viewBox="0 0 12 12" fill="none" xmlns="http://www.w3.org/2000/svg">
<path d="M4.25 5.5C5.2165 5.5 6 4.7165 6 3.75C6 2.7835 5.2165 2 4.25 2C3.2835 2 2.5 2.7835 2.5 3.75C2.5 4.7165 3.2835 5.5 4.25 5.5Z" fill="#A0A3A7"/>
<path d="M8.14999 5.5C8.97842 5.5 9.64999 4.82843 9.64999 4C9.64999 3.17157 8.97842 2.5 8.14999 2.5C7.32157 2.5 6.64999 3.17157 6.64999 4C6.64999 4.82843 7.32157 5.5 8.14999 5.5Z" fill="#A0A3A7"/>
<path d="M1 8.88235C1 7.56662 2.06662 6.5 3.38235 6.5H5.11765C6.43338 6.5 7.5 7.56662 7.5 8.88235V9.5C7.5 9.77614 7.27614 10 7 10L1.5 10C1.22386 10 1 9.77614 1 9.5V8.88235Z" fill="#A0A3A7"/>
<path d="M10.5 10H8.5V8.63235C8.5 7.69884 7.96308 6.89073 7.18121 6.5H8.61765C9.93338 6.5 11 7.56662 11 8.88235V9.5C11 9.77614 10.7761 10 10.5 10Z" fill="#A0A3A7"/>
</svg>
