<svg fill="none" height="12" viewBox="0 0 12 12" width="12" xmlns="http://www.w3.org/2000/svg"><g stroke="#f7931a"><path d="m4.75 5c.9665 0 1.75-.7835 1.75-1.75s-.7835-1.75-1.75-1.75-1.75.7835-1.75 1.75.7835 1.75 1.75 1.75z"/><path d="m8.15186 1.75c.5082.30623.8481.86343.8481 1.5s-.3399 1.19377-.8481 1.5"/><path d="m1 10.2v.3h7.5v-.3c0-1.1201 0-1.68015-.21797-2.10798-.19175-.37632-.49773-.68229-.87405-.87404-.42783-.21798-.98788-.21798-2.10798-.21798h-1.1c-1.1201 0-1.68015 0-2.10798.21798-.37632.19175-.68229.49772-.87403.87404-.21799.42783-.21799.98788-.21799 2.10798z"/><path d="m11 10.5007v-.3c0-1.12005 0-1.6801-.218-2.10793-.1917-.37632-.4977-.68227-.87404-.87402"/></g><circle cx="10.5" cy="1.5" fill="#f2495e" r="1.5"/></svg>