<svg width="18" height="18" viewBox="0 0 18 18" fill="none" xmlns="http://www.w3.org/2000/svg">
<rect x="1.05056" width="3.22835" height="3.22835" rx="0.760817" transform="matrix(0.707106 -0.707108 0.707106 0.707108 5.97012 7.81024)" stroke="#262933" stroke-width="1.48572"/>
<path d="M14.3333 5.23405V4.06738H16.3789C16.7219 4.06738 17 4.34543 17 4.68843V6.06739C17 7.54015 15.8061 8.73406 14.3333 8.73406V8.73406V7.56739" stroke="#262933" stroke-width="1.6" stroke-linejoin="round"/>
<path d="M3.66663 4.06738H1.621C1.278 4.06738 0.999953 4.34543 0.999953 4.68843V6.06739C0.999953 7.54015 2.19386 8.73406 3.66663 8.73406V8.73406V4.06738Z" stroke="#262933" stroke-width="1.6" stroke-linejoin="round"/>
<path d="M14.3333 8.06707V3.4004C14.3333 2.29582 13.4379 1.40039 12.3333 1.40039H5.66663C4.56206 1.40039 3.66663 2.29582 3.66663 3.40039V8.06707" stroke="#262933" stroke-width="1.6" stroke-linecap="round" stroke-linejoin="round"/>
<path d="M8.99997 16.7341V14.1763C8.99997 13.5639 8.49781 13.0808 7.8982 12.9561C5.96485 12.554 4.71864 11.1389 4.07508 9.97798C3.75395 9.3987 3.66663 8.72972 3.66663 8.06738V8.06738" stroke="#262933" stroke-width="1.6" stroke-linecap="round"/>
<path d="M14.3333 8.06738V8.06738C14.3333 8.70488 14.2454 9.34913 13.9279 9.90193C13.4898 10.6647 12.7708 11.5424 11.744 12.1468" stroke="#262933" stroke-width="1.6" stroke-linecap="round"/>
<path d="M5 16.7334L13 16.7334" stroke="#262933" stroke-width="1.6" stroke-linecap="round"/>
</svg>
