<svg fill="none" height="12" viewBox="0 0 12 12" width="12" xmlns="http://www.w3.org/2000/svg"><path d="m.600006 4.2c0-.66274.537254-1.2 1.200004-1.2h6c.66274 0 1.2.53726 1.2 1.2v6c0 .6627-.53726 1.2-1.2 1.2h-6c-.66275 0-1.200004-.5373-1.200004-1.2z" stroke="#fafafa"/><path clip-rule="evenodd" d="m4.71429.100006c-.89154 0-1.61428.72274-1.61428 1.614284v1.28574h1v-1.28574c0-.33926.27502-.61428.61428-.61428h4.79143c.77008 0 1.39428.62424 1.39428 1.39428v4.79143c0 .33926-.275.61429-.6143.61429h-1.28579v1h1.28579c.8916 0 1.6143-.72274 1.6143-1.61429v-4.79143c0-1.32233-1.072-2.394284-2.39428-2.394284z" fill="#fafafa" fill-rule="evenodd"/></svg>