<svg fill="none" height="16" viewBox="0 0 16 16" width="16" xmlns="http://www.w3.org/2000/svg"><path clip-rule="evenodd" d="m7.48476 9.51524 2.03048-2.03048c-.21446-.63086-.81183-1.08474-1.51522-1.08474-.88365 0-1.6.71635-1.6 1.6 0 .70339.45388 1.30076 1.08474 1.51522z" fill="#fafafa" fill-rule="evenodd"/><path clip-rule="evenodd" d="m11.0518 3.32684c-.9781-.35258-2.019-.52685-3.0518-.52685-2.62324 0-5.29858 1.12428-6.86597 3.43904-.717972 1.06031-.717973 2.4616 0 3.52192.47603.70305 1.05427 1.29625 1.70221 1.78145l1.00292-1.0029c-.5981-.4191-1.12445-.94112-1.54589-1.56351-.39696-.58624-.39696-1.36577 0-1.95201 1.25987-1.8606 3.45725-2.82399 5.70673-2.82399.6565 0 1.30855.08205 1.93416.24452zm-4.15271 8.39536c.36294.0518.73122.0778 1.10091.0778 2.2495 0 4.4469-.9634 5.7067-2.82401.397-.58624.397-1.36577 0-1.95201-.2845-.4202-.6168-.79464-.9868-1.12256l.9919-.99194c.4283.3885.8169.83146 1.1542 1.32955.7179 1.06031.7179 2.4616 0 3.52192-1.5674 2.31475-4.2428 3.43905-6.866 3.43905-.7679 0-1.54027-.0964-2.288-.2907z" fill="#fafafa" fill-rule="evenodd"/><path d="m3 13.5 11-11" stroke="#fafafa" stroke-linecap="round" stroke-width="1.4"/></svg>