<svg fill="none" height="54" viewBox="0 0 68 54" width="68" xmlns="http://www.w3.org/2000/svg"><path clip-rule="evenodd" d="m22.5138 54c-.5128-.1841-1.0217-.3807-1.526-.5896-4.1254-1.709-7.8736-4.2137-11.03083-7.371-3.1572-3.1574-5.6615-6.9055-7.36992-11.0306-1.707092-4.1218-2.58613613-8.5392-2.58705-13.0004l18.2179-10.0281c-1.8883 2.9752-2.9134 6.4489-2.9128 10.0281h-.0068c.0037 4.9552 1.974 9.7066 5.4786 13.2107 3.5071 3.5065 8.2634 5.4778 13.2231 5.4787 2.4564-.0004 4.8887-.4846 7.1579-1.4249s4.331-2.3182 6.0676-4.0552c1.7367-1.737 3.1141-3.799 4.0537-6.0682s1.423-4.7013 1.4225-7.1573h15.2984c0 .0225-.0001.045-.0001.0675-.0079 4.4422-.8864 8.84-2.586 12.9449-1.7081 4.1256-4.2123 7.8744-7.3695 11.0323-3.1572 3.158-6.9056 5.6633-11.0311 7.3729-.5049.2092-1.0141.4059-1.5273.5902m-11.486-54v3.29297h18.7016v18.69923l-18.7017-.0004v-18.69587l-.0053.00001c-4.9585.00595-9.7119 1.97939-13.2162 5.487-.9736.97451-1.8286 2.04526-2.5559 3.18996l-18.2226 10.0251c.00165255-8.0874 2.8847-15.87751 8.08087-21.998zm-15.7775 11.9729 15.7721-8.67696-15.7768 8.68436z" fill="#000" fill-opacity=".05" fill-rule="evenodd"/></svg>