<svg fill="none" height="15" viewBox="0 0 14 15" width="14" xmlns="http://www.w3.org/2000/svg" xmlns:xlink="http://www.w3.org/1999/xlink"><filter id="a" color-interpolation-filters="sRGB" filterUnits="userSpaceOnUse" height="5.07497" width="5.07497" x="4.45031" y="4.87488"><feFlood flood-opacity="0" result="BackgroundImageFix"/><feColorMatrix in="SourceAlpha" result="hardAlpha" type="matrix" values="0 0 0 0 0 0 0 0 0 0 0 0 0 0 0 0 0 0 127 0"/><feOffset dy=".349984"/><feGaussianBlur stdDeviation=".174992"/><feComposite in2="hardAlpha" operator="out"/><feColorMatrix type="matrix" values="0 0 0 0 0.858824 0 0 0 0 0.282353 0 0 0 0 0.282353 0 0 0 0.41 0"/><feBlend in2="BackgroundImageFix" mode="normal" result="effect1_dropShadow_3073_7539"/><feBlend in="SourceGraphic" in2="effect1_dropShadow_3073_7539" mode="normal" result="shape"/></filter><linearGradient id="b"><stop offset="0" stop-color="#ffe0a3"/><stop offset=".332136" stop-color="#ff5065"/><stop offset=".890625" stop-color="#ff505a"/></linearGradient><linearGradient id="c" gradientUnits="userSpaceOnUse" x1="7.83969" x2="5.69944" xlink:href="#b" y1="-2.21828" y2="14.3334"/><linearGradient id="d" gradientUnits="userSpaceOnUse" x1="7.83969" x2="7.22844" xlink:href="#b" y1="-.944086" y2="7.95405"/><radialGradient id="e" cx="0" cy="0" gradientTransform="matrix(.39340432 1.84351117 -1.69384117 .36146482 3.75377 3.06039)" gradientUnits="userSpaceOnUse" r="1"><stop offset=".12181" stop-color="#ffb8a8"/><stop offset=".797586" stop-color="#ff6c60" stop-opacity=".439961"/><stop offset="1" stop-color="#ff5151" stop-opacity="0"/></radialGradient><linearGradient id="f" gradientUnits="userSpaceOnUse" x1="3.23779" x2="6.71436" y1="4.24988" y2="10.0702"><stop offset="0" stop-color="#d6a059"/><stop offset=".280726" stop-color="#fdf197"/><stop offset=".756052" stop-color="#ffb356"/><stop offset="1" stop-color="#d59e57"/></linearGradient><linearGradient id="g" gradientUnits="userSpaceOnUse" x1="6.73333" x2="6.96776" y1="13.5" y2="7.49874"><stop offset="0" stop-color="#ffda99"/><stop offset="1" stop-color="#ff8871" stop-opacity="0"/></linearGradient><rect fill="url(#c)" height="14" rx="1.27237" width="11.375" x="1.30005" y=".5"/><rect height="13.5625" rx="1.05362" stroke="#ffb99b" stroke-opacity=".3" stroke-width=".4375" width="10.9375" x="1.5188" y=".71875"/><path d="m1.30005 1.77237c0-.70271.56966-1.27237 1.27237-1.27237h8.83028c.7027 0 1.2723.56966 1.2723 1.27237v3.06617l-3.5942 1.95841c-1.30493.71102-2.88157.71102-4.1865 0l-3.59425-1.95841z" fill="url(#d)"/><path d="m1.5188 1.77237c0-.5819.47172-1.05362 1.05362-1.05362h8.83028c.5819 0 1.0536.47172 1.0536 1.05362v2.93625l-3.48016 1.89624c-1.23969.67547-2.73749.67547-3.97718 0l-3.48016-1.89624z" stroke="#ffb99b" stroke-opacity=".4" stroke-width=".4375"/><ellipse cx="4.07576" cy="3.16853" fill="url(#e)" opacity=".4" rx="1.7795" ry="1.96907" transform="matrix(-.04508228 .99898328 -.99898328 -.04508228 7.424813 -.760242)"/><g filter="url(#a)"><circle cx="6.98779" cy="7.06238" fill="url(#f)" r="2.1875"/><circle cx="6.98779" cy="7.06238" r="2.0125" stroke="#ffda99" stroke-opacity=".4" stroke-width=".35"/></g><circle cx="6.98853" cy="7.06213" fill="#f4ae57" opacity=".5" r=".828125" stroke="#ffda99" stroke-width=".21875"/><path d="m3 7v4.6875c0 .7249.58763 1.3125 1.3125 1.3125h5.375c.7249 0 1.3125-.5876 1.3125-1.3125v-4.6875" opacity=".3" stroke="url(#g)" stroke-width=".4375"/></svg>