<svg fill="none" height="12" viewBox="0 0 12 12" width="12" xmlns="http://www.w3.org/2000/svg"><path d="m.599976 4.2c0-.66274.537254-1.2 1.200004-1.2h5.99999c.66275 0 1.20001.53726 1.20001 1.2v6c0 .6627-.53726 1.2-1.20001 1.2h-5.99999c-.66275 0-1.200004-.5373-1.200004-1.2z" stroke="#262933"/><path clip-rule="evenodd" d="m4.71426.100006c-.89154 0-1.61428.72274-1.61428 1.614284v1.28574h1v-1.28574c0-.33926.27502-.61428.61428-.61428h4.79143c.77001 0 1.39431.62424 1.39431 1.39428v4.79143c0 .33926-.275.61429-.6143.61429h-1.28582v1h1.28582c.8915 0 1.6143-.72274 1.6143-1.61429v-4.79143c0-1.32233-1.072-2.394284-2.39431-2.394284z" fill="#262933" fill-rule="evenodd"/></svg>