<svg fill="none" height="32" viewBox="0 0 32 32" width="32" xmlns="http://www.w3.org/2000/svg"><path d="m7 5.90842c0-1.60628 1.30214-2.90842 2.90841-2.90842h12.05819c1.6063 0 2.9084 1.30214 2.9084 2.90841v20.18319c0 1.6063-1.3021 2.9084-2.9084 2.9084h-12.05818c-1.60628 0-2.90842-1.3021-2.90842-2.9084z" fill="#ff5151"/><path clip-rule="evenodd" d="m21.9666 4h-12.05819c-1.05398 0-1.90841.85443-1.90841 1.90842v20.18318c0 1.054.85443 1.9084 1.90842 1.9084h12.05818c1.054 0 1.9084-.8544 1.9084-1.9084v-20.18319c0-1.05398-.8544-1.90841-1.9084-1.90841zm-12.05819-1c-1.60627 0-2.90841 1.30214-2.90841 2.90842v20.18318c0 1.6063 1.30214 2.9084 2.90842 2.9084h12.05818c1.6063 0 2.9084-1.3021 2.9084-2.9084v-20.18319c0-1.60627-1.3021-2.90841-2.9084-2.90841z" fill="#ff7868" fill-rule="evenodd"/><path d="m7 5.90841c0-1.60627 1.30214-2.90841 2.90841-2.90841h12.05819c1.6063 0 2.9084 1.30214 2.9084 2.90841v5.14889l-8.3961 5.4066c-.3297.2123-.7531.2123-1.0828 0l-8.3961-5.4066z" fill="#eb4a4a"/><ellipse cx="15.9389" cy="15.5156" fill="#eba54b" rx="3.12885" ry="3.12885"/><g clip-rule="evenodd" fill-rule="evenodd"><path d="m15.9394 17.6444c1.1757 0 2.1289-.9531 2.1289-2.1288 0-1.1758-.9532-2.1289-2.1289-2.1289s-2.1289.9531-2.1289 2.1289c0 1.1757.9532 2.1288 2.1289 2.1288zm0 1c1.728 0 3.1289-1.4008 3.1289-3.1288s-1.4009-3.1289-3.1289-3.1289-3.1289 1.4009-3.1289 3.1289 1.4009 3.1288 3.1289 3.1288z" fill="#f7cf9a"/><path d="m21.9666 4h-12.05819c-1.05398 0-1.90841.85443-1.90841 1.90842v20.18318c0 1.054.85443 1.9084 1.90842 1.9084h12.05818c1.054 0 1.9084-.8544 1.9084-1.9084v-20.18319c0-1.05398-.8544-1.90841-1.9084-1.90841zm-12.05819-1c-1.60627 0-2.90841 1.30214-2.90841 2.90842v20.18318c0 1.6063 1.30214 2.9084 2.90842 2.9084h12.05818c1.6063 0 2.9084-1.3021 2.9084-2.9084v-20.18319c0-1.60627-1.3021-2.90841-2.9084-2.90841z" fill="#ff7868"/></g></svg>