<svg width="14" height="14" viewBox="0 0 14 14" fill="none" xmlns="http://www.w3.org/2000/svg">
<path fill-rule="evenodd" clip-rule="evenodd" d="M7 13.125C10.3827 13.125 13.125 10.3827 13.125 7C13.125 3.61726 10.3827 0.875 7 0.875C3.61726 0.875 0.875 3.61726 0.875 7C0.875 10.3827 3.61726 13.125 7 13.125ZM5.12186 4.50314C4.951 4.33229 4.674 4.33229 4.50314 4.50314C4.33229 4.674 4.33229 4.951 4.50314 5.12186L6.38128 7L4.50314 8.87814C4.33229 9.049 4.33229 9.326 4.50314 9.49686C4.674 9.66771 4.951 9.66771 5.12186 9.49686L7 7.61872L8.87814 9.49686C9.049 9.66771 9.326 9.66771 9.49686 9.49686C9.66771 9.326 9.66771 9.049 9.49686 8.87814L7.61872 7L9.49686 5.12186C9.66771 4.951 9.66771 4.674 9.49686 4.50314C9.326 4.33229 9.049 4.33229 8.87814 4.50314L7 6.38128L5.12186 4.50314Z" fill="#8C8C8C"/>
</svg>
