<svg width="16" height="16" viewBox="0 0 16 16" fill="none" xmlns="http://www.w3.org/2000/svg">
<path fill-rule="evenodd" clip-rule="evenodd" d="M11.7142 7.35312C11.7142 9.76168 9.76168 11.7142 7.35312 11.7142C4.94457 11.7142 2.99204 9.76168 2.99204 7.35312C2.99204 4.94457 4.94457 2.99204 7.35312 2.99204C9.76168 2.99204 11.7142 4.94457 11.7142 7.35312ZM11.2376 12.9998C10.1336 13.7607 8.7954 14.2062 7.35312 14.2062C3.56825 14.2062 0.5 11.138 0.5 7.35312C0.5 3.56825 3.56825 0.5 7.35312 0.5C11.138 0.5 14.2062 3.56825 14.2062 7.35312C14.2062 8.79539 13.7607 10.1336 12.9998 11.2376L15.7441 13.9819C16.0695 14.3074 16.0695 14.835 15.7441 15.1604L15.1605 15.7441C14.835 16.0695 14.3074 16.0695 13.982 15.7441L11.2376 12.9998Z" fill="#A0A3A7"/>
</svg>
