<svg width="16" height="16" viewBox="0 0 16 16" fill="none" xmlns="http://www.w3.org/2000/svg">
<path d="M16 8C16 12.4183 12.4183 16 8 16C3.58172 16 0 12.4183 0 8C0 3.58172 3.58172 0 8 0C12.4183 0 16 3.58172 16 8Z" fill="#E73828"/>
<path fill-rule="evenodd" clip-rule="evenodd" d="M8.8 4.3C8.8 3.85817 8.44183 3.5 8 3.5C7.55817 3.5 7.2 3.85817 7.2 4.3V8.8C7.2 9.24183 7.55817 9.6 8 9.6C8.44183 9.6 8.8 9.24183 8.8 8.8V4.3ZM7.99998 12.4C8.49703 12.4 8.89998 11.9971 8.89998 11.5C8.89998 11.0029 8.49703 10.6 7.99998 10.6C7.50292 10.6 7.09998 11.0029 7.09998 11.5C7.09998 11.9971 7.50292 12.4 7.99998 12.4Z" fill="white"/>
</svg>
