<svg width="22" height="22" viewBox="0 0 22 22" fill="none" xmlns="http://www.w3.org/2000/svg">
    <path fill-rule="evenodd" clip-rule="evenodd" d="M13.9549 7.0332C14.2336 6.98229 14.5235 7.07094 14.7275 7.2749C14.9603 7.50808 15.042 7.85294 14.9378 8.16561L13.382 12.8322C13.2954 13.0921 13.0912 13.296 12.8315 13.3827L8.16488 14.9386C7.85207 15.0428 7.50651 14.9612 7.27327 14.7282C7.04029 14.495 6.95874 14.1502 7.06291 13.8375L8.61873 9.17C8.70551 8.91022 8.90941 8.70609 9.16927 8.61947L13.8359 7.06453L13.9549 7.0332ZM10.1325 10.1341L9.26506 12.7355L11.8674 11.8681L12.7339 9.26668L10.1325 10.1341Z" fill="#84888C"/>
    <path fill-rule="evenodd" clip-rule="evenodd" d="M10.9999 1.14648C16.4422 1.14648 20.8541 5.55835 20.8541 11.0007C20.8541 16.443 16.4422 20.8548 10.9999 20.8548C5.55761 20.8548 1.14575 16.443 1.14575 11.0007C1.14575 5.55835 5.55761 1.14648 10.9999 1.14648ZM10.9999 2.9834C6.57216 2.9834 2.98267 6.57289 2.98267 11.0007C2.98267 15.4284 6.57216 19.0179 10.9999 19.0179C15.4277 19.0179 19.0172 15.4284 19.0172 11.0007C19.0172 6.57289 15.4277 2.9834 10.9999 2.9834Z" fill="#84888C"/>
</svg>
