<svg width="22" height="22" viewBox="0 0 22 22" fill="none" xmlns="http://www.w3.org/2000/svg">
    <path d="M4.875 2.79199H17.125C18.2756 2.79199 19.208 3.72441 19.208 4.875V17.125C19.208 18.2756 18.2756 19.208 17.125 19.208H4.875C3.72441 19.208 2.79199 18.2756 2.79199 17.125V4.875C2.79199 3.72441 3.72441 2.79199 4.875 2.79199Z" stroke="#84888C" stroke-width="1.83333"/>
    <path d="M14.6086 11.9528C15.0639 11.953 15.4336 12.3227 15.4338 12.778C15.4338 13.2334 15.064 13.6029 14.6086 13.6031H9.70825L10.0227 13.86C10.3749 14.1482 10.4266 14.6685 10.1389 15.0211C9.86858 15.3516 9.39489 15.4176 9.04614 15.1871L8.97778 15.1373L6.87231 13.4166C6.60238 13.1959 6.5003 12.8291 6.61743 12.5006C6.7348 12.1725 7.04625 11.9528 7.39478 11.9528H14.6086ZM11.8625 6.97815C12.1329 6.64763 12.6066 6.58159 12.9553 6.81213L13.0237 6.86194L15.1301 8.58362C15.4001 8.80434 15.5021 9.17118 15.385 9.49963C15.2676 9.82766 14.9561 10.0475 14.6077 10.0475H7.3938C6.93858 10.0472 6.56891 9.6775 6.5686 9.22229C6.5686 8.76682 6.93839 8.39736 7.3938 8.39709H12.2942L11.9788 8.13928C11.6265 7.85104 11.5748 7.33081 11.8625 6.97815Z" fill="#84888C"/>
</svg>
