<svg width="24" height="24" viewBox="0 0 24 24" fill="none" xmlns="http://www.w3.org/2000/svg">
    <path d="M12.8676 12.8671L10.2653 13.7345L11.1327 11.1331L13.7341 10.2657L12.8676 12.8671Z" fill="#070808"/>
    <path fill-rule="evenodd" clip-rule="evenodd" d="M12.0002 2.14551C17.4425 2.14551 21.8543 6.55737 21.8543 11.9997C21.8543 17.442 17.4425 21.8538 12.0002 21.8538C6.55786 21.8538 2.146 17.442 2.146 11.9997C2.146 6.55737 6.55786 2.14551 12.0002 2.14551ZM15.7277 8.27393C15.5237 8.06996 15.2339 7.98132 14.9552 8.03223L14.8361 8.06356L10.1695 9.61849C9.90965 9.70511 9.70575 9.90923 9.61898 10.169L8.06315 14.8365C7.95899 15.1493 8.04052 15.494 8.27352 15.7272C8.50675 15.9603 8.85231 16.0419 9.16512 15.9376L13.8308 14.3818C14.0908 14.2951 14.2956 14.0912 14.3822 13.8312L15.9381 9.16463C16.0422 8.85197 15.9605 8.50711 15.7277 8.27393Z" fill="#070808"/>
</svg>
