<svg width="22" height="22" viewBox="0 0 22 22" fill="none" xmlns="http://www.w3.org/2000/svg">
    <path d="M10.4609 3.07324C10.7803 2.83369 11.2197 2.83369 11.5391 3.07324L18.3389 8.17285C18.7959 8.51562 19.0654 9.05372 19.0654 9.625V18.4688C19.0654 18.5219 19.0219 18.5654 18.9688 18.5654H13.9434C13.8902 18.5654 13.8467 18.5219 13.8467 18.4688L13.8428 14.5049C13.8421 13.8371 13.3006 13.2959 12.6328 13.2959H9.36719C8.74123 13.2959 8.22572 13.7713 8.16309 14.3809L8.15723 14.5049L8.15332 18.4688C8.15328 18.5217 8.11052 18.5652 8.05762 18.5654H3.03125C2.97809 18.5654 2.93457 18.5219 2.93457 18.4688V9.625C2.93457 9.05372 3.20411 8.51562 3.66113 8.17285L10.4609 3.07324Z" stroke="#84888C" stroke-width="1.87"/>
</svg>
