<svg width="22" height="22" viewBox="0 0 22 22" fill="none" xmlns="http://www.w3.org/2000/svg">
    <path d="M2.75 9.3125C2.75 8.44692 3.15753 7.63185 3.85 7.1125L9.9 2.575C10.5519 2.08611 11.4481 2.08611 12.1 2.575L18.15 7.1125C18.8425 7.63185 19.25 8.44692 19.25 9.3125V17.2188C19.25 17.7883 18.7883 18.25 18.2188 18.25H14.6085C14.0393 18.25 13.5777 17.7888 13.5772 17.2196L13.5745 13.9696C13.5742 13.6661 13.328 13.4201 13.0245 13.4201H11H8.97553C8.67196 13.4201 8.42579 13.6661 8.42553 13.9696L8.42276 17.2196C8.42227 17.7888 7.96071 18.25 7.39151 18.25H3.78125C3.21171 18.25 2.75 17.7883 2.75 17.2188V9.3125Z" fill="#070808"/>
</svg>
