<svg width="22" height="22" viewBox="0 0 22 22" fill="none" xmlns="http://www.w3.org/2000/svg">
    <path d="M17.625 2.47461C19.2819 2.47461 20.625 3.81776 20.625 5.47461V16.5244C20.625 18.1813 19.2819 19.5244 17.625 19.5244H4.375C2.71815 19.5244 1.375 18.1813 1.375 16.5244V5.47461C1.375 3.81776 2.71815 2.47461 4.375 2.47461H17.625ZM12.375 13.915C11.8586 13.915 11.4404 14.3332 11.4404 14.8496C11.4404 15.366 11.8586 15.7842 12.375 15.7842H15.6748C16.1912 15.7842 16.6104 15.366 16.6104 14.8496C16.6104 14.3332 16.1912 13.915 15.6748 13.915H12.375Z" fill="#070808"/>
</svg>
