<svg width="24" height="24" viewBox="0 0 24 24" fill="none" xmlns="http://www.w3.org/2000/svg">
    <g clip-path="url(#clip0_5750_29766)">
        <path fill-rule="evenodd" clip-rule="evenodd" d="M24 12C24 18.6274 18.6274 24 12 24C5.37258 24 0 18.6274 0 12C0 5.37258 5.37258 0 12 0C18.6274 0 24 5.37258 24 12ZM6.05197 7.53285C5.91447 7.86479 5.8437 8.22057 5.8437 8.57987C5.8437 9.3055 6.13196 10.0014 6.64506 10.5145C7.15816 11.0276 7.85407 11.3159 8.5797 11.3159H10.9737C11.0186 11.3159 11.0631 11.307 11.1046 11.2898C11.1461 11.2726 11.1838 11.2475 11.2155 11.2157C11.2473 11.1839 11.2725 11.1462 11.2897 11.1047C11.3069 11.0633 11.3157 11.0188 11.3157 10.9739V8.57987C11.3157 8.22057 11.2449 7.86479 11.1074 7.53285C10.9699 7.2009 10.7684 6.89928 10.5143 6.64522C10.2603 6.39116 9.95867 6.18963 9.62672 6.05213C9.29478 5.91464 8.939 5.84387 8.5797 5.84387C8.22041 5.84387 7.86463 5.91464 7.53268 6.05213C7.20073 6.18963 6.89912 6.39116 6.64506 6.64522C6.391 6.89928 6.18946 7.2009 6.05197 7.53285ZM13.1448 7.05983C12.8442 7.50976 12.6837 8.03874 12.6837 8.57987V10.9739C12.6837 11.0188 12.6925 11.0633 12.7097 11.1047C12.7269 11.1462 12.7521 11.1839 12.7839 11.2157C12.8156 11.2475 12.8533 11.2726 12.8948 11.2898C12.9363 11.307 12.9808 11.3159 13.0257 11.3159H15.4197C15.9608 11.3159 16.4898 11.1554 16.9397 10.8548C17.3897 10.5541 17.7404 10.1268 17.9474 9.62689C18.1545 9.12695 18.2087 8.57683 18.1031 8.0461C17.9976 7.51537 17.737 7.02786 17.3543 6.64522C16.9717 6.26259 16.4842 6.00201 15.9535 5.89644C15.4227 5.79087 14.8726 5.84505 14.3727 6.05213C13.8727 6.25921 13.4454 6.60989 13.1448 7.05983ZM6.64506 13.4852C6.13196 13.9983 5.8437 14.6942 5.8437 15.4199C5.8437 16.1455 6.13196 16.8414 6.64506 17.3545C7.15816 17.8676 7.85407 18.1559 8.5797 18.1559C9.30533 18.1559 10.0012 17.8676 10.5143 17.3545C11.0274 16.8414 11.3157 16.1455 11.3157 15.4199V13.0259C11.3157 12.981 11.3069 12.9365 11.2897 12.895C11.2725 12.8535 11.2473 12.8158 11.2155 12.784C11.1838 12.7523 11.1461 12.7271 11.1046 12.7099C11.0631 12.6927 11.0186 12.6839 10.9737 12.6839H8.5797C7.85407 12.6839 7.15816 12.9721 6.64506 13.4852ZM12.7839 12.784C12.7197 12.8482 12.6837 12.9352 12.6837 13.0259V15.4199C12.6837 15.961 12.8442 16.49 13.1448 16.9399C13.4454 17.3898 13.8727 17.7405 14.3727 17.9476C14.8726 18.1547 15.4227 18.2089 15.9535 18.1033C16.4842 17.9977 16.9717 17.7372 17.3543 17.3545C17.737 16.9719 17.9976 16.4844 18.1031 15.9536C18.2087 15.4229 18.1545 14.8728 17.9474 14.3728C17.7404 13.8729 17.3897 13.4456 16.9397 13.145C16.4898 12.8443 15.9608 12.6839 15.4197 12.6839H13.0257C12.935 12.6839 12.848 12.7199 12.7839 12.784Z" fill="#303236"/>
    </g>
    <defs>
        <clipPath id="clip0_5750_29766">
            <rect width="24" height="24" fill="white"/>
        </clipPath>
    </defs>
</svg>
