<svg width="22" height="22" viewBox="0 0 22 22" fill="none" xmlns="http://www.w3.org/2000/svg">
    <path fill-rule="evenodd" clip-rule="evenodd" d="M17.3535 1.60994C19.0489 1.69569 20.3971 3.09714 20.3971 4.8138V17.1888C20.3971 18.9607 18.9607 20.3971 17.1888 20.3971H4.8138C3.04189 20.3971 1.60547 18.9607 1.60547 17.1888V4.8138C1.60547 3.04189 3.04189 1.60547 4.8138 1.60547H17.1888L17.3535 1.60994ZM7.39461 11.9547C7.05541 11.9547 6.75055 12.1636 6.62655 12.4792C6.50299 12.7951 6.58542 13.1546 6.83423 13.3852L9.32731 15.6956C9.66147 16.0047 10.1833 15.9847 10.4928 15.6509C10.8018 15.3169 10.7824 14.7949 10.449 14.4854L9.49919 13.6054H14.6089C15.0639 13.6049 15.434 13.2351 15.4342 12.78C15.434 12.3249 15.064 11.9552 14.6089 11.9547H7.39461ZM11.5545 7.51725L12.5043 8.39722H7.39461C6.93912 8.39725 6.56945 8.76712 6.56925 9.22257C6.5693 9.67815 6.93903 10.0479 7.39461 10.0479H14.6089C14.9481 10.0477 15.2531 9.83916 15.377 9.52336C15.5004 9.20759 15.418 8.84794 15.1693 8.61743L12.6762 6.30697L11.5545 7.51725ZM12.6762 6.30697C12.3421 5.99744 11.8204 6.01794 11.5107 6.35172C11.2011 6.6859 11.2204 7.20757 11.5545 7.51725L12.6762 6.30697Z" fill="#070808"/>
</svg>
