<svg width="20" height="20" viewBox="0 0 20 20" fill="none" xmlns="http://www.w3.org/2000/svg">
<path fill-rule="evenodd" clip-rule="evenodd" d="M9.42247 11.6986L11.6985 9.4225C11.4581 8.71535 10.7885 8.20657 10.0001 8.20657C9.00953 8.20657 8.20654 9.00956 8.20654 10.0001C8.20654 10.7885 8.71532 11.4582 9.42247 11.6986Z" fill="#FAFAFA"/>
<path fill-rule="evenodd" clip-rule="evenodd" d="M13.421 4.7617C12.3245 4.36647 11.1578 4.17112 10.0001 4.17112C7.05955 4.17112 4.06064 5.43139 2.30368 8.0261C1.49887 9.21466 1.49887 10.7854 2.30368 11.974C2.83729 12.762 3.48546 13.427 4.21176 13.9709L5.33599 12.8467C4.66555 12.3769 4.07554 11.7918 3.60313 11.0941C3.15816 10.437 3.15816 9.56314 3.60313 8.906C5.01538 6.82036 7.47853 5.74045 10.0001 5.74045C10.736 5.74045 11.4669 5.83242 12.1682 6.01454L13.421 4.7617ZM16.4027 6.53575L15.2908 7.64767C15.7055 8.01524 16.0781 8.43497 16.397 8.906C16.842 9.56314 16.842 10.437 16.397 11.0941C14.9848 13.1797 12.5216 14.2596 10.0001 14.2596C9.58567 14.2596 9.17285 14.2305 8.76601 14.1725L7.43535 15.5031C8.27351 15.721 9.1393 15.829 10.0001 15.829C12.9406 15.829 15.9395 14.5687 17.6965 11.974C18.5013 10.7854 18.5013 9.21466 17.6965 8.0261C17.3184 7.46778 16.8828 6.97124 16.4027 6.53575Z" fill="#FAFAFA"/>
<path d="M4.39526 16.1653L16.7257 3.83485" stroke="#FAFAFA" stroke-width="1.56933" stroke-linecap="round"/>
</svg>
