<svg width="32" height="33" viewBox="0 0 32 33" fill="none" xmlns="http://www.w3.org/2000/svg">
<path fill-rule="evenodd" clip-rule="evenodd" d="M25.0473 19.504C24.9175 19.1468 25.0593 18.7506 25.3678 18.5285C27.6033 16.9193 29.0589 14.2945 29.0589 11.3297C29.0589 6.43433 25.0904 2.46582 20.195 2.46582C15.2996 2.46582 11.3311 6.43433 11.3311 11.3297C11.3311 14.5267 13.0236 17.3284 15.5615 18.8876C15.9058 19.0992 16.075 19.5191 15.9369 19.8989L12.4597 29.4613C12.2699 29.983 12.6563 30.5347 13.2115 30.5347H27.9163C28.4715 30.5347 28.8579 29.983 28.6682 29.4613L25.0473 19.504Z" fill="#070808"/>
<path d="M12.4597 29.4613L13.3055 29.7689L12.4597 29.4613ZM15.5615 18.8876L16.0326 18.1208L15.5615 18.8876ZM15.9369 19.8989L15.0911 19.5913L15.9369 19.8989ZM28.6682 29.4613L27.8224 29.7689L28.6682 29.4613ZM25.0473 19.504L25.8932 19.1964L25.0473 19.504ZM28.1589 11.3297C28.1589 13.9928 26.8527 16.3508 24.842 17.7981L25.8936 19.259C28.3539 17.4879 29.9589 14.5962 29.9589 11.3297H28.1589ZM20.195 3.36582C24.5933 3.36582 28.1589 6.93139 28.1589 11.3297H29.9589C29.9589 5.93727 25.5874 1.56582 20.195 1.56582V3.36582ZM12.2311 11.3297C12.2311 6.93139 15.7966 3.36582 20.195 3.36582V1.56582C14.8025 1.56582 10.4311 5.93727 10.4311 11.3297H12.2311ZM16.0326 18.1208C13.7501 16.7185 12.2311 14.2011 12.2311 11.3297H10.4311C10.4311 14.8524 12.2971 17.9384 15.0904 19.6545L16.0326 18.1208ZM13.3055 29.7689L16.7827 20.2065L15.0911 19.5913L11.6138 29.1537L13.3055 29.7689ZM27.9163 29.6347H13.2115V31.4347H27.9163V29.6347ZM24.2015 19.8116L27.8224 29.7689L29.514 29.1537L25.8932 19.1964L24.2015 19.8116ZM11.6138 29.1537C11.2107 30.2624 12.0318 31.4347 13.2115 31.4347V29.6347C13.2809 29.6347 13.3292 29.7037 13.3055 29.7689L11.6138 29.1537ZM15.0904 19.6545C15.093 19.6561 15.0914 19.6567 15.089 19.6503C15.0874 19.6463 15.0853 19.6387 15.0851 19.6275C15.0849 19.6157 15.0869 19.6029 15.0911 19.5913L16.7827 20.2065C17.0815 19.3848 16.7034 18.5329 16.0326 18.1208L15.0904 19.6545ZM27.9163 31.4347C29.0961 31.4347 29.9172 30.2624 29.514 29.1537L27.8224 29.7689C27.7987 29.7036 27.847 29.6347 27.9163 29.6347V31.4347ZM24.842 17.7981C24.2388 18.2323 23.9208 19.0396 24.2015 19.8116L25.8932 19.1964C25.8972 19.2076 25.8992 19.2196 25.8992 19.2307C25.8993 19.2412 25.8975 19.2488 25.896 19.253C25.8936 19.2603 25.8915 19.2605 25.8936 19.259L24.842 17.7981Z" fill="white"/>
<path d="M13.8152 13.7561C15.1038 14.3516 16.6916 14.372 18.0091 14.1956C18.4525 14.1363 18.901 14.9246 18.6029 15.2582C17.7449 16.2185 16.8802 17.4023 16.6344 18.4978C16.3151 19.921 16.5318 22.1576 16.7895 23.7702C16.852 24.1615 16.342 24.4503 16.0338 24.2012C14.981 23.3504 13.4195 22.2637 11.8011 21.6122C10.1654 20.9537 8.20443 20.9436 6.79848 21.0951C6.40186 21.1379 6.10377 20.6071 6.35972 20.3011C7.34775 19.12 8.57838 17.4381 9.02764 16.0927C9.44708 14.8366 9.21982 13.0501 8.89196 11.6608C8.79633 11.2555 9.34665 10.89 9.67583 11.145C10.7827 12.0024 12.3206 13.0654 13.8152 13.7561Z" fill="#A7F757" stroke="white" stroke-width="1.8" stroke-linejoin="round"/>
<path d="M1.73051 11.7221L5.94336 13.9102" stroke="white" stroke-width="1.8" stroke-linecap="round"/>
<path d="M19.6758 21.0424L23.8887 23.2305" stroke="white" stroke-width="1.8" stroke-linecap="round"/>
<path d="M18.5641 6.39677L16.376 10.6096" stroke="white" stroke-width="1.8" stroke-linecap="round"/>
<path d="M9.24277 24.3428L7.05469 28.5557" stroke="white" stroke-width="1.8" stroke-linecap="round"/>
</svg>
