<svg xmlns="http://www.w3.org/2000/svg" width="28" height="29" fill="none" viewBox="0 0 28 29">
  <path stroke="#FAFAFA" stroke-linecap="round" stroke-width="1.75" d="M19.478 23.46A10.452 10.452 0 0 1 14 25C8.201 25 3.5 20.299 3.5 14.5S8.201 4 14 4s10.5 4.701 10.5 10.5a10.467 10.467 0 0 1-1.54 5.478"/>
  <path fill="#FAFAFA" fill-rule="evenodd" d="M11.899 10.27c.615-.54 1.45-.845 2.32-.845.87 0 1.705.304 2.32.846.615.541.961 1.276.961 2.041 0 1.138-.408 1.735-1.456 2.657l-.16.145c-.61.553-.77.833-.77 1.398a.74.74 0 0 1-.263.557.96.96 0 0 1-.632.231.96.96 0 0 1-.633-.23.743.743 0 0 1-.262-.558c0-1.137.408-1.734 1.456-2.656l.16-.145c.61-.553.77-.832.77-1.399 0-.348-.157-.681-.437-.928A1.6 1.6 0 0 0 14.22 11a1.6 1.6 0 0 0-1.055.384c-.28.247-.437.58-.437.928l-.008.108a.77.77 0 0 1-.322.503.979.979 0 0 1-.626.175.949.949 0 0 1-.593-.248.739.739 0 0 1-.24-.537c0-.766.345-1.5.96-2.042Zm2.368 7.686a1.037 1.037 0 1 0 0 2.074 1.037 1.037 0 0 0 0-2.074Z" clip-rule="evenodd"/>
</svg>
