<svg width="28" height="29" viewBox="0 0 28 29" fill="none" xmlns="http://www.w3.org/2000/svg">
<path d="M10.9375 9.25H17.0625" stroke="#FAFAFA" stroke-width="1.75" stroke-linecap="round" stroke-linejoin="round"/>
<path d="M6.5625 11.875H6.125C4.67525 11.875 3.5 13.0503 3.5 14.5L3.5 15.1562V15.1562C3.5 15.5561 3.73306 15.9193 4.09657 16.0859L12.9063 20.1237C13.6007 20.442 14.3993 20.442 15.0937 20.1237L24.5 15.8125M21.4375 11.875H21.875C23.3247 11.875 24.5 13.0503 24.5 14.5V15.8125M3.5 20.1875V22.375C3.5 23.8247 4.67525 25 6.125 25H21.875C23.3247 25 24.5 23.8247 24.5 22.375V15.8125" stroke="#FAFAFA" stroke-width="1.75" stroke-linecap="round"/>
<path d="M21.4375 17.125V6.625C21.4375 5.17525 20.2622 4 18.8125 4H14H9.1875C7.73775 4 6.5625 5.17525 6.5625 6.625V17.125" stroke="#FAFAFA" stroke-width="1.75"/>
</svg>
