<svg xmlns="http://www.w3.org/2000/svg" width="28" height="29" fill="none" viewBox="0 0 28 29">
  <path stroke="#FAFAFA" stroke-linecap="round" stroke-width="1.75" d="M15.184 25.167h4.004a4.875 4.875 0 0 0 4.875-4.874v-5.78C24.063 8.956 19.556 4.45 14 4.45c-1.655 0-3.216.4-4.594 1.108M4.53 13.329h2.368a2.368 2.368 0 0 1 2.368 2.368v2.367c0 .981-.795 1.776-1.776 1.776H4.777a.84.84 0 0 1-.84-.84v-4.487c0-2.31.78-4.44 2.089-6.138"/>
  <path stroke="#FAFAFA" stroke-linecap="round" stroke-width="1.75" d="M23.234 19.84H20.51c-.98 0-1.776-.795-1.776-1.776v-2.367a2.368 2.368 0 0 1 2.368-2.368h2.604"/>
  <path stroke="#FAFAFA" stroke-width="1.75" d="M24.063 17.125V14.5c0-5.557-4.506-10.063-10.063-10.063S3.937 8.944 3.937 14.5v2.625"/>
</svg>
