<svg width="351" height="117" viewBox="0 0 351 117" fill="none" xmlns="http://www.w3.org/2000/svg">
<rect width="351" height="117" fill="#141414"/>
<path d="M138.53 47.7672H157.472C161.614 47.7672 164.972 51.1248 164.972 55.2666V57.5627C164.972 61.7045 161.614 65.0621 157.472 65.0621H138.53C138.192 65.0621 137.918 64.7884 137.918 64.4508V48.3785C137.918 48.0409 138.192 47.7672 138.53 47.7672Z" fill="#141414" stroke="#FAFAFA" stroke-width="1.07339"/>
<path d="M132.417 50.6373H137.917V62.1921H132.417C131.609 62.1921 130.954 61.537 130.954 60.7288V52.1006C130.954 51.2924 131.609 50.6373 132.417 50.6373Z" fill="#141414" stroke="#FAFAFA" stroke-width="1.07339"/>
<g filter="url(#filter0_b_1109_12340)">
<circle cx="147.14" cy="56.4134" r="4.59209" fill="#0A75F7"/>
</g>
<path d="M133.268 55.8177H137.562V56.8911H133.268V55.8177Z" fill="#FAFAFA"/>
<path d="M133.268 57.9645H137.562V59.0379H133.268V57.9645Z" fill="#FAFAFA"/>
<path d="M133.268 53.6709H137.562V54.7443H133.268V53.6709Z" fill="#FAFAFA"/>
<mask id="mask0_1109_12340" style="mask-type:alpha" maskUnits="userSpaceOnUse" x="49" y="4" width="77" height="105">
<path d="M49.3761 4.29395H125.05V108.413H49.3761V4.29395Z" fill="#D9D9D9"/>
</mask>
<g mask="url(#mask0_1109_12340)">
<rect x="27.3715" y="17.7115" width="92.3119" height="65.4771" rx="3.75688" fill="#141414" stroke="#FAFAFA" stroke-width="1.07339"/>
<rect x="20.9311" y="17.7115" width="92.3119" height="65.4771" rx="3.75688" fill="#141414" stroke="#FAFAFA" stroke-width="1.07339"/>
<path d="M106.803 26.8354V74.0648C106.803 75.5468 105.601 76.7483 104.119 76.7483H30.055C28.5729 76.7483 27.3715 75.5468 27.3715 74.0648V26.8354C27.3715 25.3534 28.5729 24.1519 30.055 24.1519H49.3761H104.119C105.601 24.1519 106.803 25.3534 106.803 26.8354Z" fill="#141414" stroke="#FAFAFA" stroke-width="1.07339"/>
<path d="M88.5549 95.7629V99.2898H60.6467V95.7629H64.5952H65.0479H88.5549ZM86.4196 84.2623L88.4409 94.6895H65.5007L63.7187 84.2623H86.4196Z" fill="#595959" stroke="#595959" stroke-width="1.07339"/>
<path d="M79.431 94.6895H78.8943V95.2262V99.2898H54.2063V94.9962H60.5714H61.211L61.1 94.3663L59.3183 84.2623H81.132L83.0785 94.6895H79.431Z" fill="#141414" stroke="#595959" stroke-width="1.07339"/>
</g>
<mask id="mask1_1109_12340" style="mask-type:alpha" maskUnits="userSpaceOnUse" x="207" y="4" width="76" height="105">
<path d="M207.165 4.29395H282.839V108.413H207.165V4.29395Z" fill="#D9D9D9"/>
</mask>
<g mask="url(#mask1_1109_12340)">
<rect x="185.16" y="17.7115" width="92.3119" height="65.4771" rx="3.75688" fill="#141414" stroke="#FAFAFA" stroke-width="1.07339"/>
<rect x="178.72" y="17.7115" width="92.3119" height="65.4771" rx="3.75688" fill="#141414" stroke="#FAFAFA" stroke-width="1.07339"/>
<rect x="185.16" y="24.1519" width="79.4312" height="52.5963" rx="2.68349" fill="#141414" stroke="#FAFAFA" stroke-width="1.07339"/>
<path d="M246.344 95.7629V99.2898H218.436V95.7629H222.384H222.837H246.344ZM244.209 84.2623L246.23 94.6895H223.29L221.508 84.2623H244.209Z" fill="#595959" stroke="#595959" stroke-width="1.07339"/>
<path d="M237.22 94.6895H236.683V95.2262V99.2898H211.995V94.9962H218.36H219L218.889 94.3663L217.107 84.2623H238.921L240.868 94.6895H237.22Z" fill="#141414" stroke="#595959" stroke-width="1.07339"/>
</g>
<path d="M275.388 47.7672H294.33C298.472 47.7672 301.829 51.1248 301.829 55.2666V57.5627C301.829 61.7045 298.472 65.0621 294.33 65.0621H275.388C275.05 65.0621 274.776 64.7884 274.776 64.4508V48.3785C274.776 48.0409 275.05 47.7672 275.388 47.7672Z" fill="#141414" stroke="#FAFAFA" stroke-width="1.07339"/>
<g filter="url(#filter1_b_1109_12340)">
<circle cx="283.997" cy="56.4134" r="4.59209" fill="#0A75F7"/>
</g>
<defs>
<filter id="filter0_b_1109_12340" x="135.935" y="45.2087" width="22.4094" height="22.4098" filterUnits="userSpaceOnUse" color-interpolation-filters="sRGB">
<feFlood flood-opacity="0" result="BackgroundImageFix"/>
<feGaussianBlur in="BackgroundImageFix" stdDeviation="3.3063"/>
<feComposite in2="SourceAlpha" operator="in" result="effect1_backgroundBlur_1109_12340"/>
<feBlend mode="normal" in="SourceGraphic" in2="effect1_backgroundBlur_1109_12340" result="shape"/>
</filter>
<filter id="filter1_b_1109_12340" x="272.793" y="45.2087" width="22.4094" height="22.4098" filterUnits="userSpaceOnUse" color-interpolation-filters="sRGB">
<feFlood flood-opacity="0" result="BackgroundImageFix"/>
<feGaussianBlur in="BackgroundImageFix" stdDeviation="3.3063"/>
<feComposite in2="SourceAlpha" operator="in" result="effect1_backgroundBlur_1109_12340"/>
<feBlend mode="normal" in="SourceGraphic" in2="effect1_backgroundBlur_1109_12340" result="shape"/>
</filter>
</defs>
</svg>
